<svg width="224" height="133" viewBox="0 0 224 133" fill="none" xmlns="http://www.w3.org/2000/svg">
<g filter="url(#filter0_d_825_503)">
<rect x="4" y="3" width="216" height="92" rx="8" fill="#494459"/>
</g>
<path d="M83.879 54L85.5494 43.8182H86.7426L85.0722 54H83.879ZM79.2703 51.2756L79.4642 50.0824H87.1801L86.9862 51.2756H79.2703ZM80.2994 54L81.9699 43.8182H83.1631L81.4926 54H80.2994ZM79.8619 47.7358L80.0558 46.5426H87.7718L87.5779 47.7358H79.8619ZM89.2412 52.0114V50.7685L93.6411 43.8182H94.6205V45.6477H93.999L90.852 50.6293V50.7088H96.8825V52.0114H89.2412ZM94.0686 54V51.6335L94.0786 51.0668V43.8182H95.5352V54H94.0686ZM102.501 43.679C102.955 43.6823 103.402 43.7652 103.843 43.9276C104.284 44.09 104.682 44.3551 105.036 44.723C105.394 45.0909 105.679 45.5881 105.891 46.2145C106.107 46.8376 106.216 47.6132 106.22 48.5412C106.22 49.4328 106.13 50.2266 105.951 50.9226C105.772 51.6153 105.515 52.2003 105.18 52.6776C104.849 53.1548 104.446 53.5178 103.972 53.7663C103.498 54.0149 102.965 54.1392 102.372 54.1392C101.765 54.1392 101.226 54.0199 100.756 53.7812C100.285 53.5426 99.9023 53.2128 99.6073 52.7919C99.3124 52.3677 99.1284 51.8804 99.0555 51.3303H100.572C100.671 51.7678 100.873 52.1224 101.178 52.3942C101.487 52.6626 101.884 52.7969 102.372 52.7969C103.117 52.7969 103.699 52.4721 104.117 51.8224C104.534 51.1695 104.745 50.258 104.748 49.0881H104.668C104.496 49.3731 104.281 49.6184 104.022 49.8239C103.767 50.0294 103.48 50.1884 103.162 50.3011C102.844 50.4138 102.504 50.4702 102.143 50.4702C101.556 50.4702 101.023 50.326 100.542 50.0376C100.061 49.7493 99.6786 49.3532 99.3936 48.8494C99.1085 48.3456 98.966 47.7706 98.966 47.1243C98.966 46.4813 99.1118 45.898 99.4035 45.3743C99.6985 44.8506 100.109 44.4363 100.636 44.1314C101.167 43.8232 101.788 43.6723 102.501 43.679ZM102.506 44.9716C102.118 44.9716 101.768 45.0677 101.457 45.2599C101.149 45.4489 100.905 45.7057 100.726 46.0305C100.547 46.352 100.457 46.71 100.457 47.1044C100.457 47.4988 100.544 47.8568 100.716 48.1783C100.892 48.4964 101.13 48.75 101.432 48.9389C101.737 49.1245 102.085 49.2173 102.476 49.2173C102.768 49.2173 103.039 49.161 103.291 49.0483C103.543 48.9356 103.764 48.7798 103.953 48.581C104.141 48.3788 104.289 48.1501 104.395 47.8949C104.501 47.6397 104.554 47.3712 104.554 47.0895C104.554 46.715 104.465 46.367 104.286 46.0455C104.11 45.724 103.868 45.4654 103.56 45.2699C103.252 45.071 102.9 44.9716 102.506 44.9716ZM108.302 52.0114V50.7685L112.702 43.8182H113.681V45.6477H113.06L109.913 50.6293V50.7088H115.943V52.0114H108.302ZM113.129 54V51.6335L113.139 51.0668V43.8182H114.596V54H113.129ZM117.962 52.0114V50.7685L122.362 43.8182H123.341V45.6477H122.72L119.573 50.6293V50.7088H125.603V52.0114H117.962ZM122.789 54V51.6335L122.799 51.0668V43.8182H124.256V54H122.789ZM131.197 54.1392C130.574 54.1392 130.013 54.0199 129.516 53.7812C129.022 53.5393 128.628 53.2079 128.333 52.7869C128.038 52.366 127.881 51.8854 127.861 51.3452H129.352C129.389 51.7827 129.583 52.1423 129.934 52.424C130.285 52.7057 130.706 52.8466 131.197 52.8466C131.588 52.8466 131.934 52.7571 132.236 52.5781C132.541 52.3958 132.779 52.1456 132.952 51.8274C133.127 51.5092 133.215 51.1463 133.215 50.7386C133.215 50.3243 133.126 49.9548 132.947 49.63C132.768 49.3052 132.521 49.05 132.206 48.8643C131.894 48.6787 131.536 48.5843 131.132 48.581C130.824 48.581 130.514 48.634 130.202 48.7401C129.891 48.8461 129.639 48.9853 129.447 49.1577L128.04 48.9489L128.611 43.8182H134.209V45.1357H129.889L129.566 47.9844H129.626C129.824 47.7921 130.088 47.6314 130.416 47.5021C130.748 47.3729 131.102 47.3082 131.48 47.3082C132.1 47.3082 132.652 47.4557 133.136 47.7507C133.623 48.0457 134.006 48.4484 134.284 48.9588C134.566 49.4659 134.705 50.0492 134.702 50.7088C134.705 51.3684 134.556 51.9567 134.254 52.4737C133.956 52.9908 133.542 53.3984 133.011 53.6967C132.484 53.9917 131.879 54.1392 131.197 54.1392ZM140.403 43.679C140.857 43.6823 141.305 43.7652 141.745 43.9276C142.186 44.09 142.584 44.3551 142.939 44.723C143.297 45.0909 143.582 45.5881 143.794 46.2145C144.009 46.8376 144.119 47.6132 144.122 48.5412C144.122 49.4328 144.032 50.2266 143.853 50.9226C143.674 51.6153 143.418 52.2003 143.083 52.6776C142.751 53.1548 142.349 53.5178 141.875 53.7663C141.401 54.0149 140.867 54.1392 140.274 54.1392C139.667 54.1392 139.129 54.0199 138.658 53.7812C138.187 53.5426 137.805 53.2128 137.51 52.7919C137.215 52.3677 137.031 51.8804 136.958 51.3303H138.474C138.574 51.7678 138.776 52.1224 139.081 52.3942C139.389 52.6626 139.787 52.7969 140.274 52.7969C141.02 52.7969 141.601 52.4721 142.019 51.8224C142.437 51.1695 142.647 50.258 142.65 49.0881H142.571C142.398 49.3731 142.183 49.6184 141.924 49.8239C141.669 50.0294 141.383 50.1884 141.064 50.3011C140.746 50.4138 140.406 50.4702 140.045 50.4702C139.459 50.4702 138.925 50.326 138.444 50.0376C137.964 49.7493 137.581 49.3532 137.296 48.8494C137.011 48.3456 136.868 47.7706 136.868 47.1243C136.868 46.4813 137.014 45.898 137.306 45.3743C137.601 44.8506 138.012 44.4363 138.539 44.1314C139.069 43.8232 139.691 43.6723 140.403 43.679ZM140.408 44.9716C140.02 44.9716 139.671 45.0677 139.359 45.2599C139.051 45.4489 138.807 45.7057 138.628 46.0305C138.449 46.352 138.36 46.71 138.36 47.1044C138.36 47.4988 138.446 47.8568 138.618 48.1783C138.794 48.4964 139.033 48.75 139.334 48.9389C139.639 49.1245 139.987 49.2173 140.378 49.2173C140.67 49.2173 140.942 49.161 141.194 49.0483C141.446 48.9356 141.666 48.7798 141.855 48.581C142.044 48.3788 142.191 48.1501 142.297 47.8949C142.403 47.6397 142.456 47.3712 142.456 47.0895C142.456 46.715 142.367 46.367 142.188 46.0455C142.012 45.724 141.77 45.4654 141.462 45.2699C141.154 45.071 140.803 44.9716 140.408 44.9716Z" fill="#E6E1E6"/>
<path d="M10.6719 119.493C10.6188 119.022 10.4001 118.658 10.0156 118.399C9.63116 118.137 9.14725 118.006 8.56392 118.006C8.14631 118.006 7.78504 118.073 7.48011 118.205C7.17519 118.335 6.93821 118.513 6.76918 118.742C6.60346 118.968 6.5206 119.224 6.5206 119.513C6.5206 119.755 6.57694 119.964 6.68963 120.139C6.80563 120.315 6.95644 120.462 7.14205 120.582C7.33097 120.698 7.53314 120.795 7.74858 120.875C7.96402 120.951 8.17116 121.014 8.37003 121.064L9.36435 121.322C9.68916 121.402 10.0223 121.51 10.3636 121.646C10.705 121.781 11.0215 121.96 11.3132 122.183C11.6049 122.405 11.8402 122.68 12.0192 123.008C12.2015 123.336 12.2926 123.729 12.2926 124.186C12.2926 124.763 12.1435 125.275 11.8452 125.722C11.5502 126.17 11.121 126.523 10.5575 126.781C9.9974 127.04 9.3196 127.169 8.52415 127.169C7.76184 127.169 7.10227 127.048 6.54545 126.806C5.98864 126.564 5.55279 126.221 5.23793 125.777C4.92306 125.33 4.74905 124.799 4.71591 124.186H6.2571C6.28693 124.554 6.40625 124.861 6.61506 125.106C6.82718 125.348 7.0973 125.528 7.42543 125.648C7.75687 125.764 8.11979 125.822 8.5142 125.822C8.94839 125.822 9.33452 125.754 9.67259 125.618C10.014 125.479 10.2824 125.286 10.478 125.041C10.6735 124.793 10.7713 124.503 10.7713 124.171C10.7713 123.87 10.6851 123.623 10.5128 123.43C10.3438 123.238 10.1134 123.079 9.82173 122.953C9.53338 122.827 9.20691 122.716 8.84233 122.62L7.6392 122.292C6.82386 122.07 6.17756 121.743 5.70028 121.312C5.22633 120.882 4.98935 120.312 4.98935 119.602C4.98935 119.016 5.14844 118.504 5.46662 118.066C5.7848 117.629 6.21567 117.289 6.75923 117.047C7.30279 116.802 7.91596 116.679 8.59872 116.679C9.28812 116.679 9.89631 116.8 10.4233 117.042C10.9536 117.284 11.3712 117.617 11.6761 118.041C11.9811 118.462 12.1402 118.946 12.1534 119.493H10.6719ZM17.8002 127.154C17.0479 127.154 16.3999 126.993 15.8564 126.672C15.3161 126.347 14.8985 125.891 14.6035 125.305C14.3118 124.715 14.166 124.024 14.166 123.232C14.166 122.449 14.3118 121.76 14.6035 121.163C14.8985 120.567 15.3095 120.101 15.8365 119.766C16.3668 119.432 16.9866 119.264 17.6958 119.264C18.1267 119.264 18.5443 119.335 18.9487 119.478C19.353 119.621 19.716 119.844 20.0375 120.149C20.359 120.454 20.6125 120.85 20.7981 121.337C20.9837 121.821 21.0765 122.41 21.0765 123.102V123.629H15.0062V122.516H19.6199C19.6199 122.125 19.5403 121.778 19.3812 121.477C19.2221 121.172 18.9984 120.931 18.71 120.756C18.425 120.58 18.0903 120.492 17.7058 120.492C17.2882 120.492 16.9236 120.595 16.612 120.8C16.3038 121.003 16.0652 121.268 15.8961 121.596C15.7304 121.921 15.6475 122.274 15.6475 122.655V123.525C15.6475 124.035 15.737 124.469 15.916 124.827C16.0983 125.185 16.3519 125.459 16.6767 125.648C17.0015 125.833 17.381 125.926 17.8152 125.926C18.0969 125.926 18.3538 125.886 18.5858 125.807C18.8178 125.724 19.0183 125.601 19.1873 125.439C19.3564 125.277 19.4856 125.076 19.5751 124.837L20.9821 125.091C20.8694 125.505 20.6672 125.868 20.3755 126.18C20.0872 126.488 19.7243 126.728 19.2868 126.901C18.8526 127.07 18.3571 127.154 17.8002 127.154ZM26.4425 127.154C25.7034 127.154 25.067 126.987 24.5334 126.652C24.0031 126.314 23.5954 125.848 23.3104 125.255C23.0253 124.662 22.8828 123.982 22.8828 123.217C22.8828 122.441 23.0286 121.757 23.3203 121.163C23.612 120.567 24.023 120.101 24.5533 119.766C25.0836 119.432 25.7083 119.264 26.4276 119.264C27.0076 119.264 27.5246 119.372 27.9787 119.587C28.4328 119.799 28.799 120.098 29.0774 120.482C29.3591 120.867 29.5265 121.316 29.5795 121.83H28.1328C28.0533 121.472 27.871 121.163 27.5859 120.905C27.3042 120.646 26.9264 120.517 26.4524 120.517C26.0381 120.517 25.6752 120.626 25.3636 120.845C25.0554 121.061 24.8151 121.369 24.6428 121.77C24.4704 122.168 24.3842 122.638 24.3842 123.182C24.3842 123.739 24.4688 124.219 24.6378 124.624C24.8068 125.028 25.0455 125.341 25.3537 125.563C25.6652 125.785 26.0315 125.896 26.4524 125.896C26.7341 125.896 26.9893 125.845 27.218 125.742C27.45 125.636 27.6439 125.485 27.7997 125.29C27.9588 125.094 28.0698 124.859 28.1328 124.584H29.5795C29.5265 125.078 29.3658 125.518 29.0973 125.906C28.8288 126.294 28.4692 126.599 28.0185 126.821C27.571 127.043 27.0457 127.154 26.4425 127.154ZM34.8858 127.154C34.1699 127.154 33.5452 126.99 33.0115 126.662C32.4779 126.334 32.0636 125.875 31.7686 125.285C31.4737 124.695 31.3262 124.005 31.3262 123.217C31.3262 122.424 31.4737 121.732 31.7686 121.138C32.0636 120.545 32.4779 120.085 33.0115 119.756C33.5452 119.428 34.1699 119.264 34.8858 119.264C35.6017 119.264 36.2265 119.428 36.7601 119.756C37.2937 120.085 37.708 120.545 38.003 121.138C38.298 121.732 38.4455 122.424 38.4455 123.217C38.4455 124.005 38.298 124.695 38.003 125.285C37.708 125.875 37.2937 126.334 36.7601 126.662C36.2265 126.99 35.6017 127.154 34.8858 127.154ZM34.8908 125.906C35.3548 125.906 35.7393 125.784 36.0442 125.538C36.3491 125.293 36.5745 124.967 36.7203 124.559C36.8695 124.151 36.9441 123.702 36.9441 123.212C36.9441 122.724 36.8695 122.277 36.7203 121.869C36.5745 121.458 36.3491 121.129 36.0442 120.88C35.7393 120.631 35.3548 120.507 34.8908 120.507C34.4235 120.507 34.0357 120.631 33.7275 120.88C33.4225 121.129 33.1955 121.458 33.0463 121.869C32.9005 122.277 32.8276 122.724 32.8276 123.212C32.8276 123.702 32.9005 124.151 33.0463 124.559C33.1955 124.967 33.4225 125.293 33.7275 125.538C34.0357 125.784 34.4235 125.906 34.8908 125.906ZM42.0913 122.466V127H40.6048V119.364H42.0316V120.607H42.1261C42.3017 120.202 42.5768 119.877 42.9513 119.632C43.3292 119.387 43.8048 119.264 44.3782 119.264C44.8986 119.264 45.3543 119.374 45.7454 119.592C46.1365 119.808 46.4397 120.129 46.6552 120.557C46.8706 120.984 46.9783 121.513 46.9783 122.143V127H45.4918V122.322C45.4918 121.768 45.3477 121.336 45.0593 121.024C44.771 120.709 44.3749 120.552 43.8711 120.552C43.5264 120.552 43.2198 120.626 42.9513 120.776C42.6862 120.925 42.4757 121.143 42.32 121.432C42.1675 121.717 42.0913 122.062 42.0913 122.466ZM52.3306 127.149C51.7141 127.149 51.1639 126.992 50.68 126.677C50.1995 126.359 49.8216 125.906 49.5465 125.32C49.2747 124.73 49.1388 124.022 49.1388 123.197C49.1388 122.371 49.2764 121.665 49.5515 121.079C49.8299 120.492 50.2111 120.043 50.695 119.732C51.1789 119.42 51.7274 119.264 52.3406 119.264C52.8145 119.264 53.1957 119.344 53.484 119.503C53.7757 119.659 54.0011 119.841 54.1602 120.05C54.3226 120.259 54.4485 120.442 54.538 120.602H54.6275V116.818H56.114V127H54.6623V125.812H54.538C54.4485 125.974 54.3192 126.16 54.1502 126.369C53.9845 126.577 53.7558 126.76 53.4641 126.915C53.1725 127.071 52.7946 127.149 52.3306 127.149ZM52.6587 125.881C53.0863 125.881 53.4476 125.769 53.7425 125.543C54.0408 125.315 54.2662 124.998 54.4187 124.594C54.5745 124.189 54.6523 123.719 54.6523 123.182C54.6523 122.652 54.5761 122.187 54.4237 121.79C54.2712 121.392 54.0475 121.082 53.7525 120.86C53.4575 120.638 53.0929 120.527 52.6587 120.527C52.2113 120.527 51.8384 120.643 51.5401 120.875C51.2418 121.107 51.0165 121.424 50.864 121.825C50.7148 122.226 50.6403 122.678 50.6403 123.182C50.6403 123.692 50.7165 124.151 50.869 124.559C51.0214 124.967 51.2468 125.29 51.5451 125.528C51.8467 125.764 52.2179 125.881 52.6587 125.881ZM60.9579 127.169C60.474 127.169 60.0365 127.08 59.6454 126.901C59.2543 126.718 58.9444 126.455 58.7157 126.11C58.4904 125.765 58.3777 125.343 58.3777 124.842C58.3777 124.411 58.4605 124.057 58.6262 123.778C58.792 123.5 59.0157 123.28 59.2974 123.117C59.5791 122.955 59.894 122.832 60.242 122.749C60.59 122.666 60.9447 122.603 61.3059 122.56C61.7633 122.507 62.1345 122.464 62.4196 122.431C62.7046 122.395 62.9118 122.337 63.041 122.257C63.1703 122.178 63.2349 122.048 63.2349 121.869V121.835C63.2349 121.4 63.1123 121.064 62.867 120.825C62.6251 120.587 62.2638 120.467 61.7832 120.467C61.2827 120.467 60.8883 120.578 60.6 120.8C60.3149 121.019 60.1177 121.263 60.0083 121.531L58.6113 121.213C58.777 120.749 59.019 120.375 59.3372 120.089C59.6587 119.801 60.0282 119.592 60.4458 119.463C60.8635 119.33 61.3026 119.264 61.7633 119.264C62.0682 119.264 62.3914 119.301 62.7328 119.374C63.0775 119.443 63.399 119.572 63.6973 119.761C63.9989 119.95 64.2458 120.22 64.438 120.572C64.6303 120.92 64.7264 121.372 64.7264 121.929V127H63.2747V125.956H63.215C63.1189 126.148 62.9747 126.337 62.7825 126.523C62.5903 126.708 62.3433 126.862 62.0417 126.985C61.7401 127.108 61.3788 127.169 60.9579 127.169ZM61.2811 125.976C61.6921 125.976 62.0434 125.895 62.335 125.732C62.63 125.57 62.8538 125.358 63.0062 125.096C63.162 124.831 63.2399 124.547 63.2399 124.246V123.261C63.1868 123.314 63.0841 123.364 62.9316 123.411C62.7825 123.454 62.6118 123.492 62.4196 123.525C62.2273 123.555 62.0401 123.583 61.8578 123.609C61.6755 123.633 61.523 123.652 61.4004 123.669C61.112 123.705 60.8485 123.767 60.6099 123.853C60.3746 123.939 60.1857 124.063 60.0431 124.226C59.9039 124.385 59.8343 124.597 59.8343 124.862C59.8343 125.23 59.9702 125.509 60.242 125.697C60.5138 125.883 60.8601 125.976 61.2811 125.976ZM67.2063 127V119.364H68.6431V120.577H68.7227C68.8619 120.166 69.1071 119.843 69.4585 119.607C69.8131 119.369 70.2141 119.249 70.6616 119.249C70.7544 119.249 70.8638 119.253 70.9897 119.259C71.119 119.266 71.2201 119.274 71.293 119.284V120.706C71.2333 120.689 71.1272 120.671 70.9748 120.651C70.8223 120.628 70.6699 120.616 70.5174 120.616C70.1661 120.616 69.8529 120.691 69.5778 120.84C69.306 120.986 69.0906 121.19 68.9315 121.452C68.7724 121.71 68.6928 122.005 68.6928 122.337V127H67.2063ZM74.2514 129.864C74.0294 129.864 73.8272 129.845 73.6449 129.809C73.4626 129.776 73.3267 129.739 73.2372 129.7L73.5952 128.482C73.867 128.554 74.1089 128.586 74.321 128.576C74.5331 128.566 74.7204 128.487 74.8828 128.337C75.0485 128.188 75.1944 127.945 75.3203 127.607L75.5043 127.099L72.7102 119.364H74.3011L76.2351 125.29H76.3146L78.2486 119.364H79.8445L76.6974 128.019C76.5516 128.417 76.366 128.753 76.1406 129.028C75.9152 129.307 75.6468 129.516 75.3352 129.655C75.0237 129.794 74.6624 129.864 74.2514 129.864ZM94.5225 120.129H92.9714C92.9118 119.798 92.8007 119.506 92.6383 119.254C92.4759 119.002 92.277 118.789 92.0417 118.613C91.8064 118.437 91.5429 118.305 91.2512 118.215C90.9629 118.126 90.6563 118.081 90.3315 118.081C89.7449 118.081 89.2195 118.228 88.7555 118.523C88.2948 118.818 87.9302 119.251 87.6618 119.821C87.3966 120.391 87.264 121.087 87.264 121.909C87.264 122.738 87.3966 123.437 87.6618 124.007C87.9302 124.577 88.2965 125.008 88.7605 125.3C89.2245 125.591 89.7465 125.737 90.3265 125.737C90.648 125.737 90.9529 125.694 91.2413 125.608C91.533 125.518 91.7965 125.388 92.0318 125.215C92.2671 125.043 92.466 124.832 92.6284 124.584C92.7941 124.332 92.9084 124.044 92.9714 123.719L94.5225 123.724C94.4397 124.224 94.2789 124.685 94.0403 125.106C93.805 125.523 93.5017 125.885 93.1305 126.19C92.7626 126.491 92.3417 126.725 91.8677 126.891C91.3938 127.056 90.8767 127.139 90.3166 127.139C89.435 127.139 88.6494 126.93 87.96 126.513C87.2707 126.092 86.7271 125.49 86.3294 124.708C85.935 123.926 85.7377 122.993 85.7377 121.909C85.7377 120.822 85.9366 119.889 86.3343 119.11C86.7321 118.328 87.2756 117.728 87.965 117.31C88.6544 116.889 89.4383 116.679 90.3166 116.679C90.8568 116.679 91.3606 116.757 91.8279 116.913C92.2986 117.065 92.7212 117.29 93.0957 117.589C93.4702 117.884 93.7801 118.245 94.0254 118.673C94.2707 119.097 94.4364 119.582 94.5225 120.129ZM99.9581 127.154C99.2422 127.154 98.6174 126.99 98.0838 126.662C97.5502 126.334 97.1359 125.875 96.8409 125.285C96.5459 124.695 96.3984 124.005 96.3984 123.217C96.3984 122.424 96.5459 121.732 96.8409 121.138C97.1359 120.545 97.5502 120.085 98.0838 119.756C98.6174 119.428 99.2422 119.264 99.9581 119.264C100.674 119.264 101.299 119.428 101.832 119.756C102.366 120.085 102.78 120.545 103.075 121.138C103.37 121.732 103.518 122.424 103.518 123.217C103.518 124.005 103.37 124.695 103.075 125.285C102.78 125.875 102.366 126.334 101.832 126.662C101.299 126.99 100.674 127.154 99.9581 127.154ZM99.9631 125.906C100.427 125.906 100.812 125.784 101.116 125.538C101.421 125.293 101.647 124.967 101.793 124.559C101.942 124.151 102.016 123.702 102.016 123.212C102.016 122.724 101.942 122.277 101.793 121.869C101.647 121.458 101.421 121.129 101.116 120.88C100.812 120.631 100.427 120.507 99.9631 120.507C99.4957 120.507 99.108 120.631 98.7997 120.88C98.4948 121.129 98.2678 121.458 98.1186 121.869C97.9728 122.277 97.8999 122.724 97.8999 123.212C97.8999 123.702 97.9728 124.151 98.1186 124.559C98.2678 124.967 98.4948 125.293 98.7997 125.538C99.108 125.784 99.4957 125.906 99.9631 125.906ZM107.164 122.466V127H105.677V119.364H107.104V120.607H107.198C107.374 120.202 107.649 119.877 108.024 119.632C108.401 119.387 108.877 119.264 109.45 119.264C109.971 119.264 110.427 119.374 110.818 119.592C111.209 119.808 111.512 120.129 111.727 120.557C111.943 120.984 112.051 121.513 112.051 122.143V127H110.564V122.322C110.564 121.768 110.42 121.336 110.132 121.024C109.843 120.709 109.447 120.552 108.943 120.552C108.599 120.552 108.292 120.626 108.024 120.776C107.758 120.925 107.548 121.143 107.392 121.432C107.24 121.717 107.164 122.062 107.164 122.466ZM118.109 119.364V120.557H113.938V119.364H118.109ZM115.056 117.534H116.543V124.758C116.543 125.046 116.586 125.263 116.672 125.409C116.758 125.552 116.869 125.649 117.005 125.702C117.144 125.752 117.295 125.777 117.458 125.777C117.577 125.777 117.681 125.769 117.771 125.752C117.86 125.736 117.93 125.722 117.98 125.712L118.248 126.94C118.162 126.973 118.039 127.007 117.88 127.04C117.721 127.076 117.522 127.096 117.284 127.099C116.892 127.106 116.528 127.036 116.19 126.891C115.852 126.745 115.578 126.519 115.369 126.214C115.161 125.91 115.056 125.527 115.056 125.066V117.534ZM122.475 127.169C121.992 127.169 121.554 127.08 121.163 126.901C120.772 126.718 120.462 126.455 120.233 126.11C120.008 125.765 119.895 125.343 119.895 124.842C119.895 124.411 119.978 124.057 120.144 123.778C120.31 123.5 120.533 123.28 120.815 123.117C121.097 122.955 121.412 122.832 121.76 122.749C122.108 122.666 122.462 122.603 122.824 122.56C123.281 122.507 123.652 122.464 123.937 122.431C124.222 122.395 124.429 122.337 124.559 122.257C124.688 122.178 124.752 122.048 124.752 121.869V121.835C124.752 121.4 124.63 121.064 124.385 120.825C124.143 120.587 123.781 120.467 123.301 120.467C122.8 120.467 122.406 120.578 122.118 120.8C121.833 121.019 121.635 121.263 121.526 121.531L120.129 121.213C120.295 120.749 120.537 120.375 120.855 120.089C121.176 119.801 121.546 119.592 121.963 119.463C122.381 119.33 122.82 119.264 123.281 119.264C123.586 119.264 123.909 119.301 124.25 119.374C124.595 119.443 124.917 119.572 125.215 119.761C125.516 119.95 125.763 120.22 125.956 120.572C126.148 120.92 126.244 121.372 126.244 121.929V127H124.792V125.956H124.733C124.636 126.148 124.492 126.337 124.3 126.523C124.108 126.708 123.861 126.862 123.559 126.985C123.258 127.108 122.896 127.169 122.475 127.169ZM122.799 125.976C123.21 125.976 123.561 125.895 123.853 125.732C124.148 125.57 124.371 125.358 124.524 125.096C124.68 124.831 124.757 124.547 124.757 124.246V123.261C124.704 123.314 124.602 123.364 124.449 123.411C124.3 123.454 124.129 123.492 123.937 123.525C123.745 123.555 123.558 123.583 123.375 123.609C123.193 123.633 123.041 123.652 122.918 123.669C122.63 123.705 122.366 123.767 122.127 123.853C121.892 123.939 121.703 124.063 121.561 124.226C121.422 124.385 121.352 124.597 121.352 124.862C121.352 125.23 121.488 125.509 121.76 125.697C122.031 125.883 122.378 125.976 122.799 125.976ZM128.724 127V119.364H130.21V127H128.724ZM129.475 118.185C129.216 118.185 128.994 118.099 128.808 117.927C128.626 117.751 128.535 117.542 128.535 117.3C128.535 117.055 128.626 116.846 128.808 116.674C128.994 116.498 129.216 116.411 129.475 116.411C129.733 116.411 129.954 116.498 130.136 116.674C130.321 116.846 130.414 117.055 130.414 117.3C130.414 117.542 130.321 117.751 130.136 117.927C129.954 118.099 129.733 118.185 129.475 118.185ZM134.197 122.466V127H132.71V119.364H134.137V120.607H134.232C134.407 120.202 134.682 119.877 135.057 119.632C135.435 119.387 135.91 119.264 136.484 119.264C137.004 119.264 137.46 119.374 137.851 119.592C138.242 119.808 138.545 120.129 138.761 120.557C138.976 120.984 139.084 121.513 139.084 122.143V127H137.597V122.322C137.597 121.768 137.453 121.336 137.165 121.024C136.876 120.709 136.48 120.552 135.977 120.552C135.632 120.552 135.325 120.626 135.057 120.776C134.792 120.925 134.581 121.143 134.425 121.432C134.273 121.717 134.197 122.062 134.197 122.466ZM144.869 127.154C144.116 127.154 143.468 126.993 142.925 126.672C142.384 126.347 141.967 125.891 141.672 125.305C141.38 124.715 141.234 124.024 141.234 123.232C141.234 122.449 141.38 121.76 141.672 121.163C141.967 120.567 142.378 120.101 142.905 119.766C143.435 119.432 144.055 119.264 144.764 119.264C145.195 119.264 145.613 119.335 146.017 119.478C146.421 119.621 146.784 119.844 147.106 120.149C147.427 120.454 147.681 120.85 147.866 121.337C148.052 121.821 148.145 122.41 148.145 123.102V123.629H142.075V122.516H146.688C146.688 122.125 146.609 121.778 146.45 121.477C146.29 121.172 146.067 120.931 145.778 120.756C145.493 120.58 145.159 120.492 144.774 120.492C144.357 120.492 143.992 120.595 143.68 120.8C143.372 121.003 143.134 121.268 142.964 121.596C142.799 121.921 142.716 122.274 142.716 122.655V123.525C142.716 124.035 142.805 124.469 142.984 124.827C143.167 125.185 143.42 125.459 143.745 125.648C144.07 125.833 144.449 125.926 144.884 125.926C145.165 125.926 145.422 125.886 145.654 125.807C145.886 125.724 146.087 125.601 146.256 125.439C146.425 125.277 146.554 125.076 146.643 124.837L148.05 125.091C147.938 125.505 147.736 125.868 147.444 126.18C147.156 126.488 146.793 126.728 146.355 126.901C145.921 127.07 145.425 127.154 144.869 127.154ZM150.294 127V119.364H151.731V120.577H151.811C151.95 120.166 152.195 119.843 152.546 119.607C152.901 119.369 153.302 119.249 153.749 119.249C153.842 119.249 153.952 119.253 154.078 119.259C154.207 119.266 154.308 119.274 154.381 119.284V120.706C154.321 120.689 154.215 120.671 154.063 120.651C153.91 120.628 153.758 120.616 153.605 120.616C153.254 120.616 152.941 120.691 152.666 120.84C152.394 120.986 152.178 121.19 152.019 121.452C151.86 121.71 151.781 122.005 151.781 122.337V127H150.294Z" fill="#1C1B1E"/>
<defs>
<filter id="filter0_d_825_503" x="0" y="0" width="224" height="100" filterUnits="userSpaceOnUse" color-interpolation-filters="sRGB">
<feFlood flood-opacity="0" result="BackgroundImageFix"/>
<feColorMatrix in="SourceAlpha" type="matrix" values="0 0 0 0 0 0 0 0 0 0 0 0 0 0 0 0 0 0 127 0" result="hardAlpha"/>
<feOffset dy="1"/>
<feGaussianBlur stdDeviation="2"/>
<feComposite in2="hardAlpha" operator="out"/>
<feColorMatrix type="matrix" values="0 0 0 0 0 0 0 0 0 0 0 0 0 0 0 0 0 0 0.1 0"/>
<feBlend mode="normal" in2="BackgroundImageFix" result="effect1_dropShadow_825_503"/>
<feBlend mode="normal" in="SourceGraphic" in2="effect1_dropShadow_825_503" result="shape"/>
</filter>
</defs>
</svg>
