<svg width="224" height="133" viewBox="0 0 224 133" fill="none" xmlns="http://www.w3.org/2000/svg">
<g filter="url(#filter0_d_825_495)">
<rect x="4" y="3" width="216" height="92" rx="8" fill="#FFAAF2"/>
</g>
<path d="M85.0958 54L86.7662 43.8182H87.9594L86.289 54H85.0958ZM80.4871 51.2756L80.681 50.0824H88.3969L88.203 51.2756H80.4871ZM81.5162 54L83.1867 43.8182H84.3799L82.7094 54H81.5162ZM81.0787 47.7358L81.2726 46.5426H88.9885L88.7947 47.7358H81.0787ZM90.811 54V43.8182H97.1249V45.1406H92.3472V48.2429H96.6725V49.5604H92.3472V54H90.811ZM99.5141 54V43.8182H105.828V45.1406H101.05V48.2429H105.376V49.5604H101.05V54H99.5141ZM107.806 54H106.175L109.839 43.8182H111.614L115.278 54H113.647L110.769 45.6676H110.689L107.806 54ZM108.079 50.0128H113.369V51.3054H108.079V50.0128ZM118.109 54H116.478L120.142 43.8182H121.917L125.581 54H123.95L121.072 45.6676H120.992L118.109 54ZM118.382 50.0128H123.672V51.3054H118.382V50.0128ZM127.551 54V43.8182H133.865V45.1406H129.087V48.2429H133.413V49.5604H129.087V54H127.551ZM136.115 54V52.8864L139.56 49.3168C139.928 48.929 140.232 48.5893 140.47 48.2976C140.712 48.0026 140.893 47.7225 141.012 47.4574C141.131 47.1922 141.191 46.9105 141.191 46.6122C141.191 46.2741 141.112 45.9825 140.953 45.7372C140.793 45.4886 140.576 45.2981 140.301 45.1655C140.026 45.0296 139.716 44.9616 139.372 44.9616C139.007 44.9616 138.689 45.0362 138.417 45.1854C138.145 45.3345 137.936 45.545 137.791 45.8168C137.645 46.0885 137.572 46.4067 137.572 46.7713H136.105C136.105 46.1515 136.248 45.6096 136.533 45.1456C136.818 44.6816 137.209 44.322 137.706 44.0668C138.203 43.8082 138.768 43.679 139.401 43.679C140.041 43.679 140.604 43.8066 141.092 44.0618C141.582 44.3137 141.965 44.6584 142.24 45.0959C142.515 45.5301 142.653 46.0206 142.653 46.5675C142.653 46.9453 142.582 47.3149 142.439 47.6761C142.3 48.0374 142.056 48.4401 141.708 48.8842C141.36 49.325 140.876 49.8603 140.256 50.4901L138.233 52.608V52.6825H142.817V54H136.115Z" fill="#1C1B1E"/>
<path d="M13.5753 120.129H12.0241C11.9645 119.798 11.8535 119.506 11.6911 119.254C11.5286 119.002 11.3298 118.789 11.0945 118.613C10.8591 118.437 10.5956 118.305 10.304 118.215C10.0156 118.126 9.70904 118.081 9.38423 118.081C8.79759 118.081 8.27225 118.228 7.80824 118.523C7.34754 118.818 6.98295 119.251 6.71449 119.821C6.44934 120.391 6.31676 121.087 6.31676 121.909C6.31676 122.738 6.44934 123.437 6.71449 124.007C6.98295 124.577 7.3492 125.008 7.81321 125.3C8.27723 125.591 8.79924 125.737 9.37926 125.737C9.70076 125.737 10.0057 125.694 10.294 125.608C10.5857 125.518 10.8492 125.388 11.0845 125.215C11.3198 125.043 11.5187 124.832 11.6811 124.584C11.8468 124.332 11.9612 124.044 12.0241 123.719L13.5753 123.724C13.4924 124.224 13.3317 124.685 13.093 125.106C12.8577 125.523 12.5545 125.885 12.1832 126.19C11.8153 126.491 11.3944 126.725 10.9205 126.891C10.4465 127.056 9.92945 127.139 9.36932 127.139C8.48769 127.139 7.70218 126.93 7.01278 126.513C6.32339 126.092 5.77983 125.49 5.3821 124.708C4.98769 123.926 4.79048 122.993 4.79048 121.909C4.79048 120.822 4.98935 119.889 5.38707 119.11C5.7848 118.328 6.32836 117.728 7.01776 117.31C7.70715 116.889 8.491 116.679 9.36932 116.679C9.90956 116.679 10.4134 116.757 10.8807 116.913C11.3513 117.065 11.7739 117.29 12.1484 117.589C12.523 117.884 12.8329 118.245 13.0781 118.673C13.3234 119.097 13.4891 119.582 13.5753 120.129ZM20.6316 123.833V119.364H22.123V127H20.6614V125.678H20.5819C20.4062 126.085 20.1245 126.425 19.7367 126.697C19.3522 126.965 18.8733 127.099 18.2999 127.099C17.8094 127.099 17.3752 126.992 16.9973 126.776C16.6228 126.558 16.3278 126.234 16.1124 125.807C15.9003 125.379 15.7942 124.851 15.7942 124.221V119.364H17.2807V124.042C17.2807 124.562 17.4249 124.977 17.7132 125.285C18.0016 125.593 18.3761 125.747 18.8368 125.747C19.1152 125.747 19.392 125.678 19.6671 125.538C19.9455 125.399 20.1758 125.189 20.3581 124.907C20.5437 124.625 20.6349 124.267 20.6316 123.833ZM30.3427 121.228L28.9954 121.467C28.939 121.294 28.8496 121.13 28.7269 120.974C28.6076 120.819 28.4452 120.691 28.2397 120.592C28.0342 120.492 27.7773 120.442 27.4691 120.442C27.0482 120.442 26.6969 120.537 26.4151 120.726C26.1334 120.911 25.9925 121.152 25.9925 121.447C25.9925 121.702 26.087 121.907 26.2759 122.063C26.4648 122.219 26.7698 122.347 27.1907 122.446L28.4038 122.724C29.1064 122.887 29.6301 123.137 29.9748 123.475C30.3195 123.813 30.4918 124.252 30.4918 124.793C30.4918 125.25 30.3593 125.658 30.0941 126.016C29.8323 126.37 29.466 126.649 28.9954 126.851C28.5281 127.053 27.9862 127.154 27.3697 127.154C26.5146 127.154 25.8169 126.972 25.2766 126.607C24.7364 126.239 24.4049 125.717 24.2823 125.041L25.7191 124.822C25.8086 125.197 25.9925 125.48 26.271 125.673C26.5494 125.862 26.9123 125.956 27.3597 125.956C27.8469 125.956 28.2364 125.855 28.5281 125.653C28.8197 125.447 28.9656 125.197 28.9656 124.902C28.9656 124.663 28.8761 124.463 28.6971 124.3C28.5214 124.138 28.2513 124.015 27.8867 123.933L26.5941 123.649C25.8815 123.487 25.3545 123.228 25.0131 122.874C24.6751 122.519 24.506 122.07 24.506 121.526C24.506 121.076 24.632 120.681 24.8839 120.343C25.1358 120.005 25.4838 119.741 25.9279 119.553C26.372 119.36 26.8808 119.264 27.4542 119.264C28.2795 119.264 28.9291 119.443 29.4031 119.801C29.877 120.156 30.1902 120.631 30.3427 121.228ZM36.1909 119.364V120.557H32.0197V119.364H36.1909ZM33.1383 117.534H34.6248V124.758C34.6248 125.046 34.6679 125.263 34.7541 125.409C34.8403 125.552 34.9513 125.649 35.0872 125.702C35.2264 125.752 35.3772 125.777 35.5396 125.777C35.6589 125.777 35.7633 125.769 35.8528 125.752C35.9423 125.736 36.0119 125.722 36.0616 125.712L36.3301 126.94C36.2439 126.973 36.1213 127.007 35.9622 127.04C35.8031 127.076 35.6042 127.096 35.3656 127.099C34.9745 127.106 34.6099 127.036 34.2718 126.891C33.9338 126.745 33.6603 126.519 33.4515 126.214C33.2427 125.91 33.1383 125.527 33.1383 125.066V117.534ZM41.4698 127.154C40.7539 127.154 40.1291 126.99 39.5955 126.662C39.0619 126.334 38.6476 125.875 38.3526 125.285C38.0576 124.695 37.9102 124.005 37.9102 123.217C37.9102 122.424 38.0576 121.732 38.3526 121.138C38.6476 120.545 39.0619 120.085 39.5955 119.756C40.1291 119.428 40.7539 119.264 41.4698 119.264C42.1857 119.264 42.8105 119.428 43.3441 119.756C43.8777 120.085 44.292 120.545 44.587 121.138C44.882 121.732 45.0295 122.424 45.0295 123.217C45.0295 124.005 44.882 124.695 44.587 125.285C44.292 125.875 43.8777 126.334 43.3441 126.662C42.8105 126.99 42.1857 127.154 41.4698 127.154ZM41.4748 125.906C41.9388 125.906 42.3233 125.784 42.6282 125.538C42.9331 125.293 43.1585 124.967 43.3043 124.559C43.4535 124.151 43.5281 123.702 43.5281 123.212C43.5281 122.724 43.4535 122.277 43.3043 121.869C43.1585 121.458 42.9331 121.129 42.6282 120.88C42.3233 120.631 41.9388 120.507 41.4748 120.507C41.0075 120.507 40.6197 120.631 40.3114 120.88C40.0065 121.129 39.7795 121.458 39.6303 121.869C39.4845 122.277 39.4116 122.724 39.4116 123.212C39.4116 123.702 39.4845 124.151 39.6303 124.559C39.7795 124.967 40.0065 125.293 40.3114 125.538C40.6197 125.784 41.0075 125.906 41.4748 125.906ZM47.1887 127V119.364H48.6156V120.607H48.71C48.8691 120.186 49.1293 119.857 49.4906 119.622C49.8519 119.384 50.2844 119.264 50.7882 119.264C51.2986 119.264 51.7261 119.384 52.0708 119.622C52.4189 119.861 52.6757 120.189 52.8414 120.607H52.921C53.1033 120.199 53.3933 119.874 53.791 119.632C54.1887 119.387 54.6627 119.264 55.2129 119.264C55.9056 119.264 56.4707 119.481 56.9082 119.915C57.349 120.35 57.5694 121.004 57.5694 121.879V127H56.0829V122.018C56.0829 121.501 55.9421 121.127 55.6603 120.895C55.3786 120.663 55.0422 120.547 54.6511 120.547C54.1672 120.547 53.791 120.696 53.5225 120.994C53.2541 121.289 53.1199 121.669 53.1199 122.133V127H51.6383V121.924C51.6383 121.51 51.5091 121.177 51.2505 120.925C50.992 120.673 50.6556 120.547 50.2413 120.547C49.9596 120.547 49.6994 120.621 49.4608 120.771C49.2254 120.916 49.0349 121.12 48.889 121.382C48.7465 121.644 48.6752 121.947 48.6752 122.292V127H47.1887ZM68.1099 116.818V127H66.5687V118.359H66.5091L64.073 119.95V118.479L66.6135 116.818H68.1099Z" fill="#1C1B1E"/>
<defs>
<filter id="filter0_d_825_495" x="0" y="0" width="224" height="100" filterUnits="userSpaceOnUse" color-interpolation-filters="sRGB">
<feFlood flood-opacity="0" result="BackgroundImageFix"/>
<feColorMatrix in="SourceAlpha" type="matrix" values="0 0 0 0 0 0 0 0 0 0 0 0 0 0 0 0 0 0 127 0" result="hardAlpha"/>
<feOffset dy="1"/>
<feGaussianBlur stdDeviation="2"/>
<feComposite in2="hardAlpha" operator="out"/>
<feColorMatrix type="matrix" values="0 0 0 0 0 0 0 0 0 0 0 0 0 0 0 0 0 0 0.1 0"/>
<feBlend mode="normal" in2="BackgroundImageFix" result="effect1_dropShadow_825_495"/>
<feBlend mode="normal" in="SourceGraphic" in2="effect1_dropShadow_825_495" result="shape"/>
</filter>
</defs>
</svg>
