<svg width="224" height="133" viewBox="0 0 224 133" fill="none" xmlns="http://www.w3.org/2000/svg">
<g filter="url(#filter0_d_825_498)">
<rect x="4" y="3" width="216" height="92" rx="8" fill="#680003"/>
</g>
<path d="M83.92 54L85.5905 43.8182H86.7836L85.1132 54H83.92ZM79.3113 51.2756L79.5052 50.0824H87.2211L87.0273 51.2756H79.3113ZM80.3405 54L82.0109 43.8182H83.2041L81.5336 54H80.3405ZM79.903 47.7358L80.0969 46.5426H87.8128L87.6189 47.7358H79.903ZM93.0507 54.1392C92.5966 54.1326 92.1492 54.0497 91.7084 53.8906C91.2709 53.7315 90.8731 53.4664 90.5152 53.0952C90.1572 52.724 89.8705 52.2251 89.6551 51.5987C89.443 50.9723 89.3369 50.1901 89.3369 49.2521C89.3369 48.3639 89.4247 47.575 89.6004 46.8857C89.7794 46.1963 90.0363 45.6146 90.371 45.1406C90.7058 44.6634 91.1101 44.3004 91.5841 44.0518C92.058 43.8033 92.59 43.679 93.18 43.679C93.7865 43.679 94.3251 43.7983 94.7957 44.0369C95.2664 44.2756 95.6475 44.6054 95.9392 45.0263C96.2342 45.4472 96.4214 45.9261 96.501 46.4631H94.9846C94.8819 46.0388 94.6781 45.6925 94.3731 45.424C94.0682 45.1555 93.6705 45.0213 93.18 45.0213C92.4342 45.0213 91.8525 45.3461 91.4349 45.9957C91.0206 46.6454 90.8118 47.5485 90.8085 48.7053H90.8831C91.0587 48.4169 91.2742 48.1716 91.5294 47.9695C91.7879 47.764 92.0763 47.6065 92.3944 47.4972C92.7159 47.3845 93.054 47.3281 93.4086 47.3281C93.9986 47.3281 94.5322 47.4723 95.0095 47.7607C95.4901 48.0457 95.8729 48.4401 96.1579 48.9439C96.443 49.4477 96.5855 50.0244 96.5855 50.674C96.5855 51.3236 96.438 51.9119 96.143 52.4389C95.8514 52.9659 95.4404 53.3835 94.9101 53.6918C94.3798 53.9967 93.76 54.1458 93.0507 54.1392ZM93.0457 52.8466C93.4368 52.8466 93.7865 52.7505 94.0947 52.5582C94.403 52.366 94.6466 52.1075 94.8256 51.7827C95.0045 51.4579 95.094 51.0949 95.094 50.6939C95.094 50.3028 95.0062 49.9465 94.8305 49.625C94.6582 49.3035 94.4195 49.0483 94.1146 48.8594C93.813 48.6705 93.4683 48.576 93.0805 48.576C92.7855 48.576 92.5121 48.6323 92.2602 48.745C92.0116 48.8577 91.7929 49.0135 91.604 49.2124C91.415 49.4112 91.2659 49.6399 91.1565 49.8984C91.0505 50.1536 90.9974 50.4238 90.9974 50.7088C90.9974 51.09 91.0853 51.4429 91.2609 51.7678C91.4399 52.0926 91.6835 52.3544 91.9917 52.5533C92.3033 52.7488 92.6546 52.8466 93.0457 52.8466ZM102.337 54.1392C101.624 54.1392 100.994 54.0166 100.448 53.7713C99.904 53.526 99.4781 53.188 99.1698 52.7571C98.8616 52.3262 98.7091 51.8357 98.7124 51.2855C98.7091 50.8546 98.797 50.4586 98.9759 50.0973C99.1582 49.7327 99.4052 49.4295 99.7167 49.1875C100.028 48.9422 100.376 48.7865 100.761 48.7202V48.6605C100.254 48.5379 99.8476 48.2661 99.5427 47.8452C99.2378 47.4242 99.087 46.9403 99.0903 46.3935C99.087 45.8731 99.2245 45.4091 99.5029 45.0014C99.7847 44.5904 100.171 44.2673 100.661 44.032C101.152 43.7966 101.71 43.679 102.337 43.679C102.957 43.679 103.51 43.7983 103.997 44.0369C104.488 44.2723 104.874 44.5954 105.156 45.0064C105.437 45.4141 105.58 45.8764 105.583 46.3935C105.58 46.9403 105.424 47.4242 105.116 47.8452C104.808 48.2661 104.407 48.5379 103.913 48.6605V48.7202C104.294 48.7865 104.637 48.9422 104.942 49.1875C105.25 49.4295 105.495 49.7327 105.678 50.0973C105.863 50.4586 105.958 50.8546 105.961 51.2855C105.958 51.8357 105.802 52.3262 105.494 52.7571C105.185 53.188 104.758 53.526 104.211 53.7713C103.667 54.0166 103.043 54.1392 102.337 54.1392ZM102.337 52.8814C102.758 52.8814 103.122 52.8118 103.43 52.6726C103.739 52.5301 103.977 52.3329 104.146 52.081C104.315 51.8258 104.402 51.5275 104.405 51.1861C104.402 50.8314 104.309 50.5182 104.127 50.2464C103.948 49.9747 103.704 49.7609 103.396 49.6051C103.087 49.4493 102.734 49.3714 102.337 49.3714C101.936 49.3714 101.579 49.4493 101.268 49.6051C100.956 49.7609 100.711 49.9747 100.532 50.2464C100.353 50.5182 100.265 50.8314 100.269 51.1861C100.265 51.5275 100.346 51.8258 100.512 52.081C100.681 52.3329 100.921 52.5301 101.233 52.6726C101.545 52.8118 101.912 52.8814 102.337 52.8814ZM102.337 48.1435C102.675 48.1435 102.975 48.0755 103.237 47.9396C103.498 47.8037 103.704 47.6148 103.853 47.3729C104.006 47.1309 104.083 46.8475 104.087 46.5227C104.083 46.2045 104.007 45.9261 103.858 45.6875C103.712 45.4489 103.508 45.2649 103.247 45.1357C102.985 45.0031 102.681 44.9368 102.337 44.9368C101.985 44.9368 101.677 45.0031 101.412 45.1357C101.15 45.2649 100.946 45.4489 100.801 45.6875C100.655 45.9261 100.583 46.2045 100.587 46.5227C100.583 46.8475 100.656 47.1309 100.805 47.3729C100.955 47.6148 101.16 47.8037 101.422 47.9396C101.687 48.0755 101.992 48.1435 102.337 48.1435ZM111.787 54.169C111.001 54.1657 110.33 53.9586 109.773 53.5476C109.217 53.1366 108.791 52.5384 108.496 51.7528C108.201 50.9673 108.053 50.0211 108.053 48.9141C108.053 47.8104 108.201 46.8674 108.496 46.0852C108.794 45.303 109.222 44.7064 109.778 44.2955C110.338 43.8845 111.008 43.679 111.787 43.679C112.566 43.679 113.234 43.8861 113.79 44.3004C114.347 44.7114 114.773 45.308 115.068 46.0902C115.366 46.8691 115.516 47.8104 115.516 48.9141C115.516 50.0244 115.368 50.9723 115.073 51.7578C114.778 52.54 114.352 53.1383 113.795 53.5526C113.239 53.9635 112.569 54.169 111.787 54.169ZM111.787 52.8416C112.476 52.8416 113.015 52.5052 113.403 51.8324C113.794 51.1596 113.989 50.1868 113.989 48.9141C113.989 48.0689 113.9 47.3546 113.721 46.7713C113.545 46.1847 113.292 45.7405 112.96 45.4389C112.632 45.134 112.241 44.9815 111.787 44.9815C111.101 44.9815 110.562 45.3196 110.171 45.9957C109.78 46.6719 109.583 47.6446 109.579 48.9141C109.579 49.7625 109.667 50.4801 109.843 51.0668C110.022 51.6501 110.275 52.0926 110.604 52.3942C110.932 52.6925 111.326 52.8416 111.787 52.8416ZM121.324 54.169C120.538 54.1657 119.867 53.9586 119.31 53.5476C118.754 53.1366 118.328 52.5384 118.033 51.7528C117.738 50.9673 117.59 50.0211 117.59 48.9141C117.59 47.8104 117.738 46.8674 118.033 46.0852C118.331 45.303 118.759 44.7064 119.315 44.2955C119.876 43.8845 120.545 43.679 121.324 43.679C122.103 43.679 122.771 43.8861 123.328 44.3004C123.884 44.7114 124.31 45.308 124.605 46.0902C124.903 46.8691 125.053 47.8104 125.053 48.9141C125.053 50.0244 124.905 50.9723 124.61 51.7578C124.315 52.54 123.889 53.1383 123.332 53.5526C122.776 53.9635 122.106 54.169 121.324 54.169ZM121.324 52.8416C122.013 52.8416 122.552 52.5052 122.94 51.8324C123.331 51.1596 123.526 50.1868 123.526 48.9141C123.526 48.0689 123.437 47.3546 123.258 46.7713C123.082 46.1847 122.829 45.7405 122.497 45.4389C122.169 45.134 121.778 44.9815 121.324 44.9815C120.638 44.9815 120.099 45.3196 119.708 45.9957C119.317 46.6719 119.12 47.6446 119.117 48.9141C119.117 49.7625 119.204 50.4801 119.38 51.0668C119.559 51.6501 119.813 52.0926 120.141 52.3942C120.469 52.6925 120.863 52.8416 121.324 52.8416ZM130.861 54.169C130.076 54.1657 129.404 53.9586 128.848 53.5476C128.291 53.1366 127.865 52.5384 127.57 51.7528C127.275 50.9673 127.127 50.0211 127.127 48.9141C127.127 47.8104 127.275 46.8674 127.57 46.0852C127.868 45.303 128.296 44.7064 128.853 44.2955C129.413 43.8845 130.082 43.679 130.861 43.679C131.64 43.679 132.308 43.8861 132.865 44.3004C133.421 44.7114 133.847 45.308 134.142 46.0902C134.441 46.8691 134.59 47.8104 134.59 48.9141C134.59 50.0244 134.442 50.9723 134.147 51.7578C133.852 52.54 133.426 53.1383 132.87 53.5526C132.313 53.9635 131.643 54.169 130.861 54.169ZM130.861 52.8416C131.55 52.8416 132.089 52.5052 132.477 51.8324C132.868 51.1596 133.063 50.1868 133.063 48.9141C133.063 48.0689 132.974 47.3546 132.795 46.7713C132.619 46.1847 132.366 45.7405 132.034 45.4389C131.706 45.134 131.315 44.9815 130.861 44.9815C130.175 44.9815 129.636 45.3196 129.245 45.9957C128.854 46.6719 128.657 47.6446 128.654 48.9141C128.654 49.7625 128.742 50.4801 128.917 51.0668C129.096 51.6501 129.35 52.0926 129.678 52.3942C130.006 52.6925 130.4 52.8416 130.861 52.8416ZM140.398 54.1392C139.715 54.1392 139.106 54.0215 138.569 53.7862C138.035 53.5509 137.612 53.2244 137.301 52.8068C136.993 52.3859 136.827 51.8987 136.804 51.3452H138.365C138.385 51.6468 138.486 51.9086 138.668 52.1307C138.854 52.3494 139.096 52.5185 139.394 52.6378C139.692 52.7571 140.024 52.8168 140.388 52.8168C140.789 52.8168 141.144 52.7472 141.452 52.608C141.764 52.4687 142.007 52.2749 142.183 52.0263C142.359 51.7744 142.446 51.4844 142.446 51.1562C142.446 50.8149 142.359 50.5149 142.183 50.2564C142.011 49.9946 141.757 49.7891 141.422 49.6399C141.091 49.4908 140.69 49.4162 140.219 49.4162H139.359V48.1634H140.219C140.597 48.1634 140.928 48.0954 141.214 47.9595C141.502 47.8236 141.727 47.6347 141.89 47.3928C142.052 47.1475 142.133 46.8608 142.133 46.5327C142.133 46.2178 142.062 45.9444 141.919 45.7124C141.78 45.477 141.581 45.2931 141.323 45.1605C141.068 45.0279 140.766 44.9616 140.418 44.9616C140.087 44.9616 139.777 45.023 139.488 45.1456C139.203 45.2649 138.971 45.4373 138.792 45.6626C138.613 45.8847 138.517 46.1515 138.504 46.4631H137.017C137.034 45.9129 137.196 45.429 137.505 45.0114C137.816 44.5937 138.227 44.2673 138.738 44.032C139.248 43.7966 139.815 43.679 140.438 43.679C141.091 43.679 141.654 43.8066 142.128 44.0618C142.606 44.3137 142.973 44.6501 143.232 45.071C143.494 45.492 143.623 45.9527 143.62 46.4531C143.623 47.0232 143.464 47.5071 143.142 47.9048C142.824 48.3026 142.4 48.5694 141.87 48.7053V48.7848C142.546 48.8875 143.07 49.156 143.441 49.5902C143.815 50.0244 144.001 50.563 143.998 51.206C144.001 51.7661 143.845 52.2682 143.53 52.7124C143.219 53.1565 142.793 53.5062 142.253 53.7614C141.712 54.0133 141.094 54.1392 140.398 54.1392Z" fill="#E6E1E6"/>
<path d="M13.9631 121.909C13.9631 122.996 13.7642 123.931 13.3665 124.713C12.9688 125.492 12.4235 126.092 11.7308 126.513C11.0414 126.93 10.2576 127.139 9.37926 127.139C8.49763 127.139 7.71046 126.93 7.01776 126.513C6.32836 126.092 5.7848 125.49 5.38707 124.708C4.98935 123.926 4.79048 122.993 4.79048 121.909C4.79048 120.822 4.98935 119.889 5.38707 119.11C5.7848 118.328 6.32836 117.728 7.01776 117.31C7.71046 116.889 8.49763 116.679 9.37926 116.679C10.2576 116.679 11.0414 116.889 11.7308 117.31C12.4235 117.728 12.9688 118.328 13.3665 119.11C13.7642 119.889 13.9631 120.822 13.9631 121.909ZM12.4418 121.909C12.4418 121.08 12.3075 120.383 12.0391 119.816C11.7739 119.246 11.4093 118.815 10.9453 118.523C10.4846 118.228 9.96259 118.081 9.37926 118.081C8.79261 118.081 8.26894 118.228 7.80824 118.523C7.34754 118.815 6.98295 119.246 6.71449 119.816C6.44934 120.383 6.31676 121.08 6.31676 121.909C6.31676 122.738 6.44934 123.437 6.71449 124.007C6.98295 124.574 7.34754 125.005 7.80824 125.3C8.26894 125.591 8.79261 125.737 9.37926 125.737C9.96259 125.737 10.4846 125.591 10.9453 125.3C11.4093 125.005 11.7739 124.574 12.0391 124.007C12.3075 123.437 12.4418 122.738 12.4418 121.909ZM17.7456 122.466V127H16.2591V119.364H17.6859V120.607H17.7804C17.956 120.202 18.2311 119.877 18.6056 119.632C18.9835 119.387 19.4591 119.264 20.0325 119.264C20.5529 119.264 21.0086 119.374 21.3997 119.592C21.7908 119.808 22.094 120.129 22.3095 120.557C22.5249 120.984 22.6326 121.513 22.6326 122.143V127H21.1461V122.322C21.1461 121.768 21.002 121.336 20.7136 121.024C20.4252 120.709 20.0292 120.552 19.5254 120.552C19.1807 120.552 18.8741 120.626 18.6056 120.776C18.3405 120.925 18.13 121.143 17.9743 121.432C17.8218 121.717 17.7456 122.062 17.7456 122.466ZM29.4506 127V116.818H35.8342V118.141H30.9869V121.243H35.5011V122.56H30.9869V125.678H35.8938V127H29.4506ZM38.2669 127V119.364H39.7037V120.577H39.7832C39.9224 120.166 40.1677 119.843 40.519 119.607C40.8736 119.369 41.2747 119.249 41.7221 119.249C41.8149 119.249 41.9243 119.253 42.0502 119.259C42.1795 119.266 42.2806 119.274 42.3535 119.284V120.706C42.2939 120.689 42.1878 120.671 42.0353 120.651C41.8829 120.628 41.7304 120.616 41.5779 120.616C41.2266 120.616 40.9134 120.691 40.6383 120.84C40.3665 120.986 40.1511 121.19 39.992 121.452C39.8329 121.71 39.7534 122.005 39.7534 122.337V127H38.2669ZM44.1399 127V119.364H45.5767V120.577H45.6562C45.7955 120.166 46.0407 119.843 46.392 119.607C46.7467 119.369 47.1477 119.249 47.5952 119.249C47.688 119.249 47.7973 119.253 47.9233 119.259C48.0526 119.266 48.1536 119.274 48.2266 119.284V120.706C48.1669 120.689 48.0608 120.671 47.9084 120.651C47.7559 120.628 47.6035 120.616 47.451 120.616C47.0997 120.616 46.7865 120.691 46.5114 120.84C46.2396 120.986 46.0241 121.19 45.8651 121.452C45.706 121.71 45.6264 122.005 45.6264 122.337V127H44.1399ZM52.9561 127.154C52.2402 127.154 51.6155 126.99 51.0819 126.662C50.5482 126.334 50.1339 125.875 49.839 125.285C49.544 124.695 49.3965 124.005 49.3965 123.217C49.3965 122.424 49.544 121.732 49.839 121.138C50.1339 120.545 50.5482 120.085 51.0819 119.756C51.6155 119.428 52.2402 119.264 52.9561 119.264C53.6721 119.264 54.2968 119.428 54.8304 119.756C55.3641 120.085 55.7783 120.545 56.0733 121.138C56.3683 121.732 56.5158 122.424 56.5158 123.217C56.5158 124.005 56.3683 124.695 56.0733 125.285C55.7783 125.875 55.3641 126.334 54.8304 126.662C54.2968 126.99 53.6721 127.154 52.9561 127.154ZM52.9611 125.906C53.4251 125.906 53.8096 125.784 54.1145 125.538C54.4194 125.293 54.6448 124.967 54.7907 124.559C54.9398 124.151 55.0144 123.702 55.0144 123.212C55.0144 122.724 54.9398 122.277 54.7907 121.869C54.6448 121.458 54.4194 121.129 54.1145 120.88C53.8096 120.631 53.4251 120.507 52.9611 120.507C52.4938 120.507 52.106 120.631 51.7978 120.88C51.4928 121.129 51.2658 121.458 51.1167 121.869C50.9708 122.277 50.8979 122.724 50.8979 123.212C50.8979 123.702 50.9708 124.151 51.1167 124.559C51.2658 124.967 51.4928 125.293 51.7978 125.538C52.106 125.784 52.4938 125.906 52.9611 125.906ZM58.6751 127V119.364H60.1119V120.577H60.1914C60.3306 120.166 60.5759 119.843 60.9272 119.607C61.2818 119.369 61.6829 119.249 62.1303 119.249C62.2231 119.249 62.3325 119.253 62.4585 119.259C62.5877 119.266 62.6888 119.274 62.7617 119.284V120.706C62.7021 120.689 62.596 120.671 62.4435 120.651C62.2911 120.628 62.1386 120.616 61.9862 120.616C61.6348 120.616 61.3216 120.691 61.0465 120.84C60.7747 120.986 60.5593 121.19 60.4002 121.452C60.2411 121.71 60.1616 122.005 60.1616 122.337V127H58.6751Z" fill="#1C1B1E"/>
<defs>
<filter id="filter0_d_825_498" x="0" y="0" width="224" height="100" filterUnits="userSpaceOnUse" color-interpolation-filters="sRGB">
<feFlood flood-opacity="0" result="BackgroundImageFix"/>
<feColorMatrix in="SourceAlpha" type="matrix" values="0 0 0 0 0 0 0 0 0 0 0 0 0 0 0 0 0 0 127 0" result="hardAlpha"/>
<feOffset dy="1"/>
<feGaussianBlur stdDeviation="2"/>
<feComposite in2="hardAlpha" operator="out"/>
<feColorMatrix type="matrix" values="0 0 0 0 0 0 0 0 0 0 0 0 0 0 0 0 0 0 0.1 0"/>
<feBlend mode="normal" in2="BackgroundImageFix" result="effect1_dropShadow_825_498"/>
<feBlend mode="normal" in="SourceGraphic" in2="effect1_dropShadow_825_498" result="shape"/>
</filter>
</defs>
</svg>
