<svg width="224" height="133" viewBox="0 0 224 133" fill="none" xmlns="http://www.w3.org/2000/svg">
<g filter="url(#filter0_d_825_507)">
<rect x="4" y="3" width="216" height="92" rx="8" fill="#4FDAD0"/>
</g>
<path d="M82.9083 54L84.5787 43.8182H85.7719L84.1015 54H82.9083ZM78.2996 51.2756L78.4935 50.0824H86.2094L86.0155 51.2756H78.2996ZM79.3287 54L80.9992 43.8182H82.1924L80.5219 54H79.3287ZM78.8912 47.7358L79.0851 46.5426H86.801L86.6072 47.7358H78.8912ZM88.2705 52.0114V50.7685L92.6704 43.8182H93.6498V45.6477H93.0283L89.8813 50.6293V50.7088H95.9118V52.0114H88.2705ZM93.0979 54V51.6335L93.1079 51.0668V43.8182H94.5645V54H93.0979ZM98.2836 54V43.8182H104.598V45.1406H99.8199V48.2429H104.145V49.5604H99.8199V54H98.2836ZM110.283 54H106.987V43.8182H110.387C111.385 43.8182 112.242 44.022 112.958 44.4297C113.674 44.834 114.222 45.4157 114.603 46.1747C114.988 46.9304 115.18 47.8369 115.18 48.8942C115.18 49.9548 114.986 50.8662 114.598 51.6286C114.214 52.3909 113.657 52.9775 112.928 53.3885C112.199 53.7962 111.317 54 110.283 54ZM108.523 52.6577H110.198C110.974 52.6577 111.619 52.5118 112.132 52.2202C112.646 51.9252 113.031 51.4993 113.286 50.9425C113.541 50.3823 113.669 49.6996 113.669 48.8942C113.669 48.0954 113.541 47.4176 113.286 46.8608C113.034 46.304 112.658 45.8814 112.157 45.593C111.657 45.3047 111.035 45.1605 110.293 45.1605H108.523V52.6577ZM117.945 54H116.314L119.978 43.8182H121.753L125.417 54H123.786L120.908 45.6676H120.828L117.945 54ZM118.218 50.0128H123.508V51.3054H118.218V50.0128ZM130.683 54H127.387V43.8182H130.788C131.785 43.8182 132.642 44.022 133.358 44.4297C134.074 44.834 134.622 45.4157 135.004 46.1747C135.388 46.9304 135.58 47.8369 135.58 48.8942C135.58 49.9548 135.386 50.8662 134.999 51.6286C134.614 52.3909 134.057 52.9775 133.328 53.3885C132.599 53.7962 131.717 54 130.683 54ZM128.923 52.6577H130.599C131.374 52.6577 132.019 52.5118 132.533 52.2202C133.046 51.9252 133.431 51.4993 133.686 50.9425C133.941 50.3823 134.069 49.6996 134.069 48.8942C134.069 48.0954 133.941 47.4176 133.686 46.8608C133.434 46.304 133.058 45.8814 132.558 45.593C132.057 45.3047 131.436 45.1605 130.693 45.1605H128.923V52.6577ZM141.396 54.169C140.611 54.1657 139.94 53.9586 139.383 53.5476C138.826 53.1366 138.4 52.5384 138.105 51.7528C137.81 50.9673 137.663 50.0211 137.663 48.9141C137.663 47.8104 137.81 46.8674 138.105 46.0852C138.403 45.303 138.831 44.7064 139.388 44.2955C139.948 43.8845 140.617 43.679 141.396 43.679C142.175 43.679 142.843 43.8861 143.4 44.3004C143.957 44.7114 144.382 45.308 144.677 46.0902C144.976 46.8691 145.125 47.8104 145.125 48.9141C145.125 50.0244 144.977 50.9723 144.682 51.7578C144.387 52.54 143.962 53.1383 143.405 53.5526C142.848 53.9635 142.178 54.169 141.396 54.169ZM141.396 52.8416C142.086 52.8416 142.624 52.5052 143.012 51.8324C143.403 51.1596 143.599 50.1868 143.599 48.9141C143.599 48.0689 143.509 47.3546 143.33 46.7713C143.155 46.1847 142.901 45.7405 142.57 45.4389C142.241 45.134 141.85 44.9815 141.396 44.9815C140.71 44.9815 140.172 45.3196 139.78 45.9957C139.389 46.6719 139.192 47.6446 139.189 48.9141C139.189 49.7625 139.277 50.4801 139.452 51.0668C139.631 51.6501 139.885 52.0926 140.213 52.3942C140.541 52.6925 140.936 52.8416 141.396 52.8416Z" fill="#1C1B1E"/>
<path d="M13.5753 120.129H12.0241C11.9645 119.798 11.8535 119.506 11.6911 119.254C11.5286 119.002 11.3298 118.789 11.0945 118.613C10.8591 118.437 10.5956 118.305 10.304 118.215C10.0156 118.126 9.70904 118.081 9.38423 118.081C8.79759 118.081 8.27225 118.228 7.80824 118.523C7.34754 118.818 6.98295 119.251 6.71449 119.821C6.44934 120.391 6.31676 121.087 6.31676 121.909C6.31676 122.738 6.44934 123.437 6.71449 124.007C6.98295 124.577 7.3492 125.008 7.81321 125.3C8.27723 125.591 8.79924 125.737 9.37926 125.737C9.70076 125.737 10.0057 125.694 10.294 125.608C10.5857 125.518 10.8492 125.388 11.0845 125.215C11.3198 125.043 11.5187 124.832 11.6811 124.584C11.8468 124.332 11.9612 124.044 12.0241 123.719L13.5753 123.724C13.4924 124.224 13.3317 124.685 13.093 125.106C12.8577 125.523 12.5545 125.885 12.1832 126.19C11.8153 126.491 11.3944 126.725 10.9205 126.891C10.4465 127.056 9.92945 127.139 9.36932 127.139C8.48769 127.139 7.70218 126.93 7.01278 126.513C6.32339 126.092 5.77983 125.49 5.3821 124.708C4.98769 123.926 4.79048 122.993 4.79048 121.909C4.79048 120.822 4.98935 119.889 5.38707 119.11C5.7848 118.328 6.32836 117.728 7.01776 117.31C7.70715 116.889 8.491 116.679 9.36932 116.679C9.90956 116.679 10.4134 116.757 10.8807 116.913C11.3513 117.065 11.7739 117.29 12.1484 117.589C12.523 117.884 12.8329 118.245 13.0781 118.673C13.3234 119.097 13.4891 119.582 13.5753 120.129ZM20.6316 123.833V119.364H22.123V127H20.6614V125.678H20.5819C20.4062 126.085 20.1245 126.425 19.7367 126.697C19.3522 126.965 18.8733 127.099 18.2999 127.099C17.8094 127.099 17.3752 126.992 16.9973 126.776C16.6228 126.558 16.3278 126.234 16.1124 125.807C15.9003 125.379 15.7942 124.851 15.7942 124.221V119.364H17.2807V124.042C17.2807 124.562 17.4249 124.977 17.7132 125.285C18.0016 125.593 18.3761 125.747 18.8368 125.747C19.1152 125.747 19.392 125.678 19.6671 125.538C19.9455 125.399 20.1758 125.189 20.3581 124.907C20.5437 124.625 20.6349 124.267 20.6316 123.833ZM30.3427 121.228L28.9954 121.467C28.939 121.294 28.8496 121.13 28.7269 120.974C28.6076 120.819 28.4452 120.691 28.2397 120.592C28.0342 120.492 27.7773 120.442 27.4691 120.442C27.0482 120.442 26.6969 120.537 26.4151 120.726C26.1334 120.911 25.9925 121.152 25.9925 121.447C25.9925 121.702 26.087 121.907 26.2759 122.063C26.4648 122.219 26.7698 122.347 27.1907 122.446L28.4038 122.724C29.1064 122.887 29.6301 123.137 29.9748 123.475C30.3195 123.813 30.4918 124.252 30.4918 124.793C30.4918 125.25 30.3593 125.658 30.0941 126.016C29.8323 126.37 29.466 126.649 28.9954 126.851C28.5281 127.053 27.9862 127.154 27.3697 127.154C26.5146 127.154 25.8169 126.972 25.2766 126.607C24.7364 126.239 24.4049 125.717 24.2823 125.041L25.7191 124.822C25.8086 125.197 25.9925 125.48 26.271 125.673C26.5494 125.862 26.9123 125.956 27.3597 125.956C27.8469 125.956 28.2364 125.855 28.5281 125.653C28.8197 125.447 28.9656 125.197 28.9656 124.902C28.9656 124.663 28.8761 124.463 28.6971 124.3C28.5214 124.138 28.2513 124.015 27.8867 123.933L26.5941 123.649C25.8815 123.487 25.3545 123.228 25.0131 122.874C24.6751 122.519 24.506 122.07 24.506 121.526C24.506 121.076 24.632 120.681 24.8839 120.343C25.1358 120.005 25.4838 119.741 25.9279 119.553C26.372 119.36 26.8808 119.264 27.4542 119.264C28.2795 119.264 28.9291 119.443 29.4031 119.801C29.877 120.156 30.1902 120.631 30.3427 121.228ZM36.1909 119.364V120.557H32.0197V119.364H36.1909ZM33.1383 117.534H34.6248V124.758C34.6248 125.046 34.6679 125.263 34.7541 125.409C34.8403 125.552 34.9513 125.649 35.0872 125.702C35.2264 125.752 35.3772 125.777 35.5396 125.777C35.6589 125.777 35.7633 125.769 35.8528 125.752C35.9423 125.736 36.0119 125.722 36.0616 125.712L36.3301 126.94C36.2439 126.973 36.1213 127.007 35.9622 127.04C35.8031 127.076 35.6042 127.096 35.3656 127.099C34.9745 127.106 34.6099 127.036 34.2718 126.891C33.9338 126.745 33.6603 126.519 33.4515 126.214C33.2427 125.91 33.1383 125.527 33.1383 125.066V117.534ZM41.4698 127.154C40.7539 127.154 40.1291 126.99 39.5955 126.662C39.0619 126.334 38.6476 125.875 38.3526 125.285C38.0576 124.695 37.9102 124.005 37.9102 123.217C37.9102 122.424 38.0576 121.732 38.3526 121.138C38.6476 120.545 39.0619 120.085 39.5955 119.756C40.1291 119.428 40.7539 119.264 41.4698 119.264C42.1857 119.264 42.8105 119.428 43.3441 119.756C43.8777 120.085 44.292 120.545 44.587 121.138C44.882 121.732 45.0295 122.424 45.0295 123.217C45.0295 124.005 44.882 124.695 44.587 125.285C44.292 125.875 43.8777 126.334 43.3441 126.662C42.8105 126.99 42.1857 127.154 41.4698 127.154ZM41.4748 125.906C41.9388 125.906 42.3233 125.784 42.6282 125.538C42.9331 125.293 43.1585 124.967 43.3043 124.559C43.4535 124.151 43.5281 123.702 43.5281 123.212C43.5281 122.724 43.4535 122.277 43.3043 121.869C43.1585 121.458 42.9331 121.129 42.6282 120.88C42.3233 120.631 41.9388 120.507 41.4748 120.507C41.0075 120.507 40.6197 120.631 40.3114 120.88C40.0065 121.129 39.7795 121.458 39.6303 121.869C39.4845 122.277 39.4116 122.724 39.4116 123.212C39.4116 123.702 39.4845 124.151 39.6303 124.559C39.7795 124.967 40.0065 125.293 40.3114 125.538C40.6197 125.784 41.0075 125.906 41.4748 125.906ZM47.1887 127V119.364H48.6156V120.607H48.71C48.8691 120.186 49.1293 119.857 49.4906 119.622C49.8519 119.384 50.2844 119.264 50.7882 119.264C51.2986 119.264 51.7261 119.384 52.0708 119.622C52.4189 119.861 52.6757 120.189 52.8414 120.607H52.921C53.1033 120.199 53.3933 119.874 53.791 119.632C54.1887 119.387 54.6627 119.264 55.2129 119.264C55.9056 119.264 56.4707 119.481 56.9082 119.915C57.349 120.35 57.5694 121.004 57.5694 121.879V127H56.0829V122.018C56.0829 121.501 55.9421 121.127 55.6603 120.895C55.3786 120.663 55.0422 120.547 54.6511 120.547C54.1672 120.547 53.791 120.696 53.5225 120.994C53.2541 121.289 53.1199 121.669 53.1199 122.133V127H51.6383V121.924C51.6383 121.51 51.5091 121.177 51.2505 120.925C50.992 120.673 50.6556 120.547 50.2413 120.547C49.9596 120.547 49.6994 120.621 49.4608 120.771C49.2254 120.916 49.0349 121.12 48.889 121.382C48.7465 121.644 48.6752 121.947 48.6752 122.292V127H47.1887ZM67.7917 127.139C67.109 127.139 66.4991 127.022 65.9622 126.786C65.4286 126.551 65.006 126.224 64.6944 125.807C64.3862 125.386 64.2205 124.899 64.1973 124.345H65.7583C65.7782 124.647 65.8793 124.909 66.0616 125.131C66.2472 125.349 66.4892 125.518 66.7875 125.638C67.0858 125.757 67.4172 125.817 67.7818 125.817C68.1828 125.817 68.5375 125.747 68.8457 125.608C69.1573 125.469 69.4009 125.275 69.5765 125.026C69.7522 124.774 69.84 124.484 69.84 124.156C69.84 123.815 69.7522 123.515 69.5765 123.256C69.4042 122.995 69.1506 122.789 68.8159 122.64C68.4844 122.491 68.0834 122.416 67.6127 122.416H66.7527V121.163H67.6127C67.9906 121.163 68.322 121.095 68.6071 120.96C68.8954 120.824 69.1208 120.635 69.2832 120.393C69.4456 120.147 69.5268 119.861 69.5268 119.533C69.5268 119.218 69.4556 118.944 69.313 118.712C69.1738 118.477 68.975 118.293 68.7164 118.161C68.4612 118.028 68.1596 117.962 67.8116 117.962C67.4802 117.962 67.1703 118.023 66.8819 118.146C66.5969 118.265 66.3649 118.437 66.1859 118.663C66.0069 118.885 65.9108 119.152 65.8975 119.463H64.411C64.4276 118.913 64.59 118.429 64.8983 118.011C65.2098 117.594 65.6208 117.267 66.1312 117.032C66.6416 116.797 67.2084 116.679 67.8315 116.679C68.4844 116.679 69.0479 116.807 69.5218 117.062C69.9991 117.314 70.367 117.65 70.6255 118.071C70.8874 118.492 71.0166 118.953 71.0133 119.453C71.0166 120.023 70.8575 120.507 70.536 120.905C70.2179 121.303 69.7936 121.569 69.2633 121.705V121.785C69.9395 121.888 70.4631 122.156 70.8343 122.59C71.2089 123.024 71.3945 123.563 71.3912 124.206C71.3945 124.766 71.2387 125.268 70.9238 125.712C70.6123 126.156 70.1864 126.506 69.6461 126.761C69.1059 127.013 68.4877 127.139 67.7917 127.139Z" fill="#1C1B1E"/>
<defs>
<filter id="filter0_d_825_507" x="0" y="0" width="224" height="100" filterUnits="userSpaceOnUse" color-interpolation-filters="sRGB">
<feFlood flood-opacity="0" result="BackgroundImageFix"/>
<feColorMatrix in="SourceAlpha" type="matrix" values="0 0 0 0 0 0 0 0 0 0 0 0 0 0 0 0 0 0 127 0" result="hardAlpha"/>
<feOffset dy="1"/>
<feGaussianBlur stdDeviation="2"/>
<feComposite in2="hardAlpha" operator="out"/>
<feColorMatrix type="matrix" values="0 0 0 0 0 0 0 0 0 0 0 0 0 0 0 0 0 0 0.1 0"/>
<feBlend mode="normal" in2="BackgroundImageFix" result="effect1_dropShadow_825_507"/>
<feBlend mode="normal" in="SourceGraphic" in2="effect1_dropShadow_825_507" result="shape"/>
</filter>
</defs>
</svg>
