<svg width="224" height="133" viewBox="0 0 224 133" fill="none" xmlns="http://www.w3.org/2000/svg">
<g filter="url(#filter0_d_825_491)">
<rect x="4" y="3" width="216" height="92" rx="8" fill="#CAC3DC"/>
</g>
<path d="M81.2267 54L82.8971 43.8182H84.0903L82.4198 54H81.2267ZM76.618 51.2756L76.8119 50.0824H84.5278L84.3339 51.2756H76.618ZM77.6471 54L79.3176 43.8182H80.5107L78.8403 54H77.6471ZM77.2096 47.7358L77.4035 46.5426H85.1194L84.9255 47.7358H77.2096ZM95.3985 47.1293H93.8474C93.7877 46.7978 93.6767 46.5062 93.5143 46.2543C93.3519 46.0024 93.153 45.7886 92.9177 45.6129C92.6824 45.4373 92.4189 45.3047 92.1272 45.2152C91.8389 45.1257 91.5323 45.081 91.2075 45.081C90.6208 45.081 90.0955 45.2285 89.6315 45.5234C89.1708 45.8184 88.8062 46.2509 88.5377 46.821C88.2726 47.3911 88.14 48.0871 88.14 48.9091C88.14 49.7377 88.2726 50.437 88.5377 51.0071C88.8062 51.5772 89.1724 52.008 89.6365 52.2997C90.1005 52.5914 90.6225 52.7372 91.2025 52.7372C91.524 52.7372 91.8289 52.6941 92.1173 52.608C92.4089 52.5185 92.6724 52.3875 92.9078 52.2152C93.1431 52.0429 93.3419 51.8324 93.5044 51.5838C93.6701 51.3319 93.7844 51.0436 93.8474 50.7188L95.3985 50.7237C95.3157 51.2242 95.1549 51.6849 94.9163 52.1058C94.681 52.5234 94.3777 52.8847 94.0065 53.1896C93.6386 53.4912 93.2177 53.7249 92.7437 53.8906C92.2697 54.0563 91.7527 54.1392 91.1926 54.1392C90.3109 54.1392 89.5254 53.9304 88.836 53.5128C88.1466 53.0919 87.6031 52.4903 87.2053 51.7081C86.8109 50.9259 86.6137 49.9929 86.6137 48.9091C86.6137 47.822 86.8126 46.889 87.2103 46.1101C87.608 45.3279 88.1516 44.728 88.841 44.3104C89.5304 43.8894 90.3142 43.679 91.1926 43.679C91.7328 43.679 92.2366 43.7569 92.7039 43.9126C93.1746 44.0651 93.5972 44.2905 93.9717 44.5888C94.3462 44.8838 94.6561 45.245 94.9014 45.6726C95.1466 46.0968 95.3124 46.5824 95.3985 47.1293ZM98.5285 54H96.8978L100.562 43.8182H102.337L106.001 54H104.37L101.492 45.6676H101.412L98.5285 54ZM98.8019 50.0128H104.092V51.3054H98.8019V50.0128ZM115.949 47.1293H114.398C114.339 46.7978 114.227 46.5062 114.065 46.2543C113.903 46.0024 113.704 45.7886 113.468 45.6129C113.233 45.4373 112.97 45.3047 112.678 45.2152C112.39 45.1257 112.083 45.081 111.758 45.081C111.172 45.081 110.646 45.2285 110.182 45.5234C109.722 45.8184 109.357 46.2509 109.089 46.821C108.823 47.3911 108.691 48.0871 108.691 48.9091C108.691 49.7377 108.823 50.437 109.089 51.0071C109.357 51.5772 109.723 52.008 110.187 52.2997C110.651 52.5914 111.173 52.7372 111.753 52.7372C112.075 52.7372 112.38 52.6941 112.668 52.608C112.96 52.5185 113.223 52.3875 113.459 52.2152C113.694 52.0429 113.893 51.8324 114.055 51.5838C114.221 51.3319 114.335 51.0436 114.398 50.7188L115.949 50.7237C115.866 51.2242 115.706 51.6849 115.467 52.1058C115.232 52.5234 114.928 52.8847 114.557 53.1896C114.189 53.4912 113.768 53.7249 113.294 53.8906C112.821 54.0563 112.303 54.1392 111.743 54.1392C110.862 54.1392 110.076 53.9304 109.387 53.5128C108.697 53.0919 108.154 52.4903 107.756 51.7081C107.362 50.9259 107.165 49.9929 107.165 48.9091C107.165 47.822 107.363 46.889 107.761 46.1101C108.159 45.3279 108.702 44.728 109.392 44.3104C110.081 43.8894 110.865 43.679 111.743 43.679C112.284 43.679 112.787 43.7569 113.255 43.9126C113.725 44.0651 114.148 44.2905 114.522 44.5888C114.897 44.8838 115.207 45.245 115.452 45.6726C115.697 46.0968 115.863 46.5824 115.949 47.1293ZM121.693 54.1392C121.01 54.1392 120.4 54.0215 119.864 53.7862C119.33 53.5509 118.907 53.2244 118.596 52.8068C118.288 52.3859 118.122 51.8987 118.099 51.3452H119.66C119.68 51.6468 119.781 51.9086 119.963 52.1307C120.149 52.3494 120.391 52.5185 120.689 52.6378C120.987 52.7571 121.319 52.8168 121.683 52.8168C122.084 52.8168 122.439 52.7472 122.747 52.608C123.059 52.4687 123.302 52.2749 123.478 52.0263C123.654 51.7744 123.741 51.4844 123.741 51.1562C123.741 50.8149 123.654 50.5149 123.478 50.2564C123.306 49.9946 123.052 49.7891 122.717 49.6399C122.386 49.4908 121.985 49.4162 121.514 49.4162H120.654V48.1634H121.514C121.892 48.1634 122.223 48.0954 122.508 47.9595C122.797 47.8236 123.022 47.6347 123.185 47.3928C123.347 47.1475 123.428 46.8608 123.428 46.5327C123.428 46.2178 123.357 45.9444 123.214 45.7124C123.075 45.477 122.876 45.2931 122.618 45.1605C122.363 45.0279 122.061 44.9616 121.713 44.9616C121.382 44.9616 121.072 45.023 120.783 45.1456C120.498 45.2649 120.266 45.4373 120.087 45.6626C119.908 45.8847 119.812 46.1515 119.799 46.4631H118.312C118.329 45.9129 118.491 45.429 118.8 45.0114C119.111 44.5937 119.522 44.2673 120.033 44.032C120.543 43.7966 121.11 43.679 121.733 43.679C122.386 43.679 122.949 43.8066 123.423 44.0618C123.9 44.3137 124.268 44.6501 124.527 45.071C124.789 45.492 124.918 45.9527 124.915 46.4531C124.918 47.0232 124.759 47.5071 124.437 47.9048C124.119 48.3026 123.695 48.5694 123.165 48.7053V48.7848C123.841 48.8875 124.364 49.156 124.736 49.5902C125.11 50.0244 125.296 50.563 125.293 51.206C125.296 51.7661 125.14 52.2682 124.825 52.7124C124.514 53.1565 124.088 53.5062 123.547 53.7614C123.007 54.0133 122.389 54.1392 121.693 54.1392ZM131.107 54H127.811V43.8182H131.212C132.209 43.8182 133.066 44.022 133.782 44.4297C134.498 44.834 135.046 45.4157 135.427 46.1747C135.812 46.9304 136.004 47.8369 136.004 48.8942C136.004 49.9548 135.81 50.8662 135.422 51.6286C135.038 52.3909 134.481 52.9775 133.752 53.3885C133.023 53.7962 132.141 54 131.107 54ZM129.347 52.6577H131.023C131.798 52.6577 132.443 52.5118 132.957 52.2202C133.47 51.9252 133.855 51.4993 134.11 50.9425C134.365 50.3823 134.493 49.6996 134.493 48.8942C134.493 48.0954 134.365 47.4176 134.11 46.8608C133.858 46.304 133.482 45.8814 132.981 45.593C132.481 45.3047 131.86 45.1605 131.117 45.1605H129.347V52.6577ZM146.871 47.1293H145.32C145.26 46.7978 145.149 46.5062 144.987 46.2543C144.825 46.0024 144.626 45.7886 144.39 45.6129C144.155 45.4373 143.892 45.3047 143.6 45.2152C143.312 45.1257 143.005 45.081 142.68 45.081C142.093 45.081 141.568 45.2285 141.104 45.5234C140.643 45.8184 140.279 46.2509 140.01 46.821C139.745 47.3911 139.613 48.0871 139.613 48.9091C139.613 49.7377 139.745 50.437 140.01 51.0071C140.279 51.5772 140.645 52.008 141.109 52.2997C141.573 52.5914 142.095 52.7372 142.675 52.7372C142.997 52.7372 143.302 52.6941 143.59 52.608C143.882 52.5185 144.145 52.3875 144.38 52.2152C144.616 52.0429 144.815 51.8324 144.977 51.5838C145.143 51.3319 145.257 51.0436 145.32 50.7188L146.871 50.7237C146.788 51.2242 146.628 51.6849 146.389 52.1058C146.154 52.5234 145.85 52.8847 145.479 53.1896C145.111 53.4912 144.69 53.7249 144.216 53.8906C143.742 54.0563 143.225 54.1392 142.665 54.1392C141.784 54.1392 140.998 53.9304 140.309 53.5128C139.619 53.0919 139.076 52.4903 138.678 51.7081C138.284 50.9259 138.086 49.9929 138.086 48.9091C138.086 47.822 138.285 46.889 138.683 46.1101C139.081 45.3279 139.624 44.728 140.314 44.3104C141.003 43.8894 141.787 43.679 142.665 43.679C143.205 43.679 143.709 43.7569 144.177 43.9126C144.647 44.0651 145.07 44.2905 145.444 44.5888C145.819 44.8838 146.129 45.245 146.374 45.6726C146.619 46.0968 146.785 46.5824 146.871 47.1293Z" fill="#1C1B1E"/>
<path d="M10.6719 119.493C10.6188 119.022 10.4001 118.658 10.0156 118.399C9.63116 118.137 9.14725 118.006 8.56392 118.006C8.14631 118.006 7.78504 118.073 7.48011 118.205C7.17519 118.335 6.93821 118.513 6.76918 118.742C6.60346 118.968 6.5206 119.224 6.5206 119.513C6.5206 119.755 6.57694 119.964 6.68963 120.139C6.80563 120.315 6.95644 120.462 7.14205 120.582C7.33097 120.698 7.53314 120.795 7.74858 120.875C7.96402 120.951 8.17116 121.014 8.37003 121.064L9.36435 121.322C9.68916 121.402 10.0223 121.51 10.3636 121.646C10.705 121.781 11.0215 121.96 11.3132 122.183C11.6049 122.405 11.8402 122.68 12.0192 123.008C12.2015 123.336 12.2926 123.729 12.2926 124.186C12.2926 124.763 12.1435 125.275 11.8452 125.722C11.5502 126.17 11.121 126.523 10.5575 126.781C9.9974 127.04 9.3196 127.169 8.52415 127.169C7.76184 127.169 7.10227 127.048 6.54545 126.806C5.98864 126.564 5.55279 126.221 5.23793 125.777C4.92306 125.33 4.74905 124.799 4.71591 124.186H6.2571C6.28693 124.554 6.40625 124.861 6.61506 125.106C6.82718 125.348 7.0973 125.528 7.42543 125.648C7.75687 125.764 8.11979 125.822 8.5142 125.822C8.94839 125.822 9.33452 125.754 9.67259 125.618C10.014 125.479 10.2824 125.286 10.478 125.041C10.6735 124.793 10.7713 124.503 10.7713 124.171C10.7713 123.87 10.6851 123.623 10.5128 123.43C10.3438 123.238 10.1134 123.079 9.82173 122.953C9.53338 122.827 9.20691 122.716 8.84233 122.62L7.6392 122.292C6.82386 122.07 6.17756 121.743 5.70028 121.312C5.22633 120.882 4.98935 120.312 4.98935 119.602C4.98935 119.016 5.14844 118.504 5.46662 118.066C5.7848 117.629 6.21567 117.289 6.75923 117.047C7.30279 116.802 7.91596 116.679 8.59872 116.679C9.28812 116.679 9.89631 116.8 10.4233 117.042C10.9536 117.284 11.3712 117.617 11.6761 118.041C11.9811 118.462 12.1402 118.946 12.1534 119.493H10.6719ZM17.8002 127.154C17.0479 127.154 16.3999 126.993 15.8564 126.672C15.3161 126.347 14.8985 125.891 14.6035 125.305C14.3118 124.715 14.166 124.024 14.166 123.232C14.166 122.449 14.3118 121.76 14.6035 121.163C14.8985 120.567 15.3095 120.101 15.8365 119.766C16.3668 119.432 16.9866 119.264 17.6958 119.264C18.1267 119.264 18.5443 119.335 18.9487 119.478C19.353 119.621 19.716 119.844 20.0375 120.149C20.359 120.454 20.6125 120.85 20.7981 121.337C20.9837 121.821 21.0765 122.41 21.0765 123.102V123.629H15.0062V122.516H19.6199C19.6199 122.125 19.5403 121.778 19.3812 121.477C19.2221 121.172 18.9984 120.931 18.71 120.756C18.425 120.58 18.0903 120.492 17.7058 120.492C17.2882 120.492 16.9236 120.595 16.612 120.8C16.3038 121.003 16.0652 121.268 15.8961 121.596C15.7304 121.921 15.6475 122.274 15.6475 122.655V123.525C15.6475 124.035 15.737 124.469 15.916 124.827C16.0983 125.185 16.3519 125.459 16.6767 125.648C17.0015 125.833 17.381 125.926 17.8152 125.926C18.0969 125.926 18.3538 125.886 18.5858 125.807C18.8178 125.724 19.0183 125.601 19.1873 125.439C19.3564 125.277 19.4856 125.076 19.5751 124.837L20.9821 125.091C20.8694 125.505 20.6672 125.868 20.3755 126.18C20.0872 126.488 19.7243 126.728 19.2868 126.901C18.8526 127.07 18.3571 127.154 17.8002 127.154ZM26.4425 127.154C25.7034 127.154 25.067 126.987 24.5334 126.652C24.0031 126.314 23.5954 125.848 23.3104 125.255C23.0253 124.662 22.8828 123.982 22.8828 123.217C22.8828 122.441 23.0286 121.757 23.3203 121.163C23.612 120.567 24.023 120.101 24.5533 119.766C25.0836 119.432 25.7083 119.264 26.4276 119.264C27.0076 119.264 27.5246 119.372 27.9787 119.587C28.4328 119.799 28.799 120.098 29.0774 120.482C29.3591 120.867 29.5265 121.316 29.5795 121.83H28.1328C28.0533 121.472 27.871 121.163 27.5859 120.905C27.3042 120.646 26.9264 120.517 26.4524 120.517C26.0381 120.517 25.6752 120.626 25.3636 120.845C25.0554 121.061 24.8151 121.369 24.6428 121.77C24.4704 122.168 24.3842 122.638 24.3842 123.182C24.3842 123.739 24.4688 124.219 24.6378 124.624C24.8068 125.028 25.0455 125.341 25.3537 125.563C25.6652 125.785 26.0315 125.896 26.4524 125.896C26.7341 125.896 26.9893 125.845 27.218 125.742C27.45 125.636 27.6439 125.485 27.7997 125.29C27.9588 125.094 28.0698 124.859 28.1328 124.584H29.5795C29.5265 125.078 29.3658 125.518 29.0973 125.906C28.8288 126.294 28.4692 126.599 28.0185 126.821C27.571 127.043 27.0457 127.154 26.4425 127.154ZM34.8858 127.154C34.1699 127.154 33.5452 126.99 33.0115 126.662C32.4779 126.334 32.0636 125.875 31.7686 125.285C31.4737 124.695 31.3262 124.005 31.3262 123.217C31.3262 122.424 31.4737 121.732 31.7686 121.138C32.0636 120.545 32.4779 120.085 33.0115 119.756C33.5452 119.428 34.1699 119.264 34.8858 119.264C35.6017 119.264 36.2265 119.428 36.7601 119.756C37.2937 120.085 37.708 120.545 38.003 121.138C38.298 121.732 38.4455 122.424 38.4455 123.217C38.4455 124.005 38.298 124.695 38.003 125.285C37.708 125.875 37.2937 126.334 36.7601 126.662C36.2265 126.99 35.6017 127.154 34.8858 127.154ZM34.8908 125.906C35.3548 125.906 35.7393 125.784 36.0442 125.538C36.3491 125.293 36.5745 124.967 36.7203 124.559C36.8695 124.151 36.9441 123.702 36.9441 123.212C36.9441 122.724 36.8695 122.277 36.7203 121.869C36.5745 121.458 36.3491 121.129 36.0442 120.88C35.7393 120.631 35.3548 120.507 34.8908 120.507C34.4235 120.507 34.0357 120.631 33.7275 120.88C33.4225 121.129 33.1955 121.458 33.0463 121.869C32.9005 122.277 32.8276 122.724 32.8276 123.212C32.8276 123.702 32.9005 124.151 33.0463 124.559C33.1955 124.967 33.4225 125.293 33.7275 125.538C34.0357 125.784 34.4235 125.906 34.8908 125.906ZM42.0913 122.466V127H40.6048V119.364H42.0316V120.607H42.1261C42.3017 120.202 42.5768 119.877 42.9513 119.632C43.3292 119.387 43.8048 119.264 44.3782 119.264C44.8986 119.264 45.3543 119.374 45.7454 119.592C46.1365 119.808 46.4397 120.129 46.6552 120.557C46.8706 120.984 46.9783 121.513 46.9783 122.143V127H45.4918V122.322C45.4918 121.768 45.3477 121.336 45.0593 121.024C44.771 120.709 44.3749 120.552 43.8711 120.552C43.5264 120.552 43.2198 120.626 42.9513 120.776C42.6862 120.925 42.4757 121.143 42.32 121.432C42.1675 121.717 42.0913 122.062 42.0913 122.466ZM52.3306 127.149C51.7141 127.149 51.1639 126.992 50.68 126.677C50.1995 126.359 49.8216 125.906 49.5465 125.32C49.2747 124.73 49.1388 124.022 49.1388 123.197C49.1388 122.371 49.2764 121.665 49.5515 121.079C49.8299 120.492 50.2111 120.043 50.695 119.732C51.1789 119.42 51.7274 119.264 52.3406 119.264C52.8145 119.264 53.1957 119.344 53.484 119.503C53.7757 119.659 54.0011 119.841 54.1602 120.05C54.3226 120.259 54.4485 120.442 54.538 120.602H54.6275V116.818H56.114V127H54.6623V125.812H54.538C54.4485 125.974 54.3192 126.16 54.1502 126.369C53.9845 126.577 53.7558 126.76 53.4641 126.915C53.1725 127.071 52.7946 127.149 52.3306 127.149ZM52.6587 125.881C53.0863 125.881 53.4476 125.769 53.7425 125.543C54.0408 125.315 54.2662 124.998 54.4187 124.594C54.5745 124.189 54.6523 123.719 54.6523 123.182C54.6523 122.652 54.5761 122.187 54.4237 121.79C54.2712 121.392 54.0475 121.082 53.7525 120.86C53.4575 120.638 53.0929 120.527 52.6587 120.527C52.2113 120.527 51.8384 120.643 51.5401 120.875C51.2418 121.107 51.0165 121.424 50.864 121.825C50.7148 122.226 50.6403 122.678 50.6403 123.182C50.6403 123.692 50.7165 124.151 50.869 124.559C51.0214 124.967 51.2468 125.29 51.5451 125.528C51.8467 125.764 52.2179 125.881 52.6587 125.881ZM60.9579 127.169C60.474 127.169 60.0365 127.08 59.6454 126.901C59.2543 126.718 58.9444 126.455 58.7157 126.11C58.4904 125.765 58.3777 125.343 58.3777 124.842C58.3777 124.411 58.4605 124.057 58.6262 123.778C58.792 123.5 59.0157 123.28 59.2974 123.117C59.5791 122.955 59.894 122.832 60.242 122.749C60.59 122.666 60.9447 122.603 61.3059 122.56C61.7633 122.507 62.1345 122.464 62.4196 122.431C62.7046 122.395 62.9118 122.337 63.041 122.257C63.1703 122.178 63.2349 122.048 63.2349 121.869V121.835C63.2349 121.4 63.1123 121.064 62.867 120.825C62.6251 120.587 62.2638 120.467 61.7832 120.467C61.2827 120.467 60.8883 120.578 60.6 120.8C60.3149 121.019 60.1177 121.263 60.0083 121.531L58.6113 121.213C58.777 120.749 59.019 120.375 59.3372 120.089C59.6587 119.801 60.0282 119.592 60.4458 119.463C60.8635 119.33 61.3026 119.264 61.7633 119.264C62.0682 119.264 62.3914 119.301 62.7328 119.374C63.0775 119.443 63.399 119.572 63.6973 119.761C63.9989 119.95 64.2458 120.22 64.438 120.572C64.6303 120.92 64.7264 121.372 64.7264 121.929V127H63.2747V125.956H63.215C63.1189 126.148 62.9747 126.337 62.7825 126.523C62.5903 126.708 62.3433 126.862 62.0417 126.985C61.7401 127.108 61.3788 127.169 60.9579 127.169ZM61.2811 125.976C61.6921 125.976 62.0434 125.895 62.335 125.732C62.63 125.57 62.8538 125.358 63.0062 125.096C63.162 124.831 63.2399 124.547 63.2399 124.246V123.261C63.1868 123.314 63.0841 123.364 62.9316 123.411C62.7825 123.454 62.6118 123.492 62.4196 123.525C62.2273 123.555 62.0401 123.583 61.8578 123.609C61.6755 123.633 61.523 123.652 61.4004 123.669C61.112 123.705 60.8485 123.767 60.6099 123.853C60.3746 123.939 60.1857 124.063 60.0431 124.226C59.9039 124.385 59.8343 124.597 59.8343 124.862C59.8343 125.23 59.9702 125.509 60.242 125.697C60.5138 125.883 60.8601 125.976 61.2811 125.976ZM67.2063 127V119.364H68.6431V120.577H68.7227C68.8619 120.166 69.1071 119.843 69.4585 119.607C69.8131 119.369 70.2141 119.249 70.6616 119.249C70.7544 119.249 70.8638 119.253 70.9897 119.259C71.119 119.266 71.2201 119.274 71.293 119.284V120.706C71.2333 120.689 71.1272 120.671 70.9748 120.651C70.8223 120.628 70.6699 120.616 70.5174 120.616C70.1661 120.616 69.8529 120.691 69.5778 120.84C69.306 120.986 69.0906 121.19 68.9315 121.452C68.7724 121.71 68.6928 122.005 68.6928 122.337V127H67.2063ZM74.2514 129.864C74.0294 129.864 73.8272 129.845 73.6449 129.809C73.4626 129.776 73.3267 129.739 73.2372 129.7L73.5952 128.482C73.867 128.554 74.1089 128.586 74.321 128.576C74.5331 128.566 74.7204 128.487 74.8828 128.337C75.0485 128.188 75.1944 127.945 75.3203 127.607L75.5043 127.099L72.7102 119.364H74.3011L76.2351 125.29H76.3146L78.2486 119.364H79.8445L76.6974 128.019C76.5516 128.417 76.366 128.753 76.1406 129.028C75.9152 129.307 75.6468 129.516 75.3352 129.655C75.0237 129.794 74.6624 129.864 74.2514 129.864Z" fill="#1C1B1E"/>
<defs>
<filter id="filter0_d_825_491" x="0" y="0" width="224" height="100" filterUnits="userSpaceOnUse" color-interpolation-filters="sRGB">
<feFlood flood-opacity="0" result="BackgroundImageFix"/>
<feColorMatrix in="SourceAlpha" type="matrix" values="0 0 0 0 0 0 0 0 0 0 0 0 0 0 0 0 0 0 127 0" result="hardAlpha"/>
<feOffset dy="1"/>
<feGaussianBlur stdDeviation="2"/>
<feComposite in2="hardAlpha" operator="out"/>
<feColorMatrix type="matrix" values="0 0 0 0 0 0 0 0 0 0 0 0 0 0 0 0 0 0 0.1 0"/>
<feBlend mode="normal" in2="BackgroundImageFix" result="effect1_dropShadow_825_491"/>
<feBlend mode="normal" in="SourceGraphic" in2="effect1_dropShadow_825_491" result="shape"/>
</filter>
</defs>
</svg>
