<svg width="224" height="133" viewBox="0 0 224 133" fill="none" xmlns="http://www.w3.org/2000/svg">
<g filter="url(#filter0_d_825_509)">
<rect x="4" y="3" width="216" height="92" rx="8" fill="#E6DFF8"/>
</g>
<path d="M85.0147 54L86.6852 43.8182H87.8784L86.2079 54H85.0147ZM80.4061 51.2756L80.6 50.0824H88.3159L88.122 51.2756H80.4061ZM81.4352 54L83.1056 43.8182H84.2988L82.6284 54H81.4352ZM80.9977 47.7358L81.1916 46.5426H88.9075L88.7136 47.7358H80.9977ZM90.7299 54V43.8182H97.1135V45.1406H92.2662V48.2429H96.7804V49.5604H92.2662V52.6776H97.1731V54H90.7299ZM103.081 54.1392C102.627 54.1326 102.179 54.0497 101.739 53.8906C101.301 53.7315 100.903 53.4664 100.545 53.0952C100.188 52.724 99.9008 52.2251 99.6854 51.5987C99.4732 50.9723 99.3672 50.1901 99.3672 49.2521C99.3672 48.3639 99.455 47.575 99.6307 46.8857C99.8097 46.1963 100.067 45.6146 100.401 45.1406C100.736 44.6634 101.14 44.3004 101.614 44.0518C102.088 43.8033 102.62 43.679 103.21 43.679C103.817 43.679 104.355 43.7983 104.826 44.0369C105.297 44.2756 105.678 44.6054 105.969 45.0263C106.264 45.4472 106.452 45.9261 106.531 46.4631H105.015C104.912 46.0388 104.708 45.6925 104.403 45.424C104.098 45.1555 103.701 45.0213 103.21 45.0213C102.464 45.0213 101.883 45.3461 101.465 45.9957C101.051 46.6454 100.842 47.5485 100.839 48.7053H100.913C101.089 48.4169 101.304 48.1716 101.56 47.9695C101.818 47.764 102.107 47.6065 102.425 47.4972C102.746 47.3845 103.084 47.3281 103.439 47.3281C104.029 47.3281 104.563 47.4723 105.04 47.7607C105.52 48.0457 105.903 48.4401 106.188 48.9439C106.473 49.4477 106.616 50.0244 106.616 50.674C106.616 51.3236 106.468 51.9119 106.173 52.4389C105.882 52.9659 105.471 53.3835 104.94 53.6918C104.41 53.9967 103.79 54.1458 103.081 54.1392ZM103.076 52.8466C103.467 52.8466 103.817 52.7505 104.125 52.5582C104.433 52.366 104.677 52.1075 104.856 51.7827C105.035 51.4579 105.124 51.0949 105.124 50.6939C105.124 50.3028 105.036 49.9465 104.861 49.625C104.688 49.3035 104.45 49.0483 104.145 48.8594C103.843 48.6705 103.499 48.576 103.111 48.576C102.816 48.576 102.542 48.6323 102.29 48.745C102.042 48.8577 101.823 49.0135 101.634 49.2124C101.445 49.4112 101.296 49.6399 101.187 49.8984C101.081 50.1536 101.028 50.4238 101.028 50.7088C101.028 51.09 101.116 51.4429 101.291 51.7678C101.47 52.0926 101.714 52.3544 102.022 52.5533C102.334 52.7488 102.685 52.8466 103.076 52.8466ZM112.362 54H109.066V43.8182H112.466C113.464 43.8182 114.321 44.022 115.037 44.4297C115.753 44.834 116.301 45.4157 116.682 46.1747C117.067 46.9304 117.259 47.8369 117.259 48.8942C117.259 49.9548 117.065 50.8662 116.677 51.6286C116.293 52.3909 115.736 52.9775 115.007 53.3885C114.278 53.7962 113.396 54 112.362 54ZM110.602 52.6577H112.278C113.053 52.6577 113.698 52.5118 114.211 52.2202C114.725 51.9252 115.11 51.4993 115.365 50.9425C115.62 50.3823 115.748 49.6996 115.748 48.8942C115.748 48.0954 115.62 47.4176 115.365 46.8608C115.113 46.304 114.737 45.8814 114.236 45.593C113.736 45.3047 113.114 45.1605 112.372 45.1605H110.602V52.6577ZM119.669 54V43.8182H125.983V45.1406H121.206V48.2429H125.531V49.5604H121.206V54H119.669ZM128.373 54V43.8182H134.686V45.1406H129.909V48.2429H134.234V49.5604H129.909V54H128.373ZM140.377 54.1392C139.664 54.1392 139.034 54.0166 138.488 53.7713C137.944 53.526 137.518 53.188 137.21 52.7571C136.902 52.3262 136.749 51.8357 136.752 51.2855C136.749 50.8546 136.837 50.4586 137.016 50.0973C137.198 49.7327 137.445 49.4295 137.757 49.1875C138.068 48.9422 138.416 48.7865 138.801 48.7202V48.6605C138.294 48.5379 137.888 48.2661 137.583 47.8452C137.278 47.4242 137.127 46.9403 137.13 46.3935C137.127 45.8731 137.265 45.4091 137.543 45.0014C137.825 44.5904 138.211 44.2673 138.701 44.032C139.192 43.7966 139.75 43.679 140.377 43.679C140.997 43.679 141.55 43.7983 142.037 44.0369C142.528 44.2723 142.914 44.5954 143.196 45.0064C143.477 45.4141 143.62 45.8764 143.623 46.3935C143.62 46.9403 143.464 47.4242 143.156 47.8452C142.848 48.2661 142.447 48.5379 141.953 48.6605V48.7202C142.334 48.7865 142.677 48.9422 142.982 49.1875C143.29 49.4295 143.535 49.7327 143.718 50.0973C143.903 50.4586 143.998 50.8546 144.001 51.2855C143.998 51.8357 143.842 52.3262 143.534 52.7571C143.225 53.188 142.798 53.526 142.251 53.7713C141.708 54.0166 141.083 54.1392 140.377 54.1392ZM140.377 52.8814C140.798 52.8814 141.162 52.8118 141.471 52.6726C141.779 52.5301 142.017 52.3329 142.186 52.081C142.355 51.8258 142.442 51.5275 142.445 51.1861C142.442 50.8314 142.349 50.5182 142.167 50.2464C141.988 49.9747 141.744 49.7609 141.436 49.6051C141.127 49.4493 140.775 49.3714 140.377 49.3714C139.976 49.3714 139.619 49.4493 139.308 49.6051C138.996 49.7609 138.751 49.9747 138.572 50.2464C138.393 50.5182 138.305 50.8314 138.309 51.1861C138.305 51.5275 138.386 51.8258 138.552 52.081C138.721 52.3329 138.962 52.5301 139.273 52.6726C139.585 52.8118 139.953 52.8814 140.377 52.8814ZM140.377 48.1435C140.715 48.1435 141.015 48.0755 141.277 47.9396C141.538 47.8037 141.744 47.6148 141.893 47.3729C142.046 47.1309 142.123 46.8475 142.127 46.5227C142.123 46.2045 142.047 45.9261 141.898 45.6875C141.752 45.4489 141.548 45.2649 141.287 45.1357C141.025 45.0031 140.721 44.9368 140.377 44.9368C140.025 44.9368 139.717 45.0031 139.452 45.1357C139.19 45.2649 138.986 45.4489 138.841 45.6875C138.695 45.9261 138.623 46.2045 138.627 46.5227C138.623 46.8475 138.696 47.1309 138.846 47.3729C138.995 47.6148 139.2 47.8037 139.462 47.9396C139.727 48.0755 140.032 48.1435 140.377 48.1435Z" fill="#1C1B1E"/>
<path d="M13.9631 121.909C13.9631 122.996 13.7642 123.931 13.3665 124.713C12.9688 125.492 12.4235 126.092 11.7308 126.513C11.0414 126.93 10.2576 127.139 9.37926 127.139C8.49763 127.139 7.71046 126.93 7.01776 126.513C6.32836 126.092 5.7848 125.49 5.38707 124.708C4.98935 123.926 4.79048 122.993 4.79048 121.909C4.79048 120.822 4.98935 119.889 5.38707 119.11C5.7848 118.328 6.32836 117.728 7.01776 117.31C7.71046 116.889 8.49763 116.679 9.37926 116.679C10.2576 116.679 11.0414 116.889 11.7308 117.31C12.4235 117.728 12.9688 118.328 13.3665 119.11C13.7642 119.889 13.9631 120.822 13.9631 121.909ZM12.4418 121.909C12.4418 121.08 12.3075 120.383 12.0391 119.816C11.7739 119.246 11.4093 118.815 10.9453 118.523C10.4846 118.228 9.96259 118.081 9.37926 118.081C8.79261 118.081 8.26894 118.228 7.80824 118.523C7.34754 118.815 6.98295 119.246 6.71449 119.816C6.44934 120.383 6.31676 121.08 6.31676 121.909C6.31676 122.738 6.44934 123.437 6.71449 124.007C6.98295 124.574 7.34754 125.005 7.80824 125.3C8.26894 125.591 8.79261 125.737 9.37926 125.737C9.96259 125.737 10.4846 125.591 10.9453 125.3C11.4093 125.005 11.7739 124.574 12.0391 124.007C12.3075 123.437 12.4418 122.738 12.4418 121.909ZM17.7456 122.466V127H16.2591V119.364H17.6859V120.607H17.7804C17.956 120.202 18.2311 119.877 18.6056 119.632C18.9835 119.387 19.4591 119.264 20.0325 119.264C20.5529 119.264 21.0086 119.374 21.3997 119.592C21.7908 119.808 22.094 120.129 22.3095 120.557C22.5249 120.984 22.6326 121.513 22.6326 122.143V127H21.1461V122.322C21.1461 121.768 21.002 121.336 20.7136 121.024C20.4252 120.709 20.0292 120.552 19.5254 120.552C19.1807 120.552 18.8741 120.626 18.6056 120.776C18.3405 120.925 18.13 121.143 17.9743 121.432C17.8218 121.717 17.7456 122.062 17.7456 122.466ZM35.0039 119.493C34.9509 119.022 34.7321 118.658 34.3477 118.399C33.9632 118.137 33.4793 118.006 32.896 118.006C32.4783 118.006 32.1171 118.073 31.8121 118.205C31.5072 118.335 31.2702 118.513 31.1012 118.742C30.9355 118.968 30.8526 119.224 30.8526 119.513C30.8526 119.755 30.909 119.964 31.0217 120.139C31.1377 120.315 31.2885 120.462 31.4741 120.582C31.663 120.698 31.8652 120.795 32.0806 120.875C32.296 120.951 32.5032 121.014 32.7021 121.064L33.6964 121.322C34.0212 121.402 34.3543 121.51 34.6957 121.646C35.0371 121.781 35.3536 121.96 35.6452 122.183C35.9369 122.405 36.1722 122.68 36.3512 123.008C36.5335 123.336 36.6246 123.729 36.6246 124.186C36.6246 124.763 36.4755 125.275 36.1772 125.722C35.8822 126.17 35.453 126.523 34.8896 126.781C34.3294 127.04 33.6516 127.169 32.8562 127.169C32.0939 127.169 31.4343 127.048 30.8775 126.806C30.3207 126.564 29.8848 126.221 29.57 125.777C29.2551 125.33 29.0811 124.799 29.0479 124.186H30.5891C30.619 124.554 30.7383 124.861 30.9471 125.106C31.1592 125.348 31.4293 125.528 31.7575 125.648C32.0889 125.764 32.4518 125.822 32.8462 125.822C33.2804 125.822 33.6665 125.754 34.0046 125.618C34.346 125.479 34.6145 125.286 34.81 125.041C35.0056 124.793 35.1033 124.503 35.1033 124.171C35.1033 123.87 35.0172 123.623 34.8448 123.43C34.6758 123.238 34.4454 123.079 34.1538 122.953C33.8654 122.827 33.5389 122.716 33.1744 122.62L31.9712 122.292C31.1559 122.07 30.5096 121.743 30.0323 121.312C29.5584 120.882 29.3214 120.312 29.3214 119.602C29.3214 119.016 29.4805 118.504 29.7987 118.066C30.1168 117.629 30.5477 117.289 31.0913 117.047C31.6348 116.802 32.248 116.679 32.9308 116.679C33.6201 116.679 34.2283 116.8 34.7553 117.042C35.2856 117.284 35.7032 117.617 36.0082 118.041C36.3131 118.462 36.4722 118.946 36.4854 119.493H35.0039ZM42.1323 127.154C41.3799 127.154 40.7319 126.993 40.1884 126.672C39.6481 126.347 39.2305 125.891 38.9355 125.305C38.6439 124.715 38.498 124.024 38.498 123.232C38.498 122.449 38.6439 121.76 38.9355 121.163C39.2305 120.567 39.6415 120.101 40.1685 119.766C40.6988 119.432 41.3186 119.264 42.0279 119.264C42.4587 119.264 42.8764 119.335 43.2807 119.478C43.6851 119.621 44.048 119.844 44.3695 120.149C44.691 120.454 44.9445 120.85 45.1301 121.337C45.3158 121.821 45.4086 122.41 45.4086 123.102V123.629H39.3382V122.516H43.9519C43.9519 122.125 43.8723 121.778 43.7132 121.477C43.5542 121.172 43.3304 120.931 43.0421 120.756C42.757 120.58 42.4223 120.492 42.0378 120.492C41.6202 120.492 41.2556 120.595 40.9441 120.8C40.6358 121.003 40.3972 121.268 40.2282 121.596C40.0624 121.921 39.9796 122.274 39.9796 122.655V123.525C39.9796 124.035 40.0691 124.469 40.248 124.827C40.4303 125.185 40.6839 125.459 41.0087 125.648C41.3335 125.833 41.713 125.926 42.1472 125.926C42.4289 125.926 42.6858 125.886 42.9178 125.807C43.1498 125.724 43.3503 125.601 43.5194 125.439C43.6884 125.277 43.8176 125.076 43.9071 124.837L45.3141 125.091C45.2014 125.505 44.9992 125.868 44.7076 126.18C44.4192 126.488 44.0563 126.728 43.6188 126.901C43.1846 127.07 42.6891 127.154 42.1323 127.154ZM50.7745 127.154C50.0354 127.154 49.399 126.987 48.8654 126.652C48.3351 126.314 47.9274 125.848 47.6424 125.255C47.3574 124.662 47.2148 123.982 47.2148 123.217C47.2148 122.441 47.3607 121.757 47.6523 121.163C47.944 120.567 48.355 120.101 48.8853 119.766C49.4156 119.432 50.0404 119.264 50.7596 119.264C51.3396 119.264 51.8567 119.372 52.3107 119.587C52.7648 119.799 53.131 120.098 53.4094 120.482C53.6912 120.867 53.8585 121.316 53.9116 121.83H52.4648C52.3853 121.472 52.203 121.163 51.918 120.905C51.6362 120.646 51.2584 120.517 50.7844 120.517C50.3701 120.517 50.0072 120.626 49.6957 120.845C49.3874 121.061 49.1471 121.369 48.9748 121.77C48.8024 122.168 48.7163 122.638 48.7163 123.182C48.7163 123.739 48.8008 124.219 48.9698 124.624C49.1388 125.028 49.3775 125.341 49.6857 125.563C49.9973 125.785 50.3635 125.896 50.7844 125.896C51.0662 125.896 51.3214 125.845 51.5501 125.742C51.7821 125.636 51.976 125.485 52.1317 125.29C52.2908 125.094 52.4019 124.859 52.4648 124.584H53.9116C53.8585 125.078 53.6978 125.518 53.4293 125.906C53.1609 126.294 52.8013 126.599 52.3505 126.821C51.9031 127.043 51.3777 127.154 50.7745 127.154ZM59.2179 127.154C58.502 127.154 57.8772 126.99 57.3436 126.662C56.81 126.334 56.3957 125.875 56.1007 125.285C55.8057 124.695 55.6582 124.005 55.6582 123.217C55.6582 122.424 55.8057 121.732 56.1007 121.138C56.3957 120.545 56.81 120.085 57.3436 119.756C57.8772 119.428 58.502 119.264 59.2179 119.264C59.9338 119.264 60.5585 119.428 61.0922 119.756C61.6258 120.085 62.0401 120.545 62.335 121.138C62.63 121.732 62.7775 122.424 62.7775 123.217C62.7775 124.005 62.63 124.695 62.335 125.285C62.0401 125.875 61.6258 126.334 61.0922 126.662C60.5585 126.99 59.9338 127.154 59.2179 127.154ZM59.2228 125.906C59.6868 125.906 60.0713 125.784 60.3762 125.538C60.6812 125.293 60.9065 124.967 61.0524 124.559C61.2015 124.151 61.2761 123.702 61.2761 123.212C61.2761 122.724 61.2015 122.277 61.0524 121.869C60.9065 121.458 60.6812 121.129 60.3762 120.88C60.0713 120.631 59.6868 120.507 59.2228 120.507C58.7555 120.507 58.3677 120.631 58.0595 120.88C57.7546 121.129 57.5275 121.458 57.3784 121.869C57.2325 122.277 57.1596 122.724 57.1596 123.212C57.1596 123.702 57.2325 124.151 57.3784 124.559C57.5275 124.967 57.7546 125.293 58.0595 125.538C58.3677 125.784 58.7555 125.906 59.2228 125.906ZM66.4233 122.466V127H64.9368V119.364H66.3636V120.607H66.4581C66.6338 120.202 66.9089 119.877 67.2834 119.632C67.6612 119.387 68.1368 119.264 68.7102 119.264C69.2306 119.264 69.6863 119.374 70.0774 119.592C70.4685 119.808 70.7718 120.129 70.9872 120.557C71.2027 120.984 71.3104 121.513 71.3104 122.143V127H69.8239V122.322C69.8239 121.768 69.6797 121.336 69.3913 121.024C69.103 120.709 68.7069 120.552 68.2031 120.552C67.8584 120.552 67.5518 120.626 67.2834 120.776C67.0182 120.925 66.8078 121.143 66.652 121.432C66.4995 121.717 66.4233 122.062 66.4233 122.466ZM76.6626 127.149C76.0462 127.149 75.496 126.992 75.0121 126.677C74.5315 126.359 74.1536 125.906 73.8786 125.32C73.6068 124.73 73.4709 124.022 73.4709 123.197C73.4709 122.371 73.6084 121.665 73.8835 121.079C74.1619 120.492 74.5431 120.043 75.027 119.732C75.5109 119.42 76.0594 119.264 76.6726 119.264C77.1465 119.264 77.5277 119.344 77.8161 119.503C78.1077 119.659 78.3331 119.841 78.4922 120.05C78.6546 120.259 78.7805 120.442 78.87 120.602H78.9595V116.818H80.446V127H78.9943V125.812H78.87C78.7805 125.974 78.6513 126.16 78.4822 126.369C78.3165 126.577 78.0878 126.76 77.7962 126.915C77.5045 127.071 77.1267 127.149 76.6626 127.149ZM76.9908 125.881C77.4183 125.881 77.7796 125.769 78.0746 125.543C78.3729 125.315 78.5982 124.998 78.7507 124.594C78.9065 124.189 78.9844 123.719 78.9844 123.182C78.9844 122.652 78.9081 122.187 78.7557 121.79C78.6032 121.392 78.3795 121.082 78.0845 120.86C77.7895 120.638 77.425 120.527 76.9908 120.527C76.5433 120.527 76.1705 120.643 75.8722 120.875C75.5739 121.107 75.3485 121.424 75.196 121.825C75.0469 122.226 74.9723 122.678 74.9723 123.182C74.9723 123.692 75.0485 124.151 75.201 124.559C75.3535 124.967 75.5788 125.29 75.8771 125.528C76.1787 125.764 76.55 125.881 76.9908 125.881ZM85.29 127.169C84.806 127.169 84.3685 127.08 83.9775 126.901C83.5864 126.718 83.2765 126.455 83.0478 126.11C82.8224 125.765 82.7097 125.343 82.7097 124.842C82.7097 124.411 82.7926 124.057 82.9583 123.778C83.124 123.5 83.3477 123.28 83.6294 123.117C83.9112 122.955 84.226 122.832 84.574 122.749C84.9221 122.666 85.2767 122.603 85.638 122.56C86.0953 122.507 86.4666 122.464 86.7516 122.431C87.0366 122.395 87.2438 122.337 87.373 122.257C87.5023 122.178 87.5669 122.048 87.5669 121.869V121.835C87.5669 121.4 87.4443 121.064 87.199 120.825C86.9571 120.587 86.5958 120.467 86.1152 120.467C85.6148 120.467 85.2203 120.578 84.932 120.8C84.647 121.019 84.4498 121.263 84.3404 121.531L82.9434 121.213C83.1091 120.749 83.351 120.375 83.6692 120.089C83.9907 119.801 84.3603 119.592 84.7779 119.463C85.1955 119.33 85.6346 119.264 86.0953 119.264C86.4003 119.264 86.7234 119.301 87.0648 119.374C87.4095 119.443 87.731 119.572 88.0293 119.761C88.3309 119.95 88.5778 120.22 88.7701 120.572C88.9623 120.92 89.0584 121.372 89.0584 121.929V127H87.6067V125.956H87.5471C87.4509 126.148 87.3068 126.337 87.1145 126.523C86.9223 126.708 86.6754 126.862 86.3738 126.985C86.0721 127.108 85.7109 127.169 85.29 127.169ZM85.6131 125.976C86.0241 125.976 86.3754 125.895 86.6671 125.732C86.9621 125.57 87.1858 125.358 87.3382 125.096C87.494 124.831 87.5719 124.547 87.5719 124.246V123.261C87.5189 123.314 87.4161 123.364 87.2637 123.411C87.1145 123.454 86.9438 123.492 86.7516 123.525C86.5594 123.555 86.3721 123.583 86.1898 123.609C86.0075 123.633 85.8551 123.652 85.7324 123.669C85.4441 123.705 85.1806 123.767 84.9419 123.853C84.7066 123.939 84.5177 124.063 84.3752 124.226C84.236 124.385 84.1664 124.597 84.1664 124.862C84.1664 125.23 84.3023 125.509 84.574 125.697C84.8458 125.883 85.1922 125.976 85.6131 125.976ZM91.5384 127V119.364H92.9751V120.577H93.0547C93.1939 120.166 93.4392 119.843 93.7905 119.607C94.1451 119.369 94.5462 119.249 94.9936 119.249C95.0864 119.249 95.1958 119.253 95.3217 119.259C95.451 119.266 95.5521 119.274 95.625 119.284V120.706C95.5653 120.689 95.4593 120.671 95.3068 120.651C95.1544 120.628 95.0019 120.616 94.8494 120.616C94.4981 120.616 94.1849 120.691 93.9098 120.84C93.638 120.986 93.4226 121.19 93.2635 121.452C93.1044 121.71 93.0249 122.005 93.0249 122.337V127H91.5384ZM98.5835 129.864C98.3614 129.864 98.1592 129.845 97.9769 129.809C97.7946 129.776 97.6587 129.739 97.5692 129.7L97.9272 128.482C98.199 128.554 98.4409 128.586 98.6531 128.576C98.8652 128.566 99.0524 128.487 99.2148 128.337C99.3806 128.188 99.5264 127.945 99.6523 127.607L99.8363 127.099L97.0423 119.364H98.6332L100.567 125.29H100.647L102.581 119.364H104.176L101.029 128.019C100.884 128.417 100.698 128.753 100.473 129.028C100.247 129.307 99.9788 129.516 99.6673 129.655C99.3557 129.794 98.9944 129.864 98.5835 129.864ZM118.855 120.129H117.303C117.244 119.798 117.133 119.506 116.97 119.254C116.808 119.002 116.609 118.789 116.374 118.613C116.138 118.437 115.875 118.305 115.583 118.215C115.295 118.126 114.988 118.081 114.664 118.081C114.077 118.081 113.552 118.228 113.088 118.523C112.627 118.818 112.262 119.251 111.994 119.821C111.729 120.391 111.596 121.087 111.596 121.909C111.596 122.738 111.729 123.437 111.994 124.007C112.262 124.577 112.628 125.008 113.093 125.3C113.557 125.591 114.079 125.737 114.659 125.737C114.98 125.737 115.285 125.694 115.573 125.608C115.865 125.518 116.128 125.388 116.364 125.215C116.599 125.043 116.798 124.832 116.96 124.584C117.126 124.332 117.24 124.044 117.303 123.719L118.855 123.724C118.772 124.224 118.611 124.685 118.372 125.106C118.137 125.523 117.834 125.885 117.463 126.19C117.095 126.491 116.674 126.725 116.2 126.891C115.726 127.056 115.209 127.139 114.649 127.139C113.767 127.139 112.981 126.93 112.292 126.513C111.603 126.092 111.059 125.49 110.661 124.708C110.267 123.926 110.07 122.993 110.07 121.909C110.07 120.822 110.269 119.889 110.666 119.11C111.064 118.328 111.608 117.728 112.297 117.31C112.986 116.889 113.77 116.679 114.649 116.679C115.189 116.679 115.693 116.757 116.16 116.913C116.631 117.065 117.053 117.29 117.428 117.589C117.802 117.884 118.112 118.245 118.357 118.673C118.603 119.097 118.768 119.582 118.855 120.129ZM124.29 127.154C123.574 127.154 122.949 126.99 122.416 126.662C121.882 126.334 121.468 125.875 121.173 125.285C120.878 124.695 120.73 124.005 120.73 123.217C120.73 122.424 120.878 121.732 121.173 121.138C121.468 120.545 121.882 120.085 122.416 119.756C122.949 119.428 123.574 119.264 124.29 119.264C125.006 119.264 125.631 119.428 126.164 119.756C126.698 120.085 127.112 120.545 127.407 121.138C127.702 121.732 127.85 122.424 127.85 123.217C127.85 124.005 127.702 124.695 127.407 125.285C127.112 125.875 126.698 126.334 126.164 126.662C125.631 126.99 125.006 127.154 124.29 127.154ZM124.295 125.906C124.759 125.906 125.144 125.784 125.449 125.538C125.753 125.293 125.979 124.967 126.125 124.559C126.274 124.151 126.348 123.702 126.348 123.212C126.348 122.724 126.274 122.277 126.125 121.869C125.979 121.458 125.753 121.129 125.449 120.88C125.144 120.631 124.759 120.507 124.295 120.507C123.828 120.507 123.44 120.631 123.132 120.88C122.827 121.129 122.6 121.458 122.451 121.869C122.305 122.277 122.232 122.724 122.232 123.212C122.232 123.702 122.305 124.151 122.451 124.559C122.6 124.967 122.827 125.293 123.132 125.538C123.44 125.784 123.828 125.906 124.295 125.906ZM131.496 122.466V127H130.009V119.364H131.436V120.607H131.53C131.706 120.202 131.981 119.877 132.356 119.632C132.733 119.387 133.209 119.264 133.782 119.264C134.303 119.264 134.759 119.374 135.15 119.592C135.541 119.808 135.844 120.129 136.059 120.557C136.275 120.984 136.383 121.513 136.383 122.143V127H134.896V122.322C134.896 121.768 134.752 121.336 134.464 121.024C134.175 120.709 133.779 120.552 133.275 120.552C132.931 120.552 132.624 120.626 132.356 120.776C132.09 120.925 131.88 121.143 131.724 121.432C131.572 121.717 131.496 122.062 131.496 122.466ZM142.441 119.364V120.557H138.27V119.364H142.441ZM139.388 117.534H140.875V124.758C140.875 125.046 140.918 125.263 141.004 125.409C141.09 125.552 141.201 125.649 141.337 125.702C141.476 125.752 141.627 125.777 141.79 125.777C141.909 125.777 142.013 125.769 142.103 125.752C142.192 125.736 142.262 125.722 142.312 125.712L142.58 126.94C142.494 126.973 142.371 127.007 142.212 127.04C142.053 127.076 141.854 127.096 141.616 127.099C141.224 127.106 140.86 127.036 140.522 126.891C140.184 126.745 139.91 126.519 139.702 126.214C139.493 125.91 139.388 125.527 139.388 125.066V117.534ZM146.808 127.169C146.324 127.169 145.886 127.08 145.495 126.901C145.104 126.718 144.794 126.455 144.565 126.11C144.34 125.765 144.227 125.343 144.227 124.842C144.227 124.411 144.31 124.057 144.476 123.778C144.642 123.5 144.865 123.28 145.147 123.117C145.429 122.955 145.744 122.832 146.092 122.749C146.44 122.666 146.794 122.603 147.156 122.56C147.613 122.507 147.984 122.464 148.269 122.431C148.554 122.395 148.761 122.337 148.891 122.257C149.02 122.178 149.085 122.048 149.085 121.869V121.835C149.085 121.4 148.962 121.064 148.717 120.825C148.475 120.587 148.113 120.467 147.633 120.467C147.132 120.467 146.738 120.578 146.45 120.8C146.165 121.019 145.967 121.263 145.858 121.531L144.461 121.213C144.627 120.749 144.869 120.375 145.187 120.089C145.508 119.801 145.878 119.592 146.295 119.463C146.713 119.33 147.152 119.264 147.613 119.264C147.918 119.264 148.241 119.301 148.582 119.374C148.927 119.443 149.249 119.572 149.547 119.761C149.848 119.95 150.095 120.22 150.288 120.572C150.48 120.92 150.576 121.372 150.576 121.929V127H149.124V125.956H149.065C148.969 126.148 148.824 126.337 148.632 126.523C148.44 126.708 148.193 126.862 147.891 126.985C147.59 127.108 147.228 127.169 146.808 127.169ZM147.131 125.976C147.542 125.976 147.893 125.895 148.185 125.732C148.48 125.57 148.703 125.358 148.856 125.096C149.012 124.831 149.089 124.547 149.089 124.246V123.261C149.036 123.314 148.934 123.364 148.781 123.411C148.632 123.454 148.461 123.492 148.269 123.525C148.077 123.555 147.89 123.583 147.707 123.609C147.525 123.633 147.373 123.652 147.25 123.669C146.962 123.705 146.698 123.767 146.46 123.853C146.224 123.939 146.035 124.063 145.893 124.226C145.754 124.385 145.684 124.597 145.684 124.862C145.684 125.23 145.82 125.509 146.092 125.697C146.363 125.883 146.71 125.976 147.131 125.976ZM153.056 127V119.364H154.542V127H153.056ZM153.807 118.185C153.548 118.185 153.326 118.099 153.14 117.927C152.958 117.751 152.867 117.542 152.867 117.3C152.867 117.055 152.958 116.846 153.14 116.674C153.326 116.498 153.548 116.411 153.807 116.411C154.065 116.411 154.286 116.498 154.468 116.674C154.653 116.846 154.746 117.055 154.746 117.3C154.746 117.542 154.653 117.751 154.468 117.927C154.286 118.099 154.065 118.185 153.807 118.185ZM158.529 122.466V127H157.042V119.364H158.469V120.607H158.564C158.739 120.202 159.014 119.877 159.389 119.632C159.767 119.387 160.242 119.264 160.816 119.264C161.336 119.264 161.792 119.374 162.183 119.592C162.574 119.808 162.877 120.129 163.093 120.557C163.308 120.984 163.416 121.513 163.416 122.143V127H161.929V122.322C161.929 121.768 161.785 121.336 161.497 121.024C161.208 120.709 160.812 120.552 160.309 120.552C159.964 120.552 159.657 120.626 159.389 120.776C159.124 120.925 158.913 121.143 158.757 121.432C158.605 121.717 158.529 122.062 158.529 122.466ZM169.201 127.154C168.448 127.154 167.8 126.993 167.257 126.672C166.717 126.347 166.299 125.891 166.004 125.305C165.712 124.715 165.566 124.024 165.566 123.232C165.566 122.449 165.712 121.76 166.004 121.163C166.299 120.567 166.71 120.101 167.237 119.766C167.767 119.432 168.387 119.264 169.096 119.264C169.527 119.264 169.945 119.335 170.349 119.478C170.753 119.621 171.116 119.844 171.438 120.149C171.759 120.454 172.013 120.85 172.199 121.337C172.384 121.821 172.477 122.41 172.477 123.102V123.629H166.407V122.516H171.02C171.02 122.125 170.941 121.778 170.782 121.477C170.623 121.172 170.399 120.931 170.11 120.756C169.825 120.58 169.491 120.492 169.106 120.492C168.689 120.492 168.324 120.595 168.012 120.8C167.704 121.003 167.466 121.268 167.297 121.596C167.131 121.921 167.048 122.274 167.048 122.655V123.525C167.048 124.035 167.137 124.469 167.316 124.827C167.499 125.185 167.752 125.459 168.077 125.648C168.402 125.833 168.781 125.926 169.216 125.926C169.497 125.926 169.754 125.886 169.986 125.807C170.218 125.724 170.419 125.601 170.588 125.439C170.757 125.277 170.886 125.076 170.975 124.837L172.382 125.091C172.27 125.505 172.068 125.868 171.776 126.18C171.488 126.488 171.125 126.728 170.687 126.901C170.253 127.07 169.757 127.154 169.201 127.154ZM174.626 127V119.364H176.063V120.577H176.143C176.282 120.166 176.527 119.843 176.878 119.607C177.233 119.369 177.634 119.249 178.081 119.249C178.174 119.249 178.284 119.253 178.41 119.259C178.539 119.266 178.64 119.274 178.713 119.284V120.706C178.653 120.689 178.547 120.671 178.395 120.651C178.242 120.628 178.09 120.616 177.937 120.616C177.586 120.616 177.273 120.691 176.998 120.84C176.726 120.986 176.51 121.19 176.351 121.452C176.192 121.71 176.113 122.005 176.113 122.337V127H174.626Z" fill="#1C1B1E"/>
<defs>
<filter id="filter0_d_825_509" x="0" y="0" width="224" height="100" filterUnits="userSpaceOnUse" color-interpolation-filters="sRGB">
<feFlood flood-opacity="0" result="BackgroundImageFix"/>
<feColorMatrix in="SourceAlpha" type="matrix" values="0 0 0 0 0 0 0 0 0 0 0 0 0 0 0 0 0 0 127 0" result="hardAlpha"/>
<feOffset dy="1"/>
<feGaussianBlur stdDeviation="2"/>
<feComposite in2="hardAlpha" operator="out"/>
<feColorMatrix type="matrix" values="0 0 0 0 0 0 0 0 0 0 0 0 0 0 0 0 0 0 0.1 0"/>
<feBlend mode="normal" in2="BackgroundImageFix" result="effect1_dropShadow_825_509"/>
<feBlend mode="normal" in="SourceGraphic" in2="effect1_dropShadow_825_509" result="shape"/>
</filter>
</defs>
</svg>
