<svg width="224" height="133" viewBox="0 0 224 133" fill="none" xmlns="http://www.w3.org/2000/svg">
<g filter="url(#filter0_d_825_497)">
<rect x="4" y="3" width="216" height="92" rx="8" fill="#322E41"/>
</g>
<path d="M86.2247 54L87.8952 43.8182H89.0883L87.4179 54H86.2247ZM81.616 51.2756L81.8099 50.0824H89.5258L89.3319 51.2756H81.616ZM82.6452 54L84.3156 43.8182H85.5088L83.8383 54H82.6452ZM82.2077 47.7358L82.4015 46.5426H90.1175L89.9236 47.7358H82.2077ZM95.3454 54.1392C94.6627 54.1392 94.0528 54.0215 93.5159 53.7862C92.9823 53.5509 92.5597 53.2244 92.2481 52.8068C91.9399 52.3859 91.7742 51.8987 91.751 51.3452H93.3121C93.3319 51.6468 93.433 51.9086 93.6153 52.1307C93.8009 52.3494 94.0429 52.5185 94.3412 52.6378C94.6395 52.7571 94.9709 52.8168 95.3355 52.8168C95.7365 52.8168 96.0912 52.7472 96.3994 52.608C96.711 52.4687 96.9546 52.2749 97.1302 52.0263C97.3059 51.7744 97.3937 51.4844 97.3937 51.1562C97.3937 50.8149 97.3059 50.5149 97.1302 50.2564C96.9579 49.9946 96.7043 49.7891 96.3696 49.6399C96.0381 49.4908 95.6371 49.4162 95.1665 49.4162H94.3064V48.1634H95.1665C95.5443 48.1634 95.8757 48.0954 96.1608 47.9595C96.4491 47.8236 96.6745 47.6347 96.8369 47.3928C96.9993 47.1475 97.0805 46.8608 97.0805 46.5327C97.0805 46.2178 97.0093 45.9444 96.8667 45.7124C96.7275 45.477 96.5287 45.2931 96.2702 45.1605C96.0149 45.0279 95.7133 44.9616 95.3653 44.9616C95.0339 44.9616 94.724 45.023 94.4356 45.1456C94.1506 45.2649 93.9186 45.4373 93.7396 45.6626C93.5606 45.8847 93.4645 46.1515 93.4513 46.4631H91.9648C91.9813 45.9129 92.1437 45.429 92.452 45.0114C92.7635 44.5937 93.1745 44.2673 93.6849 44.032C94.1953 43.7966 94.7621 43.679 95.3852 43.679C96.0381 43.679 96.6016 43.8066 97.0756 44.0618C97.5528 44.3137 97.9207 44.6501 98.1792 45.071C98.4411 45.492 98.5703 45.9527 98.567 46.4531C98.5703 47.0232 98.4113 47.5071 98.0898 47.9048C97.7716 48.3026 97.3473 48.5694 96.817 48.7053V48.7848C97.4932 48.8875 98.0168 49.156 98.3881 49.5902C98.7626 50.0244 98.9482 50.563 98.9449 51.206C98.9482 51.7661 98.7924 52.2682 98.4775 52.7124C98.166 53.1565 97.7401 53.5062 97.1998 53.7614C96.6596 54.0133 96.0415 54.1392 95.3454 54.1392ZM101.324 54V52.8864L104.769 49.3168C105.137 48.929 105.441 48.5893 105.679 48.2976C105.921 48.0026 106.102 47.7225 106.221 47.4574C106.34 47.1922 106.4 46.9105 106.4 46.6122C106.4 46.2741 106.321 45.9825 106.161 45.7372C106.002 45.4886 105.785 45.2981 105.51 45.1655C105.235 45.0296 104.925 44.9616 104.581 44.9616C104.216 44.9616 103.898 45.0362 103.626 45.1854C103.354 45.3345 103.145 45.545 103 45.8168C102.854 46.0885 102.781 46.4067 102.781 46.7713H101.314C101.314 46.1515 101.457 45.6096 101.742 45.1456C102.027 44.6816 102.418 44.322 102.915 44.0668C103.412 43.8082 103.977 43.679 104.61 43.679C105.25 43.679 105.813 43.8066 106.301 44.0618C106.791 44.3137 107.174 44.6584 107.449 45.0959C107.724 45.5301 107.862 46.0206 107.862 46.5675C107.862 46.9453 107.791 47.3149 107.648 47.6761C107.509 48.0374 107.265 48.4401 106.917 48.8842C106.569 49.325 106.085 49.8603 105.465 50.4901L103.442 52.608V52.6825H108.026V54H101.324ZM110.41 54V52.8864L113.855 49.3168C114.223 48.929 114.527 48.5893 114.765 48.2976C115.007 48.0026 115.188 47.7225 115.307 47.4574C115.426 47.1922 115.486 46.9105 115.486 46.6122C115.486 46.2741 115.407 45.9825 115.247 45.7372C115.088 45.4886 114.871 45.2981 114.596 45.1655C114.321 45.0296 114.011 44.9616 113.666 44.9616C113.302 44.9616 112.984 45.0362 112.712 45.1854C112.44 45.3345 112.231 45.545 112.085 45.8168C111.94 46.0885 111.867 46.4067 111.867 46.7713H110.4C110.4 46.1515 110.543 45.6096 110.828 45.1456C111.113 44.6816 111.504 44.322 112.001 44.0668C112.498 43.8082 113.063 43.679 113.696 43.679C114.336 43.679 114.899 43.8066 115.387 44.0618C115.877 44.3137 116.26 44.6584 116.535 45.0959C116.81 45.5301 116.948 46.0206 116.948 46.5675C116.948 46.9453 116.876 47.3149 116.734 47.6761C116.595 48.0374 116.351 48.4401 116.003 48.8842C115.655 49.325 115.171 49.8603 114.551 50.4901L112.528 52.608V52.6825H117.112V54H110.41ZM119.635 54V43.8182H126.019V45.1406H121.171V48.2429H125.686V49.5604H121.171V52.6776H126.078V54H119.635ZM128.218 52.0114V50.7685L132.618 43.8182H133.597V45.6477H132.976L129.829 50.6293V50.7088H135.859V52.0114H128.218ZM133.045 54V51.6335L133.055 51.0668V43.8182H134.512V54H133.045ZM141.818 43.8182V54H140.277V45.3594H140.217L137.781 46.9503V45.4787L140.321 43.8182H141.818Z" fill="#E6E1E6"/>
<path d="M13.9631 121.909C13.9631 122.996 13.7642 123.931 13.3665 124.713C12.9688 125.492 12.4235 126.092 11.7308 126.513C11.0414 126.93 10.2576 127.139 9.37926 127.139C8.49763 127.139 7.71046 126.93 7.01776 126.513C6.32836 126.092 5.7848 125.49 5.38707 124.708C4.98935 123.926 4.79048 122.993 4.79048 121.909C4.79048 120.822 4.98935 119.889 5.38707 119.11C5.7848 118.328 6.32836 117.728 7.01776 117.31C7.71046 116.889 8.49763 116.679 9.37926 116.679C10.2576 116.679 11.0414 116.889 11.7308 117.31C12.4235 117.728 12.9688 118.328 13.3665 119.11C13.7642 119.889 13.9631 120.822 13.9631 121.909ZM12.4418 121.909C12.4418 121.08 12.3075 120.383 12.0391 119.816C11.7739 119.246 11.4093 118.815 10.9453 118.523C10.4846 118.228 9.96259 118.081 9.37926 118.081C8.79261 118.081 8.26894 118.228 7.80824 118.523C7.34754 118.815 6.98295 119.246 6.71449 119.816C6.44934 120.383 6.31676 121.08 6.31676 121.909C6.31676 122.738 6.44934 123.437 6.71449 124.007C6.98295 124.574 7.34754 125.005 7.80824 125.3C8.26894 125.591 8.79261 125.737 9.37926 125.737C9.96259 125.737 10.4846 125.591 10.9453 125.3C11.4093 125.005 11.7739 124.574 12.0391 124.007C12.3075 123.437 12.4418 122.738 12.4418 121.909ZM17.7456 122.466V127H16.2591V119.364H17.6859V120.607H17.7804C17.956 120.202 18.2311 119.877 18.6056 119.632C18.9835 119.387 19.4591 119.264 20.0325 119.264C20.5529 119.264 21.0086 119.374 21.3997 119.592C21.7908 119.808 22.094 120.129 22.3095 120.557C22.5249 120.984 22.6326 121.513 22.6326 122.143V127H21.1461V122.322C21.1461 121.768 21.002 121.336 20.7136 121.024C20.4252 120.709 20.0292 120.552 19.5254 120.552C19.1807 120.552 18.8741 120.626 18.6056 120.776C18.3405 120.925 18.13 121.143 17.9743 121.432C17.8218 121.717 17.7456 122.062 17.7456 122.466ZM35.0039 119.493C34.9509 119.022 34.7321 118.658 34.3477 118.399C33.9632 118.137 33.4793 118.006 32.896 118.006C32.4783 118.006 32.1171 118.073 31.8121 118.205C31.5072 118.335 31.2702 118.513 31.1012 118.742C30.9355 118.968 30.8526 119.224 30.8526 119.513C30.8526 119.755 30.909 119.964 31.0217 120.139C31.1377 120.315 31.2885 120.462 31.4741 120.582C31.663 120.698 31.8652 120.795 32.0806 120.875C32.296 120.951 32.5032 121.014 32.7021 121.064L33.6964 121.322C34.0212 121.402 34.3543 121.51 34.6957 121.646C35.0371 121.781 35.3536 121.96 35.6452 122.183C35.9369 122.405 36.1722 122.68 36.3512 123.008C36.5335 123.336 36.6246 123.729 36.6246 124.186C36.6246 124.763 36.4755 125.275 36.1772 125.722C35.8822 126.17 35.453 126.523 34.8896 126.781C34.3294 127.04 33.6516 127.169 32.8562 127.169C32.0939 127.169 31.4343 127.048 30.8775 126.806C30.3207 126.564 29.8848 126.221 29.57 125.777C29.2551 125.33 29.0811 124.799 29.0479 124.186H30.5891C30.619 124.554 30.7383 124.861 30.9471 125.106C31.1592 125.348 31.4293 125.528 31.7575 125.648C32.0889 125.764 32.4518 125.822 32.8462 125.822C33.2804 125.822 33.6665 125.754 34.0046 125.618C34.346 125.479 34.6145 125.286 34.81 125.041C35.0056 124.793 35.1033 124.503 35.1033 124.171C35.1033 123.87 35.0172 123.623 34.8448 123.43C34.6758 123.238 34.4454 123.079 34.1538 122.953C33.8654 122.827 33.5389 122.716 33.1744 122.62L31.9712 122.292C31.1559 122.07 30.5096 121.743 30.0323 121.312C29.5584 120.882 29.3214 120.312 29.3214 119.602C29.3214 119.016 29.4805 118.504 29.7987 118.066C30.1168 117.629 30.5477 117.289 31.0913 117.047C31.6348 116.802 32.248 116.679 32.9308 116.679C33.6201 116.679 34.2283 116.8 34.7553 117.042C35.2856 117.284 35.7032 117.617 36.0082 118.041C36.3131 118.462 36.4722 118.946 36.4854 119.493H35.0039ZM42.1323 127.154C41.3799 127.154 40.7319 126.993 40.1884 126.672C39.6481 126.347 39.2305 125.891 38.9355 125.305C38.6439 124.715 38.498 124.024 38.498 123.232C38.498 122.449 38.6439 121.76 38.9355 121.163C39.2305 120.567 39.6415 120.101 40.1685 119.766C40.6988 119.432 41.3186 119.264 42.0279 119.264C42.4587 119.264 42.8764 119.335 43.2807 119.478C43.6851 119.621 44.048 119.844 44.3695 120.149C44.691 120.454 44.9445 120.85 45.1301 121.337C45.3158 121.821 45.4086 122.41 45.4086 123.102V123.629H39.3382V122.516H43.9519C43.9519 122.125 43.8723 121.778 43.7132 121.477C43.5542 121.172 43.3304 120.931 43.0421 120.756C42.757 120.58 42.4223 120.492 42.0378 120.492C41.6202 120.492 41.2556 120.595 40.9441 120.8C40.6358 121.003 40.3972 121.268 40.2282 121.596C40.0624 121.921 39.9796 122.274 39.9796 122.655V123.525C39.9796 124.035 40.0691 124.469 40.248 124.827C40.4303 125.185 40.6839 125.459 41.0087 125.648C41.3335 125.833 41.713 125.926 42.1472 125.926C42.4289 125.926 42.6858 125.886 42.9178 125.807C43.1498 125.724 43.3503 125.601 43.5194 125.439C43.6884 125.277 43.8176 125.076 43.9071 124.837L45.3141 125.091C45.2014 125.505 44.9992 125.868 44.7076 126.18C44.4192 126.488 44.0563 126.728 43.6188 126.901C43.1846 127.07 42.6891 127.154 42.1323 127.154ZM50.7745 127.154C50.0354 127.154 49.399 126.987 48.8654 126.652C48.3351 126.314 47.9274 125.848 47.6424 125.255C47.3574 124.662 47.2148 123.982 47.2148 123.217C47.2148 122.441 47.3607 121.757 47.6523 121.163C47.944 120.567 48.355 120.101 48.8853 119.766C49.4156 119.432 50.0404 119.264 50.7596 119.264C51.3396 119.264 51.8567 119.372 52.3107 119.587C52.7648 119.799 53.131 120.098 53.4094 120.482C53.6912 120.867 53.8585 121.316 53.9116 121.83H52.4648C52.3853 121.472 52.203 121.163 51.918 120.905C51.6362 120.646 51.2584 120.517 50.7844 120.517C50.3701 120.517 50.0072 120.626 49.6957 120.845C49.3874 121.061 49.1471 121.369 48.9748 121.77C48.8024 122.168 48.7163 122.638 48.7163 123.182C48.7163 123.739 48.8008 124.219 48.9698 124.624C49.1388 125.028 49.3775 125.341 49.6857 125.563C49.9973 125.785 50.3635 125.896 50.7844 125.896C51.0662 125.896 51.3214 125.845 51.5501 125.742C51.7821 125.636 51.976 125.485 52.1317 125.29C52.2908 125.094 52.4019 124.859 52.4648 124.584H53.9116C53.8585 125.078 53.6978 125.518 53.4293 125.906C53.1609 126.294 52.8013 126.599 52.3505 126.821C51.9031 127.043 51.3777 127.154 50.7745 127.154ZM59.2179 127.154C58.502 127.154 57.8772 126.99 57.3436 126.662C56.81 126.334 56.3957 125.875 56.1007 125.285C55.8057 124.695 55.6582 124.005 55.6582 123.217C55.6582 122.424 55.8057 121.732 56.1007 121.138C56.3957 120.545 56.81 120.085 57.3436 119.756C57.8772 119.428 58.502 119.264 59.2179 119.264C59.9338 119.264 60.5585 119.428 61.0922 119.756C61.6258 120.085 62.0401 120.545 62.335 121.138C62.63 121.732 62.7775 122.424 62.7775 123.217C62.7775 124.005 62.63 124.695 62.335 125.285C62.0401 125.875 61.6258 126.334 61.0922 126.662C60.5585 126.99 59.9338 127.154 59.2179 127.154ZM59.2228 125.906C59.6868 125.906 60.0713 125.784 60.3762 125.538C60.6812 125.293 60.9065 124.967 61.0524 124.559C61.2015 124.151 61.2761 123.702 61.2761 123.212C61.2761 122.724 61.2015 122.277 61.0524 121.869C60.9065 121.458 60.6812 121.129 60.3762 120.88C60.0713 120.631 59.6868 120.507 59.2228 120.507C58.7555 120.507 58.3677 120.631 58.0595 120.88C57.7546 121.129 57.5275 121.458 57.3784 121.869C57.2325 122.277 57.1596 122.724 57.1596 123.212C57.1596 123.702 57.2325 124.151 57.3784 124.559C57.5275 124.967 57.7546 125.293 58.0595 125.538C58.3677 125.784 58.7555 125.906 59.2228 125.906ZM66.4233 122.466V127H64.9368V119.364H66.3636V120.607H66.4581C66.6338 120.202 66.9089 119.877 67.2834 119.632C67.6612 119.387 68.1368 119.264 68.7102 119.264C69.2306 119.264 69.6863 119.374 70.0774 119.592C70.4685 119.808 70.7718 120.129 70.9872 120.557C71.2027 120.984 71.3104 121.513 71.3104 122.143V127H69.8239V122.322C69.8239 121.768 69.6797 121.336 69.3913 121.024C69.103 120.709 68.7069 120.552 68.2031 120.552C67.8584 120.552 67.5518 120.626 67.2834 120.776C67.0182 120.925 66.8078 121.143 66.652 121.432C66.4995 121.717 66.4233 122.062 66.4233 122.466ZM76.6626 127.149C76.0462 127.149 75.496 126.992 75.0121 126.677C74.5315 126.359 74.1536 125.906 73.8786 125.32C73.6068 124.73 73.4709 124.022 73.4709 123.197C73.4709 122.371 73.6084 121.665 73.8835 121.079C74.1619 120.492 74.5431 120.043 75.027 119.732C75.5109 119.42 76.0594 119.264 76.6726 119.264C77.1465 119.264 77.5277 119.344 77.8161 119.503C78.1077 119.659 78.3331 119.841 78.4922 120.05C78.6546 120.259 78.7805 120.442 78.87 120.602H78.9595V116.818H80.446V127H78.9943V125.812H78.87C78.7805 125.974 78.6513 126.16 78.4822 126.369C78.3165 126.577 78.0878 126.76 77.7962 126.915C77.5045 127.071 77.1267 127.149 76.6626 127.149ZM76.9908 125.881C77.4183 125.881 77.7796 125.769 78.0746 125.543C78.3729 125.315 78.5982 124.998 78.7507 124.594C78.9065 124.189 78.9844 123.719 78.9844 123.182C78.9844 122.652 78.9081 122.187 78.7557 121.79C78.6032 121.392 78.3795 121.082 78.0845 120.86C77.7895 120.638 77.425 120.527 76.9908 120.527C76.5433 120.527 76.1705 120.643 75.8722 120.875C75.5739 121.107 75.3485 121.424 75.196 121.825C75.0469 122.226 74.9723 122.678 74.9723 123.182C74.9723 123.692 75.0485 124.151 75.201 124.559C75.3535 124.967 75.5788 125.29 75.8771 125.528C76.1787 125.764 76.55 125.881 76.9908 125.881ZM85.29 127.169C84.806 127.169 84.3685 127.08 83.9775 126.901C83.5864 126.718 83.2765 126.455 83.0478 126.11C82.8224 125.765 82.7097 125.343 82.7097 124.842C82.7097 124.411 82.7926 124.057 82.9583 123.778C83.124 123.5 83.3477 123.28 83.6294 123.117C83.9112 122.955 84.226 122.832 84.574 122.749C84.9221 122.666 85.2767 122.603 85.638 122.56C86.0953 122.507 86.4666 122.464 86.7516 122.431C87.0366 122.395 87.2438 122.337 87.373 122.257C87.5023 122.178 87.5669 122.048 87.5669 121.869V121.835C87.5669 121.4 87.4443 121.064 87.199 120.825C86.9571 120.587 86.5958 120.467 86.1152 120.467C85.6148 120.467 85.2203 120.578 84.932 120.8C84.647 121.019 84.4498 121.263 84.3404 121.531L82.9434 121.213C83.1091 120.749 83.351 120.375 83.6692 120.089C83.9907 119.801 84.3603 119.592 84.7779 119.463C85.1955 119.33 85.6346 119.264 86.0953 119.264C86.4003 119.264 86.7234 119.301 87.0648 119.374C87.4095 119.443 87.731 119.572 88.0293 119.761C88.3309 119.95 88.5778 120.22 88.7701 120.572C88.9623 120.92 89.0584 121.372 89.0584 121.929V127H87.6067V125.956H87.5471C87.4509 126.148 87.3068 126.337 87.1145 126.523C86.9223 126.708 86.6754 126.862 86.3738 126.985C86.0721 127.108 85.7109 127.169 85.29 127.169ZM85.6131 125.976C86.0241 125.976 86.3754 125.895 86.6671 125.732C86.9621 125.57 87.1858 125.358 87.3382 125.096C87.494 124.831 87.5719 124.547 87.5719 124.246V123.261C87.5189 123.314 87.4161 123.364 87.2637 123.411C87.1145 123.454 86.9438 123.492 86.7516 123.525C86.5594 123.555 86.3721 123.583 86.1898 123.609C86.0075 123.633 85.8551 123.652 85.7324 123.669C85.4441 123.705 85.1806 123.767 84.9419 123.853C84.7066 123.939 84.5177 124.063 84.3752 124.226C84.236 124.385 84.1664 124.597 84.1664 124.862C84.1664 125.23 84.3023 125.509 84.574 125.697C84.8458 125.883 85.1922 125.976 85.6131 125.976ZM91.5384 127V119.364H92.9751V120.577H93.0547C93.1939 120.166 93.4392 119.843 93.7905 119.607C94.1451 119.369 94.5462 119.249 94.9936 119.249C95.0864 119.249 95.1958 119.253 95.3217 119.259C95.451 119.266 95.5521 119.274 95.625 119.284V120.706C95.5653 120.689 95.4593 120.671 95.3068 120.651C95.1544 120.628 95.0019 120.616 94.8494 120.616C94.4981 120.616 94.1849 120.691 93.9098 120.84C93.638 120.986 93.4226 121.19 93.2635 121.452C93.1044 121.71 93.0249 122.005 93.0249 122.337V127H91.5384ZM98.5835 129.864C98.3614 129.864 98.1592 129.845 97.9769 129.809C97.7946 129.776 97.6587 129.739 97.5692 129.7L97.9272 128.482C98.199 128.554 98.4409 128.586 98.6531 128.576C98.8652 128.566 99.0524 128.487 99.2148 128.337C99.3806 128.188 99.5264 127.945 99.6523 127.607L99.8363 127.099L97.0423 119.364H98.6332L100.567 125.29H100.647L102.581 119.364H104.176L101.029 128.019C100.884 128.417 100.698 128.753 100.473 129.028C100.247 129.307 99.9788 129.516 99.6673 129.655C99.3557 129.794 98.9944 129.864 98.5835 129.864Z" fill="#1C1B1E"/>
<defs>
<filter id="filter0_d_825_497" x="0" y="0" width="224" height="100" filterUnits="userSpaceOnUse" color-interpolation-filters="sRGB">
<feFlood flood-opacity="0" result="BackgroundImageFix"/>
<feColorMatrix in="SourceAlpha" type="matrix" values="0 0 0 0 0 0 0 0 0 0 0 0 0 0 0 0 0 0 127 0" result="hardAlpha"/>
<feOffset dy="1"/>
<feGaussianBlur stdDeviation="2"/>
<feComposite in2="hardAlpha" operator="out"/>
<feColorMatrix type="matrix" values="0 0 0 0 0 0 0 0 0 0 0 0 0 0 0 0 0 0 0.1 0"/>
<feBlend mode="normal" in2="BackgroundImageFix" result="effect1_dropShadow_825_497"/>
<feBlend mode="normal" in="SourceGraphic" in2="effect1_dropShadow_825_497" result="shape"/>
</filter>
</defs>
</svg>
