<svg width="224" height="133" viewBox="0 0 224 133" fill="none" xmlns="http://www.w3.org/2000/svg">
<g filter="url(#filter0_d_825_500)">
<rect x="4" y="3" width="216" height="92" rx="8" fill="#E6E1E6"/>
</g>
<path d="M85.9981 54L87.6686 43.8182H88.8618L87.1913 54H85.9981ZM81.3895 51.2756L81.5834 50.0824H89.2993L89.1054 51.2756H81.3895ZM82.4186 54L84.089 43.8182H85.2822L83.6118 54H82.4186ZM81.9811 47.7358L82.175 46.5426H89.8909L89.697 47.7358H81.9811ZM91.7133 54V43.8182H98.0969V45.1406H93.2496V48.2429H97.7638V49.5604H93.2496V52.6776H98.1565V54H91.7133ZM104.064 54.1392C103.61 54.1326 103.163 54.0497 102.722 53.8906C102.285 53.7315 101.887 53.4664 101.529 53.0952C101.171 52.724 100.884 52.2251 100.669 51.5987C100.457 50.9723 100.351 50.1901 100.351 49.2521C100.351 48.3639 100.438 47.575 100.614 46.8857C100.793 46.1963 101.05 45.6146 101.385 45.1406C101.719 44.6634 102.124 44.3004 102.598 44.0518C103.072 43.8033 103.604 43.679 104.194 43.679C104.8 43.679 105.339 43.7983 105.809 44.0369C106.28 44.2756 106.661 44.6054 106.953 45.0263C107.248 45.4472 107.435 45.9261 107.515 46.4631H105.998C105.896 46.0388 105.692 45.6925 105.387 45.424C105.082 45.1555 104.684 45.0213 104.194 45.0213C103.448 45.0213 102.866 45.3461 102.449 45.9957C102.034 46.6454 101.825 47.5485 101.822 48.7053H101.897C102.072 48.4169 102.288 48.1716 102.543 47.9695C102.802 47.764 103.09 47.6065 103.408 47.4972C103.73 47.3845 104.068 47.3281 104.422 47.3281C105.012 47.3281 105.546 47.4723 106.023 47.7607C106.504 48.0457 106.887 48.4401 107.172 48.9439C107.457 49.4477 107.599 50.0244 107.599 50.674C107.599 51.3236 107.452 51.9119 107.157 52.4389C106.865 52.9659 106.454 53.3835 105.924 53.6918C105.393 53.9967 104.774 54.1458 104.064 54.1392ZM104.059 52.8466C104.45 52.8466 104.8 52.7505 105.108 52.5582C105.417 52.366 105.66 52.1075 105.839 51.7827C106.018 51.4579 106.108 51.0949 106.108 50.6939C106.108 50.3028 106.02 49.9465 105.844 49.625C105.672 49.3035 105.433 49.0483 105.128 48.8594C104.827 48.6705 104.482 48.576 104.094 48.576C103.799 48.576 103.526 48.6323 103.274 48.745C103.025 48.8577 102.807 49.0135 102.618 49.2124C102.429 49.4112 102.28 49.6399 102.17 49.8984C102.064 50.1536 102.011 50.4238 102.011 50.7088C102.011 51.09 102.099 51.4429 102.275 51.7678C102.454 52.0926 102.697 52.3544 103.005 52.5533C103.317 52.7488 103.668 52.8466 104.059 52.8466ZM110.049 54V43.8182H116.433V45.1406H111.585V48.2429H116.1V49.5604H111.585V52.6776H116.492V54H110.049ZM122.709 43.8182V54H121.167V45.3594H121.108L118.672 46.9503V45.4787L121.212 43.8182H122.709ZM126.102 54V43.8182H132.486V45.1406H127.638V48.2429H132.152V49.5604H127.638V52.6776H132.545V54H126.102ZM138.453 54.1392C137.999 54.1326 137.552 54.0497 137.111 53.8906C136.673 53.7315 136.275 53.4664 135.918 53.0952C135.56 52.724 135.273 52.2251 135.057 51.5987C134.845 50.9723 134.739 50.1901 134.739 49.2521C134.739 48.3639 134.827 47.575 135.003 46.8857C135.182 46.1963 135.439 45.6146 135.773 45.1406C136.108 44.6634 136.512 44.3004 136.986 44.0518C137.46 43.8033 137.992 43.679 138.582 43.679C139.189 43.679 139.727 43.7983 140.198 44.0369C140.669 44.2756 141.05 44.6054 141.342 45.0263C141.637 45.4472 141.824 45.9261 141.903 46.4631H140.387C140.284 46.0388 140.08 45.6925 139.775 45.424C139.471 45.1555 139.073 45.0213 138.582 45.0213C137.837 45.0213 137.255 45.3461 136.837 45.9957C136.423 46.6454 136.214 47.5485 136.211 48.7053H136.285C136.461 48.4169 136.677 48.1716 136.932 47.9695C137.19 47.764 137.479 47.6065 137.797 47.4972C138.118 47.3845 138.456 47.3281 138.811 47.3281C139.401 47.3281 139.935 47.4723 140.412 47.7607C140.892 48.0457 141.275 48.4401 141.56 48.9439C141.845 49.4477 141.988 50.0244 141.988 50.674C141.988 51.3236 141.84 51.9119 141.545 52.4389C141.254 52.9659 140.843 53.3835 140.312 53.6918C139.782 53.9967 139.162 54.1458 138.453 54.1392ZM138.448 52.8466C138.839 52.8466 139.189 52.7505 139.497 52.5582C139.805 52.366 140.049 52.1075 140.228 51.7827C140.407 51.4579 140.496 51.0949 140.496 50.6939C140.496 50.3028 140.409 49.9465 140.233 49.625C140.061 49.3035 139.822 49.0483 139.517 48.8594C139.215 48.6705 138.871 48.576 138.483 48.576C138.188 48.576 137.914 48.6323 137.663 48.745C137.414 48.8577 137.195 49.0135 137.006 49.2124C136.817 49.4112 136.668 49.6399 136.559 49.8984C136.453 50.1536 136.4 50.4238 136.4 50.7088C136.4 51.09 136.488 51.4429 136.663 51.7678C136.842 52.0926 137.086 52.3544 137.394 52.5533C137.706 52.7488 138.057 52.8466 138.448 52.8466Z" fill="#1C1B1E"/>
<path d="M6.65483 116.818V127H5.11861V116.818H6.65483ZM10.7592 122.466V127H9.27273V119.364H10.6996V120.607H10.794C10.9697 120.202 11.2448 119.877 11.6193 119.632C11.9972 119.387 12.4728 119.264 13.0462 119.264C13.5665 119.264 14.0223 119.374 14.4134 119.592C14.8045 119.808 15.1077 120.129 15.3232 120.557C15.5386 120.984 15.6463 121.513 15.6463 122.143V127H14.1598V122.322C14.1598 121.768 14.0156 121.336 13.7273 121.024C13.4389 120.709 13.0429 120.552 12.5391 120.552C12.1944 120.552 11.8878 120.626 11.6193 120.776C11.3542 120.925 11.1437 121.143 10.9879 121.432C10.8355 121.717 10.7592 122.062 10.7592 122.466ZM24.3991 119.364L21.63 127H20.0391L17.2649 119.364H18.8608L20.7947 125.24H20.8743L22.8033 119.364H24.3991ZM29.3276 127.154C28.5752 127.154 27.9273 126.993 27.3837 126.672C26.8435 126.347 26.4258 125.891 26.1309 125.305C25.8392 124.715 25.6934 124.024 25.6934 123.232C25.6934 122.449 25.8392 121.76 26.1309 121.163C26.4258 120.567 26.8368 120.101 27.3638 119.766C27.8941 119.432 28.5139 119.264 29.2232 119.264C29.6541 119.264 30.0717 119.335 30.476 119.478C30.8804 119.621 31.2433 119.844 31.5648 120.149C31.8863 120.454 32.1399 120.85 32.3255 121.337C32.5111 121.821 32.6039 122.41 32.6039 123.102V123.629H26.5336V122.516H31.1472C31.1472 122.125 31.0676 121.778 30.9086 121.477C30.7495 121.172 30.5257 120.931 30.2374 120.756C29.9524 120.58 29.6176 120.492 29.2331 120.492C28.8155 120.492 28.4509 120.595 28.1394 120.8C27.8311 121.003 27.5925 121.268 27.4235 121.596C27.2578 121.921 27.1749 122.274 27.1749 122.655V123.525C27.1749 124.035 27.2644 124.469 27.4434 124.827C27.6257 125.185 27.8792 125.459 28.204 125.648C28.5288 125.833 28.9083 125.926 29.3425 125.926C29.6242 125.926 29.8811 125.886 30.1131 125.807C30.3451 125.724 30.5456 125.601 30.7147 125.439C30.8837 125.277 31.013 125.076 31.1025 124.837L32.5094 125.091C32.3967 125.505 32.1945 125.868 31.9029 126.18C31.6145 126.488 31.2516 126.728 30.8141 126.901C30.3799 127.07 29.8844 127.154 29.3276 127.154ZM34.7532 127V119.364H36.19V120.577H36.2695C36.4087 120.166 36.654 119.843 37.0053 119.607C37.36 119.369 37.761 119.249 38.2085 119.249C38.3013 119.249 38.4106 119.253 38.5366 119.259C38.6658 119.266 38.7669 119.274 38.8398 119.284V120.706C38.7802 120.689 38.6741 120.671 38.5217 120.651C38.3692 120.628 38.2167 120.616 38.0643 120.616C37.713 120.616 37.3997 120.691 37.1246 120.84C36.8529 120.986 36.6374 121.19 36.4783 121.452C36.3192 121.71 36.2397 122.005 36.2397 122.337V127H34.7532ZM46.3485 121.228L45.0012 121.467C44.9449 121.294 44.8554 121.13 44.7328 120.974C44.6135 120.819 44.4511 120.691 44.2456 120.592C44.0401 120.492 43.7832 120.442 43.475 120.442C43.054 120.442 42.7027 120.537 42.421 120.726C42.1393 120.911 41.9984 121.152 41.9984 121.447C41.9984 121.702 42.0929 121.907 42.2818 122.063C42.4707 122.219 42.7756 122.347 43.1966 122.446L44.4096 122.724C45.1123 122.887 45.6359 123.137 45.9806 123.475C46.3253 123.813 46.4977 124.252 46.4977 124.793C46.4977 125.25 46.3651 125.658 46.1 126.016C45.8381 126.37 45.4719 126.649 45.0012 126.851C44.5339 127.053 43.992 127.154 43.3755 127.154C42.5204 127.154 41.8227 126.972 41.2825 126.607C40.7422 126.239 40.4108 125.717 40.2882 125.041L41.725 124.822C41.8145 125.197 41.9984 125.48 42.2768 125.673C42.5552 125.862 42.9181 125.956 43.3656 125.956C43.8528 125.956 44.2422 125.855 44.5339 125.653C44.8256 125.447 44.9714 125.197 44.9714 124.902C44.9714 124.663 44.8819 124.463 44.7029 124.3C44.5273 124.138 44.2572 124.015 43.8926 123.933L42.6 123.649C41.8874 123.487 41.3604 123.228 41.019 122.874C40.6809 122.519 40.5119 122.07 40.5119 121.526C40.5119 121.076 40.6378 120.681 40.8897 120.343C41.1416 120.005 41.4896 119.741 41.9338 119.553C42.3779 119.36 42.8867 119.264 43.46 119.264C44.2853 119.264 44.935 119.443 45.4089 119.801C45.8829 120.156 46.1961 120.631 46.3485 121.228ZM51.9233 127.154C51.1709 127.154 50.523 126.993 49.9794 126.672C49.4392 126.347 49.0215 125.891 48.7266 125.305C48.4349 124.715 48.2891 124.024 48.2891 123.232C48.2891 122.449 48.4349 121.76 48.7266 121.163C49.0215 120.567 49.4325 120.101 49.9595 119.766C50.4898 119.432 51.1096 119.264 51.8189 119.264C52.2498 119.264 52.6674 119.335 53.0717 119.478C53.4761 119.621 53.839 119.844 54.1605 120.149C54.482 120.454 54.7356 120.85 54.9212 121.337C55.1068 121.821 55.1996 122.41 55.1996 123.102V123.629H49.1293V122.516H53.7429C53.7429 122.125 53.6634 121.778 53.5043 121.477C53.3452 121.172 53.1214 120.931 52.8331 120.756C52.5481 120.58 52.2133 120.492 51.8288 120.492C51.4112 120.492 51.0466 120.595 50.7351 120.8C50.4268 121.003 50.1882 121.268 50.0192 121.596C49.8535 121.921 49.7706 122.274 49.7706 122.655V123.525C49.7706 124.035 49.8601 124.469 50.0391 124.827C50.2214 125.185 50.4749 125.459 50.7997 125.648C51.1245 125.833 51.504 125.926 51.9382 125.926C52.2199 125.926 52.4768 125.886 52.7088 125.807C52.9408 125.724 53.1413 125.601 53.3104 125.439C53.4794 125.277 53.6087 125.076 53.6982 124.837L55.1051 125.091C54.9924 125.505 54.7902 125.868 54.4986 126.18C54.2102 126.488 53.8473 126.728 53.4098 126.901C52.9756 127.07 52.4801 127.154 51.9233 127.154ZM67.2266 119.493C67.1735 119.022 66.9548 118.658 66.5703 118.399C66.1858 118.137 65.7019 118.006 65.1186 118.006C64.701 118.006 64.3397 118.073 64.0348 118.205C63.7299 118.335 63.4929 118.513 63.3239 118.742C63.1581 118.968 63.0753 119.224 63.0753 119.513C63.0753 119.755 63.1316 119.964 63.2443 120.139C63.3603 120.315 63.5111 120.462 63.6967 120.582C63.8857 120.698 64.0878 120.795 64.3033 120.875C64.5187 120.951 64.7259 121.014 64.9247 121.064L65.919 121.322C66.2438 121.402 66.5769 121.51 66.9183 121.646C67.2597 121.781 67.5762 121.96 67.8679 122.183C68.1596 122.405 68.3949 122.68 68.5739 123.008C68.7562 123.336 68.8473 123.729 68.8473 124.186C68.8473 124.763 68.6982 125.275 68.3999 125.722C68.1049 126.17 67.6757 126.523 67.1122 126.781C66.5521 127.04 65.8743 127.169 65.0788 127.169C64.3165 127.169 63.657 127.048 63.1001 126.806C62.5433 126.564 62.1075 126.221 61.7926 125.777C61.4777 125.33 61.3037 124.799 61.2706 124.186H62.8118C62.8416 124.554 62.9609 124.861 63.1697 125.106C63.3819 125.348 63.652 125.528 63.9801 125.648C64.3116 125.764 64.6745 125.822 65.0689 125.822C65.5031 125.822 65.8892 125.754 66.2273 125.618C66.5687 125.479 66.8371 125.286 67.0327 125.041C67.2282 124.793 67.326 124.503 67.326 124.171C67.326 123.87 67.2398 123.623 67.0675 123.43C66.8984 123.238 66.6681 123.079 66.3764 122.953C66.0881 122.827 65.7616 122.716 65.397 122.62L64.1939 122.292C63.3786 122.07 62.7322 121.743 62.255 121.312C61.781 120.882 61.544 120.312 61.544 119.602C61.544 119.016 61.7031 118.504 62.0213 118.066C62.3395 117.629 62.7704 117.289 63.3139 117.047C63.8575 116.802 64.4706 116.679 65.1534 116.679C65.8428 116.679 66.451 116.8 66.978 117.042C67.5083 117.284 67.9259 117.617 68.2308 118.041C68.5357 118.462 68.6948 118.946 68.7081 119.493H67.2266ZM75.9011 123.833V119.364H77.3926V127H75.9309V125.678H75.8514C75.6757 126.085 75.394 126.425 75.0062 126.697C74.6217 126.965 74.1428 127.099 73.5694 127.099C73.0789 127.099 72.6447 126.992 72.2669 126.776C71.8923 126.558 71.5974 126.234 71.3819 125.807C71.1698 125.379 71.0637 124.851 71.0637 124.221V119.364H72.5502V124.042C72.5502 124.562 72.6944 124.977 72.9828 125.285C73.2711 125.593 73.6457 125.747 74.1064 125.747C74.3848 125.747 74.6615 125.678 74.9366 125.538C75.215 125.399 75.4454 125.189 75.6277 124.907C75.8133 124.625 75.9044 124.267 75.9011 123.833ZM79.8899 127V119.364H81.3267V120.577H81.4062C81.5455 120.166 81.7907 119.843 82.142 119.607C82.4967 119.369 82.8977 119.249 83.3452 119.249C83.438 119.249 83.5473 119.253 83.6733 119.259C83.8026 119.266 83.9036 119.274 83.9766 119.284V120.706C83.9169 120.689 83.8108 120.671 83.6584 120.651C83.5059 120.628 83.3535 120.616 83.201 120.616C82.8497 120.616 82.5365 120.691 82.2614 120.84C81.9896 120.986 81.7741 121.19 81.6151 121.452C81.456 121.71 81.3764 122.005 81.3764 122.337V127H79.8899ZM89.8484 119.364V120.557H85.533V119.364H89.8484ZM86.7163 127V118.479C86.7163 118.001 86.8207 117.605 87.0295 117.29C87.2383 116.972 87.515 116.735 87.8597 116.58C88.2044 116.42 88.579 116.341 88.9833 116.341C89.2816 116.341 89.5368 116.366 89.7489 116.415C89.9611 116.462 90.1185 116.505 90.2212 116.545L89.8732 117.748C89.8036 117.728 89.7141 117.705 89.6048 117.678C89.4954 117.648 89.3628 117.634 89.207 117.634C88.8458 117.634 88.5872 117.723 88.4315 117.902C88.279 118.081 88.2028 118.339 88.2028 118.678V127H86.7163ZM93.872 127.169C93.3881 127.169 92.9506 127.08 92.5595 126.901C92.1684 126.718 91.8585 126.455 91.6298 126.11C91.4044 125.765 91.2917 125.343 91.2917 124.842C91.2917 124.411 91.3746 124.057 91.5403 123.778C91.706 123.5 91.9297 123.28 92.2115 123.117C92.4932 122.955 92.8081 122.832 93.1561 122.749C93.5041 122.666 93.8587 122.603 94.22 122.56C94.6774 122.507 95.0486 122.464 95.3336 122.431C95.6187 122.395 95.8258 122.337 95.9551 122.257C96.0843 122.178 96.149 122.048 96.149 121.869V121.835C96.149 121.4 96.0263 121.064 95.7811 120.825C95.5391 120.587 95.1779 120.467 94.6973 120.467C94.1968 120.467 93.8024 120.578 93.514 120.8C93.229 121.019 93.0318 121.263 92.9224 121.531L91.5254 121.213C91.6911 120.749 91.9331 120.375 92.2512 120.089C92.5727 119.801 92.9423 119.592 93.3599 119.463C93.7775 119.33 94.2167 119.264 94.6774 119.264C94.9823 119.264 95.3055 119.301 95.6468 119.374C95.9915 119.443 96.313 119.572 96.6113 119.761C96.9129 119.95 97.1599 120.22 97.3521 120.572C97.5443 120.92 97.6404 121.372 97.6404 121.929V127H96.1887V125.956H96.1291C96.033 126.148 95.8888 126.337 95.6966 126.523C95.5043 126.708 95.2574 126.862 94.9558 126.985C94.6542 127.108 94.2929 127.169 93.872 127.169ZM94.1951 125.976C94.6061 125.976 94.9574 125.895 95.2491 125.732C95.5441 125.57 95.7678 125.358 95.9203 125.096C96.0761 124.831 96.1539 124.547 96.1539 124.246V123.261C96.1009 123.314 95.9982 123.364 95.8457 123.411C95.6966 123.454 95.5259 123.492 95.3336 123.525C95.1414 123.555 94.9541 123.583 94.7718 123.609C94.5895 123.633 94.4371 123.652 94.3145 123.669C94.0261 123.705 93.7626 123.767 93.524 123.853C93.2886 123.939 93.0997 124.063 92.9572 124.226C92.818 124.385 92.7484 124.597 92.7484 124.862C92.7484 125.23 92.8843 125.509 93.1561 125.697C93.4279 125.883 93.7742 125.976 94.1951 125.976ZM103.337 127.154C102.598 127.154 101.962 126.987 101.428 126.652C100.898 126.314 100.49 125.848 100.205 125.255C99.9199 124.662 99.7773 123.982 99.7773 123.217C99.7773 122.441 99.9232 121.757 100.215 121.163C100.507 120.567 100.917 120.101 101.448 119.766C101.978 119.432 102.603 119.264 103.322 119.264C103.902 119.264 104.419 119.372 104.873 119.587C105.327 119.799 105.694 120.098 105.972 120.482C106.254 120.867 106.421 121.316 106.474 121.83H105.027C104.948 121.472 104.766 121.163 104.48 120.905C104.199 120.646 103.821 120.517 103.347 120.517C102.933 120.517 102.57 120.626 102.258 120.845C101.95 121.061 101.71 121.369 101.537 121.77C101.365 122.168 101.279 122.638 101.279 123.182C101.279 123.739 101.363 124.219 101.532 124.624C101.701 125.028 101.94 125.341 102.248 125.563C102.56 125.785 102.926 125.896 103.347 125.896C103.629 125.896 103.884 125.845 104.113 125.742C104.345 125.636 104.538 125.485 104.694 125.29C104.853 125.094 104.964 124.859 105.027 124.584H106.474C106.421 125.078 106.26 125.518 105.992 125.906C105.723 126.294 105.364 126.599 104.913 126.821C104.466 127.043 103.94 127.154 103.337 127.154ZM111.855 127.154C111.103 127.154 110.455 126.993 109.911 126.672C109.371 126.347 108.953 125.891 108.658 125.305C108.367 124.715 108.221 124.024 108.221 123.232C108.221 122.449 108.367 121.76 108.658 121.163C108.953 120.567 109.364 120.101 109.891 119.766C110.421 119.432 111.041 119.264 111.751 119.264C112.181 119.264 112.599 119.335 113.003 119.478C113.408 119.621 113.771 119.844 114.092 120.149C114.414 120.454 114.667 120.85 114.853 121.337C115.038 121.821 115.131 122.41 115.131 123.102V123.629H109.061V122.516H113.675C113.675 122.125 113.595 121.778 113.436 121.477C113.277 121.172 113.053 120.931 112.765 120.756C112.48 120.58 112.145 120.492 111.76 120.492C111.343 120.492 110.978 120.595 110.667 120.8C110.358 121.003 110.12 121.268 109.951 121.596C109.785 121.921 109.702 122.274 109.702 122.655V123.525C109.702 124.035 109.792 124.469 109.971 124.827C110.153 125.185 110.407 125.459 110.731 125.648C111.056 125.833 111.436 125.926 111.87 125.926C112.152 125.926 112.408 125.886 112.64 125.807C112.872 125.724 113.073 125.601 113.242 125.439C113.411 125.277 113.54 125.076 113.63 124.837L115.037 125.091C114.924 125.505 114.722 125.868 114.43 126.18C114.142 126.488 113.779 126.728 113.341 126.901C112.907 127.07 112.412 127.154 111.855 127.154Z" fill="#1C1B1E"/>
<defs>
<filter id="filter0_d_825_500" x="0" y="0" width="224" height="100" filterUnits="userSpaceOnUse" color-interpolation-filters="sRGB">
<feFlood flood-opacity="0" result="BackgroundImageFix"/>
<feColorMatrix in="SourceAlpha" type="matrix" values="0 0 0 0 0 0 0 0 0 0 0 0 0 0 0 0 0 0 127 0" result="hardAlpha"/>
<feOffset dy="1"/>
<feGaussianBlur stdDeviation="2"/>
<feComposite in2="hardAlpha" operator="out"/>
<feColorMatrix type="matrix" values="0 0 0 0 0 0 0 0 0 0 0 0 0 0 0 0 0 0 0.1 0"/>
<feBlend mode="normal" in2="BackgroundImageFix" result="effect1_dropShadow_825_500"/>
<feBlend mode="normal" in="SourceGraphic" in2="effect1_dropShadow_825_500" result="shape"/>
</filter>
</defs>
</svg>
