<svg width="224" height="133" viewBox="0 0 224 133" fill="none" xmlns="http://www.w3.org/2000/svg">
<g filter="url(#filter0_d_825_492)">
<rect x="4" y="3" width="216" height="92" rx="8" fill="#FFB4A9"/>
</g>
<path d="M84.1456 54L85.8161 43.8182H87.0092L85.3388 54H84.1456ZM79.5369 51.2756L79.7308 50.0824H87.4467L87.2528 51.2756H79.5369ZM80.5661 54L82.2365 43.8182H83.4297L81.7592 54H80.5661ZM80.1286 47.7358L80.3224 46.5426H88.0384L87.8445 47.7358H80.1286ZM89.8608 54V43.8182H96.1747V45.1406H91.397V48.2429H95.7223V49.5604H91.397V54H89.8608ZM98.5639 54V43.8182H104.878V45.1406H100.1V48.2429H104.425V49.5604H100.1V54H98.5639ZM107.267 54V43.8182H110.996C111.718 43.8182 112.317 43.9375 112.79 44.1761C113.264 44.4115 113.619 44.7313 113.854 45.1357C114.09 45.5367 114.207 45.9891 114.207 46.4929C114.207 46.9171 114.129 47.2751 113.974 47.5668C113.818 47.8551 113.609 48.0871 113.347 48.2628C113.089 48.4351 112.804 48.5611 112.492 48.6406V48.7401C112.83 48.7566 113.16 48.866 113.482 49.0682C113.806 49.267 114.075 49.5504 114.287 49.9183C114.499 50.2862 114.605 50.7337 114.605 51.2607C114.605 51.781 114.482 52.2483 114.237 52.6626C113.995 53.0736 113.621 53.4001 113.114 53.642C112.607 53.8807 111.959 54 111.17 54H107.267ZM108.803 52.6825H111.021C111.756 52.6825 112.283 52.54 112.602 52.255C112.92 51.9699 113.079 51.6136 113.079 51.1861C113.079 50.8646 112.998 50.5696 112.835 50.3011C112.673 50.0327 112.441 49.8189 112.139 49.6598C111.841 49.5007 111.486 49.4212 111.075 49.4212H108.803V52.6825ZM108.803 48.223H110.862C111.206 48.223 111.516 48.1567 111.791 48.0241C112.07 47.8916 112.29 47.706 112.452 47.4673C112.618 47.2254 112.701 46.9403 112.701 46.6122C112.701 46.1913 112.554 45.8383 112.259 45.5533C111.964 45.2682 111.511 45.1257 110.901 45.1257H108.803V48.223ZM116.574 52.0114V50.7685L120.974 43.8182H121.953V45.6477H121.332L118.185 50.6293V50.7088H124.216V52.0114H116.574ZM121.402 54V51.6335L121.412 51.0668V43.8182H122.868V54H121.402ZM127.447 54H125.817L129.481 43.8182H131.256L134.92 54H133.289L130.411 45.6676H130.331L127.447 54ZM127.721 50.0128H133.011V51.3054H127.721V50.0128ZM140.137 43.679C140.591 43.6823 141.038 43.7652 141.479 43.9276C141.92 44.09 142.317 44.3551 142.672 44.723C143.03 45.0909 143.315 45.5881 143.527 46.2145C143.743 46.8376 143.852 47.6132 143.855 48.5412C143.855 49.4328 143.766 50.2266 143.587 50.9226C143.408 51.6153 143.151 52.2003 142.816 52.6776C142.485 53.1548 142.082 53.5178 141.608 53.7663C141.134 54.0149 140.601 54.1392 140.007 54.1392C139.401 54.1392 138.862 54.0199 138.392 53.7812C137.921 53.5426 137.538 53.2128 137.243 52.7919C136.948 52.3677 136.764 51.8804 136.691 51.3303H138.208C138.307 51.7678 138.509 52.1224 138.814 52.3942C139.122 52.6626 139.52 52.7969 140.007 52.7969C140.753 52.7969 141.335 52.4721 141.752 51.8224C142.17 51.1695 142.38 50.258 142.384 49.0881H142.304C142.132 49.3731 141.916 49.6184 141.658 49.8239C141.403 50.0294 141.116 50.1884 140.798 50.3011C140.48 50.4138 140.14 50.4702 139.779 50.4702C139.192 50.4702 138.658 50.326 138.178 50.0376C137.697 49.7493 137.314 49.3532 137.029 48.8494C136.744 48.3456 136.602 47.7706 136.602 47.1243C136.602 46.4813 136.748 45.898 137.039 45.3743C137.334 44.8506 137.745 44.4363 138.272 44.1314C138.802 43.8232 139.424 43.6723 140.137 43.679ZM140.142 44.9716C139.754 44.9716 139.404 45.0677 139.093 45.2599C138.784 45.4489 138.541 45.7057 138.362 46.0305C138.183 46.352 138.093 46.71 138.093 47.1044C138.093 47.4988 138.179 47.8568 138.352 48.1783C138.527 48.4964 138.766 48.75 139.068 48.9389C139.373 49.1245 139.721 49.2173 140.112 49.2173C140.403 49.2173 140.675 49.161 140.927 49.0483C141.179 48.9356 141.399 48.7798 141.588 48.581C141.777 48.3788 141.925 48.1501 142.031 47.8949C142.137 47.6397 142.19 47.3712 142.19 47.0895C142.19 46.715 142.1 46.367 141.921 46.0455C141.746 45.724 141.504 45.4654 141.195 45.2699C140.887 45.071 140.536 44.9716 140.142 44.9716Z" fill="#1C1B1E"/>
<path d="M5.11861 127V116.818H11.5021V118.141H6.65483V121.243H11.169V122.56H6.65483V125.678H11.5618V127H5.11861ZM13.9348 127V119.364H15.3716V120.577H15.4512C15.5904 120.166 15.8356 119.843 16.187 119.607C16.5416 119.369 16.9426 119.249 17.3901 119.249C17.4829 119.249 17.5923 119.253 17.7182 119.259C17.8475 119.266 17.9486 119.274 18.0215 119.284V120.706C17.9618 120.689 17.8558 120.671 17.7033 120.651C17.5508 120.628 17.3984 120.616 17.2459 120.616C16.8946 120.616 16.5814 120.691 16.3063 120.84C16.0345 120.986 15.8191 121.19 15.66 121.452C15.5009 121.71 15.4213 122.005 15.4213 122.337V127H13.9348ZM19.8079 127V119.364H21.2447V120.577H21.3242C21.4634 120.166 21.7087 119.843 22.06 119.607C22.4147 119.369 22.8157 119.249 23.2631 119.249C23.3559 119.249 23.4653 119.253 23.5913 119.259C23.7205 119.266 23.8216 119.274 23.8945 119.284V120.706C23.8349 120.689 23.7288 120.671 23.5763 120.651C23.4239 120.628 23.2714 120.616 23.119 120.616C22.7676 120.616 22.4544 120.691 22.1793 120.84C21.9076 120.986 21.6921 121.19 21.533 121.452C21.3739 121.71 21.2944 122.005 21.2944 122.337V127H19.8079ZM28.6241 127.154C27.9082 127.154 27.2834 126.99 26.7498 126.662C26.2162 126.334 25.8019 125.875 25.5069 125.285C25.2119 124.695 25.0645 124.005 25.0645 123.217C25.0645 122.424 25.2119 121.732 25.5069 121.138C25.8019 120.545 26.2162 120.085 26.7498 119.756C27.2834 119.428 27.9082 119.264 28.6241 119.264C29.34 119.264 29.9648 119.428 30.4984 119.756C31.032 120.085 31.4463 120.545 31.7413 121.138C32.0363 121.732 32.1838 122.424 32.1838 123.217C32.1838 124.005 32.0363 124.695 31.7413 125.285C31.4463 125.875 31.032 126.334 30.4984 126.662C29.9648 126.99 29.34 127.154 28.6241 127.154ZM28.6291 125.906C29.0931 125.906 29.4776 125.784 29.7825 125.538C30.0874 125.293 30.3128 124.967 30.4586 124.559C30.6078 124.151 30.6824 123.702 30.6824 123.212C30.6824 122.724 30.6078 122.277 30.4586 121.869C30.3128 121.458 30.0874 121.129 29.7825 120.88C29.4776 120.631 29.0931 120.507 28.6291 120.507C28.1618 120.507 27.774 120.631 27.4657 120.88C27.1608 121.129 26.9338 121.458 26.7846 121.869C26.6388 122.277 26.5659 122.724 26.5659 123.212C26.5659 123.702 26.6388 124.151 26.7846 124.559C26.9338 124.967 27.1608 125.293 27.4657 125.538C27.774 125.784 28.1618 125.906 28.6291 125.906ZM34.343 127V119.364H35.7798V120.577H35.8594C35.9986 120.166 36.2438 119.843 36.5952 119.607C36.9498 119.369 37.3509 119.249 37.7983 119.249C37.8911 119.249 38.0005 119.253 38.1264 119.259C38.2557 119.266 38.3568 119.274 38.4297 119.284V120.706C38.37 120.689 38.264 120.671 38.1115 120.651C37.959 120.628 37.8066 120.616 37.6541 120.616C37.3028 120.616 36.9896 120.691 36.7145 120.84C36.4427 120.986 36.2273 121.19 36.0682 121.452C35.9091 121.71 35.8295 122.005 35.8295 122.337V127H34.343Z" fill="#1C1B1E"/>
<defs>
<filter id="filter0_d_825_492" x="0" y="0" width="224" height="100" filterUnits="userSpaceOnUse" color-interpolation-filters="sRGB">
<feFlood flood-opacity="0" result="BackgroundImageFix"/>
<feColorMatrix in="SourceAlpha" type="matrix" values="0 0 0 0 0 0 0 0 0 0 0 0 0 0 0 0 0 0 127 0" result="hardAlpha"/>
<feOffset dy="1"/>
<feGaussianBlur stdDeviation="2"/>
<feComposite in2="hardAlpha" operator="out"/>
<feColorMatrix type="matrix" values="0 0 0 0 0 0 0 0 0 0 0 0 0 0 0 0 0 0 0.1 0"/>
<feBlend mode="normal" in2="BackgroundImageFix" result="effect1_dropShadow_825_492"/>
<feBlend mode="normal" in="SourceGraphic" in2="effect1_dropShadow_825_492" result="shape"/>
</filter>
</defs>
</svg>
