<svg width="224" height="133" viewBox="0 0 224 133" fill="none" xmlns="http://www.w3.org/2000/svg">
<g filter="url(#filter0_d_825_511)">
<rect x="4" y="3" width="216" height="92" rx="8" fill="#E6E1E6"/>
</g>
<path d="M85.9981 54L87.6686 43.8182H88.8618L87.1913 54H85.9981ZM81.3895 51.2756L81.5834 50.0824H89.2993L89.1054 51.2756H81.3895ZM82.4186 54L84.089 43.8182H85.2822L83.6118 54H82.4186ZM81.9811 47.7358L82.175 46.5426H89.8909L89.697 47.7358H81.9811ZM91.7133 54V43.8182H98.0969V45.1406H93.2496V48.2429H97.7638V49.5604H93.2496V52.6776H98.1565V54H91.7133ZM104.064 54.1392C103.61 54.1326 103.163 54.0497 102.722 53.8906C102.285 53.7315 101.887 53.4664 101.529 53.0952C101.171 52.724 100.884 52.2251 100.669 51.5987C100.457 50.9723 100.351 50.1901 100.351 49.2521C100.351 48.3639 100.438 47.575 100.614 46.8857C100.793 46.1963 101.05 45.6146 101.385 45.1406C101.719 44.6634 102.124 44.3004 102.598 44.0518C103.072 43.8033 103.604 43.679 104.194 43.679C104.8 43.679 105.339 43.7983 105.809 44.0369C106.28 44.2756 106.661 44.6054 106.953 45.0263C107.248 45.4472 107.435 45.9261 107.515 46.4631H105.998C105.896 46.0388 105.692 45.6925 105.387 45.424C105.082 45.1555 104.684 45.0213 104.194 45.0213C103.448 45.0213 102.866 45.3461 102.449 45.9957C102.034 46.6454 101.825 47.5485 101.822 48.7053H101.897C102.072 48.4169 102.288 48.1716 102.543 47.9695C102.802 47.764 103.09 47.6065 103.408 47.4972C103.73 47.3845 104.068 47.3281 104.422 47.3281C105.012 47.3281 105.546 47.4723 106.023 47.7607C106.504 48.0457 106.887 48.4401 107.172 48.9439C107.457 49.4477 107.599 50.0244 107.599 50.674C107.599 51.3236 107.452 51.9119 107.157 52.4389C106.865 52.9659 106.454 53.3835 105.924 53.6918C105.393 53.9967 104.774 54.1458 104.064 54.1392ZM104.059 52.8466C104.45 52.8466 104.8 52.7505 105.108 52.5582C105.417 52.366 105.66 52.1075 105.839 51.7827C106.018 51.4579 106.108 51.0949 106.108 50.6939C106.108 50.3028 106.02 49.9465 105.844 49.625C105.672 49.3035 105.433 49.0483 105.128 48.8594C104.827 48.6705 104.482 48.576 104.094 48.576C103.799 48.576 103.526 48.6323 103.274 48.745C103.025 48.8577 102.807 49.0135 102.618 49.2124C102.429 49.4112 102.28 49.6399 102.17 49.8984C102.064 50.1536 102.011 50.4238 102.011 50.7088C102.011 51.09 102.099 51.4429 102.275 51.7678C102.454 52.0926 102.697 52.3544 103.005 52.5533C103.317 52.7488 103.668 52.8466 104.059 52.8466ZM110.049 54V43.8182H116.433V45.1406H111.585V48.2429H116.1V49.5604H111.585V52.6776H116.492V54H110.049ZM122.709 43.8182V54H121.167V45.3594H121.108L118.672 46.9503V45.4787L121.212 43.8182H122.709ZM126.102 54V43.8182H132.486V45.1406H127.638V48.2429H132.152V49.5604H127.638V52.6776H132.545V54H126.102ZM138.453 54.1392C137.999 54.1326 137.552 54.0497 137.111 53.8906C136.673 53.7315 136.275 53.4664 135.918 53.0952C135.56 52.724 135.273 52.2251 135.057 51.5987C134.845 50.9723 134.739 50.1901 134.739 49.2521C134.739 48.3639 134.827 47.575 135.003 46.8857C135.182 46.1963 135.439 45.6146 135.773 45.1406C136.108 44.6634 136.512 44.3004 136.986 44.0518C137.46 43.8033 137.992 43.679 138.582 43.679C139.189 43.679 139.727 43.7983 140.198 44.0369C140.669 44.2756 141.05 44.6054 141.342 45.0263C141.637 45.4472 141.824 45.9261 141.903 46.4631H140.387C140.284 46.0388 140.08 45.6925 139.775 45.424C139.471 45.1555 139.073 45.0213 138.582 45.0213C137.837 45.0213 137.255 45.3461 136.837 45.9957C136.423 46.6454 136.214 47.5485 136.211 48.7053H136.285C136.461 48.4169 136.677 48.1716 136.932 47.9695C137.19 47.764 137.479 47.6065 137.797 47.4972C138.118 47.3845 138.456 47.3281 138.811 47.3281C139.401 47.3281 139.935 47.4723 140.412 47.7607C140.892 48.0457 141.275 48.4401 141.56 48.9439C141.845 49.4477 141.988 50.0244 141.988 50.674C141.988 51.3236 141.84 51.9119 141.545 52.4389C141.254 52.9659 140.843 53.3835 140.312 53.6918C139.782 53.9967 139.162 54.1458 138.453 54.1392ZM138.448 52.8466C138.839 52.8466 139.189 52.7505 139.497 52.5582C139.805 52.366 140.049 52.1075 140.228 51.7827C140.407 51.4579 140.496 51.0949 140.496 50.6939C140.496 50.3028 140.409 49.9465 140.233 49.625C140.061 49.3035 139.822 49.0483 139.517 48.8594C139.215 48.6705 138.871 48.576 138.483 48.576C138.188 48.576 137.914 48.6323 137.663 48.745C137.414 48.8577 137.195 49.0135 137.006 49.2124C136.817 49.4112 136.668 49.6399 136.559 49.8984C136.453 50.1536 136.4 50.4238 136.4 50.7088C136.4 51.09 136.488 51.4429 136.663 51.7678C136.842 52.0926 137.086 52.3544 137.394 52.5533C137.706 52.7488 138.057 52.8466 138.448 52.8466Z" fill="#1C1B1E"/>
<path d="M13.9631 121.909C13.9631 122.996 13.7642 123.931 13.3665 124.713C12.9688 125.492 12.4235 126.092 11.7308 126.513C11.0414 126.93 10.2576 127.139 9.37926 127.139C8.49763 127.139 7.71046 126.93 7.01776 126.513C6.32836 126.092 5.7848 125.49 5.38707 124.708C4.98935 123.926 4.79048 122.993 4.79048 121.909C4.79048 120.822 4.98935 119.889 5.38707 119.11C5.7848 118.328 6.32836 117.728 7.01776 117.31C7.71046 116.889 8.49763 116.679 9.37926 116.679C10.2576 116.679 11.0414 116.889 11.7308 117.31C12.4235 117.728 12.9688 118.328 13.3665 119.11C13.7642 119.889 13.9631 120.822 13.9631 121.909ZM12.4418 121.909C12.4418 121.08 12.3075 120.383 12.0391 119.816C11.7739 119.246 11.4093 118.815 10.9453 118.523C10.4846 118.228 9.96259 118.081 9.37926 118.081C8.79261 118.081 8.26894 118.228 7.80824 118.523C7.34754 118.815 6.98295 119.246 6.71449 119.816C6.44934 120.383 6.31676 121.08 6.31676 121.909C6.31676 122.738 6.44934 123.437 6.71449 124.007C6.98295 124.574 7.34754 125.005 7.80824 125.3C8.26894 125.591 8.79261 125.737 9.37926 125.737C9.96259 125.737 10.4846 125.591 10.9453 125.3C11.4093 125.005 11.7739 124.574 12.0391 124.007C12.3075 123.437 12.4418 122.738 12.4418 121.909ZM17.7456 122.466V127H16.2591V119.364H17.6859V120.607H17.7804C17.956 120.202 18.2311 119.877 18.6056 119.632C18.9835 119.387 19.4591 119.264 20.0325 119.264C20.5529 119.264 21.0086 119.374 21.3997 119.592C21.7908 119.808 22.094 120.129 22.3095 120.557C22.5249 120.984 22.6326 121.513 22.6326 122.143V127H21.1461V122.322C21.1461 121.768 21.002 121.336 20.7136 121.024C20.4252 120.709 20.0292 120.552 19.5254 120.552C19.1807 120.552 18.8741 120.626 18.6056 120.776C18.3405 120.925 18.13 121.143 17.9743 121.432C17.8218 121.717 17.7456 122.062 17.7456 122.466ZM35.0039 119.493C34.9509 119.022 34.7321 118.658 34.3477 118.399C33.9632 118.137 33.4793 118.006 32.896 118.006C32.4783 118.006 32.1171 118.073 31.8121 118.205C31.5072 118.335 31.2702 118.513 31.1012 118.742C30.9355 118.968 30.8526 119.224 30.8526 119.513C30.8526 119.755 30.909 119.964 31.0217 120.139C31.1377 120.315 31.2885 120.462 31.4741 120.582C31.663 120.698 31.8652 120.795 32.0806 120.875C32.296 120.951 32.5032 121.014 32.7021 121.064L33.6964 121.322C34.0212 121.402 34.3543 121.51 34.6957 121.646C35.0371 121.781 35.3536 121.96 35.6452 122.183C35.9369 122.405 36.1722 122.68 36.3512 123.008C36.5335 123.336 36.6246 123.729 36.6246 124.186C36.6246 124.763 36.4755 125.275 36.1772 125.722C35.8822 126.17 35.453 126.523 34.8896 126.781C34.3294 127.04 33.6516 127.169 32.8562 127.169C32.0939 127.169 31.4343 127.048 30.8775 126.806C30.3207 126.564 29.8848 126.221 29.57 125.777C29.2551 125.33 29.0811 124.799 29.0479 124.186H30.5891C30.619 124.554 30.7383 124.861 30.9471 125.106C31.1592 125.348 31.4293 125.528 31.7575 125.648C32.0889 125.764 32.4518 125.822 32.8462 125.822C33.2804 125.822 33.6665 125.754 34.0046 125.618C34.346 125.479 34.6145 125.286 34.81 125.041C35.0056 124.793 35.1033 124.503 35.1033 124.171C35.1033 123.87 35.0172 123.623 34.8448 123.43C34.6758 123.238 34.4454 123.079 34.1538 122.953C33.8654 122.827 33.5389 122.716 33.1744 122.62L31.9712 122.292C31.1559 122.07 30.5096 121.743 30.0323 121.312C29.5584 120.882 29.3214 120.312 29.3214 119.602C29.3214 119.016 29.4805 118.504 29.7987 118.066C30.1168 117.629 30.5477 117.289 31.0913 117.047C31.6348 116.802 32.248 116.679 32.9308 116.679C33.6201 116.679 34.2283 116.8 34.7553 117.042C35.2856 117.284 35.7032 117.617 36.0082 118.041C36.3131 118.462 36.4722 118.946 36.4854 119.493H35.0039ZM43.6784 123.833V119.364H45.1699V127H43.7083V125.678H43.6287C43.4531 126.085 43.1713 126.425 42.7836 126.697C42.3991 126.965 41.9202 127.099 41.3468 127.099C40.8562 127.099 40.4221 126.992 40.0442 126.776C39.6697 126.558 39.3747 126.234 39.1593 125.807C38.9471 125.379 38.8411 124.851 38.8411 124.221V119.364H40.3276V124.042C40.3276 124.562 40.4718 124.977 40.7601 125.285C41.0485 125.593 41.423 125.747 41.8837 125.747C42.1621 125.747 42.4389 125.678 42.714 125.538C42.9924 125.399 43.2227 125.189 43.405 124.907C43.5906 124.625 43.6818 124.267 43.6784 123.833ZM47.6673 127V119.364H49.104V120.577H49.1836C49.3228 120.166 49.5681 119.843 49.9194 119.607C50.274 119.369 50.6751 119.249 51.1225 119.249C51.2153 119.249 51.3247 119.253 51.4506 119.259C51.5799 119.266 51.681 119.274 51.7539 119.284V120.706C51.6942 120.689 51.5882 120.671 51.4357 120.651C51.2833 120.628 51.1308 120.616 50.9783 120.616C50.627 120.616 50.3138 120.691 50.0387 120.84C49.7669 120.986 49.5515 121.19 49.3924 121.452C49.2333 121.71 49.1538 122.005 49.1538 122.337V127H47.6673ZM57.6257 119.364V120.557H53.3104V119.364H57.6257ZM54.4936 127V118.479C54.4936 118.001 54.598 117.605 54.8068 117.29C55.0156 116.972 55.2924 116.735 55.6371 116.58C55.9818 116.42 56.3563 116.341 56.7607 116.341C57.0589 116.341 57.3142 116.366 57.5263 116.415C57.7384 116.462 57.8958 116.505 57.9986 116.545L57.6506 117.748C57.581 117.728 57.4915 117.705 57.3821 117.678C57.2727 117.648 57.1402 117.634 56.9844 117.634C56.6231 117.634 56.3646 117.723 56.2088 117.902C56.0563 118.081 55.9801 118.339 55.9801 118.678V127H54.4936ZM61.6493 127.169C61.1654 127.169 60.7279 127.08 60.3368 126.901C59.9457 126.718 59.6358 126.455 59.4071 126.11C59.1818 125.765 59.0691 125.343 59.0691 124.842C59.0691 124.411 59.1519 124.057 59.3176 123.778C59.4834 123.5 59.7071 123.28 59.9888 123.117C60.2705 122.955 60.5854 122.832 60.9334 122.749C61.2814 122.666 61.6361 122.603 61.9973 122.56C62.4547 122.507 62.8259 122.464 63.111 122.431C63.396 122.395 63.6032 122.337 63.7324 122.257C63.8617 122.178 63.9263 122.048 63.9263 121.869V121.835C63.9263 121.4 63.8037 121.064 63.5584 120.825C63.3165 120.587 62.9552 120.467 62.4746 120.467C61.9741 120.467 61.5797 120.578 61.2914 120.8C61.0063 121.019 60.8091 121.263 60.6998 121.531L59.3027 121.213C59.4685 120.749 59.7104 120.375 60.0286 120.089C60.3501 119.801 60.7196 119.592 61.1373 119.463C61.5549 119.33 61.994 119.264 62.4547 119.264C62.7596 119.264 63.0828 119.301 63.4242 119.374C63.7689 119.443 64.0904 119.572 64.3887 119.761C64.6903 119.95 64.9372 120.22 65.1294 120.572C65.3217 120.92 65.4178 121.372 65.4178 121.929V127H63.9661V125.956H63.9064C63.8103 126.148 63.6661 126.337 63.4739 126.523C63.2817 126.708 63.0347 126.862 62.7331 126.985C62.4315 127.108 62.0703 127.169 61.6493 127.169ZM61.9725 125.976C62.3835 125.976 62.7348 125.895 63.0265 125.732C63.3214 125.57 63.5452 125.358 63.6976 125.096C63.8534 124.831 63.9313 124.547 63.9313 124.246V123.261C63.8783 123.314 63.7755 123.364 63.623 123.411C63.4739 123.454 63.3032 123.492 63.111 123.525C62.9187 123.555 62.7315 123.583 62.5492 123.609C62.3669 123.633 62.2144 123.652 62.0918 123.669C61.8034 123.705 61.54 123.767 61.3013 123.853C61.066 123.939 60.8771 124.063 60.7346 124.226C60.5953 124.385 60.5257 124.597 60.5257 124.862C60.5257 125.23 60.6616 125.509 60.9334 125.697C61.2052 125.883 61.5516 125.976 61.9725 125.976ZM71.1143 127.154C70.3752 127.154 69.7389 126.987 69.2053 126.652C68.675 126.314 68.2673 125.848 67.9822 125.255C67.6972 124.662 67.5547 123.982 67.5547 123.217C67.5547 122.441 67.7005 121.757 67.9922 121.163C68.2839 120.567 68.6948 120.101 69.2251 119.766C69.7554 119.432 70.3802 119.264 71.0994 119.264C71.6795 119.264 72.1965 119.372 72.6506 119.587C73.1046 119.799 73.4709 120.098 73.7493 120.482C74.031 120.867 74.1984 121.316 74.2514 121.83H72.8047C72.7251 121.472 72.5429 121.163 72.2578 120.905C71.9761 120.646 71.5982 120.517 71.1243 120.517C70.71 120.517 70.3471 120.626 70.0355 120.845C69.7273 121.061 69.487 121.369 69.3146 121.77C69.1423 122.168 69.0561 122.638 69.0561 123.182C69.0561 123.739 69.1406 124.219 69.3097 124.624C69.4787 125.028 69.7173 125.341 70.0256 125.563C70.3371 125.785 70.7034 125.896 71.1243 125.896C71.406 125.896 71.6612 125.845 71.8899 125.742C72.1219 125.636 72.3158 125.485 72.4716 125.29C72.6307 125.094 72.7417 124.859 72.8047 124.584H74.2514C74.1984 125.078 74.0376 125.518 73.7692 125.906C73.5007 126.294 73.1411 126.599 72.6903 126.821C72.2429 127.043 71.7176 127.154 71.1143 127.154ZM79.6323 127.154C78.8799 127.154 78.2319 126.993 77.6884 126.672C77.1481 126.347 76.7305 125.891 76.4355 125.305C76.1439 124.715 75.998 124.024 75.998 123.232C75.998 122.449 76.1439 121.76 76.4355 121.163C76.7305 120.567 77.1415 120.101 77.6685 119.766C78.1988 119.432 78.8186 119.264 79.5279 119.264C79.9587 119.264 80.3764 119.335 80.7807 119.478C81.1851 119.621 81.548 119.844 81.8695 120.149C82.191 120.454 82.4445 120.85 82.6301 121.337C82.8158 121.821 82.9086 122.41 82.9086 123.102V123.629H76.8382V122.516H81.4519C81.4519 122.125 81.3723 121.778 81.2132 121.477C81.0542 121.172 80.8304 120.931 80.5421 120.756C80.257 120.58 79.9223 120.492 79.5378 120.492C79.1202 120.492 78.7556 120.595 78.4441 120.8C78.1358 121.003 77.8972 121.268 77.7282 121.596C77.5624 121.921 77.4796 122.274 77.4796 122.655V123.525C77.4796 124.035 77.5691 124.469 77.748 124.827C77.9303 125.185 78.1839 125.459 78.5087 125.648C78.8335 125.833 79.213 125.926 79.6472 125.926C79.9289 125.926 80.1858 125.886 80.4178 125.807C80.6498 125.724 80.8503 125.601 81.0194 125.439C81.1884 125.277 81.3176 125.076 81.4071 124.837L82.8141 125.091C82.7014 125.505 82.4992 125.868 82.2076 126.18C81.9192 126.488 81.5563 126.728 81.1188 126.901C80.6846 127.07 80.1891 127.154 79.6323 127.154Z" fill="#1C1B1E"/>
<defs>
<filter id="filter0_d_825_511" x="0" y="0" width="224" height="100" filterUnits="userSpaceOnUse" color-interpolation-filters="sRGB">
<feFlood flood-opacity="0" result="BackgroundImageFix"/>
<feColorMatrix in="SourceAlpha" type="matrix" values="0 0 0 0 0 0 0 0 0 0 0 0 0 0 0 0 0 0 127 0" result="hardAlpha"/>
<feOffset dy="1"/>
<feGaussianBlur stdDeviation="2"/>
<feComposite in2="hardAlpha" operator="out"/>
<feColorMatrix type="matrix" values="0 0 0 0 0 0 0 0 0 0 0 0 0 0 0 0 0 0 0.1 0"/>
<feBlend mode="normal" in2="BackgroundImageFix" result="effect1_dropShadow_825_511"/>
<feBlend mode="normal" in="SourceGraphic" in2="effect1_dropShadow_825_511" result="shape"/>
</filter>
</defs>
</svg>
