<svg width="224" height="133" viewBox="0 0 224 133" fill="none" xmlns="http://www.w3.org/2000/svg">
<g filter="url(#filter0_d_825_504)">
<rect x="4" y="3" width="216" height="92" rx="8" fill="#930006"/>
</g>
<path d="M83.8927 54L85.5631 43.8182H86.7563L85.0858 54H83.8927ZM79.284 51.2756L79.4779 50.0824H87.1938L86.9999 51.2756H79.284ZM80.3131 54L81.9836 43.8182H83.1768L81.5063 54H80.3131ZM79.8756 47.7358L80.0695 46.5426H87.7854L87.5915 47.7358H79.8756ZM92.8543 43.679C93.3084 43.6823 93.7558 43.7652 94.1966 43.9276C94.6375 44.09 95.0352 44.3551 95.3898 44.723C95.7478 45.0909 96.0328 45.5881 96.2449 46.2145C96.4604 46.8376 96.5698 47.6132 96.5731 48.5412C96.5731 49.4328 96.4836 50.2266 96.3046 50.9226C96.1256 51.6153 95.8688 52.2003 95.534 52.6776C95.2026 53.1548 94.7999 53.5178 94.3259 53.7663C93.8519 54.0149 93.3183 54.1392 92.7251 54.1392C92.1185 54.1392 91.5799 54.0199 91.1093 53.7812C90.6386 53.5426 90.2558 53.2128 89.9608 52.7919C89.6659 52.3677 89.4819 51.8804 89.409 51.3303H90.9253C91.0248 51.7678 91.2269 52.1224 91.5319 52.3942C91.8401 52.6626 92.2378 52.7969 92.7251 52.7969C93.4708 52.7969 94.0525 52.4721 94.4701 51.8224C94.8877 51.1695 95.0982 50.258 95.1015 49.0881H95.0219C94.8496 49.3731 94.6341 49.6184 94.3756 49.8239C94.1204 50.0294 93.8337 50.1884 93.5155 50.3011C93.1974 50.4138 92.8576 50.4702 92.4964 50.4702C91.9097 50.4702 91.3761 50.326 90.8955 50.0376C90.4149 49.7493 90.0321 49.3532 89.7471 48.8494C89.462 48.3456 89.3195 47.7706 89.3195 47.1243C89.3195 46.4813 89.4653 45.898 89.757 45.3743C90.052 44.8506 90.463 44.4363 90.99 44.1314C91.5203 43.8232 92.1417 43.6723 92.8543 43.679ZM92.8593 44.9716C92.4715 44.9716 92.1218 45.0677 91.8103 45.2599C91.502 45.4489 91.2584 45.7057 91.0795 46.0305C90.9005 46.352 90.811 46.71 90.811 47.1044C90.811 47.4988 90.8972 47.8568 91.0695 48.1783C91.2452 48.4964 91.4838 48.75 91.7854 48.9389C92.0903 49.1245 92.4384 49.2173 92.8295 49.2173C93.1211 49.2173 93.3929 49.161 93.6448 49.0483C93.8967 48.9356 94.1171 48.7798 94.306 48.581C94.4949 48.3788 94.6424 48.1501 94.7485 47.8949C94.8546 47.6397 94.9076 47.3712 94.9076 47.0895C94.9076 46.715 94.8181 46.367 94.6391 46.0455C94.4635 45.724 94.2215 45.4654 93.9133 45.2699C93.605 45.071 93.2537 44.9716 92.8593 44.9716ZM102.414 54.1392C101.731 54.1392 101.121 54.0215 100.584 53.7862C100.051 53.5509 99.628 53.2244 99.3165 52.8068C99.0083 52.3859 98.8425 51.8987 98.8193 51.3452H100.38C100.4 51.6468 100.501 51.9086 100.684 52.1307C100.869 52.3494 101.111 52.5185 101.41 52.6378C101.708 52.7571 102.039 52.8168 102.404 52.8168C102.805 52.8168 103.16 52.7472 103.468 52.608C103.779 52.4687 104.023 52.2749 104.199 52.0263C104.374 51.7744 104.462 51.4844 104.462 51.1562C104.462 50.8149 104.374 50.5149 104.199 50.2564C104.026 49.9946 103.773 49.7891 103.438 49.6399C103.107 49.4908 102.705 49.4162 102.235 49.4162H101.375V48.1634H102.235C102.613 48.1634 102.944 48.0954 103.229 47.9595C103.517 47.8236 103.743 47.6347 103.905 47.3928C104.068 47.1475 104.149 46.8608 104.149 46.5327C104.149 46.2178 104.078 45.9444 103.935 45.7124C103.796 45.477 103.597 45.2931 103.339 45.1605C103.083 45.0279 102.782 44.9616 102.434 44.9616C102.102 44.9616 101.792 45.023 101.504 45.1456C101.219 45.2649 100.987 45.4373 100.808 45.6626C100.629 45.8847 100.533 46.1515 100.52 46.4631H99.0331C99.0497 45.9129 99.2121 45.429 99.5203 45.0114C99.8319 44.5937 100.243 44.2673 100.753 44.032C101.264 43.7966 101.83 43.679 102.454 43.679C103.107 43.679 103.67 43.8066 104.144 44.0618C104.621 44.3137 104.989 44.6501 105.248 45.071C105.509 45.492 105.639 45.9527 105.635 46.4531C105.639 47.0232 105.48 47.5071 105.158 47.9048C104.84 48.3026 104.416 48.5694 103.885 48.7053V48.7848C104.562 48.8875 105.085 49.156 105.456 49.5902C105.831 50.0244 106.017 50.563 106.013 51.206C106.017 51.7661 105.861 52.2682 105.546 52.7124C105.234 53.1565 104.808 53.5062 104.268 53.7614C103.728 54.0133 103.11 54.1392 102.414 54.1392ZM111.937 54.169C111.152 54.1657 110.481 53.9586 109.924 53.5476C109.367 53.1366 108.941 52.5384 108.646 51.7528C108.351 50.9673 108.204 50.0211 108.204 48.9141C108.204 47.8104 108.351 46.8674 108.646 46.0852C108.944 45.303 109.372 44.7064 109.929 44.2955C110.489 43.8845 111.158 43.679 111.937 43.679C112.716 43.679 113.384 43.8861 113.941 44.3004C114.498 44.7114 114.924 45.308 115.218 46.0902C115.517 46.8691 115.666 47.8104 115.666 48.9141C115.666 50.0244 115.518 50.9723 115.223 51.7578C114.928 52.54 114.503 53.1383 113.946 53.5526C113.389 53.9635 112.719 54.169 111.937 54.169ZM111.937 52.8416C112.627 52.8416 113.165 52.5052 113.553 51.8324C113.944 51.1596 114.14 50.1868 114.14 48.9141C114.14 48.0689 114.05 47.3546 113.871 46.7713C113.696 46.1847 113.442 45.7405 113.111 45.4389C112.782 45.134 112.391 44.9815 111.937 44.9815C111.251 44.9815 110.713 45.3196 110.321 45.9957C109.93 46.6719 109.733 47.6446 109.73 48.9141C109.73 49.7625 109.818 50.4801 109.993 51.0668C110.172 51.6501 110.426 52.0926 110.754 52.3942C111.082 52.6925 111.477 52.8416 111.937 52.8416ZM121.474 54.169C120.689 54.1657 120.018 53.9586 119.461 53.5476C118.904 53.1366 118.478 52.5384 118.183 51.7528C117.888 50.9673 117.741 50.0211 117.741 48.9141C117.741 47.8104 117.888 46.8674 118.183 46.0852C118.481 45.303 118.909 44.7064 119.466 44.2955C120.026 43.8845 120.695 43.679 121.474 43.679C122.253 43.679 122.921 43.8861 123.478 44.3004C124.035 44.7114 124.461 45.308 124.756 46.0902C125.054 46.8691 125.203 47.8104 125.203 48.9141C125.203 50.0244 125.056 50.9723 124.761 51.7578C124.466 52.54 124.04 53.1383 123.483 53.5526C122.926 53.9635 122.257 54.169 121.474 54.169ZM121.474 52.8416C122.164 52.8416 122.702 52.5052 123.09 51.8324C123.481 51.1596 123.677 50.1868 123.677 48.9141C123.677 48.0689 123.587 47.3546 123.408 46.7713C123.233 46.1847 122.979 45.7405 122.648 45.4389C122.32 45.134 121.928 44.9815 121.474 44.9815C120.788 44.9815 120.25 45.3196 119.859 45.9957C119.467 46.6719 119.27 47.6446 119.267 48.9141C119.267 49.7625 119.355 50.4801 119.53 51.0668C119.709 51.6501 119.963 52.0926 120.291 52.3942C120.619 52.6925 121.014 52.8416 121.474 52.8416ZM131.011 54.169C130.226 54.1657 129.555 53.9586 128.998 53.5476C128.441 53.1366 128.015 52.5384 127.72 51.7528C127.425 50.9673 127.278 50.0211 127.278 48.9141C127.278 47.8104 127.425 46.8674 127.72 46.0852C128.019 45.303 128.446 44.7064 129.003 44.2955C129.563 43.8845 130.233 43.679 131.011 43.679C131.79 43.679 132.458 43.8861 133.015 44.3004C133.572 44.7114 133.998 45.308 134.293 46.0902C134.591 46.8691 134.74 47.8104 134.74 48.9141C134.74 50.0244 134.593 50.9723 134.298 51.7578C134.003 52.54 133.577 53.1383 133.02 53.5526C132.463 53.9635 131.794 54.169 131.011 54.169ZM131.011 52.8416C131.701 52.8416 132.239 52.5052 132.627 51.8324C133.018 51.1596 133.214 50.1868 133.214 48.9141C133.214 48.0689 133.124 47.3546 132.945 46.7713C132.77 46.1847 132.516 45.7405 132.185 45.4389C131.857 45.134 131.466 44.9815 131.011 44.9815C130.325 44.9815 129.787 45.3196 129.396 45.9957C129.005 46.6719 128.807 47.6446 128.804 48.9141C128.804 49.7625 128.892 50.4801 129.068 51.0668C129.247 51.6501 129.5 52.0926 129.828 52.3942C130.156 52.6925 130.551 52.8416 131.011 52.8416ZM140.559 54.1392C140.104 54.1326 139.657 54.0497 139.216 53.8906C138.779 53.7315 138.381 53.4664 138.023 53.0952C137.665 52.724 137.378 52.2251 137.163 51.5987C136.951 50.9723 136.845 50.1901 136.845 49.2521C136.845 48.3639 136.933 47.575 137.108 46.8857C137.287 46.1963 137.544 45.6146 137.879 45.1406C138.214 44.6634 138.618 44.3004 139.092 44.0518C139.566 43.8033 140.098 43.679 140.688 43.679C141.294 43.679 141.833 43.7983 142.304 44.0369C142.774 44.2756 143.155 44.6054 143.447 45.0263C143.742 45.4472 143.929 45.9261 144.009 46.4631H142.492C142.39 46.0388 142.186 45.6925 141.881 45.424C141.576 45.1555 141.178 45.0213 140.688 45.0213C139.942 45.0213 139.36 45.3461 138.943 45.9957C138.528 46.6454 138.32 47.5485 138.316 48.7053H138.391C138.567 48.4169 138.782 48.1716 139.037 47.9695C139.296 47.764 139.584 47.6065 139.902 47.4972C140.224 47.3845 140.562 47.3281 140.916 47.3281C141.506 47.3281 142.04 47.4723 142.517 47.7607C142.998 48.0457 143.381 48.4401 143.666 48.9439C143.951 49.4477 144.093 50.0244 144.093 50.674C144.093 51.3236 143.946 51.9119 143.651 52.4389C143.359 52.9659 142.948 53.3835 142.418 53.6918C141.888 53.9967 141.268 54.1458 140.559 54.1392ZM140.554 52.8466C140.945 52.8466 141.294 52.7505 141.603 52.5582C141.911 52.366 142.154 52.1075 142.333 51.7827C142.512 51.4579 142.602 51.0949 142.602 50.6939C142.602 50.3028 142.514 49.9465 142.338 49.625C142.166 49.3035 141.927 49.0483 141.622 48.8594C141.321 48.6705 140.976 48.576 140.588 48.576C140.293 48.576 140.02 48.6323 139.768 48.745C139.519 48.8577 139.301 49.0135 139.112 49.2124C138.923 49.4112 138.774 49.6399 138.664 49.8984C138.558 50.1536 138.505 50.4238 138.505 50.7088C138.505 51.09 138.593 51.4429 138.769 51.7678C138.948 52.0926 139.191 52.3544 139.5 52.5533C139.811 52.7488 140.162 52.8466 140.554 52.8466Z" fill="#E6E1E6"/>
<path d="M5.11861 127V116.818H11.5021V118.141H6.65483V121.243H11.169V122.56H6.65483V125.678H11.5618V127H5.11861ZM13.9348 127V119.364H15.3716V120.577H15.4512C15.5904 120.166 15.8356 119.843 16.187 119.607C16.5416 119.369 16.9426 119.249 17.3901 119.249C17.4829 119.249 17.5923 119.253 17.7182 119.259C17.8475 119.266 17.9486 119.274 18.0215 119.284V120.706C17.9618 120.689 17.8558 120.671 17.7033 120.651C17.5508 120.628 17.3984 120.616 17.2459 120.616C16.8946 120.616 16.5814 120.691 16.3063 120.84C16.0345 120.986 15.8191 121.19 15.66 121.452C15.5009 121.71 15.4213 122.005 15.4213 122.337V127H13.9348ZM19.8079 127V119.364H21.2447V120.577H21.3242C21.4634 120.166 21.7087 119.843 22.06 119.607C22.4147 119.369 22.8157 119.249 23.2631 119.249C23.3559 119.249 23.4653 119.253 23.5913 119.259C23.7205 119.266 23.8216 119.274 23.8945 119.284V120.706C23.8349 120.689 23.7288 120.671 23.5763 120.651C23.4239 120.628 23.2714 120.616 23.119 120.616C22.7676 120.616 22.4544 120.691 22.1793 120.84C21.9076 120.986 21.6921 121.19 21.533 121.452C21.3739 121.71 21.2944 122.005 21.2944 122.337V127H19.8079ZM28.6241 127.154C27.9082 127.154 27.2834 126.99 26.7498 126.662C26.2162 126.334 25.8019 125.875 25.5069 125.285C25.2119 124.695 25.0645 124.005 25.0645 123.217C25.0645 122.424 25.2119 121.732 25.5069 121.138C25.8019 120.545 26.2162 120.085 26.7498 119.756C27.2834 119.428 27.9082 119.264 28.6241 119.264C29.34 119.264 29.9648 119.428 30.4984 119.756C31.032 120.085 31.4463 120.545 31.7413 121.138C32.0363 121.732 32.1838 122.424 32.1838 123.217C32.1838 124.005 32.0363 124.695 31.7413 125.285C31.4463 125.875 31.032 126.334 30.4984 126.662C29.9648 126.99 29.34 127.154 28.6241 127.154ZM28.6291 125.906C29.0931 125.906 29.4776 125.784 29.7825 125.538C30.0874 125.293 30.3128 124.967 30.4586 124.559C30.6078 124.151 30.6824 123.702 30.6824 123.212C30.6824 122.724 30.6078 122.277 30.4586 121.869C30.3128 121.458 30.0874 121.129 29.7825 120.88C29.4776 120.631 29.0931 120.507 28.6291 120.507C28.1618 120.507 27.774 120.631 27.4657 120.88C27.1608 121.129 26.9338 121.458 26.7846 121.869C26.6388 122.277 26.5659 122.724 26.5659 123.212C26.5659 123.702 26.6388 124.151 26.7846 124.559C26.9338 124.967 27.1608 125.293 27.4657 125.538C27.774 125.784 28.1618 125.906 28.6291 125.906ZM34.343 127V119.364H35.7798V120.577H35.8594C35.9986 120.166 36.2438 119.843 36.5952 119.607C36.9498 119.369 37.3509 119.249 37.7983 119.249C37.8911 119.249 38.0005 119.253 38.1264 119.259C38.2557 119.266 38.3568 119.274 38.4297 119.284V120.706C38.37 120.689 38.264 120.671 38.1115 120.651C37.959 120.628 37.8066 120.616 37.6541 120.616C37.3028 120.616 36.9896 120.691 36.7145 120.84C36.4427 120.986 36.2273 121.19 36.0682 121.452C35.9091 121.71 35.8295 122.005 35.8295 122.337V127H34.343ZM52.9972 120.129H51.446C51.3864 119.798 51.2753 119.506 51.1129 119.254C50.9505 119.002 50.7517 118.789 50.5163 118.613C50.281 118.437 50.0175 118.305 49.7259 118.215C49.4375 118.126 49.1309 118.081 48.8061 118.081C48.2195 118.081 47.6941 118.228 47.2301 118.523C46.7694 118.818 46.4048 119.251 46.1364 119.821C45.8712 120.391 45.7386 121.087 45.7386 121.909C45.7386 122.738 45.8712 123.437 46.1364 124.007C46.4048 124.577 46.7711 125.008 47.2351 125.3C47.6991 125.591 48.2211 125.737 48.8011 125.737C49.1226 125.737 49.4276 125.694 49.7159 125.608C50.0076 125.518 50.2711 125.388 50.5064 125.215C50.7417 125.043 50.9406 124.832 51.103 124.584C51.2687 124.332 51.383 124.044 51.446 123.719L52.9972 123.724C52.9143 124.224 52.7536 124.685 52.5149 125.106C52.2796 125.523 51.9763 125.885 51.6051 126.19C51.2372 126.491 50.8163 126.725 50.3423 126.891C49.8684 127.056 49.3513 127.139 48.7912 127.139C47.9096 127.139 47.1241 126.93 46.4347 126.513C45.7453 126.092 45.2017 125.49 44.804 124.708C44.4096 123.926 44.2124 122.993 44.2124 121.909C44.2124 120.822 44.4112 119.889 44.8089 119.11C45.2067 118.328 45.7502 117.728 46.4396 117.31C47.129 116.889 47.9129 116.679 48.7912 116.679C49.3314 116.679 49.8352 116.757 50.3026 116.913C50.7732 117.065 51.1958 117.29 51.5703 117.589C51.9448 117.884 52.2547 118.245 52.5 118.673C52.7453 119.097 52.911 119.582 52.9972 120.129ZM58.4327 127.154C57.7168 127.154 57.092 126.99 56.5584 126.662C56.0248 126.334 55.6105 125.875 55.3155 125.285C55.0205 124.695 54.873 124.005 54.873 123.217C54.873 122.424 55.0205 121.732 55.3155 121.138C55.6105 120.545 56.0248 120.085 56.5584 119.756C57.092 119.428 57.7168 119.264 58.4327 119.264C59.1486 119.264 59.7734 119.428 60.307 119.756C60.8406 120.085 61.2549 120.545 61.5499 121.138C61.8449 121.732 61.9924 122.424 61.9924 123.217C61.9924 124.005 61.8449 124.695 61.5499 125.285C61.2549 125.875 60.8406 126.334 60.307 126.662C59.7734 126.99 59.1486 127.154 58.4327 127.154ZM58.4377 125.906C58.9017 125.906 59.2862 125.784 59.5911 125.538C59.896 125.293 60.1214 124.967 60.2672 124.559C60.4164 124.151 60.4909 123.702 60.4909 123.212C60.4909 122.724 60.4164 122.277 60.2672 121.869C60.1214 121.458 59.896 121.129 59.5911 120.88C59.2862 120.631 58.9017 120.507 58.4377 120.507C57.9703 120.507 57.5826 120.631 57.2743 120.88C56.9694 121.129 56.7424 121.458 56.5932 121.869C56.4474 122.277 56.3745 122.724 56.3745 123.212C56.3745 123.702 56.4474 124.151 56.5932 124.559C56.7424 124.967 56.9694 125.293 57.2743 125.538C57.5826 125.784 57.9703 125.906 58.4377 125.906ZM65.6381 122.466V127H64.1516V119.364H65.5785V120.607H65.6729C65.8486 120.202 66.1237 119.877 66.4982 119.632C66.8761 119.387 67.3517 119.264 67.9251 119.264C68.4454 119.264 68.9012 119.374 69.2923 119.592C69.6834 119.808 69.9866 120.129 70.2021 120.557C70.4175 120.984 70.5252 121.513 70.5252 122.143V127H69.0387V122.322C69.0387 121.768 68.8945 121.336 68.6062 121.024C68.3178 120.709 67.9218 120.552 67.418 120.552C67.0733 120.552 66.7667 120.626 66.4982 120.776C66.2331 120.925 66.0226 121.143 65.8668 121.432C65.7144 121.717 65.6381 122.062 65.6381 122.466ZM76.5835 119.364V120.557H72.4123V119.364H76.5835ZM73.5309 117.534H75.0174V124.758C75.0174 125.046 75.0605 125.263 75.1467 125.409C75.2328 125.552 75.3439 125.649 75.4798 125.702C75.619 125.752 75.7698 125.777 75.9322 125.777C76.0515 125.777 76.1559 125.769 76.2454 125.752C76.3349 125.736 76.4045 125.722 76.4542 125.712L76.7227 126.94C76.6365 126.973 76.5138 127.007 76.3548 127.04C76.1957 127.076 75.9968 127.096 75.7582 127.099C75.3671 127.106 75.0025 127.036 74.6644 126.891C74.3263 126.745 74.0529 126.519 73.8441 126.214C73.6353 125.91 73.5309 125.527 73.5309 125.066V117.534ZM80.9501 127.169C80.4662 127.169 80.0287 127.08 79.6376 126.901C79.2465 126.718 78.9366 126.455 78.7079 126.11C78.4825 125.765 78.3699 125.343 78.3699 124.842C78.3699 124.411 78.4527 124.057 78.6184 123.778C78.7842 123.5 79.0079 123.28 79.2896 123.117C79.5713 122.955 79.8862 122.832 80.2342 122.749C80.5822 122.666 80.9368 122.603 81.2981 122.56C81.7555 122.507 82.1267 122.464 82.4118 122.431C82.6968 122.395 82.9039 122.337 83.0332 122.257C83.1625 122.178 83.2271 122.048 83.2271 121.869V121.835C83.2271 121.4 83.1045 121.064 82.8592 120.825C82.6172 120.587 82.256 120.467 81.7754 120.467C81.2749 120.467 80.8805 120.578 80.5922 120.8C80.3071 121.019 80.1099 121.263 80.0005 121.531L78.6035 121.213C78.7692 120.749 79.0112 120.375 79.3294 120.089C79.6509 119.801 80.0204 119.592 80.438 119.463C80.8556 119.33 81.2948 119.264 81.7555 119.264C82.0604 119.264 82.3836 119.301 82.725 119.374C83.0697 119.443 83.3912 119.572 83.6895 119.761C83.9911 119.95 84.238 120.22 84.4302 120.572C84.6225 120.92 84.7186 121.372 84.7186 121.929V127H83.2669V125.956H83.2072C83.1111 126.148 82.9669 126.337 82.7747 126.523C82.5824 126.708 82.3355 126.862 82.0339 126.985C81.7323 127.108 81.371 127.169 80.9501 127.169ZM81.2733 125.976C81.6842 125.976 82.0356 125.895 82.3272 125.732C82.6222 125.57 82.8459 125.358 82.9984 125.096C83.1542 124.831 83.2321 124.547 83.2321 124.246V123.261C83.179 123.314 83.0763 123.364 82.9238 123.411C82.7747 123.454 82.604 123.492 82.4118 123.525C82.2195 123.555 82.0323 123.583 81.85 123.609C81.6677 123.633 81.5152 123.652 81.3926 123.669C81.1042 123.705 80.8407 123.767 80.6021 123.853C80.3668 123.939 80.1779 124.063 80.0353 124.226C79.8961 124.385 79.8265 124.597 79.8265 124.862C79.8265 125.23 79.9624 125.509 80.2342 125.697C80.506 125.883 80.8523 125.976 81.2733 125.976ZM87.1985 127V119.364H88.685V127H87.1985ZM87.9492 118.185C87.6907 118.185 87.4686 118.099 87.283 117.927C87.1007 117.751 87.0096 117.542 87.0096 117.3C87.0096 117.055 87.1007 116.846 87.283 116.674C87.4686 116.498 87.6907 116.411 87.9492 116.411C88.2077 116.411 88.4281 116.498 88.6104 116.674C88.796 116.846 88.8888 117.055 88.8888 117.3C88.8888 117.542 88.796 117.751 88.6104 117.927C88.4281 118.099 88.2077 118.185 87.9492 118.185ZM92.6713 122.466V127H91.1848V119.364H92.6117V120.607H92.7061C92.8818 120.202 93.1569 119.877 93.5314 119.632C93.9093 119.387 94.3849 119.264 94.9583 119.264C95.4786 119.264 95.9344 119.374 96.3255 119.592C96.7166 119.808 97.0198 120.129 97.2353 120.557C97.4507 120.984 97.5584 121.513 97.5584 122.143V127H96.0719V122.322C96.0719 121.768 95.9277 121.336 95.6394 121.024C95.351 120.709 94.955 120.552 94.4512 120.552C94.1065 120.552 93.7999 120.626 93.5314 120.776C93.2663 120.925 93.0558 121.143 92.9 121.432C92.7476 121.717 92.6713 122.062 92.6713 122.466ZM103.343 127.154C102.591 127.154 101.943 126.993 101.399 126.672C100.859 126.347 100.441 125.891 100.146 125.305C99.8548 124.715 99.709 124.024 99.709 123.232C99.709 122.449 99.8548 121.76 100.146 121.163C100.441 120.567 100.852 120.101 101.379 119.766C101.91 119.432 102.53 119.264 103.239 119.264C103.67 119.264 104.087 119.335 104.492 119.478C104.896 119.621 105.259 119.844 105.58 120.149C105.902 120.454 106.155 120.85 106.341 121.337C106.527 121.821 106.619 122.41 106.619 123.102V123.629H100.549V122.516H105.163C105.163 122.125 105.083 121.778 104.924 121.477C104.765 121.172 104.541 120.931 104.253 120.756C103.968 120.58 103.633 120.492 103.249 120.492C102.831 120.492 102.467 120.595 102.155 120.8C101.847 121.003 101.608 121.268 101.439 121.596C101.273 121.921 101.191 122.274 101.191 122.655V123.525C101.191 124.035 101.28 124.469 101.459 124.827C101.641 125.185 101.895 125.459 102.22 125.648C102.544 125.833 102.924 125.926 103.358 125.926C103.64 125.926 103.897 125.886 104.129 125.807C104.361 125.724 104.561 125.601 104.73 125.439C104.899 125.277 105.029 125.076 105.118 124.837L106.525 125.091C106.412 125.505 106.21 125.868 105.919 126.18C105.63 126.488 105.267 126.728 104.83 126.901C104.396 127.07 103.9 127.154 103.343 127.154ZM108.769 127V119.364H110.206V120.577H110.285C110.424 120.166 110.67 119.843 111.021 119.607C111.376 119.369 111.777 119.249 112.224 119.249C112.317 119.249 112.426 119.253 112.552 119.259C112.681 119.266 112.783 119.274 112.855 119.284V120.706C112.796 120.689 112.69 120.671 112.537 120.651C112.385 120.628 112.232 120.616 112.08 120.616C111.729 120.616 111.415 120.691 111.14 120.84C110.868 120.986 110.653 121.19 110.494 121.452C110.335 121.71 110.255 122.005 110.255 122.337V127H108.769Z" fill="#1C1B1E"/>
<defs>
<filter id="filter0_d_825_504" x="0" y="0" width="224" height="100" filterUnits="userSpaceOnUse" color-interpolation-filters="sRGB">
<feFlood flood-opacity="0" result="BackgroundImageFix"/>
<feColorMatrix in="SourceAlpha" type="matrix" values="0 0 0 0 0 0 0 0 0 0 0 0 0 0 0 0 0 0 127 0" result="hardAlpha"/>
<feOffset dy="1"/>
<feGaussianBlur stdDeviation="2"/>
<feComposite in2="hardAlpha" operator="out"/>
<feColorMatrix type="matrix" values="0 0 0 0 0 0 0 0 0 0 0 0 0 0 0 0 0 0 0.1 0"/>
<feBlend mode="normal" in2="BackgroundImageFix" result="effect1_dropShadow_825_504"/>
<feBlend mode="normal" in="SourceGraphic" in2="effect1_dropShadow_825_504" result="shape"/>
</filter>
</defs>
</svg>
