<svg width="224" height="133" viewBox="0 0 224 133" fill="none" xmlns="http://www.w3.org/2000/svg">
<g filter="url(#filter0_d_825_501)">
<rect x="4" y="3" width="216" height="92" rx="8" fill="#E2C630"/>
</g>
<path d="M84.2218 54L85.8922 43.8182H87.0854L85.415 54H84.2218ZM79.6131 51.2756L79.807 50.0824H87.5229L87.329 51.2756H79.6131ZM80.6422 54L82.3127 43.8182H83.5059L81.8354 54H80.6422ZM80.2047 47.7358L80.3986 46.5426H88.1145L87.9206 47.7358H80.2047ZM89.937 54V43.8182H96.3205V45.1406H91.4732V48.2429H95.9874V49.5604H91.4732V52.6776H96.3801V54H89.937ZM98.7333 54V52.8864L102.179 49.3168C102.547 48.929 102.85 48.5893 103.088 48.2976C103.33 48.0026 103.511 47.7225 103.63 47.4574C103.75 47.1922 103.809 46.9105 103.809 46.6122C103.809 46.2741 103.73 45.9825 103.571 45.7372C103.412 45.4886 103.194 45.2981 102.919 45.1655C102.644 45.0296 102.334 44.9616 101.99 44.9616C101.625 44.9616 101.307 45.0362 101.035 45.1854C100.763 45.3345 100.555 45.545 100.409 45.8168C100.263 46.0885 100.19 46.4067 100.19 46.7713H98.7234C98.7234 46.1515 98.8659 45.6096 99.1509 45.1456C99.436 44.6816 99.8271 44.322 100.324 44.0668C100.821 43.8082 101.386 43.679 102.02 43.679C102.659 43.679 103.223 43.8066 103.71 44.0618C104.2 44.3137 104.583 44.6584 104.858 45.0959C105.133 45.5301 105.271 46.0206 105.271 46.5675C105.271 46.9453 105.2 47.3149 105.057 47.6761C104.918 48.0374 104.674 48.4401 104.326 48.8842C103.978 49.325 103.494 49.8603 102.875 50.4901L100.851 52.608V52.6825H105.435V54H98.7333ZM116.415 47.1293H114.864C114.804 46.7978 114.693 46.5062 114.531 46.2543C114.368 46.0024 114.17 45.7886 113.934 45.6129C113.699 45.4373 113.435 45.3047 113.144 45.2152C112.855 45.1257 112.549 45.081 112.224 45.081C111.637 45.081 111.112 45.2285 110.648 45.5234C110.187 45.8184 109.823 46.2509 109.554 46.821C109.289 47.3911 109.157 48.0871 109.157 48.9091C109.157 49.7377 109.289 50.437 109.554 51.0071C109.823 51.5772 110.189 52.008 110.653 52.2997C111.117 52.5914 111.639 52.7372 112.219 52.7372C112.541 52.7372 112.846 52.6941 113.134 52.608C113.426 52.5185 113.689 52.3875 113.924 52.2152C114.16 52.0429 114.359 51.8324 114.521 51.5838C114.687 51.3319 114.801 51.0436 114.864 50.7188L116.415 50.7237C116.332 51.2242 116.172 51.6849 115.933 52.1058C115.698 52.5234 115.394 52.8847 115.023 53.1896C114.655 53.4912 114.234 53.7249 113.76 53.8906C113.286 54.0563 112.769 54.1392 112.209 54.1392C111.328 54.1392 110.542 53.9304 109.853 53.5128C109.163 53.0919 108.62 52.4903 108.222 51.7081C107.828 50.9259 107.63 49.9929 107.63 48.9091C107.63 47.822 107.829 46.889 108.227 46.1101C108.625 45.3279 109.168 44.728 109.858 44.3104C110.547 43.8894 111.331 43.679 112.209 43.679C112.749 43.679 113.253 43.7569 113.721 43.9126C114.191 44.0651 114.614 44.2905 114.988 44.5888C115.363 44.8838 115.673 45.245 115.918 45.6726C116.163 46.0968 116.329 46.5824 116.415 47.1293ZM122.169 54.1392C121.715 54.1326 121.267 54.0497 120.827 53.8906C120.389 53.7315 119.991 53.4664 119.633 53.0952C119.275 52.724 118.989 52.2251 118.773 51.5987C118.561 50.9723 118.455 50.1901 118.455 49.2521C118.455 48.3639 118.543 47.575 118.719 46.8857C118.898 46.1963 119.154 45.6146 119.489 45.1406C119.824 44.6634 120.228 44.3004 120.702 44.0518C121.176 43.8033 121.708 43.679 122.298 43.679C122.905 43.679 123.443 43.7983 123.914 44.0369C124.385 44.2756 124.766 44.6054 125.057 45.0263C125.352 45.4472 125.54 45.9261 125.619 46.4631H124.103C124 46.0388 123.796 45.6925 123.491 45.424C123.186 45.1555 122.789 45.0213 122.298 45.0213C121.552 45.0213 120.971 45.3461 120.553 45.9957C120.139 46.6454 119.93 47.5485 119.927 48.7053H120.001C120.177 48.4169 120.392 48.1716 120.648 47.9695C120.906 47.764 121.194 47.6065 121.513 47.4972C121.834 47.3845 122.172 47.3281 122.527 47.3281C123.117 47.3281 123.65 47.4723 124.128 47.7607C124.608 48.0457 124.991 48.4401 125.276 48.9439C125.561 49.4477 125.704 50.0244 125.704 50.674C125.704 51.3236 125.556 51.9119 125.261 52.4389C124.97 52.9659 124.559 53.3835 124.028 53.6918C123.498 53.9967 122.878 54.1458 122.169 54.1392ZM122.164 52.8466C122.555 52.8466 122.905 52.7505 123.213 52.5582C123.521 52.366 123.765 52.1075 123.944 51.7827C124.123 51.4579 124.212 51.0949 124.212 50.6939C124.212 50.3028 124.124 49.9465 123.949 49.625C123.776 49.3035 123.538 49.0483 123.233 48.8594C122.931 48.6705 122.586 48.576 122.199 48.576C121.904 48.576 121.63 48.6323 121.378 48.745C121.13 48.8577 120.911 49.0135 120.722 49.2124C120.533 49.4112 120.384 49.6399 120.275 49.8984C120.169 50.1536 120.116 50.4238 120.116 50.7088C120.116 51.09 120.203 51.4429 120.379 51.7678C120.558 52.0926 120.802 52.3544 121.11 52.5533C121.421 52.7488 121.773 52.8466 122.164 52.8466ZM131.559 54.1392C130.877 54.1392 130.267 54.0215 129.73 53.7862C129.196 53.5509 128.774 53.2244 128.462 52.8068C128.154 52.3859 127.988 51.8987 127.965 51.3452H129.526C129.546 51.6468 129.647 51.9086 129.829 52.1307C130.015 52.3494 130.257 52.5185 130.555 52.6378C130.853 52.7571 131.185 52.8168 131.549 52.8168C131.95 52.8168 132.305 52.7472 132.613 52.608C132.925 52.4687 133.168 52.2749 133.344 52.0263C133.52 51.7744 133.608 51.4844 133.608 51.1562C133.608 50.8149 133.52 50.5149 133.344 50.2564C133.172 49.9946 132.918 49.7891 132.583 49.6399C132.252 49.4908 131.851 49.4162 131.38 49.4162H130.52V48.1634H131.38C131.758 48.1634 132.09 48.0954 132.375 47.9595C132.663 47.8236 132.888 47.6347 133.051 47.3928C133.213 47.1475 133.294 46.8608 133.294 46.5327C133.294 46.2178 133.223 45.9444 133.081 45.7124C132.941 45.477 132.743 45.2931 132.484 45.1605C132.229 45.0279 131.927 44.9616 131.579 44.9616C131.248 44.9616 130.938 45.023 130.65 45.1456C130.364 45.2649 130.132 45.4373 129.953 45.6626C129.775 45.8847 129.678 46.1515 129.665 46.4631H128.179C128.195 45.9129 128.358 45.429 128.666 45.0114C128.977 44.5937 129.388 44.2673 129.899 44.032C130.409 43.7966 130.976 43.679 131.599 43.679C132.252 43.679 132.815 43.8066 133.289 44.0618C133.767 44.3137 134.135 44.6501 134.393 45.071C134.655 45.492 134.784 45.9527 134.781 46.4531C134.784 47.0232 134.625 47.5071 134.304 47.9048C133.985 48.3026 133.561 48.5694 133.031 48.7053V48.7848C133.707 48.8875 134.231 49.156 134.602 49.5902C134.976 50.0244 135.162 50.563 135.159 51.206C135.162 51.7661 135.006 52.2682 134.691 52.7124C134.38 53.1565 133.954 53.5062 133.414 53.7614C132.873 54.0133 132.255 54.1392 131.559 54.1392ZM141.083 54.169C140.297 54.1657 139.626 53.9586 139.069 53.5476C138.512 53.1366 138.087 52.5384 137.792 51.7528C137.497 50.9673 137.349 50.0211 137.349 48.9141C137.349 47.8104 137.497 46.8674 137.792 46.0852C138.09 45.303 138.517 44.7064 139.074 44.2955C139.634 43.8845 140.304 43.679 141.083 43.679C141.862 43.679 142.529 43.8861 143.086 44.3004C143.643 44.7114 144.069 45.308 144.364 46.0902C144.662 46.8691 144.811 47.8104 144.811 48.9141C144.811 50.0244 144.664 50.9723 144.369 51.7578C144.074 52.54 143.648 53.1383 143.091 53.5526C142.534 53.9635 141.865 54.169 141.083 54.169ZM141.083 52.8416C141.772 52.8416 142.311 52.5052 142.699 51.8324C143.09 51.1596 143.285 50.1868 143.285 48.9141C143.285 48.0689 143.196 47.3546 143.017 46.7713C142.841 46.1847 142.587 45.7405 142.256 45.4389C141.928 45.134 141.537 44.9815 141.083 44.9815C140.397 44.9815 139.858 45.3196 139.467 45.9957C139.076 46.6719 138.879 47.6446 138.875 48.9141C138.875 49.7625 138.963 50.4801 139.139 51.0668C139.318 51.6501 139.571 52.0926 139.9 52.3942C140.228 52.6925 140.622 52.8416 141.083 52.8416Z" fill="#1C1B1E"/>
<path d="M13.5753 120.129H12.0241C11.9645 119.798 11.8535 119.506 11.6911 119.254C11.5286 119.002 11.3298 118.789 11.0945 118.613C10.8591 118.437 10.5956 118.305 10.304 118.215C10.0156 118.126 9.70904 118.081 9.38423 118.081C8.79759 118.081 8.27225 118.228 7.80824 118.523C7.34754 118.818 6.98295 119.251 6.71449 119.821C6.44934 120.391 6.31676 121.087 6.31676 121.909C6.31676 122.738 6.44934 123.437 6.71449 124.007C6.98295 124.577 7.3492 125.008 7.81321 125.3C8.27723 125.591 8.79924 125.737 9.37926 125.737C9.70076 125.737 10.0057 125.694 10.294 125.608C10.5857 125.518 10.8492 125.388 11.0845 125.215C11.3198 125.043 11.5187 124.832 11.6811 124.584C11.8468 124.332 11.9612 124.044 12.0241 123.719L13.5753 123.724C13.4924 124.224 13.3317 124.685 13.093 125.106C12.8577 125.523 12.5545 125.885 12.1832 126.19C11.8153 126.491 11.3944 126.725 10.9205 126.891C10.4465 127.056 9.92945 127.139 9.36932 127.139C8.48769 127.139 7.70218 126.93 7.01278 126.513C6.32339 126.092 5.77983 125.49 5.3821 124.708C4.98769 123.926 4.79048 122.993 4.79048 121.909C4.79048 120.822 4.98935 119.889 5.38707 119.11C5.7848 118.328 6.32836 117.728 7.01776 117.31C7.70715 116.889 8.491 116.679 9.36932 116.679C9.90956 116.679 10.4134 116.757 10.8807 116.913C11.3513 117.065 11.7739 117.29 12.1484 117.589C12.523 117.884 12.8329 118.245 13.0781 118.673C13.3234 119.097 13.4891 119.582 13.5753 120.129ZM20.6316 123.833V119.364H22.123V127H20.6614V125.678H20.5819C20.4062 126.085 20.1245 126.425 19.7367 126.697C19.3522 126.965 18.8733 127.099 18.2999 127.099C17.8094 127.099 17.3752 126.992 16.9973 126.776C16.6228 126.558 16.3278 126.234 16.1124 125.807C15.9003 125.379 15.7942 124.851 15.7942 124.221V119.364H17.2807V124.042C17.2807 124.562 17.4249 124.977 17.7132 125.285C18.0016 125.593 18.3761 125.747 18.8368 125.747C19.1152 125.747 19.392 125.678 19.6671 125.538C19.9455 125.399 20.1758 125.189 20.3581 124.907C20.5437 124.625 20.6349 124.267 20.6316 123.833ZM30.3427 121.228L28.9954 121.467C28.939 121.294 28.8496 121.13 28.7269 120.974C28.6076 120.819 28.4452 120.691 28.2397 120.592C28.0342 120.492 27.7773 120.442 27.4691 120.442C27.0482 120.442 26.6969 120.537 26.4151 120.726C26.1334 120.911 25.9925 121.152 25.9925 121.447C25.9925 121.702 26.087 121.907 26.2759 122.063C26.4648 122.219 26.7698 122.347 27.1907 122.446L28.4038 122.724C29.1064 122.887 29.6301 123.137 29.9748 123.475C30.3195 123.813 30.4918 124.252 30.4918 124.793C30.4918 125.25 30.3593 125.658 30.0941 126.016C29.8323 126.37 29.466 126.649 28.9954 126.851C28.5281 127.053 27.9862 127.154 27.3697 127.154C26.5146 127.154 25.8169 126.972 25.2766 126.607C24.7364 126.239 24.4049 125.717 24.2823 125.041L25.7191 124.822C25.8086 125.197 25.9925 125.48 26.271 125.673C26.5494 125.862 26.9123 125.956 27.3597 125.956C27.8469 125.956 28.2364 125.855 28.5281 125.653C28.8197 125.447 28.9656 125.197 28.9656 124.902C28.9656 124.663 28.8761 124.463 28.6971 124.3C28.5214 124.138 28.2513 124.015 27.8867 123.933L26.5941 123.649C25.8815 123.487 25.3545 123.228 25.0131 122.874C24.6751 122.519 24.506 122.07 24.506 121.526C24.506 121.076 24.632 120.681 24.8839 120.343C25.1358 120.005 25.4838 119.741 25.9279 119.553C26.372 119.36 26.8808 119.264 27.4542 119.264C28.2795 119.264 28.9291 119.443 29.4031 119.801C29.877 120.156 30.1902 120.631 30.3427 121.228ZM36.1909 119.364V120.557H32.0197V119.364H36.1909ZM33.1383 117.534H34.6248V124.758C34.6248 125.046 34.6679 125.263 34.7541 125.409C34.8403 125.552 34.9513 125.649 35.0872 125.702C35.2264 125.752 35.3772 125.777 35.5396 125.777C35.6589 125.777 35.7633 125.769 35.8528 125.752C35.9423 125.736 36.0119 125.722 36.0616 125.712L36.3301 126.94C36.2439 126.973 36.1213 127.007 35.9622 127.04C35.8031 127.076 35.6042 127.096 35.3656 127.099C34.9745 127.106 34.6099 127.036 34.2718 126.891C33.9338 126.745 33.6603 126.519 33.4515 126.214C33.2427 125.91 33.1383 125.527 33.1383 125.066V117.534ZM41.4698 127.154C40.7539 127.154 40.1291 126.99 39.5955 126.662C39.0619 126.334 38.6476 125.875 38.3526 125.285C38.0576 124.695 37.9102 124.005 37.9102 123.217C37.9102 122.424 38.0576 121.732 38.3526 121.138C38.6476 120.545 39.0619 120.085 39.5955 119.756C40.1291 119.428 40.7539 119.264 41.4698 119.264C42.1857 119.264 42.8105 119.428 43.3441 119.756C43.8777 120.085 44.292 120.545 44.587 121.138C44.882 121.732 45.0295 122.424 45.0295 123.217C45.0295 124.005 44.882 124.695 44.587 125.285C44.292 125.875 43.8777 126.334 43.3441 126.662C42.8105 126.99 42.1857 127.154 41.4698 127.154ZM41.4748 125.906C41.9388 125.906 42.3233 125.784 42.6282 125.538C42.9331 125.293 43.1585 124.967 43.3043 124.559C43.4535 124.151 43.5281 123.702 43.5281 123.212C43.5281 122.724 43.4535 122.277 43.3043 121.869C43.1585 121.458 42.9331 121.129 42.6282 120.88C42.3233 120.631 41.9388 120.507 41.4748 120.507C41.0075 120.507 40.6197 120.631 40.3114 120.88C40.0065 121.129 39.7795 121.458 39.6303 121.869C39.4845 122.277 39.4116 122.724 39.4116 123.212C39.4116 123.702 39.4845 124.151 39.6303 124.559C39.7795 124.967 40.0065 125.293 40.3114 125.538C40.6197 125.784 41.0075 125.906 41.4748 125.906ZM47.1887 127V119.364H48.6156V120.607H48.71C48.8691 120.186 49.1293 119.857 49.4906 119.622C49.8519 119.384 50.2844 119.264 50.7882 119.264C51.2986 119.264 51.7261 119.384 52.0708 119.622C52.4189 119.861 52.6757 120.189 52.8414 120.607H52.921C53.1033 120.199 53.3933 119.874 53.791 119.632C54.1887 119.387 54.6627 119.264 55.2129 119.264C55.9056 119.264 56.4707 119.481 56.9082 119.915C57.349 120.35 57.5694 121.004 57.5694 121.879V127H56.0829V122.018C56.0829 121.501 55.9421 121.127 55.6603 120.895C55.3786 120.663 55.0422 120.547 54.6511 120.547C54.1672 120.547 53.791 120.696 53.5225 120.994C53.2541 121.289 53.1199 121.669 53.1199 122.133V127H51.6383V121.924C51.6383 121.51 51.5091 121.177 51.2505 120.925C50.992 120.673 50.6556 120.547 50.2413 120.547C49.9596 120.547 49.6994 120.621 49.4608 120.771C49.2254 120.916 49.0349 121.12 48.889 121.382C48.7465 121.644 48.6752 121.947 48.6752 122.292V127H47.1887ZM64.247 127V125.886L67.6923 122.317C68.0602 121.929 68.3635 121.589 68.6021 121.298C68.844 121.003 69.0247 120.723 69.144 120.457C69.2633 120.192 69.323 119.911 69.323 119.612C69.323 119.274 69.2434 118.982 69.0843 118.737C68.9252 118.489 68.7082 118.298 68.4331 118.165C68.158 118.03 67.8481 117.962 67.5034 117.962C67.1388 117.962 66.8206 118.036 66.5488 118.185C66.277 118.335 66.0682 118.545 65.9224 118.817C65.7766 119.089 65.7037 119.407 65.7037 119.771H64.237C64.237 119.152 64.3796 118.61 64.6646 118.146C64.9496 117.682 65.3407 117.322 65.8379 117.067C66.335 116.808 66.9002 116.679 67.5332 116.679C68.1729 116.679 68.7363 116.807 69.2235 117.062C69.7141 117.314 70.0969 117.658 70.372 118.096C70.6471 118.53 70.7846 119.021 70.7846 119.567C70.7846 119.945 70.7134 120.315 70.5708 120.676C70.4316 121.037 70.188 121.44 69.84 121.884C69.492 122.325 69.0081 122.86 68.3883 123.49L66.3649 125.608V125.683H70.9487V127H64.247Z" fill="#1C1B1E"/>
<defs>
<filter id="filter0_d_825_501" x="0" y="0" width="224" height="100" filterUnits="userSpaceOnUse" color-interpolation-filters="sRGB">
<feFlood flood-opacity="0" result="BackgroundImageFix"/>
<feColorMatrix in="SourceAlpha" type="matrix" values="0 0 0 0 0 0 0 0 0 0 0 0 0 0 0 0 0 0 127 0" result="hardAlpha"/>
<feOffset dy="1"/>
<feGaussianBlur stdDeviation="2"/>
<feComposite in2="hardAlpha" operator="out"/>
<feColorMatrix type="matrix" values="0 0 0 0 0 0 0 0 0 0 0 0 0 0 0 0 0 0 0.1 0"/>
<feBlend mode="normal" in2="BackgroundImageFix" result="effect1_dropShadow_825_501"/>
<feBlend mode="normal" in="SourceGraphic" in2="effect1_dropShadow_825_501" result="shape"/>
</filter>
</defs>
</svg>
