<svg width="224" height="133" viewBox="0 0 224 133" fill="none" xmlns="http://www.w3.org/2000/svg">
<g filter="url(#filter0_d_825_496)">
<rect x="4" y="3" width="216" height="92" rx="8" fill="#33009A"/>
</g>
<path d="M83.9483 54L85.6188 43.8182H86.812L85.1415 54H83.9483ZM79.3397 51.2756L79.5336 50.0824H87.2495L87.0556 51.2756H79.3397ZM80.3688 54L82.0392 43.8182H83.2324L81.562 54H80.3688ZM79.9313 47.7358L80.1252 46.5426H87.8411L87.6472 47.7358H79.9313ZM93.0691 54.1392C92.3863 54.1392 91.7765 54.0215 91.2395 53.7862C90.7059 53.5509 90.2833 53.2244 89.9718 52.8068C89.6635 52.3859 89.4978 51.8987 89.4746 51.3452H91.0357C91.0556 51.6468 91.1567 51.9086 91.339 52.1307C91.5246 52.3494 91.7665 52.5185 92.0648 52.6378C92.3631 52.7571 92.6945 52.8168 93.0591 52.8168C93.4602 52.8168 93.8148 52.7472 94.123 52.608C94.4346 52.4687 94.6782 52.2749 94.8539 52.0263C95.0295 51.7744 95.1174 51.4844 95.1174 51.1562C95.1174 50.8149 95.0295 50.5149 94.8539 50.2564C94.6815 49.9946 94.428 49.7891 94.0932 49.6399C93.7618 49.4908 93.3607 49.4162 92.8901 49.4162H92.03V48.1634H92.8901C93.2679 48.1634 93.5994 48.0954 93.8844 47.9595C94.1728 47.8236 94.3981 47.6347 94.5605 47.3928C94.723 47.1475 94.8042 46.8608 94.8042 46.5327C94.8042 46.2178 94.7329 45.9444 94.5904 45.7124C94.4512 45.477 94.2523 45.2931 93.9938 45.1605C93.7386 45.0279 93.437 44.9616 93.089 44.9616C92.7575 44.9616 92.4476 45.023 92.1593 45.1456C91.8742 45.2649 91.6422 45.4373 91.4632 45.6626C91.2843 45.8847 91.1882 46.1515 91.1749 46.4631H89.6884C89.705 45.9129 89.8674 45.429 90.1756 45.0114C90.4872 44.5937 90.8981 44.2673 91.4086 44.032C91.919 43.7966 92.4857 43.679 93.1088 43.679C93.7618 43.679 94.3252 43.8066 94.7992 44.0618C95.2765 44.3137 95.6444 44.6501 95.9029 45.071C96.1647 45.492 96.294 45.9527 96.2907 46.4531C96.294 47.0232 96.1349 47.5071 95.8134 47.9048C95.4952 48.3026 95.071 48.5694 94.5407 48.7053V48.7848C95.2168 48.8875 95.7405 49.156 96.1117 49.5902C96.4862 50.0244 96.6718 50.563 96.6685 51.206C96.6718 51.7661 96.516 52.2682 96.2012 52.7124C95.8896 53.1565 95.4637 53.5062 94.9235 53.7614C94.3832 54.0133 93.7651 54.1392 93.0691 54.1392ZM102.593 54.1392C101.91 54.1392 101.3 54.0215 100.763 53.7862C100.229 53.5509 99.8068 53.2244 99.4952 52.8068C99.187 52.3859 99.0212 51.8987 98.998 51.3452H100.559C100.579 51.6468 100.68 51.9086 100.862 52.1307C101.048 52.3494 101.29 52.5185 101.588 52.6378C101.887 52.7571 102.218 52.8168 102.583 52.8168C102.984 52.8168 103.338 52.7472 103.646 52.608C103.958 52.4687 104.202 52.2749 104.377 52.0263C104.553 51.7744 104.641 51.4844 104.641 51.1562C104.641 50.8149 104.553 50.5149 104.377 50.2564C104.205 49.9946 103.951 49.7891 103.617 49.6399C103.285 49.4908 102.884 49.4162 102.414 49.4162H101.553V48.1634H102.414C102.791 48.1634 103.123 48.0954 103.408 47.9595C103.696 47.8236 103.922 47.6347 104.084 47.3928C104.246 47.1475 104.328 46.8608 104.328 46.5327C104.328 46.2178 104.256 45.9444 104.114 45.7124C103.975 45.477 103.776 45.2931 103.517 45.1605C103.262 45.0279 102.96 44.9616 102.612 44.9616C102.281 44.9616 101.971 45.023 101.683 45.1456C101.398 45.2649 101.166 45.4373 100.987 45.6626C100.808 45.8847 100.712 46.1515 100.698 46.4631H99.2118C99.2284 45.9129 99.3908 45.429 99.699 45.0114C100.011 44.5937 100.422 44.2673 100.932 44.032C101.442 43.7966 102.009 43.679 102.632 43.679C103.285 43.679 103.849 43.8066 104.323 44.0618C104.8 44.3137 105.168 44.6501 105.426 45.071C105.688 45.492 105.817 45.9527 105.814 46.4531C105.817 47.0232 105.658 47.5071 105.337 47.9048C105.019 48.3026 104.594 48.5694 104.064 48.7053V48.7848C104.74 48.8875 105.264 49.156 105.635 49.5902C106.01 50.0244 106.195 50.563 106.192 51.206C106.195 51.7661 106.039 52.2682 105.725 52.7124C105.413 53.1565 104.987 53.5062 104.447 53.7614C103.907 54.0133 103.289 54.1392 102.593 54.1392ZM112.116 54.169C111.33 54.1657 110.659 53.9586 110.102 53.5476C109.546 53.1366 109.12 52.5384 108.825 51.7528C108.53 50.9673 108.382 50.0211 108.382 48.9141C108.382 47.8104 108.53 46.8674 108.825 46.0852C109.123 45.303 109.551 44.7064 110.107 44.2955C110.668 43.8845 111.337 43.679 112.116 43.679C112.895 43.679 113.563 43.8861 114.119 44.3004C114.676 44.7114 115.102 45.308 115.397 46.0902C115.695 46.8691 115.845 47.8104 115.845 48.9141C115.845 50.0244 115.697 50.9723 115.402 51.7578C115.107 52.54 114.681 53.1383 114.124 53.5526C113.568 53.9635 112.898 54.169 112.116 54.169ZM112.116 52.8416C112.805 52.8416 113.344 52.5052 113.732 51.8324C114.123 51.1596 114.318 50.1868 114.318 48.9141C114.318 48.0689 114.229 47.3546 114.05 46.7713C113.874 46.1847 113.621 45.7405 113.289 45.4389C112.961 45.134 112.57 44.9815 112.116 44.9815C111.43 44.9815 110.891 45.3196 110.5 45.9957C110.109 46.6719 109.912 47.6446 109.909 48.9141C109.909 49.7625 109.996 50.4801 110.172 51.0668C110.351 51.6501 110.605 52.0926 110.933 52.3942C111.261 52.6925 111.655 52.8416 112.116 52.8416ZM121.653 54.169C120.868 54.1657 120.196 53.9586 119.64 53.5476C119.083 53.1366 118.657 52.5384 118.362 51.7528C118.067 50.9673 117.919 50.0211 117.919 48.9141C117.919 47.8104 118.067 46.8674 118.362 46.0852C118.66 45.303 119.088 44.7064 119.645 44.2955C120.205 43.8845 120.874 43.679 121.653 43.679C122.432 43.679 123.1 43.8861 123.657 44.3004C124.213 44.7114 124.639 45.308 124.934 46.0902C125.233 46.8691 125.382 47.8104 125.382 48.9141C125.382 50.0244 125.234 50.9723 124.939 51.7578C124.644 52.54 124.218 53.1383 123.662 53.5526C123.105 53.9635 122.435 54.169 121.653 54.169ZM121.653 52.8416C122.342 52.8416 122.881 52.5052 123.269 51.8324C123.66 51.1596 123.855 50.1868 123.855 48.9141C123.855 48.0689 123.766 47.3546 123.587 46.7713C123.411 46.1847 123.158 45.7405 122.826 45.4389C122.498 45.134 122.107 44.9815 121.653 44.9815C120.967 44.9815 120.428 45.3196 120.037 45.9957C119.646 46.6719 119.449 47.6446 119.446 48.9141C119.446 49.7625 119.533 50.4801 119.709 51.0668C119.888 51.6501 120.142 52.0926 120.47 52.3942C120.798 52.6925 121.192 52.8416 121.653 52.8416ZM131.031 43.679C131.485 43.6823 131.933 43.7652 132.373 43.9276C132.814 44.09 133.212 44.3551 133.567 44.723C133.925 45.0909 134.21 45.5881 134.422 46.2145C134.637 46.8376 134.747 47.6132 134.75 48.5412C134.75 49.4328 134.66 50.2266 134.481 50.9226C134.302 51.6153 134.046 52.2003 133.711 52.6776C133.379 53.1548 132.977 53.5178 132.503 53.7663C132.029 54.0149 131.495 54.1392 130.902 54.1392C130.295 54.1392 129.757 54.0199 129.286 53.7812C128.815 53.5426 128.433 53.2128 128.138 52.7919C127.843 52.3677 127.659 51.8804 127.586 51.3303H129.102C129.202 51.7678 129.404 52.1224 129.709 52.3942C130.017 52.6626 130.415 52.7969 130.902 52.7969C131.648 52.7969 132.229 52.4721 132.647 51.8224C133.064 51.1695 133.275 50.258 133.278 49.0881H133.199C133.026 49.3731 132.811 49.6184 132.552 49.8239C132.297 50.0294 132.01 50.1884 131.692 50.3011C131.374 50.4138 131.034 50.4702 130.673 50.4702C130.086 50.4702 129.553 50.326 129.072 50.0376C128.592 49.7493 128.209 49.3532 127.924 48.8494C127.639 48.3456 127.496 47.7706 127.496 47.1243C127.496 46.4813 127.642 45.898 127.934 45.3743C128.229 44.8506 128.64 44.4363 129.167 44.1314C129.697 43.8232 130.318 43.6723 131.031 43.679ZM131.036 44.9716C130.648 44.9716 130.299 45.0677 129.987 45.2599C129.679 45.4489 129.435 45.7057 129.256 46.0305C129.077 46.352 128.988 46.71 128.988 47.1044C128.988 47.4988 129.074 47.8568 129.246 48.1783C129.422 48.4964 129.661 48.75 129.962 48.9389C130.267 49.1245 130.615 49.2173 131.006 49.2173C131.298 49.2173 131.57 49.161 131.822 49.0483C132.073 48.9356 132.294 48.7798 132.483 48.581C132.672 48.3788 132.819 48.1501 132.925 47.8949C133.031 47.6397 133.084 47.3712 133.084 47.0895C133.084 46.715 132.995 46.367 132.816 46.0455C132.64 45.724 132.398 45.4654 132.09 45.2699C131.782 45.071 131.43 44.9716 131.036 44.9716ZM138.045 54H136.414L140.078 43.8182H141.853L145.517 54H143.887L141.008 45.6676H140.929L138.045 54ZM138.319 50.0128H143.608V51.3054H138.319V50.0128Z" fill="#E6E1E6"/>
<path d="M13.9631 121.909C13.9631 122.996 13.7642 123.931 13.3665 124.713C12.9688 125.492 12.4235 126.092 11.7308 126.513C11.0414 126.93 10.2576 127.139 9.37926 127.139C8.49763 127.139 7.71046 126.93 7.01776 126.513C6.32836 126.092 5.7848 125.49 5.38707 124.708C4.98935 123.926 4.79048 122.993 4.79048 121.909C4.79048 120.822 4.98935 119.889 5.38707 119.11C5.7848 118.328 6.32836 117.728 7.01776 117.31C7.71046 116.889 8.49763 116.679 9.37926 116.679C10.2576 116.679 11.0414 116.889 11.7308 117.31C12.4235 117.728 12.9688 118.328 13.3665 119.11C13.7642 119.889 13.9631 120.822 13.9631 121.909ZM12.4418 121.909C12.4418 121.08 12.3075 120.383 12.0391 119.816C11.7739 119.246 11.4093 118.815 10.9453 118.523C10.4846 118.228 9.96259 118.081 9.37926 118.081C8.79261 118.081 8.26894 118.228 7.80824 118.523C7.34754 118.815 6.98295 119.246 6.71449 119.816C6.44934 120.383 6.31676 121.08 6.31676 121.909C6.31676 122.738 6.44934 123.437 6.71449 124.007C6.98295 124.574 7.34754 125.005 7.80824 125.3C8.26894 125.591 8.79261 125.737 9.37926 125.737C9.96259 125.737 10.4846 125.591 10.9453 125.3C11.4093 125.005 11.7739 124.574 12.0391 124.007C12.3075 123.437 12.4418 122.738 12.4418 121.909ZM17.7456 122.466V127H16.2591V119.364H17.6859V120.607H17.7804C17.956 120.202 18.2311 119.877 18.6056 119.632C18.9835 119.387 19.4591 119.264 20.0325 119.264C20.5529 119.264 21.0086 119.374 21.3997 119.592C21.7908 119.808 22.094 120.129 22.3095 120.557C22.5249 120.984 22.6326 121.513 22.6326 122.143V127H21.1461V122.322C21.1461 121.768 21.002 121.336 20.7136 121.024C20.4252 120.709 20.0292 120.552 19.5254 120.552C19.1807 120.552 18.8741 120.626 18.6056 120.776C18.3405 120.925 18.13 121.143 17.9743 121.432C17.8218 121.717 17.7456 122.062 17.7456 122.466ZM29.4506 127V116.818H33.0799C33.872 116.818 34.5283 116.962 35.0487 117.251C35.569 117.539 35.9585 117.933 36.217 118.434C36.4755 118.931 36.6048 119.491 36.6048 120.114C36.6048 120.741 36.4738 121.304 36.212 121.805C35.9535 122.302 35.5624 122.696 35.0387 122.988C34.5183 123.276 33.8638 123.42 33.0749 123.42H30.5792V122.118H32.9357C33.4362 122.118 33.8422 122.032 34.1538 121.859C34.4653 121.684 34.694 121.445 34.8398 121.143C34.9857 120.842 35.0586 120.499 35.0586 120.114C35.0586 119.73 34.9857 119.388 34.8398 119.09C34.694 118.792 34.4637 118.558 34.1488 118.389C33.8372 118.22 33.4263 118.136 32.9158 118.136H30.9869V127H29.4506ZM38.7864 127V119.364H40.2232V120.577H40.3027C40.4419 120.166 40.6872 119.843 41.0385 119.607C41.3932 119.369 41.7942 119.249 42.2417 119.249C42.3345 119.249 42.4438 119.253 42.5698 119.259C42.699 119.266 42.8001 119.274 42.873 119.284V120.706C42.8134 120.689 42.7073 120.671 42.5549 120.651C42.4024 120.628 42.2499 120.616 42.0975 120.616C41.7462 120.616 41.4329 120.691 41.1578 120.84C40.8861 120.986 40.6706 121.19 40.5115 121.452C40.3525 121.71 40.2729 122.005 40.2729 122.337V127H38.7864ZM44.6594 127V119.364H46.146V127H44.6594ZM45.4102 118.185C45.1516 118.185 44.9296 118.099 44.744 117.927C44.5617 117.751 44.4705 117.542 44.4705 117.3C44.4705 117.055 44.5617 116.846 44.744 116.674C44.9296 116.498 45.1516 116.411 45.4102 116.411C45.6687 116.411 45.8891 116.498 46.0714 116.674C46.257 116.846 46.3498 117.055 46.3498 117.3C46.3498 117.542 46.257 117.751 46.0714 117.927C45.8891 118.099 45.6687 118.185 45.4102 118.185ZM48.6458 127V119.364H50.0726V120.607H50.1671C50.3262 120.186 50.5864 119.857 50.9476 119.622C51.3089 119.384 51.7414 119.264 52.2452 119.264C52.7556 119.264 53.1832 119.384 53.5279 119.622C53.8759 119.861 54.1328 120.189 54.2985 120.607H54.378C54.5603 120.199 54.8503 119.874 55.248 119.632C55.6458 119.387 56.1197 119.264 56.6699 119.264C57.3626 119.264 57.9277 119.481 58.3652 119.915C58.806 120.35 59.0265 121.004 59.0265 121.879V127H57.54V122.018C57.54 121.501 57.3991 121.127 57.1174 120.895C56.8356 120.663 56.4992 120.547 56.1081 120.547C55.6242 120.547 55.248 120.696 54.9796 120.994C54.7111 121.289 54.5769 121.669 54.5769 122.133V127H53.0953V121.924C53.0953 121.51 52.9661 121.177 52.7076 120.925C52.449 120.673 52.1126 120.547 51.6983 120.547C51.4166 120.547 51.1564 120.621 50.9178 120.771C50.6825 120.916 50.4919 121.12 50.3461 121.382C50.2035 121.644 50.1323 121.947 50.1323 122.292V127H48.6458ZM63.7411 127.169C63.2572 127.169 62.8197 127.08 62.4286 126.901C62.0375 126.718 61.7276 126.455 61.4989 126.11C61.2736 125.765 61.1609 125.343 61.1609 124.842C61.1609 124.411 61.2437 124.057 61.4094 123.778C61.5752 123.5 61.7989 123.28 62.0806 123.117C62.3623 122.955 62.6772 122.832 63.0252 122.749C63.3732 122.666 63.7279 122.603 64.0891 122.56C64.5465 122.507 64.9177 122.464 65.2028 122.431C65.4878 122.395 65.695 122.337 65.8242 122.257C65.9535 122.178 66.0181 122.048 66.0181 121.869V121.835C66.0181 121.4 65.8955 121.064 65.6502 120.825C65.4083 120.587 65.047 120.467 64.5664 120.467C64.0659 120.467 63.6715 120.578 63.3832 120.8C63.0981 121.019 62.9009 121.263 62.7915 121.531L61.3945 121.213C61.5603 120.749 61.8022 120.375 62.1204 120.089C62.4419 119.801 62.8114 119.592 63.229 119.463C63.6467 119.33 64.0858 119.264 64.5465 119.264C64.8514 119.264 65.1746 119.301 65.516 119.374C65.8607 119.443 66.1822 119.572 66.4805 119.761C66.7821 119.95 67.029 120.22 67.2212 120.572C67.4135 120.92 67.5096 121.372 67.5096 121.929V127H66.0579V125.956H65.9982C65.9021 126.148 65.7579 126.337 65.5657 126.523C65.3735 126.708 65.1265 126.862 64.8249 126.985C64.5233 127.108 64.1621 127.169 63.7411 127.169ZM64.0643 125.976C64.4753 125.976 64.8266 125.895 65.1183 125.732C65.4132 125.57 65.637 125.358 65.7894 125.096C65.9452 124.831 66.0231 124.547 66.0231 124.246V123.261C65.9701 123.314 65.8673 123.364 65.7148 123.411C65.5657 123.454 65.395 123.492 65.2028 123.525C65.0105 123.555 64.8233 123.583 64.641 123.609C64.4587 123.633 64.3062 123.652 64.1836 123.669C63.8952 123.705 63.6317 123.767 63.3931 123.853C63.1578 123.939 62.9689 124.063 62.8263 124.226C62.6871 124.385 62.6175 124.597 62.6175 124.862C62.6175 125.23 62.7534 125.509 63.0252 125.697C63.297 125.883 63.6433 125.976 64.0643 125.976ZM69.9895 127V119.364H71.4263V120.577H71.5059C71.6451 120.166 71.8903 119.843 72.2417 119.607C72.5963 119.369 72.9973 119.249 73.4448 119.249C73.5376 119.249 73.647 119.253 73.7729 119.259C73.9022 119.266 74.0033 119.274 74.0762 119.284V120.706C74.0165 120.689 73.9105 120.671 73.758 120.651C73.6055 120.628 73.4531 120.616 73.3006 120.616C72.9493 120.616 72.6361 120.691 72.361 120.84C72.0892 120.986 71.8738 121.19 71.7147 121.452C71.5556 121.71 71.476 122.005 71.476 122.337V127H69.9895ZM77.0346 129.864C76.8126 129.864 76.6104 129.845 76.4281 129.809C76.2458 129.776 76.1099 129.739 76.0204 129.7L76.3784 128.482C76.6502 128.554 76.8921 128.586 77.1042 128.576C77.3163 128.566 77.5036 128.487 77.666 128.337C77.8317 128.188 77.9776 127.945 78.1035 127.607L78.2875 127.099L75.4934 119.364H77.0843L79.0183 125.29H79.0978L81.0318 119.364H82.6277L79.4806 128.019C79.3348 128.417 79.1492 128.753 78.9238 129.028C78.6984 129.307 78.43 129.516 78.1184 129.655C77.8069 129.794 77.4456 129.864 77.0346 129.864Z" fill="#1C1B1E"/>
<defs>
<filter id="filter0_d_825_496" x="0" y="0" width="224" height="100" filterUnits="userSpaceOnUse" color-interpolation-filters="sRGB">
<feFlood flood-opacity="0" result="BackgroundImageFix"/>
<feColorMatrix in="SourceAlpha" type="matrix" values="0 0 0 0 0 0 0 0 0 0 0 0 0 0 0 0 0 0 127 0" result="hardAlpha"/>
<feOffset dy="1"/>
<feGaussianBlur stdDeviation="2"/>
<feComposite in2="hardAlpha" operator="out"/>
<feColorMatrix type="matrix" values="0 0 0 0 0 0 0 0 0 0 0 0 0 0 0 0 0 0 0.1 0"/>
<feBlend mode="normal" in2="BackgroundImageFix" result="effect1_dropShadow_825_496"/>
<feBlend mode="normal" in="SourceGraphic" in2="effect1_dropShadow_825_496" result="shape"/>
</filter>
</defs>
</svg>
