<svg width="224" height="133" viewBox="0 0 224 133" fill="none" xmlns="http://www.w3.org/2000/svg">
<g filter="url(#filter0_d_825_502)">
<rect x="4" y="3" width="216" height="92" rx="8" fill="#4A00D5"/>
</g>
<path d="M82.9493 54L84.6198 43.8182H85.8129L84.1425 54H82.9493ZM78.3406 51.2756L78.5345 50.0824H86.2504L86.0566 51.2756H78.3406ZM79.3698 54L81.0402 43.8182H82.2334L80.5629 54H79.3698ZM78.9323 47.7358L79.1262 46.5426H86.8421L86.6482 47.7358H78.9323ZM88.3115 52.0114V50.7685L92.7114 43.8182H93.6908V45.6477H93.0693L89.9223 50.6293V50.7088H95.9529V52.0114H88.3115ZM93.1389 54V51.6335L93.1489 51.0668V43.8182H94.6056V54H93.1389ZM99.1847 54H97.5541L101.218 43.8182H102.993L106.657 54H105.026L102.148 45.6676H102.068L99.1847 54ZM99.4582 50.0128H104.748V51.3054H99.4582V50.0128ZM112.033 54.169C111.247 54.1657 110.576 53.9586 110.019 53.5476C109.463 53.1366 109.037 52.5384 108.742 51.7528C108.447 50.9673 108.299 50.0211 108.299 48.9141C108.299 47.8104 108.447 46.8674 108.742 46.0852C109.04 45.303 109.468 44.7064 110.024 44.2955C110.585 43.8845 111.254 43.679 112.033 43.679C112.812 43.679 113.48 43.8861 114.036 44.3004C114.593 44.7114 115.019 45.308 115.314 46.0902C115.612 46.8691 115.762 47.8104 115.762 48.9141C115.762 50.0244 115.614 50.9723 115.319 51.7578C115.024 52.54 114.598 53.1383 114.041 53.5526C113.485 53.9635 112.815 54.169 112.033 54.169ZM112.033 52.8416C112.722 52.8416 113.261 52.5052 113.649 51.8324C114.04 51.1596 114.235 50.1868 114.235 48.9141C114.235 48.0689 114.146 47.3546 113.967 46.7713C113.791 46.1847 113.538 45.7405 113.206 45.4389C112.878 45.134 112.487 44.9815 112.033 44.9815C111.347 44.9815 110.808 45.3196 110.417 45.9957C110.026 46.6719 109.829 47.6446 109.826 48.9141C109.826 49.7625 109.913 50.4801 110.089 51.0668C110.268 51.6501 110.522 52.0926 110.85 52.3942C111.178 52.6925 111.572 52.8416 112.033 52.8416ZM121.57 54.169C120.785 54.1657 120.113 53.9586 119.557 53.5476C119 53.1366 118.574 52.5384 118.279 51.7528C117.984 50.9673 117.836 50.0211 117.836 48.9141C117.836 47.8104 117.984 46.8674 118.279 46.0852C118.577 45.303 119.005 44.7064 119.562 44.2955C120.122 43.8845 120.791 43.679 121.57 43.679C122.349 43.679 123.017 43.8861 123.574 44.3004C124.13 44.7114 124.556 45.308 124.851 46.0902C125.15 46.8691 125.299 47.8104 125.299 48.9141C125.299 50.0244 125.151 50.9723 124.856 51.7578C124.561 52.54 124.135 53.1383 123.579 53.5526C123.022 53.9635 122.352 54.169 121.57 54.169ZM121.57 52.8416C122.259 52.8416 122.798 52.5052 123.186 51.8324C123.577 51.1596 123.772 50.1868 123.772 48.9141C123.772 48.0689 123.683 47.3546 123.504 46.7713C123.328 46.1847 123.075 45.7405 122.743 45.4389C122.415 45.134 122.024 44.9815 121.57 44.9815C120.884 44.9815 120.345 45.3196 119.954 45.9957C119.563 46.6719 119.366 47.6446 119.363 48.9141C119.363 49.7625 119.45 50.4801 119.626 51.0668C119.805 51.6501 120.059 52.0926 120.387 52.3942C120.715 52.6925 121.109 52.8416 121.57 52.8416ZM130.998 54H127.702V43.8182H131.102C132.1 43.8182 132.957 44.022 133.672 44.4297C134.388 44.834 134.937 45.4157 135.318 46.1747C135.703 46.9304 135.895 47.8369 135.895 48.8942C135.895 49.9548 135.701 50.8662 135.313 51.6286C134.929 52.3909 134.372 52.9775 133.643 53.3885C132.914 53.7962 132.032 54 130.998 54ZM129.238 52.6577H130.913C131.689 52.6577 132.333 52.5118 132.847 52.2202C133.361 51.9252 133.745 51.4993 134.001 50.9425C134.256 50.3823 134.383 49.6996 134.383 48.8942C134.383 48.0954 134.256 47.4176 134.001 46.8608C133.749 46.304 133.373 45.8814 132.872 45.593C132.372 45.3047 131.75 45.1605 131.008 45.1605H129.238V52.6577ZM141.527 54.1392C140.904 54.1392 140.343 54.0199 139.846 53.7812C139.352 53.5393 138.958 53.2079 138.663 52.7869C138.368 52.366 138.211 51.8854 138.191 51.3452H139.682C139.719 51.7827 139.913 52.1423 140.264 52.424C140.615 52.7057 141.036 52.8466 141.527 52.8466C141.918 52.8466 142.264 52.7571 142.566 52.5781C142.871 52.3958 143.109 52.1456 143.282 51.8274C143.457 51.5092 143.545 51.1463 143.545 50.7386C143.545 50.3243 143.456 49.9548 143.277 49.63C143.098 49.3052 142.851 49.05 142.536 48.8643C142.224 48.6787 141.866 48.5843 141.462 48.581C141.154 48.581 140.844 48.634 140.532 48.7401C140.221 48.8461 139.969 48.9853 139.777 49.1577L138.37 48.9489L138.941 43.8182H144.54V45.1357H140.219L139.896 47.9844H139.956C140.155 47.7921 140.418 47.6314 140.746 47.5021C141.078 47.3729 141.432 47.3082 141.81 47.3082C142.43 47.3082 142.982 47.4557 143.466 47.7507C143.953 48.0457 144.336 48.4484 144.614 48.9588C144.896 49.4659 145.035 50.0492 145.032 50.7088C145.035 51.3684 144.886 51.9567 144.584 52.4737C144.286 52.9908 143.872 53.3984 143.341 53.6967C142.814 53.9917 142.209 54.1392 141.527 54.1392Z" fill="#E6E1E6"/>
<path d="M5.11861 127V116.818H8.74787C9.54001 116.818 10.1963 116.962 10.7166 117.251C11.237 117.539 11.6264 117.933 11.8849 118.434C12.1435 118.931 12.2727 119.491 12.2727 120.114C12.2727 120.741 12.1418 121.304 11.88 121.805C11.6214 122.302 11.2304 122.696 10.7067 122.988C10.1863 123.276 9.53172 123.42 8.7429 123.42H6.24716V122.118H8.60369C9.10417 122.118 9.51018 122.032 9.82173 121.859C10.1333 121.684 10.362 121.445 10.5078 121.143C10.6536 120.842 10.7266 120.499 10.7266 120.114C10.7266 119.73 10.6536 119.388 10.5078 119.09C10.362 118.792 10.1316 118.558 9.81676 118.389C9.50521 118.22 9.09422 118.136 8.58381 118.136H6.65483V127H5.11861ZM14.4544 127V119.364H15.8912V120.577H15.9707C16.1099 120.166 16.3552 119.843 16.7065 119.607C17.0611 119.369 17.4622 119.249 17.9096 119.249C18.0024 119.249 18.1118 119.253 18.2377 119.259C18.367 119.266 18.4681 119.274 18.541 119.284V120.706C18.4814 120.689 18.3753 120.671 18.2228 120.651C18.0704 120.628 17.9179 120.616 17.7654 120.616C17.4141 120.616 17.1009 120.691 16.8258 120.84C16.554 120.986 16.3386 121.19 16.1795 121.452C16.0204 121.71 15.9409 122.005 15.9409 122.337V127H14.4544ZM20.3274 127V119.364H21.8139V127H20.3274ZM21.0781 118.185C20.8196 118.185 20.5975 118.099 20.4119 117.927C20.2296 117.751 20.1385 117.542 20.1385 117.3C20.1385 117.055 20.2296 116.846 20.4119 116.674C20.5975 116.498 20.8196 116.411 21.0781 116.411C21.3366 116.411 21.5571 116.498 21.7393 116.674C21.925 116.846 22.0178 117.055 22.0178 117.3C22.0178 117.542 21.925 117.751 21.7393 117.927C21.5571 118.099 21.3366 118.185 21.0781 118.185ZM24.3137 127V119.364H25.7406V120.607H25.835C25.9941 120.186 26.2543 119.857 26.6156 119.622C26.9769 119.384 27.4094 119.264 27.9132 119.264C28.4236 119.264 28.8511 119.384 29.1958 119.622C29.5439 119.861 29.8007 120.189 29.9664 120.607H30.046C30.2283 120.199 30.5183 119.874 30.916 119.632C31.3137 119.387 31.7877 119.264 32.3379 119.264C33.0306 119.264 33.5957 119.481 34.0332 119.915C34.474 120.35 34.6944 121.004 34.6944 121.879V127H33.2079V122.018C33.2079 121.501 33.0671 121.127 32.7853 120.895C32.5036 120.663 32.1672 120.547 31.7761 120.547C31.2922 120.547 30.916 120.696 30.6475 120.994C30.3791 121.289 30.2449 121.669 30.2449 122.133V127H28.7633V121.924C28.7633 121.51 28.6341 121.177 28.3755 120.925C28.117 120.673 27.7806 120.547 27.3663 120.547C27.0846 120.547 26.8244 120.621 26.5858 120.771C26.3504 120.916 26.1599 121.12 26.014 121.382C25.8715 121.644 25.8002 121.947 25.8002 122.292V127H24.3137ZM39.4091 127.169C38.9252 127.169 38.4877 127.08 38.0966 126.901C37.7055 126.718 37.3956 126.455 37.1669 126.11C36.9415 125.765 36.8288 125.343 36.8288 124.842C36.8288 124.411 36.9117 124.057 37.0774 123.778C37.2431 123.5 37.4669 123.28 37.7486 123.117C38.0303 122.955 38.3452 122.832 38.6932 122.749C39.0412 122.666 39.3958 122.603 39.7571 122.56C40.2145 122.507 40.5857 122.464 40.8707 122.431C41.1558 122.395 41.3629 122.337 41.4922 122.257C41.6214 122.178 41.6861 122.048 41.6861 121.869V121.835C41.6861 121.4 41.5634 121.064 41.3182 120.825C41.0762 120.587 40.715 120.467 40.2344 120.467C39.7339 120.467 39.3395 120.578 39.0511 120.8C38.7661 121.019 38.5689 121.263 38.4595 121.531L37.0625 121.213C37.2282 120.749 37.4702 120.375 37.7884 120.089C38.1098 119.801 38.4794 119.592 38.897 119.463C39.3146 119.33 39.7538 119.264 40.2145 119.264C40.5194 119.264 40.8426 119.301 41.1839 119.374C41.5286 119.443 41.8501 119.572 42.1484 119.761C42.45 119.95 42.697 120.22 42.8892 120.572C43.0814 120.92 43.1776 121.372 43.1776 121.929V127H41.7259V125.956H41.6662C41.5701 126.148 41.4259 126.337 41.2337 126.523C41.0414 126.708 40.7945 126.862 40.4929 126.985C40.1913 127.108 39.83 127.169 39.4091 127.169ZM39.7322 125.976C40.1432 125.976 40.4946 125.895 40.7862 125.732C41.0812 125.57 41.3049 125.358 41.4574 125.096C41.6132 124.831 41.6911 124.547 41.6911 124.246V123.261C41.638 123.314 41.5353 123.364 41.3828 123.411C41.2337 123.454 41.063 123.492 40.8707 123.525C40.6785 123.555 40.4912 123.583 40.3089 123.609C40.1267 123.633 39.9742 123.652 39.8516 123.669C39.5632 123.705 39.2997 123.767 39.0611 123.853C38.8258 123.939 38.6368 124.063 38.4943 124.226C38.3551 124.385 38.2855 124.597 38.2855 124.862C38.2855 125.23 38.4214 125.509 38.6932 125.697C38.965 125.883 39.3113 125.976 39.7322 125.976ZM45.6575 127V119.364H47.0943V120.577H47.1738C47.313 120.166 47.5583 119.843 47.9096 119.607C48.2643 119.369 48.6653 119.249 49.1127 119.249C49.2056 119.249 49.3149 119.253 49.4409 119.259C49.5701 119.266 49.6712 119.274 49.7441 119.284V120.706C49.6845 120.689 49.5784 120.671 49.426 120.651C49.2735 120.628 49.121 120.616 48.9686 120.616C48.6172 120.616 48.304 120.691 48.0289 120.84C47.7572 120.986 47.5417 121.19 47.3826 121.452C47.2235 121.71 47.144 122.005 47.144 122.337V127H45.6575ZM52.7026 129.864C52.4805 129.864 52.2783 129.845 52.0961 129.809C51.9138 129.776 51.7779 129.739 51.6884 129.7L52.0463 128.482C52.3181 128.554 52.5601 128.586 52.7722 128.576C52.9843 128.566 53.1716 128.487 53.334 128.337C53.4997 128.188 53.6455 127.945 53.7715 127.607L53.9554 127.099L51.1614 119.364H52.7523L54.6863 125.29H54.7658L56.6998 119.364H58.2956L55.1486 128.019C55.0028 128.417 54.8172 128.753 54.5918 129.028C54.3664 129.307 54.098 129.516 53.7864 129.655C53.4748 129.794 53.1136 129.864 52.7026 129.864ZM72.9737 120.129H71.4226C71.3629 119.798 71.2519 119.506 71.0895 119.254C70.9271 119.002 70.7282 118.789 70.4929 118.613C70.2576 118.437 69.9941 118.305 69.7024 118.215C69.4141 118.126 69.1075 118.081 68.7827 118.081C68.196 118.081 67.6707 118.228 67.2067 118.523C66.746 118.818 66.3814 119.251 66.1129 119.821C65.8478 120.391 65.7152 121.087 65.7152 121.909C65.7152 122.738 65.8478 123.437 66.1129 124.007C66.3814 124.577 66.7476 125.008 67.2116 125.3C67.6757 125.591 68.1977 125.737 68.7777 125.737C69.0992 125.737 69.4041 125.694 69.6925 125.608C69.9841 125.518 70.2476 125.388 70.483 125.215C70.7183 125.043 70.9171 124.832 71.0795 124.584C71.2453 124.332 71.3596 124.044 71.4226 123.719L72.9737 123.724C72.8909 124.224 72.7301 124.685 72.4915 125.106C72.2562 125.523 71.9529 125.885 71.5817 126.19C71.2138 126.491 70.7929 126.725 70.3189 126.891C69.8449 127.056 69.3279 127.139 68.7678 127.139C67.8861 127.139 67.1006 126.93 66.4112 126.513C65.7218 126.092 65.1783 125.49 64.7805 124.708C64.3861 123.926 64.1889 122.993 64.1889 121.909C64.1889 120.822 64.3878 119.889 64.7855 119.11C65.1832 118.328 65.7268 117.728 66.4162 117.31C67.1056 116.889 67.8894 116.679 68.7678 116.679C69.308 116.679 69.8118 116.757 70.2791 116.913C70.7498 117.065 71.1723 117.29 71.5469 117.589C71.9214 117.884 72.2313 118.245 72.4766 118.673C72.7218 119.097 72.8875 119.582 72.9737 120.129ZM78.4093 127.154C77.6934 127.154 77.0686 126.99 76.535 126.662C76.0014 126.334 75.5871 125.875 75.2921 125.285C74.9971 124.695 74.8496 124.005 74.8496 123.217C74.8496 122.424 74.9971 121.732 75.2921 121.138C75.5871 120.545 76.0014 120.085 76.535 119.756C77.0686 119.428 77.6934 119.264 78.4093 119.264C79.1252 119.264 79.7499 119.428 80.2836 119.756C80.8172 120.085 81.2315 120.545 81.5265 121.138C81.8214 121.732 81.9689 122.424 81.9689 123.217C81.9689 124.005 81.8214 124.695 81.5265 125.285C81.2315 125.875 80.8172 126.334 80.2836 126.662C79.7499 126.99 79.1252 127.154 78.4093 127.154ZM78.4142 125.906C78.8783 125.906 79.2627 125.784 79.5676 125.538C79.8726 125.293 80.098 124.967 80.2438 124.559C80.3929 124.151 80.4675 123.702 80.4675 123.212C80.4675 122.724 80.3929 122.277 80.2438 121.869C80.098 121.458 79.8726 121.129 79.5676 120.88C79.2627 120.631 78.8783 120.507 78.4142 120.507C77.9469 120.507 77.5591 120.631 77.2509 120.88C76.946 121.129 76.7189 121.458 76.5698 121.869C76.4239 122.277 76.351 122.724 76.351 123.212C76.351 123.702 76.4239 124.151 76.5698 124.559C76.7189 124.967 76.946 125.293 77.2509 125.538C77.5591 125.784 77.9469 125.906 78.4142 125.906ZM85.6147 122.466V127H84.1282V119.364H85.555V120.607H85.6495C85.8252 120.202 86.1003 119.877 86.4748 119.632C86.8526 119.387 87.3282 119.264 87.9016 119.264C88.422 119.264 88.8777 119.374 89.2688 119.592C89.6599 119.808 89.9632 120.129 90.1786 120.557C90.3941 120.984 90.5018 121.513 90.5018 122.143V127H89.0153V122.322C89.0153 121.768 88.8711 121.336 88.5827 121.024C88.2944 120.709 87.8983 120.552 87.3945 120.552C87.0498 120.552 86.7433 120.626 86.4748 120.776C86.2096 120.925 85.9992 121.143 85.8434 121.432C85.6909 121.717 85.6147 122.062 85.6147 122.466ZM96.56 119.364V120.557H92.3888V119.364H96.56ZM93.5075 117.534H94.994V124.758C94.994 125.046 95.0371 125.263 95.1232 125.409C95.2094 125.552 95.3204 125.649 95.4563 125.702C95.5955 125.752 95.7463 125.777 95.9087 125.777C96.0281 125.777 96.1325 125.769 96.2219 125.752C96.3114 125.736 96.381 125.722 96.4308 125.712L96.6992 126.94C96.613 126.973 96.4904 127.007 96.3313 127.04C96.1722 127.076 95.9734 127.096 95.7347 127.099C95.3436 127.106 94.979 127.036 94.641 126.891C94.3029 126.745 94.0295 126.519 93.8207 126.214C93.6119 125.91 93.5075 125.527 93.5075 125.066V117.534ZM100.927 127.169C100.443 127.169 100.005 127.08 99.6142 126.901C99.2231 126.718 98.9132 126.455 98.6845 126.11C98.4591 125.765 98.3464 125.343 98.3464 124.842C98.3464 124.411 98.4293 124.057 98.595 123.778C98.7607 123.5 98.9844 123.28 99.2662 123.117C99.5479 122.955 99.8627 122.832 100.211 122.749C100.559 122.666 100.913 122.603 101.275 122.56C101.732 122.507 102.103 122.464 102.388 122.431C102.673 122.395 102.881 122.337 103.01 122.257C103.139 122.178 103.204 122.048 103.204 121.869V121.835C103.204 121.4 103.081 121.064 102.836 120.825C102.594 120.587 102.233 120.467 101.752 120.467C101.251 120.467 100.857 120.578 100.569 120.8C100.284 121.019 100.086 121.263 99.9771 121.531L98.5801 121.213C98.7458 120.749 98.9877 120.375 99.3059 120.089C99.6274 119.801 99.997 119.592 100.415 119.463C100.832 119.33 101.271 119.264 101.732 119.264C102.037 119.264 102.36 119.301 102.702 119.374C103.046 119.443 103.368 119.572 103.666 119.761C103.968 119.95 104.215 120.22 104.407 120.572C104.599 120.92 104.695 121.372 104.695 121.929V127H103.243V125.956H103.184C103.088 126.148 102.943 126.337 102.751 126.523C102.559 126.708 102.312 126.862 102.01 126.985C101.709 127.108 101.348 127.169 100.927 127.169ZM101.25 125.976C101.661 125.976 102.012 125.895 102.304 125.732C102.599 125.57 102.823 125.358 102.975 125.096C103.131 124.831 103.209 124.547 103.209 124.246V123.261C103.156 123.314 103.053 123.364 102.9 123.411C102.751 123.454 102.581 123.492 102.388 123.525C102.196 123.555 102.009 123.583 101.827 123.609C101.644 123.633 101.492 123.652 101.369 123.669C101.081 123.705 100.817 123.767 100.579 123.853C100.343 123.939 100.154 124.063 100.012 124.226C99.8727 124.385 99.8031 124.597 99.8031 124.862C99.8031 125.23 99.939 125.509 100.211 125.697C100.483 125.883 100.829 125.976 101.25 125.976ZM107.175 127V119.364H108.662V127H107.175ZM107.926 118.185C107.667 118.185 107.445 118.099 107.26 117.927C107.077 117.751 106.986 117.542 106.986 117.3C106.986 117.055 107.077 116.846 107.26 116.674C107.445 116.498 107.667 116.411 107.926 116.411C108.184 116.411 108.405 116.498 108.587 116.674C108.773 116.846 108.865 117.055 108.865 117.3C108.865 117.542 108.773 117.751 108.587 117.927C108.405 118.099 108.184 118.185 107.926 118.185ZM112.648 122.466V127H111.161V119.364H112.588V120.607H112.683C112.858 120.202 113.133 119.877 113.508 119.632C113.886 119.387 114.361 119.264 114.935 119.264C115.455 119.264 115.911 119.374 116.302 119.592C116.693 119.808 116.996 120.129 117.212 120.557C117.427 120.984 117.535 121.513 117.535 122.143V127H116.048V122.322C116.048 121.768 115.904 121.336 115.616 121.024C115.328 120.709 114.932 120.552 114.428 120.552C114.083 120.552 113.776 120.626 113.508 120.776C113.243 120.925 113.032 121.143 112.877 121.432C112.724 121.717 112.648 122.062 112.648 122.466ZM123.32 127.154C122.567 127.154 121.919 126.993 121.376 126.672C120.836 126.347 120.418 125.891 120.123 125.305C119.831 124.715 119.686 124.024 119.686 123.232C119.686 122.449 119.831 121.76 120.123 121.163C120.418 120.567 120.829 120.101 121.356 119.766C121.886 119.432 122.506 119.264 123.215 119.264C123.646 119.264 124.064 119.335 124.468 119.478C124.873 119.621 125.235 119.844 125.557 120.149C125.878 120.454 126.132 120.85 126.318 121.337C126.503 121.821 126.596 122.41 126.596 123.102V123.629H120.526V122.516H125.139C125.139 122.125 125.06 121.778 124.901 121.477C124.742 121.172 124.518 120.931 124.23 120.756C123.945 120.58 123.61 120.492 123.225 120.492C122.808 120.492 122.443 120.595 122.132 120.8C121.823 121.003 121.585 121.268 121.416 121.596C121.25 121.921 121.167 122.274 121.167 122.655V123.525C121.167 124.035 121.257 124.469 121.436 124.827C121.618 125.185 121.871 125.459 122.196 125.648C122.521 125.833 122.901 125.926 123.335 125.926C123.616 125.926 123.873 125.886 124.105 125.807C124.337 125.724 124.538 125.601 124.707 125.439C124.876 125.277 125.005 125.076 125.095 124.837L126.502 125.091C126.389 125.505 126.187 125.868 125.895 126.18C125.607 126.488 125.244 126.728 124.806 126.901C124.372 127.07 123.877 127.154 123.32 127.154ZM128.745 127V119.364H130.182V120.577H130.262C130.401 120.166 130.646 119.843 130.998 119.607C131.352 119.369 131.753 119.249 132.201 119.249C132.293 119.249 132.403 119.253 132.529 119.259C132.658 119.266 132.759 119.274 132.832 119.284V120.706C132.772 120.689 132.666 120.671 132.514 120.651C132.361 120.628 132.209 120.616 132.056 120.616C131.705 120.616 131.392 120.691 131.117 120.84C130.845 120.986 130.63 121.19 130.471 121.452C130.311 121.71 130.232 122.005 130.232 122.337V127H128.745Z" fill="#1C1B1E"/>
<defs>
<filter id="filter0_d_825_502" x="0" y="0" width="224" height="100" filterUnits="userSpaceOnUse" color-interpolation-filters="sRGB">
<feFlood flood-opacity="0" result="BackgroundImageFix"/>
<feColorMatrix in="SourceAlpha" type="matrix" values="0 0 0 0 0 0 0 0 0 0 0 0 0 0 0 0 0 0 127 0" result="hardAlpha"/>
<feOffset dy="1"/>
<feGaussianBlur stdDeviation="2"/>
<feComposite in2="hardAlpha" operator="out"/>
<feColorMatrix type="matrix" values="0 0 0 0 0 0 0 0 0 0 0 0 0 0 0 0 0 0 0.1 0"/>
<feBlend mode="normal" in2="BackgroundImageFix" result="effect1_dropShadow_825_502"/>
<feBlend mode="normal" in="SourceGraphic" in2="effect1_dropShadow_825_502" result="shape"/>
</filter>
</defs>
</svg>
