<svg width="224" height="133" viewBox="0 0 224 133" fill="none" xmlns="http://www.w3.org/2000/svg">
<g filter="url(#filter0_d_825_494)">
<rect x="4" y="3" width="216" height="92" rx="8" fill="#938F99"/>
</g>
<path d="M84.9737 54L86.6442 43.8182H87.8374L86.1669 54H84.9737ZM80.3651 51.2756L80.5589 50.0824H88.2749L88.081 51.2756H80.3651ZM81.3942 54L83.0646 43.8182H84.2578L82.5874 54H81.3942ZM80.9567 47.7358L81.1506 46.5426H88.8665L88.6726 47.7358H80.9567ZM93.9354 43.679C94.3894 43.6823 94.8369 43.7652 95.2777 43.9276C95.7185 44.09 96.1162 44.3551 96.4709 44.723C96.8288 45.0909 97.1139 45.5881 97.326 46.2145C97.5414 46.8376 97.6508 47.6132 97.6541 48.5412C97.6541 49.4328 97.5646 50.2266 97.3857 50.9226C97.2067 51.6153 96.9498 52.2003 96.6151 52.6776C96.2836 53.1548 95.8809 53.5178 95.407 53.7663C94.933 54.0149 94.3994 54.1392 93.8061 54.1392C93.1996 54.1392 92.661 54.0199 92.1903 53.7812C91.7197 53.5426 91.3369 53.2128 91.0419 52.7919C90.7469 52.3677 90.563 51.8804 90.4901 51.3303H92.0064C92.1058 51.7678 92.308 52.1224 92.6129 52.3942C92.9212 52.6626 93.3189 52.7969 93.8061 52.7969C94.5518 52.7969 95.1335 52.4721 95.5511 51.8224C95.9688 51.1695 96.1792 50.258 96.1825 49.0881H96.103C95.9306 49.3731 95.7152 49.6184 95.4567 49.8239C95.2015 50.0294 94.9148 50.1884 94.5966 50.3011C94.2784 50.4138 93.9387 50.4702 93.5774 50.4702C92.9908 50.4702 92.4571 50.326 91.9766 50.0376C91.496 49.7493 91.1132 49.3532 90.8281 48.8494C90.5431 48.3456 90.4006 47.7706 90.4006 47.1243C90.4006 46.4813 90.5464 45.898 90.8381 45.3743C91.133 44.8506 91.544 44.4363 92.071 44.1314C92.6013 43.8232 93.2228 43.6723 93.9354 43.679ZM93.9403 44.9716C93.5526 44.9716 93.2029 45.0677 92.8913 45.2599C92.5831 45.4489 92.3395 45.7057 92.1605 46.0305C91.9815 46.352 91.892 46.71 91.892 47.1044C91.892 47.4988 91.9782 47.8568 92.1506 48.1783C92.3262 48.4964 92.5649 48.75 92.8665 48.9389C93.1714 49.1245 93.5194 49.2173 93.9105 49.2173C94.2022 49.2173 94.474 49.161 94.7259 49.0483C94.9777 48.9356 95.1982 48.7798 95.3871 48.581C95.576 48.3788 95.7235 48.1501 95.8295 47.8949C95.9356 47.6397 95.9886 47.3712 95.9886 47.0895C95.9886 46.715 95.8991 46.367 95.7202 46.0455C95.5445 45.724 95.3026 45.4654 94.9943 45.2699C94.6861 45.071 94.3348 44.9716 93.9403 44.9716ZM103.495 54.1392C102.812 54.1392 102.202 54.0215 101.665 53.7862C101.132 53.5509 100.709 53.2244 100.398 52.8068C100.089 52.3859 99.9236 51.8987 99.9004 51.3452H101.461C101.481 51.6468 101.582 51.9086 101.765 52.1307C101.95 52.3494 102.192 52.5185 102.491 52.6378C102.789 52.7571 103.12 52.8168 103.485 52.8168C103.886 52.8168 104.241 52.7472 104.549 52.608C104.86 52.4687 105.104 52.2749 105.28 52.0263C105.455 51.7744 105.543 51.4844 105.543 51.1562C105.543 50.8149 105.455 50.5149 105.28 50.2564C105.107 49.9946 104.854 49.7891 104.519 49.6399C104.188 49.4908 103.787 49.4162 103.316 49.4162H102.456V48.1634H103.316C103.694 48.1634 104.025 48.0954 104.31 47.9595C104.599 47.8236 104.824 47.6347 104.986 47.3928C105.149 47.1475 105.23 46.8608 105.23 46.5327C105.23 46.2178 105.159 45.9444 105.016 45.7124C104.877 45.477 104.678 45.2931 104.42 45.1605C104.164 45.0279 103.863 44.9616 103.515 44.9616C103.183 44.9616 102.873 45.023 102.585 45.1456C102.3 45.2649 102.068 45.4373 101.889 45.6626C101.71 45.8847 101.614 46.1515 101.601 46.4631H100.114C100.131 45.9129 100.293 45.429 100.601 45.0114C100.913 44.5937 101.324 44.2673 101.834 44.032C102.345 43.7966 102.912 43.679 103.535 43.679C104.188 43.679 104.751 43.8066 105.225 44.0618C105.702 44.3137 106.07 44.6501 106.329 45.071C106.59 45.492 106.72 45.9527 106.716 46.4531C106.72 47.0232 106.561 47.5071 106.239 47.9048C105.921 48.3026 105.497 48.5694 104.966 48.7053V48.7848C105.643 48.8875 106.166 49.156 106.537 49.5902C106.912 50.0244 107.098 50.563 107.094 51.206C107.098 51.7661 106.942 52.2682 106.627 52.7124C106.315 53.1565 105.89 53.5062 105.349 53.7614C104.809 54.0133 104.191 54.1392 103.495 54.1392ZM112.914 54.1392C112.201 54.1392 111.572 54.0166 111.025 53.7713C110.481 53.526 110.055 53.188 109.747 52.7571C109.439 52.3262 109.286 51.8357 109.29 51.2855C109.286 50.8546 109.374 50.4586 109.553 50.0973C109.735 49.7327 109.982 49.4295 110.294 49.1875C110.605 48.9422 110.953 48.7865 111.338 48.7202V48.6605C110.831 48.5379 110.425 48.2661 110.12 47.8452C109.815 47.4242 109.664 46.9403 109.667 46.3935C109.664 45.8731 109.802 45.4091 110.08 45.0014C110.362 44.5904 110.748 44.2673 111.238 44.032C111.729 43.7966 112.287 43.679 112.914 43.679C113.534 43.679 114.087 43.7983 114.574 44.0369C115.065 44.2723 115.451 44.5954 115.733 45.0064C116.015 45.4141 116.157 45.8764 116.16 46.3935C116.157 46.9403 116.001 47.4242 115.693 47.8452C115.385 48.2661 114.984 48.5379 114.49 48.6605V48.7202C114.871 48.7865 115.214 48.9422 115.519 49.1875C115.827 49.4295 116.073 49.7327 116.255 50.0973C116.44 50.4586 116.535 50.8546 116.538 51.2855C116.535 51.8357 116.379 52.3262 116.071 52.7571C115.763 53.188 115.335 53.526 114.788 53.7713C114.245 54.0166 113.62 54.1392 112.914 54.1392ZM112.914 52.8814C113.335 52.8814 113.699 52.8118 114.008 52.6726C114.316 52.5301 114.555 52.3329 114.724 52.081C114.893 51.8258 114.979 51.5275 114.982 51.1861C114.979 50.8314 114.886 50.5182 114.704 50.2464C114.525 49.9747 114.281 49.7609 113.973 49.6051C113.665 49.4493 113.312 49.3714 112.914 49.3714C112.513 49.3714 112.157 49.4493 111.845 49.6051C111.533 49.7609 111.288 49.9747 111.109 50.2464C110.93 50.5182 110.842 50.8314 110.846 51.1861C110.842 51.5275 110.924 51.8258 111.089 52.081C111.258 52.3329 111.499 52.5301 111.81 52.6726C112.122 52.8118 112.49 52.8814 112.914 52.8814ZM112.914 48.1435C113.252 48.1435 113.552 48.0755 113.814 47.9396C114.076 47.8037 114.281 47.6148 114.43 47.3729C114.583 47.1309 114.661 46.8475 114.664 46.5227C114.661 46.2045 114.584 45.9261 114.435 45.6875C114.289 45.4489 114.086 45.2649 113.824 45.1357C113.562 45.0031 113.259 44.9368 112.914 44.9368C112.563 44.9368 112.254 45.0031 111.989 45.1357C111.727 45.2649 111.523 45.4489 111.378 45.6875C111.232 45.9261 111.161 46.2045 111.164 46.5227C111.161 46.8475 111.233 47.1309 111.383 47.3729C111.532 47.6148 111.737 47.8037 111.999 47.9396C112.264 48.0755 112.569 48.1435 112.914 48.1435ZM118.958 54V43.8182H125.272V45.1406H120.495V48.2429H124.82V49.5604H120.495V54H118.958ZM130.908 43.679C131.362 43.6823 131.81 43.7652 132.25 43.9276C132.691 44.09 133.089 44.3551 133.444 44.723C133.801 45.0909 134.087 45.5881 134.299 46.2145C134.514 46.8376 134.623 47.6132 134.627 48.5412C134.627 49.4328 134.537 50.2266 134.358 50.9226C134.179 51.6153 133.922 52.2003 133.588 52.6776C133.256 53.1548 132.854 53.5178 132.38 53.7663C131.906 54.0149 131.372 54.1392 130.779 54.1392C130.172 54.1392 129.634 54.0199 129.163 53.7812C128.692 53.5426 128.31 53.2128 128.015 52.7919C127.72 52.3677 127.536 51.8804 127.463 51.3303H128.979C129.078 51.7678 129.281 52.1224 129.586 52.3942C129.894 52.6626 130.292 52.7969 130.779 52.7969C131.525 52.7969 132.106 52.4721 132.524 51.8224C132.941 51.1695 133.152 50.258 133.155 49.0881H133.076C132.903 49.3731 132.688 49.6184 132.429 49.8239C132.174 50.0294 131.887 50.1884 131.569 50.3011C131.251 50.4138 130.911 50.4702 130.55 50.4702C129.963 50.4702 129.43 50.326 128.949 50.0376C128.469 49.7493 128.086 49.3532 127.801 48.8494C127.516 48.3456 127.373 47.7706 127.373 47.1243C127.373 46.4813 127.519 45.898 127.811 45.3743C128.106 44.8506 128.517 44.4363 129.044 44.1314C129.574 43.8232 130.195 43.6723 130.908 43.679ZM130.913 44.9716C130.525 44.9716 130.176 45.0677 129.864 45.2599C129.556 45.4489 129.312 45.7057 129.133 46.0305C128.954 46.352 128.865 46.71 128.865 47.1044C128.865 47.4988 128.951 47.8568 129.123 48.1783C129.299 48.4964 129.538 48.75 129.839 48.9389C130.144 49.1245 130.492 49.2173 130.883 49.2173C131.175 49.2173 131.447 49.161 131.699 49.0483C131.95 48.9356 132.171 48.7798 132.36 48.581C132.549 48.3788 132.696 48.1501 132.802 47.8949C132.908 47.6397 132.961 47.3712 132.961 47.0895C132.961 46.715 132.872 46.367 132.693 46.0455C132.517 45.724 132.275 45.4654 131.967 45.2699C131.659 45.071 131.307 44.9716 130.913 44.9716ZM140.308 43.679C140.762 43.6823 141.21 43.7652 141.651 43.9276C142.092 44.09 142.489 44.3551 142.844 44.723C143.202 45.0909 143.487 45.5881 143.699 46.2145C143.914 46.8376 144.024 47.6132 144.027 48.5412C144.027 49.4328 143.938 50.2266 143.759 50.9226C143.58 51.6153 143.323 52.2003 142.988 52.6776C142.657 53.1548 142.254 53.5178 141.78 53.7663C141.306 54.0149 140.772 54.1392 140.179 54.1392C139.573 54.1392 139.034 54.0199 138.563 53.7812C138.093 53.5426 137.71 53.2128 137.415 52.7919C137.12 52.3677 136.936 51.8804 136.863 51.3303H138.379C138.479 51.7678 138.681 52.1224 138.986 52.3942C139.294 52.6626 139.692 52.7969 140.179 52.7969C140.925 52.7969 141.507 52.4721 141.924 51.8224C142.342 51.1695 142.552 50.258 142.556 49.0881H142.476C142.304 49.3731 142.088 49.6184 141.83 49.8239C141.575 50.0294 141.288 50.1884 140.97 50.3011C140.651 50.4138 140.312 50.4702 139.95 50.4702C139.364 50.4702 138.83 50.326 138.35 50.0376C137.869 49.7493 137.486 49.3532 137.201 48.8494C136.916 48.3456 136.774 47.7706 136.774 47.1243C136.774 46.4813 136.919 45.898 137.211 45.3743C137.506 44.8506 137.917 44.4363 138.444 44.1314C138.974 43.8232 139.596 43.6723 140.308 43.679ZM140.313 44.9716C139.926 44.9716 139.576 45.0677 139.264 45.2599C138.956 45.4489 138.713 45.7057 138.534 46.0305C138.355 46.352 138.265 46.71 138.265 47.1044C138.265 47.4988 138.351 47.8568 138.524 48.1783C138.699 48.4964 138.938 48.75 139.24 48.9389C139.544 49.1245 139.892 49.2173 140.284 49.2173C140.575 49.2173 140.847 49.161 141.099 49.0483C141.351 48.9356 141.571 48.7798 141.76 48.581C141.949 48.3788 142.097 48.1501 142.203 47.8949C142.309 47.6397 142.362 47.3712 142.362 47.0895C142.362 46.715 142.272 46.367 142.093 46.0455C141.918 45.724 141.676 45.4654 141.367 45.2699C141.059 45.071 140.708 44.9716 140.313 44.9716Z" fill="#1C1B1E"/>
<path d="M13.9631 121.909C13.9631 122.996 13.7642 123.931 13.3665 124.713C12.9688 125.492 12.4235 126.092 11.7308 126.513C11.0414 126.93 10.2576 127.139 9.37926 127.139C8.49763 127.139 7.71046 126.93 7.01776 126.513C6.32836 126.092 5.7848 125.49 5.38707 124.708C4.98935 123.926 4.79048 122.993 4.79048 121.909C4.79048 120.822 4.98935 119.889 5.38707 119.11C5.7848 118.328 6.32836 117.728 7.01776 117.31C7.71046 116.889 8.49763 116.679 9.37926 116.679C10.2576 116.679 11.0414 116.889 11.7308 117.31C12.4235 117.728 12.9688 118.328 13.3665 119.11C13.7642 119.889 13.9631 120.822 13.9631 121.909ZM12.4418 121.909C12.4418 121.08 12.3075 120.383 12.0391 119.816C11.7739 119.246 11.4093 118.815 10.9453 118.523C10.4846 118.228 9.96259 118.081 9.37926 118.081C8.79261 118.081 8.26894 118.228 7.80824 118.523C7.34754 118.815 6.98295 119.246 6.71449 119.816C6.44934 120.383 6.31676 121.08 6.31676 121.909C6.31676 122.738 6.44934 123.437 6.71449 124.007C6.98295 124.574 7.34754 125.005 7.80824 125.3C8.26894 125.591 8.79261 125.737 9.37926 125.737C9.96259 125.737 10.4846 125.591 10.9453 125.3C11.4093 125.005 11.7739 124.574 12.0391 124.007C12.3075 123.437 12.4418 122.738 12.4418 121.909ZM21.0964 123.833V119.364H22.5879V127H21.1262V125.678H21.0467C20.871 126.085 20.5893 126.425 20.2015 126.697C19.8171 126.965 19.3381 127.099 18.7647 127.099C18.2742 127.099 17.84 126.992 17.4622 126.776C17.0877 126.558 16.7927 126.234 16.5772 125.807C16.3651 125.379 16.2591 124.851 16.2591 124.221V119.364H17.7456V124.042C17.7456 124.562 17.8897 124.977 18.1781 125.285C18.4664 125.593 18.841 125.747 19.3017 125.747C19.5801 125.747 19.8568 125.678 20.1319 125.538C20.4103 125.399 20.6407 125.189 20.823 124.907C21.0086 124.625 21.0997 124.267 21.0964 123.833ZM28.6499 119.364V120.557H24.4787V119.364H28.6499ZM25.5973 117.534H27.0838V124.758C27.0838 125.046 27.1269 125.263 27.2131 125.409C27.2992 125.552 27.4103 125.649 27.5462 125.702C27.6854 125.752 27.8362 125.777 27.9986 125.777C28.1179 125.777 28.2223 125.769 28.3118 125.752C28.4013 125.736 28.4709 125.722 28.5206 125.712L28.7891 126.94C28.7029 126.973 28.5803 127.007 28.4212 127.04C28.2621 127.076 28.0632 127.096 27.8246 127.099C27.4335 127.106 27.0689 127.036 26.7308 126.891C26.3928 126.745 26.1193 126.519 25.9105 126.214C25.7017 125.91 25.5973 125.527 25.5973 125.066V117.534ZM32.4448 116.818V127H30.9583V116.818H32.4448ZM34.9446 127V119.364H36.4311V127H34.9446ZM35.6953 118.185C35.4368 118.185 35.2147 118.099 35.0291 117.927C34.8468 117.751 34.7557 117.542 34.7557 117.3C34.7557 117.055 34.8468 116.846 35.0291 116.674C35.2147 116.498 35.4368 116.411 35.6953 116.411C35.9538 116.411 36.1742 116.498 36.3565 116.674C36.5421 116.846 36.6349 117.055 36.6349 117.3C36.6349 117.542 36.5421 117.751 36.3565 117.927C36.1742 118.099 35.9538 118.185 35.6953 118.185ZM40.4174 122.466V127H38.9309V119.364H40.3578V120.607H40.4522C40.6279 120.202 40.903 119.877 41.2775 119.632C41.6554 119.387 42.131 119.264 42.7044 119.264C43.2247 119.264 43.6805 119.374 44.0716 119.592C44.4627 119.808 44.7659 120.129 44.9814 120.557C45.1968 120.984 45.3045 121.513 45.3045 122.143V127H43.818V122.322C43.818 121.768 43.6738 121.336 43.3855 121.024C43.0971 120.709 42.7011 120.552 42.1973 120.552C41.8526 120.552 41.546 120.626 41.2775 120.776C41.0124 120.925 40.8019 121.143 40.6461 121.432C40.4937 121.717 40.4174 122.062 40.4174 122.466ZM51.0893 127.154C50.3369 127.154 49.689 126.993 49.1454 126.672C48.6052 126.347 48.1876 125.891 47.8926 125.305C47.6009 124.715 47.4551 124.024 47.4551 123.232C47.4551 122.449 47.6009 121.76 47.8926 121.163C48.1876 120.567 48.5985 120.101 49.1255 119.766C49.6558 119.432 50.2756 119.264 50.9849 119.264C51.4158 119.264 51.8334 119.335 52.2377 119.478C52.6421 119.621 53.005 119.844 53.3265 120.149C53.648 120.454 53.9016 120.85 54.0872 121.337C54.2728 121.821 54.3656 122.41 54.3656 123.102V123.629H48.2953V122.516H52.9089C52.9089 122.125 52.8294 121.778 52.6703 121.477C52.5112 121.172 52.2875 120.931 51.9991 120.756C51.7141 120.58 51.3793 120.492 50.9949 120.492C50.5772 120.492 50.2127 120.595 49.9011 120.8C49.5929 121.003 49.3542 121.268 49.1852 121.596C49.0195 121.921 48.9366 122.274 48.9366 122.655V123.525C48.9366 124.035 49.0261 124.469 49.2051 124.827C49.3874 125.185 49.6409 125.459 49.9657 125.648C50.2905 125.833 50.67 125.926 51.1042 125.926C51.3859 125.926 51.6428 125.886 51.8748 125.807C52.1068 125.724 52.3074 125.601 52.4764 125.439C52.6454 125.277 52.7747 125.076 52.8642 124.837L54.2711 125.091C54.1584 125.505 53.9563 125.868 53.6646 126.18C53.3762 126.488 53.0133 126.728 52.5758 126.901C52.1416 127.07 51.6461 127.154 51.0893 127.154Z" fill="#1C1B1E"/>
<defs>
<filter id="filter0_d_825_494" x="0" y="0" width="224" height="100" filterUnits="userSpaceOnUse" color-interpolation-filters="sRGB">
<feFlood flood-opacity="0" result="BackgroundImageFix"/>
<feColorMatrix in="SourceAlpha" type="matrix" values="0 0 0 0 0 0 0 0 0 0 0 0 0 0 0 0 0 0 127 0" result="hardAlpha"/>
<feOffset dy="1"/>
<feGaussianBlur stdDeviation="2"/>
<feComposite in2="hardAlpha" operator="out"/>
<feColorMatrix type="matrix" values="0 0 0 0 0 0 0 0 0 0 0 0 0 0 0 0 0 0 0.1 0"/>
<feBlend mode="normal" in2="BackgroundImageFix" result="effect1_dropShadow_825_494"/>
<feBlend mode="normal" in="SourceGraphic" in2="effect1_dropShadow_825_494" result="shape"/>
</filter>
</defs>
</svg>
