<svg width="224" height="133" viewBox="0 0 224 133" fill="none" xmlns="http://www.w3.org/2000/svg">
<g filter="url(#filter0_d_825_493)">
<rect x="4" y="3" width="216" height="92" rx="8" fill="#1C1B1E"/>
</g>
<path d="M86.9893 54L88.6598 43.8182H89.853L88.1825 54H86.9893ZM82.3807 51.2756L82.5746 50.0824H90.2905L90.0966 51.2756H82.3807ZM83.4098 54L85.0803 43.8182H86.2734L84.603 54H83.4098ZM82.9723 47.7358L83.1662 46.5426H90.8821L90.6882 47.7358H82.9723ZM96.4283 43.8182V54H94.8871V45.3594H94.8274L92.3913 46.9503V45.4787L94.9318 43.8182H96.4283ZM108.278 47.1293H106.727C106.668 46.7978 106.557 46.5062 106.394 46.2543C106.232 46.0024 106.033 45.7886 105.798 45.6129C105.562 45.4373 105.299 45.3047 105.007 45.2152C104.719 45.1257 104.412 45.081 104.087 45.081C103.501 45.081 102.975 45.2285 102.511 45.5234C102.051 45.8184 101.686 46.2509 101.418 46.821C101.152 47.3911 101.02 48.0871 101.02 48.9091C101.02 49.7377 101.152 50.437 101.418 51.0071C101.686 51.5772 102.052 52.008 102.516 52.2997C102.98 52.5914 103.502 52.7372 104.082 52.7372C104.404 52.7372 104.709 52.6941 104.997 52.608C105.289 52.5185 105.552 52.3875 105.788 52.2152C106.023 52.0429 106.222 51.8324 106.384 51.5838C106.55 51.3319 106.664 51.0436 106.727 50.7188L108.278 50.7237C108.196 51.2242 108.035 51.6849 107.796 52.1058C107.561 52.5234 107.258 52.8847 106.886 53.1896C106.518 53.4912 106.098 53.7249 105.624 53.8906C105.15 54.0563 104.633 54.1392 104.072 54.1392C103.191 54.1392 102.405 53.9304 101.716 53.5128C101.027 53.0919 100.483 52.4903 100.085 51.7081C99.6908 50.9259 99.4936 49.9929 99.4936 48.9091C99.4936 47.822 99.6925 46.889 100.09 46.1101C100.488 45.3279 101.031 44.728 101.721 44.3104C102.41 43.8894 103.194 43.679 104.072 43.679C104.613 43.679 105.116 43.7569 105.584 43.9126C106.054 44.0651 106.477 44.2905 106.852 44.5888C107.226 44.8838 107.536 45.245 107.781 45.6726C108.027 46.0968 108.192 46.5824 108.278 47.1293ZM114.34 43.8182V54H112.799V45.3594H112.74L110.303 46.9503V45.4787L112.844 43.8182H114.34ZM117.734 54V43.8182H121.463C122.185 43.8182 122.783 43.9375 123.257 44.1761C123.731 44.4115 124.086 44.7313 124.321 45.1357C124.557 45.5367 124.674 45.9891 124.674 46.4929C124.674 46.9171 124.596 47.2751 124.441 47.5668C124.285 47.8551 124.076 48.0871 123.814 48.2628C123.556 48.4351 123.271 48.5611 122.959 48.6406V48.7401C123.297 48.7566 123.627 48.866 123.948 49.0682C124.273 49.267 124.542 49.5504 124.754 49.9183C124.966 50.2862 125.072 50.7337 125.072 51.2607C125.072 51.781 124.949 52.2483 124.704 52.6626C124.462 53.0736 124.088 53.4001 123.58 53.642C123.073 53.8807 122.425 54 121.637 54H117.734ZM119.27 52.6825H121.487C122.223 52.6825 122.75 52.54 123.068 52.255C123.387 51.9699 123.546 51.6136 123.546 51.1861C123.546 50.8646 123.464 50.5696 123.302 50.3011C123.14 50.0327 122.908 49.8189 122.606 49.6598C122.308 49.5007 121.953 49.4212 121.542 49.4212H119.27V52.6825ZM119.27 48.223H121.328C121.673 48.223 121.983 48.1567 122.258 48.0241C122.536 47.8916 122.757 47.706 122.919 47.4673C123.085 47.2254 123.168 46.9403 123.168 46.6122C123.168 46.1913 123.02 45.8383 122.725 45.5533C122.43 45.2682 121.978 45.1257 121.368 45.1257H119.27V48.223ZM131.118 43.8182V54H129.577V45.3594H129.517L127.081 46.9503V45.4787L129.621 43.8182H131.118ZM134.511 54V43.8182H140.895V45.1406H136.047V48.2429H140.562V49.5604H136.047V52.6776H140.954V54H134.511Z" fill="#E6E1E6"/>
<path d="M5.11861 127V116.818H8.8473C9.56984 116.818 10.1681 116.937 10.642 117.176C11.116 117.411 11.4706 117.731 11.706 118.136C11.9413 118.537 12.0589 118.989 12.0589 119.493C12.0589 119.917 11.9811 120.275 11.8253 120.567C11.6695 120.855 11.4607 121.087 11.1989 121.263C10.9403 121.435 10.6553 121.561 10.3438 121.641V121.74C10.6818 121.757 11.0116 121.866 11.3331 122.068C11.6579 122.267 11.9264 122.55 12.1385 122.918C12.3506 123.286 12.4567 123.734 12.4567 124.261C12.4567 124.781 12.334 125.248 12.0888 125.663C11.8468 126.074 11.4723 126.4 10.9652 126.642C10.4581 126.881 9.81013 127 9.02131 127H5.11861ZM6.65483 125.683H8.87216C9.60795 125.683 10.1349 125.54 10.4531 125.255C10.7713 124.97 10.9304 124.614 10.9304 124.186C10.9304 123.865 10.8492 123.57 10.6868 123.301C10.5244 123.033 10.2924 122.819 9.99077 122.66C9.69247 122.501 9.33783 122.421 8.92685 122.421H6.65483V125.683ZM6.65483 121.223H8.71307C9.05777 121.223 9.36766 121.157 9.64276 121.024C9.92116 120.892 10.1416 120.706 10.304 120.467C10.4697 120.225 10.5526 119.94 10.5526 119.612C10.5526 119.191 10.4051 118.838 10.1101 118.553C9.8151 118.268 9.36269 118.126 8.75284 118.126H6.65483V121.223ZM16.8817 127.169C16.3978 127.169 15.9603 127.08 15.5692 126.901C15.1781 126.718 14.8683 126.455 14.6396 126.11C14.4142 125.765 14.3015 125.343 14.3015 124.842C14.3015 124.411 14.3844 124.057 14.5501 123.778C14.7158 123.5 14.9395 123.28 15.2212 123.117C15.503 122.955 15.8178 122.832 16.1658 122.749C16.5138 122.666 16.8685 122.603 17.2298 122.56C17.6871 122.507 18.0584 122.464 18.3434 122.431C18.6284 122.395 18.8356 122.337 18.9648 122.257C19.0941 122.178 19.1587 122.048 19.1587 121.869V121.835C19.1587 121.4 19.0361 121.064 18.7908 120.825C18.5489 120.587 18.1876 120.467 17.707 120.467C17.2066 120.467 16.8121 120.578 16.5238 120.8C16.2388 121.019 16.0415 121.263 15.9322 121.531L14.5352 121.213C14.7009 120.749 14.9428 120.375 15.261 120.089C15.5825 119.801 15.9521 119.592 16.3697 119.463C16.7873 119.33 17.2264 119.264 17.6871 119.264C17.9921 119.264 18.3152 119.301 18.6566 119.374C19.0013 119.443 19.3228 119.572 19.6211 119.761C19.9227 119.95 20.1696 120.22 20.3619 120.572C20.5541 120.92 20.6502 121.372 20.6502 121.929V127H19.1985V125.956H19.1388C19.0427 126.148 18.8986 126.337 18.7063 126.523C18.5141 126.708 18.2672 126.862 17.9656 126.985C17.6639 127.108 17.3027 127.169 16.8817 127.169ZM17.2049 125.976C17.6159 125.976 17.9672 125.895 18.2589 125.732C18.5539 125.57 18.7776 125.358 18.93 125.096C19.0858 124.831 19.1637 124.547 19.1637 124.246V123.261C19.1107 123.314 19.0079 123.364 18.8555 123.411C18.7063 123.454 18.5356 123.492 18.3434 123.525C18.1512 123.555 17.9639 123.583 17.7816 123.609C17.5993 123.633 17.4469 123.652 17.3242 123.669C17.0359 123.705 16.7724 123.767 16.5337 123.853C16.2984 123.939 16.1095 124.063 15.967 124.226C15.8278 124.385 15.7582 124.597 15.7582 124.862C15.7582 125.23 15.8941 125.509 16.1658 125.697C16.4376 125.883 16.784 125.976 17.2049 125.976ZM26.3468 127.154C25.6077 127.154 24.9713 126.987 24.4377 126.652C23.9074 126.314 23.4997 125.848 23.2147 125.255C22.9296 124.662 22.7871 123.982 22.7871 123.217C22.7871 122.441 22.9329 121.757 23.2246 121.163C23.5163 120.567 23.9273 120.101 24.4576 119.766C24.9879 119.432 25.6126 119.264 26.3319 119.264C26.9119 119.264 27.4289 119.372 27.883 119.587C28.3371 119.799 28.7033 120.098 28.9817 120.482C29.2634 120.867 29.4308 121.316 29.4838 121.83H28.0371C27.9576 121.472 27.7753 121.163 27.4902 120.905C27.2085 120.646 26.8307 120.517 26.3567 120.517C25.9424 120.517 25.5795 120.626 25.2679 120.845C24.9597 121.061 24.7194 121.369 24.5471 121.77C24.3747 122.168 24.2885 122.638 24.2885 123.182C24.2885 123.739 24.373 124.219 24.5421 124.624C24.7111 125.028 24.9498 125.341 25.258 125.563C25.5695 125.785 25.9358 125.896 26.3567 125.896C26.6384 125.896 26.8936 125.845 27.1223 125.742C27.3543 125.636 27.5482 125.485 27.704 125.29C27.8631 125.094 27.9741 124.859 28.0371 124.584H29.4838C29.4308 125.078 29.2701 125.518 29.0016 125.906C28.7331 126.294 28.3735 126.599 27.9228 126.821C27.4753 127.043 26.95 127.154 26.3468 127.154ZM32.9407 124.41L32.9308 122.595H33.1893L36.2319 119.364H38.0117L34.5415 123.043H34.3079L32.9407 124.41ZM31.5735 127V116.818H33.06V127H31.5735ZM36.396 127L33.6616 123.371L34.6857 122.332L38.2205 127H36.396ZM42.7537 130.023C42.1472 130.023 41.6252 129.943 41.1877 129.784C40.7535 129.625 40.3989 129.415 40.1238 129.153C39.8487 128.891 39.6432 128.604 39.5073 128.293L40.785 127.766C40.8745 127.911 40.9938 128.066 41.1429 128.228C41.2954 128.394 41.5009 128.535 41.7594 128.651C42.0212 128.767 42.3577 128.825 42.7686 128.825C43.3321 128.825 43.7978 128.687 44.1657 128.412C44.5336 128.14 44.7175 127.706 44.7175 127.109V125.608H44.623C44.5336 125.77 44.4043 125.951 44.2353 126.15C44.0695 126.349 43.8409 126.521 43.5492 126.667C43.2575 126.813 42.878 126.886 42.4107 126.886C41.8075 126.886 41.2639 126.745 40.78 126.463C40.2994 126.178 39.9183 125.759 39.6365 125.205C39.3581 124.648 39.2189 123.964 39.2189 123.152C39.2189 122.34 39.3565 121.644 39.6316 121.064C39.91 120.484 40.2911 120.04 40.775 119.732C41.2589 119.42 41.8075 119.264 42.4206 119.264C42.8946 119.264 43.2774 119.344 43.5691 119.503C43.8607 119.659 44.0878 119.841 44.2502 120.05C44.4159 120.259 44.5435 120.442 44.633 120.602H44.7424V119.364H46.199V127.169C46.199 127.825 46.0466 128.364 45.7417 128.785C45.4367 129.206 45.0241 129.517 44.5037 129.719C43.9867 129.922 43.4034 130.023 42.7537 130.023ZM42.7388 125.653C43.1664 125.653 43.5276 125.553 43.8226 125.354C44.1209 125.152 44.3463 124.864 44.4988 124.489C44.6545 124.112 44.7324 123.659 44.7324 123.132C44.7324 122.618 44.6562 122.166 44.5037 121.775C44.3513 121.384 44.1275 121.079 43.8326 120.86C43.5376 120.638 43.173 120.527 42.7388 120.527C42.2914 120.527 41.9185 120.643 41.6202 120.875C41.3219 121.104 41.0965 121.415 40.9441 121.81C40.7949 122.204 40.7203 122.645 40.7203 123.132C40.7203 123.633 40.7966 124.072 40.949 124.45C41.1015 124.827 41.3269 125.122 41.6252 125.335C41.9268 125.547 42.298 125.653 42.7388 125.653ZM48.6926 127V119.364H50.1294V120.577H50.209C50.3482 120.166 50.5935 119.843 50.9448 119.607C51.2994 119.369 51.7005 119.249 52.1479 119.249C52.2407 119.249 52.3501 119.253 52.476 119.259C52.6053 119.266 52.7064 119.274 52.7793 119.284V120.706C52.7196 120.689 52.6136 120.671 52.4611 120.651C52.3087 120.628 52.1562 120.616 52.0037 120.616C51.6524 120.616 51.3392 120.691 51.0641 120.84C50.7923 120.986 50.5769 121.19 50.4178 121.452C50.2587 121.71 50.1792 122.005 50.1792 122.337V127H48.6926ZM57.5089 127.154C56.793 127.154 56.1682 126.99 55.6346 126.662C55.101 126.334 54.6867 125.875 54.3917 125.285C54.0967 124.695 53.9492 124.005 53.9492 123.217C53.9492 122.424 54.0967 121.732 54.3917 121.138C54.6867 120.545 55.101 120.085 55.6346 119.756C56.1682 119.428 56.793 119.264 57.5089 119.264C58.2248 119.264 58.8496 119.428 59.3832 119.756C59.9168 120.085 60.3311 120.545 60.6261 121.138C60.921 121.732 61.0685 122.424 61.0685 123.217C61.0685 124.005 60.921 124.695 60.6261 125.285C60.3311 125.875 59.9168 126.334 59.3832 126.662C58.8496 126.99 58.2248 127.154 57.5089 127.154ZM57.5138 125.906C57.9779 125.906 58.3623 125.784 58.6673 125.538C58.9722 125.293 59.1976 124.967 59.3434 124.559C59.4925 124.151 59.5671 123.702 59.5671 123.212C59.5671 122.724 59.4925 122.277 59.3434 121.869C59.1976 121.458 58.9722 121.129 58.6673 120.88C58.3623 120.631 57.9779 120.507 57.5138 120.507C57.0465 120.507 56.6587 120.631 56.3505 120.88C56.0456 121.129 55.8185 121.458 55.6694 121.869C55.5236 122.277 55.4506 122.724 55.4506 123.212C55.4506 123.702 55.5236 124.151 55.6694 124.559C55.8185 124.967 56.0456 125.293 56.3505 125.538C56.6587 125.784 57.0465 125.906 57.5138 125.906ZM68.0652 123.833V119.364H69.5566V127H68.095V125.678H68.0154C67.8398 126.085 67.5581 126.425 67.1703 126.697C66.7858 126.965 66.3069 127.099 65.7335 127.099C65.243 127.099 64.8088 126.992 64.4309 126.776C64.0564 126.558 63.7614 126.234 63.546 125.807C63.3339 125.379 63.2278 124.851 63.2278 124.221V119.364H64.7143V124.042C64.7143 124.562 64.8585 124.977 65.1468 125.285C65.4352 125.593 65.8097 125.747 66.2704 125.747C66.5488 125.747 66.8256 125.678 67.1007 125.538C67.3791 125.399 67.6094 125.189 67.7917 124.907C67.9773 124.625 68.0685 124.267 68.0652 123.833ZM73.5405 122.466V127H72.054V119.364H73.4808V120.607H73.5753C73.7509 120.202 74.026 119.877 74.4006 119.632C74.7784 119.387 75.254 119.264 75.8274 119.264C76.3478 119.264 76.8035 119.374 77.1946 119.592C77.5857 119.808 77.889 120.129 78.1044 120.557C78.3198 120.984 78.4276 121.513 78.4276 122.143V127H76.9411V122.322C76.9411 121.768 76.7969 121.336 76.5085 121.024C76.2202 120.709 75.8241 120.552 75.3203 120.552C74.9756 120.552 74.669 120.626 74.4006 120.776C74.1354 120.925 73.925 121.143 73.7692 121.432C73.6167 121.717 73.5405 122.062 73.5405 122.466ZM83.7798 127.149C83.1634 127.149 82.6132 126.992 82.1293 126.677C81.6487 126.359 81.2708 125.906 80.9957 125.32C80.724 124.73 80.5881 124.022 80.5881 123.197C80.5881 122.371 80.7256 121.665 81.0007 121.079C81.2791 120.492 81.6603 120.043 82.1442 119.732C82.6281 119.42 83.1766 119.264 83.7898 119.264C84.2637 119.264 84.6449 119.344 84.9332 119.503C85.2249 119.659 85.4503 119.841 85.6094 120.05C85.7718 120.259 85.8977 120.442 85.9872 120.602H86.0767V116.818H87.5632V127H86.1115V125.812H85.9872C85.8977 125.974 85.7685 126.16 85.5994 126.369C85.4337 126.577 85.205 126.76 84.9134 126.915C84.6217 127.071 84.2438 127.149 83.7798 127.149ZM84.108 125.881C84.5355 125.881 84.8968 125.769 85.1918 125.543C85.4901 125.315 85.7154 124.998 85.8679 124.594C86.0237 124.189 86.1016 123.719 86.1016 123.182C86.1016 122.652 86.0253 122.187 85.8729 121.79C85.7204 121.392 85.4967 121.082 85.2017 120.86C84.9067 120.638 84.5421 120.527 84.108 120.527C83.6605 120.527 83.2876 120.643 82.9893 120.875C82.6911 121.107 82.4657 121.424 82.3132 121.825C82.1641 122.226 82.0895 122.678 82.0895 123.182C82.0895 123.692 82.1657 124.151 82.3182 124.559C82.4706 124.967 82.696 125.29 82.9943 125.528C83.2959 125.764 83.6671 125.881 84.108 125.881Z" fill="#1C1B1E"/>
<defs>
<filter id="filter0_d_825_493" x="0" y="0" width="224" height="100" filterUnits="userSpaceOnUse" color-interpolation-filters="sRGB">
<feFlood flood-opacity="0" result="BackgroundImageFix"/>
<feColorMatrix in="SourceAlpha" type="matrix" values="0 0 0 0 0 0 0 0 0 0 0 0 0 0 0 0 0 0 127 0" result="hardAlpha"/>
<feOffset dy="1"/>
<feGaussianBlur stdDeviation="2"/>
<feComposite in2="hardAlpha" operator="out"/>
<feColorMatrix type="matrix" values="0 0 0 0 0 0 0 0 0 0 0 0 0 0 0 0 0 0 0.1 0"/>
<feBlend mode="normal" in2="BackgroundImageFix" result="effect1_dropShadow_825_493"/>
<feBlend mode="normal" in="SourceGraphic" in2="effect1_dropShadow_825_493" result="shape"/>
</filter>
</defs>
</svg>
