<svg width="224" height="133" viewBox="0 0 224 133" fill="none" xmlns="http://www.w3.org/2000/svg">
<g filter="url(#filter0_d_825_490)">
<rect x="4" y="3" width="216" height="92" rx="8" fill="#CDBDFF"/>
</g>
<path d="M82.8263 54L84.4967 43.8182H85.6899L84.0194 54H82.8263ZM78.2176 51.2756L78.4115 50.0824H86.1274L85.9335 51.2756H78.2176ZM79.2467 54L80.9172 43.8182H82.1104L80.4399 54H79.2467ZM78.8092 47.7358L79.0031 46.5426H86.719L86.5251 47.7358H78.8092ZM96.9981 47.1293H95.447C95.3873 46.7978 95.2763 46.5062 95.1139 46.2543C94.9515 46.0024 94.7526 45.7886 94.5173 45.6129C94.282 45.4373 94.0185 45.3047 93.7268 45.2152C93.4385 45.1257 93.1319 45.081 92.8071 45.081C92.2204 45.081 91.6951 45.2285 91.2311 45.5234C90.7704 45.8184 90.4058 46.2509 90.1373 46.821C89.8722 47.3911 89.7396 48.0871 89.7396 48.9091C89.7396 49.7377 89.8722 50.437 90.1373 51.0071C90.4058 51.5772 90.772 52.008 91.2361 52.2997C91.7001 52.5914 92.2221 52.7372 92.8021 52.7372C93.1236 52.7372 93.4285 52.6941 93.7169 52.608C94.0086 52.5185 94.272 52.3875 94.5074 52.2152C94.7427 52.0429 94.9416 51.8324 95.104 51.5838C95.2697 51.3319 95.384 51.0436 95.447 50.7188L96.9981 50.7237C96.9153 51.2242 96.7545 51.6849 96.5159 52.1058C96.2806 52.5234 95.9773 52.8847 95.6061 53.1896C95.2382 53.4912 94.8173 53.7249 94.3433 53.8906C93.8693 54.0563 93.3523 54.1392 92.7922 54.1392C91.9105 54.1392 91.125 53.9304 90.4356 53.5128C89.7462 53.0919 89.2027 52.4903 88.805 51.7081C88.4105 50.9259 88.2133 49.9929 88.2133 48.9091C88.2133 47.822 88.4122 46.889 88.8099 46.1101C89.2077 45.3279 89.7512 44.728 90.4406 44.3104C91.13 43.8894 91.9139 43.679 92.7922 43.679C93.3324 43.679 93.8362 43.7569 94.3035 43.9126C94.7742 44.0651 95.1968 44.2905 95.5713 44.5888C95.9458 44.8838 96.2557 45.245 96.501 45.6726C96.7462 46.0968 96.912 46.5824 96.9981 47.1293ZM102.633 54H99.3364V43.8182H102.737C103.735 43.8182 104.591 44.022 105.307 44.4297C106.023 44.834 106.572 45.4157 106.953 46.1747C107.337 46.9304 107.53 47.8369 107.53 48.8942C107.53 49.9548 107.336 50.8662 106.948 51.6286C106.563 52.3909 106.007 52.9775 105.277 53.3885C104.548 53.7962 103.667 54 102.633 54ZM100.873 52.6577H102.548C103.324 52.6577 103.968 52.5118 104.482 52.2202C104.996 51.9252 105.38 51.4993 105.635 50.9425C105.891 50.3823 106.018 49.6996 106.018 48.8942C106.018 48.0954 105.891 47.4176 105.635 46.8608C105.383 46.304 105.007 45.8814 104.507 45.593C104.006 45.3047 103.385 45.1605 102.642 45.1605H100.873V52.6577ZM109.94 54V43.8182H113.669C114.391 43.8182 114.989 43.9375 115.463 44.1761C115.937 44.4115 116.292 44.7313 116.527 45.1357C116.763 45.5367 116.88 45.9891 116.88 46.4929C116.88 46.9171 116.802 47.2751 116.647 47.5668C116.491 47.8551 116.282 48.0871 116.02 48.2628C115.762 48.4351 115.477 48.5611 115.165 48.6406V48.7401C115.503 48.7566 115.833 48.866 116.154 49.0682C116.479 49.267 116.748 49.5504 116.96 49.9183C117.172 50.2862 117.278 50.7337 117.278 51.2607C117.278 51.781 117.155 52.2483 116.91 52.6626C116.668 53.0736 116.294 53.4001 115.786 53.642C115.279 53.8807 114.631 54 113.843 54H109.94ZM111.476 52.6825H113.693C114.429 52.6825 114.956 52.54 115.274 52.255C115.593 51.9699 115.752 51.6136 115.752 51.1861C115.752 50.8646 115.67 50.5696 115.508 50.3011C115.346 50.0327 115.114 49.8189 114.812 49.6598C114.514 49.5007 114.159 49.4212 113.748 49.4212H111.476V52.6825ZM111.476 48.223H113.534C113.879 48.223 114.189 48.1567 114.464 48.0241C114.742 47.8916 114.963 47.706 115.125 47.4673C115.291 47.2254 115.374 46.9403 115.374 46.6122C115.374 46.1913 115.226 45.8383 114.931 45.5533C114.636 45.2682 114.184 45.1257 113.574 45.1257H111.476V48.223ZM122.896 54H119.6V43.8182H123.001C123.998 43.8182 124.855 44.022 125.571 44.4297C126.287 44.834 126.835 45.4157 127.217 46.1747C127.601 46.9304 127.793 47.8369 127.793 48.8942C127.793 49.9548 127.599 50.8662 127.212 51.6286C126.827 52.3909 126.27 52.9775 125.541 53.3885C124.812 53.7962 123.93 54 122.896 54ZM121.136 52.6577H122.812C123.587 52.6577 124.232 52.5118 124.746 52.2202C125.259 51.9252 125.644 51.4993 125.899 50.9425C126.154 50.3823 126.282 49.6996 126.282 48.8942C126.282 48.0954 126.154 47.4176 125.899 46.8608C125.647 46.304 125.271 45.8814 124.771 45.593C124.27 45.3047 123.649 45.1605 122.906 45.1605H121.136V52.6577ZM130.204 54V43.8182H136.517V45.1406H131.74V48.2429H136.065V49.5604H131.74V54H130.204ZM138.907 54V43.8182H145.221V45.1406H140.443V48.2429H144.768V49.5604H140.443V54H138.907Z" fill="#1C1B1E"/>
<path d="M5.11861 127V116.818H8.74787C9.54001 116.818 10.1963 116.962 10.7166 117.251C11.237 117.539 11.6264 117.933 11.8849 118.434C12.1435 118.931 12.2727 119.491 12.2727 120.114C12.2727 120.741 12.1418 121.304 11.88 121.805C11.6214 122.302 11.2304 122.696 10.7067 122.988C10.1863 123.276 9.53172 123.42 8.7429 123.42H6.24716V122.118H8.60369C9.10417 122.118 9.51018 122.032 9.82173 121.859C10.1333 121.684 10.362 121.445 10.5078 121.143C10.6536 120.842 10.7266 120.499 10.7266 120.114C10.7266 119.73 10.6536 119.388 10.5078 119.09C10.362 118.792 10.1316 118.558 9.81676 118.389C9.50521 118.22 9.09422 118.136 8.58381 118.136H6.65483V127H5.11861ZM14.4544 127V119.364H15.8912V120.577H15.9707C16.1099 120.166 16.3552 119.843 16.7065 119.607C17.0611 119.369 17.4622 119.249 17.9096 119.249C18.0024 119.249 18.1118 119.253 18.2377 119.259C18.367 119.266 18.4681 119.274 18.541 119.284V120.706C18.4814 120.689 18.3753 120.671 18.2228 120.651C18.0704 120.628 17.9179 120.616 17.7654 120.616C17.4141 120.616 17.1009 120.691 16.8258 120.84C16.554 120.986 16.3386 121.19 16.1795 121.452C16.0204 121.71 15.9409 122.005 15.9409 122.337V127H14.4544ZM20.3274 127V119.364H21.8139V127H20.3274ZM21.0781 118.185C20.8196 118.185 20.5975 118.099 20.4119 117.927C20.2296 117.751 20.1385 117.542 20.1385 117.3C20.1385 117.055 20.2296 116.846 20.4119 116.674C20.5975 116.498 20.8196 116.411 21.0781 116.411C21.3366 116.411 21.5571 116.498 21.7393 116.674C21.925 116.846 22.0178 117.055 22.0178 117.3C22.0178 117.542 21.925 117.751 21.7393 117.927C21.5571 118.099 21.3366 118.185 21.0781 118.185ZM24.3137 127V119.364H25.7406V120.607H25.835C25.9941 120.186 26.2543 119.857 26.6156 119.622C26.9769 119.384 27.4094 119.264 27.9132 119.264C28.4236 119.264 28.8511 119.384 29.1958 119.622C29.5439 119.861 29.8007 120.189 29.9664 120.607H30.046C30.2283 120.199 30.5183 119.874 30.916 119.632C31.3137 119.387 31.7877 119.264 32.3379 119.264C33.0306 119.264 33.5957 119.481 34.0332 119.915C34.474 120.35 34.6944 121.004 34.6944 121.879V127H33.2079V122.018C33.2079 121.501 33.0671 121.127 32.7853 120.895C32.5036 120.663 32.1672 120.547 31.7761 120.547C31.2922 120.547 30.916 120.696 30.6475 120.994C30.3791 121.289 30.2449 121.669 30.2449 122.133V127H28.7633V121.924C28.7633 121.51 28.6341 121.177 28.3755 120.925C28.117 120.673 27.7806 120.547 27.3663 120.547C27.0846 120.547 26.8244 120.621 26.5858 120.771C26.3504 120.916 26.1599 121.12 26.014 121.382C25.8715 121.644 25.8002 121.947 25.8002 122.292V127H24.3137ZM39.4091 127.169C38.9252 127.169 38.4877 127.08 38.0966 126.901C37.7055 126.718 37.3956 126.455 37.1669 126.11C36.9415 125.765 36.8288 125.343 36.8288 124.842C36.8288 124.411 36.9117 124.057 37.0774 123.778C37.2431 123.5 37.4669 123.28 37.7486 123.117C38.0303 122.955 38.3452 122.832 38.6932 122.749C39.0412 122.666 39.3958 122.603 39.7571 122.56C40.2145 122.507 40.5857 122.464 40.8707 122.431C41.1558 122.395 41.3629 122.337 41.4922 122.257C41.6214 122.178 41.6861 122.048 41.6861 121.869V121.835C41.6861 121.4 41.5634 121.064 41.3182 120.825C41.0762 120.587 40.715 120.467 40.2344 120.467C39.7339 120.467 39.3395 120.578 39.0511 120.8C38.7661 121.019 38.5689 121.263 38.4595 121.531L37.0625 121.213C37.2282 120.749 37.4702 120.375 37.7884 120.089C38.1098 119.801 38.4794 119.592 38.897 119.463C39.3146 119.33 39.7538 119.264 40.2145 119.264C40.5194 119.264 40.8426 119.301 41.1839 119.374C41.5286 119.443 41.8501 119.572 42.1484 119.761C42.45 119.95 42.697 120.22 42.8892 120.572C43.0814 120.92 43.1776 121.372 43.1776 121.929V127H41.7259V125.956H41.6662C41.5701 126.148 41.4259 126.337 41.2337 126.523C41.0414 126.708 40.7945 126.862 40.4929 126.985C40.1913 127.108 39.83 127.169 39.4091 127.169ZM39.7322 125.976C40.1432 125.976 40.4946 125.895 40.7862 125.732C41.0812 125.57 41.3049 125.358 41.4574 125.096C41.6132 124.831 41.6911 124.547 41.6911 124.246V123.261C41.638 123.314 41.5353 123.364 41.3828 123.411C41.2337 123.454 41.063 123.492 40.8707 123.525C40.6785 123.555 40.4912 123.583 40.3089 123.609C40.1267 123.633 39.9742 123.652 39.8516 123.669C39.5632 123.705 39.2997 123.767 39.0611 123.853C38.8258 123.939 38.6368 124.063 38.4943 124.226C38.3551 124.385 38.2855 124.597 38.2855 124.862C38.2855 125.23 38.4214 125.509 38.6932 125.697C38.965 125.883 39.3113 125.976 39.7322 125.976ZM45.6575 127V119.364H47.0943V120.577H47.1738C47.313 120.166 47.5583 119.843 47.9096 119.607C48.2643 119.369 48.6653 119.249 49.1127 119.249C49.2056 119.249 49.3149 119.253 49.4409 119.259C49.5701 119.266 49.6712 119.274 49.7441 119.284V120.706C49.6845 120.689 49.5784 120.671 49.426 120.651C49.2735 120.628 49.121 120.616 48.9686 120.616C48.6172 120.616 48.304 120.691 48.0289 120.84C47.7572 120.986 47.5417 121.19 47.3826 121.452C47.2235 121.71 47.144 122.005 47.144 122.337V127H45.6575ZM52.7026 129.864C52.4805 129.864 52.2783 129.845 52.0961 129.809C51.9138 129.776 51.7779 129.739 51.6884 129.7L52.0463 128.482C52.3181 128.554 52.5601 128.586 52.7722 128.576C52.9843 128.566 53.1716 128.487 53.334 128.337C53.4997 128.188 53.6455 127.945 53.7715 127.607L53.9554 127.099L51.1614 119.364H52.7523L54.6863 125.29H54.7658L56.6998 119.364H58.2956L55.1486 128.019C55.0028 128.417 54.8172 128.753 54.5918 129.028C54.3664 129.307 54.098 129.516 53.7864 129.655C53.4748 129.794 53.1136 129.864 52.7026 129.864Z" fill="#1C1B1E"/>
<defs>
<filter id="filter0_d_825_490" x="0" y="0" width="224" height="100" filterUnits="userSpaceOnUse" color-interpolation-filters="sRGB">
<feFlood flood-opacity="0" result="BackgroundImageFix"/>
<feColorMatrix in="SourceAlpha" type="matrix" values="0 0 0 0 0 0 0 0 0 0 0 0 0 0 0 0 0 0 127 0" result="hardAlpha"/>
<feOffset dy="1"/>
<feGaussianBlur stdDeviation="2"/>
<feComposite in2="hardAlpha" operator="out"/>
<feColorMatrix type="matrix" values="0 0 0 0 0 0 0 0 0 0 0 0 0 0 0 0 0 0 0.1 0"/>
<feBlend mode="normal" in2="BackgroundImageFix" result="effect1_dropShadow_825_490"/>
<feBlend mode="normal" in="SourceGraphic" in2="effect1_dropShadow_825_490" result="shape"/>
</filter>
</defs>
</svg>
