<svg width="224" height="133" viewBox="0 0 224 133" fill="none" xmlns="http://www.w3.org/2000/svg">
<g filter="url(#filter0_d_825_505)">
<rect x="4" y="3" width="216" height="92" rx="8" fill="#1C1B1E"/>
</g>
<path d="M86.9893 54L88.6598 43.8182H89.853L88.1825 54H86.9893ZM82.3807 51.2756L82.5746 50.0824H90.2905L90.0966 51.2756H82.3807ZM83.4098 54L85.0803 43.8182H86.2734L84.603 54H83.4098ZM82.9723 47.7358L83.1662 46.5426H90.8821L90.6882 47.7358H82.9723ZM96.4283 43.8182V54H94.8871V45.3594H94.8274L92.3913 46.9503V45.4787L94.9318 43.8182H96.4283ZM108.278 47.1293H106.727C106.668 46.7978 106.557 46.5062 106.394 46.2543C106.232 46.0024 106.033 45.7886 105.798 45.6129C105.562 45.4373 105.299 45.3047 105.007 45.2152C104.719 45.1257 104.412 45.081 104.087 45.081C103.501 45.081 102.975 45.2285 102.511 45.5234C102.051 45.8184 101.686 46.2509 101.418 46.821C101.152 47.3911 101.02 48.0871 101.02 48.9091C101.02 49.7377 101.152 50.437 101.418 51.0071C101.686 51.5772 102.052 52.008 102.516 52.2997C102.98 52.5914 103.502 52.7372 104.082 52.7372C104.404 52.7372 104.709 52.6941 104.997 52.608C105.289 52.5185 105.552 52.3875 105.788 52.2152C106.023 52.0429 106.222 51.8324 106.384 51.5838C106.55 51.3319 106.664 51.0436 106.727 50.7188L108.278 50.7237C108.196 51.2242 108.035 51.6849 107.796 52.1058C107.561 52.5234 107.258 52.8847 106.886 53.1896C106.518 53.4912 106.098 53.7249 105.624 53.8906C105.15 54.0563 104.633 54.1392 104.072 54.1392C103.191 54.1392 102.405 53.9304 101.716 53.5128C101.027 53.0919 100.483 52.4903 100.085 51.7081C99.6908 50.9259 99.4936 49.9929 99.4936 48.9091C99.4936 47.822 99.6925 46.889 100.09 46.1101C100.488 45.3279 101.031 44.728 101.721 44.3104C102.41 43.8894 103.194 43.679 104.072 43.679C104.613 43.679 105.116 43.7569 105.584 43.9126C106.054 44.0651 106.477 44.2905 106.852 44.5888C107.226 44.8838 107.536 45.245 107.781 45.6726C108.027 46.0968 108.192 46.5824 108.278 47.1293ZM114.34 43.8182V54H112.799V45.3594H112.74L110.303 46.9503V45.4787L112.844 43.8182H114.34ZM117.734 54V43.8182H121.463C122.185 43.8182 122.783 43.9375 123.257 44.1761C123.731 44.4115 124.086 44.7313 124.321 45.1357C124.557 45.5367 124.674 45.9891 124.674 46.4929C124.674 46.9171 124.596 47.2751 124.441 47.5668C124.285 47.8551 124.076 48.0871 123.814 48.2628C123.556 48.4351 123.271 48.5611 122.959 48.6406V48.7401C123.297 48.7566 123.627 48.866 123.948 49.0682C124.273 49.267 124.542 49.5504 124.754 49.9183C124.966 50.2862 125.072 50.7337 125.072 51.2607C125.072 51.781 124.949 52.2483 124.704 52.6626C124.462 53.0736 124.088 53.4001 123.58 53.642C123.073 53.8807 122.425 54 121.637 54H117.734ZM119.27 52.6825H121.487C122.223 52.6825 122.75 52.54 123.068 52.255C123.387 51.9699 123.546 51.6136 123.546 51.1861C123.546 50.8646 123.464 50.5696 123.302 50.3011C123.14 50.0327 122.908 49.8189 122.606 49.6598C122.308 49.5007 121.953 49.4212 121.542 49.4212H119.27V52.6825ZM119.27 48.223H121.328C121.673 48.223 121.983 48.1567 122.258 48.0241C122.536 47.8916 122.757 47.706 122.919 47.4673C123.085 47.2254 123.168 46.9403 123.168 46.6122C123.168 46.1913 123.02 45.8383 122.725 45.5533C122.43 45.2682 121.978 45.1257 121.368 45.1257H119.27V48.223ZM131.118 43.8182V54H129.577V45.3594H129.517L127.081 46.9503V45.4787L129.621 43.8182H131.118ZM134.511 54V43.8182H140.895V45.1406H136.047V48.2429H140.562V49.5604H136.047V52.6776H140.954V54H134.511Z" fill="#E6E1E6"/>
<path d="M10.6719 119.493C10.6188 119.022 10.4001 118.658 10.0156 118.399C9.63116 118.137 9.14725 118.006 8.56392 118.006C8.14631 118.006 7.78504 118.073 7.48011 118.205C7.17519 118.335 6.93821 118.513 6.76918 118.742C6.60346 118.968 6.5206 119.224 6.5206 119.513C6.5206 119.755 6.57694 119.964 6.68963 120.139C6.80563 120.315 6.95644 120.462 7.14205 120.582C7.33097 120.698 7.53314 120.795 7.74858 120.875C7.96402 120.951 8.17116 121.014 8.37003 121.064L9.36435 121.322C9.68916 121.402 10.0223 121.51 10.3636 121.646C10.705 121.781 11.0215 121.96 11.3132 122.183C11.6049 122.405 11.8402 122.68 12.0192 123.008C12.2015 123.336 12.2926 123.729 12.2926 124.186C12.2926 124.763 12.1435 125.275 11.8452 125.722C11.5502 126.17 11.121 126.523 10.5575 126.781C9.9974 127.04 9.3196 127.169 8.52415 127.169C7.76184 127.169 7.10227 127.048 6.54545 126.806C5.98864 126.564 5.55279 126.221 5.23793 125.777C4.92306 125.33 4.74905 124.799 4.71591 124.186H6.2571C6.28693 124.554 6.40625 124.861 6.61506 125.106C6.82718 125.348 7.0973 125.528 7.42543 125.648C7.75687 125.764 8.11979 125.822 8.5142 125.822C8.94839 125.822 9.33452 125.754 9.67259 125.618C10.014 125.479 10.2824 125.286 10.478 125.041C10.6735 124.793 10.7713 124.503 10.7713 124.171C10.7713 123.87 10.6851 123.623 10.5128 123.43C10.3438 123.238 10.1134 123.079 9.82173 122.953C9.53338 122.827 9.20691 122.716 8.84233 122.62L7.6392 122.292C6.82386 122.07 6.17756 121.743 5.70028 121.312C5.22633 120.882 4.98935 120.312 4.98935 119.602C4.98935 119.016 5.14844 118.504 5.46662 118.066C5.7848 117.629 6.21567 117.289 6.75923 117.047C7.30279 116.802 7.91596 116.679 8.59872 116.679C9.28812 116.679 9.89631 116.8 10.4233 117.042C10.9536 117.284 11.3712 117.617 11.6761 118.041C11.9811 118.462 12.1402 118.946 12.1534 119.493H10.6719ZM19.3464 123.833V119.364H20.8379V127H19.3762V125.678H19.2967C19.121 126.085 18.8393 126.425 18.4515 126.697C18.0671 126.965 17.5881 127.099 17.0147 127.099C16.5242 127.099 16.09 126.992 15.7122 126.776C15.3377 126.558 15.0427 126.234 14.8272 125.807C14.6151 125.379 14.5091 124.851 14.5091 124.221V119.364H15.9956V124.042C15.9956 124.562 16.1397 124.977 16.4281 125.285C16.7164 125.593 17.091 125.747 17.5517 125.747C17.8301 125.747 18.1068 125.678 18.3819 125.538C18.6603 125.399 18.8907 125.189 19.073 124.907C19.2586 124.625 19.3497 124.267 19.3464 123.833ZM23.3352 127V119.364H24.772V120.577H24.8516C24.9908 120.166 25.236 119.843 25.5874 119.607C25.942 119.369 26.343 119.249 26.7905 119.249C26.8833 119.249 26.9927 119.253 27.1186 119.259C27.2479 119.266 27.349 119.274 27.4219 119.284V120.706C27.3622 120.689 27.2562 120.671 27.1037 120.651C26.9512 120.628 26.7988 120.616 26.6463 120.616C26.295 120.616 25.9818 120.691 25.7067 120.84C25.4349 120.986 25.2195 121.19 25.0604 121.452C24.9013 121.71 24.8217 122.005 24.8217 122.337V127H23.3352ZM33.2937 119.364V120.557H28.9783V119.364H33.2937ZM30.1616 127V118.479C30.1616 118.001 30.266 117.605 30.4748 117.29C30.6836 116.972 30.9603 116.735 31.305 116.58C31.6497 116.42 32.0243 116.341 32.4286 116.341C32.7269 116.341 32.9821 116.366 33.1942 116.415C33.4064 116.462 33.5638 116.505 33.6665 116.545L33.3185 117.748C33.2489 117.728 33.1594 117.705 33.0501 117.678C32.9407 117.648 32.8081 117.634 32.6523 117.634C32.2911 117.634 32.0326 117.723 31.8768 117.902C31.7243 118.081 31.6481 118.339 31.6481 118.678V127H30.1616ZM37.3173 127.169C36.8334 127.169 36.3959 127.08 36.0048 126.901C35.6137 126.718 35.3038 126.455 35.0751 126.11C34.8497 125.765 34.737 125.343 34.737 124.842C34.737 124.411 34.8199 124.057 34.9856 123.778C35.1513 123.5 35.3751 123.28 35.6568 123.117C35.9385 122.955 36.2534 122.832 36.6014 122.749C36.9494 122.666 37.304 122.603 37.6653 122.56C38.1227 122.507 38.4939 122.464 38.7789 122.431C39.064 122.395 39.2711 122.337 39.4004 122.257C39.5297 122.178 39.5943 122.048 39.5943 121.869V121.835C39.5943 121.4 39.4717 121.064 39.2264 120.825C38.9844 120.587 38.6232 120.467 38.1426 120.467C37.6421 120.467 37.2477 120.578 36.9593 120.8C36.6743 121.019 36.4771 121.263 36.3677 121.531L34.9707 121.213C35.1364 120.749 35.3784 120.375 35.6966 120.089C36.0181 119.801 36.3876 119.592 36.8052 119.463C37.2228 119.33 37.662 119.264 38.1227 119.264C38.4276 119.264 38.7508 119.301 39.0922 119.374C39.4368 119.443 39.7583 119.572 40.0566 119.761C40.3583 119.95 40.6052 120.22 40.7974 120.572C40.9896 120.92 41.0858 121.372 41.0858 121.929V127H39.6341V125.956H39.5744C39.4783 126.148 39.3341 126.337 39.1419 126.523C38.9496 126.708 38.7027 126.862 38.4011 126.985C38.0995 127.108 37.7382 127.169 37.3173 127.169ZM37.6404 125.976C38.0514 125.976 38.4028 125.895 38.6944 125.732C38.9894 125.57 39.2131 125.358 39.3656 125.096C39.5214 124.831 39.5993 124.547 39.5993 124.246V123.261C39.5462 123.314 39.4435 123.364 39.291 123.411C39.1419 123.454 38.9712 123.492 38.7789 123.525C38.5867 123.555 38.3994 123.583 38.2172 123.609C38.0349 123.633 37.8824 123.652 37.7598 123.669C37.4714 123.705 37.2079 123.767 36.9693 123.853C36.734 123.939 36.545 124.063 36.4025 124.226C36.2633 124.385 36.1937 124.597 36.1937 124.862C36.1937 125.23 36.3296 125.509 36.6014 125.697C36.8732 125.883 37.2195 125.976 37.6404 125.976ZM46.7823 127.154C46.0432 127.154 45.4068 126.987 44.8732 126.652C44.3429 126.314 43.9353 125.848 43.6502 125.255C43.3652 124.662 43.2227 123.982 43.2227 123.217C43.2227 122.441 43.3685 121.757 43.6602 121.163C43.9518 120.567 44.3628 120.101 44.8931 119.766C45.4234 119.432 46.0482 119.264 46.7674 119.264C47.3474 119.264 47.8645 119.372 48.3185 119.587C48.7726 119.799 49.1388 120.098 49.4173 120.482C49.699 120.867 49.8664 121.316 49.9194 121.83H48.4727C48.3931 121.472 48.2108 121.163 47.9258 120.905C47.6441 120.646 47.2662 120.517 46.7923 120.517C46.378 120.517 46.015 120.626 45.7035 120.845C45.3952 121.061 45.1549 121.369 44.9826 121.77C44.8103 122.168 44.7241 122.638 44.7241 123.182C44.7241 123.739 44.8086 124.219 44.9776 124.624C45.1467 125.028 45.3853 125.341 45.6935 125.563C46.0051 125.785 46.3713 125.896 46.7923 125.896C47.074 125.896 47.3292 125.845 47.5579 125.742C47.7899 125.636 47.9838 125.485 48.1396 125.29C48.2987 125.094 48.4097 124.859 48.4727 124.584H49.9194C49.8664 125.078 49.7056 125.518 49.4371 125.906C49.1687 126.294 48.8091 126.599 48.3583 126.821C47.9109 127.043 47.3855 127.154 46.7823 127.154ZM55.3002 127.154C54.5479 127.154 53.8999 126.993 53.3564 126.672C52.8161 126.347 52.3985 125.891 52.1035 125.305C51.8118 124.715 51.666 124.024 51.666 123.232C51.666 122.449 51.8118 121.76 52.1035 121.163C52.3985 120.567 52.8095 120.101 53.3365 119.766C53.8668 119.432 54.4866 119.264 55.1958 119.264C55.6267 119.264 56.0443 119.335 56.4487 119.478C56.853 119.621 57.216 119.844 57.5375 120.149C57.859 120.454 58.1125 120.85 58.2981 121.337C58.4837 121.821 58.5765 122.41 58.5765 123.102V123.629H52.5062V122.516H57.1199C57.1199 122.125 57.0403 121.778 56.8812 121.477C56.7221 121.172 56.4984 120.931 56.21 120.756C55.925 120.58 55.5903 120.492 55.2058 120.492C54.7882 120.492 54.4236 120.595 54.112 120.8C53.8038 121.003 53.5652 121.268 53.3961 121.596C53.2304 121.921 53.1475 122.274 53.1475 122.655V123.525C53.1475 124.035 53.237 124.469 53.416 124.827C53.5983 125.185 53.8519 125.459 54.1767 125.648C54.5015 125.833 54.881 125.926 55.3152 125.926C55.5969 125.926 55.8538 125.886 56.0858 125.807C56.3178 125.724 56.5183 125.601 56.6873 125.439C56.8564 125.277 56.9856 125.076 57.0751 124.837L58.4821 125.091C58.3694 125.505 58.1672 125.868 57.8755 126.18C57.5872 126.488 57.2243 126.728 56.7868 126.901C56.3526 127.07 55.8571 127.154 55.3002 127.154Z" fill="#1C1B1E"/>
<defs>
<filter id="filter0_d_825_505" x="0" y="0" width="224" height="100" filterUnits="userSpaceOnUse" color-interpolation-filters="sRGB">
<feFlood flood-opacity="0" result="BackgroundImageFix"/>
<feColorMatrix in="SourceAlpha" type="matrix" values="0 0 0 0 0 0 0 0 0 0 0 0 0 0 0 0 0 0 127 0" result="hardAlpha"/>
<feOffset dy="1"/>
<feGaussianBlur stdDeviation="2"/>
<feComposite in2="hardAlpha" operator="out"/>
<feColorMatrix type="matrix" values="0 0 0 0 0 0 0 0 0 0 0 0 0 0 0 0 0 0 0.1 0"/>
<feBlend mode="normal" in2="BackgroundImageFix" result="effect1_dropShadow_825_505"/>
<feBlend mode="normal" in="SourceGraphic" in2="effect1_dropShadow_825_505" result="shape"/>
</filter>
</defs>
</svg>
