<svg width="20" height="20" viewBox="0 0 20 20" fill="none" xmlns="http://www.w3.org/2000/svg">
<path d="M12.4456 12.9746C12.2568 13.069 12.049 13.1635 11.8602 13.2768C9.46175 14.6743 7.74313 16.9216 7.02547 19.5657C7.95089 19.849 8.95181 20 9.97164 20C11.388 20 12.729 19.7167 13.9376 19.188C13.7299 17.0539 13.22 14.9577 12.4457 12.9746H12.4456Z" fill="#642EF4"/>
<path d="M12.9368 0.434348C12.0114 0.151063 11.0105 0 9.99066 0C8.47981 0 7.06341 0.339942 5.77919 0.925418C7.40335 2.19073 8.85752 3.60718 10.1417 5.21243C11.4825 3.9093 12.4457 2.26628 12.9367 0.434262L12.9368 0.434348Z" fill="#642EF4"/>
<path d="M4.02278 1.96393C2.13422 3.36146 0.774451 5.40111 0.226746 7.76171C2.87074 8.47937 5.68481 8.12054 8.10217 6.72302C8.29103 6.60971 8.47988 6.4964 8.64988 6.38308C7.30902 4.72114 5.76035 3.2292 4.02278 1.96362V1.96393Z" fill="#642EF4"/>
<path d="M14.6928 1.17091C14.0696 3.30504 12.8798 5.23136 11.2556 6.72315C11.6711 7.3275 12.0677 7.95075 12.4454 8.59283C12.8231 9.23491 13.1442 9.87707 13.4653 10.5381C15.5805 9.87707 17.8277 9.82039 19.9999 10.3492V10.0092C19.9999 6.17544 17.847 2.85161 14.6929 1.17065L14.6928 1.17091Z" fill="#642EF4"/>
<path d="M19.7356 12.2381C17.9037 11.7471 15.9963 11.766 14.2021 12.2759C14.9386 14.1833 15.4485 16.1474 15.7318 18.1871C17.7337 16.7896 19.1878 14.6933 19.7356 12.2383L19.7356 12.2381Z" fill="#642EF4"/>
<path d="M10.9347 11.6337C11.1802 11.4826 11.4446 11.3504 11.7091 11.2182C11.4258 10.6516 11.1425 10.0661 10.8025 9.51847C10.4815 8.95189 10.1416 8.42309 9.78272 7.89429C9.5372 8.06426 9.29169 8.21535 9.0462 8.36645C7.13873 9.46183 5.04244 10.0095 2.92725 10.0095C1.9452 10.0095 0.963146 9.89618 0 9.65067V9.99061C0 13.8244 2.15296 17.1482 5.30697 18.8292C6.15685 15.8074 8.15868 13.239 10.9351 11.6336L10.9347 11.6337Z" fill="#642EF4"/>
</svg>
