<svg width="20" height="20" viewBox="0 0 20 20" fill="none" xmlns="http://www.w3.org/2000/svg">
<path d="M9.99991 0C4.47741 0 -9.15527e-05 4.54761 -9.15527e-05 10.1566C-9.15527e-05 14.9158 3.22658 18.898 7.57657 20C7.52991 19.8629 7.49991 19.7038 7.49991 19.5066V17.7706C7.09407 17.7706 6.41407 17.7706 6.24324 17.7706C5.55907 17.7706 4.95074 17.4719 4.65574 16.9166C4.32824 16.2996 4.27157 15.3559 3.45991 14.7787C3.21907 14.5865 3.40241 14.3673 3.67991 14.397C4.19241 14.5442 4.61741 14.9014 5.01741 15.4312C5.41574 15.9619 5.60324 16.0821 6.34741 16.0821C6.70824 16.0821 7.24824 16.0609 7.75657 15.9797C8.02991 15.2747 8.50241 14.6255 9.07991 14.3191C5.74991 13.9712 4.16074 12.2886 4.16074 10.0042C4.16074 9.02074 4.57324 8.0694 5.27408 7.26788C5.04408 6.47228 4.75491 4.84977 5.36241 4.23191C6.86074 4.23191 7.76658 5.21879 7.98408 5.4854C8.73074 5.22556 9.55074 5.07829 10.4124 5.07829C11.2757 5.07829 12.0991 5.22556 12.8474 5.48709C13.0624 5.22218 13.9691 4.23191 15.4707 4.23191C16.0807 4.85061 15.7882 6.4799 15.5557 7.2738C16.2524 8.07364 16.6624 9.02243 16.6624 10.0042C16.6624 12.2869 15.0757 13.9687 11.7507 14.3182C12.6657 14.8032 13.3332 16.1659 13.3332 17.1926V19.5066C13.3332 19.5946 13.3141 19.6581 13.3041 19.7334C17.2007 18.3462 19.9999 14.5882 19.9999 10.1566C19.9999 4.54761 15.5224 0 9.99991 0Z" fill="#79757F"/>
</svg>
