<svg width="20" height="20" viewBox="0 0 20 20" fill="none" xmlns="http://www.w3.org/2000/svg">
<path d="M14.1664 10.0003C14.1664 12.3015 12.301 14.1668 9.99986 14.1668C7.69875 14.1668 5.83329 12.3014 5.83329 10.0003C5.83329 7.69919 7.69875 5.83374 9.99986 5.83374C12.301 5.83374 14.1664 7.69919 14.1664 10.0003Z" fill="#79757F"/>
<path d="M-8.39233e-05 16.6667C-8.39233e-05 18.5085 1.49162 20 3.33317 20H16.6667C18.5084 20 19.9999 18.5083 19.9999 16.6667V3.33326C19.9999 1.49152 18.5082 0 16.6667 0H3.33317C1.49159 0 -8.39233e-05 1.49171 -8.39233e-05 3.33326V16.6667ZM16.6666 1.66686C17.5915 1.66686 18.3333 2.4168 18.3333 3.33357C18.3333 4.25018 17.5917 5.00027 16.6666 5.00027C15.75 5.00027 14.9999 4.25018 14.9999 3.33357C14.9999 2.41664 15.75 1.66686 16.6666 1.66686ZM9.99984 4.16676C13.2164 4.16676 15.8332 6.78336 15.8332 10.0001C15.8332 13.2167 13.2166 15.8335 9.99984 15.8335C6.78323 15.8335 4.16649 13.2167 4.16649 10.0001C4.16649 6.78336 6.78323 4.16676 9.99984 4.16676Z" fill="#79757F"/>
</svg>
