<svg width="21" height="20" viewBox="0 0 21 20" fill="none" xmlns="http://www.w3.org/2000/svg">
<path d="M18.7513 0H2.41609C1.63389 0 0.999908 0.641359 0.999908 1.43296V18.5664C0.999908 19.3581 1.63411 20 2.41609 20H18.7513C19.5333 20 20.1666 19.3577 20.1666 18.5664V1.43296C20.1666 0.641591 19.5333 0 18.7513 0ZM6.81069 16.7414H3.91475V7.7116H6.81069V16.7414ZM5.36301 6.47799H5.34354C4.3724 6.47799 3.74287 5.78497 3.74287 4.91735C3.74287 4.03224 4.39089 3.35801 5.38128 3.35801C6.37176 3.35801 6.98101 4.03206 7.00026 4.91735C7.00026 5.78516 6.37198 6.47799 5.36301 6.47799ZM17.2497 16.7414H14.3547V11.9101C14.3547 10.6962 13.9353 9.86785 12.8883 9.86785C12.0874 9.86785 11.612 10.4267 11.4032 10.9662C11.3258 11.1589 11.3067 11.4284 11.3067 11.6975V16.7412H8.41221C8.41221 16.7412 8.45008 8.55835 8.41221 7.71147H11.3071V8.99163C11.6914 8.37649 12.3782 7.49901 13.9155 7.49901C15.821 7.49901 17.2497 8.78884 17.2497 11.5637V16.7414ZM11.2884 9.06867C11.3017 9.04588 11.3203 9.01845 11.3388 8.99177V9.06867H11.2884Z" fill="#79757F"/>
</svg>
