<svg width="24" height="20" viewBox="0 0 24 20" fill="none" xmlns="http://www.w3.org/2000/svg">
<path d="M23.6665 2.36631C22.8077 2.76787 21.8863 3.0402 20.9181 3.16178C21.9066 2.5371 22.6634 1.54627 23.022 0.369248C22.0947 0.947741 21.0711 1.3678 19.9805 1.59551C19.1071 0.612368 17.8649 0 16.487 0C13.8435 0 11.7002 2.26171 11.7002 5.04962C11.7002 5.44501 11.7424 5.8312 11.8241 6.20049C7.84654 5.98967 4.3195 3.97877 1.9589 0.923119C1.54626 1.66781 1.31151 2.53553 1.31151 3.46179C1.31151 5.21424 2.1572 6.76051 3.4403 7.66517C2.65585 7.63749 1.91807 7.40978 1.27217 7.03127V7.09436C1.27217 9.54069 2.9227 11.5824 5.11123 12.0471C4.71026 12.1609 4.28744 12.224 3.85001 12.224C3.54092 12.224 3.24201 12.1917 2.94893 12.1301C3.55838 14.138 5.32558 15.5981 7.41937 15.6381C5.78195 16.9921 3.71733 17.7967 1.47485 17.7967C1.08848 17.7967 0.707897 17.7721 0.333191 17.7275C2.45176 19.163 4.96692 20 7.67016 20C16.4754 20 21.2885 12.304 21.2885 5.62968L21.2724 4.97579C22.2128 4.26799 23.0264 3.37871 23.6665 2.36631Z" fill="#79757F"/>
</svg>
