<svg width="96" height="66" viewBox="0 0 96 66" fill="none" xmlns="http://www.w3.org/2000/svg">
<path fill-rule="evenodd" clip-rule="evenodd" d="M31.1369 16.4999C35.6933 16.4999 39.3869 12.8063 39.3869 8.24993C39.3869 3.69354 35.6933 0 31.1369 0C26.5805 0 22.887 3.69354 22.887 8.24993C22.887 12.8063 26.5805 16.4999 31.1369 16.4999ZM0 25.114V24.1801L0.00095569 24.1806C0.00095569 23.555 0.249827 22.9557 0.691781 22.5138C1.13373 22.0718 1.73301 21.8235 2.35806 21.8235H59.9176C60.5432 21.8235 61.1425 22.0718 61.5844 22.5138C62.0264 22.9557 62.2747 23.5556 62.2747 24.1806V25.1145C62.2747 25.6796 62.0722 26.2258 61.7033 26.6535C61.3345 27.0813 60.8247 27.3627 60.2659 27.4459L42.0568 30.1665C41.498 30.2502 40.9882 30.5317 40.6194 30.9594C40.2505 31.3872 40.048 31.9333 40.0475 32.4979V63.6429C40.0475 64.2679 39.7991 64.8677 39.3572 65.3097C38.9152 65.7516 38.3159 66 37.6903 66H36.8732C36.2861 66 35.7199 65.781 35.2859 65.3855C34.8518 64.9899 34.5808 64.4464 34.5261 63.8618L33.0166 47.6313L32.5968 43.1128L29.6799 43.1133L29.2884 47.3183L27.7494 63.8613C27.6952 64.4457 27.4243 64.9892 26.9902 65.3849C26.5561 65.78 25.99 65.9994 25.4028 65.9994H24.5847C23.9597 65.9994 23.3604 65.7511 22.9184 65.3091C22.4759 64.8672 22.2276 64.2674 22.2276 63.6423V32.4973C22.2276 31.9328 22.025 31.3866 21.6567 30.9589C21.2879 30.5311 20.778 30.2496 20.2193 30.166H20.2198L2.00936 27.4453C1.45057 27.3617 0.940747 27.0807 0.571919 26.653C0.20309 26.2252 0.000526109 25.679 0 25.114Z" fill="url(#paint0_linear_735_1536)" fill-opacity="0.4"/>
<defs>
<linearGradient id="paint0_linear_735_1536" x1="31.1374" y1="0" x2="31.1374" y2="66" gradientUnits="userSpaceOnUse">
<stop stop-color="#9D2EF4"/>
<stop offset="1" stop-color="#F42E3A"/>
</linearGradient>
</defs>
</svg>
