<svg width="96" height="66" viewBox="0 0 96 66" fill="none" xmlns="http://www.w3.org/2000/svg">
<path fill-rule="evenodd" clip-rule="evenodd" d="M57.8988 8.24996C57.8988 12.8066 54.2055 16.4999 49.6489 16.4999C45.0923 16.4999 41.3989 12.8066 41.3989 8.24996C41.3989 3.69333 45.0923 0 49.6489 0C54.2055 0 57.8988 3.69333 57.8988 8.24996Z" fill="url(#paint0_linear_735_1554)" fill-opacity="0.4"/>
<path fill-rule="evenodd" clip-rule="evenodd" d="M49.6491 23.3754L53.774 31.6253L60.9789 30.8249C63.8522 30.5055 66.4545 32.5404 66.8367 35.4062C67.2067 38.1818 65.2569 40.7311 62.4816 41.1011C62.4384 41.1068 62.3952 41.112 62.3515 41.1166L52.0713 42.2181C49.7885 42.4626 47.5931 41.2633 46.5664 39.2095L42.7741 31.6254L35.8995 42.625L42.8253 50.7052C43.6799 51.7025 44.1495 52.972 44.1495 54.2846V60.5002C44.1495 63.5376 41.687 66 38.6491 66C35.6118 66 33.1494 63.5376 33.1494 60.5002V54.9999L23.4918 45.782C20.398 42.8287 20.0741 38.0006 22.7465 34.6605L31.7745 23.3755L27.6495 19.2505L16.2868 28.5467C14.1507 30.2944 11.0385 30.1391 9.08711 28.1876C7.41074 26.5118 7.41074 23.7945 9.08711 22.1187C9.21256 21.9927 9.34607 21.8753 9.48648 21.766L23.0158 11.2435C27.2726 7.93213 33.3017 8.19568 37.2541 11.8655L49.6491 23.3754Z" fill="url(#paint1_linear_735_1554)" fill-opacity="0.4"/>
<path fill-rule="evenodd" clip-rule="evenodd" d="M21.9866 51.5284L17.03 58.4093C15.5614 60.4488 12.8969 61.2331 10.5576 60.3147L3.24797 57.4454C0.781526 56.4769 -0.538024 53.7853 0.207713 51.2424C0.852815 49.0424 3.15928 47.7816 5.35996 48.4267C5.51878 48.4733 5.67531 48.5291 5.82724 48.5947L11.1498 50.8753L17.5519 42.0723C17.1301 44.5704 17.869 47.2049 19.7122 49.1403L21.9866 51.5284Z" fill="url(#paint2_linear_735_1554)" fill-opacity="0.4"/>
<defs>
<linearGradient id="paint0_linear_735_1554" x1="49.6489" y1="0" x2="49.6489" y2="16.4999" gradientUnits="userSpaceOnUse">
<stop stop-color="#9D2EF4"/>
<stop offset="1" stop-color="#F42E3A"/>
</linearGradient>
<linearGradient id="paint1_linear_735_1554" x1="37.3558" y1="8.92603" x2="37.3558" y2="66" gradientUnits="userSpaceOnUse">
<stop stop-color="#9D2EF4"/>
<stop offset="1" stop-color="#F42E3A"/>
</linearGradient>
<linearGradient id="paint2_linear_735_1554" x1="10.9933" y1="42.0723" x2="10.9933" y2="60.6955" gradientUnits="userSpaceOnUse">
<stop stop-color="#9D2EF4"/>
<stop offset="1" stop-color="#F42E3A"/>
</linearGradient>
</defs>
</svg>
