<svg width="24" height="24" viewBox="0 0 24 24" fill="none" xmlns="http://www.w3.org/2000/svg">
<path d="M4 11.9984C4.00868 11.7839 4.25633 11.5359 4.40889 11.3796L9.40823 6.27938C9.74547 5.98704 10.3924 5.8665 10.7694 6.20446C11.1407 6.5374 11.1296 7.18279 10.7598 7.51698L7.25977 11.0984H19.0666C19.582 11.0984 20 11.5014 20 11.9984C20 12.4955 19.582 12.8985 19.0666 12.8985H7.25977L10.7598 16.4799C11.0784 16.7875 11.1372 17.4559 10.7694 17.7924C10.4017 18.1291 9.73178 18.0215 9.40823 17.7173L4.40889 12.6171C4.23853 12.4425 3.99957 12.2378 4 11.9984Z" fill="#1C1B1E"/>
</svg>
