<svg width="96" height="66" viewBox="0 0 96 66" fill="none" xmlns="http://www.w3.org/2000/svg">
<path d="M32.9731 22.7054C27.2836 22.7054 22.7048 27.354 22.7048 32.9737C22.7048 38.5935 27.2836 43.242 32.9731 43.242C38.6626 43.242 43.2414 38.6632 43.2414 32.9737C43.2414 27.2842 38.6626 22.7054 32.9731 22.7054ZM32.9731 38.2468C30.0591 38.2468 27.7003 35.888 27.7003 32.974C27.7003 30.06 30.0591 27.7011 32.9731 27.7011C35.8871 27.7011 38.246 30.06 38.246 32.974C38.246 35.888 35.8871 38.2468 32.9731 38.2468V38.2468Z" fill="url(#paint0_linear_735_1522)" fill-opacity="0.4"/>
<path d="M45.5309 22.9134H56.1463C57.5338 22.9134 58.644 21.8032 58.644 20.4157C58.644 19.0281 57.5338 17.9179 56.1463 17.9179H51.6367L65.1661 4.31919C66.1374 3.34787 66.1374 1.7522 65.1661 0.780863C64.1948 -0.190476 62.5991 -0.190451 61.6278 0.780863L48.0984 14.3102V9.80069C48.0984 8.41318 46.9882 7.30296 45.6007 7.30296C44.2131 7.30296 43.1029 8.41317 43.1029 9.80069V20.416C43.0337 21.8035 44.1439 22.9138 45.5315 22.9138L45.5309 22.9134Z" fill="url(#paint1_linear_735_1522)" fill-opacity="0.4"/>
<path d="M14.3094 17.8486H9.79986C8.41235 17.8486 7.30213 18.9588 7.30213 20.3463C7.30213 21.7339 8.41234 22.8441 9.79986 22.8441H20.4152C21.8027 22.8441 22.913 21.7339 22.913 20.3463V9.80024C22.913 8.41273 21.8027 7.3025 20.4152 7.3025C19.0277 7.3025 17.9175 8.41272 17.9175 9.80024V14.3098L4.31872 0.780393C3.34741 -0.260131 1.75173 -0.260131 0.780393 0.780393C-0.260131 1.75171 -0.260131 3.34738 0.780393 4.31873L14.3094 17.8486Z" fill="url(#paint2_linear_735_1522)" fill-opacity="0.4"/>
<path d="M20.4149 43.0339H9.79958C8.41208 43.0339 7.30185 44.1442 7.30185 45.5317C7.30185 46.9192 8.41206 48.0294 9.79958 48.0294H14.3091L0.779755 61.6282C-0.191559 62.5995 -0.191559 64.1952 0.779755 65.1666C1.26566 65.6525 1.88997 65.9298 2.58355 65.9298C3.20787 65.9298 3.90192 65.6525 4.38734 65.1666L17.9167 51.6371V56.1467C17.9167 57.5342 19.0269 58.6444 20.4144 58.6444C21.8019 58.6444 22.9122 57.5342 22.9122 56.1467L22.9126 45.5313C22.9126 44.1438 21.8024 43.0336 20.4149 43.0336L20.4149 43.0339Z" fill="url(#paint3_linear_735_1522)" fill-opacity="0.4"/>
<path d="M51.6365 48.099H56.146C57.5335 48.099 58.6437 46.9888 58.6437 45.6013C58.6437 44.2137 57.5335 43.1035 56.146 43.1035L45.5307 43.104C44.1432 43.104 43.033 44.2142 43.033 45.6017V56.2171C43.033 57.6046 44.1432 58.7149 45.5307 58.7149C46.9182 58.7149 48.0284 57.6046 48.0284 56.2171V51.7076L61.5577 65.237C62.0436 65.7229 62.6679 66.0002 63.3615 66.0002C63.9858 66.0002 64.6799 65.7229 65.1653 65.237C66.1366 64.2657 66.1366 62.67 65.1653 61.6986L51.6365 48.099Z" fill="url(#paint4_linear_735_1522)" fill-opacity="0.4"/>
<defs>
<linearGradient id="paint0_linear_735_1522" x1="32.9731" y1="22.7054" x2="32.9731" y2="43.242" gradientUnits="userSpaceOnUse">
<stop stop-color="#9D2EF4"/>
<stop offset="1" stop-color="#F42E3A"/>
</linearGradient>
<linearGradient id="paint1_linear_735_1522" x1="54.4972" y1="0.0523682" x2="54.4972" y2="22.9138" gradientUnits="userSpaceOnUse">
<stop stop-color="#9D2EF4"/>
<stop offset="1" stop-color="#F42E3A"/>
</linearGradient>
<linearGradient id="paint2_linear_735_1522" x1="11.4565" y1="0" x2="11.4565" y2="22.8441" gradientUnits="userSpaceOnUse">
<stop stop-color="#9D2EF4"/>
<stop offset="1" stop-color="#F42E3A"/>
</linearGradient>
<linearGradient id="paint3_linear_735_1522" x1="11.482" y1="43.0336" x2="11.482" y2="65.9298" gradientUnits="userSpaceOnUse">
<stop stop-color="#9D2EF4"/>
<stop offset="1" stop-color="#F42E3A"/>
</linearGradient>
<linearGradient id="paint4_linear_735_1522" x1="54.4634" y1="43.1035" x2="54.4634" y2="66.0002" gradientUnits="userSpaceOnUse">
<stop stop-color="#9D2EF4"/>
<stop offset="1" stop-color="#F42E3A"/>
</linearGradient>
</defs>
</svg>
