<svg width="24" height="24" viewBox="0 0 24 24" fill="none" xmlns="http://www.w3.org/2000/svg">
<path fill-rule="evenodd" clip-rule="evenodd" d="M4.07984 17.94L17.9386 4.0812C18.4852 3.53463 19.4752 3.63776 19.9186 4.0812C20.4652 4.62776 20.4652 5.51412 19.9186 6.0612L6.05984 19.92C5.51328 20.4666 4.52324 20.3634 4.07984 19.92C3.53328 19.3734 3.53328 18.4871 4.07984 17.94Z" fill="#1C1B1E"/>
<path fill-rule="evenodd" clip-rule="evenodd" d="M6.05977 4.08L19.9186 17.9388C20.4651 18.4854 20.362 19.4754 19.9186 19.9188C19.372 20.4654 18.4856 20.4654 17.9386 19.9188L4.07977 6.06C3.53321 5.51343 3.63634 4.5234 4.07977 4.08C4.62634 3.53343 5.51269 3.53343 6.05977 4.08Z" fill="#1C1B1E"/>
</svg>
