<svg width="96" height="66" viewBox="0 0 96 66" fill="none" xmlns="http://www.w3.org/2000/svg">
<path d="M70.0564 33.5554L66.1195 31.1295V23.5491C66.1195 21.7302 64.7063 20.3145 62.8888 20.3145C61.0722 20.3145 59.6582 21.7294 59.6582 23.5491L59.6589 32.9491C59.6589 34.0609 60.2645 35.072 61.1728 35.6782L66.6235 39.0136C67.1284 39.3167 67.734 39.5191 68.3395 39.5191C69.45 39.5191 70.4598 38.9128 71.0652 38.0033C71.4687 37.2955 71.6708 36.386 71.4687 35.5774C71.3687 34.768 70.7625 34.0609 70.0562 33.5554L70.0564 33.5554Z" fill="url(#paint0_linear_420_897)" fill-opacity="0.4"/>
<path d="M93.072 26.2783L87.1164 25.3688C86.4094 23.5499 86.208 23.0443 85.4004 21.2247L89.0344 16.3734C90.0442 15.0593 89.8421 13.2404 88.7317 12.1284L83.7851 7.17575C82.6747 6.06393 80.858 5.86161 79.5454 6.87259L74.7002 10.5112C72.8835 9.80333 72.3786 9.60169 70.5612 8.79304L69.6528 2.83C69.4508 1.21269 68.0375 0 66.4222 0H59.4568C57.8415 0 56.4282 1.21264 56.2261 2.83L55.3178 8.79304C53.5011 9.50089 52.9962 9.70253 51.1788 10.5112L46.3336 6.87259C45.0211 5.86159 43.2044 6.06393 42.0938 7.17575L37.1473 12.1284C36.0369 13.2403 35.8348 15.0592 36.8445 16.3734L40.4786 21.2247C39.7716 23.0436 39.5702 23.5492 38.7626 25.3688L32.807 26.2783C31.1917 26.4806 29.9805 27.8956 29.9805 29.5129V36.4871C29.9805 38.1044 31.1916 39.5194 32.807 39.7217L38.7626 40.6312C39.4696 42.4501 39.6709 42.9557 40.4786 44.7753L36.8445 49.6266C35.8348 50.9407 36.0369 52.7596 37.1473 53.8716L42.0938 58.8242C43.2043 59.9361 45.0209 60.1384 46.3336 59.1274L51.1788 55.4888C52.9955 56.1967 53.5004 56.3983 55.3178 57.207L56.2261 63.17C56.4282 64.7873 57.8414 66 59.4568 66H66.4222C68.0375 66 69.4508 64.7874 69.6528 63.17L70.5612 57.207C72.3779 56.4991 72.8828 56.2975 74.7002 55.4888L79.5454 59.1274C80.8579 60.1384 82.6745 59.9361 83.7851 58.8242L88.7317 53.8716C89.8421 52.7597 90.0442 50.9408 89.0344 49.6266L85.4004 44.7753C86.1073 42.9564 86.3087 42.4508 87.1164 40.6312L93.1735 39.7217C94.7888 39.5194 96 38.1044 96 36.4871V29.5129C95.8986 27.7948 94.6875 26.4806 93.0722 26.2783H93.072ZM62.9901 49.1205C54.0059 49.1205 46.8384 41.8433 46.8384 32.9487C46.8384 24.054 54.0059 16.7768 62.9901 16.7768C71.9743 16.7768 79.1418 24.054 79.1418 33.0494C79.1411 42.0447 71.873 49.1203 62.9901 49.1203V49.1205Z" fill="url(#paint1_linear_420_897)" fill-opacity="0.4"/>
<path d="M25.8419 13.9478H9.58962C7.67147 13.9478 6.05615 15.4635 6.05615 17.4856C6.05615 19.4062 7.57005 21.0235 9.58962 21.0235H25.7413C27.6595 21.0235 29.2748 19.5077 29.2748 17.4856C29.2741 15.5651 27.7602 13.9478 25.8421 13.9478H25.8419Z" fill="url(#paint2_linear_420_897)" fill-opacity="0.4"/>
<path d="M23.1165 32.949C23.1165 31.0285 21.6026 29.4111 19.583 29.4111H3.53347C1.61532 29.4111 0 30.9269 0 32.949C0 34.9702 1.5139 36.4869 3.53347 36.4869H19.6852C21.6026 36.4869 23.1165 34.8696 23.1165 32.949Z" fill="url(#paint3_linear_420_897)" fill-opacity="0.4"/>
<path d="M25.8419 44.875H9.58962C7.67147 44.875 6.05615 46.3908 6.05615 48.4129C6.05615 50.3334 7.57005 51.9507 9.58962 51.9507H25.7413C27.6595 51.9507 29.2748 50.4349 29.2748 48.4129C29.2741 46.4923 27.7602 44.875 25.8421 44.875H25.8419Z" fill="url(#paint4_linear_420_897)" fill-opacity="0.4"/>
<defs>
<linearGradient id="paint0_linear_420_897" x1="65.6031" y1="20.3145" x2="65.6031" y2="39.5191" gradientUnits="userSpaceOnUse">
<stop stop-color="#9D2EF4"/>
<stop offset="1" stop-color="#F42E3A"/>
</linearGradient>
<linearGradient id="paint1_linear_420_897" x1="62.9902" y1="0" x2="62.9902" y2="66" gradientUnits="userSpaceOnUse">
<stop stop-color="#9D2EF4"/>
<stop offset="1" stop-color="#F42E3A"/>
</linearGradient>
<linearGradient id="paint2_linear_420_897" x1="17.6655" y1="13.9478" x2="17.6655" y2="21.0235" gradientUnits="userSpaceOnUse">
<stop stop-color="#9D2EF4"/>
<stop offset="1" stop-color="#F42E3A"/>
</linearGradient>
<linearGradient id="paint3_linear_420_897" x1="11.5582" y1="29.4111" x2="11.5582" y2="36.4869" gradientUnits="userSpaceOnUse">
<stop stop-color="#9D2EF4"/>
<stop offset="1" stop-color="#F42E3A"/>
</linearGradient>
<linearGradient id="paint4_linear_420_897" x1="17.6655" y1="44.875" x2="17.6655" y2="51.9507" gradientUnits="userSpaceOnUse">
<stop stop-color="#9D2EF4"/>
<stop offset="1" stop-color="#F42E3A"/>
</linearGradient>
</defs>
</svg>
