<svg width="80" height="80" viewBox="0 0 80 80" fill="none" xmlns="http://www.w3.org/2000/svg">
<rect width="80" height="80" rx="8" fill="#642EF4"/>
<path d="M16.2017 55V25.9091H28.2188C30.3968 25.9091 32.2765 26.3352 33.858 27.1875C35.4489 28.0303 36.6752 29.2093 37.5369 30.7244C38.3987 32.2301 38.8295 33.982 38.8295 35.9801C38.8295 37.9877 38.3892 39.7443 37.5085 41.25C36.6373 42.7462 35.392 43.9062 33.7727 44.7301C32.1534 45.554 30.2311 45.9659 28.0057 45.9659H20.5909V40.4261H26.6989C27.7595 40.4261 28.6449 40.2415 29.3551 39.8722C30.0748 39.5028 30.6193 38.9867 30.9886 38.3239C31.358 37.6515 31.5426 36.8703 31.5426 35.9801C31.5426 35.0805 31.358 34.304 30.9886 33.6506C30.6193 32.9877 30.0748 32.4763 29.3551 32.1165C28.6354 31.7566 27.75 31.5767 26.6989 31.5767H23.233V55H16.2017ZM58.0199 34.6307C57.9252 33.589 57.5038 32.7794 56.7557 32.2017C56.017 31.6146 54.9612 31.321 53.5881 31.321C52.679 31.321 51.9214 31.4394 51.3153 31.6761C50.7093 31.9129 50.2547 32.2396 49.9517 32.6562C49.6487 33.0634 49.4924 33.5322 49.483 34.0625C49.464 34.4981 49.5492 34.8816 49.7386 35.2131C49.9375 35.5445 50.2216 35.8381 50.5909 36.0938C50.9697 36.34 51.4242 36.5578 51.9545 36.7472C52.4848 36.9366 53.0814 37.1023 53.7443 37.2443L56.2443 37.8125C57.6837 38.125 58.9527 38.5417 60.0511 39.0625C61.1591 39.5833 62.0871 40.2036 62.8352 40.9233C63.5928 41.643 64.1657 42.4716 64.554 43.4091C64.9422 44.3466 65.1411 45.3977 65.1506 46.5625C65.1411 48.3996 64.6771 49.9763 63.7585 51.2926C62.84 52.6089 61.5189 53.6174 59.7955 54.3182C58.0814 55.0189 56.0123 55.3693 53.5881 55.3693C51.1544 55.3693 49.0331 55.0047 47.2244 54.2756C45.4157 53.5464 44.0095 52.4384 43.0057 50.9517C42.0019 49.465 41.4858 47.5852 41.4574 45.3125H48.1903C48.2472 46.25 48.4981 47.0312 48.9432 47.6562C49.3883 48.2812 49.9991 48.7547 50.7756 49.0767C51.5616 49.3987 52.4706 49.5597 53.5028 49.5597C54.4498 49.5597 55.2547 49.4318 55.9176 49.1761C56.59 48.9205 57.1061 48.5653 57.4659 48.1108C57.8258 47.6562 58.0104 47.1354 58.0199 46.5483C58.0104 45.9991 57.84 45.5303 57.5085 45.142C57.1771 44.7443 56.6657 44.4034 55.9744 44.1193C55.2926 43.8258 54.4214 43.5559 53.3608 43.3097L50.321 42.5994C47.8021 42.0218 45.8182 41.089 44.3693 39.8011C42.9205 38.5038 42.2008 36.7519 42.2102 34.5455C42.2008 32.7462 42.6837 31.1695 43.6591 29.8153C44.6345 28.4612 45.9839 27.4053 47.7074 26.6477C49.4309 25.8902 51.3958 25.5114 53.6023 25.5114C55.8561 25.5114 57.8116 25.8949 59.4688 26.6619C61.1354 27.4195 62.428 28.4848 63.3466 29.858C64.2652 31.2311 64.7339 32.822 64.7528 34.6307H58.0199Z" fill="white"/>
</svg>
