<svg width="24" height="24" viewBox="0 0 24 24" fill="none" xmlns="http://www.w3.org/2000/svg">
<path d="M20 11.9984C19.9913 11.7839 19.7437 11.5359 19.5911 11.3796L14.5918 6.27938C14.2545 5.98704 13.6076 5.8665 13.2306 6.20446C12.8593 6.5374 12.8704 7.18279 13.2402 7.51698L16.7402 11.0984H4.9334C4.41799 11.0984 4 11.5014 4 11.9984C4 12.4955 4.41797 12.8985 4.9334 12.8985H16.7402L13.2402 16.4799C12.9216 16.7875 12.8628 17.4559 13.2306 17.7924C13.5983 18.1291 14.2682 18.0215 14.5918 17.7173L19.5911 12.6171C19.7615 12.4425 20.0004 12.2378 20 11.9984Z" fill="#1C1B1E"/>
</svg>
