<svg width="418" height="561" viewBox="0 0 418 561" fill="none" xmlns="http://www.w3.org/2000/svg">
<path d="M143.952 232.672C170.253 247.809 196.573 262.93 222.878 278.067C237.351 286.395 260.905 307.641 278.597 307.395C295.71 307.149 321.613 284.329 335.156 276.559C361.456 261.422 387.777 246.301 414.082 231.164C415.394 230.41 417.757 227.98 417.757 226.23V79.19C417.757 77.2642 417.249 75.7408 415.464 74.7291C389.163 59.5921 362.843 44.4711 336.538 29.3341C322.085 21.0177 298.511 -0.243883 280.819 0.00211677C263.706 0.248207 237.803 23.0681 224.26 30.8381C199.076 45.3261 173.897 59.7991 148.713 74.2721C146.038 75.1471 143.69 76.5651 142.502 78.4362C141.436 79.6276 141.276 80.694 141.643 81.6745V228.185C141.659 230.11 142.166 231.63 143.952 232.665L143.952 232.672ZM264.372 23.2116C268.465 20.8678 273.368 17.3678 278.075 14.8639C278.739 15.528 279.301 16.1608 280.348 17.0514C294.364 29.0044 314.664 36.7894 330.66 45.9964C348.754 56.4104 376.055 65.9454 391.07 80.7344C399.398 88.9414 397.335 84.3047 397.335 106.371C397.335 133.918 408.483 207.681 398.664 225.461C389.25 242.508 318.672 270.645 295.084 284.207C290.693 286.727 285.982 289.911 281.205 292.399C280.576 291.77 280.068 291.192 279.103 290.368C263.775 277.278 241.181 268.563 223.732 258.536C207.158 248.997 182.119 240.266 168.361 226.704C159.873 218.321 162.095 222.188 162.095 201.067V82.0466C196.193 62.4136 230.283 42.8126 264.375 23.2106L264.372 23.2116Z" fill="#E24C90"/>
<path d="M82.7915 284.092C57.5925 298.58 32.3935 313.072 7.18954 327.561C4.45904 328.451 2.11533 329.889 0.94343 331.744C-0.0175101 332.811 -0.158168 333.756 0.138742 334.615V481.225C0.138742 483.132 0.591864 484.428 2.36144 485.444C28.6624 500.581 54.9824 515.702 81.2874 530.839C95.8464 539.202 119.193 560.292 136.971 560.011C154.155 559.749 179.932 537.034 193.53 529.21C219.831 514.073 246.151 498.952 272.456 483.815C273.699 483.096 276.183 480.788 276.183 479.089V332.049C276.183 330.142 275.73 328.845 273.96 327.83C247.659 312.693 221.339 297.572 195.034 282.435C180.475 274.071 157.128 252.982 139.35 253.263C122.147 253.544 96.3853 276.259 82.7913 284.083L82.7915 284.092ZM249.462 333.494C257.825 341.857 255.797 337.728 255.797 359.392C255.797 387.005 267.067 460.472 257.145 478.572C247.712 495.81 177.168 523.861 153.575 537.424C149.216 539.928 144.509 543.111 139.751 545.596C139.103 544.931 138.56 544.334 137.564 543.478C122.302 530.369 99.6226 521.654 82.1926 511.646C65.7086 502.162 40.4036 493.412 26.8216 479.814C18.3177 471.291 20.4857 474.67 20.4857 453.916V334.656C54.5597 315.054 88.6307 295.472 122.686 275.875C126.709 273.547 131.627 270.032 136.334 267.547C136.998 268.246 137.611 268.911 138.697 269.84C152.646 281.828 173.049 289.598 189.009 298.785C207.056 309.121 234.654 318.695 249.458 333.5L249.462 333.494Z" fill="#F2CD4A"/>
</svg>
