<svg width="96" height="66" viewBox="0 0 96 66" fill="none" xmlns="http://www.w3.org/2000/svg">
<path d="M2.71675 31.6484L2.57129 33.4878C3.53028 38.9257 7.68609 44.4143 13.703 48.1779C16.8685 50.1574 20.3216 51.486 23.7042 52.0484L29.6926 48.5233C26.0259 48.078 20.406 45.7208 14.8618 42.2443C9.17936 38.6917 4.71082 34.733 2.71648 31.6489L2.71675 31.6484Z" fill="url(#paint0_linear_431_1024)" fill-opacity="0.4"/>
<path d="M0.744355 56.582L0 65.9991L5.96387 62.4886C3.76732 60.7977 1.95638 58.7516 0.744392 56.5821L0.744355 56.582Z" fill="url(#paint1_linear_431_1024)" fill-opacity="0.4"/>
<path d="M25.3673 37.3346C28.3969 29.3494 40.9126 23.3455 55.855 23.3455C56.2298 23.3455 56.5345 23.0413 56.5345 22.6661C56.5345 22.2913 56.2303 21.9866 55.855 21.9866C40.5997 21.9866 27.7666 28.1732 24.2575 36.4924C23.0266 35.5822 21.679 34.6545 20.1889 33.7239C18.3372 32.5636 16.4908 31.5501 14.7154 30.6783C20.5746 26.2984 24.6626 14.6794 24.6626 0.67945C24.6626 0.304671 24.3584 0 23.9832 0C23.6084 0 23.3037 0.304185 23.3037 0.67945C23.3037 14.5848 19.0707 26.3408 13.3025 30.0015C9.91145 28.4611 6.89701 27.5576 4.88241 27.5576C3.94758 27.5576 3.30508 27.7656 3.07013 28.1418C2.97347 28.2911 2.93178 28.4924 2.94125 28.7492C3.05923 30.9691 7.53011 36.0568 15.5839 41.0899C21.5544 44.8354 27.5566 47.2546 30.8757 47.2546C31.4314 47.2546 31.8811 47.1826 32.2137 47.0442C32.4487 46.9452 32.6074 46.8244 32.6998 46.6761C33.4593 45.4589 30.9462 41.6821 25.3681 37.3335L25.3673 37.3346Z" fill="url(#paint2_linear_431_1024)" fill-opacity="0.4"/>
<path d="M2.27249 37.2656L1.82568 42.929C3.27929 47.8743 7.18926 52.6342 12.5727 56.0011C13.3048 56.4602 14.07 56.8757 14.8376 57.2672L21.9414 53.0857C18.8862 52.3807 15.8211 51.1052 12.9821 49.3293C7.93741 46.1737 4.1337 41.836 2.27254 37.2661L2.27249 37.2656Z" fill="url(#paint3_linear_431_1024)" fill-opacity="0.4"/>
<path d="M1.58139 46.0234L0.96875 53.7684C1.9647 56.6838 4.2333 59.5627 7.23161 61.7441L13.4537 58.0816C12.9131 57.7854 12.3749 57.4784 11.8532 57.151C7.17618 54.2262 3.57479 50.2741 1.58141 46.0236L1.58139 46.0234Z" fill="url(#paint4_linear_431_1024)" fill-opacity="0.4"/>
<path d="M9.4981 17.7748L11.0223 14.9887L13.8097 13.4631L11.0223 11.9389L9.4981 9.15234L7.97389 11.9389L5.18604 13.4631L7.97389 14.9887L9.4981 17.7748Z" fill="url(#paint5_linear_431_1024)" fill-opacity="0.4"/>
<path d="M33.5053 19.2676L35.5579 15.5155L39.31 13.4615L35.5579 11.4089L33.5053 7.65625L31.4537 11.4089L27.7002 13.4615L31.4537 15.5155L33.5053 19.2676Z" fill="url(#paint6_linear_431_1024)" fill-opacity="0.4"/>
<path d="M28.0373 24.7716C28.0373 25.9348 27.0949 26.8776 25.9317 26.8776C24.769 26.8776 23.8262 25.9348 23.8262 24.7716C23.8262 23.6089 24.769 22.666 25.9317 22.666C27.0949 22.666 28.0373 23.6089 28.0373 24.7716Z" fill="url(#paint7_linear_431_1024)" fill-opacity="0.4"/>
<path d="M46.5831 18.4539C47.8463 18.4539 49.0336 17.9621 49.9263 17.068C50.1911 16.8031 50.1911 16.3724 49.9263 16.1075C49.6614 15.8427 49.2307 15.8427 48.9658 16.1075C47.652 17.4214 45.5136 17.4214 44.2003 16.1075C43.7165 15.6238 43.4502 14.9813 43.4502 14.298C43.4502 13.6148 43.7151 12.9723 44.2003 12.4886C44.9214 11.766 46.1822 11.766 46.9038 12.4886C47.4459 13.032 47.4459 13.9152 46.9038 14.4582C46.639 14.723 46.639 15.1537 46.9038 15.4186C47.1687 15.6834 47.5994 15.6834 47.8642 15.4186C48.9374 14.3454 48.9374 12.5999 47.8642 11.5277C46.6309 10.2929 44.4732 10.2929 43.2398 11.5277C42.4993 12.2668 42.0918 13.2514 42.0918 14.2976C42.0918 15.3437 42.4993 16.3283 43.2398 17.0675C44.1325 17.962 45.3198 18.4539 46.583 18.4539H46.5831Z" fill="url(#paint8_linear_431_1024)" fill-opacity="0.4"/>
<path d="M57.0266 34.6351C56.7618 34.3702 56.3311 34.3702 56.0662 34.6351C53.8616 36.8398 50.2763 36.8398 48.0716 34.6351C46.3626 32.926 46.3626 30.1439 48.0716 28.4348C49.3879 27.12 51.529 27.12 52.8429 28.4348C53.8412 29.4331 53.8412 31.0593 52.8429 32.058C52.0971 32.8038 50.8828 32.8038 50.1369 32.058C49.5935 31.5146 49.5935 30.6291 50.1369 30.0855C50.4018 29.8207 50.4018 29.39 50.1369 29.1251C49.8721 28.8603 49.4414 28.8603 49.1765 29.1251C48.1033 30.1983 48.1033 31.9452 49.1765 33.0185C50.4521 34.294 52.5278 34.294 53.8037 33.0185C54.5443 32.2779 54.9517 31.2933 54.9517 30.2458C54.9517 29.1983 54.5443 28.2136 53.8037 27.4731C51.9601 25.6295 48.9594 25.628 47.1116 27.4731C44.8743 29.7133 44.8743 33.3569 47.1116 35.5956C48.4781 36.9621 50.2742 37.6458 52.0686 37.6458C53.8634 37.6458 55.6605 36.9625 57.0256 35.5956C57.2918 35.3308 57.2918 34.9001 57.0265 34.6352L57.0266 34.6351Z" fill="url(#paint9_linear_431_1024)" fill-opacity="0.4"/>
<path d="M38.8169 34.7117C38.8169 35.6526 38.054 36.415 37.113 36.415C36.172 36.415 35.4097 35.6526 35.4097 34.7117C35.4097 33.7707 36.172 33.0078 37.113 33.0078C38.054 33.0078 38.8169 33.7707 38.8169 34.7117Z" fill="url(#paint10_linear_431_1024)" fill-opacity="0.4"/>
<path d="M42.7732 39.6211L41.375 42.1778L38.8174 43.5746L41.375 44.9738L42.7732 47.5276L44.1681 44.9738L46.7262 43.5746L44.1681 42.1778L42.7732 39.6211Z" fill="url(#paint11_linear_431_1024)" fill-opacity="0.4"/>
<path d="M10.8044 4.37206C13.7036 4.37206 16.0619 6.30952 16.0619 8.69225C16.0619 9.06703 16.3661 9.3717 16.7413 9.3717C17.1161 9.3717 17.4208 9.06752 17.4208 8.69225C17.4208 5.56088 14.4523 3.01367 10.8049 3.01367C10.4302 3.01367 10.1255 3.31786 10.1255 3.69312C10.125 4.06743 10.4283 4.3721 10.8045 4.3721L10.8044 4.37206Z" fill="url(#paint12_linear_431_1024)" fill-opacity="0.4"/>
<path d="M16.7248 20.1092C16.7248 21.1445 15.8857 21.9841 14.85 21.9841C13.8147 21.9841 12.9756 21.1445 12.9756 20.1092C12.9756 19.074 13.8147 18.2344 14.85 18.2344C15.8857 18.2344 16.7248 19.074 16.7248 20.1092Z" fill="url(#paint13_linear_431_1024)" fill-opacity="0.4"/>
<defs>
<linearGradient id="paint0_linear_431_1024" x1="16.132" y1="31.6484" x2="16.132" y2="52.0484" gradientUnits="userSpaceOnUse">
<stop stop-color="#9D2EF4"/>
<stop offset="1" stop-color="#F42E3A"/>
</linearGradient>
<linearGradient id="paint1_linear_431_1024" x1="2.98193" y1="56.582" x2="2.98193" y2="65.9991" gradientUnits="userSpaceOnUse">
<stop stop-color="#9D2EF4"/>
<stop offset="1" stop-color="#F42E3A"/>
</linearGradient>
<linearGradient id="paint2_linear_431_1024" x1="29.7372" y1="0" x2="29.7372" y2="47.2546" gradientUnits="userSpaceOnUse">
<stop stop-color="#9D2EF4"/>
<stop offset="1" stop-color="#F42E3A"/>
</linearGradient>
<linearGradient id="paint3_linear_431_1024" x1="11.8835" y1="37.2656" x2="11.8835" y2="57.2672" gradientUnits="userSpaceOnUse">
<stop stop-color="#9D2EF4"/>
<stop offset="1" stop-color="#F42E3A"/>
</linearGradient>
<linearGradient id="paint4_linear_431_1024" x1="7.21123" y1="46.0234" x2="7.21123" y2="61.7441" gradientUnits="userSpaceOnUse">
<stop stop-color="#9D2EF4"/>
<stop offset="1" stop-color="#F42E3A"/>
</linearGradient>
<linearGradient id="paint5_linear_431_1024" x1="9.49785" y1="9.15234" x2="9.49785" y2="17.7748" gradientUnits="userSpaceOnUse">
<stop stop-color="#9D2EF4"/>
<stop offset="1" stop-color="#F42E3A"/>
</linearGradient>
<linearGradient id="paint6_linear_431_1024" x1="33.5051" y1="7.65625" x2="33.5051" y2="19.2676" gradientUnits="userSpaceOnUse">
<stop stop-color="#9D2EF4"/>
<stop offset="1" stop-color="#F42E3A"/>
</linearGradient>
<linearGradient id="paint7_linear_431_1024" x1="25.9317" y1="22.666" x2="25.9317" y2="26.8776" gradientUnits="userSpaceOnUse">
<stop stop-color="#9D2EF4"/>
<stop offset="1" stop-color="#F42E3A"/>
</linearGradient>
<linearGradient id="paint8_linear_431_1024" x1="46.1084" y1="10.6016" x2="46.1084" y2="18.4539" gradientUnits="userSpaceOnUse">
<stop stop-color="#9D2EF4"/>
<stop offset="1" stop-color="#F42E3A"/>
</linearGradient>
<linearGradient id="paint9_linear_431_1024" x1="51.3295" y1="26.0898" x2="51.3295" y2="37.6458" gradientUnits="userSpaceOnUse">
<stop stop-color="#9D2EF4"/>
<stop offset="1" stop-color="#F42E3A"/>
</linearGradient>
<linearGradient id="paint10_linear_431_1024" x1="37.1133" y1="33.0078" x2="37.1133" y2="36.415" gradientUnits="userSpaceOnUse">
<stop stop-color="#9D2EF4"/>
<stop offset="1" stop-color="#F42E3A"/>
</linearGradient>
<linearGradient id="paint11_linear_431_1024" x1="42.7718" y1="39.6211" x2="42.7718" y2="47.5276" gradientUnits="userSpaceOnUse">
<stop stop-color="#9D2EF4"/>
<stop offset="1" stop-color="#F42E3A"/>
</linearGradient>
<linearGradient id="paint12_linear_431_1024" x1="13.7731" y1="3.01367" x2="13.7731" y2="9.3717" gradientUnits="userSpaceOnUse">
<stop stop-color="#9D2EF4"/>
<stop offset="1" stop-color="#F42E3A"/>
</linearGradient>
<linearGradient id="paint13_linear_431_1024" x1="14.8502" y1="18.2344" x2="14.8502" y2="21.9841" gradientUnits="userSpaceOnUse">
<stop stop-color="#9D2EF4"/>
<stop offset="1" stop-color="#F42E3A"/>
</linearGradient>
</defs>
</svg>
