<svg width="96" height="66" viewBox="0 0 96 66" fill="none" xmlns="http://www.w3.org/2000/svg">
<path d="M45.8953 53.2592C39.2529 65.0654 24.4845 69.4989 12.5961 63.0065C5.41633 59.0856 0.960046 52.0767 0 44.5367L0.00129809 44.536C3.00638 54.5449 8.5382 57.3398 12.2818 58.8228C16.0255 60.3057 18.9709 59.7379 18.9709 59.7379C23.3669 58.7702 25.1296 54.8707 26.814 51.6729C28.4976 48.4751 32.3069 46.8765 35.2437 45.6109C38.1807 44.3452 39.6299 40.2095 39.6299 40.2095C42.9148 42.8764 41.1791 45.4849 40.2776 47.3633C39.3761 49.2417 36.5612 51.8846 36.5612 51.8846C42.6181 50.3885 44.2289 44.4692 44.6762 42.28C45.1235 40.0907 44.5185 36.9331 44.0161 34.1221C43.5138 31.311 44.9988 30.0006 45.2435 29.7806C45.4882 29.5612 45.8529 29.1984 46.0866 30.636C46.3202 32.0736 46.7869 31.372 47.9545 38.8295C49.1221 46.2877 46.4916 52.1706 46.4916 52.1706C46.4903 52.1706 46.1956 52.7268 45.8957 53.2597L45.8953 53.2592Z" fill="url(#paint0_linear_422_946)" fill-opacity="0.4"/>
<path d="M48.0436 48.942C48.0436 48.942 49.2256 45.1789 49.6293 41.241C50.033 37.3026 49.5527 31.6339 48.4902 28.9332C48.4902 28.9332 48.2981 28.3705 48.0417 28.6879C47.7853 29.0053 46.5878 29.5991 46.7819 30.9946C46.7819 30.9946 47.884 34.8403 48.0722 36.8561C48.0735 36.8554 49.2515 43.5704 48.0436 48.9419L48.0436 48.942Z" fill="url(#paint1_linear_422_946)" fill-opacity="0.4"/>
<path d="M49.6872 44.1835C49.6872 44.1835 52.6527 36.6208 51.0437 30.1239C51.0437 30.1239 50.7769 29.3178 50.3388 29.739C49.9007 30.1609 49.4444 30.8437 49.5872 31.7244C49.7307 32.6045 50.7562 38.1136 49.6872 44.1834L49.6872 44.1835Z" fill="url(#paint2_linear_422_946)" fill-opacity="0.4"/>
<path d="M26.204 9.2656C34.7403 -1.25353 50.044 -3.13574 60.6697 5.26691C67.0861 10.3411 70.2982 18.0006 69.9744 25.596L69.9724 25.5967C68.6964 15.2249 63.7143 11.5378 60.2738 9.4452C56.8332 7.35264 53.8346 7.41628 53.8346 7.41628C49.3381 7.62982 46.9436 11.1769 44.7454 14.045C42.5471 16.9132 38.5237 17.8478 35.4154 18.6007C32.3071 19.3536 30.1815 23.1863 30.1815 23.1863C27.3933 20.004 29.5428 17.7252 30.7481 16.0253C31.9528 14.3255 35.1727 12.1946 35.1727 12.1946C28.9503 12.6489 26.3651 18.2126 25.5558 20.2946C24.7471 22.3767 24.8107 25.5915 24.8321 28.4472C24.8535 31.3029 23.1699 32.3441 22.8914 32.52C22.613 32.6953 22.193 32.9912 22.2047 31.5348C22.2164 30.0783 21.6381 30.6917 21.7439 23.1433C21.8497 15.5955 25.4337 10.2396 25.4337 10.2396C25.4344 10.2396 25.8186 9.74118 26.2035 9.26607L26.204 9.2656Z" fill="url(#paint3_linear_422_946)" fill-opacity="0.4"/>
<path d="M23.3595 13.1562C23.3595 13.1562 21.561 16.6663 20.4991 20.48C19.4379 24.2938 18.9563 29.9625 19.5483 32.8041C19.5483 32.8041 19.643 33.3909 19.9494 33.1208C20.2557 32.8515 21.5363 32.4679 21.5798 31.0595C21.5798 31.0595 21.141 27.0828 21.2955 25.0643C21.2949 25.065 21.265 18.2475 23.3595 13.1563V13.1562Z" fill="url(#paint4_linear_422_946)" fill-opacity="0.4"/>
<path d="M20.9388 17.5724C20.9388 17.5724 16.742 24.5268 17.2334 31.203C17.2334 31.203 17.3606 32.0428 17.8629 31.7008C18.3659 31.3594 18.9306 30.7623 18.9384 29.8704C18.9456 28.9786 18.8625 23.3754 20.9388 17.5723L20.9388 17.5724Z" fill="url(#paint5_linear_422_946)" fill-opacity="0.4"/>
<defs>
<linearGradient id="paint0_linear_422_946" x1="24.1267" y1="29.5723" x2="24.1267" y2="66.0006" gradientUnits="userSpaceOnUse">
<stop stop-color="#9D2EF4"/>
<stop offset="1" stop-color="#F42E3A"/>
</linearGradient>
<linearGradient id="paint1_linear_422_946" x1="48.2661" y1="28.5908" x2="48.2661" y2="48.942" gradientUnits="userSpaceOnUse">
<stop stop-color="#9D2EF4"/>
<stop offset="1" stop-color="#F42E3A"/>
</linearGradient>
<linearGradient id="paint2_linear_422_946" x1="50.5413" y1="29.6172" x2="50.5413" y2="44.1835" gradientUnits="userSpaceOnUse">
<stop stop-color="#9D2EF4"/>
<stop offset="1" stop-color="#F42E3A"/>
</linearGradient>
<linearGradient id="paint3_linear_422_946" x1="45.8638" y1="0" x2="45.8638" y2="32.6693" gradientUnits="userSpaceOnUse">
<stop stop-color="#9D2EF4"/>
<stop offset="1" stop-color="#F42E3A"/>
</linearGradient>
<linearGradient id="paint4_linear_422_946" x1="21.3257" y1="13.1562" x2="21.3257" y2="33.1919" gradientUnits="userSpaceOnUse">
<stop stop-color="#9D2EF4"/>
<stop offset="1" stop-color="#F42E3A"/>
</linearGradient>
<linearGradient id="paint5_linear_422_946" x1="19.0661" y1="17.5723" x2="19.0661" y2="31.7827" gradientUnits="userSpaceOnUse">
<stop stop-color="#9D2EF4"/>
<stop offset="1" stop-color="#F42E3A"/>
</linearGradient>
</defs>
</svg>
