<svg width="28" height="24" viewBox="0 0 28 24" fill="none" xmlns="http://www.w3.org/2000/svg">
<path d="M10.1561 7.02729H23.7509C24.2595 7.02729 24.6731 6.46435 24.6731 5.77133C24.6731 5.07784 24.2604 4.51536 23.7509 4.51536H10.1561C9.64753 4.51536 9.23486 5.0783 9.23486 5.77133C9.23486 6.46481 9.64666 7.02729 10.1561 7.02729V7.02729Z" fill="#1C1B1E"/>
<path d="M23.4159 10.7966H4.88877C4.19529 10.7966 3.63281 11.3596 3.63281 12.0526C3.63281 12.7461 4.19575 13.3086 4.88877 13.3086H23.4159C24.1094 13.3086 24.6718 12.7456 24.6718 12.0526C24.6718 11.3591 24.1089 10.7966 23.4159 10.7966Z" fill="#1C1B1E"/>
<path d="M23.7498 16.9727H10.1561C9.64753 16.9727 9.23486 17.5356 9.23486 18.2287C9.23486 18.9222 9.64754 19.4846 10.1561 19.4846H23.7509C24.2595 19.4846 24.6731 18.9217 24.6731 18.2287C24.6726 17.5352 24.2595 16.9727 23.75 16.9727H23.7498Z" fill="#1C1B1E"/>
</svg>
