<svg width="96" height="66" viewBox="0 0 96 66" fill="none" xmlns="http://www.w3.org/2000/svg">
<path d="M21.3244 24.1663L15.2319 35.1326L27.3151 53.9173V43.2553C25.7921 42.8491 24.7768 41.4276 24.7768 39.8031C24.7768 37.7724 26.4012 36.2494 28.3304 36.2494C30.3611 36.2494 31.884 37.8739 31.884 39.8031C31.884 41.4275 30.7673 42.8491 29.3457 43.2553V53.9168L41.4289 35.2338L34.0167 24.1661L21.3244 24.1663Z" fill="url(#paint0_linear_735_1531)" fill-opacity="0.4"/>
<path d="M29.8547 39.8033C29.8547 40.6448 29.1727 41.3264 28.3316 41.3264C27.4906 41.3264 26.8086 40.6448 26.8086 39.8033C26.8086 38.9624 27.4906 38.2803 28.3316 38.2803C29.1727 38.2803 29.8547 38.9623 29.8547 39.8033Z" fill="url(#paint1_linear_735_1531)" fill-opacity="0.4"/>
<path d="M56.254 10.56C56.0511 10.3571 55.7463 10.2552 55.4415 10.3571C45.3891 11.9815 35.1333 8.1231 29.1426 0.406224C28.9397 0.203345 28.6349 0 28.3301 0C28.0253 0 27.721 0.101441 27.5176 0.406224C21.6285 8.1231 11.2711 11.9817 1.21868 10.3571C0.913893 10.2557 0.609581 10.3571 0.406224 10.56C0.203345 10.7629 0 11.0677 0 11.3725V31.8829C0 48.4335 11.7788 62.8526 28.0246 66H28.4308C44.6774 62.7507 56.5572 48.4335 56.5572 31.8829L56.5576 11.3725C56.5576 11.0677 56.4562 10.7634 56.2528 10.56H56.254ZM43.4599 35.7424L29.1424 57.878C29.0405 58.1828 28.6348 58.3857 28.33 58.3857C28.0252 58.3857 27.6194 58.1828 27.5175 57.878L13.2001 35.7424C12.9972 35.4376 12.9972 35.0319 13.2001 34.7271L19.5968 23.1516L16.957 16.7544C16.8556 16.4496 16.8556 16.0438 17.0585 15.8405C17.2613 15.5357 17.5661 15.4343 17.8709 15.4343H37.2648C37.5696 15.4343 37.8739 15.6371 38.0773 15.8405C38.2802 16.1453 38.2802 16.4496 38.1787 16.7544L35.5386 22.9483L43.3569 34.5238C43.6617 34.93 43.6617 35.3362 43.4588 35.7425L43.4599 35.7424Z" fill="url(#paint2_linear_735_1531)" fill-opacity="0.4"/>
<path d="M33.8143 22.1351L35.7435 17.4647H19.3953L21.4264 22.1351H33.8143Z" fill="url(#paint3_linear_735_1531)" fill-opacity="0.4"/>
<defs>
<linearGradient id="paint0_linear_735_1531" x1="28.3304" y1="24.1661" x2="28.3304" y2="53.9173" gradientUnits="userSpaceOnUse">
<stop stop-color="#9D2EF4"/>
<stop offset="1" stop-color="#F42E3A"/>
</linearGradient>
<linearGradient id="paint1_linear_735_1531" x1="28.3316" y1="38.2803" x2="28.3316" y2="41.3264" gradientUnits="userSpaceOnUse">
<stop stop-color="#9D2EF4"/>
<stop offset="1" stop-color="#F42E3A"/>
</linearGradient>
<linearGradient id="paint2_linear_735_1531" x1="28.2788" y1="0" x2="28.2788" y2="66" gradientUnits="userSpaceOnUse">
<stop stop-color="#9D2EF4"/>
<stop offset="1" stop-color="#F42E3A"/>
</linearGradient>
<linearGradient id="paint3_linear_735_1531" x1="27.5694" y1="17.4647" x2="27.5694" y2="22.1351" gradientUnits="userSpaceOnUse">
<stop stop-color="#9D2EF4"/>
<stop offset="1" stop-color="#F42E3A"/>
</linearGradient>
</defs>
</svg>
