<svg width="160" height="159" viewBox="0 0 160 159" fill="none" xmlns="http://www.w3.org/2000/svg">
<path d="M117.951 117.269C119.474 119.459 121.461 121.29 123.768 122.632C123.507 123.064 123.05 123.342 122.544 123.374C122.038 123.407 121.548 123.189 121.235 122.792C118 120.109 115.385 116.76 113.567 112.972C111.63 108.75 109.385 104.663 107.339 100.483C106.64 99.055 106.159 98.5245 104.638 99.8876C100.295 104.165 94.5162 106.676 88.4271 106.937C70.8451 107.12 56.0465 99.942 52.2803 79.9792V79.9819C51.1919 74.6708 51.611 69.164 53.4856 64.0786C56.5384 56.3408 62.6465 50.205 70.3711 47.1193C78.0246 43.4571 86.5684 42.0694 94.9867 43.1197C97.4137 43.5877 99.7074 44.5726 101.721 46.0037C108.509 49.7857 113.69 55.9106 116.291 63.2319C117.613 66.6819 117.82 70.4613 116.879 74.0338C116.759 74.4065 116.729 74.8038 116.794 75.1902C117.232 79.0538 116.231 82.9419 113.986 86.1119C112.934 87.9811 112.577 90.0544 111.679 91.9372C110.629 94.1411 111.783 94.0649 113.467 93.5371C113.499 94.8785 112.547 96.043 111.225 96.2743C110.365 96.4566 109.655 97.0633 109.345 97.885C109.035 98.7094 109.165 99.6318 109.693 100.336C111.935 105.634 115.078 110.502 118.982 114.727C120.462 116.253 120.114 116.972 117.951 117.268L117.951 117.269ZM74.4172 62.8164C77.5353 60.0438 80.2942 56.8904 82.6287 53.4348C83.0069 52.6239 83.7034 52.0063 84.5496 51.7206C85.3985 51.4377 86.3263 51.5139 87.1154 51.9302C88.3452 52.5968 89.7818 52.7627 91.1313 52.3981C91.5476 52.0852 92.0755 51.9601 92.5897 52.0471C93.1067 52.1342 93.561 52.4308 93.8522 52.8634C94.4045 53.3368 94.8861 54.7354 95.871 53.7178H95.8737C96.1486 53.3124 96.2247 52.8063 96.0778 52.3383C95.9336 51.8703 95.5826 51.4949 95.1255 51.3207C92.7039 49.8297 90.1056 48.6434 87.3926 47.7918C84.6146 46.728 81.4965 48.0911 80.3889 50.8527C79.5182 52.1968 78.5088 53.4457 77.3715 54.5776C75.4777 56.8141 71.9108 58.7868 74.4166 62.8162L74.4172 62.8164ZM80.4058 64.0816C82.5009 61.5158 83.0913 61.6627 84.6041 64.819C84.9741 66.0052 86.1059 66.7834 87.3467 66.7018C87.8881 66.6229 88.3697 66.3127 88.6663 65.8528C88.9628 65.393 89.0472 64.827 88.8948 64.3019C88.9084 63.1102 88.3098 61.9974 87.3086 61.3525C85.9808 60.9933 86.5658 60.392 86.408 59.6792C86.4978 58.3242 87.2678 57.108 88.454 56.4496C88.9247 55.6687 90.0294 54.6974 88.5139 54.1015V54.1042C87.7793 53.5056 86.8297 53.239 85.891 53.3696C84.9523 53.4974 84.1089 54.009 83.5619 54.7817C82.7429 55.8809 81.8614 56.9366 80.9282 57.9433C79.3583 59.9023 77.8264 61.8886 80.4058 64.0815L80.4058 64.0816ZM54.1304 77.1932C54.4215 74.9676 54.8269 72.7609 55.3439 70.5788C57.1614 66.8866 56.1683 62.095 60.7801 59.4203C64.943 57.0069 67.2394 52.3839 71.3751 49.7858C72.0173 49.3831 73.1519 49.1382 72.5125 48.2322C71.9901 47.4894 71.0596 48.1614 70.3548 48.5015C66.5919 50.4415 63.2181 53.059 60.4048 56.2206C54.9767 61.7439 52.6258 69.5934 54.1305 77.1926L54.1304 77.1932ZM95.3702 59.6112C92.7664 62.6749 94.1513 64.5142 96.0259 65.3468C98.2489 66.3345 97.4517 69.2403 99.5767 69.9368C100.907 67.5371 98.1999 65.5645 99.0815 63.2354C99.0951 62.7538 98.7251 62.3457 98.2408 62.313C97.5442 62.3566 96.8558 62.1144 96.3389 61.6437C95.8219 61.173 95.5172 60.5118 95.4982 59.8126C96.1648 57.7502 94.554 57.2169 93.4847 56.3462C93.0603 55.8428 92.4264 55.568 91.7706 55.6061C91.1149 55.6442 90.5136 55.9897 90.1517 56.5366C89.6593 56.9094 89.3817 57.5025 89.4198 58.1201C89.4552 58.7378 89.8007 59.2955 90.334 59.6057C91.6618 60.9444 92.8182 60.694 95.3703 59.6111L95.3702 59.6112ZM80.4678 47.7401H80.4705C78.8571 47.7265 77.2953 48.3006 76.0791 49.359C73.614 52.3275 71.3584 55.4673 69.3341 58.7539C69.2606 59.1158 69.3804 59.4913 69.6524 59.7389C70.2156 60.0872 70.553 59.4886 70.8441 59.1784C74.4302 55.6984 77.6544 51.8676 80.4703 47.7399L80.4678 47.7401ZM108.375 66.5627H108.378C108.305 63.7439 107.412 61.0094 105.809 58.6883C104.207 56.3702 101.965 54.5662 99.3529 53.4997C99.6495 56.6205 102.686 57.4748 104.256 59.4257C105.761 61.7248 107.137 64.1083 108.378 66.5624L108.375 66.5627ZM81.3984 102.911C77.9347 104.41 77.1457 101.188 75.369 99.8417C73.625 98.5194 72.2292 97.5969 71.2823 100.321L71.285 100.318C73.8372 103.126 77.8151 104.146 81.4008 102.908L81.3984 102.911ZM62.5975 87.6879L62.6002 87.6852C62.2655 84.276 60.7255 81.0953 58.2604 78.7173C58.1026 82.2462 59.7351 85.6201 62.6002 87.6852L62.5975 87.6879ZM102.417 67.5726L102.42 67.5699C102.02 70.2065 102.338 72.9027 103.345 75.3732C105.606 69.9478 105.541 69.3329 102.42 67.5699L102.417 67.5726ZM92.9428 64.1553C92.1265 64.2832 91.5252 64.9906 91.5307 65.8177C91.6667 67.2652 92.4776 68.563 93.7182 69.3167C94.5835 69.1018 95.1576 68.2855 95.0705 67.3985C94.9725 66.0217 94.1672 64.7919 92.9428 64.1553ZM63.2202 96.3541C60.6136 94.055 60.7496 89.8376 56.867 87.5819C58.1811 91.0102 60.3742 94.0358 63.2202 96.3541ZM80.628 67.6275C80.628 68.7567 80.6035 69.709 80.6362 70.6613C80.4348 71.4095 80.6471 72.2122 81.194 72.7618C81.7789 73.1781 82.1163 72.6938 82.3912 72.3727C83.2401 71.8965 83.6563 70.9034 83.4087 69.962C83.1611 68.6179 81.9939 67.6385 80.628 67.6275V67.6275ZM64.3381 79.7542L61.5819 72.9032C60.665 75.5533 61.8404 78.4755 64.3381 79.7542ZM90.7466 67.5565C89.544 68.2421 88.3795 68.7618 89.5766 69.9998C90.0936 70.5358 90.7793 72.0105 91.5275 71.2052C92.6321 70.0134 90.5779 69.0312 90.7466 67.5565Z" fill="#F1BA9B"/>
<path d="M47.5727 8.66078C47.3931 7.89347 47.5645 7.08814 48.0379 6.45958C48.5141 5.83107 49.2433 5.44473 50.0296 5.40935C51.7356 5.08284 51.6077 6.61199 51.7274 7.49081C52.3886 12.2876 56.2468 15.664 57.5772 20.1615C57.9255 21.3423 58.8587 22.2538 57.5745 23.5381C56.6957 24.4169 57.6833 25.5244 58.1268 26.4005V26.3977C59.977 30.762 62.4285 34.846 65.4133 38.5272C65.9384 39.0932 66.6431 39.8904 65.8758 40.5515C65.0787 41.2399 64.4202 40.3311 63.9359 39.8114C60.4015 35.7791 57.3732 31.3276 54.922 26.5584C52.0352 21.3154 49.7279 15.776 48.041 10.0345C47.8532 9.39509 47.6138 8.77201 47.573 8.66043L47.5727 8.66078Z" fill="#F1BA9B"/>
<path d="M72.8637 158.135C72.012 155.471 71.0516 153.06 70.4748 150.565C68.592 142.392 66.701 134.216 65.1447 125.983C64.41 123.662 64.4509 121.167 65.259 118.87C65.493 117.844 65.3134 116.77 64.7583 115.875C64.5352 114.778 63.9258 113.559 65.2345 113.116C66.8697 112.561 67.0737 114.188 67.4003 115.219L67.3976 115.222C68.1512 118.103 68.7117 121.031 69.0764 123.985C70.3932 131.489 71.1795 139.083 72.2271 146.634C72.6134 149.404 73.0869 152.165 73.6337 154.911H73.6364C74.1072 156.04 73.7943 157.343 72.8637 158.135V158.135Z" fill="#F1BA9B"/>
<path d="M34.4428 91.4064C31.4961 93.5178 28.6447 95.7734 25.5807 97.7107C19.5323 101.784 13.2012 105.419 6.63285 108.591C5.57718 109.296 4.614 110.131 3.76778 111.078C2.90526 111.979 1.55572 112.21 0.442932 111.644C-0.710672 110.866 0.731343 110.039 0.924528 109.209V109.212C1.06601 107.468 2.58967 106.17 4.33101 106.306C5.71865 105.813 6.97026 105.005 7.99055 103.944C14.0499 100.641 19.6359 96.5545 25.9647 93.7028C28.7563 93.1451 31.4118 92.0404 33.7763 90.4514L34.4428 91.4064Z" fill="#F1BA9B"/>
<path d="M43.1704 54.7681C42.1582 55.6142 40.8931 56.0958 39.5734 56.1421C30.0886 56.621 20.6039 55.2334 11.6548 52.0527C8.62647 51.0188 8.95844 48.4503 7.80755 46.5702C7.42119 45.939 8.16398 45.2479 8.87687 45.0792C9.63875 44.8996 10.7978 44.7717 11.0154 45.6098C12.1174 47.9415 14.4356 49.4543 17.0149 49.5196C22.9165 51.2229 28.9375 52.4826 35.0267 53.2935C37.8101 53.269 40.5717 53.7696 43.1699 54.7682L43.1704 54.7681Z" fill="#F1BA9B"/>
<path d="M141.278 109.496C137.629 107.898 134.065 106.119 130.598 104.16L139.294 113.166C136.102 112.108 133.27 110.181 131.112 107.602C126.672 103.709 122.523 99.4909 118.314 95.3527C117.699 94.4766 117.505 93.3719 117.786 92.338C118.066 91.3041 118.792 90.4471 119.767 90.0035C120.101 89.892 120.466 89.9219 120.781 90.0824C121.094 90.243 121.328 90.5259 121.432 90.8633C126.003 97.7008 132.187 103.306 139.439 107.189C140.513 107.436 141.278 108.391 141.278 109.496L141.278 109.496Z" fill="#F1BA9B"/>
<path d="M157.82 96.0315C152.855 94.7255 147.96 93.1637 143.155 91.3516C139.357 89.7571 135.768 87.7002 132.476 85.2242C129.79 83.7468 126.92 82.6339 123.94 81.913C123.203 81.6381 122.087 81.4803 122.297 80.5661H122.299C122.547 79.3172 123.108 78.15 123.924 77.1705C124.816 76.2019 125.532 77.5977 126.032 78.0276C134.405 85.1998 145.106 88.1685 154.719 93.0846L154.721 93.0874C155.905 93.588 157.146 93.939 158.419 94.1294C159.249 94.3117 160.171 94.5212 159.973 95.4681C159.798 96.3034 158.797 95.8137 157.82 96.0313L157.82 96.0315Z" fill="#F1BA9B"/>
<path d="M34.5335 126.846C34.1036 125.736 34.1063 124.504 34.5444 123.396C32.0657 126.308 29.8673 129.445 27.9762 132.764C27.4538 131.646 27.6497 130.324 28.4687 129.401C33.9812 120.066 39.2706 110.614 44.3365 101.044L44.3338 101.042C45.0711 99.5671 46.0207 98.2094 47.1499 97.0067C47.7702 96.068 49.0273 95.7878 49.9877 96.3782C51.106 97.2489 50.2924 98.1114 49.8027 98.9277C48.0015 101.923 46.3771 105.041 44.3256 107.866C42.2143 110.772 40.277 113.773 38.2908 116.752L38.288 116.755C36.6691 119.971 35.4094 123.356 34.5333 126.846L34.5335 126.846Z" fill="#F1BA9B"/>
<path d="M147.672 68.7747C143.248 69.2645 138.777 69.1066 134.402 68.304C139.039 71.1799 144.393 72.6927 149.851 72.6682C148.619 74.0722 146.714 74.6871 144.894 74.2708C140.386 73.7402 136.035 72.2982 132.104 70.0345C130.749 69.2155 129.304 68.5516 127.799 68.0565C126.08 67.5395 123.625 67.6946 126.254 65.1179L126.256 65.1152C126.338 64.9438 126.346 64.7451 126.278 64.5656C126.055 63.7847 124.423 63.1154 125.941 62.2066C127.203 61.4502 127.938 62.7372 128.809 63.2541L128.806 63.2569C133.17 65.3954 137.88 66.7423 142.715 67.232C144.356 67.5422 146.01 67.7653 147.659 68.0265L147.672 68.7747Z" fill="#F1BA9B"/>
<path d="M73.2608 30.3424C73.1166 30.6553 74.0008 31.8389 72.6459 32.1083C71.4895 32.3368 71.2474 31.2593 70.7658 30.5601H70.763C70.1645 29.6758 69.8026 28.6555 69.7101 27.5917C69.604 26.6584 69.7645 25.3225 67.8246 25.5537C66.7933 25.6762 66.6818 24.3973 66.7798 23.5077H66.777C66.8315 19.0645 66.2574 14.638 65.0738 10.3549C64.9514 9.6394 64.3854 8.47757 65.7458 8.23267H65.7486C66.6247 8.19458 67.4763 8.52108 68.1021 9.13601C70.3713 11.1603 71.4269 14.2186 70.8855 17.2144C70.9726 20.6019 71.631 23.9513 72.8337 27.1185C73.3452 28.1116 73.4976 29.2516 73.2608 30.3427L73.2608 30.3424Z" fill="#F1BA9B"/>
<path d="M114.607 144.197C114.466 144.553 114.237 144.866 113.946 145.114C113.337 145.22 112.749 144.839 112.602 144.238C110.659 140.886 108.613 137.583 106.826 134.154C102.693 126.949 99.354 119.317 96.8757 111.391C96.6635 110.956 96.639 110.455 96.8104 110.004C96.9819 109.552 97.3301 109.19 97.7736 109.005C98.9136 108.523 99.1694 109.827 99.3027 110.308C101.526 118.319 106.176 125.347 109.003 133.112H109.005C110.208 136.668 111.86 140.058 113.917 143.197C114.129 143.508 114.341 143.812 114.608 144.196L114.607 144.197Z" fill="#F1BA9B"/>
<path d="M135.886 10.7008C134.521 13.223 132.755 15.5085 130.662 17.4703C125.945 23.244 120.62 28.4951 114.781 33.134C112.944 34.4183 110.849 35.2917 108.642 35.6917C107.78 35.8576 106.605 36.897 106.142 35.4413C105.688 34.0102 107.247 33.6156 108.15 33.4497C111.897 32.5273 115.287 30.5084 117.883 27.6515C123.275 22.5309 128.347 17.0948 133.552 11.7893H133.555C133.93 10.8751 134.945 10.4017 135.887 10.701L135.886 10.7008Z" fill="#F1BA9B"/>
<path d="M141.64 50.3979C136.849 49.7367 132.008 49.4946 127.176 49.666C125.481 49.5408 123.878 48.8361 122.643 47.6689C121.851 47.2635 121.448 46.3602 121.677 45.5003C122.194 44.4583 123.448 44.0175 124.504 44.5099C127.116 45.0106 129.687 45.6989 132.198 46.575C136.65 48.0334 141.379 48.447 146.018 47.7831C146.943 47.7042 147.735 47.6008 147.928 48.3626C148.216 49.4972 147.024 49.0456 146.475 49.1979C144.859 49.6469 143.213 50.0142 141.64 50.3979V50.3979Z" fill="#F1BA9B"/>
<path d="M87.317 138.088C85.6165 138.225 84.0547 137.139 83.5867 135.498C81.0754 129.959 79.666 123.981 79.4402 117.902C79.198 117.143 79.3694 116.313 79.8945 115.712C80.1911 115.342 80.5856 115.059 81.0319 114.896C81.5134 115.032 81.8372 115.483 81.8127 115.981C82.6943 119.135 83.6303 122.272 84.4955 125.428H84.4982C85.7444 127.237 85.7036 129.637 84.3976 131.403C83.8724 131.928 84.5935 132.671 84.8873 133.267C85.641 134.801 86.4246 136.322 87.317 138.088L87.317 138.088Z" fill="#F1BA9B"/>
<path d="M84.1755 22.8471C84.5048 17.6421 84.7768 12.8017 85.136 7.96978C85.4897 6.1849 85.7019 4.37551 85.7727 2.55532C85.5441 0.0385221 86.9535 -0.149195 88.7656 0.0657567C90.9178 0.324235 90.4036 1.99482 90.1124 3.18931C88.918 8.11403 87.5875 13.0091 86.2788 17.9092V17.9119C86.3903 19.7948 85.6122 21.6232 84.1756 22.8475L84.1755 22.8471Z" fill="#F1BA9B"/>
<path d="M93.0146 35.5179C93.8445 31.8338 95.3437 28.3324 97.4387 25.1896C99.1692 21.1981 101.188 17.3375 103.482 13.6424C103.819 13.1744 104.099 12.6629 104.478 12.2303C104.649 11.9202 104.951 11.7025 105.299 11.6399C105.65 11.5773 106.009 11.6753 106.276 11.9065C106.643 12.3854 106.605 13.0574 106.186 13.4928C103.523 18.1373 100.845 22.7734 98.252 27.4562C96.927 30.392 95.1611 33.1102 93.0144 35.518L93.0146 35.5179Z" fill="#F1BA9B"/>
<path d="M33.0986 36.454C34.2795 36.3805 35.4032 36.9791 35.9991 38.0022C38.4968 41.9719 42.1917 45.0435 46.5502 46.7716C47.489 47.0056 48.0739 47.9443 47.8725 48.8884C47.8453 49.3428 48.2208 49.9305 47.6086 50.14V50.1428C46.7107 50.2326 45.8292 49.8353 45.3013 49.1034C41.767 46.7226 38.1563 44.4399 34.7391 41.9096C33.3786 40.443 32.7719 38.4296 33.0984 36.4543L33.0986 36.454Z" fill="#F1BA9B"/>
<path d="M32.1583 77.2808C30.8631 77.3271 29.5762 77.036 28.4225 76.4401C28.0906 76.3313 27.8212 76.0891 27.6797 75.7708C27.5383 75.4497 27.5355 75.0879 27.677 74.7695C27.7668 74.4811 27.979 74.2471 28.2566 74.1274C28.5368 74.0104 28.8524 74.0186 29.1218 74.1546C31.6713 74.9382 34.3621 75.1695 37.0066 74.8267C37.5399 74.8593 38.348 74.7069 38.3398 75.5477C38.2854 76.1626 37.7603 76.6279 37.1426 76.6115C35.4802 76.8292 33.8205 77.0577 32.1581 77.2809L32.1583 77.2808Z" fill="#F1BA9B"/>
</svg>
