<svg width="240" height="180" viewBox="0 0 240 180" fill="none" xmlns="http://www.w3.org/2000/svg">
<path d="M34.7657 78.8511C28.4455 78.8511 23.1356 79.8616 17.5756 80.1155C10.7494 80.6216 5.69367 79.6094 2.66043 71.5205C-0.628426 61.661 1.64644 52.5599 3.66913 43.2046C4.93353 36.6321 7.71446 30.3119 13.0226 25.7604C14.033 25.0021 14.7931 23.9899 16.0557 23.4856C23.1343 19.4402 30.4667 15.9009 38.5556 13.6261C47.4048 10.8451 56.5059 11.0973 65.607 9.83465C67.6297 9.58248 68.6401 9.07636 68.6401 6.8015C68.8923 2.75616 76.7309 -0.529028 80.016 1.74579C81.5326 2.75626 81.5326 4.27459 81.2805 5.79113C81.0283 8.06599 81.2804 9.07817 84.0614 8.31993C90.1293 6.80335 96.1958 7.56164 102.264 7.81382C104.286 7.81382 106.561 8.31993 108.584 8.31993C118.443 8.06776 128.303 9.07822 137.91 9.33039C140.185 9.33039 142.714 9.07822 144.989 9.58256C146.253 9.83474 147.011 9.33039 147.517 8.06599C149.288 3.26219 149.792 3.26219 154.596 4.02065C156.871 4.52677 158.894 4.77894 161.169 4.77894C163.697 4.77894 164.708 5.53723 163.191 7.8121C161.675 10.3409 162.685 11.0991 165.214 11.0991C177.096 10.0887 187.966 13.8801 198.837 17.9254C209.961 21.9707 218.05 29.8074 220.831 41.6898C221.083 42.9542 221.59 43.2064 222.602 43.7125C224.624 44.723 226.393 45.9874 228.164 47.2517C233.978 51.0431 234.99 57.1112 236 63.1791C236.252 64.1895 236.252 65.4539 236.506 66.4661C238.529 73.7966 238.781 81.3813 237.012 88.966C235.496 94.7802 231.957 99.8359 227.405 104.135C219.314 111.466 209.203 114.247 198.837 116.523C196.563 117.03 194.034 117.534 191.759 118.294C187.461 120.064 183.416 117.03 179.118 118.294C177.096 118.8 176.59 119.304 176.59 121.075C176.59 127.901 176.842 134.726 177.854 141.552C178.106 143.322 177.854 145.091 177.602 146.608C177.35 147.872 176.591 149.136 178.612 149.641C179.877 149.893 179.118 151.157 178.612 151.664C175.579 154.444 175.831 158.236 175.325 161.775C174.819 164.304 174.567 165.566 171.534 166.579C165.972 168.601 160.41 170.118 154.848 172.393C150.551 174.163 145.999 174.416 141.197 174.922C132.855 175.68 124.766 177.45 116.675 177.955C111.871 178.207 106.816 178.713 102.012 178.461C95.9443 177.955 89.6241 178.713 83.5576 178.209C72.9397 177.198 62.068 176.692 51.7043 174.163C48.1651 173.153 44.6256 172.647 41.0863 171.382C35.2722 169.612 33.2497 166.833 34.0077 161.017C34.5138 155.961 34.5138 150.905 35.5243 146.102C37.0409 140.034 37.7992 133.714 39.3157 127.647C40.5801 122.843 42.3488 118.04 42.0967 112.732C42.0967 109.445 43.6132 106.412 44.8776 103.378C45.1298 102.62 45.6359 101.862 46.3942 101.608C52.9668 100.597 57.0122 95.5401 62.0679 92.2545C68.6404 88.2091 75.2143 83.9118 81.2808 79.108C85.3261 75.821 89.8758 72.7878 91.6464 67.226C92.1525 65.2033 91.6464 65.2033 90.1298 64.9512C87.0967 64.699 85.326 62.6763 86.3384 59.8955C87.0967 57.6206 86.0863 57.3667 84.5679 56.8623C81.5348 55.8518 78.7538 54.8396 75.7187 53.8292C67.628 51.0482 66.1116 43.9696 65.3531 37.1434C64.847 31.8335 64.0887 31.0755 58.7806 32.5937C57.7701 32.8459 57.0101 33.0998 56.2518 33.6042C54.2291 34.6147 50.9419 34.1103 50.9419 37.1434C50.9419 39.9244 51.9524 42.7052 55.2394 44.7281C59.0308 47.003 59.0308 51.5544 58.7787 55.346C58.5265 61.1602 55.7455 66.4701 53.7229 71.7777C51.4481 77.5918 47.6551 78.8563 42.0929 78.8563C39.3155 78.5988 36.7866 78.5988 34.766 78.851L34.7657 78.8511ZM80.0183 31.8288C82.2932 30.5644 84.0636 30.3122 86.0862 30.3122C89.3732 30.5644 92.9124 30.8183 96.1976 30.8183C102.012 30.5662 107.573 30.3122 113.388 31.0705C123.499 32.081 133.359 29.8061 143.472 30.5644C145.495 30.8166 144.737 29.0478 144.989 28.0356C145.241 26.2651 143.978 23.9903 145.747 22.7257C148.528 20.703 151.815 20.703 154.848 21.4613C157.377 22.2196 157.629 25.2527 157.629 27.7815C157.629 29.552 158.135 30.3103 159.652 31.0686C162.685 33.0913 166.224 32.5852 169.511 33.3434C172.544 34.1017 173.557 35.6183 173.051 38.1472C172.292 42.4448 172.292 46.7423 170.776 50.7876C170.017 52.5582 169.765 54.0747 172.546 54.3269C174.317 54.579 176.085 55.3373 177.602 56.0974C187.461 61.1531 198.079 63.176 208.951 65.1985C210.721 65.4506 212.742 65.9568 214.512 65.9568C216.787 65.9568 218.304 65.1985 218.304 62.1654C218.304 56.3512 218.81 50.5353 218.304 44.7212C217.545 37.6425 213.754 32.0808 209.455 27.0251C205.915 23.2337 200.86 21.4633 196.308 19.6945C190.746 17.6718 185.184 16.4075 179.622 14.6388C174.567 13.1222 169.511 12.8683 164.201 12.11C163.695 12.11 162.937 12.11 162.684 12.6161C160.662 14.891 158.893 15.3971 155.354 14.3866C151.309 13.3762 147.011 12.6161 142.714 11.8578C135.129 10.8474 127.292 11.0995 119.455 10.5934C109.09 9.83515 98.4721 10.0873 88.1065 9.07686C85.3256 8.82469 82.5448 8.82469 80.5219 11.3517C80.0157 11.8578 79.2575 12.3622 78.7513 12.11C75.2121 11.0995 71.6727 14.6388 68.1334 12.11C60.2968 13.6266 51.9537 12.6161 43.8629 14.891C34.7618 17.4198 26.1668 20.7051 17.8237 25.2566C15.801 26.521 15.2949 29.3019 12.768 29.8062C10.9975 30.3123 10.2392 31.5767 9.73485 32.8394C5.94345 40.676 4.93105 49.0191 4.42498 57.6141C4.17281 61.1533 6.19549 62.4179 8.97462 63.1759C21.8674 66.209 35.0138 66.209 48.1603 63.682C50.183 63.4298 52.9641 63.4298 54.2281 61.4071C55.9987 58.1201 56.503 54.8346 55.9987 51.0415C55.2404 46.2377 51.1949 43.711 48.92 40.1717C47.1495 37.3907 47.1495 35.6221 49.9305 33.8515C52.7115 32.081 55.4923 31.0705 58.7797 30.3123C66.1102 28.7957 66.1102 28.7957 66.8704 21.4631C67.1226 19.1882 68.1348 17.9239 70.1575 17.6717C73.1906 17.4195 75.9716 16.1551 79.0067 17.1656C77.7423 20.7048 78.2484 23.9919 78.5006 27.277C78.5006 32.0808 81.0294 35.3678 85.3268 37.8949C90.8886 41.182 97.4612 40.6759 103.529 41.9403C106.058 42.4464 108.839 42.9507 111.366 42.6986C117.433 42.4464 123.5 42.6986 129.316 41.9403C135.13 41.182 140.946 39.6654 143.979 32.8392C133.361 30.8165 123.248 34.6097 112.884 33.0914C101.758 31.8287 91.1405 34.1036 80.0165 31.8287L80.0183 31.8288ZM85.3282 98.3173C86.3386 97.8112 88.1092 98.0651 89.3735 96.8007C98.9807 88.2057 110.863 89.216 122.239 90.2282C122.491 90.2282 122.745 90.4803 123.249 90.7343C127.295 93.5153 131.592 96.0442 134.625 100.088C140.187 107.418 143.22 115.509 139.429 124.358C135.132 134.47 128.559 142.56 118.446 147.617C111.874 150.904 104.795 151.156 97.715 149.891C88.3615 147.869 79.2604 136.999 77.9959 127.392C77.4898 122.336 75.7211 117.532 77.2376 112.222C73.9506 117.026 69.653 120.313 65.8617 124.356C63.8391 126.379 62.0703 128.654 60.0476 130.677C54.2335 135.987 46.9011 139.778 43.1095 147.108C42.6034 147.867 41.5929 148.625 40.5807 149.131C39.5702 149.637 38.0519 149.889 38.558 151.406C38.8102 152.67 39.8224 153.429 41.339 153.935C45.3843 155.451 49.6816 156.209 53.727 157.726C64.5968 162.024 76.2269 161.771 87.3505 162.024C94.9352 162.276 102.52 161.771 110.356 162.276C112.885 162.528 115.666 162.528 118.193 162.276C128.559 160.759 138.924 161.011 149.036 158.989C156.872 157.472 164.205 155.197 171.787 152.668C174.062 151.91 173.304 149.887 174.062 148.371C174.568 147.613 174.062 146.6 173.052 146.348C169.513 145.59 167.742 142.809 165.215 140.786C156.873 133.708 150.804 125.365 146.255 115.758C139.428 101.347 133.867 86.1795 134.12 69.747C134.12 64.4371 133.614 63.9328 128.559 64.6913C117.941 66.2078 107.323 64.6913 96.7052 64.9434C95.6947 64.9434 94.6825 64.9434 94.9347 66.2078C95.1868 67.7244 94.4285 69.241 94.4285 70.7575C92.9102 80.1159 87.6023 88.7114 85.3275 98.3185L85.3282 98.3173ZM222.603 50.7894C221.845 52.0538 221.845 53.0643 221.845 54.0765C222.097 61.9131 220.328 69.2458 218.558 76.8283C217.547 81.1258 216.787 82.8961 211.985 81.884C208.698 81.1257 204.906 82.3901 201.619 81.3779C191.254 78.5969 180.636 76.5741 171.283 70.508C167.996 68.2332 166.227 65.9584 166.479 61.913C166.731 59.132 167.237 56.3512 167.744 53.8223C168.754 48.7665 169.766 43.7108 170.777 38.6529C171.283 36.6302 170.777 35.8719 168.502 35.8719C165.721 35.6197 162.688 35.8719 160.665 32.8387C160.159 32.0804 159.149 32.0804 158.39 32.3326C158.138 32.5848 158.138 33.597 158.138 34.3553V39.6652C158.39 46.2377 155.105 51.2953 149.037 53.5701C147.267 54.3284 145.498 55.8449 143.223 55.3406C142.465 55.0884 142.465 56.0989 142.213 57.1111C141.96 60.1443 142.971 63.4313 140.19 65.9603C139.684 66.4664 139.684 66.9707 140.19 67.4769C143.223 70.7639 144.994 75.0616 147.016 79.1069C148.787 82.8983 152.326 84.9211 155.107 87.4496C159.911 91.4949 163.956 96.5507 169.264 99.8376C171.792 101.354 174.319 101.608 177.1 102.112C178.111 102.365 179.123 102.871 179.375 103.883C179.627 105.147 178.617 105.4 177.605 105.654C176.34 105.906 176.088 106.918 176.088 107.928C176.088 109.951 176.34 111.974 177.098 113.743C180.132 111.214 183.671 109.445 187.716 109.697C196.059 110.203 203.896 108.181 211.227 105.148C217.294 102.619 223.867 101.102 227.406 93.7716C234.737 78.8564 231.704 65.4576 224.119 52.0592C223.615 51.8018 223.109 51.2957 222.603 50.7895L222.603 50.7894ZM112.884 140.031C112.632 141.295 112.632 141.801 112.632 142.053C112.38 143.064 112.126 144.328 110.862 144.328C109.597 144.328 109.345 143.064 109.091 142.053C108.333 138.514 107.827 135.227 108.333 131.688C108.585 129.917 109.091 129.413 110.862 129.413C115.159 129.665 116.423 130.929 115.665 134.975C115.159 137.503 115.918 139.778 117.182 142.053C117.94 143.57 118.446 143.824 119.963 143.064C129.316 138.26 134.626 130.423 137.659 120.564C138.165 119.047 138.165 117.025 137.911 115.508C137.153 108.682 133.866 103.12 128.558 98.57C123.248 93.7662 117.182 91.4914 109.85 92.7559C105.046 93.5141 100.748 95.0307 96.1988 96.0429C86.8453 98.5717 80.7775 106.154 79.2607 115.256C79.0085 116.772 78.5024 118.795 80.0189 119.301C81.2833 119.807 81.7895 117.531 82.5477 116.52C83.8121 114.75 85.0766 112.981 87.3516 115.004C89.3742 116.774 90.8908 119.301 89.6264 122.082C88.616 124.611 86.0872 125.369 83.3062 124.611C79.5148 123.601 80.2731 125.875 81.0314 127.644C82.0418 130.931 83.5601 134.217 85.3288 137.251C87.6037 141.549 91.649 144.33 96.7048 146.101C95.6943 143.826 94.9342 142.309 94.176 140.539C93.1655 138.264 95.6925 137.252 96.1986 135.483C96.4508 134.977 97.2091 134.977 97.7152 134.977C103.025 136.747 104.794 142.307 100.748 146.353C101.001 146.605 101.254 146.859 101.507 146.859H108.079C114.907 146.857 114.907 146.857 112.885 140.031L112.884 140.031ZM174.569 111.465C174.569 110.454 174.317 109.442 174.569 108.684C175.58 105.903 174.063 104.638 171.536 104.386C169.514 104.134 168.249 102.87 166.481 101.857C161.677 99.0764 158.39 94.5269 154.092 90.9875C151.818 89.217 149.543 87.4483 147.772 85.1734C143.727 80.1177 141.452 74.5555 138.671 68.9937C138.419 68.2354 137.913 67.7293 137.155 67.7293C136.144 67.9815 136.649 68.9937 136.649 69.4998C136.649 74.3036 136.901 79.107 138.165 83.6566C140.44 91.4932 142.21 99.584 145.75 106.915C147.772 110.96 150.805 114.5 152.322 118.291C156.368 127.898 164.457 133.712 170.777 140.791C171.535 141.801 172.547 142.561 173.81 142.055C175.074 141.549 174.568 140.285 174.568 139.274C174.568 134.725 173.81 129.921 173.81 125.369C173.812 120.818 174.822 116.014 174.57 111.464L174.569 111.465ZM40.0756 142.812C44.6252 140.537 47.4061 136.998 50.4411 133.711C60.3006 123.599 71.1723 114.244 78.2509 101.604C82.5484 94.0191 85.0772 85.9302 87.6044 77.8394C87.0982 77.8394 86.8461 77.8394 86.5939 78.0916C79.0092 84.9179 69.9081 89.2156 61.8192 95.5358C58.0278 98.3168 54.4886 101.604 49.4311 102.362C47.1562 102.868 45.8919 104.637 45.6397 107.166C44.6293 113.992 43.8692 120.817 42.6066 127.391C42.0987 132.195 39.5699 136.998 40.076 142.812L40.0756 142.812ZM135.131 164.302C135.89 168.851 138.671 165.818 140.441 166.072C141.452 166.072 143.222 165.566 142.716 163.797C142.464 162.027 140.693 162.787 139.935 162.787C129.317 163.797 118.446 165.568 107.828 164.809C99.7373 164.303 91.6483 164.809 83.5576 164.809C76.985 164.809 70.4111 164.557 63.5866 164.303C65.1032 165.062 67.378 163.797 67.8842 165.82C68.3903 167.843 65.1032 166.072 64.851 168.095C69.4006 169.611 74.7105 169.105 79.5139 171.382C77.4912 172.392 75.9746 171.888 74.7101 171.634C71.6769 171.382 68.6422 170.876 65.609 170.37C64.5985 170.37 63.5863 169.863 63.3341 171.128C62.828 172.898 64.5985 172.138 65.1046 172.392C65.6107 172.644 66.369 172.898 67.1273 172.898C76.4808 172.898 85.5818 174.669 94.9371 174.669C105.049 174.669 114.908 174.921 124.768 173.658C127.042 173.406 129.065 173.152 131.34 172.9C132.857 172.648 133.869 171.89 133.869 170.119C133.869 167.59 132.098 169.867 131.34 169.361C130.834 169.109 130.076 169.361 128.559 169.361C131.59 168.093 134.878 168.093 135.132 164.302H135.131ZM144.485 41.6897C142.462 43.4602 140.187 42.448 139.175 44.2185C140.439 45.7351 141.956 44.9768 144.231 44.9768C139.175 47.5056 143.22 48.0099 144.483 49.5264C141.702 48.7681 138.921 49.7786 136.646 48.5159C135.382 47.7577 132.855 49.0221 132.855 46.9994C132.855 45.4828 134.878 45.4828 136.394 45.2289C136.9 44.9767 137.658 44.9767 137.404 44.2184C137.152 43.7123 136.898 43.4601 136.14 43.7123C134.624 44.2184 133.359 44.9767 131.59 45.2289C126.281 45.9871 120.973 45.735 115.411 45.9871C113.894 45.9871 112.378 45.481 111.365 46.4933C109.595 48.2638 107.574 48.0098 105.551 48.2638C102.012 48.7699 98.725 47.7577 95.1857 48.5159C93.9213 48.7681 92.4047 49.7803 90.6361 48.5159C95.9459 47.2515 100.747 45.9871 105.805 46.4933C98.9792 44.7227 91.9005 46.7454 85.0743 46.4933C84.316 46.4933 83.0516 47.2515 82.7994 45.9871C82.5472 44.4706 84.0638 44.7227 85.0743 44.4706C86.3387 44.4706 87.6031 44.7227 88.8657 44.2184C87.3491 42.954 85.8325 42.4479 84.5682 42.7018C83.3038 42.954 82.2933 42.1957 81.2811 42.4496C80.0167 37.9 77.2358 40.6791 75.2133 41.1852C73.4428 41.6914 72.6845 41.4374 72.4323 39.1625C71.1679 41.4374 71.4218 42.1957 72.4323 44.2183C76.2237 50.5385 81.7858 53.8254 89.1181 52.309C90.1286 52.0568 91.3929 52.309 92.4051 52.309C91.899 53.0673 90.8885 52.309 90.6346 53.3195C92.4051 54.0778 93.9217 54.0778 95.9445 53.8256C97.715 53.5734 97.2089 49.7803 99.9898 51.5507C99.9898 52.5612 97.715 51.5507 98.2193 53.0673C98.4715 53.8256 98.9776 54.5839 100.494 54.8378C110.609 56.1005 120.721 55.3422 131.087 55.3422C135.89 55.3422 139.936 52.309 144.233 51.2968C149.289 50.0324 151.312 46.7472 153.334 42.7018C152.07 41.9435 151.059 42.4496 150.047 42.4496C149.541 42.4496 148.531 42.9558 148.531 41.6914C148.531 40.9331 149.037 40.1748 150.047 40.427C150.553 40.427 151.058 40.427 151.312 40.6791C153.586 41.1852 153.586 41.1852 154.345 38.1503C149.541 40.4252 144.233 39.4147 139.429 41.1835C139.429 41.4357 139.429 41.9418 139.682 42.1939C141.198 41.6896 142.715 41.6896 144.485 41.6896L144.485 41.6897ZM200.103 67.4765C199.344 66.9704 199.092 66.7183 198.586 66.4661C189.233 64.9495 180.636 62.4207 172.799 56.6066C172.293 56.1005 171.029 55.3422 170.018 56.3544C168.248 58.3771 169.26 65.9616 171.789 67.2242C183.671 74.0505 196.563 78.6001 210.468 78.8543C214.26 78.8543 217.295 72.7865 215.272 68.7429C214.766 70.0073 215.778 71.776 214.766 72.0299C211.733 73.0404 210.216 77.5917 205.917 76.0753C205.158 75.8231 203.894 76.3274 203.136 76.0753C200.355 75.317 197.574 75.8231 195.045 74.3048C199.09 74.3048 202.882 74.5569 206.927 74.8109C208.191 74.8109 209.96 75.063 210.466 73.2943C210.718 72.7882 211.225 72.0299 210.466 71.7777C209.456 71.0194 208.191 70.7673 206.675 71.2716C206.927 72.2821 208.445 71.7777 208.191 72.7882C208.191 73.5465 207.181 73.2943 206.675 73.2943C203.136 73.8004 199.596 71.5238 195.805 73.2943C196.311 70.7655 197.069 70.5133 199.092 71.5238C200.356 72.0299 202.125 72.2821 204.148 70.7655C200.356 70.5133 197.321 69.755 194.036 67.7323C196.816 67.7288 198.334 67.4766 200.103 67.4766L200.103 67.4765ZM51.7043 66.2121C47.4068 65.96 43.6135 67.9827 39.8223 67.7287C34.5124 67.2226 29.4567 70.0036 24.401 70.5097C23.3905 70.5097 23.1366 71.5202 23.3905 72.0263C23.8967 73.7968 24.1488 75.0594 21.62 74.5551C19.8495 74.049 19.0912 77.0839 17.0686 75.5655C16.5625 75.3134 16.3103 74.3011 15.8042 75.3134C15.552 75.8195 15.552 76.3238 15.552 77.0839C15.552 77.59 16.3103 77.59 16.8164 77.3361C26.1699 76.0717 35.5247 75.8195 44.8781 75.3134C49.1756 75.0612 50.188 74.049 50.4399 69.4992C50.692 68.2348 51.4503 67.4765 51.7043 66.2122L51.7043 66.2121ZM88.867 58.1232C91.1419 58.1232 90.1314 61.4102 92.9124 61.4102C99.7386 61.4102 106.817 61.9163 113.644 61.9163C120.47 62.1685 127.042 60.9059 133.869 61.1581C135.133 61.1581 135.639 60.9059 135.639 59.6415C135.387 58.3771 134.881 58.1249 133.364 58.1249C122.24 57.8727 110.864 59.6415 99.7408 58.3771C96.4502 58.1231 92.6586 57.1109 88.8674 58.1231L88.867 58.1232ZM60.8054 167.842C62.0698 168.6 63.0802 168.094 63.3342 166.831C63.3342 165.315 62.0698 166.073 61.3115 166.073C56.2558 165.063 50.9459 164.303 45.8902 163.292C44.1197 163.04 42.0988 162.282 40.8345 161.269C39.5701 160.259 41.5928 158.995 41.5928 157.982V157.224C41.5928 155.96 40.8345 155.201 39.8223 155.201C38.5578 155.201 39.064 156.466 39.064 156.972C38.3057 160.511 39.5701 163.798 41.5928 166.831C42.351 167.842 45.6381 169.106 45.6381 168.096C45.6381 163.798 47.4086 166.325 49.1773 166.579C52.7148 167.336 56.7602 166.577 60.8056 167.842L60.8054 167.842ZM150.299 36.6345C154.091 37.645 154.597 35.1179 154.597 32.5892C154.597 30.3143 153.586 28.0395 153.586 25.7629C153.586 23.7402 151.816 24.2463 150.299 24.2463C148.783 24.4985 148.025 25.0046 148.529 26.7751C148.781 27.7856 149.793 29.5561 148.023 30.0622C143.725 31.3266 147.517 33.8536 147.264 35.8763C147.266 37.1407 149.541 36.3824 150.299 36.6346V36.6345ZM69.6536 37.645C71.9285 36.8867 74.7093 36.8867 75.7215 35.3701C76.7319 34.1057 74.711 32.0831 73.951 30.5663V30.3141C74.2031 28.0393 73.1927 28.0393 71.4222 29.0497C70.6639 29.5559 70.1578 30.0602 69.1473 29.3019C68.8951 29.0497 68.8951 28.5436 68.8951 28.2914C69.1473 27.027 70.4117 27.5332 70.9178 27.5332C73.4466 27.5332 74.457 26.2688 73.4466 24.2461C72.9405 23.4878 73.4466 22.9817 73.4466 22.4756C73.6988 21.7173 73.9527 20.959 72.6883 21.2112C70.9178 21.4634 68.8969 21.7173 68.643 23.74C68.1369 26.0149 67.8847 28.5438 67.8847 31.0705C67.8847 32.081 67.6325 33.8515 69.6552 32.3349C70.4135 31.5766 70.6657 32.5871 70.6657 33.3454C71.424 34.6115 69.9074 35.6238 69.6535 37.6447L69.6536 37.645ZM159.906 162.785C152.321 165.314 144.991 167.082 137.406 168.347C135.383 168.599 136.396 170.369 136.142 171.38C135.89 172.896 137.406 172.39 138.164 172.138C140.439 171.632 143.22 172.138 143.726 168.851C143.726 168.093 143.978 168.345 144.485 168.345C150.046 168.851 154.344 165.312 159.4 163.795C159.652 164.048 159.652 163.543 159.906 162.785L159.906 162.785ZM161.17 167.082C164.71 166.324 167.491 165.312 170.272 163.795C172.042 162.785 173.305 157.728 172.294 155.959C172.042 155.453 171.536 155.453 171.03 155.707C168.755 156.717 166.732 157.729 164.457 158.74C166.986 158.234 166.732 158.234 167.744 160.51C167.997 161.016 169.009 161.016 169.767 161.521C166.984 163.29 163.445 163.543 161.17 167.083L161.17 167.082ZM160.158 160.762C156.113 158.992 152.574 162.279 148.782 161.773C147.772 161.521 146.76 162.025 145.749 162.025C144.739 162.277 144.485 162.783 144.739 163.795C144.991 164.806 145.749 164.806 146.255 164.554C150.551 163.289 155.355 162.027 160.158 160.762L160.158 160.762ZM56.507 162.785C52.7156 160.51 48.4162 160.256 44.3727 158.74C43.6144 158.487 42.8561 158.74 42.6021 159.498C42.35 160.762 43.3604 160.256 43.8665 160.508C47.9101 162.027 52.2079 162.279 56.5069 162.785L56.507 162.785ZM88.6122 119.048C88.3601 117.531 87.6018 117.025 86.0834 117.025C83.8086 117.277 83.8086 118.796 83.5546 120.564C83.3025 121.829 84.3129 122.081 85.3252 122.081C87.0957 121.829 87.854 120.312 88.6122 119.048L88.6122 119.048ZM96.9549 138.514C96.4488 138.514 96.1966 139.273 96.4488 140.031C96.9549 141.802 97.9654 142.812 99.7358 142.812C100.494 142.812 101.759 142.56 101.252 141.548C100.494 140.285 99.7358 138.767 96.9549 138.514ZM159.651 166.576C155.102 167.841 150.55 169.357 146.001 170.621C151.056 170.874 155.354 168.851 159.651 166.576Z" fill="#605B70"/>
<path d="M104.793 127.39C100.496 127.39 96.4507 123.345 96.7026 119.048C96.9548 113.486 101.506 108.43 106.31 108.43C113.64 108.43 117.18 110.958 117.18 116.266C116.929 121.828 110.609 127.39 104.793 127.39H104.793ZM103.783 121.07C108.08 120.818 110.609 119.047 110.609 115.76C110.609 113.231 109.093 112.727 106.818 112.727C104.543 112.727 100.498 116.266 101.004 118.037C101.254 119.301 101.254 121.576 103.783 121.07H103.783Z" fill="#605B70"/>
<path d="M120.215 101.098C120.215 104.131 117.94 107.166 115.917 107.166C114.401 107.166 110.355 103.121 110.355 101.604C110.355 99.5816 114.147 96.2944 116.676 96.5485C119.963 96.5468 119.711 99.0756 120.215 101.098H120.215ZM115.411 104.89C117.181 104.637 118.192 103.625 118.192 101.856C118.192 100.592 118.192 99.0755 116.421 99.0755C114.651 99.3276 113.64 100.846 113.388 102.363C113.136 104.131 114.148 104.89 115.411 104.89V104.89Z" fill="#605B70"/>
<path d="M89.1195 128.149C92.6587 128.149 94.4294 129.919 94.4294 132.446C94.4294 135.227 91.9006 137.502 89.1195 137.502C86.5907 137.502 85.3281 135.479 85.3281 131.688C85.3281 128.402 87.0969 127.896 89.1195 128.148V128.149ZM89.1195 130.171C88.3612 130.677 86.8447 130.677 87.0968 132.194C87.349 133.458 87.0968 135.227 88.8674 135.227C90.3839 135.227 91.3961 133.963 91.6483 132.698C92.1527 130.425 89.8778 131.184 89.1195 130.171Z" fill="#605B70"/>
<path d="M125.524 102.868C128.557 102.868 130.074 104.132 130.328 106.659C130.58 108.43 127.041 111.209 125.272 111.209C123.249 111.209 119.962 108.176 120.468 105.899C120.973 103.374 123.754 103.374 125.524 102.868V102.868ZM125.018 108.936C126.028 108.177 127.547 107.925 127.799 106.661C128.051 105.65 127.041 104.89 126.028 105.144C124.764 105.396 124.006 106.409 124.006 107.673C123.753 108.177 124.007 108.936 125.018 108.936Z" fill="#605B70"/>
<path d="M106.31 101.351C105.552 103.374 105.806 105.902 102.771 106.155C100.496 106.407 97.9673 103.626 97.9673 101.605C97.9673 99.8347 101 96.5495 102.771 96.5495C105.552 96.8016 105.806 99.0765 106.31 101.351V101.351ZM105.048 101.603C104.289 100.593 104.289 99.0744 102.773 99.3283C101.002 99.5805 99.7396 100.593 99.7396 102.109C99.7396 103.12 100.246 104.638 101.762 104.132C103.025 103.88 104.289 103.122 105.048 101.603H105.048Z" fill="#605B70"/>
<path d="M84.8218 109.441C85.3279 105.902 87.6028 104.131 90.1316 102.615C91.6482 101.604 92.9126 102.615 93.923 104.131C95.1874 106.154 94.9335 107.67 93.1647 108.935C91.6482 110.199 89.6255 110.958 88.109 109.187C86.5907 107.418 86.0864 108.177 84.822 109.441L84.8218 109.441ZM92.1523 105.902C92.4045 104.637 91.6462 104.131 90.6357 104.131C88.8652 104.131 88.8652 105.396 88.8652 106.406C88.613 107.416 88.8652 108.429 90.1296 108.429C91.6479 108.429 91.9001 107.164 92.1523 105.902Z" fill="#605B70"/>
<path d="M124.513 50.031C121.226 50.5371 118.193 52.3058 114.401 50.2831C112.631 49.2727 110.61 52.3058 108.334 51.5475C118.699 52.8119 128.811 51.5476 139.176 50.031C136.143 51.0414 133.866 53.318 130.581 53.318C121.228 53.5702 112.127 53.8241 102.771 53.8241C102.265 53.8241 100.496 54.5824 100.749 53.0658C100.749 52.0554 100.749 50.2849 102.771 50.537C102.771 50.537 105.552 51.8014 104.542 49.2726C104.29 48.7665 109.091 48.7665 109.598 49.5248C110.356 50.7892 110.356 50.7892 111.368 50.0309C113.139 48.2604 114.907 47.2499 117.436 49.0205C119.205 50.2831 122.238 48.7665 124.513 50.0309L124.513 50.031Z" fill="#605B70"/>
</svg>
