<svg width="96" height="66" viewBox="0 0 96 66" fill="none" xmlns="http://www.w3.org/2000/svg">
<path d="M17.5638 9.60644L14.8506 6.89323C12.5041 4.54669 9.27735 2.34668 8.54396 3.08002C7.81056 3.81335 6.34396 7.18662 7.37069 11.44L10.0839 8.72681C10.4506 8.36014 10.8905 8.28686 11.1106 8.50671L14.9974 12.3935C15.2175 12.6136 15.144 13.1268 14.7773 13.4202L13.2374 14.9602C13.2374 14.9602 11.844 15.6935 11.0374 14.8869C10.3773 14.2268 10.5241 13.5668 10.5241 13.4202C10.5241 13.2736 10.5974 12.9803 10.3776 12.9803C10.1575 13.0535 10.0842 13.1268 10.0109 13.3469C9.93762 13.4935 9.35085 15.6202 10.7442 16.9403C12.3575 18.5535 16.171 20.8271 17.6376 21.707L17.6371 9.60638L17.5638 9.60644Z" fill="url(#paint0_linear_422_1017)" fill-opacity="0.4"/>
<path d="M16.0971 40.1136V38.7935L15.877 38.5734H14.5569C14.0437 38.5734 13.5302 38.1334 13.5302 37.5467V36.2265L13.3101 36.0065H11.99C11.4767 36.0065 10.9632 35.5665 10.9632 34.9797L10.9637 33.7336L10.7436 33.5135H9.57035C9.05712 33.5135 8.54363 33.0736 8.54363 32.4868V31.1667L8.32353 30.9466H7.0034C6.49017 30.9466 5.97668 30.5066 5.97668 29.9198V29.1132C4.14334 28.3066 2.6034 27.94 1.13674 29.4066C-0.769868 31.3132 -0.109807 33.8066 1.87007 35.7133L17.5634 52.2133L17.5636 41.0672H17.1237C16.5369 41.0672 16.097 40.6273 16.097 40.1138L16.0971 40.1136Z" fill="url(#paint1_linear_422_1017)" fill-opacity="0.4"/>
<path d="M28.6371 0C23.7239 0 19.6904 4.03333 19.6904 8.94667V57.0533C19.6904 61.9668 23.7238 66 28.6371 66C33.5504 66 37.5838 61.9667 37.5838 57.0533V8.94667C37.5838 4.03345 33.5504 0 28.6371 0ZM32.817 12.1733H30.177V14.8133H27.2437V12.1733H24.6038V9.24H27.2437V6.60006H30.177V9.24H32.817V12.1733Z" fill="url(#paint2_linear_422_1017)" fill-opacity="0.4"/>
<path d="M52.0304 25.5937L39.7837 9.16699V25.887C40.6636 27.1335 41.5438 28.3804 42.2771 29.3335C49.2438 39.0135 58.4838 39.3802 58.4838 39.3802C58.4838 39.3802 52.6171 29.4802 52.0304 25.5935L52.0304 25.5937Z" fill="url(#paint3_linear_422_1017)" fill-opacity="0.4"/>
<defs>
<linearGradient id="paint0_linear_422_1017" x1="12.3276" y1="2.93652" x2="12.3276" y2="21.707" gradientUnits="userSpaceOnUse">
<stop stop-color="#9D2EF4"/>
<stop offset="1" stop-color="#F42E3A"/>
</linearGradient>
<linearGradient id="paint1_linear_422_1017" x1="8.78182" y1="28.4072" x2="8.78182" y2="52.2133" gradientUnits="userSpaceOnUse">
<stop stop-color="#9D2EF4"/>
<stop offset="1" stop-color="#F42E3A"/>
</linearGradient>
<linearGradient id="paint2_linear_422_1017" x1="28.6371" y1="0" x2="28.6371" y2="66" gradientUnits="userSpaceOnUse">
<stop stop-color="#9D2EF4"/>
<stop offset="1" stop-color="#F42E3A"/>
</linearGradient>
<linearGradient id="paint3_linear_422_1017" x1="49.1337" y1="9.16699" x2="49.1337" y2="39.3802" gradientUnits="userSpaceOnUse">
<stop stop-color="#9D2EF4"/>
<stop offset="1" stop-color="#F42E3A"/>
</linearGradient>
</defs>
</svg>
