<svg preserveAspectRatio="none" width="100%" height="100%" overflow="visible" style="display: block;" viewBox="0 0 40 28" fill="none" xmlns="http://www.w3.org/2000/svg">
<g id="Symbol">
<path id="B" fill-rule="evenodd" clip-rule="evenodd" d="M3.30229 16.3229C3.34017 16.1315 3.4379 16.0016 3.66907 16.0091C3.69963 16.2707 3.51409 16.3105 3.30229 16.3229ZM7.09362 15.4438C7.01398 15.4319 6.82628 15.2702 6.66571 15.4438C7.07812 15.5366 7.63259 15.5247 7.09362 15.4438ZM16.2054 0.753077C15.6432 1.15967 15.0375 1.52074 14.6767 2.1346C14.5876 2.00158 14.2402 2.41657 14.4929 2.44839C14.9178 2.0608 15.7073 1.43102 16.2054 0.753077ZM15.0435 23.5425C15.0159 23.1072 14.7542 23.5456 14.6767 23.2915C14.6857 23.0917 14.8153 23.0153 14.799 22.789C14.5523 22.8288 14.6328 23.2044 14.6156 23.4798C14.6939 23.5659 14.8808 23.5416 15.0435 23.5425ZM15.1046 9.60572C15.1046 9.54252 15.1046 9.48021 15.1046 9.41701C14.9277 9.53103 14.8261 9.42894 14.799 9.60572C14.9006 9.60572 15.0026 9.60572 15.1046 9.60572ZM15.5937 9.10322C15.4929 9.09969 15.1205 9.00334 14.9824 9.10322C15.1877 9.05373 15.5041 9.43822 15.5937 9.10322ZM15.4103 10.1073C15.4464 10.0494 15.0452 10.06 15.1046 10.2328C15.22 10.205 15.4731 10.3186 15.4103 10.1073ZM15.5325 18.9595C15.3836 18.9949 15.2183 19.0134 15.2269 19.2106C15.3422 19.1407 15.5076 19.1226 15.5325 18.9595ZM16.2665 13.8745C16.3096 13.5877 15.9617 13.7459 15.8382 13.8113C15.9966 13.9178 15.7435 14.1282 15.5325 14.0628C15.65 14.4159 15.0848 14.3947 15.288 14.6271C15.5949 14.3571 15.8016 13.9828 16.2665 13.8745ZM16.6333 5.39927C16.6591 5.22116 16.2179 5.20481 16.2049 5.27375C16.3375 5.32635 16.4137 5.43595 16.6333 5.39927ZM17.1835 10.045C17.0405 10.0605 16.6617 9.8099 16.6944 10.045C16.9592 9.95751 17.0995 10.3177 17.1835 10.045ZM17.6729 6.27786C17.5752 6.22659 17.2997 6.04009 17.1835 6.2151C17.3888 6.15632 17.5692 6.44094 17.6729 6.27786ZM22.7488 12.6817C22.6313 12.6719 22.2383 12.4342 22.2594 12.6817C22.4225 12.6454 22.6412 12.8673 22.7488 12.6817ZM27.151 9.91906C26.9375 9.9058 26.6237 9.66892 26.4786 9.79399C26.6814 9.8183 26.9913 10.0587 27.151 9.91906ZM29.2303 5.14824C29.3874 5.10449 29.5523 5.53583 29.5364 5.27375C29.2621 4.80927 28.5566 5.32723 28.1295 5.52434C27.6108 5.76476 26.9517 5.92784 26.6624 6.27786C27.532 5.91502 28.2763 5.42402 29.2303 5.14824ZM34.1232 17.6412C33.7237 17.5767 33.4095 18.0575 33.0221 18.206C33.5386 18.1715 33.7401 17.8136 34.1232 17.6412ZM35.0402 13.3097C34.8714 13.3313 34.611 13.1294 34.49 13.3097C34.6962 13.2491 34.9076 13.5015 35.0402 13.3097ZM1.03963 18.0805C0.653484 18.5211 0.0736138 19.0974 0 19.6498C0.0990128 19.4585 0.142923 19.2106 0.428338 19.2106C0.416284 18.7792 0.841608 18.48 1.03963 18.0805ZM0.611296 20.5289C1.03016 20.3097 1.12358 19.7572 1.65093 19.6498C1.84508 19.1257 1.71464 19.0183 2.07884 18.6457C2.29796 19.1354 2.94197 18.3417 2.93508 18.2065C2.84382 18.244 2.6798 18.522 2.62943 18.3947C2.75729 18.2405 2.82832 17.521 3.30229 17.5161C3.53562 16.8435 4.13658 16.421 4.64757 15.884C4.79652 15.9194 4.96226 15.9375 4.95322 16.135C4.51412 17.0026 3.59158 17.3738 3.05777 18.1437C3.65745 17.7336 4.09267 17.1555 4.7087 16.7626C4.57009 17.8458 5.91149 17.2815 6.35963 17.3274C5.30235 18.4606 4.04532 19.7228 3.24073 20.9059C5.02253 19.2822 6.31357 16.8201 8.74455 16.0718C8.13498 16.7851 7.46599 17.4383 6.78754 18.0809C6.67647 18.0235 6.31099 17.9059 6.23737 18.0177C6.48964 18.1291 6.46381 18.1534 6.72641 18.2065C6.66528 18.2065 6.60415 18.2065 6.54302 18.2065C6.44659 19.036 5.19257 19.5349 5.01435 20.2783C5.77201 19.675 6.27397 18.8097 7.09362 18.2692C7.31274 18.4226 7.91284 18.5149 8.13325 18.4575C7.84396 18.2944 7.31532 18.3766 7.15518 18.0809C8.27273 17.0521 9.34508 15.9759 10.5186 15.0045C11.1445 15.1575 11.7554 15.3258 12.2918 15.5698C12.0946 16.0453 11.6456 16.4974 11.2522 16.5739C11.2461 17.0494 10.587 17.3972 10.2737 17.7667C9.97532 17.6527 9.49274 17.3977 9.23402 17.4525C9.54182 17.6173 9.9835 17.6461 10.2125 17.8918C9.98781 18.0796 9.85091 18.358 9.60123 18.5198C9.29687 18.2458 9.16514 18.5883 8.86724 18.6453C8.78846 18.5587 8.60163 18.583 8.4389 18.5821C7.99248 18.5498 9.22885 18.6511 9.17289 19.0218C9.1251 19.0355 9.10186 19.074 9.11176 19.1469C8.91976 19.0762 8.95032 19.1655 8.80611 19.0842C8.76048 19.2777 8.974 19.2048 8.92837 19.3979C8.32439 20.0962 7.50474 20.9081 7.21588 21.7208C7.35321 21.4937 7.53057 21.5511 7.64379 21.407C7.4096 21.4185 7.62183 21.3558 7.58266 21.2188C7.73462 21.2258 7.77164 21.3363 7.8883 21.2188C7.87625 20.737 8.25121 20.6783 8.50003 20.277C8.53619 20.2182 8.48712 20.0401 8.50003 20.0264C8.53878 19.9831 9.49619 19.3975 8.92794 19.649C8.99811 19.169 9.58401 19.5889 9.78375 19.4607C9.57755 19.3025 9.4075 19.4788 9.35585 19.2097C9.60682 19.2335 9.78763 18.9321 9.96714 18.7072C9.87889 18.6718 9.81819 18.6091 9.78375 18.5189C10.776 17.5913 11.5608 16.4506 12.6581 15.6312C12.8432 15.6502 12.8768 15.8248 13.1472 15.7567C13.1842 15.4673 12.6215 15.7939 12.7193 15.4425C13.8609 14.2917 14.9518 13.0887 16.2049 12.0528C16.3117 12.0475 16.3952 12.0665 16.4495 12.1155C16.4675 11.9922 16.3668 11.9914 16.3272 11.9273C16.3616 11.8367 16.4228 11.7739 16.5106 11.7386C16.8481 11.8738 17.4237 11.7637 17.428 12.2406C17.0819 12.2808 16.7551 11.9715 16.5106 12.1155C16.6776 12.1951 16.9032 12.215 17.0608 12.3038C16.8193 12.7254 16.3233 12.8863 16.0211 13.2456C16.5605 13.0666 16.932 12.3816 17.4891 12.4293C17.5619 12.7166 16.9945 12.6706 17.1835 12.8686C17.4224 12.7581 17.5321 12.5146 17.7952 12.4293C18.0565 12.5588 18.4831 12.5182 18.7121 12.6803C18.5881 13.079 18.0255 13.281 18.0393 13.6221C17.7474 13.5099 17.6613 14.0981 17.3053 14.1242C17.0018 14.0787 16.6014 13.8024 16.3268 13.9359C16.6234 14.0712 17.1486 13.9717 17.2442 14.3133C16.6505 15.0098 15.6625 15.606 15.2876 16.322C15.22 16.2168 14.6819 16.2915 14.5536 16.196C14.5949 16.3419 14.8313 16.288 14.8592 16.4471C14.616 16.8249 14.2402 17.0671 13.8807 17.3261C13.7843 17.2934 13.5531 17.0843 13.4528 17.2633C13.613 17.2457 13.7159 17.2863 13.6973 17.4516C13.2328 17.9077 12.6418 18.8778 11.8626 18.2679C12.1945 17.6673 12.7959 17.3424 13.1467 16.7613C12.894 16.7759 12.956 17.1515 12.6577 16.9496C12.5212 17.5634 11.9952 17.7764 11.7403 18.2679C11.4924 18.1247 11.1549 18.0743 10.8841 17.9541C10.9495 18.2635 11.5143 18.0602 11.6181 18.3311C11.4549 18.6802 11.1544 18.9551 10.7618 18.8959C10.7988 19.0037 11.052 18.891 11.0675 19.0214C10.8849 19.3149 10.6469 19.5522 10.3946 19.7749C10.4174 19.6543 9.97274 19.6043 10.1501 19.7113C10.3498 19.8412 10.6598 19.858 10.7614 20.0883C10.4743 20.0869 10.4945 20.4003 10.2112 20.402C10.2293 20.3636 10.3636 20.1607 10.2112 20.1515C10.1045 20.3976 9.86985 20.5121 9.84445 20.8422C10.3808 20.7233 10.6198 20.2991 11.0063 20.0264C11.1527 20.2036 11.2315 20.0878 11.4954 20.0887C11.4282 20.4096 11.8488 20.2284 11.8626 20.4657C11.6702 20.8131 11.3361 21.3474 11.312 21.6581C11.569 21.2736 11.7657 20.8268 12.1071 20.5284C12.2621 20.6548 12.4627 20.6911 12.5966 20.6535C12.5475 20.4533 12.3533 20.4016 12.2909 20.2142C13.0064 19.3272 13.622 18.0372 14.5536 17.5776C14.5687 17.1679 15.105 16.5072 15.5932 16.5735C15.6182 16.4219 15.4817 16.4365 15.5321 16.2592C16.7129 15.0019 17.9613 13.8148 19.3238 12.7435C19.7298 13.0171 20.4836 12.934 20.8525 13.246C20.2679 13.6738 19.7307 14.476 19.0793 14.6271C19.1288 15.1097 18.7302 14.8857 18.5292 15.0041C19.0862 15.0974 18.521 15.2856 18.2846 15.5066C17.9979 15.7744 17.3449 16.6181 16.9394 16.8249C16.697 16.9482 16.8227 17.0128 16.6948 17.1387C16.366 17.4627 15.8812 17.7225 15.6552 17.955C15.443 17.9603 15.1799 17.6934 15.0439 17.8295C15.1524 17.9484 15.4921 17.8299 15.4723 18.0805C15.1791 18.556 14.6599 19.0554 14.2492 19.2106C14.3878 19.3228 14.034 19.6993 13.882 19.5248C13.656 20.0631 13.3026 20.6756 12.5979 20.5289C12.5819 20.7123 12.7361 20.722 12.7201 20.9054C12.2225 21.2948 11.8992 21.8622 11.3133 22.1614C11.284 22.0872 11.2483 22.0187 11.191 21.9727C11.191 22.538 10.7446 22.6445 10.5797 23.04C10.95 22.5336 11.6323 22.8478 12.0477 22.7262C11.7412 22.6617 11.631 22.5981 11.4971 22.4752C11.7171 22.1349 12.3904 21.9281 12.4145 21.5966C12.1669 21.8247 11.7666 22.2277 11.4971 22.2242C12.0382 21.7518 12.591 20.9651 13.2096 20.7804C13.105 21.0071 12.9328 21.1653 12.7817 21.3452C13.0456 21.3438 13.0068 21.0323 13.2707 21.0314C13.4296 21.1405 13.7025 21.1321 13.7602 21.3452C13.613 21.5723 13.114 21.7677 13.2096 22.0359C13.6616 21.7142 14.0663 21.1918 14.6776 21.2196C14.6057 21.2099 14.5041 21.2298 14.4937 21.1564C14.8666 20.5691 15.4882 19.9548 16.2674 20.1523C16.1085 20.0852 15.8575 20.1126 15.7779 19.9636C16.4043 19.5791 16.9527 18.214 17.8572 18.8968C17.4392 19.2459 17.1537 20.0516 16.3285 19.7758C16.2428 20.0936 16.6092 19.9482 16.573 20.2147C16.5356 20.1965 16.3375 20.0582 16.3285 20.2147C16.3939 20.2248 16.5106 20.2041 16.5119 20.2779C16.5209 20.7362 15.2415 21.6178 14.7994 21.3452C14.8889 21.3995 14.9935 21.4389 14.9828 21.5962C14.7421 21.6916 14.5579 21.411 14.4933 21.533C14.7241 21.6254 14.6565 21.7403 14.5549 21.91C14.8661 21.8932 15.0908 21.4583 15.35 21.5962C15.3117 21.9135 14.9165 22.1955 14.9828 22.4125C15.1911 22.1451 15.4288 21.9073 15.6556 21.6585C15.7 21.8017 16.0043 21.6779 15.9613 21.91C15.5553 22.0571 15.474 22.7329 14.9828 22.6007C14.9328 22.7011 14.7508 22.9839 14.9217 23.1032C15.3965 22.6904 16.0134 22.424 16.4503 21.9727C16.7211 22.1133 17.115 22.1274 17.2454 22.4125C16.8558 22.5146 16.6122 22.7669 16.3281 22.9773C16.9002 22.6838 17.5093 22.1632 18.1628 22.4748C18.0285 22.3192 17.6071 22.4593 17.6127 22.161C18.2261 21.9122 18.663 21.4817 19.2025 21.1564C19.3759 21.3337 19.7914 21.263 19.8753 21.5334C19.2494 21.7473 19.0173 22.6339 18.2244 22.4752C18.6734 22.865 17.7732 23.0714 17.7349 23.5425C18.4672 23.7617 18.8718 22.7943 19.5085 22.9145C19.4706 22.5013 20.2451 22.0063 20.6704 22.4125C20.5142 22.6838 20.2158 23.0285 19.8146 22.8518C19.716 23.0988 20.0785 22.8739 20.0591 23.04C19.6441 23.4307 19.171 23.7613 18.8357 24.2328C19.7169 23.9655 19.9029 22.9843 21.0983 23.04C20.9352 22.9985 20.7165 23.0135 20.6089 22.9145C21.0729 22.6401 21.4621 22.0885 21.9541 22.0359C21.8797 22.0284 21.8095 22.0169 21.8323 21.9104C22.2899 21.7093 22.7363 21.126 23.2994 20.8431C22.7196 21.5449 22.336 22.0669 21.7101 22.7267C21.6115 22.5981 21.4156 22.5689 21.2817 22.4757C21.2951 22.7342 21.6627 22.629 21.7101 22.8526C21.6011 22.9503 21.4703 23.0254 21.3428 23.1037C21.4113 23.1165 21.438 23.1731 21.4651 23.2292C20.9653 24.0446 19.7866 24.9903 20.2421 26.1796C20.5383 26.1416 20.8603 26.3975 21.0979 26.1164C20.8788 26.0868 20.7449 26.0148 20.5477 26.1164C20.1805 25.7876 20.9072 25.2202 20.7316 24.7358C20.8125 24.6726 20.9158 24.6324 20.9761 24.5471C20.8499 23.9526 21.5271 23.5288 21.7096 23.1032C21.9804 23.1717 22.0136 22.9972 22.1987 22.9777C22.2439 22.7638 21.9735 22.8743 21.9541 22.7267C22.1612 22.5203 22.299 22.2432 22.5047 22.0359C22.7807 22.1729 23.2624 22.4288 23.5439 22.3497C23.2245 22.2176 22.8233 22.1694 22.5659 21.9727C22.8664 21.5277 23.2581 21.1768 23.6055 20.7804C24.3051 21.1715 25.2272 21.3337 25.6236 22.0359C23.8944 23.2305 22.2706 24.7031 21.0983 25.8026C21.1866 25.941 21.2477 25.7231 21.2817 25.8654C21.2305 26.0006 20.9666 25.9184 20.9149 26.0541C21.2783 26.0629 21.2352 26.3418 21.5262 26.1164C21.3144 25.9843 22.4049 25.5485 22.7497 25.4257C22.156 26.3449 20.983 27.0025 20.6704 28C20.6958 27.7954 20.9614 27.8382 21.0983 27.749C21.1009 27.6628 21.0699 27.6111 21.0368 27.5607C21.1982 27.718 21.243 27.4034 21.4044 27.372C22.4225 26.0316 23.3821 24.631 25.318 24.2328C25.3757 24.4596 25.7571 24.3102 25.8682 24.2956C25.6766 24.3248 25.696 24.1383 25.6236 24.0446C25.8527 23.7626 26.1803 23.5164 26.2354 23.2287C27.3439 22.717 28.3301 21.9329 29.2931 21.2828C29.8541 20.9037 30.5209 20.6425 30.8218 20.0896C29.5725 20.92 28.2264 21.9869 26.9694 22.6012C28.9225 20.7914 30.8967 19.755 33.0849 18.2692C32.0931 18.6612 31.5945 19.2371 30.7 19.6503C30.8937 19.3564 31.05 19.4519 31.0056 19.1478C31.7655 19.0576 32.1159 18.457 32.7793 18.0809C32.4254 18.0005 32.0061 18.7014 31.6781 18.6457C33.6958 17.0751 35.8319 15.6277 37.4875 13.6858C35.9705 14.1595 34.713 15.1274 33.5128 16.0091C31.5928 17.4189 29.8885 18.9741 27.8867 20.2779C29.8424 17.8905 32.5283 16.2539 34.1857 13.5603C34.0699 13.5731 33.5817 13.5183 33.7578 13.6235C33.8464 13.6575 34.0733 13.5501 34.0634 13.6862C31.9729 16.3529 29.3147 18.4371 27.0309 20.9059C26.7025 20.7618 26.4282 20.5629 26.0528 20.4666C26.3176 20.6968 26.7507 20.7543 26.9698 21.0318C26.6809 21.2227 26.2991 21.5604 25.9306 21.4711C26.0029 21.5012 26.0692 21.5374 26.114 21.5966C25.9538 21.6833 25.9039 21.8826 25.6861 21.9104C25.4773 21.5387 25.0085 21.4344 24.7076 21.1569C25.0244 21.1268 25.324 21.4428 25.5638 21.2828C24.9151 21.0906 24.1514 21.0164 23.6684 20.6544C24.7442 19.6039 26.0503 18.7894 27.2147 17.8295C26.8441 17.909 26.6943 18.2157 26.3589 18.332C26.2978 18.2484 26.1936 18.2087 26.1755 18.0809C26.9035 17.4498 27.6874 16.779 28.4989 15.9463C28.727 15.9446 29.0314 16.1916 29.1717 16.0718C29.0241 15.972 28.7275 16.0259 28.6827 15.8208C28.944 15.5353 29.4283 15.8721 29.6001 16.0718C29.5217 16.1576 29.3108 16.1576 29.2324 16.0718C29.2191 16.1907 29.3018 16.2102 29.294 16.3229C28.56 16.7622 27.8842 17.2607 27.2147 17.7672C28.0977 17.3751 28.7034 16.6999 29.5385 16.2601C29.6698 16.3976 29.8747 16.4586 30.1503 16.4484C30.2475 16.0975 29.8876 16.2159 29.8442 16.0095C31.0224 15.1265 32.3298 14.3761 33.6359 13.6239C33.0264 13.7724 32.6277 14.1374 32.1068 14.377C31.9118 14.1591 31.6479 14.0115 31.3733 13.8749C31.5924 14.0685 31.8602 14.2117 32.0461 14.4397C31.2786 14.8865 30.5889 15.4133 29.8446 15.884C29.703 15.9176 29.6341 15.5658 29.539 15.7585C29.6052 15.7735 29.6862 15.8619 29.6005 15.884C29.3797 15.7965 29.1946 15.6723 28.9888 15.5702C30.3397 14.2904 31.3883 13.3101 32.7805 12.2424C33.0586 12.3347 33.4616 12.6295 33.6979 12.5566C33.2304 12.325 32.7418 12.1147 32.23 11.929C32.1972 11.7832 32.5395 11.7125 32.3522 11.6148C32.2046 11.6935 32.2123 11.9312 31.985 11.929C31.9781 11.8097 31.7831 11.8853 31.8016 11.7403C32.0169 11.6325 32.295 11.4491 32.5356 11.5521C32.3716 11.1194 31.8696 11.7244 31.5571 11.7403C30.7366 11.4641 29.796 10.8679 29.0499 11.0496C29.3922 11.027 30.0022 11.3496 30.0284 11.2378C29.9905 11.1512 29.7929 11.2285 29.7839 11.1128C30.3255 11.3519 30.892 11.5649 31.3737 11.8658C31.1576 12.0351 30.9139 12.0104 30.7008 12.0545C31.1498 12.0912 30.5906 12.2327 30.5782 12.3683C30.9402 12.2344 31.27 11.9843 31.6182 12.3051C31.1709 12.5796 30.923 12.9376 30.2729 13.2469C30.1197 13.1325 29.87 13.1165 29.7835 12.9331C30.0357 12.7533 30.3664 12.6525 30.5175 12.3683C30.4219 12.3206 29.8971 12.1827 30.028 12.3051C30.1348 12.3626 30.3328 12.3268 30.3948 12.4306C29.5898 13.4038 28.2595 12.2053 27.5208 11.9909C27.6078 11.8552 27.8174 11.6369 28.0099 11.8026C28.0288 11.6798 27.9281 11.6785 27.8876 11.6144C28.3646 11.4296 28.5028 10.8869 28.9888 10.7358C29.2187 10.7738 29.5114 11.0752 29.7223 10.924C29.4791 10.8392 29.192 10.7994 29.0495 10.6103C29.7533 9.76305 30.6186 9.08201 31.1899 8.09868C29.9307 8.44914 28.7778 9.42275 27.6431 10.1078C27.5277 10.0384 27.3546 10.0278 27.2152 9.98226C27.1553 10.2315 27.5574 10.0083 27.5212 10.2333C27.2789 10.4949 26.7115 10.3062 26.6039 10.045C26.1273 10.1886 25.504 10.0247 25.197 9.79399C25.3275 9.69676 25.4248 9.56727 25.5642 9.48021C25.9065 9.57257 26.0658 9.79708 26.4205 9.66848C26.1321 9.60837 25.8914 9.49965 25.6249 9.41745C25.6637 9.20399 26.117 9.08864 25.9921 8.91496C25.8027 9.28045 25.3606 8.64404 25.197 8.78988C25.3671 8.9291 25.6499 8.95296 25.7472 9.16642C25.2371 9.04135 24.3124 8.74481 23.6684 8.78988C23.7402 8.79917 23.8414 8.77884 23.8517 8.85264C23.2956 9.01218 23.565 8.34263 23.5457 8.22463C23.6374 8.08233 24.0115 8.37445 24.0963 8.22463C24.0179 8.11724 23.7303 8.22331 23.7291 8.03637C24.4028 7.68502 25.1217 7.21744 25.7472 6.84355C25.9934 6.69638 26.2943 6.55805 26.4201 6.34106C25.4807 6.73792 24.7024 7.63331 23.7291 7.78534C23.9254 7.76855 24.2986 7.51133 24.0347 7.40836C24.0433 7.62226 23.6034 7.69651 23.3618 7.97317C23.0609 7.73805 22.4217 7.85031 22.2611 7.47112C22.7669 7.17324 23.3575 6.7008 23.8509 6.59208C24.0282 6.21996 24.8363 6.00739 25.0128 5.90176C25.4992 5.60919 26.0253 4.99135 26.786 4.89722C26.8105 4.78938 26.6951 4.73635 26.786 4.7085C27.0567 4.61923 26.9457 4.92108 27.1527 4.89722C27.2797 4.69215 27.6125 4.69922 27.5815 4.33241C26.2281 4.81325 25.064 5.67283 23.8509 6.34106C22.8474 6.89393 21.9348 7.85561 21.0988 7.15778C21.2877 6.93327 21.4048 6.63407 21.8939 6.71804C21.9404 6.39586 21.9145 6.33575 22.2611 6.27874C21.8228 6.18416 21.3975 6.07721 21.0992 5.83945C21.1629 5.79348 21.3868 5.59991 21.2826 5.58842C21.1694 5.81426 20.8986 5.81956 20.7328 5.83945C20.8026 6.12583 20.995 5.82442 21.0996 6.15323C20.7724 6.14085 20.5671 6.06705 20.3049 6.21643C20.7328 6.48336 21.8762 6.00297 21.8336 6.65572C21.6649 6.65484 21.5099 6.54258 21.6498 6.4047C21.5172 6.62788 20.8017 6.70301 20.7328 6.3415C20.3553 6.42282 19.9274 6.38304 19.6928 6.15323C19.899 6.15721 20.2563 6.27565 20.1822 6.09003C19.2442 6.14085 18.3656 5.75636 17.4917 5.65118C17.7061 5.70598 18.1947 5.82177 17.7973 5.96452C18.2252 6.05114 18.7814 5.88718 19.0199 6.27874C19.8878 6.22792 20.4896 6.61241 21.3437 6.71804C21.1991 6.88332 21.1009 7.09634 20.8542 7.15778C20.5542 7.0685 20.212 7.02165 19.9984 6.84355C20.057 6.73616 20.2012 6.71715 20.2429 6.59252C19.8013 6.99823 19.4 6.61727 18.8977 6.71804C19.1598 6.76312 19.4091 6.82057 19.5705 6.96906C19.2007 7.15424 18.9493 7.46139 18.5309 7.59663C18.2188 7.43311 17.8585 7.42338 17.7969 7.53387C17.6686 7.51664 17.8856 7.36637 17.7353 7.28285C17.4753 7.33809 17.1929 7.0906 17.0018 7.28285C17.1606 7.24528 17.2218 7.30848 17.1852 7.47156C16.8408 7.16617 16.5485 7.08574 16.2067 6.96906C16.3926 6.28139 16.5153 5.56014 17.4297 5.65118C17.4547 5.49959 17.3182 5.51417 17.3686 5.33695C17.7022 5.12128 18.1323 5.01168 18.5305 5.02317C18.3518 4.86274 18.1688 5.03289 18.1021 4.83446C18.4762 4.86893 18.7737 4.98251 19.1422 5.02317C19.0294 4.76154 18.5257 4.90208 18.3466 4.70895C18.7685 4.22148 19.4431 3.99299 19.7535 3.39106C19.4056 3.45337 18.97 3.75655 18.9584 3.95587C19.0694 3.87764 19.3144 3.61513 19.3863 3.70484C18.9631 4.06503 18.5257 4.41196 18.041 4.70895C16.8571 4.43494 14.8661 4.07829 13.4545 3.89267C13.4442 3.79898 13.4765 3.66153 13.3934 3.64209C13.359 3.73224 13.2978 3.795 13.21 3.83036C13.21 3.74683 13.21 3.66286 13.21 3.57933C12.9659 3.68098 12.7464 3.97531 12.476 3.70484C12.4747 3.85289 12.5815 3.89002 12.5372 4.08182C11.7214 4.59271 11.4291 5.25254 10.7024 5.83989C10.5113 5.70112 10.1161 5.77227 9.96843 5.58886C10.3903 5.14338 11.0218 3.92891 11.5587 3.95675C11.9939 2.57302 13.4141 1.74039 14.1881 0.503819C13.1842 1.46152 12.3267 2.56904 11.3753 3.58021C11.3464 3.27836 11.6306 3.29825 11.7421 3.14092C11.9491 2.62119 12.2186 2.1651 12.5983 1.82259C12.188 2.09527 11.275 2.93143 10.7024 3.4547C10.6598 3.50376 10.3615 3.59436 10.3356 3.4547C10.4928 3.09319 10.8707 2.95795 10.9469 2.51291C10.3606 2.75333 10.12 3.52276 9.41827 3.4547C9.66149 3.45161 9.75018 3.97178 9.4794 3.95719C9.46132 3.83389 9.56205 3.83301 9.60166 3.76892C9.32098 3.78439 9.37177 3.90328 9.41827 4.14546C9.25124 4.0995 9.29515 4.27053 9.17375 4.27098C9.16428 4.19717 9.18408 4.09287 9.11262 4.08271C9.05106 4.32401 8.86552 4.19938 8.74541 4.27098C8.87499 4.55338 8.50993 4.54366 8.68428 4.89898C7.42381 6.32559 6.0669 7.98731 4.83139 9.23095C5.21324 8.38771 6.1319 7.76192 6.42162 7.03315C5.55289 8.0041 4.80169 9.09483 3.91445 10.0468C3.58254 10.9201 2.57993 11.4385 2.38578 12.2437C2.57261 12.0802 2.83004 11.9887 2.99707 11.8044C3.00741 11.6272 3.10943 11.5428 3.11933 11.3656C4.88865 9.54031 6.48361 7.53652 8.19524 5.6525C8.27618 5.65294 8.25078 5.76211 8.3175 5.77757C8.41523 5.5787 8.70365 5.47882 8.56202 5.21277C9.3369 4.89943 9.51857 3.97664 10.213 3.58065C10.5027 3.90902 9.85005 4.06326 10.0296 4.27142C10.0476 4.21573 10.1949 3.99697 10.213 4.1459C10.2091 4.3302 10.073 4.37881 9.96843 4.45969C9.8875 4.12867 9.83713 4.45615 9.54053 4.39693C9.59477 4.85744 9.27664 4.62011 9.23488 4.89943C9.37436 4.98561 9.46476 4.73767 9.4794 4.89943C9.41224 5.12349 9.26975 5.27022 9.05106 5.33872C9.05881 5.21586 9.44108 4.96793 9.17332 4.96174C8.92708 5.47175 7.90682 6.08959 8.13368 6.46878C7.71137 6.64777 7.5198 7.00928 7.15561 7.09634C7.14528 7.27401 7.04368 7.35798 7.03335 7.53564C5.48445 9.21018 4.40176 11.3629 3.05863 13.2487C3.29411 13.4644 2.80766 13.9841 2.75299 14.3164C2.82488 14.3257 2.92647 14.3054 2.93637 14.3787C2.39912 15.397 1.04781 15.9136 0.795976 17.0158C2.26481 15.4474 3.55843 13.6995 5.13747 12.2441C5.41858 11.6502 5.89772 11.3793 6.29936 10.9263C7.31704 9.77896 8.27919 8.44428 9.41827 7.66159C7.78585 9.64726 6.17151 11.6524 4.34236 13.437C4.42372 13.5912 4.52704 13.3243 4.58687 13.5002C3.63549 14.7226 2.42151 16.0042 1.71292 17.2669C1.45463 17.2337 1.22302 17.7676 1.04006 18.02C1.22173 17.9585 1.25531 17.8414 1.16232 18.0831C1.42019 18.0341 1.40598 17.7057 1.5291 17.5183C1.64706 17.7225 1.93893 17.102 2.26309 16.8903C2.61609 16.6601 2.99148 16.7348 3.11933 16.3878C3.00999 16.3878 2.76332 16.5571 2.691 16.3878C2.96651 16.1054 3.13698 15.7156 3.42498 15.446C3.79133 15.4889 4.1185 15.5711 4.28123 15.823C3.0935 17.4269 1.62984 18.7492 0.611296 20.5289ZM7.21588 7.97272C7.13452 7.83351 6.94252 8.10619 6.78754 8.09824C7.13882 7.39201 7.78327 6.98541 8.31664 6.46657C8.19611 6.94034 8.56245 6.13909 8.80568 6.40337C8.88661 6.82764 8.47937 7.1264 8.25508 7.40747C6.60846 9.4749 4.74917 11.6528 3.11847 13.8108C3.00439 13.7786 3.31478 13.1479 3.54638 13.0578C4.34106 11.1945 5.50726 9.71355 6.60415 8.16099C6.82112 8.26308 7.06435 8.1168 7.21588 7.97272ZM8.74455 7.03094C8.56848 7.35311 8.3838 7.66557 8.19438 7.97272C8.57881 7.78092 8.85303 6.93371 9.23402 6.52888C9.36187 6.62788 9.63997 6.57264 9.78418 6.6544C9.7519 7.08176 9.51943 7.30318 9.17289 7.40747C9.13759 7.58072 9.02049 7.66999 8.9895 7.84677C6.95414 9.7962 5.12929 11.9622 3.24116 14.0623C4.7595 11.6453 6.82973 9.25084 8.74455 7.03094ZM15.9609 7.2824C17.025 7.40482 17.3087 7.63508 18.2846 7.72214C17.8598 8.61841 16.7168 7.62226 15.7775 7.72214C15.715 7.44902 15.9036 7.43355 15.9609 7.2824ZM15.3491 7.91041C15.0818 7.95461 15.0047 7.8039 14.7378 7.84721C14.6948 7.61519 14.8347 7.57011 15.0435 7.59619C15.0413 7.30317 14.8696 7.47686 14.6767 7.47112C14.6832 7.20506 14.8412 7.0959 15.0435 7.03138C15.2389 7.20771 15.5097 7.04508 15.7775 7.22009C15.7775 7.26207 15.7775 7.30362 15.7775 7.3456C15.7607 7.66292 15.341 7.56658 15.3491 7.91041ZM23.3601 8.03592C22.9929 8.66968 22.2529 8.48494 21.5254 8.28695C21.6877 8.56007 22.24 8.43191 22.5039 8.60073C21.9533 9.26542 21.1569 8.77574 20.3631 8.72625C20.487 8.49732 20.6627 8.32231 21.0359 8.34926C21.4961 7.52592 22.5099 7.64966 23.3601 8.03592ZM25.5617 9.16598C25.6998 9.52661 25.1342 9.21504 24.8888 9.22918C24.993 9.35248 25.1738 9.39756 25.3783 9.41745C25.2818 9.56992 25.1596 9.69499 25.0115 9.79443C24.3102 9.6561 23.6933 9.43159 22.9933 9.29194C22.9757 9.19073 23.051 9.1841 23.0545 9.10367C22.9783 9.02942 22.7691 9.3516 22.4428 9.22918C22.5082 9.00335 22.6227 8.82789 22.81 8.72669C22.9972 8.68117 22.9899 8.83496 23.1772 8.78988C23.1449 8.83982 23.1135 8.89153 23.1156 8.97816C23.9189 8.70061 24.7696 9.09439 25.5617 9.16598ZM26.1118 10.1701C25.5914 10.3928 25.1415 10.94 24.5831 10.9236C24.937 10.8153 24.5031 10.7137 24.2771 10.6726C24.5935 9.95574 25.2991 9.83597 26.1118 10.1701ZM27.0292 10.3588C27.0615 10.4092 27.0929 10.4604 27.0908 10.5471C26.6551 10.7071 26.4919 11.1463 25.9289 11.1751C26.2625 10.8692 26.3723 10.3327 27.0292 10.3588ZM25.9896 11.4884C25.9495 11.2387 26.222 11.309 26.4179 11.3001C26.3068 10.8913 27.4059 10.6991 27.5798 10.1696C27.7791 10.3 28.0667 10.3394 28.2522 10.4839C28.108 10.8096 27.65 10.456 27.396 10.4839C27.473 10.6562 27.7275 10.6465 27.9466 10.6721C27.4704 11.0717 27.0292 11.514 26.479 11.3629C26.6357 11.4208 27.0636 11.6042 27.4571 11.6135C27.2931 11.887 27.0292 11.8499 26.7231 11.739C26.7451 11.6564 26.8312 11.64 26.8458 11.5507C26.5324 11.7297 26.3086 11.4897 25.9896 11.4884ZM26.4179 11.6771C26.2255 12.0656 25.73 12.1429 25.4394 12.4302C25.2681 12.3551 25.1398 12.2357 24.8888 12.2415C24.9064 12.0873 25.2926 11.9922 25.1333 11.865C25.5431 11.8459 25.8918 11.2648 26.4179 11.6771ZM25.3778 11.7399C25.3081 11.6639 25.5388 11.3638 25.8062 11.4261C25.7059 11.5742 25.4911 11.6046 25.3778 11.7399ZM26.6013 11.7399C26.7541 11.792 26.8415 11.9122 27.0292 11.9286C26.8579 12.2335 26.538 12.3869 26.2952 12.6194C26.0748 12.5942 25.8854 12.5376 25.6839 12.4938C25.8763 12.1261 26.3374 12.0342 26.6013 11.7399ZM28.2522 10.7353C28.3465 11.1176 27.7279 11.2754 27.5187 11.5516C27.331 11.5971 27.3387 11.4433 27.151 11.4884C27.3908 11.1066 27.8127 10.9121 28.2522 10.7353ZM28.0077 11.3633C27.8897 11.2431 28.5665 10.7897 28.4972 10.9236C28.3095 11.0451 28.1898 11.2365 28.0077 11.3633ZM31.065 8.22419C30.3676 9.14035 29.4843 9.86603 28.436 10.4216C28.2453 10.3031 27.8979 10.3464 27.8854 10.045C28.9109 9.40287 29.8678 8.69 31.065 8.22419ZM27.151 13.623C26.8028 13.4789 26.495 13.2929 26.0507 13.246C26.6529 12.4633 27.5858 13.3565 28.374 13.3716C27.8854 13.0993 27.2087 13.0193 26.7227 12.7435C26.8609 12.4669 27.154 12.3489 27.3348 12.116C28.1648 12.3096 28.8274 12.6764 29.5359 12.9946C29.2342 13.1541 28.9625 13.5784 28.4963 13.3716C28.3431 13.3985 28.5553 13.551 28.6801 13.4971C28.5346 13.7039 28.3146 13.8343 28.0684 13.9364C27.8346 13.779 27.5062 13.718 27.2122 13.6226C27.3568 13.8303 27.6999 13.8338 27.9461 13.9364C27.9797 14.0756 27.8295 14.0256 27.8239 14.1246C28.0934 14.0499 28.4171 14.1414 28.7413 14.3138C28.4881 14.4318 28.2587 14.761 27.885 14.5644C27.9302 14.6227 27.9961 14.6594 28.0688 14.6894C27.9853 14.8335 27.817 14.8914 27.7016 15.0037C27.4502 14.9687 27.306 14.8242 27.0288 14.8154C27.0839 14.5432 27.504 14.5047 27.7623 14.6267C27.7223 14.5432 27.6314 14.51 27.5182 14.5012C27.5174 14.2917 27.7636 14.335 27.8239 14.1874C27.1644 14.6311 26.4678 14.1078 25.6835 14.1242C26.12 14.3253 26.6706 14.4084 27.2122 14.5012C26.591 14.9542 25.838 14.1847 25.1329 14.1242C25.2689 13.7406 25.6934 13.6531 25.8669 13.3084C26.3249 13.383 26.6947 13.5483 27.151 13.623ZM26.7231 14.7531C25.7399 15.4805 24.6159 16.0635 23.6046 16.7622C23.4523 16.7715 23.4157 16.6636 23.2986 16.6367C23.3257 16.714 23.3773 16.7657 23.4824 16.7622C22.3076 17.6907 20.8844 18.3638 19.7522 19.3361C19.4857 19.3166 19.3419 19.1712 19.0793 19.1474C19.6635 18.5361 20.6222 17.6827 21.4642 17.0132C22.0523 16.5456 22.3928 16.185 23.2379 16.6362C23.0571 16.4241 22.6451 16.4493 22.4423 16.2592C23.1961 15.5057 24.1079 14.9135 24.8884 14.1874C25.606 14.2683 26.0623 14.6165 26.7231 14.7531ZM22.076 19.085C21.707 19.0842 21.3334 19.6202 20.9141 19.7758C20.5434 19.5509 20.2658 19.5044 19.8744 19.3984C21.0437 18.4438 22.3864 17.6664 23.6662 16.8249C23.9262 16.9756 24.197 17.1166 24.522 17.2015C23.8444 17.8454 22.9395 18.256 22.2594 18.8968C22.1173 18.9167 22.0247 18.887 21.9533 18.8336C21.9877 18.9237 22.0493 18.9874 22.1371 19.0223C22.7381 18.8102 23.1315 18.1645 23.7269 18.1433C23.3102 18.1167 24.4755 17.4348 24.7665 17.327C24.3468 18.1335 23.3524 18.5423 22.6873 19.085C22.3756 19.3392 22.0428 19.8474 21.6476 20.0273C21.026 19.7321 20.9438 20.0542 21.4642 19.462C21.7505 19.4209 21.856 19.1938 22.076 19.085ZM23.788 16.8254C24.0661 16.5173 24.5134 16.3467 24.9499 16.0718C25.3378 15.8274 25.7166 15.424 26.0511 15.2556C26.1256 15.2176 26.2956 15.2936 26.3568 15.2556C26.5686 15.1234 26.9784 14.6019 27.5187 15.0673C26.64 15.8606 25.6219 16.5107 24.6443 17.2015C24.3365 17.0989 24.079 16.9447 23.788 16.8254ZM28.2522 14.0632C28.4007 13.7264 28.8472 13.4887 29.1696 13.6858C29.2449 13.4829 28.9716 13.638 29.0473 13.4347C29.2639 13.3221 29.4473 13.1758 29.6591 13.0582C29.8747 13.067 29.9324 13.2376 30.1485 13.2465C29.9548 13.5055 29.6505 13.779 29.2307 13.6235C29.2561 13.7441 29.4679 13.673 29.4145 13.8745C29.2307 14 29.0026 14.0791 28.8644 14.251C28.6366 14.2121 28.4795 14.1012 28.2522 14.0632ZM31.2484 12.1164C31.2553 11.8252 31.8528 11.8716 31.799 12.1792C31.5532 12.2229 31.4503 12.1186 31.2484 12.1164ZM31.799 12.4934C31.9721 12.5584 32.0539 12.5584 32.2269 12.4934C31.4107 13.3296 30.4473 14.0141 29.5979 14.8163C29.7335 14.4322 30.3849 14.0345 30.6371 13.5603C30.7848 13.5346 30.7702 13.6752 30.9428 13.6235C30.5429 13.4409 31.3974 12.5385 31.5545 12.7444C31.6298 12.8973 31.7237 12.5473 31.799 12.4934ZM30.5756 13.4347C30.1335 13.8493 29.743 14.9714 29.1085 14.4393C29.2574 14.1114 29.5893 13.9699 29.9643 13.8745C29.7383 13.7105 30.294 13.4732 30.5756 13.4347ZM30.5153 13.372C30.5704 13.2615 30.74 13.2686 30.7598 13.121C30.886 13.1718 30.7353 13.5576 30.5153 13.372ZM26.2952 18.3943C25.7881 18.7527 25.3167 19.1469 24.8277 19.5248C24.9482 19.2711 25.4235 18.8393 25.745 18.5825C25.7175 18.4566 26.117 18.1269 26.2952 18.3943ZM23.2379 20.5921C23.7898 19.6923 25.0718 19.0015 25.8669 18.1433C25.1264 18.9794 24.3541 20.0145 23.2379 20.5921ZM21.7699 21.7845C22.1905 21.358 22.5392 20.8581 23.1767 20.654C22.8186 21.145 22.3192 21.4897 21.7699 21.7845ZM17.9179 23.4798C18.1344 23.0851 18.5688 22.4947 19.1409 22.8518C18.7844 23.1138 18.4564 23.4051 17.9179 23.4798ZM13.2087 20.7804C13.3667 20.246 13.8708 19.7511 14.3095 19.7126C14.4761 19.1191 15.2467 18.6325 15.7159 18.1433C15.9174 18.1667 16.183 18.1238 16.1442 18.3943C16.2854 18.2674 16.6131 18.3302 16.6944 18.457C16.61 18.6427 16.412 18.7116 16.3272 18.8968C16.6643 18.8645 16.6837 18.3187 17.0612 18.5198C16.6204 19.1133 16.0517 19.5765 15.4103 19.9636C15.5971 19.4085 16.1016 19.4333 16.2665 18.9595C15.8029 19.3842 15.2488 19.7148 14.8601 20.2151C14.9996 20.3543 15.1171 19.9384 15.3491 19.9641C15.2544 20.4741 14.6879 20.4993 14.4929 20.9059C14.272 20.6951 14.6974 20.6173 14.7378 20.4666C14.3168 20.4652 14.3091 21.1816 13.8816 20.9691C13.724 20.9841 13.9655 21.0769 13.8816 21.2201C13.6229 21.0734 13.7258 20.6186 13.2087 20.7804ZM21.4642 14.8786C21.3734 14.8512 21.4884 14.7982 21.4642 14.6899C21.1276 14.9727 20.6842 15.1455 20.4246 15.5066C20.0428 15.5106 19.775 15.0585 19.5072 15.3183C19.8865 15.3683 20.0832 15.606 20.4857 15.6321C19.4754 16.6884 18.2597 17.532 17.1835 18.5198C17.1137 18.2776 16.7125 18.3753 16.5106 18.2688C16.4404 18.0712 16.6066 18.1163 16.6329 18.0177C16.4335 18.1556 16.1696 18.1676 15.8989 18.0809C16.7908 16.9668 17.9347 16.1112 18.9566 15.1301C19.1043 15.1044 19.0901 15.245 19.2623 15.1928C19.2528 15.1195 19.1508 15.1398 19.0789 15.1301C19.8387 14.4247 20.6399 13.1117 21.7083 13.3097C21.6119 13.4926 21.5473 13.3185 21.5245 13.6235C21.6153 13.5068 21.8405 13.5293 21.8306 13.3097C22.1332 13.4175 22.4789 13.4807 22.8087 13.5603C22.7897 13.7512 22.4634 13.8153 22.3196 13.6858C22.3364 13.8153 22.4828 13.8113 22.5637 13.8745C22.3597 14.0071 22.1423 14.0672 22.1965 14.3142C22.1251 14.3036 22.1453 14.1993 22.1354 14.1251C22.0975 14.4636 21.7742 14.247 21.6459 14.5648C21.6993 14.75 21.7376 14.419 21.8904 14.5016C21.7957 14.5776 21.7268 14.7792 21.5848 14.6271C21.5043 14.6709 21.6399 14.8189 21.4642 14.8786ZM18.7126 12.8072C18.8852 12.8589 18.871 12.7188 19.0182 12.744C19.0445 12.9592 18.8352 12.9331 18.7737 13.0582C18.6906 13.0388 18.7229 12.9009 18.7126 12.8072ZM17.5507 12.2415C17.7659 11.9131 18.533 12.321 18.8348 12.493C18.1947 12.5703 17.9941 12.3007 17.5507 12.2415ZM10.457 10.1073C10.7041 10.1299 11.052 9.71444 11.3129 9.54252C11.5195 9.44176 11.5737 9.80946 11.6801 9.60572C11.8944 9.71179 11.5608 9.76659 11.4355 9.73079C11.4519 9.969 11.693 9.93143 11.8639 9.8563C11.9943 9.98447 11.8467 10.1051 11.8028 10.2333C11.9758 10.1365 12.0632 9.91508 12.2918 10.045C12.4498 10.03 12.2078 9.93674 12.2918 9.79399C12.4351 9.81476 12.5445 9.86912 12.659 9.91906C12.6693 9.7414 12.4524 9.79708 12.5367 9.54252C12.9582 9.64019 12.8123 9.15582 13.148 9.16554C12.7619 9.02147 12.56 9.60705 12.2307 9.73035C12.2294 9.66936 12.1558 9.68173 12.1084 9.66759C12.0615 9.42275 12.3107 9.31757 12.414 9.41657C12.414 9.33304 12.414 9.24907 12.414 9.16554C12.2444 9.26409 12.0085 9.29326 11.9861 9.54252C11.7877 9.57876 11.7016 9.49965 11.5582 9.47976C12.2492 8.82612 13.0068 8.05802 14.0654 7.97272C14.0654 8.03592 14.0654 8.09824 14.0654 8.16144C14.3233 7.95019 14.4249 8.23303 14.7383 8.28695C14.8709 8.29711 14.7658 8.06421 14.7994 7.97272C14.9466 7.94709 14.9324 8.08763 15.105 8.03592C15.1645 8.26441 14.8071 8.06465 14.9217 8.34971C15.5162 8.51102 16.3733 8.51499 16.8787 8.91451C17.0625 8.77486 17.0922 8.84027 17.3677 8.85176C17.1804 9.1841 16.8003 9.69323 16.3896 9.41657C16.4378 9.17305 16.7276 9.17747 16.8175 8.97727C16.6604 9.06831 16.1193 9.30608 15.9613 9.60528C15.725 9.56506 15.5807 9.77675 15.4723 9.60528C15.3444 9.77543 15.7452 9.78559 15.4723 9.98182C15.5928 9.86382 15.9647 9.77985 16.1451 9.91862C15.8993 10.1582 15.5601 10.6023 15.2277 10.5466C15.118 10.6434 15.1787 10.9148 14.9832 10.9236C14.8734 10.932 14.8541 10.8467 14.7387 10.8608C14.6845 10.6315 14.8463 10.5263 14.7387 10.4211C14.5575 10.4657 14.6414 10.7817 14.433 10.7981C14.4584 10.9391 14.7684 10.7888 14.7387 10.9868C14.5691 11.3996 14.1416 10.8529 13.8825 11.0496C14.204 11.3753 14.8575 11.2206 15.3504 11.4889C15.3638 11.7134 15.0327 11.7721 14.9221 11.6776C14.4709 12.2813 13.8558 12.7179 13.0266 12.9331C13.0589 12.9831 13.0903 13.0348 13.0878 13.1214C14.1502 12.9079 14.5971 11.5587 15.9006 11.9909C15.5588 12.523 15.0185 13.1736 14.4937 13.3097C14.4937 13.3932 14.4937 13.4767 14.4937 13.5603C13.7352 14.1003 13.198 14.8667 12.5372 15.5066C11.9237 15.2993 11.2965 15.1062 10.7024 14.8786C11.0886 14.2497 11.9603 14.1193 12.4149 13.5603C12.2022 13.6137 12.0606 13.7406 11.9259 13.8745C11.8307 13.6075 12.2728 13.3525 12.5372 13.2465C12.5372 13.33 12.5372 13.414 12.5372 13.4975C12.6723 13.3636 13.0348 13.4648 13.0266 13.1837C12.9457 13.0865 12.7197 13.4087 12.5372 13.2465C12.5126 12.9915 12.7976 13.0529 12.8428 12.8695C12.6353 12.8417 12.4347 13.0591 12.2922 13.1837C11.7029 13.6995 11.1213 14.4313 10.3356 14.7531C10.343 14.4883 10.5565 14.4353 10.6413 14.2506C10.4071 14.3244 10.3705 14.6006 10.1518 14.6899C9.89654 14.6581 9.50609 14.4349 9.41784 14.4393C9.80097 13.7233 10.6865 12.9791 11.3748 12.3674C11.2896 12.1783 11.0584 12.4978 10.9465 12.3042C10.7661 12.359 11.0886 12.3984 11.0076 12.5553C10.3744 13.14 9.80743 13.7923 9.17289 14.3757C8.75058 14.2029 8.24992 14.1096 7.82761 13.9364C8.57451 12.8828 9.72305 12.241 10.5793 11.2997C10.163 11.4376 10.0007 11.8358 9.60123 11.99C9.25554 11.7571 9.18107 11.9441 8.80611 11.8018C9.05924 11.2038 9.67871 10.9819 10.0903 10.5462C10.2693 10.5303 10.2784 10.688 10.4575 10.6717C10.4863 10.8688 10.293 10.8379 10.2741 10.9859C10.4368 10.7557 10.8845 10.8175 10.9469 10.4834C11.0274 10.548 11.1721 10.5453 11.2526 10.6089C11.1777 10.6982 11.0193 10.7512 10.9469 10.6717C10.9228 10.898 10.8475 11.0717 10.6413 11.1114C10.9512 10.9103 11.7489 10.8052 12.2922 11.1114C12.0511 11.5755 11.6469 11.872 11.3137 12.2411C11.978 12.0254 12.1114 10.8754 12.9646 11.2369C12.9259 11.1101 12.6788 11.1954 12.659 11.0487C12.6353 10.8153 12.9535 10.9324 12.9646 10.7349C12.8166 10.5868 12.6177 10.9192 12.5367 11.0487C12.0839 11.0323 11.7924 10.8507 11.3748 10.7977C11.3972 10.5696 11.6736 10.6028 11.6805 10.3584C11.4631 10.4635 10.7007 10.5272 10.4575 10.1696C10.293 10.1975 10.1436 10.4056 9.968 10.2328C10.0076 10.0432 10.2461 10.0578 10.3352 9.91862C10.3537 9.79134 10.1583 9.93188 10.1518 9.98182C10.0382 9.77896 10.3417 9.46739 10.6413 9.47976C10.7011 9.74979 10.4114 9.66229 10.3968 9.8563C10.4601 9.95309 10.6391 9.68748 10.7024 9.73079C10.8583 9.85542 10.501 9.98093 10.457 10.1073ZM17.5507 8.91451C17.9613 9.03693 18.3634 9.16863 18.7737 9.2915C18.5451 9.7467 17.9105 9.78603 17.6122 10.1701C17.4598 10.1798 17.4228 10.0715 17.3066 10.045C17.1779 10.2152 17.4452 10.2015 17.3066 10.4216C16.9988 10.5232 16.96 10.6218 16.5726 10.5471C16.6122 10.6111 16.7134 10.612 16.6948 10.7358C16.6354 10.7375 16.6475 10.8127 16.6337 10.8613C16.158 10.9307 15.935 10.7411 15.6552 10.6103C15.9019 10.3756 16.1761 9.9279 16.5115 9.98226C16.7159 9.48065 17.2209 9.28796 17.5507 8.91451ZM8.4389 11.7399C8.76349 11.2325 9.21249 10.5312 9.78418 10.4843C9.49489 11.0659 8.97228 11.4089 8.4389 11.7399ZM9.47854 12.1164C8.77425 12.691 8.33257 13.5346 7.33814 13.8113C7.38076 13.4454 6.9154 13.8334 6.78754 13.5603C7.51679 12.9026 8.06265 12.5345 8.62229 11.8022C8.8978 11.8406 9.07344 12.1796 9.29515 11.9282C9.43592 11.9091 9.36316 12.1098 9.47854 12.1164ZM9.17289 15.9459C8.93095 16.3883 8.49142 16.6274 8.13325 16.95C8.20902 16.832 8.71183 16.086 9.17289 15.9459ZM7.33814 16.6367C7.84741 15.8619 8.54911 15.2847 9.17246 14.6276C9.54483 14.5803 9.68905 14.7668 9.90644 14.8786C9.58228 15.2777 9.26028 15.6798 8.62229 15.7576C8.47205 16.105 7.79532 16.4011 7.33814 16.6367ZM5.32 13.3097C4.78189 13.6354 4.4814 14.2059 3.97472 14.5653C4.46935 13.8807 4.9614 13.193 5.62565 12.6817C5.82324 12.8885 5.35874 12.9486 5.38113 13.1842C6.16376 12.7095 6.62266 11.5728 7.76605 11.6776C7.90983 11.6762 7.74366 11.5061 7.64379 11.5521C7.96493 11.107 8.65329 11.0398 9.0502 10.673C8.43976 11.5949 7.33555 12.5539 6.54302 13.4984C6.24254 13.4719 6.06475 13.3194 5.74791 13.3101C6.01567 13.4599 6.06991 13.6036 6.35963 13.6239C5.82626 14.3319 5.18655 14.9307 4.58601 15.5702C4.14261 15.5437 3.79736 15.4164 3.54638 15.1928C3.51538 14.8203 3.80166 14.8596 3.97472 14.7535C4.4926 14.4366 4.83225 13.699 5.32 13.3097ZM9.29515 9.04003C9.32141 9.27603 9.10401 9.26233 9.05063 9.41701C9.15179 9.53678 9.31021 9.18454 9.41784 9.10322C9.77342 9.13549 10.0093 9.29105 10.2741 9.41701C9.92108 10.0671 9.44625 10.4414 8.62315 10.045C8.55858 9.81122 8.75187 9.84216 8.80654 9.73079C8.6309 9.61588 8.5504 10.1356 8.13368 9.98182C8.15263 10.1285 8.25379 10.2412 8.13368 10.3588C8.41135 9.96281 8.91502 10.4264 9.23445 10.296C8.93999 10.7888 7.99334 11.1561 7.339 11.4884C7.20856 11.5176 7.22234 11.3987 7.21674 11.3001C7.05229 11.499 6.9154 11.4836 6.60544 11.4257C6.76731 10.9669 7.32781 10.5382 7.82847 9.98138C8.19912 9.56815 8.64123 8.49511 9.29515 9.04003ZM10.0898 7.65894C10.0842 7.29699 10.5621 6.67959 11.1295 6.90587C11.1295 6.73881 10.9594 6.74544 10.8849 6.65484C10.8673 6.3225 11.1729 6.3225 11.2522 6.08959C11.5324 6.15809 11.851 6.18682 12.1695 6.21554C12.1695 6.31984 12.1695 6.42503 12.1695 6.52933C12.2173 6.4922 12.7597 6.42591 12.7808 6.15234C12.3766 6.33752 11.9069 6.11566 11.4967 5.96363C11.8897 5.34181 12.4218 4.86319 12.9035 4.33197C13.0284 4.35009 13.0232 4.50211 13.148 4.52023C13.3228 4.43582 12.9853 4.35981 13.0258 4.20645C12.972 4.00492 13.2272 4.12027 13.2092 3.95543C14.5596 4.11055 15.4275 4.38809 16.6948 4.58343C16.6948 4.64619 16.6948 4.7085 16.6948 4.7717C16.9751 4.68729 17.3113 4.71381 17.49 4.89722C17.3587 5.1341 17.0974 5.51859 16.756 5.33651C16.6062 5.34358 16.7431 5.54423 16.8171 5.52478C15.6518 5.98838 13.6285 5.16725 12.3529 5.02273C12.4816 5.35065 13.0185 5.26005 13.3926 5.33651C13.3926 5.44081 13.3926 5.54599 13.3926 5.65073C13.5002 5.59461 13.4933 5.37187 13.6371 5.52478C13.5019 6.26548 12.7541 6.37685 12.5363 7.03138C12.2987 7.05922 12.1131 6.83339 12.1695 7.22009C12.0171 7.22937 11.9801 7.12153 11.8639 7.09458C11.8183 6.901 12.0318 6.97437 11.9861 6.78035C11.9371 6.73306 11.2156 7.0327 11.3133 6.78035C11.1828 6.75163 11.1971 6.87007 11.191 6.96906C11.2431 7.15335 11.3451 6.8873 11.4967 6.96906C11.3787 7.05657 11.3154 7.20109 11.2522 7.34604C11.4403 7.39245 11.3697 7.17368 11.5578 7.22053C11.5053 7.48349 11.8316 7.35842 11.9246 7.47156C11.9289 7.74777 11.7782 7.86577 11.6189 7.97361C11.4261 8.00454 11.4033 7.86047 11.1906 7.91085C11.2065 8.04123 11.4597 7.92809 11.4962 8.03637C11.4132 8.45312 11.0029 8.53444 10.8849 8.91496C10.6568 8.9207 10.7106 8.98567 10.5182 8.91496C10.3374 8.96976 10.6598 9.00909 10.5793 9.16598C10.2586 9.1156 10.4575 8.75188 9.90644 8.8522C9.8367 8.50881 10.1673 8.57598 10.2121 8.34971C10.1402 8.4761 9.28482 8.86192 9.41698 8.8522C9.29127 9.03693 9.06096 8.80403 8.98907 8.72669C9.26114 8.31435 9.64858 7.68811 10.0898 7.65894ZM13.9427 5.46202C14.8386 5.55218 15.4951 5.87082 16.1442 5.90176C15.6203 6.81306 14.9776 6.77593 13.8205 6.59208C14.0413 6.72113 14.2311 6.88156 14.6156 6.84311C14.6311 7.17324 14.3444 7.19269 14.1872 7.3456C13.842 7.27047 13.7916 7.2824 13.4533 7.22009C13.5006 7.51929 13.7296 7.24219 13.8812 7.40836C13.5759 7.67485 12.9758 7.38538 12.5359 7.28285C12.9018 6.72997 13.4748 6.09091 13.9427 5.46202ZM11.6189 5.58754C11.4536 5.47351 11.7257 5.28348 11.8023 5.21056C12.0292 5.38778 11.6379 5.45539 11.6189 5.58754ZM10.6404 6.59164C10.7373 6.37774 10.8445 6.17356 11.0683 6.08915C10.9857 6.31852 10.8535 6.49662 10.6404 6.59164ZM6.05399 16.0718C5.97865 15.9817 5.84348 15.9525 5.68721 15.9463C5.92871 15.5468 6.43282 15.0187 6.8491 14.628C7.02302 14.4649 7.3941 14.107 7.58309 14.0636C8.11905 13.9395 8.37648 14.5233 9.05063 14.4402C8.45827 15.2339 7.72214 15.8805 7.09405 16.6375C6.92142 16.6892 6.93563 16.5491 6.7884 16.5748C7.02044 17.1741 5.57786 17.5183 4.89295 17.2023C4.69794 16.7131 5.09227 16.3883 5.32086 16.1355C5.49392 16.0833 5.47928 16.2239 5.62651 16.1978C5.80129 16.1655 5.52793 16.1054 5.50425 16.0727C5.56667 15.8239 5.82755 16.1103 6.05399 16.0718ZM7.33814 13.9368C6.91884 14.7199 6.10521 15.0991 5.56452 15.7576C5.85983 15.134 6.62955 14.1383 7.33814 13.9368ZM5.50382 15.0041C5.66138 14.9891 5.41987 14.8963 5.50382 14.7531C5.73757 14.8317 5.84304 14.2303 5.93173 14.5648C5.98812 14.1622 6.39709 14.1215 6.48232 13.7485C6.64462 13.749 6.83145 13.7247 6.91023 13.8113C6.53183 14.6161 5.70227 14.9568 5.32043 15.7576C5.06515 15.8102 5.03157 15.6356 4.83096 15.6321C4.96398 15.37 5.2903 14.9754 5.50382 15.0041ZM5.74834 12.4934C5.86328 12.2185 6.2731 11.4212 6.78797 11.5516C6.65108 12.0806 6.0867 12.1708 5.74834 12.4934ZM8.37777 11.8022C8.38853 12.0227 8.17157 12.009 8.13325 12.1792C7.90509 12.1222 8.16855 11.7934 8.37777 11.8022ZM8.80611 6.27786C8.78932 6.01755 8.88661 6.03302 8.80611 5.83856C8.9697 5.70686 9.25253 5.60124 9.47897 5.71261C9.47337 6.04186 9.22412 6.12097 9.11219 6.34061C9.04073 6.28802 8.94774 6.25797 8.80611 6.27786ZM9.17289 15.8836C9.22799 15.5424 9.5853 15.5115 9.78418 15.3188C9.77428 15.4562 9.48542 15.8473 9.17289 15.8836ZM9.35628 5.46202C9.52201 5.10537 9.61888 4.97809 9.96757 4.89722C10.1673 5.16371 9.80614 5.28834 9.78418 5.52478C9.62189 5.5239 9.43506 5.54865 9.35628 5.46202ZM9.41741 6.40381C9.36446 5.99324 9.72176 6.00473 9.78418 5.71305C10.067 5.75813 10.2625 5.89204 10.5182 5.96408C10.4545 6.60755 9.87243 6.58987 9.41741 6.40381ZM10.3348 4.08094C10.1436 3.97973 10.4605 3.88206 10.457 3.76716C10.6576 3.87809 10.3856 4.02128 10.3348 4.08094ZM10.8238 3.89223C10.7648 4.3545 10.3344 4.43582 10.2125 4.83402C10.0959 4.8075 9.94949 4.81148 9.968 4.64575C10.0433 4.57592 10.0937 4.59139 10.0903 4.7085C10.2771 4.37749 10.3585 3.93775 10.8238 3.89223ZM10.2737 10.5471C10.284 10.2505 10.5156 10.5696 10.7016 10.4843C10.6112 10.7508 10.4652 10.384 10.2737 10.5471ZM10.3959 6.52933C10.4463 6.35078 10.5337 6.21068 10.7016 6.15234C10.6064 6.28493 10.5922 6.50016 10.3959 6.52933ZM10.8238 9.2915C10.8238 9.22874 10.8238 9.16598 10.8238 9.10322C10.9995 9.09041 11.1346 9.11914 11.1906 9.22874C11.2263 9.48065 11.0098 9.19736 10.8238 9.2915ZM11.0072 8.97771C11.2823 8.36031 11.8462 8.03946 12.2302 7.53343C12.5217 7.54094 12.7016 7.83528 13.1476 7.84721C13.1618 8.16099 12.8807 8.26883 12.6586 8.16144C12.3228 8.61664 11.804 9.20355 11.0072 8.97771ZM14.3706 7.72214C14.3706 7.65894 14.3706 7.59619 14.3706 7.53343C14.452 7.53343 14.5334 7.53343 14.6151 7.53343C14.6767 7.74335 14.5303 7.73938 14.3706 7.72214ZM14.9212 11.1746C14.9768 11.0655 15.1356 11.0124 15.2269 11.1119C15.2269 11.0071 15.2269 10.9024 15.2269 10.7977C15.5571 10.5634 15.9333 10.9899 16.0831 10.9232C16.2682 11.0001 16.0396 11.1631 16.0216 11.2369C15.8218 11.2988 15.4959 10.9815 15.5325 11.3629C15.2962 11.396 15.2342 11.2502 14.9824 11.2997C15.0504 11.2232 15.0353 11.1715 14.9212 11.1746ZM15.2269 8.22419C15.2759 8.00543 15.6841 8.22729 15.8382 8.28739C15.7706 8.54063 15.3608 8.14774 15.2269 8.22419ZM15.4714 11.7399C15.5644 11.3815 15.9488 11.7054 16.0216 11.3633C16.1907 11.4053 15.8515 11.6926 16.2049 11.6139C16.2049 11.6975 16.2049 11.7814 16.2049 11.865C15.9979 12.0006 15.6401 11.8437 15.4714 11.7399ZM15.4714 7.97272C15.4537 7.87152 15.5291 7.86489 15.5325 7.78446C16.3651 7.78755 16.8658 8.13183 17.6729 8.16144C17.1361 8.85883 16.1778 8.05404 15.4714 7.97272ZM15.4714 6.84311C15.4714 6.77991 15.4714 6.7176 15.4714 6.65484C15.855 6.71362 15.9363 6.46215 16.2049 6.40381C16.4099 7.01282 15.7568 6.95448 15.4714 6.84311ZM15.5937 22.538C15.4942 22.4518 15.7473 22.1968 15.8993 22.161C15.9238 22.4164 15.6393 22.3541 15.5937 22.538ZM15.777 21.6585C15.9944 20.9748 16.5536 20.4029 17.3057 20.4661C17.019 20.9881 16.533 21.3054 16.1438 21.7217C15.9574 21.7672 15.9213 21.6576 15.777 21.6585ZM16.0831 22.1614C15.9195 22.0885 16.0775 21.8282 16.2665 21.9104C16.6682 21.4137 17.0875 20.631 17.7952 20.6544C17.332 21.2669 16.6109 21.6147 16.0831 22.1614ZM17.9786 20.7172C18.341 20.8263 18.6841 20.9558 18.9571 21.1564C18.2416 21.5949 17.6402 22.5349 16.6333 21.9727C16.9191 21.3876 17.5735 21.1803 17.9786 20.7172ZM16.0216 9.73079C16.0534 9.63798 16.112 9.57301 16.1442 9.48021C16.3009 9.48684 16.4357 9.51556 16.511 9.60572C16.5059 9.86382 16.1795 9.79222 16.0216 9.73079ZM16.1442 11.3633C16.3647 11.1242 17.0707 10.4193 17.245 10.9236C17.0599 10.9431 17.0268 11.1176 16.756 11.0491C16.7956 11.1132 16.8967 11.1136 16.8782 11.2374C16.7146 11.2789 16.6458 11.4173 16.511 11.4884C16.3186 11.5189 16.2721 11.3991 16.1442 11.3633ZM16.3888 8.53842C16.4951 8.20121 16.8025 8.62548 17.0001 8.60117C16.9028 8.71741 16.5386 8.57642 16.3888 8.53842ZM18.4069 11.5516C18.5567 11.6069 18.6312 11.7399 18.8964 11.6771C18.8891 11.5167 18.691 11.5525 18.5292 11.5516C18.5791 11.3519 18.7913 11.3187 18.9571 11.2374C19.1013 11.4292 19.49 11.3492 19.8133 11.4884C19.7427 11.9516 19.3927 11.6979 19.0178 11.6771C19.122 11.8004 19.3023 11.8455 19.5072 11.8654C19.4358 12.0634 19.2412 12.1363 19.1405 12.3047C18.6131 12.3118 18.3862 11.9299 17.9781 11.9905C18.0242 11.7447 18.2205 11.6533 18.4069 11.5516ZM19.2627 11.3006C19.2343 11.1039 19.4276 11.1349 19.4461 10.9868C19.3053 11.0513 19.2494 11.2025 19.0182 11.1751C19.0996 10.9651 19.3647 10.9444 19.5077 10.7981C19.8163 10.8374 20.0324 10.9718 20.3635 10.9868C20.2795 11.172 20.0815 11.2405 19.9967 11.4261C19.7806 11.3545 19.493 11.3567 19.2627 11.3006ZM16.7555 11.6144C16.7775 11.2568 17.0573 11.1318 17.3668 11.2374C17.5494 11.1636 17.143 11.1835 17.2446 10.9868C17.3535 10.9307 17.4 10.8114 17.6118 10.8613C17.4702 10.5948 17.7887 10.5259 17.9174 10.3588C18.3419 10.5298 18.9528 10.5095 19.3238 10.7358C19.0479 11.2387 18.4052 11.0783 17.9174 10.8613C18.0242 11.1075 18.4254 11.0509 18.6514 11.1751C18.5171 11.6325 18.1008 11.3828 17.734 11.3006C17.8034 11.4597 18.0053 11.4827 18.2235 11.4889C17.9562 12.0873 17.273 11.7443 16.7555 11.6144ZM17.245 19.8381C17.4017 19.4134 17.7198 19.154 18.0401 18.8968C18.1968 18.9449 18.3871 18.9595 18.468 19.085C18.1254 19.3781 17.7375 19.9018 17.245 19.8381ZM21.2809 15.8836C21.494 16.021 21.7695 16.0939 22.0148 16.1969C21.4152 16.7993 20.8616 17.6995 19.8137 17.6416C19.8292 17.772 20.0819 17.6584 20.1194 17.7672C19.5869 18.2568 19.1336 19.0523 18.1624 18.8972C18.8684 17.8003 20.283 16.8895 21.2809 15.8836ZM22.9933 14C23.1677 13.9673 22.8943 13.9067 22.8707 13.8745C22.9352 13.5868 23.5254 13.5448 23.6046 13.8745C23.9929 13.6981 24.1535 13.9836 24.522 14C24.4768 14.1949 24.2801 14.4592 24.0941 14.3142C24.1264 14.3642 24.1578 14.4159 24.1557 14.5021C23.5401 14.7531 23.1384 15.545 22.5654 15.6326C22.7178 15.884 22.2744 15.9799 22.1375 16.135C21.9141 16.0082 21.559 16.017 21.404 15.8208C21.5813 15.4911 21.816 15.424 22.1987 15.5702C22.1474 15.477 22.0019 15.4792 21.893 15.4443C22.3558 14.8521 22.9822 14.4282 23.6055 14.0004C23.5168 13.8139 23.367 14.0831 23.1776 14.0004C22.8134 14.6386 21.8547 15.1893 21.221 15.7585C21.0277 15.789 21.0049 15.6449 20.7927 15.6953C21.4909 15.1345 22.1147 14.1675 22.9933 14ZM19.1409 17.4529C18.9829 17.4684 19.2244 17.5608 19.1409 17.704C18.5206 17.9192 18.3062 19.0263 17.4284 18.5825C17.7052 18.0257 18.2933 17.7813 18.7737 17.3902C19.0552 17.1608 19.4775 16.7392 19.8749 16.3856C20.187 16.1076 20.6046 15.6193 21.0363 15.8208C20.5167 16.4798 19.9597 17.1011 19.1409 17.4529ZM17.3061 20.0273C17.2351 20.0167 17.1977 20.0405 17.1839 20.0896C17.0776 20.0326 17.0259 19.8695 17.1228 19.7762C17.2119 19.8302 17.3165 19.8695 17.3061 20.0273ZM17.245 20.3411C17.5799 19.9296 18.0647 19.4687 18.7126 19.2106C18.422 19.7073 17.7857 19.8496 17.5507 20.4029C17.4034 20.4294 17.4176 20.2885 17.245 20.3411ZM17.245 10.6726C17.3376 10.5161 17.4547 10.3858 17.6733 10.3588C17.6449 10.5723 17.3742 10.7592 17.245 10.6726ZM19.5072 8.60073C19.4616 8.82568 19.2365 8.86678 19.1405 9.04003C18.7556 8.93263 18.4091 8.78635 17.9781 8.72625C18.1224 8.03769 19.0126 8.5614 19.5072 8.60073ZM17.5507 8.60073C17.5834 8.36252 17.7892 8.30109 17.979 8.22375C17.9906 8.27457 18.0406 8.28651 18.0401 8.34926C18.0065 8.5667 17.8292 8.6352 17.5507 8.60073ZM18.0397 20.2151C18.3178 19.7082 18.7836 19.0758 19.5072 19.3988C19.2188 19.7939 18.6932 19.9442 18.4065 20.3411C18.2786 20.3048 18.2321 20.1851 18.0397 20.2151ZM18.2235 20.3411C18.1503 20.5523 17.9105 20.6615 17.6733 20.5293C17.657 20.3243 17.8636 20.3481 17.9179 20.2151C18.0698 20.2054 18.1069 20.3137 18.2235 20.3411ZM17.8563 8.91451C18.0819 8.63697 18.5287 9.17438 18.9571 9.10322C18.6196 9.25967 18.2007 8.96048 17.8563 8.91451ZM19.0793 10.296C19.0987 10.5064 19.3566 10.4719 19.5688 10.4843C19.2911 10.9015 18.611 10.2523 18.1008 10.296C18.6368 9.21239 19.657 9.40596 20.6691 9.79355C20.218 10.1162 19.7621 10.7353 19.0793 10.296ZM18.1008 8.16144C18.2248 7.99571 18.3518 7.83351 18.6514 7.84721C18.5283 8.01427 18.4413 8.21801 18.1008 8.16144ZM18.162 20.7172C18.7345 20.033 19.7307 19.0784 20.7307 19.9009C20.3488 20.2213 19.9429 20.5156 19.5072 20.7799C19.1374 20.7569 19.0307 20.593 18.7733 20.5916C18.8172 20.84 19.2498 20.688 19.2627 20.9682C18.7987 20.9845 18.6127 20.7154 18.162 20.7172ZM18.4676 8.22419C18.5395 8.0262 18.7849 8.00587 18.8959 7.84721C19.2756 7.93869 19.6131 8.07393 20.0578 8.09824C19.9554 8.28607 19.778 8.39699 19.6295 8.53797C19.2786 8.39611 18.8051 8.3802 18.4676 8.22419ZM19.6299 21.9727C20.342 21.3036 21.0385 20.3486 22.0764 20.2147C22.1457 20.227 22.11 20.2783 22.0764 20.2779C22.2706 20.3959 22.1225 20.4113 22.0148 20.5289C22.1341 20.4754 22.5943 20.3198 22.81 20.5921C22.2658 20.9607 21.8711 21.9148 20.9756 21.5334C21.2146 21.2554 21.5865 21.1145 21.7703 20.7804C21.4397 20.943 21.2098 21.209 20.9756 21.4711C20.7251 21.4981 20.5839 21.4128 20.425 21.3456C20.3514 21.4163 20.314 21.5246 20.1194 21.4711C20.4427 21.6828 20.8547 21.8043 21.2809 21.9104C21.1715 22.1119 20.952 22.1999 20.7918 22.3497C20.5959 22.2998 20.4832 22.1645 20.2417 22.1614C20.2955 21.9657 20.5301 21.9555 20.6084 21.7845C20.3454 21.7862 20.3333 22.0465 20.1194 22.0982C19.9339 22.0792 19.9007 21.9042 19.6299 21.9727ZM19.9967 22.1614C19.7109 22.4505 19.3488 22.865 18.7733 22.6635C19.004 22.252 19.5047 21.7668 19.9967 22.1614ZM19.1409 7.65894C19.357 7.39996 19.6166 7.18518 19.8744 6.96818C20.168 7.08574 20.5038 7.15954 20.7918 7.28196C20.6678 7.55199 20.4289 7.70491 20.2417 7.90997C19.8443 7.85782 19.5184 7.73142 19.1409 7.65894ZM19.3243 12.4302C19.3665 11.971 19.8228 11.9379 19.9356 11.5516C20.088 11.5423 20.1896 11.5839 20.2417 11.6771C20.2257 11.8566 19.9657 11.9516 19.8744 11.8654C19.8482 12.0727 19.6605 12.3666 19.3243 12.4302ZM21.6476 12.0541C21.4479 11.7355 20.896 11.7797 20.5469 11.6144C20.7014 11.4592 20.8607 11.3094 21.0359 11.1751C21.5499 11.3797 22.1139 11.5335 22.6873 11.6776C22.584 11.8641 22.3666 11.9339 22.2594 12.1169C22.0687 12.0877 21.8775 11.8495 21.7092 11.9909C21.7901 12.0961 21.9813 12.089 22.0764 12.1796C21.9386 12.5301 21.6184 12.3648 21.2809 12.3051C21.3622 12.4306 21.5525 12.4452 21.7092 12.4938C21.6283 12.7033 21.3515 12.7126 21.2809 12.9331C20.7875 12.7285 20.159 12.6622 19.6911 12.4306C19.7337 12.2437 19.9162 12.2013 19.9971 12.0541C20.4849 12.055 20.7406 12.295 21.2206 12.3047C20.9791 12.0501 20.3622 12.1809 20.1805 11.8654C20.5693 11.5211 21.1616 11.948 21.6476 12.0541ZM19.3243 9.04003C19.4818 8.88446 19.6657 8.45975 19.8744 8.72625C19.7023 8.84248 19.5615 8.99097 19.3243 9.04003ZM19.4461 21.0941C19.9816 20.6522 20.5667 19.7603 21.4642 20.0896C21.1577 20.5704 20.5714 20.7631 20.2412 21.2201C19.828 21.2413 19.8245 20.9713 19.4461 21.0941ZM19.6299 12.6817C19.9614 12.5186 20.6222 12.9097 21.0975 12.9955C20.6816 13.0657 20.0811 12.7838 19.6299 12.6817ZM20.7307 9.47976C20.9705 9.71046 20.1112 9.18896 19.7522 9.22874C19.6794 9.06301 20.0462 9.06654 19.7522 9.04003C20.2163 8.52693 21.0992 9.01881 21.7092 9.10322C21.4582 9.29503 21.1762 9.68394 20.7307 9.47976ZM19.8744 10.6726C19.8228 10.4503 20.3144 10.2474 20.5473 10.1078C20.6114 10.1078 20.0372 10.4914 19.8744 10.6726ZM21.2809 9.91906C21.0949 10.3557 20.6915 10.5696 20.425 10.9236C20.224 10.8785 19.9653 10.894 19.9356 10.6726C20.4087 10.4467 20.5947 9.92613 21.2809 9.91906ZM19.8133 8.53842C19.8874 8.38373 20.0979 8.37048 20.119 8.16144C20.3493 8.11326 20.4113 8.23789 20.608 8.22419C20.5189 8.42572 20.2137 8.40583 20.119 8.60117C19.9463 8.65244 19.9605 8.51234 19.8133 8.53842ZM21.0975 11.1123C21.1091 11.0412 21.159 11.077 21.159 11.1123C21.243 10.8843 21.472 10.806 21.5869 10.6098C21.413 10.6611 21.2766 10.7512 21.2202 10.9236C20.7935 10.7512 20.8383 11.1242 20.5473 10.9868C20.8207 10.6602 21.1784 10.4211 21.4035 10.045C21.6339 9.99684 21.6959 10.1215 21.8926 10.1078C21.893 10.338 21.6786 10.3482 21.5869 10.4848C21.6679 10.5639 21.9442 10.3106 22.0148 10.1705C22.6877 10.296 23.2719 10.5126 23.8496 10.7358C23.2839 11.141 22.9232 11.9025 22.1371 11.4889C22.135 11.488 22.2142 11.3678 22.1982 11.3638C21.8965 11.2864 21.4436 11.3355 21.0975 11.1123ZM20.8525 11.1746C20.6114 11.3549 20.518 11.6206 20.119 11.4884C20.2391 11.1945 20.5443 10.9333 20.8525 11.1746ZM20.4246 8.09824C20.2464 7.76722 20.8353 7.68413 20.8525 7.34516C21.2167 7.32704 21.4182 7.47598 21.7088 7.53343C21.2335 7.95726 20.8284 8.17249 20.4246 8.09824ZM20.4862 15.5698C20.5241 15.378 20.8151 15.4469 20.853 15.2556C20.9838 15.1623 20.7359 15.648 20.4862 15.5698ZM20.9141 21.6585C20.9834 21.5714 21.3859 21.6731 21.4035 21.8477C21.2615 21.7628 21.0561 21.7434 20.9141 21.6585ZM21.0975 22.4125C21.0325 22.2794 21.3764 22.0315 21.5869 21.9727C21.481 22.1782 21.2339 22.2388 21.0975 22.4125ZM22.2594 9.22874C22.5168 9.30829 22.5164 9.32597 22.7488 9.35425C22.7419 9.47269 22.5465 9.398 22.565 9.54252C23.0076 9.19736 24.0988 9.72946 24.8277 9.8563C24.7429 10.2713 24.1957 10.2121 24.0941 10.6098C23.6232 10.5073 23.2133 10.342 22.7488 10.2328C22.7385 10.0967 22.9658 10.2046 23.0545 10.1696C23.0454 10.0534 22.8474 10.1316 22.81 10.0446C22.6188 10.1763 22.6137 10.1361 22.3209 10.1073C22.3033 10.0061 22.3786 9.99949 22.3821 9.91862C22.0605 9.93674 22.0191 9.85277 21.7703 9.91862C21.8095 9.46297 22.0282 9.61544 22.2594 9.22874ZM21.5254 9.79355C21.4733 9.80504 21.4681 9.7688 21.4642 9.73035C21.4754 9.67687 21.4401 9.67113 21.4031 9.66759C21.6123 9.50628 21.8043 9.32641 22.076 9.2283C22.1164 9.16642 21.7312 9.69632 21.5254 9.79355ZM22.8095 12.6189C23.0825 12.3003 23.5323 12.7082 23.9107 12.6817C23.884 12.8651 23.6348 13.0078 23.4824 12.8699C23.3653 12.9508 23.6266 12.9999 23.4824 13.1842C23.2676 13.1727 23.2194 13.3327 23.1152 13.4347C22.5241 13.3309 22.0519 13.1037 21.4642 12.9955C21.6343 12.7917 21.822 12.4192 22.1978 12.6189C22.2736 12.4156 22.0002 12.5707 22.076 12.3679C22.2426 12.4139 22.1987 12.2433 22.3205 12.2419C22.5986 12.1655 22.5603 12.4147 22.8095 12.3679C22.912 12.4925 22.8044 12.4474 22.8095 12.6189ZM21.8922 20.2151C21.8939 20.1541 21.9671 20.1665 22.0144 20.1523C22.0045 20.0785 21.9029 20.0993 21.831 20.0891C22.1797 19.7829 22.5551 19.2225 23.054 19.2733C23.014 19.2092 22.9133 19.2083 22.9318 19.0846C23.7519 18.6294 24.2284 17.8211 25.1944 17.5152C25.1454 17.7574 24.9491 17.8489 24.7665 17.9545C24.903 18.0703 25.1505 17.7649 25.256 17.6408C25.4756 17.7075 25.6353 17.837 25.8062 17.9545C24.9913 18.918 23.8552 19.5504 22.9933 20.4657C22.8328 20.3375 22.4875 20.399 22.5039 20.0887C22.3635 20.3053 22.1737 20.0737 21.8922 20.2151ZM24.4605 12.1792C24.3046 12.8147 23.7312 12.4938 23.1767 12.4302C23.1079 12.1292 23.4096 12.2092 23.4824 12.0537C23.2232 12.0386 23.1716 12.2362 22.9933 12.3042C22.7127 12.3626 22.6972 12.1474 22.4428 12.1787C22.794 11.3854 23.7889 12.169 24.4605 12.1792ZM23.8492 11.6771C24.262 11.5848 24.8092 10.7888 25.5005 11.3001C25.3064 11.6449 24.943 11.8163 24.705 12.1164C24.0011 12.1071 23.6404 11.7443 23.054 11.6139C23.3218 11.2825 23.6895 11.0522 24.0321 10.7977C24.2827 10.8127 24.3769 10.9886 24.6438 10.9864C24.5018 11.3421 24.1049 11.4371 23.8492 11.6771ZM25.6839 11.1746C25.4674 11.3514 25.1531 11.0942 24.9499 11.0491C25.1286 10.9112 25.5173 11.092 25.6839 11.1746ZM25.1333 10.9236C25.5375 10.6739 25.9766 10.1794 26.5402 10.296C26.1592 10.738 25.8707 11.3236 25.1333 10.9236ZM22.9322 8.66349C23.0588 8.52162 23.1668 8.36031 23.4824 8.41291C23.3481 8.61708 23.2383 8.78768 22.9322 8.66349ZM24.6443 12.9327C24.6774 13.2407 24.2405 13.1033 24.0941 13.0582C24.0653 13.3167 24.2586 12.9977 24.2775 13.2465C24.2594 13.4582 24.0067 13.4286 23.9719 13.6235C23.6869 13.6442 23.4897 13.5744 23.299 13.4979C23.5009 13.3066 23.6352 13.0476 24.033 13.0587C23.7372 12.8125 24.4613 12.6525 24.6443 12.9327ZM24.3386 12.6817C24.5095 12.2437 24.9112 12.3856 25.256 12.3679C25.2285 12.8677 24.6555 12.9689 24.3386 12.6817ZM23.9107 14.9413C23.8251 14.8092 24.1587 14.571 24.3386 14.5021C24.2271 14.6806 23.9908 14.731 23.9107 14.9413ZM26.1734 12.8695C26.1213 12.881 26.1153 12.8452 26.1118 12.8067C25.9004 13.029 25.5703 13.1294 25.3778 13.3716C25.129 13.3552 24.9633 13.2531 24.7665 13.1833C24.7708 13.4511 25.1535 13.33 25.3167 13.4339C24.9159 13.8798 24.7403 13.878 24.0326 13.7481C24.3528 13.3353 24.9095 12.7762 25.5005 13.1833C25.5578 12.8942 25.169 13.0631 25.0722 12.9323C25.2844 12.382 25.9108 12.6415 26.3563 12.8067C26.2349 12.9331 26.067 13.0122 25.9891 13.1837C25.7993 13.064 26.1321 12.9592 26.1734 12.8695ZM26.2952 16.2597C26.7055 16.4594 27.0826 15.8982 27.3353 15.6949C27.5781 15.4995 27.8643 15.5592 27.885 15.2556C28.2092 15.2158 28.2406 15.4765 28.5579 15.4438C27.9999 16.3971 26.9366 17.0874 25.9289 17.8922C25.6026 17.8087 25.479 17.517 25.1333 17.4529C25.4941 17.0698 25.9306 16.7639 26.3568 16.4484C25.7791 16.3631 25.4269 17.3712 24.8277 17.2651C25.3994 16.8475 25.9642 16.4223 26.5402 16.0095C26.6517 16.048 26.4343 16.2712 26.2952 16.2597ZM29.3534 14.8163C29.1657 14.7703 29.1735 14.9246 28.9862 14.879C29.3861 15.0227 28.8454 15.3108 28.6806 15.4438C28.4468 15.3908 28.2914 15.2573 28.0688 15.1928C28.43 14.8693 28.8893 14.171 29.3534 14.8163ZM24.9499 13.9368C25.1888 13.6588 25.4657 13.4202 25.8062 13.246C25.5328 13.4887 25.2969 13.7697 24.9499 13.9368ZM26.5397 12.6817C26.566 12.477 26.9793 12.1292 27.2737 11.9909C27.0753 12.268 26.7627 12.4284 26.5397 12.6817ZM29.0473 10.3588C28.8751 10.5705 28.5906 10.525 28.3133 10.7358C28.4326 10.4189 28.8252 10.3818 29.0473 10.1705C29.2531 10.1957 28.6905 10.3579 29.0473 10.3588ZM15.0435 16.5739C14.8356 16.9129 14.5204 17.4485 14.1261 17.3902C14.3754 17.06 14.6453 16.7511 15.0435 16.5739ZM11.1906 19.0223C11.4368 18.9785 11.5397 19.0824 11.7412 19.085C11.5707 19.4125 11.3301 19.6675 10.9461 19.7758C10.9013 19.7166 10.835 19.6803 10.7627 19.6498C10.7037 19.2335 11.256 19.4448 11.1906 19.0223ZM12.3525 18.5202C12.3701 18.8521 12.0645 18.8521 11.9857 19.085C11.8002 19.0037 11.5711 18.9666 11.3744 18.8968C11.4179 18.6276 11.6689 18.5711 11.7412 18.332C11.9917 18.3465 12.0856 18.522 12.3525 18.5202ZM12.7808 18.6457C13.0822 18.1273 13.6448 17.5807 14.1261 17.4529C14.0331 18.1105 13.3908 18.2047 13.2087 18.7713C13.0727 18.7222 12.9702 18.6391 12.7808 18.6457ZM13.0865 18.7713C13.0142 18.9693 12.8962 19.12 12.7808 19.2738C12.6418 19.2278 12.4683 19.2176 12.3525 19.1478C12.2896 19.359 12.5428 19.2459 12.6581 19.2738C12.5987 19.694 12.2431 19.8103 12.1075 20.1523C11.7055 20.2094 11.6211 19.9407 11.2517 19.9636C11.4579 19.5685 11.7231 19.2344 12.2914 19.2106C11.987 18.8645 12.7115 18.4818 13.0865 18.7713ZM26.1734 21.7217C25.4958 22.7629 24.2715 23.7878 23.3601 24.7981C22.8496 24.9585 22.2861 25.6064 21.5869 25.6767C21.7466 25.2498 22.2004 24.9232 22.565 24.6094C23.6826 23.6499 25.002 22.6732 26.1734 21.7217ZM37.2417 13.8113C34.4108 16.7644 30.8649 18.9834 27.7021 21.5962C27.5673 21.5043 27.5811 21.2594 27.396 21.2192C27.5505 21.3739 27.4076 21.6457 27.5802 21.6581C26.5337 22.405 25.5634 23.2301 24.4609 23.9182C25.2758 22.9543 26.1928 22.0969 27.0296 21.156C27.1962 21.1622 27.1523 21.0517 27.2741 21.156C27.3555 21.1123 27.244 20.989 27.3357 20.8422C30.7021 18.5658 33.5511 15.7572 37.2417 13.8113ZM25.256 23.668C25.4768 23.3286 25.9844 23.0586 26.3568 22.789C26.5651 22.6383 26.8501 22.2622 27.0296 22.4125C26.402 22.7934 26.0455 23.4537 25.256 23.668ZM27.885 22.9145C27.9638 22.7439 28.1988 22.7338 28.2522 22.538C28.0736 22.5667 27.8118 22.8345 27.885 22.9145ZM30.7598 20.4661C30.6419 20.5545 30.5136 20.6323 30.3311 20.6544C30.2915 20.8228 30.1563 20.8935 30.0865 21.0318C29.963 20.9319 29.9135 20.9872 29.8424 21.0318C29.4266 21.2899 28.8179 21.8596 28.4972 22.2242C27.8011 23.0166 27.1093 23.8205 26.1738 24.2333C26.4808 24.095 26.7317 23.9023 26.9685 24.1701C29.929 21.8888 33.4982 19.9795 36.692 17.955C37.7467 17.2859 38.9447 16.7016 39.5664 15.6321C39.2689 15.4509 38.7876 15.9061 38.5879 15.8204C38.9921 15.4615 39.4303 15.1367 39.7498 14.6899C37.2189 17.0534 33.23 18.2515 30.7598 20.4661ZM28.0688 22.9773C30.6229 20.2628 33.9127 18.3041 37.4247 16.5739C35.1612 18.2334 32.5197 20.0799 30.1481 21.6585C29.4356 22.1332 28.9109 22.709 28.0688 22.9773ZM39.3817 15.6321C39.3998 16.0484 38.9254 16.2959 38.6481 16.5107C37.7609 17.1979 36.5736 17.8242 35.6515 18.5198C35.5043 18.4937 35.5185 18.6343 35.3458 18.5825C34.549 19.23 33.5107 19.6286 32.6548 20.2147C34.7324 18.769 36.8582 16.8289 39.3817 15.6321ZM2.93508 13.372C2.64881 14.0411 1.98499 14.6563 1.83432 15.2556C2.15934 14.6258 2.86233 14.0508 2.93508 13.372ZM7.09362 6.34061C6.89301 6.47099 6.53786 6.77328 6.60458 6.96862C6.73976 6.73085 6.91712 6.53595 7.09362 6.34061ZM7.82761 5.52434C7.58352 5.73471 7.33469 5.93888 7.15475 6.2151C7.44275 6.05025 7.60375 5.75548 7.82761 5.52434ZM7.94987 10.5471C7.88056 10.688 7.50043 10.8348 7.64422 10.9868C7.68253 10.8136 8.06265 10.6668 7.94987 10.5471ZM8.9895 12.1164C8.50348 12.3918 8.14703 12.8001 7.76648 13.1837C8.20428 12.8589 8.65458 12.5473 8.9895 12.1164ZM8.74455 19.1474C8.66233 18.9374 8.13885 18.8513 8.07169 18.8336C8.23657 18.9997 8.52069 19.0426 8.74455 19.1474ZM10.2125 16.2597C10.1897 16.0502 9.65375 16.0422 9.60123 16.0714C9.76869 16.1713 10.0446 16.1602 10.2125 16.2597ZM10.0898 19.4616C10.0119 19.4651 10.005 19.5425 9.90644 19.5248C10.0554 19.4519 9.83843 19.2287 9.78418 19.3988C9.90903 19.4386 9.8014 19.7161 10.0291 19.6498C9.91979 19.481 10.2982 19.5288 10.0898 19.4616ZM11.2522 17.2015C11.1971 17.4167 10.8458 17.3287 10.8849 17.6412C11.111 17.6403 11.3098 17.2859 11.2522 17.2015ZM12.1695 16.7622C12.0951 16.7551 12.0249 16.7436 12.0473 16.6367C11.8953 16.6274 11.7937 16.6694 11.7416 16.7622C11.9345 16.676 12.1101 16.9177 12.1695 16.7622ZM14.1872 0C13.8484 0.0494981 13.6431 0.236441 13.4533 0.439295C13.1541 0.550666 13.0038 0.81495 12.7193 0.941789C13.0434 0.938695 13.3749 0.401729 13.82 0.313782C13.5161 0.860029 13.0258 1.21491 12.6581 1.69487C13.2221 1.1853 13.8898 0.782688 14.1872 0ZM13.2699 10.1073C13.3017 10.2717 12.9151 10.3208 13.1476 10.4843C13.1588 10.3911 13.2957 10.4269 13.3921 10.4211C13.3887 10.0609 13.9057 9.90359 13.8205 9.66803C13.8088 9.76084 13.6724 9.72549 13.5759 9.73079C13.6289 9.97386 13.4735 10.0021 13.3926 10.1078C13.3284 10.0278 12.9384 9.752 12.9035 10.045C13.0555 10.0004 13.1545 9.9827 13.2699 10.1073ZM13.6982 2.95044C13.6358 3.16125 13.1764 3.29118 13.331 3.51569C13.3827 3.29472 13.7856 3.10645 13.6982 2.95044ZM14.5544 11.6144C14.5174 11.2683 13.9703 11.6267 13.7593 11.3638C13.709 11.6033 14.0542 11.4376 14.0038 11.6776C13.8484 11.9781 13.5402 12.1226 13.331 12.3683C13.8282 12.2083 13.9371 11.6502 14.5544 11.6144ZM14.6767 8.78944C14.6207 8.61841 14.5631 8.9565 14.3711 8.8522C14.3517 9.14609 14.2471 9.35292 13.9432 9.35469C13.9475 9.46385 13.9294 9.54959 13.8816 9.60572C14.0366 9.53457 14.2286 9.50098 14.3099 9.35469C14.1941 9.16996 14.5958 8.98036 14.6767 8.78944ZM14.065 3.01364C14.201 2.80327 14.495 2.67334 14.2484 2.38563C14.1704 2.59909 13.9091 2.6234 13.8812 2.88812C14.0017 2.86912 14.0026 2.97254 14.065 3.01364ZM14.7985 14.1251C14.7193 14.3182 14.251 14.4389 14.3706 14.6276C14.4498 14.4349 14.9186 14.3142 14.7985 14.1251ZM14.7378 19.8381C14.6741 19.5539 15.0715 19.4585 15.288 19.4616C15.2135 19.4541 15.1434 19.4426 15.1657 19.3361C14.9591 19.4085 14.9049 19.2914 14.7985 19.3988C14.9044 19.4448 14.6134 19.8227 14.4929 19.6498C14.4808 19.7303 14.3151 19.9574 14.4318 19.9636C14.4838 19.8708 14.5859 19.8288 14.7378 19.8381ZM15.777 13.6858C15.7667 13.5921 15.799 13.4546 15.7159 13.4347C15.7073 13.6146 15.4611 13.5501 15.288 13.5603C15.3952 13.7826 15.0822 13.8838 15.2269 13.9372C15.3427 13.7839 15.4778 13.6504 15.777 13.6858ZM16.6333 16.7622C16.3784 16.7935 16.3638 16.5788 16.0831 16.6367C16.1188 16.8894 16.4809 16.7958 16.6333 16.7622ZM16.9389 13.0582C16.728 13.1342 16.5704 13.2659 16.4499 13.4347C16.6608 13.3587 16.8188 13.2275 16.9389 13.0582ZM17.6729 9.8563C17.6023 9.81123 17.1464 9.67864 17.3057 9.79355C17.4262 9.84702 17.6118 10.1056 17.6729 9.8563ZM17.9786 16.7622C17.8042 16.9858 17.5885 17.0379 17.3673 17.0764C17.4357 17.0892 17.4624 17.1458 17.4895 17.2015C17.4422 17.2156 17.369 17.2032 17.3673 17.2647C17.6406 17.0596 18.2666 17.3327 17.7956 17.0136C17.8628 16.9712 18.1124 16.8046 17.9786 16.7622ZM18.4676 17.2015C18.4814 17.095 18.3987 17.0459 18.4065 17.2015C17.9532 17.1551 17.9527 17.5727 17.6725 17.704C17.7198 17.6898 17.793 17.7022 17.7947 17.6412C18.0784 17.555 18.1667 17.2691 18.4676 17.2015ZM18.5292 6.71715C18.5438 6.45508 18.7565 6.78875 18.8348 6.59164C18.6312 6.4153 18.0952 6.45022 17.734 6.27786C17.883 6.54347 18.4323 6.39807 18.5292 6.71715ZM19.0182 14.6276C18.877 14.5772 18.3204 14.3787 18.4069 14.5021C18.5868 14.5295 18.9033 14.742 19.0182 14.6276ZM19.7522 16.0718C19.3307 16.3304 18.7375 16.7449 18.5903 17.0764C18.9803 16.744 19.388 16.4303 19.7522 16.0718ZM19.8744 5.71261C20.0294 5.41473 20.4784 5.93491 20.6696 5.77581C20.4974 5.81735 20.1934 5.42578 20.1194 5.39927C20.1366 5.40545 20.0299 5.52787 19.9971 5.52434C19.6515 5.49163 19.0036 4.96439 18.6519 5.1478C19.0212 5.35375 19.8413 5.36391 19.8744 5.71261ZM20.6696 5.33607C20.5215 5.04085 20.9838 5.04615 21.0975 4.83358C20.5947 5.39131 19.8688 4.99975 19.202 5.02229C19.5335 5.16327 20.0423 5.12217 20.3032 5.33607C20.2076 5.33077 20.2602 5.51859 20.3032 5.39927C20.3105 5.26094 20.5619 5.37231 20.6696 5.33607ZM20.3028 15.0041C20.0053 14.963 20.277 14.8247 20.1801 14.7531C20.122 15.1013 19.4513 14.6333 19.5688 14.8163C19.7027 14.9299 20.3557 15.1097 20.3028 15.0041ZM22.4428 22.2869C22.7867 22.3948 23.3111 22.6502 23.6046 22.6007C23.2801 22.5053 22.5383 22.2021 22.4428 22.2869ZM23.0545 6.15234C22.878 6.26416 22.4716 6.13997 22.3816 6.34061C22.6877 6.38304 22.8547 6.28272 23.1152 6.27786C22.7346 5.50136 21.2494 5.43506 20.7307 5.33607C21.5112 5.60256 22.4445 5.71172 23.0545 6.15234ZM22.1978 4.52023C21.9959 4.81545 21.7462 5.06074 21.5249 5.33651C21.7665 5.12261 22.252 4.82783 22.1978 4.52023ZM22.3209 4.26877C21.9576 4.61702 21.6575 4.3081 22.3209 4.26877ZM23.3601 19.3988C23.3674 19.4885 23.7855 19.565 23.6046 19.462C23.5323 19.432 23.466 19.3953 23.4213 19.3365C24.5681 18.3275 22.9942 19.4448 22.9933 19.7762C23.0898 19.6233 23.212 19.4978 23.3601 19.3988ZM23.6662 22.6635C23.7454 22.713 24.2547 22.8301 24.0941 22.7267C23.9973 22.6935 23.7665 22.4845 23.6662 22.6635ZM24.5831 18.2688C24.3356 18.3501 24.1712 18.5163 24.0326 18.7081C24.2667 18.6135 24.432 18.4482 24.5831 18.2688ZM24.8884 6.77991C24.8884 6.81482 24.9379 6.8515 24.9499 6.77991C24.7084 6.77858 24.3765 7.18429 24.1552 7.40792C24.4523 7.25279 24.7188 7.06585 24.8884 6.77991ZM26.7847 16.2597C26.532 16.3352 26.3667 16.5005 26.2345 16.699C26.6034 16.6252 26.5062 16.4449 26.7847 16.2597ZM26.9069 5.08504C26.4945 5.24768 26.2707 5.60433 25.9289 5.83856C26.3615 5.69714 26.5634 5.31795 26.9069 5.08504ZM27.8243 7.34516C27.585 7.40836 27.1846 7.92234 27.2126 7.84721C27.4885 7.75352 27.616 7.50868 27.8243 7.34516ZM28.9246 11.9286C28.7202 11.9259 28.4291 11.6882 28.2518 11.8654C28.5493 11.773 28.7494 12.1045 28.9246 11.9286ZM29.5364 5.46202C29.3009 5.4523 29.0891 6.05954 29.1692 5.96408C29.2686 5.77315 29.477 5.6936 29.5364 5.46202ZM33.0836 18.5202C32.3324 19.0576 31.4581 19.4801 31.0043 20.1523C32.5795 18.9259 34.2954 17.932 35.8964 16.7622C37.1065 15.8783 38.2254 14.7076 39.8105 14.3142C39.9852 14.4115 39.6826 14.6068 39.8716 14.6903C39.8617 14.4923 40.0343 14.4808 39.9938 14.251C39.3059 14.2356 38.9628 14.5741 38.4647 14.7535C38.6486 14.4397 39.0605 14.3602 39.1987 14.0004C38.3786 14.5401 37.6838 15.2078 36.8754 15.7585C36.3936 15.9088 35.9218 16.3472 35.7135 16.5748C35.1306 16.8762 34.58 17.2107 34.0621 17.5789C34.5524 17.4339 34.9296 17.1719 35.2851 16.8881C34.6532 17.4812 33.8327 17.9846 33.0836 18.5202ZM35.2847 16.3852C35.2851 16.4201 35.2352 16.4563 35.2236 16.3852C35.5297 16.1766 35.8913 16.0246 36.141 15.7576C34.995 16.3609 33.6583 17.4348 32.8382 17.955C33.8094 17.4286 34.478 16.9305 35.2847 16.3852ZM35.2847 13.3097C35.1887 13.3154 35.0729 13.3008 35.1013 13.4347C35.4108 13.4878 35.4634 13.4308 35.713 13.4979C35.4651 13.1599 34.5339 12.8752 34.3678 12.8699C34.6626 13.0273 34.998 13.1431 35.2847 13.3097ZM37.6081 14.7531C37.0648 15.0112 36.5947 15.3448 36.141 15.6949C36.7807 15.3471 37.3575 15.0306 37.6081 14.7531ZM38.7093 14.1251C38.5207 14.2378 38.1277 14.3138 37.9141 14.5648C38.3287 14.3615 38.429 14.4667 38.7093 14.1251Z" fill="var(--fill-0, black)"/>
</g>
</svg>
