<svg width="224" height="133" viewBox="0 0 224 133" fill="none" xmlns="http://www.w3.org/2000/svg">
<g filter="url(#filter0_d_824_1621)">
<rect x="4" y="3" width="216" height="92" rx="8" fill="white"/>
</g>
<path d="M86.2511 54L87.9215 43.8182H89.1147L87.4442 54H86.2511ZM81.6424 51.2756L81.8363 50.0824H89.5522L89.3583 51.2756H81.6424ZM82.6715 54L84.342 43.8182H85.5352L83.8647 54H82.6715ZM82.234 47.7358L82.4279 46.5426H90.1438L89.9499 47.7358H82.234ZM91.9663 54V43.8182H98.2802V45.1406H93.5025V48.2429H97.8278V49.5604H93.5025V54H91.9663ZM100.669 54V43.8182H106.983V45.1406H102.206V48.2429H106.531V49.5604H102.206V54H100.669ZM109.373 54V43.8182H115.686V45.1406H110.909V48.2429H115.234V49.5604H110.909V54H109.373ZM118.076 54V43.8182H124.39V45.1406H119.612V48.2429H123.937V49.5604H119.612V54H118.076ZM126.779 54V43.8182H133.093V45.1406H128.315V48.2429H132.64V49.5604H128.315V54H126.779ZM135.482 54V43.8182H141.796V45.1406H137.018V48.2429H141.343V49.5604H137.018V54H135.482Z" fill="#1C1B1E"/>
<path d="M13.9631 121.909C13.9631 122.996 13.7642 123.931 13.3665 124.713C12.9688 125.492 12.4235 126.092 11.7308 126.513C11.0414 126.93 10.2576 127.139 9.37926 127.139C8.49763 127.139 7.71046 126.93 7.01776 126.513C6.32836 126.092 5.7848 125.49 5.38707 124.708C4.98935 123.926 4.79048 122.993 4.79048 121.909C4.79048 120.822 4.98935 119.889 5.38707 119.11C5.7848 118.328 6.32836 117.728 7.01776 117.31C7.71046 116.889 8.49763 116.679 9.37926 116.679C10.2576 116.679 11.0414 116.889 11.7308 117.31C12.4235 117.728 12.9688 118.328 13.3665 119.11C13.7642 119.889 13.9631 120.822 13.9631 121.909ZM12.4418 121.909C12.4418 121.08 12.3075 120.383 12.0391 119.816C11.7739 119.246 11.4093 118.815 10.9453 118.523C10.4846 118.228 9.96259 118.081 9.37926 118.081C8.79261 118.081 8.26894 118.228 7.80824 118.523C7.34754 118.815 6.98295 119.246 6.71449 119.816C6.44934 120.383 6.31676 121.08 6.31676 121.909C6.31676 122.738 6.44934 123.437 6.71449 124.007C6.98295 124.574 7.34754 125.005 7.80824 125.3C8.26894 125.591 8.79261 125.737 9.37926 125.737C9.96259 125.737 10.4846 125.591 10.9453 125.3C11.4093 125.005 11.7739 124.574 12.0391 124.007C12.3075 123.437 12.4418 122.738 12.4418 121.909ZM17.7456 122.466V127H16.2591V119.364H17.6859V120.607H17.7804C17.956 120.202 18.2311 119.877 18.6056 119.632C18.9835 119.387 19.4591 119.264 20.0325 119.264C20.5529 119.264 21.0086 119.374 21.3997 119.592C21.7908 119.808 22.094 120.129 22.3095 120.557C22.5249 120.984 22.6326 121.513 22.6326 122.143V127H21.1461V122.322C21.1461 121.768 21.002 121.336 20.7136 121.024C20.4252 120.709 20.0292 120.552 19.5254 120.552C19.1807 120.552 18.8741 120.626 18.6056 120.776C18.3405 120.925 18.13 121.143 17.9743 121.432C17.8218 121.717 17.7456 122.062 17.7456 122.466ZM29.4506 127V116.818H35.8342V118.141H30.9869V121.243H35.5011V122.56H30.9869V125.678H35.8938V127H29.4506ZM38.2669 127V119.364H39.7037V120.577H39.7832C39.9224 120.166 40.1677 119.843 40.519 119.607C40.8736 119.369 41.2747 119.249 41.7221 119.249C41.8149 119.249 41.9243 119.253 42.0502 119.259C42.1795 119.266 42.2806 119.274 42.3535 119.284V120.706C42.2939 120.689 42.1878 120.671 42.0353 120.651C41.8829 120.628 41.7304 120.616 41.5779 120.616C41.2266 120.616 40.9134 120.691 40.6383 120.84C40.3665 120.986 40.1511 121.19 39.992 121.452C39.8329 121.71 39.7534 122.005 39.7534 122.337V127H38.2669ZM44.1399 127V119.364H45.5767V120.577H45.6562C45.7955 120.166 46.0407 119.843 46.392 119.607C46.7467 119.369 47.1477 119.249 47.5952 119.249C47.688 119.249 47.7973 119.253 47.9233 119.259C48.0526 119.266 48.1536 119.274 48.2266 119.284V120.706C48.1669 120.689 48.0608 120.671 47.9084 120.651C47.7559 120.628 47.6035 120.616 47.451 120.616C47.0997 120.616 46.7865 120.691 46.5114 120.84C46.2396 120.986 46.0241 121.19 45.8651 121.452C45.706 121.71 45.6264 122.005 45.6264 122.337V127H44.1399ZM52.9561 127.154C52.2402 127.154 51.6155 126.99 51.0819 126.662C50.5482 126.334 50.1339 125.875 49.839 125.285C49.544 124.695 49.3965 124.005 49.3965 123.217C49.3965 122.424 49.544 121.732 49.839 121.138C50.1339 120.545 50.5482 120.085 51.0819 119.756C51.6155 119.428 52.2402 119.264 52.9561 119.264C53.6721 119.264 54.2968 119.428 54.8304 119.756C55.3641 120.085 55.7783 120.545 56.0733 121.138C56.3683 121.732 56.5158 122.424 56.5158 123.217C56.5158 124.005 56.3683 124.695 56.0733 125.285C55.7783 125.875 55.3641 126.334 54.8304 126.662C54.2968 126.99 53.6721 127.154 52.9561 127.154ZM52.9611 125.906C53.4251 125.906 53.8096 125.784 54.1145 125.538C54.4194 125.293 54.6448 124.967 54.7907 124.559C54.9398 124.151 55.0144 123.702 55.0144 123.212C55.0144 122.724 54.9398 122.277 54.7907 121.869C54.6448 121.458 54.4194 121.129 54.1145 120.88C53.8096 120.631 53.4251 120.507 52.9611 120.507C52.4938 120.507 52.106 120.631 51.7978 120.88C51.4928 121.129 51.2658 121.458 51.1167 121.869C50.9708 122.277 50.8979 122.724 50.8979 123.212C50.8979 123.702 50.9708 124.151 51.1167 124.559C51.2658 124.967 51.4928 125.293 51.7978 125.538C52.106 125.784 52.4938 125.906 52.9611 125.906ZM58.6751 127V119.364H60.1119V120.577H60.1914C60.3306 120.166 60.5759 119.843 60.9272 119.607C61.2818 119.369 61.6829 119.249 62.1303 119.249C62.2231 119.249 62.3325 119.253 62.4585 119.259C62.5877 119.266 62.6888 119.274 62.7617 119.284V120.706C62.7021 120.689 62.596 120.671 62.4435 120.651C62.2911 120.628 62.1386 120.616 61.9862 120.616C61.6348 120.616 61.3216 120.691 61.0465 120.84C60.7747 120.986 60.5593 121.19 60.4002 121.452C60.2411 121.71 60.1616 122.005 60.1616 122.337V127H58.6751Z" fill="#1C1B1E"/>
<defs>
<filter id="filter0_d_824_1621" x="0" y="0" width="224" height="100" filterUnits="userSpaceOnUse" color-interpolation-filters="sRGB">
<feFlood flood-opacity="0" result="BackgroundImageFix"/>
<feColorMatrix in="SourceAlpha" type="matrix" values="0 0 0 0 0 0 0 0 0 0 0 0 0 0 0 0 0 0 127 0" result="hardAlpha"/>
<feOffset dy="1"/>
<feGaussianBlur stdDeviation="2"/>
<feComposite in2="hardAlpha" operator="out"/>
<feColorMatrix type="matrix" values="0 0 0 0 0 0 0 0 0 0 0 0 0 0 0 0 0 0 0.1 0"/>
<feBlend mode="normal" in2="BackgroundImageFix" result="effect1_dropShadow_824_1621"/>
<feBlend mode="normal" in="SourceGraphic" in2="effect1_dropShadow_824_1621" result="shape"/>
</filter>
</defs>
</svg>
