<svg width="224" height="133" viewBox="0 0 224 133" fill="none" xmlns="http://www.w3.org/2000/svg">
<g filter="url(#filter0_d_825_476)">
<rect x="4" y="3" width="216" height="92" rx="8" fill="#006A63"/>
</g>
<path d="M84.0099 54L85.6803 43.8182H86.8735L85.203 54H84.0099ZM79.4012 51.2756L79.5951 50.0824H87.311L87.1171 51.2756H79.4012ZM80.4303 54L82.1008 43.8182H83.2939L81.6235 54H80.4303ZM79.9928 47.7358L80.1867 46.5426H87.9026L87.7087 47.7358H79.9928ZM93.1306 54.169C92.3451 54.1657 91.6739 53.9586 91.1171 53.5476C90.5603 53.1366 90.1344 52.5384 89.8394 51.7528C89.5444 50.9673 89.3969 50.0211 89.3969 48.9141C89.3969 47.8104 89.5444 46.8674 89.8394 46.0852C90.1377 45.303 90.5653 44.7064 91.1221 44.2955C91.6822 43.8845 92.3517 43.679 93.1306 43.679C93.9095 43.679 94.5773 43.8861 95.1341 44.3004C95.691 44.7114 96.1169 45.308 96.4118 46.0902C96.7101 46.8691 96.8593 47.8104 96.8593 48.9141C96.8593 50.0244 96.7118 50.9723 96.4168 51.7578C96.1218 52.54 95.6959 53.1383 95.1391 53.5526C94.5823 53.9635 93.9128 54.169 93.1306 54.169ZM93.1306 52.8416C93.82 52.8416 94.3586 52.5052 94.7464 51.8324C95.1375 51.1596 95.333 50.1868 95.333 48.9141C95.333 48.0689 95.2435 47.3546 95.0645 46.7713C94.8889 46.1847 94.6353 45.7405 94.3039 45.4389C93.9758 45.134 93.5847 44.9815 93.1306 44.9815C92.4445 44.9815 91.9059 45.3196 91.5148 45.9957C91.1237 46.6719 90.9265 47.6446 90.9232 48.9141C90.9232 49.7625 91.011 50.4801 91.1867 51.0668C91.3657 51.6501 91.6192 52.0926 91.9474 52.3942C92.2755 52.6925 92.6699 52.8416 93.1306 52.8416ZM102.668 54.169C101.882 54.1657 101.211 53.9586 100.654 53.5476C100.097 53.1366 99.6715 52.5384 99.3765 51.7528C99.0815 50.9673 98.934 50.0211 98.934 48.9141C98.934 47.8104 99.0815 46.8674 99.3765 46.0852C99.6748 45.303 100.102 44.7064 100.659 44.2955C101.219 43.8845 101.889 43.679 102.668 43.679C103.447 43.679 104.114 43.8861 104.671 44.3004C105.228 44.7114 105.654 45.308 105.949 46.0902C106.247 46.8691 106.396 47.8104 106.396 48.9141C106.396 50.0244 106.249 50.9723 105.954 51.7578C105.659 52.54 105.233 53.1383 104.676 53.5526C104.119 53.9635 103.45 54.169 102.668 54.169ZM102.668 52.8416C103.357 52.8416 103.896 52.5052 104.283 51.8324C104.675 51.1596 104.87 50.1868 104.87 48.9141C104.87 48.0689 104.781 47.3546 104.602 46.7713C104.426 46.1847 104.172 45.7405 103.841 45.4389C103.513 45.134 103.122 44.9815 102.668 44.9815C101.982 44.9815 101.443 45.3196 101.052 45.9957C100.661 46.6719 100.464 47.6446 100.46 48.9141C100.46 49.7625 100.548 50.4801 100.724 51.0668C100.903 51.6501 101.156 52.0926 101.484 52.3942C101.813 52.6925 102.207 52.8416 102.668 52.8416ZM112.215 54.1392C111.761 54.1326 111.313 54.0497 110.872 53.8906C110.435 53.7315 110.037 53.4664 109.679 53.0952C109.321 52.724 109.035 52.2251 108.819 51.5987C108.607 50.9723 108.501 50.1901 108.501 49.2521C108.501 48.3639 108.589 47.575 108.764 46.8857C108.943 46.1963 109.2 45.6146 109.535 45.1406C109.87 44.6634 110.274 44.3004 110.748 44.0518C111.222 43.8033 111.754 43.679 112.344 43.679C112.951 43.679 113.489 43.7983 113.96 44.0369C114.43 44.2756 114.812 44.6054 115.103 45.0263C115.398 45.4472 115.585 45.9261 115.665 46.4631H114.149C114.046 46.0388 113.842 45.6925 113.537 45.424C113.232 45.1555 112.835 45.0213 112.344 45.0213C111.598 45.0213 111.017 45.3461 110.599 45.9957C110.185 46.6454 109.976 47.5485 109.973 48.7053H110.047C110.223 48.4169 110.438 48.1716 110.693 47.9695C110.952 47.764 111.24 47.6065 111.559 47.4972C111.88 47.3845 112.218 47.3281 112.573 47.3281C113.163 47.3281 113.696 47.4723 114.174 47.7607C114.654 48.0457 115.037 48.4401 115.322 48.9439C115.607 49.4477 115.75 50.0244 115.75 50.674C115.75 51.3236 115.602 51.9119 115.307 52.4389C115.015 52.9659 114.604 53.3835 114.074 53.6918C113.544 53.9967 112.924 54.1458 112.215 54.1392ZM112.21 52.8466C112.601 52.8466 112.951 52.7505 113.259 52.5582C113.567 52.366 113.811 52.1075 113.99 51.7827C114.169 51.4579 114.258 51.0949 114.258 50.6939C114.258 50.3028 114.17 49.9465 113.995 49.625C113.822 49.3035 113.584 49.0483 113.279 48.8594C112.977 48.6705 112.632 48.576 112.245 48.576C111.95 48.576 111.676 48.6323 111.424 48.745C111.176 48.8577 110.957 49.0135 110.768 49.2124C110.579 49.4112 110.43 49.6399 110.321 49.8984C110.215 50.1536 110.161 50.4238 110.161 50.7088C110.161 51.09 110.249 51.4429 110.425 51.7678C110.604 52.0926 110.848 52.3544 111.156 52.5533C111.467 52.7488 111.819 52.8466 112.21 52.8466ZM119.06 54H117.429L121.093 43.8182H122.868L126.532 54H124.901L122.023 45.6676H121.943L119.06 54ZM119.333 50.0128H124.623V51.3054H119.333V50.0128ZM131.918 54.1392C131.464 54.1326 131.016 54.0497 130.576 53.8906C130.138 53.7315 129.74 53.4664 129.382 53.0952C129.024 52.724 128.738 52.2251 128.522 51.5987C128.31 50.9723 128.204 50.1901 128.204 49.2521C128.204 48.3639 128.292 47.575 128.468 46.8857C128.647 46.1963 128.903 45.6146 129.238 45.1406C129.573 44.6634 129.977 44.3004 130.451 44.0518C130.925 43.8033 131.457 43.679 132.047 43.679C132.654 43.679 133.192 43.7983 133.663 44.0369C134.134 44.2756 134.515 44.6054 134.806 45.0263C135.101 45.4472 135.289 45.9261 135.368 46.4631H133.852C133.749 46.0388 133.545 45.6925 133.24 45.424C132.935 45.1555 132.538 45.0213 132.047 45.0213C131.301 45.0213 130.72 45.3461 130.302 45.9957C129.888 46.6454 129.679 47.5485 129.676 48.7053H129.75C129.926 48.4169 130.141 48.1716 130.397 47.9695C130.655 47.764 130.943 47.6065 131.262 47.4972C131.583 47.3845 131.921 47.3281 132.276 47.3281C132.866 47.3281 133.399 47.4723 133.877 47.7607C134.357 48.0457 134.74 48.4401 135.025 48.9439C135.31 49.4477 135.453 50.0244 135.453 50.674C135.453 51.3236 135.305 51.9119 135.01 52.4389C134.719 52.9659 134.308 53.3835 133.777 53.6918C133.247 53.9967 132.627 54.1458 131.918 54.1392ZM131.913 52.8466C132.304 52.8466 132.654 52.7505 132.962 52.5582C133.27 52.366 133.514 52.1075 133.693 51.7827C133.872 51.4579 133.961 51.0949 133.961 50.6939C133.961 50.3028 133.873 49.9465 133.698 49.625C133.525 49.3035 133.287 49.0483 132.982 48.8594C132.68 48.6705 132.335 48.576 131.948 48.576C131.653 48.576 131.379 48.6323 131.127 48.745C130.879 48.8577 130.66 49.0135 130.471 49.2124C130.282 49.4112 130.133 49.6399 130.024 49.8984C129.918 50.1536 129.865 50.4238 129.865 50.7088C129.865 51.09 129.952 51.4429 130.128 51.7678C130.307 52.0926 130.551 52.3544 130.859 52.5533C131.17 52.7488 131.522 52.8466 131.913 52.8466ZM141.308 54.1392C140.626 54.1392 140.016 54.0215 139.479 53.7862C138.945 53.5509 138.523 53.2244 138.211 52.8068C137.903 52.3859 137.737 51.8987 137.714 51.3452H139.275C139.295 51.6468 139.396 51.9086 139.578 52.1307C139.764 52.3494 140.006 52.5185 140.304 52.6378C140.602 52.7571 140.934 52.8168 141.298 52.8168C141.699 52.8168 142.054 52.7472 142.362 52.608C142.674 52.4687 142.917 52.2749 143.093 52.0263C143.269 51.7744 143.357 51.4844 143.357 51.1562C143.357 50.8149 143.269 50.5149 143.093 50.2564C142.921 49.9946 142.667 49.7891 142.332 49.6399C142.001 49.4908 141.6 49.4162 141.129 49.4162H140.269V48.1634H141.129C141.507 48.1634 141.839 48.0954 142.124 47.9595C142.412 47.8236 142.637 47.6347 142.8 47.3928C142.962 47.1475 143.043 46.8608 143.043 46.5327C143.043 46.2178 142.972 45.9444 142.83 45.7124C142.69 45.477 142.492 45.2931 142.233 45.1605C141.978 45.0279 141.676 44.9616 141.328 44.9616C140.997 44.9616 140.687 45.023 140.399 45.1456C140.113 45.2649 139.881 45.4373 139.703 45.6626C139.524 45.8847 139.427 46.1515 139.414 46.4631H137.928C137.944 45.9129 138.107 45.429 138.415 45.0114C138.726 44.5937 139.137 44.2673 139.648 44.032C140.158 43.7966 140.725 43.679 141.348 43.679C142.001 43.679 142.564 43.8066 143.038 44.0618C143.516 44.3137 143.884 44.6501 144.142 45.071C144.404 45.492 144.533 45.9527 144.53 46.4531C144.533 47.0232 144.374 47.5071 144.053 47.9048C143.734 48.3026 143.31 48.5694 142.78 48.7053V48.7848C143.456 48.8875 143.98 49.156 144.351 49.5902C144.725 50.0244 144.911 50.563 144.908 51.206C144.911 51.7661 144.755 52.2682 144.44 52.7124C144.129 53.1565 143.703 53.5062 143.163 53.7614C142.622 54.0133 142.004 54.1392 141.308 54.1392Z" fill="#FFFBFF"/>
<path d="M13.5753 120.129H12.0241C11.9645 119.798 11.8535 119.506 11.6911 119.254C11.5286 119.002 11.3298 118.789 11.0945 118.613C10.8591 118.437 10.5956 118.305 10.304 118.215C10.0156 118.126 9.70904 118.081 9.38423 118.081C8.79759 118.081 8.27225 118.228 7.80824 118.523C7.34754 118.818 6.98295 119.251 6.71449 119.821C6.44934 120.391 6.31676 121.087 6.31676 121.909C6.31676 122.738 6.44934 123.437 6.71449 124.007C6.98295 124.577 7.3492 125.008 7.81321 125.3C8.27723 125.591 8.79924 125.737 9.37926 125.737C9.70076 125.737 10.0057 125.694 10.294 125.608C10.5857 125.518 10.8492 125.388 11.0845 125.215C11.3198 125.043 11.5187 124.832 11.6811 124.584C11.8468 124.332 11.9612 124.044 12.0241 123.719L13.5753 123.724C13.4924 124.224 13.3317 124.685 13.093 125.106C12.8577 125.523 12.5545 125.885 12.1832 126.19C11.8153 126.491 11.3944 126.725 10.9205 126.891C10.4465 127.056 9.92945 127.139 9.36932 127.139C8.48769 127.139 7.70218 126.93 7.01278 126.513C6.32339 126.092 5.77983 125.49 5.3821 124.708C4.98769 123.926 4.79048 122.993 4.79048 121.909C4.79048 120.822 4.98935 119.889 5.38707 119.11C5.7848 118.328 6.32836 117.728 7.01776 117.31C7.70715 116.889 8.491 116.679 9.36932 116.679C9.90956 116.679 10.4134 116.757 10.8807 116.913C11.3513 117.065 11.7739 117.29 12.1484 117.589C12.523 117.884 12.8329 118.245 13.0781 118.673C13.3234 119.097 13.4891 119.582 13.5753 120.129ZM20.6316 123.833V119.364H22.123V127H20.6614V125.678H20.5819C20.4062 126.085 20.1245 126.425 19.7367 126.697C19.3522 126.965 18.8733 127.099 18.2999 127.099C17.8094 127.099 17.3752 126.992 16.9973 126.776C16.6228 126.558 16.3278 126.234 16.1124 125.807C15.9003 125.379 15.7942 124.851 15.7942 124.221V119.364H17.2807V124.042C17.2807 124.562 17.4249 124.977 17.7132 125.285C18.0016 125.593 18.3761 125.747 18.8368 125.747C19.1152 125.747 19.392 125.678 19.6671 125.538C19.9455 125.399 20.1758 125.189 20.3581 124.907C20.5437 124.625 20.6349 124.267 20.6316 123.833ZM30.3427 121.228L28.9954 121.467C28.939 121.294 28.8496 121.13 28.7269 120.974C28.6076 120.819 28.4452 120.691 28.2397 120.592C28.0342 120.492 27.7773 120.442 27.4691 120.442C27.0482 120.442 26.6969 120.537 26.4151 120.726C26.1334 120.911 25.9925 121.152 25.9925 121.447C25.9925 121.702 26.087 121.907 26.2759 122.063C26.4648 122.219 26.7698 122.347 27.1907 122.446L28.4038 122.724C29.1064 122.887 29.6301 123.137 29.9748 123.475C30.3195 123.813 30.4918 124.252 30.4918 124.793C30.4918 125.25 30.3593 125.658 30.0941 126.016C29.8323 126.37 29.466 126.649 28.9954 126.851C28.5281 127.053 27.9862 127.154 27.3697 127.154C26.5146 127.154 25.8169 126.972 25.2766 126.607C24.7364 126.239 24.4049 125.717 24.2823 125.041L25.7191 124.822C25.8086 125.197 25.9925 125.48 26.271 125.673C26.5494 125.862 26.9123 125.956 27.3597 125.956C27.8469 125.956 28.2364 125.855 28.5281 125.653C28.8197 125.447 28.9656 125.197 28.9656 124.902C28.9656 124.663 28.8761 124.463 28.6971 124.3C28.5214 124.138 28.2513 124.015 27.8867 123.933L26.5941 123.649C25.8815 123.487 25.3545 123.228 25.0131 122.874C24.6751 122.519 24.506 122.07 24.506 121.526C24.506 121.076 24.632 120.681 24.8839 120.343C25.1358 120.005 25.4838 119.741 25.9279 119.553C26.372 119.36 26.8808 119.264 27.4542 119.264C28.2795 119.264 28.9291 119.443 29.4031 119.801C29.877 120.156 30.1902 120.631 30.3427 121.228ZM36.1909 119.364V120.557H32.0197V119.364H36.1909ZM33.1383 117.534H34.6248V124.758C34.6248 125.046 34.6679 125.263 34.7541 125.409C34.8403 125.552 34.9513 125.649 35.0872 125.702C35.2264 125.752 35.3772 125.777 35.5396 125.777C35.6589 125.777 35.7633 125.769 35.8528 125.752C35.9423 125.736 36.0119 125.722 36.0616 125.712L36.3301 126.94C36.2439 126.973 36.1213 127.007 35.9622 127.04C35.8031 127.076 35.6042 127.096 35.3656 127.099C34.9745 127.106 34.6099 127.036 34.2718 126.891C33.9338 126.745 33.6603 126.519 33.4515 126.214C33.2427 125.91 33.1383 125.527 33.1383 125.066V117.534ZM41.4698 127.154C40.7539 127.154 40.1291 126.99 39.5955 126.662C39.0619 126.334 38.6476 125.875 38.3526 125.285C38.0576 124.695 37.9102 124.005 37.9102 123.217C37.9102 122.424 38.0576 121.732 38.3526 121.138C38.6476 120.545 39.0619 120.085 39.5955 119.756C40.1291 119.428 40.7539 119.264 41.4698 119.264C42.1857 119.264 42.8105 119.428 43.3441 119.756C43.8777 120.085 44.292 120.545 44.587 121.138C44.882 121.732 45.0295 122.424 45.0295 123.217C45.0295 124.005 44.882 124.695 44.587 125.285C44.292 125.875 43.8777 126.334 43.3441 126.662C42.8105 126.99 42.1857 127.154 41.4698 127.154ZM41.4748 125.906C41.9388 125.906 42.3233 125.784 42.6282 125.538C42.9331 125.293 43.1585 124.967 43.3043 124.559C43.4535 124.151 43.5281 123.702 43.5281 123.212C43.5281 122.724 43.4535 122.277 43.3043 121.869C43.1585 121.458 42.9331 121.129 42.6282 120.88C42.3233 120.631 41.9388 120.507 41.4748 120.507C41.0075 120.507 40.6197 120.631 40.3114 120.88C40.0065 121.129 39.7795 121.458 39.6303 121.869C39.4845 122.277 39.4116 122.724 39.4116 123.212C39.4116 123.702 39.4845 124.151 39.6303 124.559C39.7795 124.967 40.0065 125.293 40.3114 125.538C40.6197 125.784 41.0075 125.906 41.4748 125.906ZM47.1887 127V119.364H48.6156V120.607H48.71C48.8691 120.186 49.1293 119.857 49.4906 119.622C49.8519 119.384 50.2844 119.264 50.7882 119.264C51.2986 119.264 51.7261 119.384 52.0708 119.622C52.4189 119.861 52.6757 120.189 52.8414 120.607H52.921C53.1033 120.199 53.3933 119.874 53.791 119.632C54.1887 119.387 54.6627 119.264 55.2129 119.264C55.9056 119.264 56.4707 119.481 56.9082 119.915C57.349 120.35 57.5694 121.004 57.5694 121.879V127H56.0829V122.018C56.0829 121.501 55.9421 121.127 55.6603 120.895C55.3786 120.663 55.0422 120.547 54.6511 120.547C54.1672 120.547 53.791 120.696 53.5225 120.994C53.2541 121.289 53.1199 121.669 53.1199 122.133V127H51.6383V121.924C51.6383 121.51 51.5091 121.177 51.2505 120.925C50.992 120.673 50.6556 120.547 50.2413 120.547C49.9596 120.547 49.6994 120.621 49.4608 120.771C49.2254 120.916 49.0349 121.12 48.889 121.382C48.7465 121.644 48.6752 121.947 48.6752 122.292V127H47.1887ZM67.7917 127.139C67.109 127.139 66.4991 127.022 65.9622 126.786C65.4286 126.551 65.006 126.224 64.6944 125.807C64.3862 125.386 64.2205 124.899 64.1973 124.345H65.7583C65.7782 124.647 65.8793 124.909 66.0616 125.131C66.2472 125.349 66.4892 125.518 66.7875 125.638C67.0858 125.757 67.4172 125.817 67.7818 125.817C68.1828 125.817 68.5375 125.747 68.8457 125.608C69.1573 125.469 69.4009 125.275 69.5765 125.026C69.7522 124.774 69.84 124.484 69.84 124.156C69.84 123.815 69.7522 123.515 69.5765 123.256C69.4042 122.995 69.1506 122.789 68.8159 122.64C68.4844 122.491 68.0834 122.416 67.6127 122.416H66.7527V121.163H67.6127C67.9906 121.163 68.322 121.095 68.6071 120.96C68.8954 120.824 69.1208 120.635 69.2832 120.393C69.4456 120.147 69.5268 119.861 69.5268 119.533C69.5268 119.218 69.4556 118.944 69.313 118.712C69.1738 118.477 68.975 118.293 68.7164 118.161C68.4612 118.028 68.1596 117.962 67.8116 117.962C67.4802 117.962 67.1703 118.023 66.8819 118.146C66.5969 118.265 66.3649 118.437 66.1859 118.663C66.0069 118.885 65.9108 119.152 65.8975 119.463H64.411C64.4276 118.913 64.59 118.429 64.8983 118.011C65.2098 117.594 65.6208 117.267 66.1312 117.032C66.6416 116.797 67.2084 116.679 67.8315 116.679C68.4844 116.679 69.0479 116.807 69.5218 117.062C69.9991 117.314 70.367 117.65 70.6255 118.071C70.8874 118.492 71.0166 118.953 71.0133 119.453C71.0166 120.023 70.8575 120.507 70.536 120.905C70.2179 121.303 69.7936 121.569 69.2633 121.705V121.785C69.9395 121.888 70.4631 122.156 70.8343 122.59C71.2089 123.024 71.3945 123.563 71.3912 124.206C71.3945 124.766 71.2387 125.268 70.9238 125.712C70.6123 126.156 70.1864 126.506 69.6461 126.761C69.1059 127.013 68.4877 127.139 67.7917 127.139Z" fill="#1C1B1E"/>
<defs>
<filter id="filter0_d_825_476" x="0" y="0" width="224" height="100" filterUnits="userSpaceOnUse" color-interpolation-filters="sRGB">
<feFlood flood-opacity="0" result="BackgroundImageFix"/>
<feColorMatrix in="SourceAlpha" type="matrix" values="0 0 0 0 0 0 0 0 0 0 0 0 0 0 0 0 0 0 127 0" result="hardAlpha"/>
<feOffset dy="1"/>
<feGaussianBlur stdDeviation="2"/>
<feComposite in2="hardAlpha" operator="out"/>
<feColorMatrix type="matrix" values="0 0 0 0 0 0 0 0 0 0 0 0 0 0 0 0 0 0 0.1 0"/>
<feBlend mode="normal" in2="BackgroundImageFix" result="effect1_dropShadow_825_476"/>
<feBlend mode="normal" in="SourceGraphic" in2="effect1_dropShadow_825_476" result="shape"/>
</filter>
</defs>
</svg>
