<svg width="224" height="133" viewBox="0 0 224 133" fill="none" xmlns="http://www.w3.org/2000/svg">
<g filter="url(#filter0_d_824_1622)">
<rect x="4" y="3" width="216" height="92" rx="8" fill="#FFDAD4"/>
</g>
<path d="M83.8253 54L85.4957 43.8182H86.6889L85.0185 54H83.8253ZM79.2166 51.2756L79.4105 50.0824H87.1264L86.9325 51.2756H79.2166ZM80.2457 54L81.9162 43.8182H83.1094L81.4389 54H80.2457ZM79.8082 47.7358L80.0021 46.5426H87.718L87.5241 47.7358H79.8082ZM89.5405 54V43.8182H95.8544V45.1406H91.0767V48.2429H95.402V49.5604H91.0767V54H89.5405ZM98.2436 54V43.8182H104.558V45.1406H99.7798V48.2429H104.105V49.5604H99.7798V54H98.2436ZM110.243 54H106.947V43.8182H110.347C111.345 43.8182 112.202 44.022 112.918 44.4297C113.634 44.834 114.182 45.4157 114.563 46.1747C114.948 46.9304 115.14 47.8369 115.14 48.8942C115.14 49.9548 114.946 50.8662 114.558 51.6286C114.174 52.3909 113.617 52.9775 112.888 53.3885C112.159 53.7962 111.277 54 110.243 54ZM108.483 52.6577H110.158C110.934 52.6577 111.579 52.5118 112.092 52.2202C112.606 51.9252 112.991 51.4993 113.246 50.9425C113.501 50.3823 113.629 49.6996 113.629 48.8942C113.629 48.0954 113.501 47.4176 113.246 46.8608C112.994 46.304 112.618 45.8814 112.117 45.593C111.617 45.3047 110.995 45.1605 110.253 45.1605H108.483V52.6577ZM117.904 54H116.274L119.938 43.8182H121.713L125.377 54H123.746L120.868 45.6676H120.788L117.904 54ZM118.178 50.0128H123.468V51.3054H118.178V50.0128ZM130.643 54H127.347V43.8182H130.748C131.745 43.8182 132.602 44.022 133.318 44.4297C134.034 44.834 134.582 45.4157 134.964 46.1747C135.348 46.9304 135.54 47.8369 135.54 48.8942C135.54 49.9548 135.346 50.8662 134.959 51.6286C134.574 52.3909 134.017 52.9775 133.288 53.3885C132.559 53.7962 131.677 54 130.643 54ZM128.883 52.6577H130.559C131.334 52.6577 131.979 52.5118 132.493 52.2202C133.006 51.9252 133.391 51.4993 133.646 50.9425C133.901 50.3823 134.029 49.6996 134.029 48.8942C134.029 48.0954 133.901 47.4176 133.646 46.8608C133.394 46.304 133.018 45.8814 132.518 45.593C132.017 45.3047 131.396 45.1605 130.653 45.1605H128.883V52.6577ZM137.598 52.0114V50.7685L141.998 43.8182H142.977V45.6477H142.355L139.208 50.6293V50.7088H145.239V52.0114H137.598ZM142.425 54V51.6335L142.435 51.0668V43.8182H143.892V54H142.425Z" fill="#1C1B1E"/>
<path d="M5.11861 127V116.818H11.5021V118.141H6.65483V121.243H11.169V122.56H6.65483V125.678H11.5618V127H5.11861ZM13.9348 127V119.364H15.3716V120.577H15.4512C15.5904 120.166 15.8356 119.843 16.187 119.607C16.5416 119.369 16.9426 119.249 17.3901 119.249C17.4829 119.249 17.5923 119.253 17.7182 119.259C17.8475 119.266 17.9486 119.274 18.0215 119.284V120.706C17.9618 120.689 17.8558 120.671 17.7033 120.651C17.5508 120.628 17.3984 120.616 17.2459 120.616C16.8946 120.616 16.5814 120.691 16.3063 120.84C16.0345 120.986 15.8191 121.19 15.66 121.452C15.5009 121.71 15.4213 122.005 15.4213 122.337V127H13.9348ZM19.8079 127V119.364H21.2447V120.577H21.3242C21.4634 120.166 21.7087 119.843 22.06 119.607C22.4147 119.369 22.8157 119.249 23.2631 119.249C23.3559 119.249 23.4653 119.253 23.5913 119.259C23.7205 119.266 23.8216 119.274 23.8945 119.284V120.706C23.8349 120.689 23.7288 120.671 23.5763 120.651C23.4239 120.628 23.2714 120.616 23.119 120.616C22.7676 120.616 22.4544 120.691 22.1793 120.84C21.9076 120.986 21.6921 121.19 21.533 121.452C21.3739 121.71 21.2944 122.005 21.2944 122.337V127H19.8079ZM28.6241 127.154C27.9082 127.154 27.2834 126.99 26.7498 126.662C26.2162 126.334 25.8019 125.875 25.5069 125.285C25.2119 124.695 25.0645 124.005 25.0645 123.217C25.0645 122.424 25.2119 121.732 25.5069 121.138C25.8019 120.545 26.2162 120.085 26.7498 119.756C27.2834 119.428 27.9082 119.264 28.6241 119.264C29.34 119.264 29.9648 119.428 30.4984 119.756C31.032 120.085 31.4463 120.545 31.7413 121.138C32.0363 121.732 32.1838 122.424 32.1838 123.217C32.1838 124.005 32.0363 124.695 31.7413 125.285C31.4463 125.875 31.032 126.334 30.4984 126.662C29.9648 126.99 29.34 127.154 28.6241 127.154ZM28.6291 125.906C29.0931 125.906 29.4776 125.784 29.7825 125.538C30.0874 125.293 30.3128 124.967 30.4586 124.559C30.6078 124.151 30.6824 123.702 30.6824 123.212C30.6824 122.724 30.6078 122.277 30.4586 121.869C30.3128 121.458 30.0874 121.129 29.7825 120.88C29.4776 120.631 29.0931 120.507 28.6291 120.507C28.1618 120.507 27.774 120.631 27.4657 120.88C27.1608 121.129 26.9338 121.458 26.7846 121.869C26.6388 122.277 26.5659 122.724 26.5659 123.212C26.5659 123.702 26.6388 124.151 26.7846 124.559C26.9338 124.967 27.1608 125.293 27.4657 125.538C27.774 125.784 28.1618 125.906 28.6291 125.906ZM34.343 127V119.364H35.7798V120.577H35.8594C35.9986 120.166 36.2438 119.843 36.5952 119.607C36.9498 119.369 37.3509 119.249 37.7983 119.249C37.8911 119.249 38.0005 119.253 38.1264 119.259C38.2557 119.266 38.3568 119.274 38.4297 119.284V120.706C38.37 120.689 38.264 120.671 38.1115 120.651C37.959 120.628 37.8066 120.616 37.6541 120.616C37.3028 120.616 36.9896 120.691 36.7145 120.84C36.4427 120.986 36.2273 121.19 36.0682 121.452C35.9091 121.71 35.8295 122.005 35.8295 122.337V127H34.343ZM52.9972 120.129H51.446C51.3864 119.798 51.2753 119.506 51.1129 119.254C50.9505 119.002 50.7517 118.789 50.5163 118.613C50.281 118.437 50.0175 118.305 49.7259 118.215C49.4375 118.126 49.1309 118.081 48.8061 118.081C48.2195 118.081 47.6941 118.228 47.2301 118.523C46.7694 118.818 46.4048 119.251 46.1364 119.821C45.8712 120.391 45.7386 121.087 45.7386 121.909C45.7386 122.738 45.8712 123.437 46.1364 124.007C46.4048 124.577 46.7711 125.008 47.2351 125.3C47.6991 125.591 48.2211 125.737 48.8011 125.737C49.1226 125.737 49.4276 125.694 49.7159 125.608C50.0076 125.518 50.2711 125.388 50.5064 125.215C50.7417 125.043 50.9406 124.832 51.103 124.584C51.2687 124.332 51.383 124.044 51.446 123.719L52.9972 123.724C52.9143 124.224 52.7536 124.685 52.5149 125.106C52.2796 125.523 51.9763 125.885 51.6051 126.19C51.2372 126.491 50.8163 126.725 50.3423 126.891C49.8684 127.056 49.3513 127.139 48.7912 127.139C47.9096 127.139 47.1241 126.93 46.4347 126.513C45.7453 126.092 45.2017 125.49 44.804 124.708C44.4096 123.926 44.2124 122.993 44.2124 121.909C44.2124 120.822 44.4112 119.889 44.8089 119.11C45.2067 118.328 45.7502 117.728 46.4396 117.31C47.129 116.889 47.9129 116.679 48.7912 116.679C49.3314 116.679 49.8352 116.757 50.3026 116.913C50.7732 117.065 51.1958 117.29 51.5703 117.589C51.9448 117.884 52.2547 118.245 52.5 118.673C52.7453 119.097 52.911 119.582 52.9972 120.129ZM58.4327 127.154C57.7168 127.154 57.092 126.99 56.5584 126.662C56.0248 126.334 55.6105 125.875 55.3155 125.285C55.0205 124.695 54.873 124.005 54.873 123.217C54.873 122.424 55.0205 121.732 55.3155 121.138C55.6105 120.545 56.0248 120.085 56.5584 119.756C57.092 119.428 57.7168 119.264 58.4327 119.264C59.1486 119.264 59.7734 119.428 60.307 119.756C60.8406 120.085 61.2549 120.545 61.5499 121.138C61.8449 121.732 61.9924 122.424 61.9924 123.217C61.9924 124.005 61.8449 124.695 61.5499 125.285C61.2549 125.875 60.8406 126.334 60.307 126.662C59.7734 126.99 59.1486 127.154 58.4327 127.154ZM58.4377 125.906C58.9017 125.906 59.2862 125.784 59.5911 125.538C59.896 125.293 60.1214 124.967 60.2672 124.559C60.4164 124.151 60.4909 123.702 60.4909 123.212C60.4909 122.724 60.4164 122.277 60.2672 121.869C60.1214 121.458 59.896 121.129 59.5911 120.88C59.2862 120.631 58.9017 120.507 58.4377 120.507C57.9703 120.507 57.5826 120.631 57.2743 120.88C56.9694 121.129 56.7424 121.458 56.5932 121.869C56.4474 122.277 56.3745 122.724 56.3745 123.212C56.3745 123.702 56.4474 124.151 56.5932 124.559C56.7424 124.967 56.9694 125.293 57.2743 125.538C57.5826 125.784 57.9703 125.906 58.4377 125.906ZM65.6381 122.466V127H64.1516V119.364H65.5785V120.607H65.6729C65.8486 120.202 66.1237 119.877 66.4982 119.632C66.8761 119.387 67.3517 119.264 67.9251 119.264C68.4454 119.264 68.9012 119.374 69.2923 119.592C69.6834 119.808 69.9866 120.129 70.2021 120.557C70.4175 120.984 70.5252 121.513 70.5252 122.143V127H69.0387V122.322C69.0387 121.768 68.8945 121.336 68.6062 121.024C68.3178 120.709 67.9218 120.552 67.418 120.552C67.0733 120.552 66.7667 120.626 66.4982 120.776C66.2331 120.925 66.0226 121.143 65.8668 121.432C65.7144 121.717 65.6381 122.062 65.6381 122.466ZM76.5835 119.364V120.557H72.4123V119.364H76.5835ZM73.5309 117.534H75.0174V124.758C75.0174 125.046 75.0605 125.263 75.1467 125.409C75.2328 125.552 75.3439 125.649 75.4798 125.702C75.619 125.752 75.7698 125.777 75.9322 125.777C76.0515 125.777 76.1559 125.769 76.2454 125.752C76.3349 125.736 76.4045 125.722 76.4542 125.712L76.7227 126.94C76.6365 126.973 76.5138 127.007 76.3548 127.04C76.1957 127.076 75.9968 127.096 75.7582 127.099C75.3671 127.106 75.0025 127.036 74.6644 126.891C74.3263 126.745 74.0529 126.519 73.8441 126.214C73.6353 125.91 73.5309 125.527 73.5309 125.066V117.534ZM80.9501 127.169C80.4662 127.169 80.0287 127.08 79.6376 126.901C79.2465 126.718 78.9366 126.455 78.7079 126.11C78.4825 125.765 78.3699 125.343 78.3699 124.842C78.3699 124.411 78.4527 124.057 78.6184 123.778C78.7842 123.5 79.0079 123.28 79.2896 123.117C79.5713 122.955 79.8862 122.832 80.2342 122.749C80.5822 122.666 80.9368 122.603 81.2981 122.56C81.7555 122.507 82.1267 122.464 82.4118 122.431C82.6968 122.395 82.9039 122.337 83.0332 122.257C83.1625 122.178 83.2271 122.048 83.2271 121.869V121.835C83.2271 121.4 83.1045 121.064 82.8592 120.825C82.6172 120.587 82.256 120.467 81.7754 120.467C81.2749 120.467 80.8805 120.578 80.5922 120.8C80.3071 121.019 80.1099 121.263 80.0005 121.531L78.6035 121.213C78.7692 120.749 79.0112 120.375 79.3294 120.089C79.6509 119.801 80.0204 119.592 80.438 119.463C80.8556 119.33 81.2948 119.264 81.7555 119.264C82.0604 119.264 82.3836 119.301 82.725 119.374C83.0697 119.443 83.3912 119.572 83.6895 119.761C83.9911 119.95 84.238 120.22 84.4302 120.572C84.6225 120.92 84.7186 121.372 84.7186 121.929V127H83.2669V125.956H83.2072C83.1111 126.148 82.9669 126.337 82.7747 126.523C82.5824 126.708 82.3355 126.862 82.0339 126.985C81.7323 127.108 81.371 127.169 80.9501 127.169ZM81.2733 125.976C81.6842 125.976 82.0356 125.895 82.3272 125.732C82.6222 125.57 82.8459 125.358 82.9984 125.096C83.1542 124.831 83.2321 124.547 83.2321 124.246V123.261C83.179 123.314 83.0763 123.364 82.9238 123.411C82.7747 123.454 82.604 123.492 82.4118 123.525C82.2195 123.555 82.0323 123.583 81.85 123.609C81.6677 123.633 81.5152 123.652 81.3926 123.669C81.1042 123.705 80.8407 123.767 80.6021 123.853C80.3668 123.939 80.1779 124.063 80.0353 124.226C79.8961 124.385 79.8265 124.597 79.8265 124.862C79.8265 125.23 79.9624 125.509 80.2342 125.697C80.506 125.883 80.8523 125.976 81.2733 125.976ZM87.1985 127V119.364H88.685V127H87.1985ZM87.9492 118.185C87.6907 118.185 87.4686 118.099 87.283 117.927C87.1007 117.751 87.0096 117.542 87.0096 117.3C87.0096 117.055 87.1007 116.846 87.283 116.674C87.4686 116.498 87.6907 116.411 87.9492 116.411C88.2077 116.411 88.4281 116.498 88.6104 116.674C88.796 116.846 88.8888 117.055 88.8888 117.3C88.8888 117.542 88.796 117.751 88.6104 117.927C88.4281 118.099 88.2077 118.185 87.9492 118.185ZM92.6713 122.466V127H91.1848V119.364H92.6117V120.607H92.7061C92.8818 120.202 93.1569 119.877 93.5314 119.632C93.9093 119.387 94.3849 119.264 94.9583 119.264C95.4786 119.264 95.9344 119.374 96.3255 119.592C96.7166 119.808 97.0198 120.129 97.2353 120.557C97.4507 120.984 97.5584 121.513 97.5584 122.143V127H96.0719V122.322C96.0719 121.768 95.9277 121.336 95.6394 121.024C95.351 120.709 94.955 120.552 94.4512 120.552C94.1065 120.552 93.7999 120.626 93.5314 120.776C93.2663 120.925 93.0558 121.143 92.9 121.432C92.7476 121.717 92.6713 122.062 92.6713 122.466ZM103.343 127.154C102.591 127.154 101.943 126.993 101.399 126.672C100.859 126.347 100.441 125.891 100.146 125.305C99.8548 124.715 99.709 124.024 99.709 123.232C99.709 122.449 99.8548 121.76 100.146 121.163C100.441 120.567 100.852 120.101 101.379 119.766C101.91 119.432 102.53 119.264 103.239 119.264C103.67 119.264 104.087 119.335 104.492 119.478C104.896 119.621 105.259 119.844 105.58 120.149C105.902 120.454 106.155 120.85 106.341 121.337C106.527 121.821 106.619 122.41 106.619 123.102V123.629H100.549V122.516H105.163C105.163 122.125 105.083 121.778 104.924 121.477C104.765 121.172 104.541 120.931 104.253 120.756C103.968 120.58 103.633 120.492 103.249 120.492C102.831 120.492 102.467 120.595 102.155 120.8C101.847 121.003 101.608 121.268 101.439 121.596C101.273 121.921 101.191 122.274 101.191 122.655V123.525C101.191 124.035 101.28 124.469 101.459 124.827C101.641 125.185 101.895 125.459 102.22 125.648C102.544 125.833 102.924 125.926 103.358 125.926C103.64 125.926 103.897 125.886 104.129 125.807C104.361 125.724 104.561 125.601 104.73 125.439C104.899 125.277 105.029 125.076 105.118 124.837L106.525 125.091C106.412 125.505 106.21 125.868 105.919 126.18C105.63 126.488 105.267 126.728 104.83 126.901C104.396 127.07 103.9 127.154 103.343 127.154ZM108.769 127V119.364H110.206V120.577H110.285C110.424 120.166 110.67 119.843 111.021 119.607C111.376 119.369 111.777 119.249 112.224 119.249C112.317 119.249 112.426 119.253 112.552 119.259C112.681 119.266 112.783 119.274 112.855 119.284V120.706C112.796 120.689 112.69 120.671 112.537 120.651C112.385 120.628 112.232 120.616 112.08 120.616C111.729 120.616 111.415 120.691 111.14 120.84C110.868 120.986 110.653 121.19 110.494 121.452C110.335 121.71 110.255 122.005 110.255 122.337V127H108.769Z" fill="#1C1B1E"/>
<defs>
<filter id="filter0_d_824_1622" x="0" y="0" width="224" height="100" filterUnits="userSpaceOnUse" color-interpolation-filters="sRGB">
<feFlood flood-opacity="0" result="BackgroundImageFix"/>
<feColorMatrix in="SourceAlpha" type="matrix" values="0 0 0 0 0 0 0 0 0 0 0 0 0 0 0 0 0 0 127 0" result="hardAlpha"/>
<feOffset dy="1"/>
<feGaussianBlur stdDeviation="2"/>
<feComposite in2="hardAlpha" operator="out"/>
<feColorMatrix type="matrix" values="0 0 0 0 0 0 0 0 0 0 0 0 0 0 0 0 0 0 0.1 0"/>
<feBlend mode="normal" in2="BackgroundImageFix" result="effect1_dropShadow_824_1622"/>
<feBlend mode="normal" in="SourceGraphic" in2="effect1_dropShadow_824_1622" result="shape"/>
</filter>
</defs>
</svg>
