<svg width="224" height="133" viewBox="0 0 224 133" fill="none" xmlns="http://www.w3.org/2000/svg">
<g filter="url(#filter0_d_824_1662)">
<rect x="4" y="3" width="216" height="92" rx="8" fill="#F4EFF4"/>
</g>
<path d="M85.1778 54L86.8483 43.8182H88.0415L86.371 54H85.1778ZM80.5692 51.2756L80.7631 50.0824H88.479L88.2851 51.2756H80.5692ZM81.5983 54L83.2687 43.8182H84.4619L82.7915 54H81.5983ZM81.1608 47.7358L81.3547 46.5426H89.0706L88.8767 47.7358H81.1608ZM90.893 54V43.8182H97.2069V45.1406H92.4292V48.2429H96.7545V49.5604H92.4292V54H90.893ZM99.2432 52.0114V50.7685L103.643 43.8182H104.622V45.6477H104.001L100.854 50.6293V50.7088H106.884V52.0114H99.2432ZM104.071 54V51.6335L104.081 51.0668V43.8182H105.537V54H104.071ZM109.256 54V43.8182H115.64V45.1406H110.793V48.2429H115.307V49.5604H110.793V52.6776H115.699V54H109.256ZM118.192 54V43.8182H124.506V45.1406H119.728V48.2429H124.053V49.5604H119.728V54H118.192ZM126.895 54V43.8182H133.209V45.1406H128.431V48.2429H132.756V49.5604H128.431V54H126.895ZM135.245 52.0114V50.7685L139.645 43.8182H140.624V45.6477H140.003L136.856 50.6293V50.7088H142.886V52.0114H135.245ZM140.073 54V51.6335L140.082 51.0668V43.8182H141.539V54H140.073Z" fill="#1C1B1E"/>
<path d="M13.9631 121.909C13.9631 122.996 13.7642 123.931 13.3665 124.713C12.9688 125.492 12.4235 126.092 11.7308 126.513C11.0414 126.93 10.2576 127.139 9.37926 127.139C8.49763 127.139 7.71046 126.93 7.01776 126.513C6.32836 126.092 5.7848 125.49 5.38707 124.708C4.98935 123.926 4.79048 122.993 4.79048 121.909C4.79048 120.822 4.98935 119.889 5.38707 119.11C5.7848 118.328 6.32836 117.728 7.01776 117.31C7.71046 116.889 8.49763 116.679 9.37926 116.679C10.2576 116.679 11.0414 116.889 11.7308 117.31C12.4235 117.728 12.9688 118.328 13.3665 119.11C13.7642 119.889 13.9631 120.822 13.9631 121.909ZM12.4418 121.909C12.4418 121.08 12.3075 120.383 12.0391 119.816C11.7739 119.246 11.4093 118.815 10.9453 118.523C10.4846 118.228 9.96259 118.081 9.37926 118.081C8.79261 118.081 8.26894 118.228 7.80824 118.523C7.34754 118.815 6.98295 119.246 6.71449 119.816C6.44934 120.383 6.31676 121.08 6.31676 121.909C6.31676 122.738 6.44934 123.437 6.71449 124.007C6.98295 124.574 7.34754 125.005 7.80824 125.3C8.26894 125.591 8.79261 125.737 9.37926 125.737C9.96259 125.737 10.4846 125.591 10.9453 125.3C11.4093 125.005 11.7739 124.574 12.0391 124.007C12.3075 123.437 12.4418 122.738 12.4418 121.909ZM17.7456 122.466V127H16.2591V119.364H17.6859V120.607H17.7804C17.956 120.202 18.2311 119.877 18.6056 119.632C18.9835 119.387 19.4591 119.264 20.0325 119.264C20.5529 119.264 21.0086 119.374 21.3997 119.592C21.7908 119.808 22.094 120.129 22.3095 120.557C22.5249 120.984 22.6326 121.513 22.6326 122.143V127H21.1461V122.322C21.1461 121.768 21.002 121.336 20.7136 121.024C20.4252 120.709 20.0292 120.552 19.5254 120.552C19.1807 120.552 18.8741 120.626 18.6056 120.776C18.3405 120.925 18.13 121.143 17.9743 121.432C17.8218 121.717 17.7456 122.062 17.7456 122.466ZM30.9869 116.818V127H29.4506V116.818H30.9869ZM35.0913 122.466V127H33.6048V119.364H35.0316V120.607H35.1261C35.3017 120.202 35.5768 119.877 35.9513 119.632C36.3292 119.387 36.8048 119.264 37.3782 119.264C37.8986 119.264 38.3543 119.374 38.7454 119.592C39.1365 119.808 39.4397 120.129 39.6552 120.557C39.8706 120.984 39.9783 121.513 39.9783 122.143V127H38.4918V122.322C38.4918 121.768 38.3477 121.336 38.0593 121.024C37.771 120.709 37.3749 120.552 36.8711 120.552C36.5264 120.552 36.2198 120.626 35.9513 120.776C35.6862 120.925 35.4757 121.143 35.32 121.432C35.1675 121.717 35.0913 122.062 35.0913 122.466ZM48.7312 119.364L45.962 127H44.3711L41.5969 119.364H43.1928L45.1268 125.24H45.2063L47.1353 119.364H48.7312ZM53.6596 127.154C52.9073 127.154 52.2593 126.993 51.7157 126.672C51.1755 126.347 50.7579 125.891 50.4629 125.305C50.1712 124.715 50.0254 124.024 50.0254 123.232C50.0254 122.449 50.1712 121.76 50.4629 121.163C50.7579 120.567 51.1689 120.101 51.6958 119.766C52.2261 119.432 52.8459 119.264 53.5552 119.264C53.9861 119.264 54.4037 119.335 54.8081 119.478C55.2124 119.621 55.5753 119.844 55.8968 120.149C56.2183 120.454 56.4719 120.85 56.6575 121.337C56.8431 121.821 56.9359 122.41 56.9359 123.102V123.629H50.8656V122.516H55.4792C55.4792 122.125 55.3997 121.778 55.2406 121.477C55.0815 121.172 54.8578 120.931 54.5694 120.756C54.2844 120.58 53.9496 120.492 53.5652 120.492C53.1475 120.492 52.783 120.595 52.4714 120.8C52.1632 121.003 51.9245 121.268 51.7555 121.596C51.5898 121.921 51.5069 122.274 51.5069 122.655V123.525C51.5069 124.035 51.5964 124.469 51.7754 124.827C51.9577 125.185 52.2112 125.459 52.536 125.648C52.8609 125.833 53.2404 125.926 53.6745 125.926C53.9563 125.926 54.2131 125.886 54.4451 125.807C54.6771 125.724 54.8777 125.601 55.0467 125.439C55.2157 125.277 55.345 125.076 55.4345 124.837L56.8414 125.091C56.7288 125.505 56.5266 125.868 56.2349 126.18C55.9466 126.488 55.5836 126.728 55.1461 126.901C54.7119 127.07 54.2164 127.154 53.6596 127.154ZM59.0852 127V119.364H60.522V120.577H60.6016C60.7408 120.166 60.986 119.843 61.3374 119.607C61.692 119.369 62.093 119.249 62.5405 119.249C62.6333 119.249 62.7427 119.253 62.8686 119.259C62.9979 119.266 63.099 119.274 63.1719 119.284V120.706C63.1122 120.689 63.0062 120.671 62.8537 120.651C62.7012 120.628 62.5488 120.616 62.3963 120.616C62.045 120.616 61.7318 120.691 61.4567 120.84C61.1849 120.986 60.9695 121.19 60.8104 121.452C60.6513 121.71 60.5717 122.005 60.5717 122.337V127H59.0852ZM70.6806 121.228L69.3333 121.467C69.2769 121.294 69.1874 121.13 69.0648 120.974C68.9455 120.819 68.7831 120.691 68.5776 120.592C68.3721 120.492 68.1152 120.442 67.807 120.442C67.3861 120.442 67.0347 120.537 66.753 120.726C66.4713 120.911 66.3304 121.152 66.3304 121.447C66.3304 121.702 66.4249 121.907 66.6138 122.063C66.8027 122.219 67.1077 122.347 67.5286 122.446L68.7417 122.724C69.4443 122.887 69.968 123.137 70.3127 123.475C70.6574 123.813 70.8297 124.252 70.8297 124.793C70.8297 125.25 70.6971 125.658 70.432 126.016C70.1702 126.37 69.8039 126.649 69.3333 126.851C68.8659 127.053 68.324 127.154 67.7076 127.154C66.8525 127.154 66.1548 126.972 65.6145 126.607C65.0743 126.239 64.7428 125.717 64.6202 125.041L66.057 124.822C66.1465 125.197 66.3304 125.48 66.6088 125.673C66.8873 125.862 67.2502 125.956 67.6976 125.956C68.1848 125.956 68.5743 125.855 68.8659 125.653C69.1576 125.447 69.3034 125.197 69.3034 124.902C69.3034 124.663 69.214 124.463 69.035 124.3C68.8593 124.138 68.5892 124.015 68.2246 123.933L66.932 123.649C66.2194 123.487 65.6924 123.228 65.351 122.874C65.013 122.519 64.8439 122.07 64.8439 121.526C64.8439 121.076 64.9699 120.681 65.2218 120.343C65.4737 120.005 65.8217 119.741 66.2658 119.553C66.7099 119.36 67.2187 119.264 67.7921 119.264C68.6174 119.264 69.267 119.443 69.7409 119.801C70.2149 120.156 70.5281 120.631 70.6806 121.228ZM76.2553 127.154C75.503 127.154 74.855 126.993 74.3114 126.672C73.7712 126.347 73.3536 125.891 73.0586 125.305C72.7669 124.715 72.6211 124.024 72.6211 123.232C72.6211 122.449 72.7669 121.76 73.0586 121.163C73.3536 120.567 73.7646 120.101 74.2915 119.766C74.8219 119.432 75.4416 119.264 76.1509 119.264C76.5818 119.264 76.9994 119.335 77.4038 119.478C77.8081 119.621 78.171 119.844 78.4925 120.149C78.814 120.454 79.0676 120.85 79.2532 121.337C79.4388 121.821 79.5316 122.41 79.5316 123.102V123.629H73.4613V122.516H78.0749C78.0749 122.125 77.9954 121.778 77.8363 121.477C77.6772 121.172 77.4535 120.931 77.1651 120.756C76.8801 120.58 76.5453 120.492 76.1609 120.492C75.7433 120.492 75.3787 120.595 75.0671 120.8C74.7589 121.003 74.5202 121.268 74.3512 121.596C74.1855 121.921 74.1026 122.274 74.1026 122.655V123.525C74.1026 124.035 74.1921 124.469 74.3711 124.827C74.5534 125.185 74.8069 125.459 75.1317 125.648C75.4566 125.833 75.8361 125.926 76.2702 125.926C76.552 125.926 76.8088 125.886 77.0408 125.807C77.2728 125.724 77.4734 125.601 77.6424 125.439C77.8114 125.277 77.9407 125.076 78.0302 124.837L79.4371 125.091C79.3245 125.505 79.1223 125.868 78.8306 126.18C78.5423 126.488 78.1793 126.728 77.7418 126.901C77.3076 127.07 76.8121 127.154 76.2553 127.154ZM91.5586 119.493C91.5056 119.022 91.2868 118.658 90.9023 118.399C90.5179 118.137 90.034 118.006 89.4506 118.006C89.033 118.006 88.6718 118.073 88.3668 118.205C88.0619 118.335 87.8249 118.513 87.6559 118.742C87.4902 118.968 87.4073 119.224 87.4073 119.513C87.4073 119.755 87.4637 119.964 87.5763 120.139C87.6924 120.315 87.8432 120.462 88.0288 120.582C88.2177 120.698 88.4199 120.795 88.6353 120.875C88.8507 120.951 89.0579 121.014 89.2567 121.064L90.2511 121.322C90.5759 121.402 90.909 121.51 91.2504 121.646C91.5917 121.781 91.9083 121.96 92.1999 122.183C92.4916 122.405 92.7269 122.68 92.9059 123.008C93.0882 123.336 93.1793 123.729 93.1793 124.186C93.1793 124.763 93.0302 125.275 92.7319 125.722C92.4369 126.17 92.0077 126.523 91.4442 126.781C90.8841 127.04 90.2063 127.169 89.4109 127.169C88.6486 127.169 87.989 127.048 87.4322 126.806C86.8754 126.564 86.4395 126.221 86.1246 125.777C85.8098 125.33 85.6358 124.799 85.6026 124.186H87.1438C87.1737 124.554 87.293 124.861 87.5018 125.106C87.7139 125.348 87.984 125.528 88.3121 125.648C88.6436 125.764 89.0065 125.822 89.4009 125.822C89.8351 125.822 90.2212 125.754 90.5593 125.618C90.9007 125.479 91.1692 125.286 91.3647 125.041C91.5603 124.793 91.658 124.503 91.658 124.171C91.658 123.87 91.5719 123.623 91.3995 123.43C91.2305 123.238 91.0001 123.079 90.7085 122.953C90.4201 122.827 90.0936 122.716 89.729 122.62L88.5259 122.292C87.7106 122.07 87.0643 121.743 86.587 121.312C86.113 120.882 85.8761 120.312 85.8761 119.602C85.8761 119.016 86.0352 118.504 86.3533 118.066C86.6715 117.629 87.1024 117.289 87.646 117.047C88.1895 116.802 88.8027 116.679 89.4854 116.679C90.1748 116.679 90.783 116.8 91.31 117.042C91.8403 117.284 92.2579 117.617 92.5629 118.041C92.8678 118.462 93.0269 118.946 93.0401 119.493H91.5586ZM100.233 123.833V119.364H101.725V127H100.263V125.678H100.183C100.008 126.085 99.726 126.425 99.3382 126.697C98.9538 126.965 98.4748 127.099 97.9015 127.099C97.4109 127.099 96.9767 126.992 96.5989 126.776C96.2244 126.558 95.9294 126.234 95.714 125.807C95.5018 125.379 95.3958 124.851 95.3958 124.221V119.364H96.8823V124.042C96.8823 124.562 97.0265 124.977 97.3148 125.285C97.6032 125.593 97.9777 125.747 98.4384 125.747C98.7168 125.747 98.9935 125.678 99.2686 125.538C99.5471 125.399 99.7774 125.189 99.9597 124.907C100.145 124.625 100.236 124.267 100.233 123.833ZM104.222 127V119.364H105.659V120.577H105.738C105.877 120.166 106.123 119.843 106.474 119.607C106.829 119.369 107.23 119.249 107.677 119.249C107.77 119.249 107.879 119.253 108.005 119.259C108.135 119.266 108.236 119.274 108.309 119.284V120.706C108.249 120.689 108.143 120.671 107.99 120.651C107.838 120.628 107.685 120.616 107.533 120.616C107.182 120.616 106.868 120.691 106.593 120.84C106.322 120.986 106.106 121.19 105.947 121.452C105.788 121.71 105.708 122.005 105.708 122.337V127H104.222ZM114.18 119.364V120.557H109.865V119.364H114.18ZM111.048 127V118.479C111.048 118.001 111.153 117.605 111.362 117.29C111.57 116.972 111.847 116.735 112.192 116.58C112.536 116.42 112.911 116.341 113.315 116.341C113.614 116.341 113.869 116.366 114.081 116.415C114.293 116.462 114.451 116.505 114.553 116.545L114.205 117.748C114.136 117.728 114.046 117.705 113.937 117.678C113.827 117.648 113.695 117.634 113.539 117.634C113.178 117.634 112.919 117.723 112.763 117.902C112.611 118.081 112.535 118.339 112.535 118.678V127H111.048ZM118.204 127.169C117.72 127.169 117.283 127.08 116.892 126.901C116.5 126.718 116.191 126.455 115.962 126.11C115.736 125.765 115.624 125.343 115.624 124.842C115.624 124.411 115.707 124.057 115.872 123.778C116.038 123.5 116.262 123.28 116.544 123.117C116.825 122.955 117.14 122.832 117.488 122.749C117.836 122.666 118.191 122.603 118.552 122.56C119.009 122.507 119.381 122.464 119.666 122.431C119.951 122.395 120.158 122.337 120.287 122.257C120.416 122.178 120.481 122.048 120.481 121.869V121.835C120.481 121.4 120.358 121.064 120.113 120.825C119.871 120.587 119.51 120.467 119.029 120.467C118.529 120.467 118.134 120.578 117.846 120.8C117.561 121.019 117.364 121.263 117.254 121.531L115.857 121.213C116.023 120.749 116.265 120.375 116.583 120.089C116.905 119.801 117.274 119.592 117.692 119.463C118.11 119.33 118.549 119.264 119.009 119.264C119.314 119.264 119.637 119.301 119.979 119.374C120.324 119.443 120.645 119.572 120.943 119.761C121.245 119.95 121.492 120.22 121.684 120.572C121.876 120.92 121.972 121.372 121.972 121.929V127H120.521V125.956H120.461C120.365 126.148 120.221 126.337 120.029 126.523C119.836 126.708 119.589 126.862 119.288 126.985C118.986 127.108 118.625 127.169 118.204 127.169ZM118.527 125.976C118.938 125.976 119.289 125.895 119.581 125.732C119.876 125.57 120.1 125.358 120.252 125.096C120.408 124.831 120.486 124.547 120.486 124.246V123.261C120.433 123.314 120.33 123.364 120.178 123.411C120.029 123.454 119.858 123.492 119.666 123.525C119.473 123.555 119.286 123.583 119.104 123.609C118.922 123.633 118.769 123.652 118.646 123.669C118.358 123.705 118.095 123.767 117.856 123.853C117.621 123.939 117.432 124.063 117.289 124.226C117.15 124.385 117.08 124.597 117.08 124.862C117.08 125.23 117.216 125.509 117.488 125.697C117.76 125.883 118.106 125.976 118.527 125.976ZM127.669 127.154C126.93 127.154 126.294 126.987 125.76 126.652C125.23 126.314 124.822 125.848 124.537 125.255C124.252 124.662 124.109 123.982 124.109 123.217C124.109 122.441 124.255 121.757 124.547 121.163C124.839 120.567 125.25 120.101 125.78 119.766C126.31 119.432 126.935 119.264 127.654 119.264C128.234 119.264 128.751 119.372 129.205 119.587C129.659 119.799 130.026 120.098 130.304 120.482C130.586 120.867 130.753 121.316 130.806 121.83H129.359C129.28 121.472 129.098 121.163 128.812 120.905C128.531 120.646 128.153 120.517 127.679 120.517C127.265 120.517 126.902 120.626 126.59 120.845C126.282 121.061 126.042 121.369 125.869 121.77C125.697 122.168 125.611 122.638 125.611 123.182C125.611 123.739 125.695 124.219 125.864 124.624C126.033 125.028 126.272 125.341 126.58 125.563C126.892 125.785 127.258 125.896 127.679 125.896C127.961 125.896 128.216 125.845 128.445 125.742C128.677 125.636 128.871 125.485 129.026 125.29C129.185 125.094 129.296 124.859 129.359 124.584H130.806C130.753 125.078 130.592 125.518 130.324 125.906C130.055 126.294 129.696 126.599 129.245 126.821C128.798 127.043 128.272 127.154 127.669 127.154ZM136.187 127.154C135.435 127.154 134.787 126.993 134.243 126.672C133.703 126.347 133.285 125.891 132.99 125.305C132.699 124.715 132.553 124.024 132.553 123.232C132.553 122.449 132.699 121.76 132.99 121.163C133.285 120.567 133.696 120.101 134.223 119.766C134.753 119.432 135.373 119.264 136.083 119.264C136.513 119.264 136.931 119.335 137.335 119.478C137.74 119.621 138.103 119.844 138.424 120.149C138.746 120.454 138.999 120.85 139.185 121.337C139.37 121.821 139.463 122.41 139.463 123.102V123.629H133.393V122.516H138.007C138.007 122.125 137.927 121.778 137.768 121.477C137.609 121.172 137.385 120.931 137.097 120.756C136.812 120.58 136.477 120.492 136.093 120.492C135.675 120.492 135.31 120.595 134.999 120.8C134.691 121.003 134.452 121.268 134.283 121.596C134.117 121.921 134.034 122.274 134.034 122.655V123.525C134.034 124.035 134.124 124.469 134.303 124.827C134.485 125.185 134.739 125.459 135.063 125.648C135.388 125.833 135.768 125.926 136.202 125.926C136.484 125.926 136.74 125.886 136.972 125.807C137.204 125.724 137.405 125.601 137.574 125.439C137.743 125.277 137.872 125.076 137.962 124.837L139.369 125.091C139.256 125.505 139.054 125.868 138.762 126.18C138.474 126.488 138.111 126.728 137.673 126.901C137.239 127.07 136.744 127.154 136.187 127.154Z" fill="#1C1B1E"/>
<defs>
<filter id="filter0_d_824_1662" x="0" y="0" width="224" height="100" filterUnits="userSpaceOnUse" color-interpolation-filters="sRGB">
<feFlood flood-opacity="0" result="BackgroundImageFix"/>
<feColorMatrix in="SourceAlpha" type="matrix" values="0 0 0 0 0 0 0 0 0 0 0 0 0 0 0 0 0 0 127 0" result="hardAlpha"/>
<feOffset dy="1"/>
<feGaussianBlur stdDeviation="2"/>
<feComposite in2="hardAlpha" operator="out"/>
<feColorMatrix type="matrix" values="0 0 0 0 0 0 0 0 0 0 0 0 0 0 0 0 0 0 0.1 0"/>
<feBlend mode="normal" in2="BackgroundImageFix" result="effect1_dropShadow_824_1662"/>
<feBlend mode="normal" in="SourceGraphic" in2="effect1_dropShadow_824_1662" result="shape"/>
</filter>
</defs>
</svg>
