<svg width="224" height="133" viewBox="0 0 224 133" fill="none" xmlns="http://www.w3.org/2000/svg">
<g filter="url(#filter0_d_824_1620)">
<rect x="4" y="3" width="216" height="92" rx="8" fill="#BA1B1B"/>
</g>
<path d="M85.8409 54L87.5114 43.8182H88.7045L87.0341 54H85.8409ZM81.2322 51.2756L81.4261 50.0824H89.142L88.9482 51.2756H81.2322ZM82.2614 54L83.9318 43.8182H85.125L83.4545 54H82.2614ZM81.8239 47.7358L82.0178 46.5426H89.7337L89.5398 47.7358H81.8239ZM91.5561 54V43.8182H95.2848C96.0073 43.8182 96.6056 43.9375 97.0795 44.1761C97.5535 44.4115 97.9081 44.7313 98.1435 45.1357C98.3788 45.5367 98.4964 45.9891 98.4964 46.4929C98.4964 46.9171 98.4186 47.2751 98.2628 47.5668C98.107 47.8551 97.8982 48.0871 97.6364 48.2628C97.3778 48.4351 97.0928 48.5611 96.7812 48.6406V48.7401C97.1193 48.7566 97.4491 48.866 97.7706 49.0682C98.0954 49.267 98.3639 49.5504 98.576 49.9183C98.7881 50.2862 98.8942 50.7337 98.8942 51.2607C98.8942 51.781 98.7715 52.2483 98.5263 52.6626C98.2843 53.0736 97.9098 53.4001 97.4027 53.642C96.8956 53.8807 96.2476 54 95.4588 54H91.5561ZM93.0923 52.6825H95.3097C96.0455 52.6825 96.5724 52.54 96.8906 52.255C97.2088 51.9699 97.3679 51.6136 97.3679 51.1861C97.3679 50.8646 97.2867 50.5696 97.1243 50.3011C96.9619 50.0327 96.7299 49.8189 96.4283 49.6598C96.13 49.5007 95.7753 49.4212 95.3643 49.4212H93.0923V52.6825ZM93.0923 48.223H95.1506C95.4953 48.223 95.8052 48.1567 96.0803 48.0241C96.3587 47.8916 96.5791 47.706 96.7415 47.4673C96.9072 47.2254 96.9901 46.9403 96.9901 46.6122C96.9901 46.1913 96.8426 45.8383 96.5476 45.5533C96.2526 45.2682 95.8002 45.1257 95.1903 45.1257H93.0923V48.223ZM102.076 54H100.446L104.11 43.8182H105.885L109.549 54H107.918L105.039 45.6676H104.96L102.076 54ZM102.35 50.0128H107.64V51.3054H102.35V50.0128ZM114.764 43.8182V54H113.223V45.3594H113.163L110.727 46.9503V45.4787L113.268 43.8182H114.764ZM118.158 54V43.8182H121.886C122.609 43.8182 123.207 43.9375 123.681 44.1761C124.155 44.4115 124.51 44.7313 124.745 45.1357C124.98 45.5367 125.098 45.9891 125.098 46.4929C125.098 46.9171 125.02 47.2751 124.864 47.5668C124.709 47.8551 124.5 48.0871 124.238 48.2628C123.979 48.4351 123.694 48.5611 123.383 48.6406V48.7401C123.721 48.7566 124.051 48.866 124.372 49.0682C124.697 49.267 124.965 49.5504 125.178 49.9183C125.39 50.2862 125.496 50.7337 125.496 51.2607C125.496 51.781 125.373 52.2483 125.128 52.6626C124.886 53.0736 124.511 53.4001 124.004 53.642C123.497 53.8807 122.849 54 122.06 54H118.158ZM119.694 52.6825H121.911C122.647 52.6825 123.174 52.54 123.492 52.255C123.81 51.9699 123.969 51.6136 123.969 51.1861C123.969 50.8646 123.888 50.5696 123.726 50.3011C123.563 50.0327 123.331 49.8189 123.03 49.6598C122.732 49.5007 122.377 49.4212 121.966 49.4212H119.694V52.6825ZM119.694 48.223H121.752C122.097 48.223 122.407 48.1567 122.682 48.0241C122.96 47.8916 123.181 47.706 123.343 47.4673C123.509 47.2254 123.592 46.9403 123.592 46.6122C123.592 46.1913 123.444 45.8383 123.149 45.5533C122.854 45.2682 122.402 45.1257 121.792 45.1257H119.694V48.223ZM131.542 43.8182V54H130V45.3594H129.941L127.505 46.9503V45.4787L130.045 43.8182H131.542ZM134.935 54V43.8182H138.664C139.386 43.8182 139.984 43.9375 140.458 44.1761C140.932 44.4115 141.287 44.7313 141.522 45.1357C141.758 45.5367 141.875 45.9891 141.875 46.4929C141.875 46.9171 141.797 47.2751 141.642 47.5668C141.486 47.8551 141.277 48.0871 141.015 48.2628C140.757 48.4351 140.472 48.5611 140.16 48.6406V48.7401C140.498 48.7566 140.828 48.866 141.15 49.0682C141.474 49.267 141.743 49.5504 141.955 49.9183C142.167 50.2862 142.273 50.7337 142.273 51.2607C142.273 51.781 142.15 52.2483 141.905 52.6626C141.663 53.0736 141.289 53.4001 140.782 53.642C140.275 53.8807 139.627 54 138.838 54H134.935ZM136.471 52.6825H138.689C139.424 52.6825 139.951 52.54 140.27 52.255C140.588 51.9699 140.747 51.6136 140.747 51.1861C140.747 50.8646 140.666 50.5696 140.503 50.3011C140.341 50.0327 140.109 49.8189 139.807 49.6598C139.509 49.5007 139.154 49.4212 138.743 49.4212H136.471V52.6825ZM136.471 48.223H138.529C138.874 48.223 139.184 48.1567 139.459 48.0241C139.738 47.8916 139.958 47.706 140.12 47.4673C140.286 47.2254 140.369 46.9403 140.369 46.6122C140.369 46.1913 140.221 45.8383 139.926 45.5533C139.632 45.2682 139.179 45.1257 138.569 45.1257H136.471V48.223Z" fill="#FFFBFF"/>
<path d="M5.11861 127V116.818H11.5021V118.141H6.65483V121.243H11.169V122.56H6.65483V125.678H11.5618V127H5.11861ZM13.9348 127V119.364H15.3716V120.577H15.4512C15.5904 120.166 15.8356 119.843 16.187 119.607C16.5416 119.369 16.9426 119.249 17.3901 119.249C17.4829 119.249 17.5923 119.253 17.7182 119.259C17.8475 119.266 17.9486 119.274 18.0215 119.284V120.706C17.9618 120.689 17.8558 120.671 17.7033 120.651C17.5508 120.628 17.3984 120.616 17.2459 120.616C16.8946 120.616 16.5814 120.691 16.3063 120.84C16.0345 120.986 15.8191 121.19 15.66 121.452C15.5009 121.71 15.4213 122.005 15.4213 122.337V127H13.9348ZM19.8079 127V119.364H21.2447V120.577H21.3242C21.4634 120.166 21.7087 119.843 22.06 119.607C22.4147 119.369 22.8157 119.249 23.2631 119.249C23.3559 119.249 23.4653 119.253 23.5913 119.259C23.7205 119.266 23.8216 119.274 23.8945 119.284V120.706C23.8349 120.689 23.7288 120.671 23.5763 120.651C23.4239 120.628 23.2714 120.616 23.119 120.616C22.7676 120.616 22.4544 120.691 22.1793 120.84C21.9076 120.986 21.6921 121.19 21.533 121.452C21.3739 121.71 21.2944 122.005 21.2944 122.337V127H19.8079ZM28.6241 127.154C27.9082 127.154 27.2834 126.99 26.7498 126.662C26.2162 126.334 25.8019 125.875 25.5069 125.285C25.2119 124.695 25.0645 124.005 25.0645 123.217C25.0645 122.424 25.2119 121.732 25.5069 121.138C25.8019 120.545 26.2162 120.085 26.7498 119.756C27.2834 119.428 27.9082 119.264 28.6241 119.264C29.34 119.264 29.9648 119.428 30.4984 119.756C31.032 120.085 31.4463 120.545 31.7413 121.138C32.0363 121.732 32.1838 122.424 32.1838 123.217C32.1838 124.005 32.0363 124.695 31.7413 125.285C31.4463 125.875 31.032 126.334 30.4984 126.662C29.9648 126.99 29.34 127.154 28.6241 127.154ZM28.6291 125.906C29.0931 125.906 29.4776 125.784 29.7825 125.538C30.0874 125.293 30.3128 124.967 30.4586 124.559C30.6078 124.151 30.6824 123.702 30.6824 123.212C30.6824 122.724 30.6078 122.277 30.4586 121.869C30.3128 121.458 30.0874 121.129 29.7825 120.88C29.4776 120.631 29.0931 120.507 28.6291 120.507C28.1618 120.507 27.774 120.631 27.4657 120.88C27.1608 121.129 26.9338 121.458 26.7846 121.869C26.6388 122.277 26.5659 122.724 26.5659 123.212C26.5659 123.702 26.6388 124.151 26.7846 124.559C26.9338 124.967 27.1608 125.293 27.4657 125.538C27.774 125.784 28.1618 125.906 28.6291 125.906ZM34.343 127V119.364H35.7798V120.577H35.8594C35.9986 120.166 36.2438 119.843 36.5952 119.607C36.9498 119.369 37.3509 119.249 37.7983 119.249C37.8911 119.249 38.0005 119.253 38.1264 119.259C38.2557 119.266 38.3568 119.274 38.4297 119.284V120.706C38.37 120.689 38.264 120.671 38.1115 120.651C37.959 120.628 37.8066 120.616 37.6541 120.616C37.3028 120.616 36.9896 120.691 36.7145 120.84C36.4427 120.986 36.2273 121.19 36.0682 121.452C35.9091 121.71 35.8295 122.005 35.8295 122.337V127H34.343Z" fill="#1C1B1E"/>
<defs>
<filter id="filter0_d_824_1620" x="0" y="0" width="224" height="100" filterUnits="userSpaceOnUse" color-interpolation-filters="sRGB">
<feFlood flood-opacity="0" result="BackgroundImageFix"/>
<feColorMatrix in="SourceAlpha" type="matrix" values="0 0 0 0 0 0 0 0 0 0 0 0 0 0 0 0 0 0 127 0" result="hardAlpha"/>
<feOffset dy="1"/>
<feGaussianBlur stdDeviation="2"/>
<feComposite in2="hardAlpha" operator="out"/>
<feColorMatrix type="matrix" values="0 0 0 0 0 0 0 0 0 0 0 0 0 0 0 0 0 0 0.1 0"/>
<feBlend mode="normal" in2="BackgroundImageFix" result="effect1_dropShadow_824_1620"/>
<feBlend mode="normal" in="SourceGraphic" in2="effect1_dropShadow_824_1620" result="shape"/>
</filter>
</defs>
</svg>
