<svg width="224" height="133" viewBox="0 0 224 133" fill="none" xmlns="http://www.w3.org/2000/svg">
<g filter="url(#filter0_d_824_1643)">
<rect x="4" y="3" width="216" height="92" rx="8" fill="#1C1B1E"/>
</g>
<path d="M86.9893 54L88.6598 43.8182H89.853L88.1825 54H86.9893ZM82.3807 51.2756L82.5746 50.0824H90.2905L90.0966 51.2756H82.3807ZM83.4098 54L85.0803 43.8182H86.2734L84.603 54H83.4098ZM82.9723 47.7358L83.1662 46.5426H90.8821L90.6882 47.7358H82.9723ZM96.4283 43.8182V54H94.8871V45.3594H94.8274L92.3913 46.9503V45.4787L94.9318 43.8182H96.4283ZM108.278 47.1293H106.727C106.668 46.7978 106.557 46.5062 106.394 46.2543C106.232 46.0024 106.033 45.7886 105.798 45.6129C105.562 45.4373 105.299 45.3047 105.007 45.2152C104.719 45.1257 104.412 45.081 104.087 45.081C103.501 45.081 102.975 45.2285 102.511 45.5234C102.051 45.8184 101.686 46.2509 101.418 46.821C101.152 47.3911 101.02 48.0871 101.02 48.9091C101.02 49.7377 101.152 50.437 101.418 51.0071C101.686 51.5772 102.052 52.008 102.516 52.2997C102.98 52.5914 103.502 52.7372 104.082 52.7372C104.404 52.7372 104.709 52.6941 104.997 52.608C105.289 52.5185 105.552 52.3875 105.788 52.2152C106.023 52.0429 106.222 51.8324 106.384 51.5838C106.55 51.3319 106.664 51.0436 106.727 50.7188L108.278 50.7237C108.196 51.2242 108.035 51.6849 107.796 52.1058C107.561 52.5234 107.258 52.8847 106.886 53.1896C106.518 53.4912 106.098 53.7249 105.624 53.8906C105.15 54.0563 104.633 54.1392 104.072 54.1392C103.191 54.1392 102.405 53.9304 101.716 53.5128C101.027 53.0919 100.483 52.4903 100.085 51.7081C99.6908 50.9259 99.4936 49.9929 99.4936 48.9091C99.4936 47.822 99.6925 46.889 100.09 46.1101C100.488 45.3279 101.031 44.728 101.721 44.3104C102.41 43.8894 103.194 43.679 104.072 43.679C104.613 43.679 105.116 43.7569 105.584 43.9126C106.054 44.0651 106.477 44.2905 106.852 44.5888C107.226 44.8838 107.536 45.245 107.781 45.6726C108.027 46.0968 108.192 46.5824 108.278 47.1293ZM114.34 43.8182V54H112.799V45.3594H112.74L110.303 46.9503V45.4787L112.844 43.8182H114.34ZM117.734 54V43.8182H121.463C122.185 43.8182 122.783 43.9375 123.257 44.1761C123.731 44.4115 124.086 44.7313 124.321 45.1357C124.557 45.5367 124.674 45.9891 124.674 46.4929C124.674 46.9171 124.596 47.2751 124.441 47.5668C124.285 47.8551 124.076 48.0871 123.814 48.2628C123.556 48.4351 123.271 48.5611 122.959 48.6406V48.7401C123.297 48.7566 123.627 48.866 123.948 49.0682C124.273 49.267 124.542 49.5504 124.754 49.9183C124.966 50.2862 125.072 50.7337 125.072 51.2607C125.072 51.781 124.949 52.2483 124.704 52.6626C124.462 53.0736 124.088 53.4001 123.58 53.642C123.073 53.8807 122.425 54 121.637 54H117.734ZM119.27 52.6825H121.487C122.223 52.6825 122.75 52.54 123.068 52.255C123.387 51.9699 123.546 51.6136 123.546 51.1861C123.546 50.8646 123.464 50.5696 123.302 50.3011C123.14 50.0327 122.908 49.8189 122.606 49.6598C122.308 49.5007 121.953 49.4212 121.542 49.4212H119.27V52.6825ZM119.27 48.223H121.328C121.673 48.223 121.983 48.1567 122.258 48.0241C122.536 47.8916 122.757 47.706 122.919 47.4673C123.085 47.2254 123.168 46.9403 123.168 46.6122C123.168 46.1913 123.02 45.8383 122.725 45.5533C122.43 45.2682 121.978 45.1257 121.368 45.1257H119.27V48.223ZM131.118 43.8182V54H129.577V45.3594H129.517L127.081 46.9503V45.4787L129.621 43.8182H131.118ZM134.511 54V43.8182H140.895V45.1406H136.047V48.2429H140.562V49.5604H136.047V52.6776H140.954V54H134.511Z" fill="#FFFBFF"/>
<path d="M13.9631 121.909C13.9631 122.996 13.7642 123.931 13.3665 124.713C12.9688 125.492 12.4235 126.092 11.7308 126.513C11.0414 126.93 10.2576 127.139 9.37926 127.139C8.49763 127.139 7.71046 126.93 7.01776 126.513C6.32836 126.092 5.7848 125.49 5.38707 124.708C4.98935 123.926 4.79048 122.993 4.79048 121.909C4.79048 120.822 4.98935 119.889 5.38707 119.11C5.7848 118.328 6.32836 117.728 7.01776 117.31C7.71046 116.889 8.49763 116.679 9.37926 116.679C10.2576 116.679 11.0414 116.889 11.7308 117.31C12.4235 117.728 12.9688 118.328 13.3665 119.11C13.7642 119.889 13.9631 120.822 13.9631 121.909ZM12.4418 121.909C12.4418 121.08 12.3075 120.383 12.0391 119.816C11.7739 119.246 11.4093 118.815 10.9453 118.523C10.4846 118.228 9.96259 118.081 9.37926 118.081C8.79261 118.081 8.26894 118.228 7.80824 118.523C7.34754 118.815 6.98295 119.246 6.71449 119.816C6.44934 120.383 6.31676 121.08 6.31676 121.909C6.31676 122.738 6.44934 123.437 6.71449 124.007C6.98295 124.574 7.34754 125.005 7.80824 125.3C8.26894 125.591 8.79261 125.737 9.37926 125.737C9.96259 125.737 10.4846 125.591 10.9453 125.3C11.4093 125.005 11.7739 124.574 12.0391 124.007C12.3075 123.437 12.4418 122.738 12.4418 121.909ZM17.7456 122.466V127H16.2591V119.364H17.6859V120.607H17.7804C17.956 120.202 18.2311 119.877 18.6056 119.632C18.9835 119.387 19.4591 119.264 20.0325 119.264C20.5529 119.264 21.0086 119.374 21.3997 119.592C21.7908 119.808 22.094 120.129 22.3095 120.557C22.5249 120.984 22.6326 121.513 22.6326 122.143V127H21.1461V122.322C21.1461 121.768 21.002 121.336 20.7136 121.024C20.4252 120.709 20.0292 120.552 19.5254 120.552C19.1807 120.552 18.8741 120.626 18.6056 120.776C18.3405 120.925 18.13 121.143 17.9743 121.432C17.8218 121.717 17.7456 122.062 17.7456 122.466ZM35.0039 119.493C34.9509 119.022 34.7321 118.658 34.3477 118.399C33.9632 118.137 33.4793 118.006 32.896 118.006C32.4783 118.006 32.1171 118.073 31.8121 118.205C31.5072 118.335 31.2702 118.513 31.1012 118.742C30.9355 118.968 30.8526 119.224 30.8526 119.513C30.8526 119.755 30.909 119.964 31.0217 120.139C31.1377 120.315 31.2885 120.462 31.4741 120.582C31.663 120.698 31.8652 120.795 32.0806 120.875C32.296 120.951 32.5032 121.014 32.7021 121.064L33.6964 121.322C34.0212 121.402 34.3543 121.51 34.6957 121.646C35.0371 121.781 35.3536 121.96 35.6452 122.183C35.9369 122.405 36.1722 122.68 36.3512 123.008C36.5335 123.336 36.6246 123.729 36.6246 124.186C36.6246 124.763 36.4755 125.275 36.1772 125.722C35.8822 126.17 35.453 126.523 34.8896 126.781C34.3294 127.04 33.6516 127.169 32.8562 127.169C32.0939 127.169 31.4343 127.048 30.8775 126.806C30.3207 126.564 29.8848 126.221 29.57 125.777C29.2551 125.33 29.0811 124.799 29.0479 124.186H30.5891C30.619 124.554 30.7383 124.861 30.9471 125.106C31.1592 125.348 31.4293 125.528 31.7575 125.648C32.0889 125.764 32.4518 125.822 32.8462 125.822C33.2804 125.822 33.6665 125.754 34.0046 125.618C34.346 125.479 34.6145 125.286 34.81 125.041C35.0056 124.793 35.1033 124.503 35.1033 124.171C35.1033 123.87 35.0172 123.623 34.8448 123.43C34.6758 123.238 34.4454 123.079 34.1538 122.953C33.8654 122.827 33.5389 122.716 33.1744 122.62L31.9712 122.292C31.1559 122.07 30.5096 121.743 30.0323 121.312C29.5584 120.882 29.3214 120.312 29.3214 119.602C29.3214 119.016 29.4805 118.504 29.7987 118.066C30.1168 117.629 30.5477 117.289 31.0913 117.047C31.6348 116.802 32.248 116.679 32.9308 116.679C33.6201 116.679 34.2283 116.8 34.7553 117.042C35.2856 117.284 35.7032 117.617 36.0082 118.041C36.3131 118.462 36.4722 118.946 36.4854 119.493H35.0039ZM43.6784 123.833V119.364H45.1699V127H43.7083V125.678H43.6287C43.4531 126.085 43.1713 126.425 42.7836 126.697C42.3991 126.965 41.9202 127.099 41.3468 127.099C40.8562 127.099 40.4221 126.992 40.0442 126.776C39.6697 126.558 39.3747 126.234 39.1593 125.807C38.9471 125.379 38.8411 124.851 38.8411 124.221V119.364H40.3276V124.042C40.3276 124.562 40.4718 124.977 40.7601 125.285C41.0485 125.593 41.423 125.747 41.8837 125.747C42.1621 125.747 42.4389 125.678 42.714 125.538C42.9924 125.399 43.2227 125.189 43.405 124.907C43.5906 124.625 43.6818 124.267 43.6784 123.833ZM47.6673 127V119.364H49.104V120.577H49.1836C49.3228 120.166 49.5681 119.843 49.9194 119.607C50.274 119.369 50.6751 119.249 51.1225 119.249C51.2153 119.249 51.3247 119.253 51.4506 119.259C51.5799 119.266 51.681 119.274 51.7539 119.284V120.706C51.6942 120.689 51.5882 120.671 51.4357 120.651C51.2833 120.628 51.1308 120.616 50.9783 120.616C50.627 120.616 50.3138 120.691 50.0387 120.84C49.7669 120.986 49.5515 121.19 49.3924 121.452C49.2333 121.71 49.1538 122.005 49.1538 122.337V127H47.6673ZM57.6257 119.364V120.557H53.3104V119.364H57.6257ZM54.4936 127V118.479C54.4936 118.001 54.598 117.605 54.8068 117.29C55.0156 116.972 55.2924 116.735 55.6371 116.58C55.9818 116.42 56.3563 116.341 56.7607 116.341C57.0589 116.341 57.3142 116.366 57.5263 116.415C57.7384 116.462 57.8958 116.505 57.9986 116.545L57.6506 117.748C57.581 117.728 57.4915 117.705 57.3821 117.678C57.2727 117.648 57.1402 117.634 56.9844 117.634C56.6231 117.634 56.3646 117.723 56.2088 117.902C56.0563 118.081 55.9801 118.339 55.9801 118.678V127H54.4936ZM61.6493 127.169C61.1654 127.169 60.7279 127.08 60.3368 126.901C59.9457 126.718 59.6358 126.455 59.4071 126.11C59.1818 125.765 59.0691 125.343 59.0691 124.842C59.0691 124.411 59.1519 124.057 59.3176 123.778C59.4834 123.5 59.7071 123.28 59.9888 123.117C60.2705 122.955 60.5854 122.832 60.9334 122.749C61.2814 122.666 61.6361 122.603 61.9973 122.56C62.4547 122.507 62.8259 122.464 63.111 122.431C63.396 122.395 63.6032 122.337 63.7324 122.257C63.8617 122.178 63.9263 122.048 63.9263 121.869V121.835C63.9263 121.4 63.8037 121.064 63.5584 120.825C63.3165 120.587 62.9552 120.467 62.4746 120.467C61.9741 120.467 61.5797 120.578 61.2914 120.8C61.0063 121.019 60.8091 121.263 60.6998 121.531L59.3027 121.213C59.4685 120.749 59.7104 120.375 60.0286 120.089C60.3501 119.801 60.7196 119.592 61.1373 119.463C61.5549 119.33 61.994 119.264 62.4547 119.264C62.7596 119.264 63.0828 119.301 63.4242 119.374C63.7689 119.443 64.0904 119.572 64.3887 119.761C64.6903 119.95 64.9372 120.22 65.1294 120.572C65.3217 120.92 65.4178 121.372 65.4178 121.929V127H63.9661V125.956H63.9064C63.8103 126.148 63.6661 126.337 63.4739 126.523C63.2817 126.708 63.0347 126.862 62.7331 126.985C62.4315 127.108 62.0703 127.169 61.6493 127.169ZM61.9725 125.976C62.3835 125.976 62.7348 125.895 63.0265 125.732C63.3214 125.57 63.5452 125.358 63.6976 125.096C63.8534 124.831 63.9313 124.547 63.9313 124.246V123.261C63.8783 123.314 63.7755 123.364 63.623 123.411C63.4739 123.454 63.3032 123.492 63.111 123.525C62.9187 123.555 62.7315 123.583 62.5492 123.609C62.3669 123.633 62.2144 123.652 62.0918 123.669C61.8034 123.705 61.54 123.767 61.3013 123.853C61.066 123.939 60.8771 124.063 60.7346 124.226C60.5953 124.385 60.5257 124.597 60.5257 124.862C60.5257 125.23 60.6616 125.509 60.9334 125.697C61.2052 125.883 61.5516 125.976 61.9725 125.976ZM71.1143 127.154C70.3752 127.154 69.7389 126.987 69.2053 126.652C68.675 126.314 68.2673 125.848 67.9822 125.255C67.6972 124.662 67.5547 123.982 67.5547 123.217C67.5547 122.441 67.7005 121.757 67.9922 121.163C68.2839 120.567 68.6948 120.101 69.2251 119.766C69.7554 119.432 70.3802 119.264 71.0994 119.264C71.6795 119.264 72.1965 119.372 72.6506 119.587C73.1046 119.799 73.4709 120.098 73.7493 120.482C74.031 120.867 74.1984 121.316 74.2514 121.83H72.8047C72.7251 121.472 72.5429 121.163 72.2578 120.905C71.9761 120.646 71.5982 120.517 71.1243 120.517C70.71 120.517 70.3471 120.626 70.0355 120.845C69.7273 121.061 69.487 121.369 69.3146 121.77C69.1423 122.168 69.0561 122.638 69.0561 123.182C69.0561 123.739 69.1406 124.219 69.3097 124.624C69.4787 125.028 69.7173 125.341 70.0256 125.563C70.3371 125.785 70.7034 125.896 71.1243 125.896C71.406 125.896 71.6612 125.845 71.8899 125.742C72.1219 125.636 72.3158 125.485 72.4716 125.29C72.6307 125.094 72.7417 124.859 72.8047 124.584H74.2514C74.1984 125.078 74.0376 125.518 73.7692 125.906C73.5007 126.294 73.1411 126.599 72.6903 126.821C72.2429 127.043 71.7176 127.154 71.1143 127.154ZM79.6323 127.154C78.8799 127.154 78.2319 126.993 77.6884 126.672C77.1481 126.347 76.7305 125.891 76.4355 125.305C76.1439 124.715 75.998 124.024 75.998 123.232C75.998 122.449 76.1439 121.76 76.4355 121.163C76.7305 120.567 77.1415 120.101 77.6685 119.766C78.1988 119.432 78.8186 119.264 79.5279 119.264C79.9587 119.264 80.3764 119.335 80.7807 119.478C81.1851 119.621 81.548 119.844 81.8695 120.149C82.191 120.454 82.4445 120.85 82.6301 121.337C82.8158 121.821 82.9086 122.41 82.9086 123.102V123.629H76.8382V122.516H81.4519C81.4519 122.125 81.3723 121.778 81.2132 121.477C81.0542 121.172 80.8304 120.931 80.5421 120.756C80.257 120.58 79.9223 120.492 79.5378 120.492C79.1202 120.492 78.7556 120.595 78.4441 120.8C78.1358 121.003 77.8972 121.268 77.7282 121.596C77.5624 121.921 77.4796 122.274 77.4796 122.655V123.525C77.4796 124.035 77.5691 124.469 77.748 124.827C77.9303 125.185 78.1839 125.459 78.5087 125.648C78.8335 125.833 79.213 125.926 79.6472 125.926C79.9289 125.926 80.1858 125.886 80.4178 125.807C80.6498 125.724 80.8503 125.601 81.0194 125.439C81.1884 125.277 81.3176 125.076 81.4071 124.837L82.8141 125.091C82.7014 125.505 82.4992 125.868 82.2076 126.18C81.9192 126.488 81.5563 126.728 81.1188 126.901C80.6846 127.07 80.1891 127.154 79.6323 127.154Z" fill="#1C1B1E"/>
<defs>
<filter id="filter0_d_824_1643" x="0" y="0" width="224" height="100" filterUnits="userSpaceOnUse" color-interpolation-filters="sRGB">
<feFlood flood-opacity="0" result="BackgroundImageFix"/>
<feColorMatrix in="SourceAlpha" type="matrix" values="0 0 0 0 0 0 0 0 0 0 0 0 0 0 0 0 0 0 127 0" result="hardAlpha"/>
<feOffset dy="1"/>
<feGaussianBlur stdDeviation="2"/>
<feComposite in2="hardAlpha" operator="out"/>
<feColorMatrix type="matrix" values="0 0 0 0 0 0 0 0 0 0 0 0 0 0 0 0 0 0 0.1 0"/>
<feBlend mode="normal" in2="BackgroundImageFix" result="effect1_dropShadow_824_1643"/>
<feBlend mode="normal" in="SourceGraphic" in2="effect1_dropShadow_824_1643" result="shape"/>
</filter>
</defs>
</svg>
