<svg width="224" height="133" viewBox="0 0 224 133" fill="none" xmlns="http://www.w3.org/2000/svg">
<g filter="url(#filter0_d_824_1661)">
<rect x="4" y="3" width="216" height="92" rx="8" fill="#313033"/>
</g>
<path d="M84.9864 54L86.6569 43.8182H87.8501L86.1796 54H84.9864ZM80.3778 51.2756L80.5716 50.0824H88.2876L88.0937 51.2756H80.3778ZM81.4069 54L83.0773 43.8182H84.2705L82.6001 54H81.4069ZM80.9694 47.7358L81.1633 46.5426H88.8792L88.6853 47.7358H80.9694ZM94.1072 54.1392C93.4244 54.1392 92.8145 54.0215 92.2776 53.7862C91.744 53.5509 91.3214 53.2244 91.0099 52.8068C90.7016 52.3859 90.5359 51.8987 90.5127 51.3452H92.0738C92.0937 51.6468 92.1948 51.9086 92.377 52.1307C92.5626 52.3494 92.8046 52.5185 93.1029 52.6378C93.4012 52.7571 93.7326 52.8168 94.0972 52.8168C94.4983 52.8168 94.8529 52.7472 95.1611 52.608C95.4727 52.4687 95.7163 52.2749 95.892 52.0263C96.0676 51.7744 96.1555 51.4844 96.1555 51.1562C96.1555 50.8149 96.0676 50.5149 95.892 50.2564C95.7196 49.9946 95.4661 49.7891 95.1313 49.6399C94.7999 49.4908 94.3988 49.4162 93.9282 49.4162H93.0681V48.1634H93.9282C94.306 48.1634 94.6375 48.0954 94.9225 47.9595C95.2108 47.8236 95.4362 47.6347 95.5986 47.3928C95.761 47.1475 95.8422 46.8608 95.8422 46.5327C95.8422 46.2178 95.771 45.9444 95.6285 45.7124C95.4893 45.477 95.2904 45.2931 95.0319 45.1605C94.7767 45.0279 94.4751 44.9616 94.127 44.9616C93.7956 44.9616 93.4857 45.023 93.1974 45.1456C92.9123 45.2649 92.6803 45.4373 92.5013 45.6626C92.3224 45.8847 92.2262 46.1515 92.213 46.4631H90.7265C90.743 45.9129 90.9055 45.429 91.2137 45.0114C91.5252 44.5937 91.9362 44.2673 92.4466 44.032C92.9571 43.7966 93.5238 43.679 94.1469 43.679C94.7999 43.679 95.3633 43.8066 95.8373 44.0618C96.3145 44.3137 96.6824 44.6501 96.941 45.071C97.2028 45.492 97.3321 45.9527 97.3287 46.4531C97.3321 47.0232 97.173 47.5071 96.8515 47.9048C96.5333 48.3026 96.109 48.5694 95.5787 48.7053V48.7848C96.2549 48.8875 96.7786 49.156 97.1498 49.5902C97.5243 50.0244 97.7099 50.563 97.7066 51.206C97.7099 51.7661 97.5541 52.2682 97.2393 52.7124C96.9277 53.1565 96.5018 53.5062 95.9616 53.7614C95.4213 54.0133 94.8032 54.1392 94.1072 54.1392ZM103.949 43.8182V54H102.408V45.3594H102.348L99.9118 46.9503V45.4787L102.452 43.8182H103.949ZM110.748 54.1392C110.065 54.1392 109.455 54.0215 108.918 53.7862C108.385 53.5509 107.962 53.2244 107.65 52.8068C107.342 52.3859 107.177 51.8987 107.153 51.3452H108.714C108.734 51.6468 108.835 51.9086 109.018 52.1307C109.203 52.3494 109.445 52.5185 109.744 52.6378C110.042 52.7571 110.373 52.8168 110.738 52.8168C111.139 52.8168 111.494 52.7472 111.802 52.608C112.113 52.4687 112.357 52.2749 112.533 52.0263C112.708 51.7744 112.796 51.4844 112.796 51.1562C112.796 50.8149 112.708 50.5149 112.533 50.2564C112.36 49.9946 112.107 49.7891 111.772 49.6399C111.44 49.4908 111.039 49.4162 110.569 49.4162H109.709V48.1634H110.569C110.947 48.1634 111.278 48.0954 111.563 47.9595C111.851 47.8236 112.077 47.6347 112.239 47.3928C112.402 47.1475 112.483 46.8608 112.483 46.5327C112.483 46.2178 112.412 45.9444 112.269 45.7124C112.13 45.477 111.931 45.2931 111.672 45.1605C111.417 45.0279 111.116 44.9616 110.768 44.9616C110.436 44.9616 110.126 45.023 109.838 45.1456C109.553 45.2649 109.321 45.4373 109.142 45.6626C108.963 45.8847 108.867 46.1515 108.854 46.4631H107.367C107.384 45.9129 107.546 45.429 107.854 45.0114C108.166 44.5937 108.577 44.2673 109.087 44.032C109.598 43.7966 110.164 43.679 110.788 43.679C111.44 43.679 112.004 43.8066 112.478 44.0618C112.955 44.3137 113.323 44.6501 113.582 45.071C113.843 45.492 113.973 45.9527 113.969 46.4531C113.973 47.0232 113.814 47.5071 113.492 47.9048C113.174 48.3026 112.75 48.5694 112.219 48.7053V48.7848C112.896 48.8875 113.419 49.156 113.79 49.5902C114.165 50.0244 114.351 50.563 114.347 51.206C114.351 51.7661 114.195 52.2682 113.88 52.7124C113.568 53.1565 113.142 53.5062 112.602 53.7614C112.062 54.0133 111.444 54.1392 110.748 54.1392ZM120.271 54.169C119.486 54.1657 118.815 53.9586 118.258 53.5476C117.701 53.1366 117.275 52.5384 116.98 51.7528C116.685 50.9673 116.538 50.0211 116.538 48.9141C116.538 47.8104 116.685 46.8674 116.98 46.0852C117.278 45.303 117.706 44.7064 118.263 44.2955C118.823 43.8845 119.492 43.679 120.271 43.679C121.05 43.679 121.718 43.8861 122.275 44.3004C122.832 44.7114 123.257 45.308 123.552 46.0902C123.851 46.8691 124 47.8104 124 48.9141C124 50.0244 123.852 50.9723 123.557 51.7578C123.262 52.54 122.837 53.1383 122.28 53.5526C121.723 53.9635 121.053 54.169 120.271 54.169ZM120.271 52.8416C120.961 52.8416 121.499 52.5052 121.887 51.8324C122.278 51.1596 122.474 50.1868 122.474 48.9141C122.474 48.0689 122.384 47.3546 122.205 46.7713C122.03 46.1847 121.776 45.7405 121.445 45.4389C121.116 45.134 120.725 44.9815 120.271 44.9815C119.585 44.9815 119.047 45.3196 118.655 45.9957C118.264 46.6719 118.067 47.6446 118.064 48.9141C118.064 49.7625 118.152 50.4801 118.327 51.0668C118.506 51.6501 118.76 52.0926 119.088 52.3942C119.416 52.6925 119.811 52.8416 120.271 52.8416ZM129.808 54.1392C129.126 54.1392 128.516 54.0215 127.979 53.7862C127.445 53.5509 127.023 53.2244 126.711 52.8068C126.403 52.3859 126.237 51.8987 126.214 51.3452H127.775C127.795 51.6468 127.896 51.9086 128.078 52.1307C128.264 52.3494 128.506 52.5185 128.804 52.6378C129.102 52.7571 129.434 52.8168 129.798 52.8168C130.199 52.8168 130.554 52.7472 130.862 52.608C131.174 52.4687 131.417 52.2749 131.593 52.0263C131.769 51.7744 131.857 51.4844 131.857 51.1562C131.857 50.8149 131.769 50.5149 131.593 50.2564C131.421 49.9946 131.167 49.7891 130.832 49.6399C130.501 49.4908 130.1 49.4162 129.629 49.4162H128.769V48.1634H129.629C130.007 48.1634 130.339 48.0954 130.624 47.9595C130.912 47.8236 131.137 47.6347 131.3 47.3928C131.462 47.1475 131.543 46.8608 131.543 46.5327C131.543 46.2178 131.472 45.9444 131.33 45.7124C131.19 45.477 130.992 45.2931 130.733 45.1605C130.478 45.0279 130.176 44.9616 129.828 44.9616C129.497 44.9616 129.187 45.023 128.899 45.1456C128.613 45.2649 128.381 45.4373 128.203 45.6626C128.024 45.8847 127.927 46.1515 127.914 46.4631H126.428C126.444 45.9129 126.607 45.429 126.915 45.0114C127.226 44.5937 127.637 44.2673 128.148 44.032C128.658 43.7966 129.225 43.679 129.848 43.679C130.501 43.679 131.064 43.8066 131.538 44.0618C132.016 44.3137 132.384 44.6501 132.642 45.071C132.904 45.492 133.033 45.9527 133.03 46.4531C133.033 47.0232 132.874 47.5071 132.553 47.9048C132.234 48.3026 131.81 48.5694 131.28 48.7053V48.7848C131.956 48.8875 132.48 49.156 132.851 49.5902C133.225 50.0244 133.411 50.563 133.408 51.206C133.411 51.7661 133.255 52.2682 132.94 52.7124C132.629 53.1565 132.203 53.5062 131.663 53.7614C131.122 54.0133 130.504 54.1392 129.808 54.1392ZM139.332 54.1392C138.649 54.1392 138.039 54.0215 137.502 53.7862C136.969 53.5509 136.546 53.2244 136.234 52.8068C135.926 52.3859 135.761 51.8987 135.737 51.3452H137.298C137.318 51.6468 137.419 51.9086 137.602 52.1307C137.787 52.3494 138.029 52.5185 138.328 52.6378C138.626 52.7571 138.957 52.8168 139.322 52.8168C139.723 52.8168 140.078 52.7472 140.386 52.608C140.697 52.4687 140.941 52.2749 141.117 52.0263C141.292 51.7744 141.38 51.4844 141.38 51.1562C141.38 50.8149 141.292 50.5149 141.117 50.2564C140.944 49.9946 140.691 49.7891 140.356 49.6399C140.024 49.4908 139.623 49.4162 139.153 49.4162H138.293V48.1634H139.153C139.531 48.1634 139.862 48.0954 140.147 47.9595C140.435 47.8236 140.661 47.6347 140.823 47.3928C140.986 47.1475 141.067 46.8608 141.067 46.5327C141.067 46.2178 140.996 45.9444 140.853 45.7124C140.714 45.477 140.515 45.2931 140.256 45.1605C140.001 45.0279 139.7 44.9616 139.352 44.9616C139.02 44.9616 138.71 45.023 138.422 45.1456C138.137 45.2649 137.905 45.4373 137.726 45.6626C137.547 45.8847 137.451 46.1515 137.438 46.4631H135.951C135.968 45.9129 136.13 45.429 136.438 45.0114C136.75 44.5937 137.161 44.2673 137.671 44.032C138.182 43.7966 138.748 43.679 139.372 43.679C140.024 43.679 140.588 43.8066 141.062 44.0618C141.539 44.3137 141.907 44.6501 142.166 45.071C142.427 45.492 142.557 45.9527 142.553 46.4531C142.557 47.0232 142.398 47.5071 142.076 47.9048C141.758 48.3026 141.334 48.5694 140.803 48.7053V48.7848C141.479 48.8875 142.003 49.156 142.374 49.5902C142.749 50.0244 142.935 50.563 142.931 51.206C142.935 51.7661 142.779 52.2682 142.464 52.7124C142.152 53.1565 141.726 53.5062 141.186 53.7614C140.646 54.0133 140.028 54.1392 139.332 54.1392Z" fill="#FFFBFF"/>
<path d="M6.65483 116.818V127H5.11861V116.818H6.65483ZM10.7592 122.466V127H9.27273V119.364H10.6996V120.607H10.794C10.9697 120.202 11.2448 119.877 11.6193 119.632C11.9972 119.387 12.4728 119.264 13.0462 119.264C13.5665 119.264 14.0223 119.374 14.4134 119.592C14.8045 119.808 15.1077 120.129 15.3232 120.557C15.5386 120.984 15.6463 121.513 15.6463 122.143V127H14.1598V122.322C14.1598 121.768 14.0156 121.336 13.7273 121.024C13.4389 120.709 13.0429 120.552 12.5391 120.552C12.1944 120.552 11.8878 120.626 11.6193 120.776C11.3542 120.925 11.1437 121.143 10.9879 121.432C10.8355 121.717 10.7592 122.062 10.7592 122.466ZM24.3991 119.364L21.63 127H20.0391L17.2649 119.364H18.8608L20.7947 125.24H20.8743L22.8033 119.364H24.3991ZM29.3276 127.154C28.5752 127.154 27.9273 126.993 27.3837 126.672C26.8435 126.347 26.4258 125.891 26.1309 125.305C25.8392 124.715 25.6934 124.024 25.6934 123.232C25.6934 122.449 25.8392 121.76 26.1309 121.163C26.4258 120.567 26.8368 120.101 27.3638 119.766C27.8941 119.432 28.5139 119.264 29.2232 119.264C29.6541 119.264 30.0717 119.335 30.476 119.478C30.8804 119.621 31.2433 119.844 31.5648 120.149C31.8863 120.454 32.1399 120.85 32.3255 121.337C32.5111 121.821 32.6039 122.41 32.6039 123.102V123.629H26.5336V122.516H31.1472C31.1472 122.125 31.0676 121.778 30.9086 121.477C30.7495 121.172 30.5257 120.931 30.2374 120.756C29.9524 120.58 29.6176 120.492 29.2331 120.492C28.8155 120.492 28.4509 120.595 28.1394 120.8C27.8311 121.003 27.5925 121.268 27.4235 121.596C27.2578 121.921 27.1749 122.274 27.1749 122.655V123.525C27.1749 124.035 27.2644 124.469 27.4434 124.827C27.6257 125.185 27.8792 125.459 28.204 125.648C28.5288 125.833 28.9083 125.926 29.3425 125.926C29.6242 125.926 29.8811 125.886 30.1131 125.807C30.3451 125.724 30.5456 125.601 30.7147 125.439C30.8837 125.277 31.013 125.076 31.1025 124.837L32.5094 125.091C32.3967 125.505 32.1945 125.868 31.9029 126.18C31.6145 126.488 31.2516 126.728 30.8141 126.901C30.3799 127.07 29.8844 127.154 29.3276 127.154ZM34.7532 127V119.364H36.19V120.577H36.2695C36.4087 120.166 36.654 119.843 37.0053 119.607C37.36 119.369 37.761 119.249 38.2085 119.249C38.3013 119.249 38.4106 119.253 38.5366 119.259C38.6658 119.266 38.7669 119.274 38.8398 119.284V120.706C38.7802 120.689 38.6741 120.671 38.5217 120.651C38.3692 120.628 38.2167 120.616 38.0643 120.616C37.713 120.616 37.3997 120.691 37.1246 120.84C36.8529 120.986 36.6374 121.19 36.4783 121.452C36.3192 121.71 36.2397 122.005 36.2397 122.337V127H34.7532ZM46.3485 121.228L45.0012 121.467C44.9449 121.294 44.8554 121.13 44.7328 120.974C44.6135 120.819 44.4511 120.691 44.2456 120.592C44.0401 120.492 43.7832 120.442 43.475 120.442C43.054 120.442 42.7027 120.537 42.421 120.726C42.1393 120.911 41.9984 121.152 41.9984 121.447C41.9984 121.702 42.0929 121.907 42.2818 122.063C42.4707 122.219 42.7756 122.347 43.1966 122.446L44.4096 122.724C45.1123 122.887 45.6359 123.137 45.9806 123.475C46.3253 123.813 46.4977 124.252 46.4977 124.793C46.4977 125.25 46.3651 125.658 46.1 126.016C45.8381 126.37 45.4719 126.649 45.0012 126.851C44.5339 127.053 43.992 127.154 43.3755 127.154C42.5204 127.154 41.8227 126.972 41.2825 126.607C40.7422 126.239 40.4108 125.717 40.2882 125.041L41.725 124.822C41.8145 125.197 41.9984 125.48 42.2768 125.673C42.5552 125.862 42.9181 125.956 43.3656 125.956C43.8528 125.956 44.2422 125.855 44.5339 125.653C44.8256 125.447 44.9714 125.197 44.9714 124.902C44.9714 124.663 44.8819 124.463 44.7029 124.3C44.5273 124.138 44.2572 124.015 43.8926 123.933L42.6 123.649C41.8874 123.487 41.3604 123.228 41.019 122.874C40.6809 122.519 40.5119 122.07 40.5119 121.526C40.5119 121.076 40.6378 120.681 40.8897 120.343C41.1416 120.005 41.4896 119.741 41.9338 119.553C42.3779 119.36 42.8867 119.264 43.46 119.264C44.2853 119.264 44.935 119.443 45.4089 119.801C45.8829 120.156 46.1961 120.631 46.3485 121.228ZM51.9233 127.154C51.1709 127.154 50.523 126.993 49.9794 126.672C49.4392 126.347 49.0215 125.891 48.7266 125.305C48.4349 124.715 48.2891 124.024 48.2891 123.232C48.2891 122.449 48.4349 121.76 48.7266 121.163C49.0215 120.567 49.4325 120.101 49.9595 119.766C50.4898 119.432 51.1096 119.264 51.8189 119.264C52.2498 119.264 52.6674 119.335 53.0717 119.478C53.4761 119.621 53.839 119.844 54.1605 120.149C54.482 120.454 54.7356 120.85 54.9212 121.337C55.1068 121.821 55.1996 122.41 55.1996 123.102V123.629H49.1293V122.516H53.7429C53.7429 122.125 53.6634 121.778 53.5043 121.477C53.3452 121.172 53.1214 120.931 52.8331 120.756C52.5481 120.58 52.2133 120.492 51.8288 120.492C51.4112 120.492 51.0466 120.595 50.7351 120.8C50.4268 121.003 50.1882 121.268 50.0192 121.596C49.8535 121.921 49.7706 122.274 49.7706 122.655V123.525C49.7706 124.035 49.8601 124.469 50.0391 124.827C50.2214 125.185 50.4749 125.459 50.7997 125.648C51.1245 125.833 51.504 125.926 51.9382 125.926C52.2199 125.926 52.4768 125.886 52.7088 125.807C52.9408 125.724 53.1413 125.601 53.3104 125.439C53.4794 125.277 53.6087 125.076 53.6982 124.837L55.1051 125.091C54.9924 125.505 54.7902 125.868 54.4986 126.18C54.2102 126.488 53.8473 126.728 53.4098 126.901C52.9756 127.07 52.4801 127.154 51.9233 127.154ZM67.2266 119.493C67.1735 119.022 66.9548 118.658 66.5703 118.399C66.1858 118.137 65.7019 118.006 65.1186 118.006C64.701 118.006 64.3397 118.073 64.0348 118.205C63.7299 118.335 63.4929 118.513 63.3239 118.742C63.1581 118.968 63.0753 119.224 63.0753 119.513C63.0753 119.755 63.1316 119.964 63.2443 120.139C63.3603 120.315 63.5111 120.462 63.6967 120.582C63.8857 120.698 64.0878 120.795 64.3033 120.875C64.5187 120.951 64.7259 121.014 64.9247 121.064L65.919 121.322C66.2438 121.402 66.5769 121.51 66.9183 121.646C67.2597 121.781 67.5762 121.96 67.8679 122.183C68.1596 122.405 68.3949 122.68 68.5739 123.008C68.7562 123.336 68.8473 123.729 68.8473 124.186C68.8473 124.763 68.6982 125.275 68.3999 125.722C68.1049 126.17 67.6757 126.523 67.1122 126.781C66.5521 127.04 65.8743 127.169 65.0788 127.169C64.3165 127.169 63.657 127.048 63.1001 126.806C62.5433 126.564 62.1075 126.221 61.7926 125.777C61.4777 125.33 61.3037 124.799 61.2706 124.186H62.8118C62.8416 124.554 62.9609 124.861 63.1697 125.106C63.3819 125.348 63.652 125.528 63.9801 125.648C64.3116 125.764 64.6745 125.822 65.0689 125.822C65.5031 125.822 65.8892 125.754 66.2273 125.618C66.5687 125.479 66.8371 125.286 67.0327 125.041C67.2282 124.793 67.326 124.503 67.326 124.171C67.326 123.87 67.2398 123.623 67.0675 123.43C66.8984 123.238 66.6681 123.079 66.3764 122.953C66.0881 122.827 65.7616 122.716 65.397 122.62L64.1939 122.292C63.3786 122.07 62.7322 121.743 62.255 121.312C61.781 120.882 61.544 120.312 61.544 119.602C61.544 119.016 61.7031 118.504 62.0213 118.066C62.3395 117.629 62.7704 117.289 63.3139 117.047C63.8575 116.802 64.4706 116.679 65.1534 116.679C65.8428 116.679 66.451 116.8 66.978 117.042C67.5083 117.284 67.9259 117.617 68.2308 118.041C68.5357 118.462 68.6948 118.946 68.7081 119.493H67.2266ZM75.9011 123.833V119.364H77.3926V127H75.9309V125.678H75.8514C75.6757 126.085 75.394 126.425 75.0062 126.697C74.6217 126.965 74.1428 127.099 73.5694 127.099C73.0789 127.099 72.6447 126.992 72.2669 126.776C71.8923 126.558 71.5974 126.234 71.3819 125.807C71.1698 125.379 71.0637 124.851 71.0637 124.221V119.364H72.5502V124.042C72.5502 124.562 72.6944 124.977 72.9828 125.285C73.2711 125.593 73.6457 125.747 74.1064 125.747C74.3848 125.747 74.6615 125.678 74.9366 125.538C75.215 125.399 75.4454 125.189 75.6277 124.907C75.8133 124.625 75.9044 124.267 75.9011 123.833ZM79.8899 127V119.364H81.3267V120.577H81.4062C81.5455 120.166 81.7907 119.843 82.142 119.607C82.4967 119.369 82.8977 119.249 83.3452 119.249C83.438 119.249 83.5473 119.253 83.6733 119.259C83.8026 119.266 83.9036 119.274 83.9766 119.284V120.706C83.9169 120.689 83.8108 120.671 83.6584 120.651C83.5059 120.628 83.3535 120.616 83.201 120.616C82.8497 120.616 82.5365 120.691 82.2614 120.84C81.9896 120.986 81.7741 121.19 81.6151 121.452C81.456 121.71 81.3764 122.005 81.3764 122.337V127H79.8899ZM89.8484 119.364V120.557H85.533V119.364H89.8484ZM86.7163 127V118.479C86.7163 118.001 86.8207 117.605 87.0295 117.29C87.2383 116.972 87.515 116.735 87.8597 116.58C88.2044 116.42 88.579 116.341 88.9833 116.341C89.2816 116.341 89.5368 116.366 89.7489 116.415C89.9611 116.462 90.1185 116.505 90.2212 116.545L89.8732 117.748C89.8036 117.728 89.7141 117.705 89.6048 117.678C89.4954 117.648 89.3628 117.634 89.207 117.634C88.8458 117.634 88.5872 117.723 88.4315 117.902C88.279 118.081 88.2028 118.339 88.2028 118.678V127H86.7163ZM93.872 127.169C93.3881 127.169 92.9506 127.08 92.5595 126.901C92.1684 126.718 91.8585 126.455 91.6298 126.11C91.4044 125.765 91.2917 125.343 91.2917 124.842C91.2917 124.411 91.3746 124.057 91.5403 123.778C91.706 123.5 91.9297 123.28 92.2115 123.117C92.4932 122.955 92.8081 122.832 93.1561 122.749C93.5041 122.666 93.8587 122.603 94.22 122.56C94.6774 122.507 95.0486 122.464 95.3336 122.431C95.6187 122.395 95.8258 122.337 95.9551 122.257C96.0843 122.178 96.149 122.048 96.149 121.869V121.835C96.149 121.4 96.0263 121.064 95.7811 120.825C95.5391 120.587 95.1779 120.467 94.6973 120.467C94.1968 120.467 93.8024 120.578 93.514 120.8C93.229 121.019 93.0318 121.263 92.9224 121.531L91.5254 121.213C91.6911 120.749 91.9331 120.375 92.2512 120.089C92.5727 119.801 92.9423 119.592 93.3599 119.463C93.7775 119.33 94.2167 119.264 94.6774 119.264C94.9823 119.264 95.3055 119.301 95.6468 119.374C95.9915 119.443 96.313 119.572 96.6113 119.761C96.9129 119.95 97.1599 120.22 97.3521 120.572C97.5443 120.92 97.6404 121.372 97.6404 121.929V127H96.1887V125.956H96.1291C96.033 126.148 95.8888 126.337 95.6966 126.523C95.5043 126.708 95.2574 126.862 94.9558 126.985C94.6542 127.108 94.2929 127.169 93.872 127.169ZM94.1951 125.976C94.6061 125.976 94.9574 125.895 95.2491 125.732C95.5441 125.57 95.7678 125.358 95.9203 125.096C96.0761 124.831 96.1539 124.547 96.1539 124.246V123.261C96.1009 123.314 95.9982 123.364 95.8457 123.411C95.6966 123.454 95.5259 123.492 95.3336 123.525C95.1414 123.555 94.9541 123.583 94.7718 123.609C94.5895 123.633 94.4371 123.652 94.3145 123.669C94.0261 123.705 93.7626 123.767 93.524 123.853C93.2886 123.939 93.0997 124.063 92.9572 124.226C92.818 124.385 92.7484 124.597 92.7484 124.862C92.7484 125.23 92.8843 125.509 93.1561 125.697C93.4279 125.883 93.7742 125.976 94.1951 125.976ZM103.337 127.154C102.598 127.154 101.962 126.987 101.428 126.652C100.898 126.314 100.49 125.848 100.205 125.255C99.9199 124.662 99.7773 123.982 99.7773 123.217C99.7773 122.441 99.9232 121.757 100.215 121.163C100.507 120.567 100.917 120.101 101.448 119.766C101.978 119.432 102.603 119.264 103.322 119.264C103.902 119.264 104.419 119.372 104.873 119.587C105.327 119.799 105.694 120.098 105.972 120.482C106.254 120.867 106.421 121.316 106.474 121.83H105.027C104.948 121.472 104.766 121.163 104.48 120.905C104.199 120.646 103.821 120.517 103.347 120.517C102.933 120.517 102.57 120.626 102.258 120.845C101.95 121.061 101.71 121.369 101.537 121.77C101.365 122.168 101.279 122.638 101.279 123.182C101.279 123.739 101.363 124.219 101.532 124.624C101.701 125.028 101.94 125.341 102.248 125.563C102.56 125.785 102.926 125.896 103.347 125.896C103.629 125.896 103.884 125.845 104.113 125.742C104.345 125.636 104.538 125.485 104.694 125.29C104.853 125.094 104.964 124.859 105.027 124.584H106.474C106.421 125.078 106.26 125.518 105.992 125.906C105.723 126.294 105.364 126.599 104.913 126.821C104.466 127.043 103.94 127.154 103.337 127.154ZM111.855 127.154C111.103 127.154 110.455 126.993 109.911 126.672C109.371 126.347 108.953 125.891 108.658 125.305C108.367 124.715 108.221 124.024 108.221 123.232C108.221 122.449 108.367 121.76 108.658 121.163C108.953 120.567 109.364 120.101 109.891 119.766C110.421 119.432 111.041 119.264 111.751 119.264C112.181 119.264 112.599 119.335 113.003 119.478C113.408 119.621 113.771 119.844 114.092 120.149C114.414 120.454 114.667 120.85 114.853 121.337C115.038 121.821 115.131 122.41 115.131 123.102V123.629H109.061V122.516H113.675C113.675 122.125 113.595 121.778 113.436 121.477C113.277 121.172 113.053 120.931 112.765 120.756C112.48 120.58 112.145 120.492 111.76 120.492C111.343 120.492 110.978 120.595 110.667 120.8C110.358 121.003 110.12 121.268 109.951 121.596C109.785 121.921 109.702 122.274 109.702 122.655V123.525C109.702 124.035 109.792 124.469 109.971 124.827C110.153 125.185 110.407 125.459 110.731 125.648C111.056 125.833 111.436 125.926 111.87 125.926C112.152 125.926 112.408 125.886 112.64 125.807C112.872 125.724 113.073 125.601 113.242 125.439C113.411 125.277 113.54 125.076 113.63 124.837L115.037 125.091C114.924 125.505 114.722 125.868 114.43 126.18C114.142 126.488 113.779 126.728 113.341 126.901C112.907 127.07 112.412 127.154 111.855 127.154Z" fill="#1C1B1E"/>
<defs>
<filter id="filter0_d_824_1661" x="0" y="0" width="224" height="100" filterUnits="userSpaceOnUse" color-interpolation-filters="sRGB">
<feFlood flood-opacity="0" result="BackgroundImageFix"/>
<feColorMatrix in="SourceAlpha" type="matrix" values="0 0 0 0 0 0 0 0 0 0 0 0 0 0 0 0 0 0 127 0" result="hardAlpha"/>
<feOffset dy="1"/>
<feGaussianBlur stdDeviation="2"/>
<feComposite in2="hardAlpha" operator="out"/>
<feColorMatrix type="matrix" values="0 0 0 0 0 0 0 0 0 0 0 0 0 0 0 0 0 0 0.1 0"/>
<feBlend mode="normal" in2="BackgroundImageFix" result="effect1_dropShadow_824_1661"/>
<feBlend mode="normal" in="SourceGraphic" in2="effect1_dropShadow_824_1661" result="shape"/>
</filter>
</defs>
</svg>
