<svg width="224" height="133" viewBox="0 0 224 133" fill="none" xmlns="http://www.w3.org/2000/svg">
<g filter="url(#filter0_d_824_1603)">
<rect x="4" y="3" width="216" height="92" rx="8" fill="#1D192B"/>
</g>
<path d="M85.8683 54L87.5387 43.8182H88.7319L87.0614 54H85.8683ZM81.2596 51.2756L81.4535 50.0824H89.1694L88.9755 51.2756H81.2596ZM82.2887 54L83.9592 43.8182H85.1523L83.4819 54H82.2887ZM81.8512 47.7358L82.0451 46.5426H89.761L89.5671 47.7358H81.8512ZM95.3072 43.8182V54H93.766V45.3594H93.7063L91.2702 46.9503V45.4787L93.8107 43.8182H95.3072ZM101.997 54H98.7006V43.8182H102.101C103.099 43.8182 103.956 44.022 104.672 44.4297C105.387 44.834 105.936 45.4157 106.317 46.1747C106.702 46.9304 106.894 47.8369 106.894 48.8942C106.894 49.9548 106.7 50.8662 106.312 51.6286C105.928 52.3909 105.371 52.9775 104.642 53.3885C103.913 53.7962 103.031 54 101.997 54ZM100.237 52.6577H101.912C102.688 52.6577 103.333 52.5118 103.846 52.2202C104.36 51.9252 104.744 51.4993 105 50.9425C105.255 50.3823 105.382 49.6996 105.382 48.8942C105.382 48.0954 105.255 47.4176 105 46.8608C104.748 46.304 104.372 45.8814 103.871 45.593C103.371 45.3047 102.749 45.1605 102.007 45.1605H100.237V52.6577ZM113.028 43.8182V54H111.487V45.3594H111.427L108.991 46.9503V45.4787L111.531 43.8182H113.028ZM119.668 43.679C120.122 43.6823 120.569 43.7652 121.01 43.9276C121.451 44.09 121.849 44.3551 122.203 44.723C122.561 45.0909 122.846 45.5881 123.058 46.2145C123.274 46.8376 123.383 47.6132 123.387 48.5412C123.387 49.4328 123.297 50.2266 123.118 50.9226C122.939 51.6153 122.682 52.2003 122.347 52.6776C122.016 53.1548 121.613 53.5178 121.139 53.7663C120.665 54.0149 120.132 54.1392 119.539 54.1392C118.932 54.1392 118.393 54.0199 117.923 53.7812C117.452 53.5426 117.069 53.2128 116.774 52.7919C116.479 52.3677 116.295 51.8804 116.222 51.3303H117.739C117.838 51.7678 118.04 52.1224 118.345 52.3942C118.654 52.6626 119.051 52.7969 119.539 52.7969C120.284 52.7969 120.866 52.4721 121.284 51.8224C121.701 51.1695 121.912 50.258 121.915 49.0881H121.835C121.663 49.3731 121.448 49.6184 121.189 49.8239C120.934 50.0294 120.647 50.1884 120.329 50.3011C120.011 50.4138 119.671 50.4702 119.31 50.4702C118.723 50.4702 118.19 50.326 117.709 50.0376C117.228 49.7493 116.846 49.3532 116.561 48.8494C116.276 48.3456 116.133 47.7706 116.133 47.1243C116.133 46.4813 116.279 45.898 116.57 45.3743C116.865 44.8506 117.276 44.4363 117.803 44.1314C118.334 43.8232 118.955 43.6723 119.668 43.679ZM119.673 44.9716C119.285 44.9716 118.935 45.0677 118.624 45.2599C118.316 45.4489 118.072 45.7057 117.893 46.0305C117.714 46.352 117.624 46.71 117.624 47.1044C117.624 47.4988 117.711 47.8568 117.883 48.1783C118.059 48.4964 118.297 48.75 118.599 48.9389C118.904 49.1245 119.252 49.2173 119.643 49.2173C119.935 49.2173 120.206 49.161 120.458 49.0483C120.71 48.9356 120.931 48.7798 121.119 48.581C121.308 48.3788 121.456 48.1501 121.562 47.8949C121.668 47.6397 121.721 47.3712 121.721 47.0895C121.721 46.715 121.632 46.367 121.453 46.0455C121.277 45.724 121.035 45.4654 120.727 45.2699C120.419 45.071 120.067 44.9716 119.673 44.9716ZM125.683 54V52.8864L129.128 49.3168C129.496 48.929 129.799 48.5893 130.038 48.2976C130.28 48.0026 130.46 47.7225 130.58 47.4574C130.699 47.1922 130.759 46.9105 130.759 46.6122C130.759 46.2741 130.679 45.9825 130.52 45.7372C130.361 45.4886 130.144 45.2981 129.869 45.1655C129.594 45.0296 129.284 44.9616 128.939 44.9616C128.574 44.9616 128.256 45.0362 127.984 45.1854C127.713 45.3345 127.504 45.545 127.358 45.8168C127.212 46.0885 127.139 46.4067 127.139 46.7713H125.673C125.673 46.1515 125.815 45.6096 126.1 45.1456C126.385 44.6816 126.776 44.322 127.273 44.0668C127.771 43.8082 128.336 43.679 128.969 43.679C129.608 43.679 130.172 43.8066 130.659 44.0618C131.15 44.3137 131.532 44.6584 131.808 45.0959C132.083 45.5301 132.22 46.0206 132.22 46.5675C132.22 46.9453 132.149 47.3149 132.006 47.6761C131.867 48.0374 131.624 48.4401 131.276 48.8842C130.928 49.325 130.444 49.8603 129.824 50.4901L127.8 52.608V52.6825H132.384V54H125.683ZM134.908 54V43.8182H138.636C139.359 43.8182 139.957 43.9375 140.431 44.1761C140.905 44.4115 141.26 44.7313 141.495 45.1357C141.73 45.5367 141.848 45.9891 141.848 46.4929C141.848 46.9171 141.77 47.2751 141.614 47.5668C141.459 47.8551 141.25 48.0871 140.988 48.2628C140.729 48.4351 140.444 48.5611 140.133 48.6406V48.7401C140.471 48.7566 140.801 48.866 141.122 49.0682C141.447 49.267 141.715 49.5504 141.928 49.9183C142.14 50.2862 142.246 50.7337 142.246 51.2607C142.246 51.781 142.123 52.2483 141.878 52.6626C141.636 53.0736 141.261 53.4001 140.754 53.642C140.247 53.8807 139.599 54 138.81 54H134.908ZM136.444 52.6825H138.661C139.397 52.6825 139.924 52.54 140.242 52.255C140.56 51.9699 140.719 51.6136 140.719 51.1861C140.719 50.8646 140.638 50.5696 140.476 50.3011C140.313 50.0327 140.081 49.8189 139.78 49.6598C139.482 49.5007 139.127 49.4212 138.716 49.4212H136.444V52.6825ZM136.444 48.223H138.502C138.847 48.223 139.157 48.1567 139.432 48.0241C139.71 47.8916 139.931 47.706 140.093 47.4673C140.259 47.2254 140.342 46.9403 140.342 46.6122C140.342 46.1913 140.194 45.8383 139.899 45.5533C139.604 45.2682 139.152 45.1257 138.542 45.1257H136.444V48.223Z" fill="#FFFBFF"/>
<path d="M13.9631 121.909C13.9631 122.996 13.7642 123.931 13.3665 124.713C12.9688 125.492 12.4235 126.092 11.7308 126.513C11.0414 126.93 10.2576 127.139 9.37926 127.139C8.49763 127.139 7.71046 126.93 7.01776 126.513C6.32836 126.092 5.7848 125.49 5.38707 124.708C4.98935 123.926 4.79048 122.993 4.79048 121.909C4.79048 120.822 4.98935 119.889 5.38707 119.11C5.7848 118.328 6.32836 117.728 7.01776 117.31C7.71046 116.889 8.49763 116.679 9.37926 116.679C10.2576 116.679 11.0414 116.889 11.7308 117.31C12.4235 117.728 12.9688 118.328 13.3665 119.11C13.7642 119.889 13.9631 120.822 13.9631 121.909ZM12.4418 121.909C12.4418 121.08 12.3075 120.383 12.0391 119.816C11.7739 119.246 11.4093 118.815 10.9453 118.523C10.4846 118.228 9.96259 118.081 9.37926 118.081C8.79261 118.081 8.26894 118.228 7.80824 118.523C7.34754 118.815 6.98295 119.246 6.71449 119.816C6.44934 120.383 6.31676 121.08 6.31676 121.909C6.31676 122.738 6.44934 123.437 6.71449 124.007C6.98295 124.574 7.34754 125.005 7.80824 125.3C8.26894 125.591 8.79261 125.737 9.37926 125.737C9.96259 125.737 10.4846 125.591 10.9453 125.3C11.4093 125.005 11.7739 124.574 12.0391 124.007C12.3075 123.437 12.4418 122.738 12.4418 121.909ZM17.7456 122.466V127H16.2591V119.364H17.6859V120.607H17.7804C17.956 120.202 18.2311 119.877 18.6056 119.632C18.9835 119.387 19.4591 119.264 20.0325 119.264C20.5529 119.264 21.0086 119.374 21.3997 119.592C21.7908 119.808 22.094 120.129 22.3095 120.557C22.5249 120.984 22.6326 121.513 22.6326 122.143V127H21.1461V122.322C21.1461 121.768 21.002 121.336 20.7136 121.024C20.4252 120.709 20.0292 120.552 19.5254 120.552C19.1807 120.552 18.8741 120.626 18.6056 120.776C18.3405 120.925 18.13 121.143 17.9743 121.432C17.8218 121.717 17.7456 122.062 17.7456 122.466ZM35.0039 119.493C34.9509 119.022 34.7321 118.658 34.3477 118.399C33.9632 118.137 33.4793 118.006 32.896 118.006C32.4783 118.006 32.1171 118.073 31.8121 118.205C31.5072 118.335 31.2702 118.513 31.1012 118.742C30.9355 118.968 30.8526 119.224 30.8526 119.513C30.8526 119.755 30.909 119.964 31.0217 120.139C31.1377 120.315 31.2885 120.462 31.4741 120.582C31.663 120.698 31.8652 120.795 32.0806 120.875C32.296 120.951 32.5032 121.014 32.7021 121.064L33.6964 121.322C34.0212 121.402 34.3543 121.51 34.6957 121.646C35.0371 121.781 35.3536 121.96 35.6452 122.183C35.9369 122.405 36.1722 122.68 36.3512 123.008C36.5335 123.336 36.6246 123.729 36.6246 124.186C36.6246 124.763 36.4755 125.275 36.1772 125.722C35.8822 126.17 35.453 126.523 34.8896 126.781C34.3294 127.04 33.6516 127.169 32.8562 127.169C32.0939 127.169 31.4343 127.048 30.8775 126.806C30.3207 126.564 29.8848 126.221 29.57 125.777C29.2551 125.33 29.0811 124.799 29.0479 124.186H30.5891C30.619 124.554 30.7383 124.861 30.9471 125.106C31.1592 125.348 31.4293 125.528 31.7575 125.648C32.0889 125.764 32.4518 125.822 32.8462 125.822C33.2804 125.822 33.6665 125.754 34.0046 125.618C34.346 125.479 34.6145 125.286 34.81 125.041C35.0056 124.793 35.1033 124.503 35.1033 124.171C35.1033 123.87 35.0172 123.623 34.8448 123.43C34.6758 123.238 34.4454 123.079 34.1538 122.953C33.8654 122.827 33.5389 122.716 33.1744 122.62L31.9712 122.292C31.1559 122.07 30.5096 121.743 30.0323 121.312C29.5584 120.882 29.3214 120.312 29.3214 119.602C29.3214 119.016 29.4805 118.504 29.7987 118.066C30.1168 117.629 30.5477 117.289 31.0913 117.047C31.6348 116.802 32.248 116.679 32.9308 116.679C33.6201 116.679 34.2283 116.8 34.7553 117.042C35.2856 117.284 35.7032 117.617 36.0082 118.041C36.3131 118.462 36.4722 118.946 36.4854 119.493H35.0039ZM42.1323 127.154C41.3799 127.154 40.7319 126.993 40.1884 126.672C39.6481 126.347 39.2305 125.891 38.9355 125.305C38.6439 124.715 38.498 124.024 38.498 123.232C38.498 122.449 38.6439 121.76 38.9355 121.163C39.2305 120.567 39.6415 120.101 40.1685 119.766C40.6988 119.432 41.3186 119.264 42.0279 119.264C42.4587 119.264 42.8764 119.335 43.2807 119.478C43.6851 119.621 44.048 119.844 44.3695 120.149C44.691 120.454 44.9445 120.85 45.1301 121.337C45.3158 121.821 45.4086 122.41 45.4086 123.102V123.629H39.3382V122.516H43.9519C43.9519 122.125 43.8723 121.778 43.7132 121.477C43.5542 121.172 43.3304 120.931 43.0421 120.756C42.757 120.58 42.4223 120.492 42.0378 120.492C41.6202 120.492 41.2556 120.595 40.9441 120.8C40.6358 121.003 40.3972 121.268 40.2282 121.596C40.0624 121.921 39.9796 122.274 39.9796 122.655V123.525C39.9796 124.035 40.0691 124.469 40.248 124.827C40.4303 125.185 40.6839 125.459 41.0087 125.648C41.3335 125.833 41.713 125.926 42.1472 125.926C42.4289 125.926 42.6858 125.886 42.9178 125.807C43.1498 125.724 43.3503 125.601 43.5194 125.439C43.6884 125.277 43.8176 125.076 43.9071 124.837L45.3141 125.091C45.2014 125.505 44.9992 125.868 44.7076 126.18C44.4192 126.488 44.0563 126.728 43.6188 126.901C43.1846 127.07 42.6891 127.154 42.1323 127.154ZM50.7745 127.154C50.0354 127.154 49.399 126.987 48.8654 126.652C48.3351 126.314 47.9274 125.848 47.6424 125.255C47.3574 124.662 47.2148 123.982 47.2148 123.217C47.2148 122.441 47.3607 121.757 47.6523 121.163C47.944 120.567 48.355 120.101 48.8853 119.766C49.4156 119.432 50.0404 119.264 50.7596 119.264C51.3396 119.264 51.8567 119.372 52.3107 119.587C52.7648 119.799 53.131 120.098 53.4094 120.482C53.6912 120.867 53.8585 121.316 53.9116 121.83H52.4648C52.3853 121.472 52.203 121.163 51.918 120.905C51.6362 120.646 51.2584 120.517 50.7844 120.517C50.3701 120.517 50.0072 120.626 49.6957 120.845C49.3874 121.061 49.1471 121.369 48.9748 121.77C48.8024 122.168 48.7163 122.638 48.7163 123.182C48.7163 123.739 48.8008 124.219 48.9698 124.624C49.1388 125.028 49.3775 125.341 49.6857 125.563C49.9973 125.785 50.3635 125.896 50.7844 125.896C51.0662 125.896 51.3214 125.845 51.5501 125.742C51.7821 125.636 51.976 125.485 52.1317 125.29C52.2908 125.094 52.4019 124.859 52.4648 124.584H53.9116C53.8585 125.078 53.6978 125.518 53.4293 125.906C53.1609 126.294 52.8013 126.599 52.3505 126.821C51.9031 127.043 51.3777 127.154 50.7745 127.154ZM59.2179 127.154C58.502 127.154 57.8772 126.99 57.3436 126.662C56.81 126.334 56.3957 125.875 56.1007 125.285C55.8057 124.695 55.6582 124.005 55.6582 123.217C55.6582 122.424 55.8057 121.732 56.1007 121.138C56.3957 120.545 56.81 120.085 57.3436 119.756C57.8772 119.428 58.502 119.264 59.2179 119.264C59.9338 119.264 60.5585 119.428 61.0922 119.756C61.6258 120.085 62.0401 120.545 62.335 121.138C62.63 121.732 62.7775 122.424 62.7775 123.217C62.7775 124.005 62.63 124.695 62.335 125.285C62.0401 125.875 61.6258 126.334 61.0922 126.662C60.5585 126.99 59.9338 127.154 59.2179 127.154ZM59.2228 125.906C59.6868 125.906 60.0713 125.784 60.3762 125.538C60.6812 125.293 60.9065 124.967 61.0524 124.559C61.2015 124.151 61.2761 123.702 61.2761 123.212C61.2761 122.724 61.2015 122.277 61.0524 121.869C60.9065 121.458 60.6812 121.129 60.3762 120.88C60.0713 120.631 59.6868 120.507 59.2228 120.507C58.7555 120.507 58.3677 120.631 58.0595 120.88C57.7546 121.129 57.5275 121.458 57.3784 121.869C57.2325 122.277 57.1596 122.724 57.1596 123.212C57.1596 123.702 57.2325 124.151 57.3784 124.559C57.5275 124.967 57.7546 125.293 58.0595 125.538C58.3677 125.784 58.7555 125.906 59.2228 125.906ZM66.4233 122.466V127H64.9368V119.364H66.3636V120.607H66.4581C66.6338 120.202 66.9089 119.877 67.2834 119.632C67.6612 119.387 68.1368 119.264 68.7102 119.264C69.2306 119.264 69.6863 119.374 70.0774 119.592C70.4685 119.808 70.7718 120.129 70.9872 120.557C71.2027 120.984 71.3104 121.513 71.3104 122.143V127H69.8239V122.322C69.8239 121.768 69.6797 121.336 69.3913 121.024C69.103 120.709 68.7069 120.552 68.2031 120.552C67.8584 120.552 67.5518 120.626 67.2834 120.776C67.0182 120.925 66.8078 121.143 66.652 121.432C66.4995 121.717 66.4233 122.062 66.4233 122.466ZM76.6626 127.149C76.0462 127.149 75.496 126.992 75.0121 126.677C74.5315 126.359 74.1536 125.906 73.8786 125.32C73.6068 124.73 73.4709 124.022 73.4709 123.197C73.4709 122.371 73.6084 121.665 73.8835 121.079C74.1619 120.492 74.5431 120.043 75.027 119.732C75.5109 119.42 76.0594 119.264 76.6726 119.264C77.1465 119.264 77.5277 119.344 77.8161 119.503C78.1077 119.659 78.3331 119.841 78.4922 120.05C78.6546 120.259 78.7805 120.442 78.87 120.602H78.9595V116.818H80.446V127H78.9943V125.812H78.87C78.7805 125.974 78.6513 126.16 78.4822 126.369C78.3165 126.577 78.0878 126.76 77.7962 126.915C77.5045 127.071 77.1267 127.149 76.6626 127.149ZM76.9908 125.881C77.4183 125.881 77.7796 125.769 78.0746 125.543C78.3729 125.315 78.5982 124.998 78.7507 124.594C78.9065 124.189 78.9844 123.719 78.9844 123.182C78.9844 122.652 78.9081 122.187 78.7557 121.79C78.6032 121.392 78.3795 121.082 78.0845 120.86C77.7895 120.638 77.425 120.527 76.9908 120.527C76.5433 120.527 76.1705 120.643 75.8722 120.875C75.5739 121.107 75.3485 121.424 75.196 121.825C75.0469 122.226 74.9723 122.678 74.9723 123.182C74.9723 123.692 75.0485 124.151 75.201 124.559C75.3535 124.967 75.5788 125.29 75.8771 125.528C76.1787 125.764 76.55 125.881 76.9908 125.881ZM85.29 127.169C84.806 127.169 84.3685 127.08 83.9775 126.901C83.5864 126.718 83.2765 126.455 83.0478 126.11C82.8224 125.765 82.7097 125.343 82.7097 124.842C82.7097 124.411 82.7926 124.057 82.9583 123.778C83.124 123.5 83.3477 123.28 83.6294 123.117C83.9112 122.955 84.226 122.832 84.574 122.749C84.9221 122.666 85.2767 122.603 85.638 122.56C86.0953 122.507 86.4666 122.464 86.7516 122.431C87.0366 122.395 87.2438 122.337 87.373 122.257C87.5023 122.178 87.5669 122.048 87.5669 121.869V121.835C87.5669 121.4 87.4443 121.064 87.199 120.825C86.9571 120.587 86.5958 120.467 86.1152 120.467C85.6148 120.467 85.2203 120.578 84.932 120.8C84.647 121.019 84.4498 121.263 84.3404 121.531L82.9434 121.213C83.1091 120.749 83.351 120.375 83.6692 120.089C83.9907 119.801 84.3603 119.592 84.7779 119.463C85.1955 119.33 85.6346 119.264 86.0953 119.264C86.4003 119.264 86.7234 119.301 87.0648 119.374C87.4095 119.443 87.731 119.572 88.0293 119.761C88.3309 119.95 88.5778 120.22 88.7701 120.572C88.9623 120.92 89.0584 121.372 89.0584 121.929V127H87.6067V125.956H87.5471C87.4509 126.148 87.3068 126.337 87.1145 126.523C86.9223 126.708 86.6754 126.862 86.3738 126.985C86.0721 127.108 85.7109 127.169 85.29 127.169ZM85.6131 125.976C86.0241 125.976 86.3754 125.895 86.6671 125.732C86.9621 125.57 87.1858 125.358 87.3382 125.096C87.494 124.831 87.5719 124.547 87.5719 124.246V123.261C87.5189 123.314 87.4161 123.364 87.2637 123.411C87.1145 123.454 86.9438 123.492 86.7516 123.525C86.5594 123.555 86.3721 123.583 86.1898 123.609C86.0075 123.633 85.8551 123.652 85.7324 123.669C85.4441 123.705 85.1806 123.767 84.9419 123.853C84.7066 123.939 84.5177 124.063 84.3752 124.226C84.236 124.385 84.1664 124.597 84.1664 124.862C84.1664 125.23 84.3023 125.509 84.574 125.697C84.8458 125.883 85.1922 125.976 85.6131 125.976ZM91.5384 127V119.364H92.9751V120.577H93.0547C93.1939 120.166 93.4392 119.843 93.7905 119.607C94.1451 119.369 94.5462 119.249 94.9936 119.249C95.0864 119.249 95.1958 119.253 95.3217 119.259C95.451 119.266 95.5521 119.274 95.625 119.284V120.706C95.5653 120.689 95.4593 120.671 95.3068 120.651C95.1544 120.628 95.0019 120.616 94.8494 120.616C94.4981 120.616 94.1849 120.691 93.9098 120.84C93.638 120.986 93.4226 121.19 93.2635 121.452C93.1044 121.71 93.0249 122.005 93.0249 122.337V127H91.5384ZM98.5835 129.864C98.3614 129.864 98.1592 129.845 97.9769 129.809C97.7946 129.776 97.6587 129.739 97.5692 129.7L97.9272 128.482C98.199 128.554 98.4409 128.586 98.6531 128.576C98.8652 128.566 99.0524 128.487 99.2148 128.337C99.3806 128.188 99.5264 127.945 99.6523 127.607L99.8363 127.099L97.0423 119.364H98.6332L100.567 125.29H100.647L102.581 119.364H104.176L101.029 128.019C100.884 128.417 100.698 128.753 100.473 129.028C100.247 129.307 99.9788 129.516 99.6673 129.655C99.3557 129.794 98.9944 129.864 98.5835 129.864ZM118.855 120.129H117.303C117.244 119.798 117.133 119.506 116.97 119.254C116.808 119.002 116.609 118.789 116.374 118.613C116.138 118.437 115.875 118.305 115.583 118.215C115.295 118.126 114.988 118.081 114.664 118.081C114.077 118.081 113.552 118.228 113.088 118.523C112.627 118.818 112.262 119.251 111.994 119.821C111.729 120.391 111.596 121.087 111.596 121.909C111.596 122.738 111.729 123.437 111.994 124.007C112.262 124.577 112.628 125.008 113.093 125.3C113.557 125.591 114.079 125.737 114.659 125.737C114.98 125.737 115.285 125.694 115.573 125.608C115.865 125.518 116.128 125.388 116.364 125.215C116.599 125.043 116.798 124.832 116.96 124.584C117.126 124.332 117.24 124.044 117.303 123.719L118.855 123.724C118.772 124.224 118.611 124.685 118.372 125.106C118.137 125.523 117.834 125.885 117.463 126.19C117.095 126.491 116.674 126.725 116.2 126.891C115.726 127.056 115.209 127.139 114.649 127.139C113.767 127.139 112.981 126.93 112.292 126.513C111.603 126.092 111.059 125.49 110.661 124.708C110.267 123.926 110.07 122.993 110.07 121.909C110.07 120.822 110.269 119.889 110.666 119.11C111.064 118.328 111.608 117.728 112.297 117.31C112.986 116.889 113.77 116.679 114.649 116.679C115.189 116.679 115.693 116.757 116.16 116.913C116.631 117.065 117.053 117.29 117.428 117.589C117.802 117.884 118.112 118.245 118.357 118.673C118.603 119.097 118.768 119.582 118.855 120.129ZM124.29 127.154C123.574 127.154 122.949 126.99 122.416 126.662C121.882 126.334 121.468 125.875 121.173 125.285C120.878 124.695 120.73 124.005 120.73 123.217C120.73 122.424 120.878 121.732 121.173 121.138C121.468 120.545 121.882 120.085 122.416 119.756C122.949 119.428 123.574 119.264 124.29 119.264C125.006 119.264 125.631 119.428 126.164 119.756C126.698 120.085 127.112 120.545 127.407 121.138C127.702 121.732 127.85 122.424 127.85 123.217C127.85 124.005 127.702 124.695 127.407 125.285C127.112 125.875 126.698 126.334 126.164 126.662C125.631 126.99 125.006 127.154 124.29 127.154ZM124.295 125.906C124.759 125.906 125.144 125.784 125.449 125.538C125.753 125.293 125.979 124.967 126.125 124.559C126.274 124.151 126.348 123.702 126.348 123.212C126.348 122.724 126.274 122.277 126.125 121.869C125.979 121.458 125.753 121.129 125.449 120.88C125.144 120.631 124.759 120.507 124.295 120.507C123.828 120.507 123.44 120.631 123.132 120.88C122.827 121.129 122.6 121.458 122.451 121.869C122.305 122.277 122.232 122.724 122.232 123.212C122.232 123.702 122.305 124.151 122.451 124.559C122.6 124.967 122.827 125.293 123.132 125.538C123.44 125.784 123.828 125.906 124.295 125.906ZM131.496 122.466V127H130.009V119.364H131.436V120.607H131.53C131.706 120.202 131.981 119.877 132.356 119.632C132.733 119.387 133.209 119.264 133.782 119.264C134.303 119.264 134.759 119.374 135.15 119.592C135.541 119.808 135.844 120.129 136.059 120.557C136.275 120.984 136.383 121.513 136.383 122.143V127H134.896V122.322C134.896 121.768 134.752 121.336 134.464 121.024C134.175 120.709 133.779 120.552 133.275 120.552C132.931 120.552 132.624 120.626 132.356 120.776C132.09 120.925 131.88 121.143 131.724 121.432C131.572 121.717 131.496 122.062 131.496 122.466ZM142.441 119.364V120.557H138.27V119.364H142.441ZM139.388 117.534H140.875V124.758C140.875 125.046 140.918 125.263 141.004 125.409C141.09 125.552 141.201 125.649 141.337 125.702C141.476 125.752 141.627 125.777 141.79 125.777C141.909 125.777 142.013 125.769 142.103 125.752C142.192 125.736 142.262 125.722 142.312 125.712L142.58 126.94C142.494 126.973 142.371 127.007 142.212 127.04C142.053 127.076 141.854 127.096 141.616 127.099C141.224 127.106 140.86 127.036 140.522 126.891C140.184 126.745 139.91 126.519 139.702 126.214C139.493 125.91 139.388 125.527 139.388 125.066V117.534ZM146.808 127.169C146.324 127.169 145.886 127.08 145.495 126.901C145.104 126.718 144.794 126.455 144.565 126.11C144.34 125.765 144.227 125.343 144.227 124.842C144.227 124.411 144.31 124.057 144.476 123.778C144.642 123.5 144.865 123.28 145.147 123.117C145.429 122.955 145.744 122.832 146.092 122.749C146.44 122.666 146.794 122.603 147.156 122.56C147.613 122.507 147.984 122.464 148.269 122.431C148.554 122.395 148.761 122.337 148.891 122.257C149.02 122.178 149.085 122.048 149.085 121.869V121.835C149.085 121.4 148.962 121.064 148.717 120.825C148.475 120.587 148.113 120.467 147.633 120.467C147.132 120.467 146.738 120.578 146.45 120.8C146.165 121.019 145.967 121.263 145.858 121.531L144.461 121.213C144.627 120.749 144.869 120.375 145.187 120.089C145.508 119.801 145.878 119.592 146.295 119.463C146.713 119.33 147.152 119.264 147.613 119.264C147.918 119.264 148.241 119.301 148.582 119.374C148.927 119.443 149.249 119.572 149.547 119.761C149.848 119.95 150.095 120.22 150.288 120.572C150.48 120.92 150.576 121.372 150.576 121.929V127H149.124V125.956H149.065C148.969 126.148 148.824 126.337 148.632 126.523C148.44 126.708 148.193 126.862 147.891 126.985C147.59 127.108 147.228 127.169 146.808 127.169ZM147.131 125.976C147.542 125.976 147.893 125.895 148.185 125.732C148.48 125.57 148.703 125.358 148.856 125.096C149.012 124.831 149.089 124.547 149.089 124.246V123.261C149.036 123.314 148.934 123.364 148.781 123.411C148.632 123.454 148.461 123.492 148.269 123.525C148.077 123.555 147.89 123.583 147.707 123.609C147.525 123.633 147.373 123.652 147.25 123.669C146.962 123.705 146.698 123.767 146.46 123.853C146.224 123.939 146.035 124.063 145.893 124.226C145.754 124.385 145.684 124.597 145.684 124.862C145.684 125.23 145.82 125.509 146.092 125.697C146.363 125.883 146.71 125.976 147.131 125.976ZM153.056 127V119.364H154.542V127H153.056ZM153.807 118.185C153.548 118.185 153.326 118.099 153.14 117.927C152.958 117.751 152.867 117.542 152.867 117.3C152.867 117.055 152.958 116.846 153.14 116.674C153.326 116.498 153.548 116.411 153.807 116.411C154.065 116.411 154.286 116.498 154.468 116.674C154.653 116.846 154.746 117.055 154.746 117.3C154.746 117.542 154.653 117.751 154.468 117.927C154.286 118.099 154.065 118.185 153.807 118.185ZM158.529 122.466V127H157.042V119.364H158.469V120.607H158.564C158.739 120.202 159.014 119.877 159.389 119.632C159.767 119.387 160.242 119.264 160.816 119.264C161.336 119.264 161.792 119.374 162.183 119.592C162.574 119.808 162.877 120.129 163.093 120.557C163.308 120.984 163.416 121.513 163.416 122.143V127H161.929V122.322C161.929 121.768 161.785 121.336 161.497 121.024C161.208 120.709 160.812 120.552 160.309 120.552C159.964 120.552 159.657 120.626 159.389 120.776C159.124 120.925 158.913 121.143 158.757 121.432C158.605 121.717 158.529 122.062 158.529 122.466ZM169.201 127.154C168.448 127.154 167.8 126.993 167.257 126.672C166.717 126.347 166.299 125.891 166.004 125.305C165.712 124.715 165.566 124.024 165.566 123.232C165.566 122.449 165.712 121.76 166.004 121.163C166.299 120.567 166.71 120.101 167.237 119.766C167.767 119.432 168.387 119.264 169.096 119.264C169.527 119.264 169.945 119.335 170.349 119.478C170.753 119.621 171.116 119.844 171.438 120.149C171.759 120.454 172.013 120.85 172.199 121.337C172.384 121.821 172.477 122.41 172.477 123.102V123.629H166.407V122.516H171.02C171.02 122.125 170.941 121.778 170.782 121.477C170.623 121.172 170.399 120.931 170.11 120.756C169.825 120.58 169.491 120.492 169.106 120.492C168.689 120.492 168.324 120.595 168.012 120.8C167.704 121.003 167.466 121.268 167.297 121.596C167.131 121.921 167.048 122.274 167.048 122.655V123.525C167.048 124.035 167.137 124.469 167.316 124.827C167.499 125.185 167.752 125.459 168.077 125.648C168.402 125.833 168.781 125.926 169.216 125.926C169.497 125.926 169.754 125.886 169.986 125.807C170.218 125.724 170.419 125.601 170.588 125.439C170.757 125.277 170.886 125.076 170.975 124.837L172.382 125.091C172.27 125.505 172.068 125.868 171.776 126.18C171.488 126.488 171.125 126.728 170.687 126.901C170.253 127.07 169.757 127.154 169.201 127.154ZM174.626 127V119.364H176.063V120.577H176.143C176.282 120.166 176.527 119.843 176.878 119.607C177.233 119.369 177.634 119.249 178.081 119.249C178.174 119.249 178.284 119.253 178.41 119.259C178.539 119.266 178.64 119.274 178.713 119.284V120.706C178.653 120.689 178.547 120.671 178.395 120.651C178.242 120.628 178.09 120.616 177.937 120.616C177.586 120.616 177.273 120.691 176.998 120.84C176.726 120.986 176.51 121.19 176.351 121.452C176.192 121.71 176.113 122.005 176.113 122.337V127H174.626Z" fill="#1C1B1E"/>
<defs>
<filter id="filter0_d_824_1603" x="0" y="0" width="224" height="100" filterUnits="userSpaceOnUse" color-interpolation-filters="sRGB">
<feFlood flood-opacity="0" result="BackgroundImageFix"/>
<feColorMatrix in="SourceAlpha" type="matrix" values="0 0 0 0 0 0 0 0 0 0 0 0 0 0 0 0 0 0 127 0" result="hardAlpha"/>
<feOffset dy="1"/>
<feGaussianBlur stdDeviation="2"/>
<feComposite in2="hardAlpha" operator="out"/>
<feColorMatrix type="matrix" values="0 0 0 0 0 0 0 0 0 0 0 0 0 0 0 0 0 0 0.1 0"/>
<feBlend mode="normal" in2="BackgroundImageFix" result="effect1_dropShadow_824_1603"/>
<feBlend mode="normal" in="SourceGraphic" in2="effect1_dropShadow_824_1603" result="shape"/>
</filter>
</defs>
</svg>
