<svg width="224" height="133" viewBox="0 0 224 133" fill="none" xmlns="http://www.w3.org/2000/svg">
<g filter="url(#filter0_d_824_1641)">
<rect x="4" y="3" width="216" height="92" rx="8" fill="#1C1B1E"/>
</g>
<path d="M86.9893 54L88.6598 43.8182H89.853L88.1825 54H86.9893ZM82.3807 51.2756L82.5746 50.0824H90.2905L90.0966 51.2756H82.3807ZM83.4098 54L85.0803 43.8182H86.2734L84.603 54H83.4098ZM82.9723 47.7358L83.1662 46.5426H90.8821L90.6882 47.7358H82.9723ZM96.4283 43.8182V54H94.8871V45.3594H94.8274L92.3913 46.9503V45.4787L94.9318 43.8182H96.4283ZM108.278 47.1293H106.727C106.668 46.7978 106.557 46.5062 106.394 46.2543C106.232 46.0024 106.033 45.7886 105.798 45.6129C105.562 45.4373 105.299 45.3047 105.007 45.2152C104.719 45.1257 104.412 45.081 104.087 45.081C103.501 45.081 102.975 45.2285 102.511 45.5234C102.051 45.8184 101.686 46.2509 101.418 46.821C101.152 47.3911 101.02 48.0871 101.02 48.9091C101.02 49.7377 101.152 50.437 101.418 51.0071C101.686 51.5772 102.052 52.008 102.516 52.2997C102.98 52.5914 103.502 52.7372 104.082 52.7372C104.404 52.7372 104.709 52.6941 104.997 52.608C105.289 52.5185 105.552 52.3875 105.788 52.2152C106.023 52.0429 106.222 51.8324 106.384 51.5838C106.55 51.3319 106.664 51.0436 106.727 50.7188L108.278 50.7237C108.196 51.2242 108.035 51.6849 107.796 52.1058C107.561 52.5234 107.258 52.8847 106.886 53.1896C106.518 53.4912 106.098 53.7249 105.624 53.8906C105.15 54.0563 104.633 54.1392 104.072 54.1392C103.191 54.1392 102.405 53.9304 101.716 53.5128C101.027 53.0919 100.483 52.4903 100.085 51.7081C99.6908 50.9259 99.4936 49.9929 99.4936 48.9091C99.4936 47.822 99.6925 46.889 100.09 46.1101C100.488 45.3279 101.031 44.728 101.721 44.3104C102.41 43.8894 103.194 43.679 104.072 43.679C104.613 43.679 105.116 43.7569 105.584 43.9126C106.054 44.0651 106.477 44.2905 106.852 44.5888C107.226 44.8838 107.536 45.245 107.781 45.6726C108.027 46.0968 108.192 46.5824 108.278 47.1293ZM114.34 43.8182V54H112.799V45.3594H112.74L110.303 46.9503V45.4787L112.844 43.8182H114.34ZM117.734 54V43.8182H121.463C122.185 43.8182 122.783 43.9375 123.257 44.1761C123.731 44.4115 124.086 44.7313 124.321 45.1357C124.557 45.5367 124.674 45.9891 124.674 46.4929C124.674 46.9171 124.596 47.2751 124.441 47.5668C124.285 47.8551 124.076 48.0871 123.814 48.2628C123.556 48.4351 123.271 48.5611 122.959 48.6406V48.7401C123.297 48.7566 123.627 48.866 123.948 49.0682C124.273 49.267 124.542 49.5504 124.754 49.9183C124.966 50.2862 125.072 50.7337 125.072 51.2607C125.072 51.781 124.949 52.2483 124.704 52.6626C124.462 53.0736 124.088 53.4001 123.58 53.642C123.073 53.8807 122.425 54 121.637 54H117.734ZM119.27 52.6825H121.487C122.223 52.6825 122.75 52.54 123.068 52.255C123.387 51.9699 123.546 51.6136 123.546 51.1861C123.546 50.8646 123.464 50.5696 123.302 50.3011C123.14 50.0327 122.908 49.8189 122.606 49.6598C122.308 49.5007 121.953 49.4212 121.542 49.4212H119.27V52.6825ZM119.27 48.223H121.328C121.673 48.223 121.983 48.1567 122.258 48.0241C122.536 47.8916 122.757 47.706 122.919 47.4673C123.085 47.2254 123.168 46.9403 123.168 46.6122C123.168 46.1913 123.02 45.8383 122.725 45.5533C122.43 45.2682 121.978 45.1257 121.368 45.1257H119.27V48.223ZM131.118 43.8182V54H129.577V45.3594H129.517L127.081 46.9503V45.4787L129.621 43.8182H131.118ZM134.511 54V43.8182H140.895V45.1406H136.047V48.2429H140.562V49.5604H136.047V52.6776H140.954V54H134.511Z" fill="#FFFBFF"/>
<path d="M13.9631 121.909C13.9631 122.996 13.7642 123.931 13.3665 124.713C12.9688 125.492 12.4235 126.092 11.7308 126.513C11.0414 126.93 10.2576 127.139 9.37926 127.139C8.49763 127.139 7.71046 126.93 7.01776 126.513C6.32836 126.092 5.7848 125.49 5.38707 124.708C4.98935 123.926 4.79048 122.993 4.79048 121.909C4.79048 120.822 4.98935 119.889 5.38707 119.11C5.7848 118.328 6.32836 117.728 7.01776 117.31C7.71046 116.889 8.49763 116.679 9.37926 116.679C10.2576 116.679 11.0414 116.889 11.7308 117.31C12.4235 117.728 12.9688 118.328 13.3665 119.11C13.7642 119.889 13.9631 120.822 13.9631 121.909ZM12.4418 121.909C12.4418 121.08 12.3075 120.383 12.0391 119.816C11.7739 119.246 11.4093 118.815 10.9453 118.523C10.4846 118.228 9.96259 118.081 9.37926 118.081C8.79261 118.081 8.26894 118.228 7.80824 118.523C7.34754 118.815 6.98295 119.246 6.71449 119.816C6.44934 120.383 6.31676 121.08 6.31676 121.909C6.31676 122.738 6.44934 123.437 6.71449 124.007C6.98295 124.574 7.34754 125.005 7.80824 125.3C8.26894 125.591 8.79261 125.737 9.37926 125.737C9.96259 125.737 10.4846 125.591 10.9453 125.3C11.4093 125.005 11.7739 124.574 12.0391 124.007C12.3075 123.437 12.4418 122.738 12.4418 121.909ZM17.7456 122.466V127H16.2591V119.364H17.6859V120.607H17.7804C17.956 120.202 18.2311 119.877 18.6056 119.632C18.9835 119.387 19.4591 119.264 20.0325 119.264C20.5529 119.264 21.0086 119.374 21.3997 119.592C21.7908 119.808 22.094 120.129 22.3095 120.557C22.5249 120.984 22.6326 121.513 22.6326 122.143V127H21.1461V122.322C21.1461 121.768 21.002 121.336 20.7136 121.024C20.4252 120.709 20.0292 120.552 19.5254 120.552C19.1807 120.552 18.8741 120.626 18.6056 120.776C18.3405 120.925 18.13 121.143 17.9743 121.432C17.8218 121.717 17.7456 122.062 17.7456 122.466ZM29.4506 127V116.818H33.1793C33.9019 116.818 34.5001 116.937 34.9741 117.176C35.448 117.411 35.8027 117.731 36.038 118.136C36.2733 118.537 36.391 118.989 36.391 119.493C36.391 119.917 36.3131 120.275 36.1573 120.567C36.0015 120.855 35.7927 121.087 35.5309 121.263C35.2724 121.435 34.9873 121.561 34.6758 121.641V121.74C35.0138 121.757 35.3436 121.866 35.6651 122.068C35.9899 122.267 36.2584 122.55 36.4705 122.918C36.6826 123.286 36.7887 123.734 36.7887 124.261C36.7887 124.781 36.6661 125.248 36.4208 125.663C36.1789 126.074 35.8043 126.4 35.2972 126.642C34.7901 126.881 34.1422 127 33.3533 127H29.4506ZM30.9869 125.683H33.2042C33.94 125.683 34.467 125.54 34.7852 125.255C35.1033 124.97 35.2624 124.614 35.2624 124.186C35.2624 123.865 35.1812 123.57 35.0188 123.301C34.8564 123.033 34.6244 122.819 34.3228 122.66C34.0245 122.501 33.6699 122.421 33.2589 122.421H30.9869V125.683ZM30.9869 121.223H33.0451C33.3898 121.223 33.6997 121.157 33.9748 121.024C34.2532 120.892 34.4736 120.706 34.636 120.467C34.8017 120.225 34.8846 119.94 34.8846 119.612C34.8846 119.191 34.7371 118.838 34.4421 118.553C34.1471 118.268 33.6947 118.126 33.0849 118.126H30.9869V121.223ZM41.2138 127.169C40.7299 127.169 40.2924 127.08 39.9013 126.901C39.5102 126.718 39.2003 126.455 38.9716 126.11C38.7462 125.765 38.6335 125.343 38.6335 124.842C38.6335 124.411 38.7164 124.057 38.8821 123.778C39.0478 123.5 39.2715 123.28 39.5533 123.117C39.835 122.955 40.1499 122.832 40.4979 122.749C40.8459 122.666 41.2005 122.603 41.5618 122.56C42.0192 122.507 42.3904 122.464 42.6754 122.431C42.9605 122.395 43.1676 122.337 43.2969 122.257C43.4261 122.178 43.4908 122.048 43.4908 121.869V121.835C43.4908 121.4 43.3681 121.064 43.1229 120.825C42.8809 120.587 42.5196 120.467 42.0391 120.467C41.5386 120.467 41.1442 120.578 40.8558 120.8C40.5708 121.019 40.3736 121.263 40.2642 121.531L38.8672 121.213C39.0329 120.749 39.2749 120.375 39.593 120.089C39.9145 119.801 40.2841 119.592 40.7017 119.463C41.1193 119.33 41.5585 119.264 42.0192 119.264C42.3241 119.264 42.6473 119.301 42.9886 119.374C43.3333 119.443 43.6548 119.572 43.9531 119.761C44.2547 119.95 44.5017 120.22 44.6939 120.572C44.8861 120.92 44.9822 121.372 44.9822 121.929V127H43.5305V125.956H43.4709C43.3748 126.148 43.2306 126.337 43.0384 126.523C42.8461 126.708 42.5992 126.862 42.2976 126.985C41.996 127.108 41.6347 127.169 41.2138 127.169ZM41.5369 125.976C41.9479 125.976 42.2992 125.895 42.5909 125.732C42.8859 125.57 43.1096 125.358 43.2621 125.096C43.4179 124.831 43.4957 124.547 43.4957 124.246V123.261C43.4427 123.314 43.34 123.364 43.1875 123.411C43.0384 123.454 42.8677 123.492 42.6754 123.525C42.4832 123.555 42.2959 123.583 42.1136 123.609C41.9313 123.633 41.7789 123.652 41.6562 123.669C41.3679 123.705 41.1044 123.767 40.8658 123.853C40.6304 123.939 40.4415 124.063 40.299 124.226C40.1598 124.385 40.0902 124.597 40.0902 124.862C40.0902 125.23 40.2261 125.509 40.4979 125.697C40.7696 125.883 41.116 125.976 41.5369 125.976ZM50.6788 127.154C49.9397 127.154 49.3033 126.987 48.7697 126.652C48.2394 126.314 47.8317 125.848 47.5467 125.255C47.2617 124.662 47.1191 123.982 47.1191 123.217C47.1191 122.441 47.265 121.757 47.5566 121.163C47.8483 120.567 48.2593 120.101 48.7896 119.766C49.3199 119.432 49.9447 119.264 50.6639 119.264C51.2439 119.264 51.7609 119.372 52.215 119.587C52.6691 119.799 53.0353 120.098 53.3137 120.482C53.5955 120.867 53.7628 121.316 53.8159 121.83H52.3691C52.2896 121.472 52.1073 121.163 51.8223 120.905C51.5405 120.646 51.1627 120.517 50.6887 120.517C50.2744 120.517 49.9115 120.626 49.6 120.845C49.2917 121.061 49.0514 121.369 48.8791 121.77C48.7067 122.168 48.6206 122.638 48.6206 123.182C48.6206 123.739 48.7051 124.219 48.8741 124.624C49.0431 125.028 49.2818 125.341 49.59 125.563C49.9016 125.785 50.2678 125.896 50.6887 125.896C50.9705 125.896 51.2257 125.845 51.4544 125.742C51.6864 125.636 51.8803 125.485 52.036 125.29C52.1951 125.094 52.3062 124.859 52.3691 124.584H53.8159C53.7628 125.078 53.6021 125.518 53.3336 125.906C53.0652 126.294 52.7056 126.599 52.2548 126.821C51.8074 127.043 51.282 127.154 50.6788 127.154ZM57.2727 124.41L57.2628 122.595H57.5213L60.5639 119.364H62.3438L58.8736 123.043H58.6399L57.2727 124.41ZM55.9055 127V116.818H57.392V127H55.9055ZM60.728 127L57.9936 123.371L59.0178 122.332L62.5526 127H60.728ZM67.0858 130.023C66.4792 130.023 65.9572 129.943 65.5197 129.784C65.0855 129.625 64.7309 129.415 64.4558 129.153C64.1807 128.891 63.9752 128.604 63.8393 128.293L65.117 127.766C65.2065 127.911 65.3258 128.066 65.475 128.228C65.6274 128.394 65.8329 128.535 66.0914 128.651C66.3533 128.767 66.6897 128.825 67.1007 128.825C67.6641 128.825 68.1298 128.687 68.4977 128.412C68.8656 128.14 69.0495 127.706 69.0495 127.109V125.608H68.9551C68.8656 125.77 68.7363 125.951 68.5673 126.15C68.4016 126.349 68.1729 126.521 67.8812 126.667C67.5895 126.813 67.21 126.886 66.7427 126.886C66.1395 126.886 65.5959 126.745 65.112 126.463C64.6315 126.178 64.2503 125.759 63.9686 125.205C63.6902 124.648 63.551 123.964 63.551 123.152C63.551 122.34 63.6885 121.644 63.9636 121.064C64.242 120.484 64.6232 120.04 65.1071 119.732C65.591 119.42 66.1395 119.264 66.7527 119.264C67.2266 119.264 67.6094 119.344 67.9011 119.503C68.1928 119.659 68.4198 119.841 68.5822 120.05C68.7479 120.259 68.8755 120.442 68.965 120.602H69.0744V119.364H70.5311V127.169C70.5311 127.825 70.3786 128.364 70.0737 128.785C69.7688 129.206 69.3561 129.517 68.8358 129.719C68.3187 129.922 67.7354 130.023 67.0858 130.023ZM67.0708 125.653C67.4984 125.653 67.8597 125.553 68.1547 125.354C68.4529 125.152 68.6783 124.864 68.8308 124.489C68.9866 124.112 69.0645 123.659 69.0645 123.132C69.0645 122.618 68.9882 122.166 68.8358 121.775C68.6833 121.384 68.4596 121.079 68.1646 120.86C67.8696 120.638 67.505 120.527 67.0708 120.527C66.6234 120.527 66.2505 120.643 65.9522 120.875C65.6539 121.104 65.4286 121.415 65.2761 121.81C65.127 122.204 65.0524 122.645 65.0524 123.132C65.0524 123.633 65.1286 124.072 65.2811 124.45C65.4335 124.827 65.6589 125.122 65.9572 125.335C66.2588 125.547 66.63 125.653 67.0708 125.653ZM73.0247 127V119.364H74.4615V120.577H74.541C74.6802 120.166 74.9255 119.843 75.2768 119.607C75.6315 119.369 76.0325 119.249 76.4799 119.249C76.5727 119.249 76.6821 119.253 76.8081 119.259C76.9373 119.266 77.0384 119.274 77.1113 119.284V120.706C77.0517 120.689 76.9456 120.671 76.7931 120.651C76.6407 120.628 76.4882 120.616 76.3358 120.616C75.9844 120.616 75.6712 120.691 75.3961 120.84C75.1243 120.986 74.9089 121.19 74.7498 121.452C74.5907 121.71 74.5112 122.005 74.5112 122.337V127H73.0247ZM81.8409 127.154C81.125 127.154 80.5002 126.99 79.9666 126.662C79.433 126.334 79.0187 125.875 78.7237 125.285C78.4287 124.695 78.2812 124.005 78.2812 123.217C78.2812 122.424 78.4287 121.732 78.7237 121.138C79.0187 120.545 79.433 120.085 79.9666 119.756C80.5002 119.428 81.125 119.264 81.8409 119.264C82.5568 119.264 83.1816 119.428 83.7152 119.756C84.2488 120.085 84.6631 120.545 84.9581 121.138C85.2531 121.732 85.4006 122.424 85.4006 123.217C85.4006 124.005 85.2531 124.695 84.9581 125.285C84.6631 125.875 84.2488 126.334 83.7152 126.662C83.1816 126.99 82.5568 127.154 81.8409 127.154ZM81.8459 125.906C82.3099 125.906 82.6944 125.784 82.9993 125.538C83.3042 125.293 83.5296 124.967 83.6754 124.559C83.8246 124.151 83.8991 123.702 83.8991 123.212C83.8991 122.724 83.8246 122.277 83.6754 121.869C83.5296 121.458 83.3042 121.129 82.9993 120.88C82.6944 120.631 82.3099 120.507 81.8459 120.507C81.3786 120.507 80.9908 120.631 80.6825 120.88C80.3776 121.129 80.1506 121.458 80.0014 121.869C79.8556 122.277 79.7827 122.724 79.7827 123.212C79.7827 123.702 79.8556 124.151 80.0014 124.559C80.1506 124.967 80.3776 125.293 80.6825 125.538C80.9908 125.784 81.3786 125.906 81.8459 125.906ZM92.3972 123.833V119.364H93.8887V127H92.427V125.678H92.3475C92.1718 126.085 91.8901 126.425 91.5023 126.697C91.1178 126.965 90.6389 127.099 90.0655 127.099C89.575 127.099 89.1408 126.992 88.763 126.776C88.3884 126.558 88.0935 126.234 87.878 125.807C87.6659 125.379 87.5598 124.851 87.5598 124.221V119.364H89.0463V124.042C89.0463 124.562 89.1905 124.977 89.4789 125.285C89.7672 125.593 90.1417 125.747 90.6025 125.747C90.8809 125.747 91.1576 125.678 91.4327 125.538C91.7111 125.399 91.9415 125.189 92.1238 124.907C92.3094 124.625 92.4005 124.267 92.3972 123.833ZM97.8725 122.466V127H96.386V119.364H97.8129V120.607H97.9073C98.083 120.202 98.3581 119.877 98.7326 119.632C99.1104 119.387 99.5861 119.264 100.159 119.264C100.68 119.264 101.136 119.374 101.527 119.592C101.918 119.808 102.221 120.129 102.436 120.557C102.652 120.984 102.76 121.513 102.76 122.143V127H101.273V122.322C101.273 121.768 101.129 121.336 100.841 121.024C100.552 120.709 100.156 120.552 99.6523 120.552C99.3076 120.552 99.0011 120.626 98.7326 120.776C98.4674 120.925 98.257 121.143 98.1012 121.432C97.9487 121.717 97.8725 122.062 97.8725 122.466ZM108.112 127.149C107.495 127.149 106.945 126.992 106.461 126.677C105.981 126.359 105.603 125.906 105.328 125.32C105.056 124.73 104.92 124.022 104.92 123.197C104.92 122.371 105.058 121.665 105.333 121.079C105.611 120.492 105.992 120.043 106.476 119.732C106.96 119.42 107.509 119.264 108.122 119.264C108.596 119.264 108.977 119.344 109.265 119.503C109.557 119.659 109.782 119.841 109.941 120.05C110.104 120.259 110.23 120.442 110.319 120.602H110.409V116.818H111.895V127H110.444V125.812H110.319C110.23 125.974 110.1 126.16 109.931 126.369C109.766 126.577 109.537 126.76 109.245 126.915C108.954 127.071 108.576 127.149 108.112 127.149ZM108.44 125.881C108.868 125.881 109.229 125.769 109.524 125.543C109.822 125.315 110.047 124.998 110.2 124.594C110.356 124.189 110.434 123.719 110.434 123.182C110.434 122.652 110.357 122.187 110.205 121.79C110.052 121.392 109.829 121.082 109.534 120.86C109.239 120.638 108.874 120.527 108.44 120.527C107.993 120.527 107.62 120.643 107.321 120.875C107.023 121.107 106.798 121.424 106.645 121.825C106.496 122.226 106.422 122.678 106.422 123.182C106.422 123.692 106.498 124.151 106.65 124.559C106.803 124.967 107.028 125.29 107.326 125.528C107.628 125.764 107.999 125.881 108.44 125.881Z" fill="#1C1B1E"/>
<defs>
<filter id="filter0_d_824_1641" x="0" y="0" width="224" height="100" filterUnits="userSpaceOnUse" color-interpolation-filters="sRGB">
<feFlood flood-opacity="0" result="BackgroundImageFix"/>
<feColorMatrix in="SourceAlpha" type="matrix" values="0 0 0 0 0 0 0 0 0 0 0 0 0 0 0 0 0 0 127 0" result="hardAlpha"/>
<feOffset dy="1"/>
<feGaussianBlur stdDeviation="2"/>
<feComposite in2="hardAlpha" operator="out"/>
<feColorMatrix type="matrix" values="0 0 0 0 0 0 0 0 0 0 0 0 0 0 0 0 0 0 0.1 0"/>
<feBlend mode="normal" in2="BackgroundImageFix" result="effect1_dropShadow_824_1641"/>
<feBlend mode="normal" in="SourceGraphic" in2="effect1_dropShadow_824_1641" result="shape"/>
</filter>
</defs>
</svg>
