<svg width="224" height="133" viewBox="0 0 224 133" fill="none" xmlns="http://www.w3.org/2000/svg">
<g filter="url(#filter0_d_824_1660)">
<rect x="4" y="3" width="216" height="92" rx="8" fill="#79757F"/>
</g>
<path d="M86.0802 54L87.7506 43.8182H88.9438L87.2733 54H86.0802ZM81.4715 51.2756L81.6654 50.0824H89.3813L89.1874 51.2756H81.4715ZM82.5006 54L84.1711 43.8182H85.3643L83.6938 54H82.5006ZM82.0631 47.7358L82.257 46.5426H89.9729L89.779 47.7358H82.0631ZM91.9992 54L96.4438 45.2102V45.1357H91.3032V43.8182H98.0347V45.1804L93.605 54H91.9992ZM103.513 43.679C103.967 43.6823 104.414 43.7652 104.855 43.9276C105.296 44.09 105.693 44.3551 106.048 44.723C106.406 45.0909 106.691 45.5881 106.903 46.2145C107.119 46.8376 107.228 47.6132 107.231 48.5412C107.231 49.4328 107.142 50.2266 106.963 50.9226C106.784 51.6153 106.527 52.2003 106.192 52.6776C105.861 53.1548 105.458 53.5178 104.984 53.7663C104.51 54.0149 103.977 54.1392 103.383 54.1392C102.777 54.1392 102.238 54.0199 101.767 53.7812C101.297 53.5426 100.914 53.2128 100.619 52.7919C100.324 52.3677 100.14 51.8804 100.067 51.3303H101.584C101.683 51.7678 101.885 52.1224 102.19 52.3942C102.498 52.6626 102.896 52.7969 103.383 52.7969C104.129 52.7969 104.711 52.4721 105.128 51.8224C105.546 51.1695 105.756 50.258 105.76 49.0881H105.68C105.508 49.3731 105.292 49.6184 105.034 49.8239C104.779 50.0294 104.492 50.1884 104.174 50.3011C103.856 50.4138 103.516 50.4702 103.155 50.4702C102.568 50.4702 102.034 50.326 101.554 50.0376C101.073 49.7493 100.69 49.3532 100.405 48.8494C100.12 48.3456 99.9777 47.7706 99.9777 47.1243C99.9777 46.4813 100.124 45.898 100.415 45.3743C100.71 44.8506 101.121 44.4363 101.648 44.1314C102.178 43.8232 102.8 43.6723 103.513 43.679ZM103.517 44.9716C103.13 44.9716 102.78 45.0677 102.468 45.2599C102.16 45.4489 101.917 45.7057 101.738 46.0305C101.559 46.352 101.469 46.71 101.469 47.1044C101.469 47.4988 101.555 47.8568 101.728 48.1783C101.903 48.4964 102.142 48.75 102.444 48.9389C102.749 49.1245 103.097 49.2173 103.488 49.2173C103.779 49.2173 104.051 49.161 104.303 49.0483C104.555 48.9356 104.775 48.7798 104.964 48.581C105.153 48.3788 105.301 48.1501 105.407 47.8949C105.513 47.6397 105.566 47.3712 105.566 47.0895C105.566 46.715 105.476 46.367 105.297 46.0455C105.122 45.724 104.88 45.4654 104.571 45.2699C104.263 45.071 103.912 44.9716 103.517 44.9716ZM109.597 54L114.041 45.2102V45.1357H108.901V43.8182H115.632V45.1804L111.203 54H109.597ZM121.085 54.1392C120.462 54.1392 119.902 54.0199 119.405 53.7812C118.911 53.5393 118.517 53.2079 118.222 52.7869C117.927 52.366 117.769 51.8854 117.749 51.3452H119.241C119.277 51.7827 119.471 52.1423 119.823 52.424C120.174 52.7057 120.595 52.8466 121.085 52.8466C121.476 52.8466 121.823 52.7571 122.124 52.5781C122.429 52.3958 122.668 52.1456 122.84 51.8274C123.016 51.5092 123.104 51.1463 123.104 50.7386C123.104 50.3243 123.014 49.9548 122.835 49.63C122.656 49.3052 122.409 49.05 122.095 48.8643C121.783 48.6787 121.425 48.5843 121.021 48.581C120.712 48.581 120.403 48.634 120.091 48.7401C119.779 48.8461 119.528 48.9853 119.335 49.1577L117.928 48.9489L118.5 43.8182H124.098V45.1357H119.778L119.455 47.9844H119.514C119.713 47.7921 119.977 47.6314 120.305 47.5021C120.636 47.3729 120.991 47.3082 121.369 47.3082C121.988 47.3082 122.54 47.4557 123.024 47.7507C123.511 48.0457 123.894 48.4484 124.173 48.9588C124.454 49.4659 124.594 50.0492 124.59 50.7088C124.594 51.3684 124.444 51.9567 124.143 52.4737C123.845 52.9908 123.43 53.3984 122.9 53.6967C122.373 53.9917 121.768 54.1392 121.085 54.1392ZM127.249 54L131.694 45.2102V45.1357H126.553V43.8182H133.285V45.1804L128.855 54H127.249ZM135.653 54V43.8182H141.967V45.1406H137.189V48.2429H141.514V49.5604H137.189V54H135.653Z" fill="#FFFBFF"/>
<path d="M13.9631 121.909C13.9631 122.996 13.7642 123.931 13.3665 124.713C12.9688 125.492 12.4235 126.092 11.7308 126.513C11.0414 126.93 10.2576 127.139 9.37926 127.139C8.49763 127.139 7.71046 126.93 7.01776 126.513C6.32836 126.092 5.7848 125.49 5.38707 124.708C4.98935 123.926 4.79048 122.993 4.79048 121.909C4.79048 120.822 4.98935 119.889 5.38707 119.11C5.7848 118.328 6.32836 117.728 7.01776 117.31C7.71046 116.889 8.49763 116.679 9.37926 116.679C10.2576 116.679 11.0414 116.889 11.7308 117.31C12.4235 117.728 12.9688 118.328 13.3665 119.11C13.7642 119.889 13.9631 120.822 13.9631 121.909ZM12.4418 121.909C12.4418 121.08 12.3075 120.383 12.0391 119.816C11.7739 119.246 11.4093 118.815 10.9453 118.523C10.4846 118.228 9.96259 118.081 9.37926 118.081C8.79261 118.081 8.26894 118.228 7.80824 118.523C7.34754 118.815 6.98295 119.246 6.71449 119.816C6.44934 120.383 6.31676 121.08 6.31676 121.909C6.31676 122.738 6.44934 123.437 6.71449 124.007C6.98295 124.574 7.34754 125.005 7.80824 125.3C8.26894 125.591 8.79261 125.737 9.37926 125.737C9.96259 125.737 10.4846 125.591 10.9453 125.3C11.4093 125.005 11.7739 124.574 12.0391 124.007C12.3075 123.437 12.4418 122.738 12.4418 121.909ZM21.0964 123.833V119.364H22.5879V127H21.1262V125.678H21.0467C20.871 126.085 20.5893 126.425 20.2015 126.697C19.8171 126.965 19.3381 127.099 18.7647 127.099C18.2742 127.099 17.84 126.992 17.4622 126.776C17.0877 126.558 16.7927 126.234 16.5772 125.807C16.3651 125.379 16.2591 124.851 16.2591 124.221V119.364H17.7456V124.042C17.7456 124.562 17.8897 124.977 18.1781 125.285C18.4664 125.593 18.841 125.747 19.3017 125.747C19.5801 125.747 19.8568 125.678 20.1319 125.538C20.4103 125.399 20.6407 125.189 20.823 124.907C21.0086 124.625 21.0997 124.267 21.0964 123.833ZM28.6499 119.364V120.557H24.4787V119.364H28.6499ZM25.5973 117.534H27.0838V124.758C27.0838 125.046 27.1269 125.263 27.2131 125.409C27.2992 125.552 27.4103 125.649 27.5462 125.702C27.6854 125.752 27.8362 125.777 27.9986 125.777C28.1179 125.777 28.2223 125.769 28.3118 125.752C28.4013 125.736 28.4709 125.722 28.5206 125.712L28.7891 126.94C28.7029 126.973 28.5803 127.007 28.4212 127.04C28.2621 127.076 28.0632 127.096 27.8246 127.099C27.4335 127.106 27.0689 127.036 26.7308 126.891C26.3928 126.745 26.1193 126.519 25.9105 126.214C25.7017 125.91 25.5973 125.527 25.5973 125.066V117.534ZM32.4448 116.818V127H30.9583V116.818H32.4448ZM34.9446 127V119.364H36.4311V127H34.9446ZM35.6953 118.185C35.4368 118.185 35.2147 118.099 35.0291 117.927C34.8468 117.751 34.7557 117.542 34.7557 117.3C34.7557 117.055 34.8468 116.846 35.0291 116.674C35.2147 116.498 35.4368 116.411 35.6953 116.411C35.9538 116.411 36.1742 116.498 36.3565 116.674C36.5421 116.846 36.6349 117.055 36.6349 117.3C36.6349 117.542 36.5421 117.751 36.3565 117.927C36.1742 118.099 35.9538 118.185 35.6953 118.185ZM40.4174 122.466V127H38.9309V119.364H40.3578V120.607H40.4522C40.6279 120.202 40.903 119.877 41.2775 119.632C41.6554 119.387 42.131 119.264 42.7044 119.264C43.2247 119.264 43.6805 119.374 44.0716 119.592C44.4627 119.808 44.7659 120.129 44.9814 120.557C45.1968 120.984 45.3045 121.513 45.3045 122.143V127H43.818V122.322C43.818 121.768 43.6738 121.336 43.3855 121.024C43.0971 120.709 42.7011 120.552 42.1973 120.552C41.8526 120.552 41.546 120.626 41.2775 120.776C41.0124 120.925 40.8019 121.143 40.6461 121.432C40.4937 121.717 40.4174 122.062 40.4174 122.466ZM51.0893 127.154C50.3369 127.154 49.689 126.993 49.1454 126.672C48.6052 126.347 48.1876 125.891 47.8926 125.305C47.6009 124.715 47.4551 124.024 47.4551 123.232C47.4551 122.449 47.6009 121.76 47.8926 121.163C48.1876 120.567 48.5985 120.101 49.1255 119.766C49.6558 119.432 50.2756 119.264 50.9849 119.264C51.4158 119.264 51.8334 119.335 52.2377 119.478C52.6421 119.621 53.005 119.844 53.3265 120.149C53.648 120.454 53.9016 120.85 54.0872 121.337C54.2728 121.821 54.3656 122.41 54.3656 123.102V123.629H48.2953V122.516H52.9089C52.9089 122.125 52.8294 121.778 52.6703 121.477C52.5112 121.172 52.2875 120.931 51.9991 120.756C51.7141 120.58 51.3793 120.492 50.9949 120.492C50.5772 120.492 50.2127 120.595 49.9011 120.8C49.5929 121.003 49.3542 121.268 49.1852 121.596C49.0195 121.921 48.9366 122.274 48.9366 122.655V123.525C48.9366 124.035 49.0261 124.469 49.2051 124.827C49.3874 125.185 49.6409 125.459 49.9657 125.648C50.2905 125.833 50.67 125.926 51.1042 125.926C51.3859 125.926 51.6428 125.886 51.8748 125.807C52.1068 125.724 52.3074 125.601 52.4764 125.439C52.6454 125.277 52.7747 125.076 52.8642 124.837L54.2711 125.091C54.1584 125.505 53.9563 125.868 53.6646 126.18C53.3762 126.488 53.0133 126.728 52.5758 126.901C52.1416 127.07 51.6461 127.154 51.0893 127.154Z" fill="#1C1B1E"/>
<defs>
<filter id="filter0_d_824_1660" x="0" y="0" width="224" height="100" filterUnits="userSpaceOnUse" color-interpolation-filters="sRGB">
<feFlood flood-opacity="0" result="BackgroundImageFix"/>
<feColorMatrix in="SourceAlpha" type="matrix" values="0 0 0 0 0 0 0 0 0 0 0 0 0 0 0 0 0 0 127 0" result="hardAlpha"/>
<feOffset dy="1"/>
<feGaussianBlur stdDeviation="2"/>
<feComposite in2="hardAlpha" operator="out"/>
<feColorMatrix type="matrix" values="0 0 0 0 0 0 0 0 0 0 0 0 0 0 0 0 0 0 0.1 0"/>
<feBlend mode="normal" in2="BackgroundImageFix" result="effect1_dropShadow_824_1660"/>
<feBlend mode="normal" in="SourceGraphic" in2="effect1_dropShadow_824_1660" result="shape"/>
</filter>
</defs>
</svg>
