<svg width="224" height="133" viewBox="0 0 224 133" fill="none" xmlns="http://www.w3.org/2000/svg">
<g filter="url(#filter0_d_824_1600)">
<rect x="4" y="3" width="216" height="92" rx="8" fill="#605B70"/>
</g>
<path d="M85.0079 54L86.6784 43.8182H87.8715L86.2011 54H85.0079ZM80.3992 51.2756L80.5931 50.0824H88.309L88.1151 51.2756H80.3992ZM81.4284 54L83.0988 43.8182H84.292L82.6215 54H81.4284ZM80.9909 47.7358L81.1847 46.5426H88.9007L88.7068 47.7358H80.9909ZM94.1386 54.1392C93.6845 54.1326 93.2371 54.0497 92.7963 53.8906C92.3588 53.7315 91.961 53.4664 91.6031 53.0952C91.2451 52.724 90.9584 52.2251 90.743 51.5987C90.5309 50.9723 90.4248 50.1901 90.4248 49.2521C90.4248 48.3639 90.5126 47.575 90.6883 46.8857C90.8673 46.1963 91.1241 45.6146 91.4589 45.1406C91.7936 44.6634 92.198 44.3004 92.672 44.0518C93.1459 43.8033 93.6779 43.679 94.2678 43.679C94.8744 43.679 95.413 43.7983 95.8836 44.0369C96.3543 44.2756 96.7354 44.6054 97.0271 45.0263C97.3221 45.4472 97.5093 45.9261 97.5889 46.4631H96.0725C95.9698 46.0388 95.766 45.6925 95.461 45.424C95.1561 45.1555 94.7584 45.0213 94.2678 45.0213C93.5221 45.0213 92.9404 45.3461 92.5228 45.9957C92.1085 46.6454 91.8997 47.5485 91.8964 48.7053H91.971C92.1466 48.4169 92.3621 48.1716 92.6173 47.9695C92.8758 47.764 93.1642 47.6065 93.4823 47.4972C93.8038 47.3845 94.1419 47.3281 94.4965 47.3281C95.0865 47.3281 95.6201 47.4723 96.0974 47.7607C96.578 48.0457 96.9608 48.4401 97.2458 48.9439C97.5309 49.4477 97.6734 50.0244 97.6734 50.674C97.6734 51.3236 97.5259 51.9119 97.2309 52.4389C96.9392 52.9659 96.5283 53.3835 95.998 53.6918C95.4677 53.9967 94.8479 54.1458 94.1386 54.1392ZM94.1336 52.8466C94.5247 52.8466 94.8744 52.7505 95.1826 52.5582C95.4909 52.366 95.7345 52.1075 95.9134 51.7827C96.0924 51.4579 96.1819 51.0949 96.1819 50.6939C96.1819 50.3028 96.0941 49.9465 95.9184 49.625C95.7461 49.3035 95.5074 49.0483 95.2025 48.8594C94.9009 48.6705 94.5562 48.576 94.1684 48.576C93.8734 48.576 93.6 48.6323 93.3481 48.745C93.0995 48.8577 92.8808 49.0135 92.6919 49.2124C92.5029 49.4112 92.3538 49.6399 92.2444 49.8984C92.1383 50.1536 92.0853 50.4238 92.0853 50.7088C92.0853 51.09 92.1731 51.4429 92.3488 51.7678C92.5278 52.0926 92.7714 52.3544 93.0796 52.5533C93.3912 52.7488 93.7425 52.8466 94.1336 52.8466ZM103.529 54.169C102.744 54.1657 102.072 53.9586 101.516 53.5476C100.959 53.1366 100.533 52.5384 100.238 51.7528C99.9429 50.9673 99.7954 50.0211 99.7954 48.9141C99.7954 47.8104 99.9429 46.8674 100.238 46.0852C100.536 45.303 100.964 44.7064 101.521 44.2955C102.081 43.8845 102.75 43.679 103.529 43.679C104.308 43.679 104.976 43.8861 105.533 44.3004C106.089 44.7114 106.515 45.308 106.81 46.0902C107.109 46.8691 107.258 47.8104 107.258 48.9141C107.258 50.0244 107.11 50.9723 106.815 51.7578C106.52 52.54 106.094 53.1383 105.538 53.5526C104.981 53.9635 104.311 54.169 103.529 54.169ZM103.529 52.8416C104.218 52.8416 104.757 52.5052 105.145 51.8324C105.536 51.1596 105.731 50.1868 105.731 48.9141C105.731 48.0689 105.642 47.3546 105.463 46.7713C105.287 46.1847 105.034 45.7405 104.702 45.4389C104.374 45.134 103.983 44.9815 103.529 44.9815C102.843 44.9815 102.304 45.3196 101.913 45.9957C101.522 46.6719 101.325 47.6446 101.322 48.9141C101.322 49.7625 101.409 50.4801 101.585 51.0668C101.764 51.6501 102.018 52.0926 102.346 52.3942C102.674 52.6925 103.068 52.8416 103.529 52.8416ZM112.882 54.1392C112.259 54.1392 111.699 54.0199 111.202 53.7812C110.708 53.5393 110.314 53.2079 110.019 52.7869C109.724 52.366 109.566 51.8854 109.546 51.3452H111.038C111.074 51.7827 111.268 52.1423 111.619 52.424C111.971 52.7057 112.392 52.8466 112.882 52.8466C113.273 52.8466 113.62 52.7571 113.921 52.5781C114.226 52.3958 114.465 52.1456 114.637 51.8274C114.813 51.5092 114.901 51.1463 114.901 50.7386C114.901 50.3243 114.811 49.9548 114.632 49.63C114.453 49.3052 114.206 49.05 113.891 48.8643C113.58 48.6787 113.222 48.5843 112.818 48.581C112.509 48.581 112.199 48.634 111.888 48.7401C111.576 48.8461 111.324 48.9853 111.132 49.1577L109.725 48.9489L110.297 43.8182H115.895V45.1357H111.575L111.252 47.9844H111.311C111.51 47.7921 111.774 47.6314 112.102 47.5021C112.433 47.3729 112.788 47.3082 113.166 47.3082C113.785 47.3082 114.337 47.4557 114.821 47.7507C115.308 48.0457 115.691 48.4484 115.97 48.9588C116.251 49.4659 116.39 50.0492 116.387 50.7088C116.39 51.3684 116.241 51.9567 115.94 52.4737C115.641 52.9908 115.227 53.3984 114.697 53.6967C114.17 53.9917 113.565 54.1392 112.882 54.1392ZM118.842 54V43.8182H122.571C123.293 43.8182 123.892 43.9375 124.366 44.1761C124.84 44.4115 125.194 44.7313 125.43 45.1357C125.665 45.5367 125.783 45.9891 125.783 46.4929C125.783 46.9171 125.705 47.2751 125.549 47.5668C125.393 47.8551 125.184 48.0871 124.922 48.2628C124.664 48.4351 124.379 48.5611 124.067 48.6406V48.7401C124.405 48.7566 124.735 48.866 125.057 49.0682C125.382 49.267 125.65 49.5504 125.862 49.9183C126.074 50.2862 126.18 50.7337 126.18 51.2607C126.18 51.781 126.058 52.2483 125.812 52.6626C125.57 53.0736 125.196 53.4001 124.689 53.642C124.182 53.8807 123.534 54 122.745 54H118.842ZM120.378 52.6825H122.596C123.332 52.6825 123.859 52.54 124.177 52.255C124.495 51.9699 124.654 51.6136 124.654 51.1861C124.654 50.8646 124.573 50.5696 124.41 50.3011C124.248 50.0327 124.016 49.8189 123.714 49.6598C123.416 49.5007 123.061 49.4212 122.65 49.4212H120.378V52.6825ZM120.378 48.223H122.437C122.781 48.223 123.091 48.1567 123.366 48.0241C123.645 47.8916 123.865 47.706 124.028 47.4673C124.193 47.2254 124.276 46.9403 124.276 46.6122C124.276 46.1913 124.129 45.8383 123.834 45.5533C123.539 45.2682 123.086 45.1257 122.476 45.1257H120.378V48.223ZM128.706 54L133.151 45.2102V45.1357H128.01V43.8182H134.742V45.1804L130.312 54H128.706ZM140.297 54.169C139.511 54.1657 138.84 53.9586 138.283 53.5476C137.726 53.1366 137.3 52.5384 137.005 51.7528C136.71 50.9673 136.563 50.0211 136.563 48.9141C136.563 47.8104 136.71 46.8674 137.005 46.0852C137.304 45.303 137.731 44.7064 138.288 44.2955C138.848 43.8845 139.518 43.679 140.297 43.679C141.075 43.679 141.743 43.8861 142.3 44.3004C142.857 44.7114 143.283 45.308 143.578 46.0902C143.876 46.8691 144.025 47.8104 144.025 48.9141C144.025 50.0244 143.878 50.9723 143.583 51.7578C143.288 52.54 142.862 53.1383 142.305 53.5526C141.748 53.9635 141.079 54.169 140.297 54.169ZM140.297 52.8416C140.986 52.8416 141.525 52.5052 141.912 51.8324C142.303 51.1596 142.499 50.1868 142.499 48.9141C142.499 48.0689 142.41 47.3546 142.231 46.7713C142.055 46.1847 141.801 45.7405 141.47 45.4389C141.142 45.134 140.751 44.9815 140.297 44.9815C139.611 44.9815 139.072 45.3196 138.681 45.9957C138.29 46.6719 138.093 47.6446 138.089 48.9141C138.089 49.7625 138.177 50.4801 138.353 51.0668C138.532 51.6501 138.785 52.0926 139.113 52.3942C139.441 52.6925 139.836 52.8416 140.297 52.8416Z" fill="#FFFBFF"/>
<path d="M10.6719 119.493C10.6188 119.022 10.4001 118.658 10.0156 118.399C9.63116 118.137 9.14725 118.006 8.56392 118.006C8.14631 118.006 7.78504 118.073 7.48011 118.205C7.17519 118.335 6.93821 118.513 6.76918 118.742C6.60346 118.968 6.5206 119.224 6.5206 119.513C6.5206 119.755 6.57694 119.964 6.68963 120.139C6.80563 120.315 6.95644 120.462 7.14205 120.582C7.33097 120.698 7.53314 120.795 7.74858 120.875C7.96402 120.951 8.17116 121.014 8.37003 121.064L9.36435 121.322C9.68916 121.402 10.0223 121.51 10.3636 121.646C10.705 121.781 11.0215 121.96 11.3132 122.183C11.6049 122.405 11.8402 122.68 12.0192 123.008C12.2015 123.336 12.2926 123.729 12.2926 124.186C12.2926 124.763 12.1435 125.275 11.8452 125.722C11.5502 126.17 11.121 126.523 10.5575 126.781C9.9974 127.04 9.3196 127.169 8.52415 127.169C7.76184 127.169 7.10227 127.048 6.54545 126.806C5.98864 126.564 5.55279 126.221 5.23793 125.777C4.92306 125.33 4.74905 124.799 4.71591 124.186H6.2571C6.28693 124.554 6.40625 124.861 6.61506 125.106C6.82718 125.348 7.0973 125.528 7.42543 125.648C7.75687 125.764 8.11979 125.822 8.5142 125.822C8.94839 125.822 9.33452 125.754 9.67259 125.618C10.014 125.479 10.2824 125.286 10.478 125.041C10.6735 124.793 10.7713 124.503 10.7713 124.171C10.7713 123.87 10.6851 123.623 10.5128 123.43C10.3438 123.238 10.1134 123.079 9.82173 122.953C9.53338 122.827 9.20691 122.716 8.84233 122.62L7.6392 122.292C6.82386 122.07 6.17756 121.743 5.70028 121.312C5.22633 120.882 4.98935 120.312 4.98935 119.602C4.98935 119.016 5.14844 118.504 5.46662 118.066C5.7848 117.629 6.21567 117.289 6.75923 117.047C7.30279 116.802 7.91596 116.679 8.59872 116.679C9.28812 116.679 9.89631 116.8 10.4233 117.042C10.9536 117.284 11.3712 117.617 11.6761 118.041C11.9811 118.462 12.1402 118.946 12.1534 119.493H10.6719ZM17.8002 127.154C17.0479 127.154 16.3999 126.993 15.8564 126.672C15.3161 126.347 14.8985 125.891 14.6035 125.305C14.3118 124.715 14.166 124.024 14.166 123.232C14.166 122.449 14.3118 121.76 14.6035 121.163C14.8985 120.567 15.3095 120.101 15.8365 119.766C16.3668 119.432 16.9866 119.264 17.6958 119.264C18.1267 119.264 18.5443 119.335 18.9487 119.478C19.353 119.621 19.716 119.844 20.0375 120.149C20.359 120.454 20.6125 120.85 20.7981 121.337C20.9837 121.821 21.0765 122.41 21.0765 123.102V123.629H15.0062V122.516H19.6199C19.6199 122.125 19.5403 121.778 19.3812 121.477C19.2221 121.172 18.9984 120.931 18.71 120.756C18.425 120.58 18.0903 120.492 17.7058 120.492C17.2882 120.492 16.9236 120.595 16.612 120.8C16.3038 121.003 16.0652 121.268 15.8961 121.596C15.7304 121.921 15.6475 122.274 15.6475 122.655V123.525C15.6475 124.035 15.737 124.469 15.916 124.827C16.0983 125.185 16.3519 125.459 16.6767 125.648C17.0015 125.833 17.381 125.926 17.8152 125.926C18.0969 125.926 18.3538 125.886 18.5858 125.807C18.8178 125.724 19.0183 125.601 19.1873 125.439C19.3564 125.277 19.4856 125.076 19.5751 124.837L20.9821 125.091C20.8694 125.505 20.6672 125.868 20.3755 126.18C20.0872 126.488 19.7243 126.728 19.2868 126.901C18.8526 127.07 18.3571 127.154 17.8002 127.154ZM26.4425 127.154C25.7034 127.154 25.067 126.987 24.5334 126.652C24.0031 126.314 23.5954 125.848 23.3104 125.255C23.0253 124.662 22.8828 123.982 22.8828 123.217C22.8828 122.441 23.0286 121.757 23.3203 121.163C23.612 120.567 24.023 120.101 24.5533 119.766C25.0836 119.432 25.7083 119.264 26.4276 119.264C27.0076 119.264 27.5246 119.372 27.9787 119.587C28.4328 119.799 28.799 120.098 29.0774 120.482C29.3591 120.867 29.5265 121.316 29.5795 121.83H28.1328C28.0533 121.472 27.871 121.163 27.5859 120.905C27.3042 120.646 26.9264 120.517 26.4524 120.517C26.0381 120.517 25.6752 120.626 25.3636 120.845C25.0554 121.061 24.8151 121.369 24.6428 121.77C24.4704 122.168 24.3842 122.638 24.3842 123.182C24.3842 123.739 24.4688 124.219 24.6378 124.624C24.8068 125.028 25.0455 125.341 25.3537 125.563C25.6652 125.785 26.0315 125.896 26.4524 125.896C26.7341 125.896 26.9893 125.845 27.218 125.742C27.45 125.636 27.6439 125.485 27.7997 125.29C27.9588 125.094 28.0698 124.859 28.1328 124.584H29.5795C29.5265 125.078 29.3658 125.518 29.0973 125.906C28.8288 126.294 28.4692 126.599 28.0185 126.821C27.571 127.043 27.0457 127.154 26.4425 127.154ZM34.8858 127.154C34.1699 127.154 33.5452 126.99 33.0115 126.662C32.4779 126.334 32.0636 125.875 31.7686 125.285C31.4737 124.695 31.3262 124.005 31.3262 123.217C31.3262 122.424 31.4737 121.732 31.7686 121.138C32.0636 120.545 32.4779 120.085 33.0115 119.756C33.5452 119.428 34.1699 119.264 34.8858 119.264C35.6017 119.264 36.2265 119.428 36.7601 119.756C37.2937 120.085 37.708 120.545 38.003 121.138C38.298 121.732 38.4455 122.424 38.4455 123.217C38.4455 124.005 38.298 124.695 38.003 125.285C37.708 125.875 37.2937 126.334 36.7601 126.662C36.2265 126.99 35.6017 127.154 34.8858 127.154ZM34.8908 125.906C35.3548 125.906 35.7393 125.784 36.0442 125.538C36.3491 125.293 36.5745 124.967 36.7203 124.559C36.8695 124.151 36.9441 123.702 36.9441 123.212C36.9441 122.724 36.8695 122.277 36.7203 121.869C36.5745 121.458 36.3491 121.129 36.0442 120.88C35.7393 120.631 35.3548 120.507 34.8908 120.507C34.4235 120.507 34.0357 120.631 33.7275 120.88C33.4225 121.129 33.1955 121.458 33.0463 121.869C32.9005 122.277 32.8276 122.724 32.8276 123.212C32.8276 123.702 32.9005 124.151 33.0463 124.559C33.1955 124.967 33.4225 125.293 33.7275 125.538C34.0357 125.784 34.4235 125.906 34.8908 125.906ZM42.0913 122.466V127H40.6048V119.364H42.0316V120.607H42.1261C42.3017 120.202 42.5768 119.877 42.9513 119.632C43.3292 119.387 43.8048 119.264 44.3782 119.264C44.8986 119.264 45.3543 119.374 45.7454 119.592C46.1365 119.808 46.4397 120.129 46.6552 120.557C46.8706 120.984 46.9783 121.513 46.9783 122.143V127H45.4918V122.322C45.4918 121.768 45.3477 121.336 45.0593 121.024C44.771 120.709 44.3749 120.552 43.8711 120.552C43.5264 120.552 43.2198 120.626 42.9513 120.776C42.6862 120.925 42.4757 121.143 42.32 121.432C42.1675 121.717 42.0913 122.062 42.0913 122.466ZM52.3306 127.149C51.7141 127.149 51.1639 126.992 50.68 126.677C50.1995 126.359 49.8216 125.906 49.5465 125.32C49.2747 124.73 49.1388 124.022 49.1388 123.197C49.1388 122.371 49.2764 121.665 49.5515 121.079C49.8299 120.492 50.2111 120.043 50.695 119.732C51.1789 119.42 51.7274 119.264 52.3406 119.264C52.8145 119.264 53.1957 119.344 53.484 119.503C53.7757 119.659 54.0011 119.841 54.1602 120.05C54.3226 120.259 54.4485 120.442 54.538 120.602H54.6275V116.818H56.114V127H54.6623V125.812H54.538C54.4485 125.974 54.3192 126.16 54.1502 126.369C53.9845 126.577 53.7558 126.76 53.4641 126.915C53.1725 127.071 52.7946 127.149 52.3306 127.149ZM52.6587 125.881C53.0863 125.881 53.4476 125.769 53.7425 125.543C54.0408 125.315 54.2662 124.998 54.4187 124.594C54.5745 124.189 54.6523 123.719 54.6523 123.182C54.6523 122.652 54.5761 122.187 54.4237 121.79C54.2712 121.392 54.0475 121.082 53.7525 120.86C53.4575 120.638 53.0929 120.527 52.6587 120.527C52.2113 120.527 51.8384 120.643 51.5401 120.875C51.2418 121.107 51.0165 121.424 50.864 121.825C50.7148 122.226 50.6403 122.678 50.6403 123.182C50.6403 123.692 50.7165 124.151 50.869 124.559C51.0214 124.967 51.2468 125.29 51.5451 125.528C51.8467 125.764 52.2179 125.881 52.6587 125.881ZM60.9579 127.169C60.474 127.169 60.0365 127.08 59.6454 126.901C59.2543 126.718 58.9444 126.455 58.7157 126.11C58.4904 125.765 58.3777 125.343 58.3777 124.842C58.3777 124.411 58.4605 124.057 58.6262 123.778C58.792 123.5 59.0157 123.28 59.2974 123.117C59.5791 122.955 59.894 122.832 60.242 122.749C60.59 122.666 60.9447 122.603 61.3059 122.56C61.7633 122.507 62.1345 122.464 62.4196 122.431C62.7046 122.395 62.9118 122.337 63.041 122.257C63.1703 122.178 63.2349 122.048 63.2349 121.869V121.835C63.2349 121.4 63.1123 121.064 62.867 120.825C62.6251 120.587 62.2638 120.467 61.7832 120.467C61.2827 120.467 60.8883 120.578 60.6 120.8C60.3149 121.019 60.1177 121.263 60.0083 121.531L58.6113 121.213C58.777 120.749 59.019 120.375 59.3372 120.089C59.6587 119.801 60.0282 119.592 60.4458 119.463C60.8635 119.33 61.3026 119.264 61.7633 119.264C62.0682 119.264 62.3914 119.301 62.7328 119.374C63.0775 119.443 63.399 119.572 63.6973 119.761C63.9989 119.95 64.2458 120.22 64.438 120.572C64.6303 120.92 64.7264 121.372 64.7264 121.929V127H63.2747V125.956H63.215C63.1189 126.148 62.9747 126.337 62.7825 126.523C62.5903 126.708 62.3433 126.862 62.0417 126.985C61.7401 127.108 61.3788 127.169 60.9579 127.169ZM61.2811 125.976C61.6921 125.976 62.0434 125.895 62.335 125.732C62.63 125.57 62.8538 125.358 63.0062 125.096C63.162 124.831 63.2399 124.547 63.2399 124.246V123.261C63.1868 123.314 63.0841 123.364 62.9316 123.411C62.7825 123.454 62.6118 123.492 62.4196 123.525C62.2273 123.555 62.0401 123.583 61.8578 123.609C61.6755 123.633 61.523 123.652 61.4004 123.669C61.112 123.705 60.8485 123.767 60.6099 123.853C60.3746 123.939 60.1857 124.063 60.0431 124.226C59.9039 124.385 59.8343 124.597 59.8343 124.862C59.8343 125.23 59.9702 125.509 60.242 125.697C60.5138 125.883 60.8601 125.976 61.2811 125.976ZM67.2063 127V119.364H68.6431V120.577H68.7227C68.8619 120.166 69.1071 119.843 69.4585 119.607C69.8131 119.369 70.2141 119.249 70.6616 119.249C70.7544 119.249 70.8638 119.253 70.9897 119.259C71.119 119.266 71.2201 119.274 71.293 119.284V120.706C71.2333 120.689 71.1272 120.671 70.9748 120.651C70.8223 120.628 70.6699 120.616 70.5174 120.616C70.1661 120.616 69.8529 120.691 69.5778 120.84C69.306 120.986 69.0906 121.19 68.9315 121.452C68.7724 121.71 68.6928 122.005 68.6928 122.337V127H67.2063ZM74.2514 129.864C74.0294 129.864 73.8272 129.845 73.6449 129.809C73.4626 129.776 73.3267 129.739 73.2372 129.7L73.5952 128.482C73.867 128.554 74.1089 128.586 74.321 128.576C74.5331 128.566 74.7204 128.487 74.8828 128.337C75.0485 128.188 75.1944 127.945 75.3203 127.607L75.5043 127.099L72.7102 119.364H74.3011L76.2351 125.29H76.3146L78.2486 119.364H79.8445L76.6974 128.019C76.5516 128.417 76.366 128.753 76.1406 129.028C75.9152 129.307 75.6468 129.516 75.3352 129.655C75.0237 129.794 74.6624 129.864 74.2514 129.864Z" fill="#1C1B1E"/>
<defs>
<filter id="filter0_d_824_1600" x="0" y="0" width="224" height="100" filterUnits="userSpaceOnUse" color-interpolation-filters="sRGB">
<feFlood flood-opacity="0" result="BackgroundImageFix"/>
<feColorMatrix in="SourceAlpha" type="matrix" values="0 0 0 0 0 0 0 0 0 0 0 0 0 0 0 0 0 0 127 0" result="hardAlpha"/>
<feOffset dy="1"/>
<feGaussianBlur stdDeviation="2"/>
<feComposite in2="hardAlpha" operator="out"/>
<feColorMatrix type="matrix" values="0 0 0 0 0 0 0 0 0 0 0 0 0 0 0 0 0 0 0.1 0"/>
<feBlend mode="normal" in2="BackgroundImageFix" result="effect1_dropShadow_824_1600"/>
<feBlend mode="normal" in="SourceGraphic" in2="effect1_dropShadow_824_1600" result="shape"/>
</filter>
</defs>
</svg>
