<svg width="224" height="133" viewBox="0 0 224 133" fill="none" xmlns="http://www.w3.org/2000/svg">
<g filter="url(#filter0_d_825_474)">
<rect x="4" y="3" width="216" height="92" rx="8" fill="#9C2F94"/>
</g>
<path d="M83.838 54L85.5084 43.8182H86.7016L85.0312 54H83.838ZM79.2293 51.2756L79.4232 50.0824H87.1391L86.9452 51.2756H79.2293ZM80.2584 54L81.9289 43.8182H83.1221L81.4516 54H80.2584ZM79.8209 47.7358L80.0148 46.5426H87.7307L87.5368 47.7358H79.8209ZM92.7996 43.679C93.2537 43.6823 93.7011 43.7652 94.142 43.9276C94.5828 44.09 94.9805 44.3551 95.3351 44.723C95.6931 45.0909 95.9781 45.5881 96.1903 46.2145C96.4057 46.8376 96.5151 47.6132 96.5184 48.5412C96.5184 49.4328 96.4289 50.2266 96.2499 50.9226C96.0709 51.6153 95.8141 52.2003 95.4793 52.6776C95.1479 53.1548 94.7452 53.5178 94.2712 53.7663C93.7973 54.0149 93.2636 54.1392 92.6704 54.1392C92.0638 54.1392 91.5252 54.0199 91.0546 53.7812C90.584 53.5426 90.2011 53.2128 89.9062 52.7919C89.6112 52.3677 89.4272 51.8804 89.3543 51.3303H90.8706C90.9701 51.7678 91.1723 52.1224 91.4772 52.3942C91.7854 52.6626 92.1831 52.7969 92.6704 52.7969C93.4161 52.7969 93.9978 52.4721 94.4154 51.8224C94.833 51.1695 95.0435 50.258 95.0468 49.0881H94.9672C94.7949 49.3731 94.5795 49.6184 94.3209 49.8239C94.0657 50.0294 93.779 50.1884 93.4608 50.3011C93.1427 50.4138 92.8029 50.4702 92.4417 50.4702C91.855 50.4702 91.3214 50.326 90.8408 50.0376C90.3602 49.7493 89.9774 49.3532 89.6924 48.8494C89.4073 48.3456 89.2648 47.7706 89.2648 47.1243C89.2648 46.4813 89.4107 45.898 89.7023 45.3743C89.9973 44.8506 90.4083 44.4363 90.9353 44.1314C91.4656 43.8232 92.087 43.6723 92.7996 43.679ZM92.8046 44.9716C92.4168 44.9716 92.0671 45.0677 91.7556 45.2599C91.4474 45.4489 91.2037 45.7057 91.0248 46.0305C90.8458 46.352 90.7563 46.71 90.7563 47.1044C90.7563 47.4988 90.8425 47.8568 91.0148 48.1783C91.1905 48.4964 91.4291 48.75 91.7307 48.9389C92.0357 49.1245 92.3837 49.2173 92.7748 49.2173C93.0664 49.2173 93.3382 49.161 93.5901 49.0483C93.842 48.9356 94.0624 48.7798 94.2513 48.581C94.4403 48.3788 94.5877 48.1501 94.6938 47.8949C94.7999 47.6397 94.8529 47.3712 94.8529 47.0895C94.8529 46.715 94.7634 46.367 94.5844 46.0455C94.4088 45.724 94.1668 45.4654 93.8586 45.2699C93.5503 45.071 93.199 44.9716 92.8046 44.9716ZM107.41 47.1293H105.859C105.799 46.7978 105.688 46.5062 105.526 46.2543C105.364 46.0024 105.165 45.7886 104.929 45.6129C104.694 45.4373 104.431 45.3047 104.139 45.2152C103.851 45.1257 103.544 45.081 103.219 45.081C102.633 45.081 102.107 45.2285 101.643 45.5234C101.182 45.8184 100.818 46.2509 100.549 46.821C100.284 47.3911 100.152 48.0871 100.152 48.9091C100.152 49.7377 100.284 50.437 100.549 51.0071C100.818 51.5772 101.184 52.008 101.648 52.2997C102.112 52.5914 102.634 52.7372 103.214 52.7372C103.536 52.7372 103.841 52.6941 104.129 52.608C104.421 52.5185 104.684 52.3875 104.919 52.2152C105.155 52.0429 105.354 51.8324 105.516 51.5838C105.682 51.3319 105.796 51.0436 105.859 50.7188L107.41 50.7237C107.327 51.2242 107.167 51.6849 106.928 52.1058C106.693 52.5234 106.389 52.8847 106.018 53.1896C105.65 53.4912 105.229 53.7249 104.755 53.8906C104.281 54.0563 103.764 54.1392 103.204 54.1392C102.323 54.1392 101.537 53.9304 100.848 53.5128C100.158 53.0919 99.6148 52.4903 99.2171 51.7081C98.8227 50.9259 98.6254 49.9929 98.6254 48.9091C98.6254 47.822 98.8243 46.889 99.222 46.1101C99.6198 45.3279 100.163 44.728 100.853 44.3104C101.542 43.8894 102.326 43.679 103.204 43.679C103.745 43.679 104.248 43.7569 104.716 43.9126C105.186 44.0651 105.609 44.2905 105.983 44.5888C106.358 44.8838 106.668 45.245 106.913 45.6726C107.158 46.0968 107.324 46.5824 107.41 47.1293ZM109.609 54V52.8864L113.055 49.3168C113.422 48.929 113.726 48.5893 113.964 48.2976C114.206 48.0026 114.387 47.7225 114.506 47.4574C114.626 47.1922 114.685 46.9105 114.685 46.6122C114.685 46.2741 114.606 45.9825 114.447 45.7372C114.288 45.4886 114.07 45.2981 113.795 45.1655C113.52 45.0296 113.21 44.9616 112.866 44.9616C112.501 44.9616 112.183 45.0362 111.911 45.1854C111.639 45.3345 111.431 45.545 111.285 45.8168C111.139 46.0885 111.066 46.4067 111.066 46.7713H109.599C109.599 46.1515 109.742 45.6096 110.027 45.1456C110.312 44.6816 110.703 44.322 111.2 44.0668C111.697 43.8082 112.262 43.679 112.896 43.679C113.535 43.679 114.099 43.8066 114.586 44.0618C115.076 44.3137 115.459 44.6584 115.734 45.0959C116.009 45.5301 116.147 46.0206 116.147 46.5675C116.147 46.9453 116.076 47.3149 115.933 47.6761C115.794 48.0374 115.55 48.4401 115.202 48.8842C114.854 49.325 114.37 49.8603 113.751 50.4901L111.727 52.608V52.6825H116.311V54H109.609ZM118.834 54V43.8182H125.148V45.1406H120.371V48.2429H124.696V49.5604H120.371V54H118.834ZM130.784 43.679C131.238 43.6823 131.686 43.7652 132.126 43.9276C132.567 44.09 132.965 44.3551 133.32 44.723C133.677 45.0909 133.963 45.5881 134.175 46.2145C134.39 46.8376 134.499 47.6132 134.503 48.5412C134.503 49.4328 134.413 50.2266 134.234 50.9226C134.055 51.6153 133.798 52.2003 133.464 52.6776C133.132 53.1548 132.73 53.5178 132.256 53.7663C131.782 54.0149 131.248 54.1392 130.655 54.1392C130.048 54.1392 129.51 54.0199 129.039 53.7812C128.568 53.5426 128.186 53.2128 127.891 52.7919C127.596 52.3677 127.412 51.8804 127.339 51.3303H128.855C128.954 51.7678 129.157 52.1224 129.462 52.3942C129.77 52.6626 130.168 52.7969 130.655 52.7969C131.4 52.7969 131.982 52.4721 132.4 51.8224C132.817 51.1695 133.028 50.258 133.031 49.0881H132.952C132.779 49.3731 132.564 49.6184 132.305 49.8239C132.05 50.0294 131.763 50.1884 131.445 50.3011C131.127 50.4138 130.787 50.4702 130.426 50.4702C129.839 50.4702 129.306 50.326 128.825 50.0376C128.345 49.7493 127.962 49.3532 127.677 48.8494C127.392 48.3456 127.249 47.7706 127.249 47.1243C127.249 46.4813 127.395 45.898 127.687 45.3743C127.982 44.8506 128.393 44.4363 128.92 44.1314C129.45 43.8232 130.071 43.6723 130.784 43.679ZM130.789 44.9716C130.401 44.9716 130.052 45.0677 129.74 45.2599C129.432 45.4489 129.188 45.7057 129.009 46.0305C128.83 46.352 128.741 46.71 128.741 47.1044C128.741 47.4988 128.827 47.8568 128.999 48.1783C129.175 48.4964 129.414 48.75 129.715 48.9389C130.02 49.1245 130.368 49.2173 130.759 49.2173C131.051 49.2173 131.323 49.161 131.574 49.0483C131.826 48.9356 132.047 48.7798 132.236 48.581C132.425 48.3788 132.572 48.1501 132.678 47.8949C132.784 47.6397 132.837 47.3712 132.837 47.0895C132.837 46.715 132.748 46.367 132.569 46.0455C132.393 45.724 132.151 45.4654 131.843 45.2699C131.535 45.071 131.183 44.9716 130.789 44.9716ZM136.585 52.0114V50.7685L140.985 43.8182H141.964V45.6477H141.343L138.196 50.6293V50.7088H144.226V52.0114H136.585ZM141.412 54V51.6335L141.422 51.0668V43.8182H142.879V54H141.412Z" fill="#FFFBFF"/>
<path d="M13.5753 120.129H12.0241C11.9645 119.798 11.8535 119.506 11.6911 119.254C11.5286 119.002 11.3298 118.789 11.0945 118.613C10.8591 118.437 10.5956 118.305 10.304 118.215C10.0156 118.126 9.70904 118.081 9.38423 118.081C8.79759 118.081 8.27225 118.228 7.80824 118.523C7.34754 118.818 6.98295 119.251 6.71449 119.821C6.44934 120.391 6.31676 121.087 6.31676 121.909C6.31676 122.738 6.44934 123.437 6.71449 124.007C6.98295 124.577 7.3492 125.008 7.81321 125.3C8.27723 125.591 8.79924 125.737 9.37926 125.737C9.70076 125.737 10.0057 125.694 10.294 125.608C10.5857 125.518 10.8492 125.388 11.0845 125.215C11.3198 125.043 11.5187 124.832 11.6811 124.584C11.8468 124.332 11.9612 124.044 12.0241 123.719L13.5753 123.724C13.4924 124.224 13.3317 124.685 13.093 125.106C12.8577 125.523 12.5545 125.885 12.1832 126.19C11.8153 126.491 11.3944 126.725 10.9205 126.891C10.4465 127.056 9.92945 127.139 9.36932 127.139C8.48769 127.139 7.70218 126.93 7.01278 126.513C6.32339 126.092 5.77983 125.49 5.3821 124.708C4.98769 123.926 4.79048 122.993 4.79048 121.909C4.79048 120.822 4.98935 119.889 5.38707 119.11C5.7848 118.328 6.32836 117.728 7.01776 117.31C7.70715 116.889 8.491 116.679 9.36932 116.679C9.90956 116.679 10.4134 116.757 10.8807 116.913C11.3513 117.065 11.7739 117.29 12.1484 117.589C12.523 117.884 12.8329 118.245 13.0781 118.673C13.3234 119.097 13.4891 119.582 13.5753 120.129ZM20.6316 123.833V119.364H22.123V127H20.6614V125.678H20.5819C20.4062 126.085 20.1245 126.425 19.7367 126.697C19.3522 126.965 18.8733 127.099 18.2999 127.099C17.8094 127.099 17.3752 126.992 16.9973 126.776C16.6228 126.558 16.3278 126.234 16.1124 125.807C15.9003 125.379 15.7942 124.851 15.7942 124.221V119.364H17.2807V124.042C17.2807 124.562 17.4249 124.977 17.7132 125.285C18.0016 125.593 18.3761 125.747 18.8368 125.747C19.1152 125.747 19.392 125.678 19.6671 125.538C19.9455 125.399 20.1758 125.189 20.3581 124.907C20.5437 124.625 20.6349 124.267 20.6316 123.833ZM30.3427 121.228L28.9954 121.467C28.939 121.294 28.8496 121.13 28.7269 120.974C28.6076 120.819 28.4452 120.691 28.2397 120.592C28.0342 120.492 27.7773 120.442 27.4691 120.442C27.0482 120.442 26.6969 120.537 26.4151 120.726C26.1334 120.911 25.9925 121.152 25.9925 121.447C25.9925 121.702 26.087 121.907 26.2759 122.063C26.4648 122.219 26.7698 122.347 27.1907 122.446L28.4038 122.724C29.1064 122.887 29.6301 123.137 29.9748 123.475C30.3195 123.813 30.4918 124.252 30.4918 124.793C30.4918 125.25 30.3593 125.658 30.0941 126.016C29.8323 126.37 29.466 126.649 28.9954 126.851C28.5281 127.053 27.9862 127.154 27.3697 127.154C26.5146 127.154 25.8169 126.972 25.2766 126.607C24.7364 126.239 24.4049 125.717 24.2823 125.041L25.7191 124.822C25.8086 125.197 25.9925 125.48 26.271 125.673C26.5494 125.862 26.9123 125.956 27.3597 125.956C27.8469 125.956 28.2364 125.855 28.5281 125.653C28.8197 125.447 28.9656 125.197 28.9656 124.902C28.9656 124.663 28.8761 124.463 28.6971 124.3C28.5214 124.138 28.2513 124.015 27.8867 123.933L26.5941 123.649C25.8815 123.487 25.3545 123.228 25.0131 122.874C24.6751 122.519 24.506 122.07 24.506 121.526C24.506 121.076 24.632 120.681 24.8839 120.343C25.1358 120.005 25.4838 119.741 25.9279 119.553C26.372 119.36 26.8808 119.264 27.4542 119.264C28.2795 119.264 28.9291 119.443 29.4031 119.801C29.877 120.156 30.1902 120.631 30.3427 121.228ZM36.1909 119.364V120.557H32.0197V119.364H36.1909ZM33.1383 117.534H34.6248V124.758C34.6248 125.046 34.6679 125.263 34.7541 125.409C34.8403 125.552 34.9513 125.649 35.0872 125.702C35.2264 125.752 35.3772 125.777 35.5396 125.777C35.6589 125.777 35.7633 125.769 35.8528 125.752C35.9423 125.736 36.0119 125.722 36.0616 125.712L36.3301 126.94C36.2439 126.973 36.1213 127.007 35.9622 127.04C35.8031 127.076 35.6042 127.096 35.3656 127.099C34.9745 127.106 34.6099 127.036 34.2718 126.891C33.9338 126.745 33.6603 126.519 33.4515 126.214C33.2427 125.91 33.1383 125.527 33.1383 125.066V117.534ZM41.4698 127.154C40.7539 127.154 40.1291 126.99 39.5955 126.662C39.0619 126.334 38.6476 125.875 38.3526 125.285C38.0576 124.695 37.9102 124.005 37.9102 123.217C37.9102 122.424 38.0576 121.732 38.3526 121.138C38.6476 120.545 39.0619 120.085 39.5955 119.756C40.1291 119.428 40.7539 119.264 41.4698 119.264C42.1857 119.264 42.8105 119.428 43.3441 119.756C43.8777 120.085 44.292 120.545 44.587 121.138C44.882 121.732 45.0295 122.424 45.0295 123.217C45.0295 124.005 44.882 124.695 44.587 125.285C44.292 125.875 43.8777 126.334 43.3441 126.662C42.8105 126.99 42.1857 127.154 41.4698 127.154ZM41.4748 125.906C41.9388 125.906 42.3233 125.784 42.6282 125.538C42.9331 125.293 43.1585 124.967 43.3043 124.559C43.4535 124.151 43.5281 123.702 43.5281 123.212C43.5281 122.724 43.4535 122.277 43.3043 121.869C43.1585 121.458 42.9331 121.129 42.6282 120.88C42.3233 120.631 41.9388 120.507 41.4748 120.507C41.0075 120.507 40.6197 120.631 40.3114 120.88C40.0065 121.129 39.7795 121.458 39.6303 121.869C39.4845 122.277 39.4116 122.724 39.4116 123.212C39.4116 123.702 39.4845 124.151 39.6303 124.559C39.7795 124.967 40.0065 125.293 40.3114 125.538C40.6197 125.784 41.0075 125.906 41.4748 125.906ZM47.1887 127V119.364H48.6156V120.607H48.71C48.8691 120.186 49.1293 119.857 49.4906 119.622C49.8519 119.384 50.2844 119.264 50.7882 119.264C51.2986 119.264 51.7261 119.384 52.0708 119.622C52.4189 119.861 52.6757 120.189 52.8414 120.607H52.921C53.1033 120.199 53.3933 119.874 53.791 119.632C54.1887 119.387 54.6627 119.264 55.2129 119.264C55.9056 119.264 56.4707 119.481 56.9082 119.915C57.349 120.35 57.5694 121.004 57.5694 121.879V127H56.0829V122.018C56.0829 121.501 55.9421 121.127 55.6603 120.895C55.3786 120.663 55.0422 120.547 54.6511 120.547C54.1672 120.547 53.791 120.696 53.5225 120.994C53.2541 121.289 53.1199 121.669 53.1199 122.133V127H51.6383V121.924C51.6383 121.51 51.5091 121.177 51.2505 120.925C50.992 120.673 50.6556 120.547 50.2413 120.547C49.9596 120.547 49.6994 120.621 49.4608 120.771C49.2254 120.916 49.0349 121.12 48.889 121.382C48.7465 121.644 48.6752 121.947 48.6752 122.292V127H47.1887ZM68.1099 116.818V127H66.5687V118.359H66.5091L64.073 119.95V118.479L66.6135 116.818H68.1099Z" fill="#1C1B1E"/>
<defs>
<filter id="filter0_d_825_474" x="0" y="0" width="224" height="100" filterUnits="userSpaceOnUse" color-interpolation-filters="sRGB">
<feFlood flood-opacity="0" result="BackgroundImageFix"/>
<feColorMatrix in="SourceAlpha" type="matrix" values="0 0 0 0 0 0 0 0 0 0 0 0 0 0 0 0 0 0 127 0" result="hardAlpha"/>
<feOffset dy="1"/>
<feGaussianBlur stdDeviation="2"/>
<feComposite in2="hardAlpha" operator="out"/>
<feColorMatrix type="matrix" values="0 0 0 0 0 0 0 0 0 0 0 0 0 0 0 0 0 0 0.1 0"/>
<feBlend mode="normal" in2="BackgroundImageFix" result="effect1_dropShadow_825_474"/>
<feBlend mode="normal" in="SourceGraphic" in2="effect1_dropShadow_825_474" result="shape"/>
</filter>
</defs>
</svg>
