<svg width="224" height="133" viewBox="0 0 224 133" fill="none" xmlns="http://www.w3.org/2000/svg">
<g filter="url(#filter0_d_824_1243)">
<rect x="4" y="3" width="216" height="92" rx="8" fill="white"/>
</g>
<path d="M86.2511 54L87.9215 43.8182H89.1147L87.4442 54H86.2511ZM81.6424 51.2756L81.8363 50.0824H89.5522L89.3583 51.2756H81.6424ZM82.6715 54L84.342 43.8182H85.5352L83.8647 54H82.6715ZM82.234 47.7358L82.4279 46.5426H90.1438L89.9499 47.7358H82.234ZM91.9663 54V43.8182H98.2802V45.1406H93.5025V48.2429H97.8278V49.5604H93.5025V54H91.9663ZM100.669 54V43.8182H106.983V45.1406H102.206V48.2429H106.531V49.5604H102.206V54H100.669ZM109.373 54V43.8182H115.686V45.1406H110.909V48.2429H115.234V49.5604H110.909V54H109.373ZM118.076 54V43.8182H124.39V45.1406H119.612V48.2429H123.937V49.5604H119.612V54H118.076ZM126.779 54V43.8182H133.093V45.1406H128.315V48.2429H132.64V49.5604H128.315V54H126.779ZM135.482 54V43.8182H141.796V45.1406H137.018V48.2429H141.343V49.5604H137.018V54H135.482Z" fill="#1C1B1E"/>
<path d="M13.9631 121.909C13.9631 122.996 13.7642 123.931 13.3665 124.713C12.9688 125.492 12.4235 126.092 11.7308 126.513C11.0414 126.93 10.2576 127.139 9.37926 127.139C8.49763 127.139 7.71046 126.93 7.01776 126.513C6.32836 126.092 5.7848 125.49 5.38707 124.708C4.98935 123.926 4.79048 122.993 4.79048 121.909C4.79048 120.822 4.98935 119.889 5.38707 119.11C5.7848 118.328 6.32836 117.728 7.01776 117.31C7.71046 116.889 8.49763 116.679 9.37926 116.679C10.2576 116.679 11.0414 116.889 11.7308 117.31C12.4235 117.728 12.9688 118.328 13.3665 119.11C13.7642 119.889 13.9631 120.822 13.9631 121.909ZM12.4418 121.909C12.4418 121.08 12.3075 120.383 12.0391 119.816C11.7739 119.246 11.4093 118.815 10.9453 118.523C10.4846 118.228 9.96259 118.081 9.37926 118.081C8.79261 118.081 8.26894 118.228 7.80824 118.523C7.34754 118.815 6.98295 119.246 6.71449 119.816C6.44934 120.383 6.31676 121.08 6.31676 121.909C6.31676 122.738 6.44934 123.437 6.71449 124.007C6.98295 124.574 7.34754 125.005 7.80824 125.3C8.26894 125.591 8.79261 125.737 9.37926 125.737C9.96259 125.737 10.4846 125.591 10.9453 125.3C11.4093 125.005 11.7739 124.574 12.0391 124.007C12.3075 123.437 12.4418 122.738 12.4418 121.909ZM17.7456 122.466V127H16.2591V119.364H17.6859V120.607H17.7804C17.956 120.202 18.2311 119.877 18.6056 119.632C18.9835 119.387 19.4591 119.264 20.0325 119.264C20.5529 119.264 21.0086 119.374 21.3997 119.592C21.7908 119.808 22.094 120.129 22.3095 120.557C22.5249 120.984 22.6326 121.513 22.6326 122.143V127H21.1461V122.322C21.1461 121.768 21.002 121.336 20.7136 121.024C20.4252 120.709 20.0292 120.552 19.5254 120.552C19.1807 120.552 18.8741 120.626 18.6056 120.776C18.3405 120.925 18.13 121.143 17.9743 121.432C17.8218 121.717 17.7456 122.062 17.7456 122.466ZM29.4506 127V116.818H33.0799C33.872 116.818 34.5283 116.962 35.0487 117.251C35.569 117.539 35.9585 117.933 36.217 118.434C36.4755 118.931 36.6048 119.491 36.6048 120.114C36.6048 120.741 36.4738 121.304 36.212 121.805C35.9535 122.302 35.5624 122.696 35.0387 122.988C34.5183 123.276 33.8638 123.42 33.0749 123.42H30.5792V122.118H32.9357C33.4362 122.118 33.8422 122.032 34.1538 121.859C34.4653 121.684 34.694 121.445 34.8398 121.143C34.9857 120.842 35.0586 120.499 35.0586 120.114C35.0586 119.73 34.9857 119.388 34.8398 119.09C34.694 118.792 34.4637 118.558 34.1488 118.389C33.8372 118.22 33.4263 118.136 32.9158 118.136H30.9869V127H29.4506ZM38.7864 127V119.364H40.2232V120.577H40.3027C40.4419 120.166 40.6872 119.843 41.0385 119.607C41.3932 119.369 41.7942 119.249 42.2417 119.249C42.3345 119.249 42.4438 119.253 42.5698 119.259C42.699 119.266 42.8001 119.274 42.873 119.284V120.706C42.8134 120.689 42.7073 120.671 42.5549 120.651C42.4024 120.628 42.2499 120.616 42.0975 120.616C41.7462 120.616 41.4329 120.691 41.1578 120.84C40.8861 120.986 40.6706 121.19 40.5115 121.452C40.3525 121.71 40.2729 122.005 40.2729 122.337V127H38.7864ZM44.6594 127V119.364H46.146V127H44.6594ZM45.4102 118.185C45.1516 118.185 44.9296 118.099 44.744 117.927C44.5617 117.751 44.4705 117.542 44.4705 117.3C44.4705 117.055 44.5617 116.846 44.744 116.674C44.9296 116.498 45.1516 116.411 45.4102 116.411C45.6687 116.411 45.8891 116.498 46.0714 116.674C46.257 116.846 46.3498 117.055 46.3498 117.3C46.3498 117.542 46.257 117.751 46.0714 117.927C45.8891 118.099 45.6687 118.185 45.4102 118.185ZM48.6458 127V119.364H50.0726V120.607H50.1671C50.3262 120.186 50.5864 119.857 50.9476 119.622C51.3089 119.384 51.7414 119.264 52.2452 119.264C52.7556 119.264 53.1832 119.384 53.5279 119.622C53.8759 119.861 54.1328 120.189 54.2985 120.607H54.378C54.5603 120.199 54.8503 119.874 55.248 119.632C55.6458 119.387 56.1197 119.264 56.6699 119.264C57.3626 119.264 57.9277 119.481 58.3652 119.915C58.806 120.35 59.0265 121.004 59.0265 121.879V127H57.54V122.018C57.54 121.501 57.3991 121.127 57.1174 120.895C56.8356 120.663 56.4992 120.547 56.1081 120.547C55.6242 120.547 55.248 120.696 54.9796 120.994C54.7111 121.289 54.5769 121.669 54.5769 122.133V127H53.0953V121.924C53.0953 121.51 52.9661 121.177 52.7076 120.925C52.449 120.673 52.1126 120.547 51.6983 120.547C51.4166 120.547 51.1564 120.621 50.9178 120.771C50.6825 120.916 50.4919 121.12 50.3461 121.382C50.2035 121.644 50.1323 121.947 50.1323 122.292V127H48.6458ZM63.7411 127.169C63.2572 127.169 62.8197 127.08 62.4286 126.901C62.0375 126.718 61.7276 126.455 61.4989 126.11C61.2736 125.765 61.1609 125.343 61.1609 124.842C61.1609 124.411 61.2437 124.057 61.4094 123.778C61.5752 123.5 61.7989 123.28 62.0806 123.117C62.3623 122.955 62.6772 122.832 63.0252 122.749C63.3732 122.666 63.7279 122.603 64.0891 122.56C64.5465 122.507 64.9177 122.464 65.2028 122.431C65.4878 122.395 65.695 122.337 65.8242 122.257C65.9535 122.178 66.0181 122.048 66.0181 121.869V121.835C66.0181 121.4 65.8955 121.064 65.6502 120.825C65.4083 120.587 65.047 120.467 64.5664 120.467C64.0659 120.467 63.6715 120.578 63.3832 120.8C63.0981 121.019 62.9009 121.263 62.7915 121.531L61.3945 121.213C61.5603 120.749 61.8022 120.375 62.1204 120.089C62.4419 119.801 62.8114 119.592 63.229 119.463C63.6467 119.33 64.0858 119.264 64.5465 119.264C64.8514 119.264 65.1746 119.301 65.516 119.374C65.8607 119.443 66.1822 119.572 66.4805 119.761C66.7821 119.95 67.029 120.22 67.2212 120.572C67.4135 120.92 67.5096 121.372 67.5096 121.929V127H66.0579V125.956H65.9982C65.9021 126.148 65.7579 126.337 65.5657 126.523C65.3735 126.708 65.1265 126.862 64.8249 126.985C64.5233 127.108 64.1621 127.169 63.7411 127.169ZM64.0643 125.976C64.4753 125.976 64.8266 125.895 65.1183 125.732C65.4132 125.57 65.637 125.358 65.7894 125.096C65.9452 124.831 66.0231 124.547 66.0231 124.246V123.261C65.9701 123.314 65.8673 123.364 65.7148 123.411C65.5657 123.454 65.395 123.492 65.2028 123.525C65.0105 123.555 64.8233 123.583 64.641 123.609C64.4587 123.633 64.3062 123.652 64.1836 123.669C63.8952 123.705 63.6317 123.767 63.3931 123.853C63.1578 123.939 62.9689 124.063 62.8263 124.226C62.6871 124.385 62.6175 124.597 62.6175 124.862C62.6175 125.23 62.7534 125.509 63.0252 125.697C63.297 125.883 63.6433 125.976 64.0643 125.976ZM69.9895 127V119.364H71.4263V120.577H71.5059C71.6451 120.166 71.8903 119.843 72.2417 119.607C72.5963 119.369 72.9973 119.249 73.4448 119.249C73.5376 119.249 73.647 119.253 73.7729 119.259C73.9022 119.266 74.0033 119.274 74.0762 119.284V120.706C74.0165 120.689 73.9105 120.671 73.758 120.651C73.6055 120.628 73.4531 120.616 73.3006 120.616C72.9493 120.616 72.6361 120.691 72.361 120.84C72.0892 120.986 71.8738 121.19 71.7147 121.452C71.5556 121.71 71.476 122.005 71.476 122.337V127H69.9895ZM77.0346 129.864C76.8126 129.864 76.6104 129.845 76.4281 129.809C76.2458 129.776 76.1099 129.739 76.0204 129.7L76.3784 128.482C76.6502 128.554 76.8921 128.586 77.1042 128.576C77.3163 128.566 77.5036 128.487 77.666 128.337C77.8317 128.188 77.9776 127.945 78.1035 127.607L78.2875 127.099L75.4934 119.364H77.0843L79.0183 125.29H79.0978L81.0318 119.364H82.6277L79.4806 128.019C79.3348 128.417 79.1492 128.753 78.9238 129.028C78.6984 129.307 78.43 129.516 78.1184 129.655C77.8069 129.794 77.4456 129.864 77.0346 129.864Z" fill="#1C1B1E"/>
<defs>
<filter id="filter0_d_824_1243" x="0" y="0" width="224" height="100" filterUnits="userSpaceOnUse" color-interpolation-filters="sRGB">
<feFlood flood-opacity="0" result="BackgroundImageFix"/>
<feColorMatrix in="SourceAlpha" type="matrix" values="0 0 0 0 0 0 0 0 0 0 0 0 0 0 0 0 0 0 127 0" result="hardAlpha"/>
<feOffset dy="1"/>
<feGaussianBlur stdDeviation="2"/>
<feComposite in2="hardAlpha" operator="out"/>
<feColorMatrix type="matrix" values="0 0 0 0 0 0 0 0 0 0 0 0 0 0 0 0 0 0 0.1 0"/>
<feBlend mode="normal" in2="BackgroundImageFix" result="effect1_dropShadow_824_1243"/>
<feBlend mode="normal" in="SourceGraphic" in2="effect1_dropShadow_824_1243" result="shape"/>
</filter>
</defs>
</svg>
