<svg width="224" height="133" viewBox="0 0 224 133" fill="none" xmlns="http://www.w3.org/2000/svg">
<g filter="url(#filter0_d_824_1253)">
<rect x="4" y="3" width="216" height="92" rx="8" fill="#1D0062"/>
</g>
<path d="M85.2198 54L86.8903 43.8182H88.0835L86.413 54H85.2198ZM80.6112 51.2756L80.805 50.0824H88.521L88.3271 51.2756H80.6112ZM81.6403 54L83.3107 43.8182H84.5039L82.8335 54H81.6403ZM81.2028 47.7358L81.3967 46.5426H89.1126L88.9187 47.7358H81.2028ZM94.6587 43.8182V54H93.1175V45.3594H93.0579L90.6218 46.9503V45.4787L93.1623 43.8182H94.6587ZM101.348 54H98.0522V43.8182H101.453C102.45 43.8182 103.307 44.022 104.023 44.4297C104.739 44.834 105.288 45.4157 105.669 46.1747C106.053 46.9304 106.245 47.8369 106.245 48.8942C106.245 49.9548 106.051 50.8662 105.664 51.6286C105.279 52.3909 104.722 52.9775 103.993 53.3885C103.264 53.7962 102.382 54 101.348 54ZM99.5884 52.6577H101.264C102.039 52.6577 102.684 52.5118 103.198 52.2202C103.712 51.9252 104.096 51.4993 104.351 50.9425C104.606 50.3823 104.734 49.6996 104.734 48.8942C104.734 48.0954 104.606 47.4176 104.351 46.8608C104.099 46.304 103.723 45.8814 103.223 45.593C102.722 45.3047 102.101 45.1605 101.358 45.1605H99.5884V52.6577ZM112.061 54.169C111.276 54.1657 110.605 53.9586 110.048 53.5476C109.491 53.1366 109.065 52.5384 108.77 51.7528C108.475 50.9673 108.328 50.0211 108.328 48.9141C108.328 47.8104 108.475 46.8674 108.77 46.0852C109.068 45.303 109.496 44.7064 110.053 44.2955C110.613 43.8845 111.282 43.679 112.061 43.679C112.84 43.679 113.508 43.8861 114.065 44.3004C114.622 44.7114 115.048 45.308 115.343 46.0902C115.641 46.8691 115.79 47.8104 115.79 48.9141C115.79 50.0244 115.642 50.9723 115.347 51.7578C115.052 52.54 114.627 53.1383 114.07 53.5526C113.513 53.9635 112.843 54.169 112.061 54.169ZM112.061 52.8416C112.751 52.8416 113.289 52.5052 113.677 51.8324C114.068 51.1596 114.264 50.1868 114.264 48.9141C114.264 48.0689 114.174 47.3546 113.995 46.7713C113.82 46.1847 113.566 45.7405 113.235 45.4389C112.906 45.134 112.515 44.9815 112.061 44.9815C111.375 44.9815 110.837 45.3196 110.445 45.9957C110.054 46.6719 109.857 47.6446 109.854 48.9141C109.854 49.7625 109.942 50.4801 110.117 51.0668C110.296 51.6501 110.55 52.0926 110.878 52.3942C111.206 52.6925 111.601 52.8416 112.061 52.8416ZM121.598 54.169C120.813 54.1657 120.142 53.9586 119.585 53.5476C119.028 53.1366 118.602 52.5384 118.307 51.7528C118.012 50.9673 117.865 50.0211 117.865 48.9141C117.865 47.8104 118.012 46.8674 118.307 46.0852C118.605 45.303 119.033 44.7064 119.59 44.2955C120.15 43.8845 120.819 43.679 121.598 43.679C122.377 43.679 123.045 43.8861 123.602 44.3004C124.159 44.7114 124.585 45.308 124.88 46.0902C125.178 46.8691 125.327 47.8104 125.327 48.9141C125.327 50.0244 125.18 50.9723 124.885 51.7578C124.59 52.54 124.164 53.1383 123.607 53.5526C123.05 53.9635 122.381 54.169 121.598 54.169ZM121.598 52.8416C122.288 52.8416 122.826 52.5052 123.214 51.8324C123.605 51.1596 123.801 50.1868 123.801 48.9141C123.801 48.0689 123.711 47.3546 123.532 46.7713C123.357 46.1847 123.103 45.7405 122.772 45.4389C122.444 45.134 122.052 44.9815 121.598 44.9815C120.912 44.9815 120.374 45.3196 119.983 45.9957C119.592 46.6719 119.394 47.6446 119.391 48.9141C119.391 49.7625 119.479 50.4801 119.654 51.0668C119.833 51.6501 120.087 52.0926 120.415 52.3942C120.743 52.6925 121.138 52.8416 121.598 52.8416ZM131.145 54.1392C130.691 54.1326 130.244 54.0497 129.803 53.8906C129.366 53.7315 128.968 53.4664 128.61 53.0952C128.252 52.724 127.965 52.2251 127.75 51.5987C127.538 50.9723 127.432 50.1901 127.432 49.2521C127.432 48.3639 127.519 47.575 127.695 46.8857C127.874 46.1963 128.131 45.6146 128.466 45.1406C128.8 44.6634 129.205 44.3004 129.679 44.0518C130.153 43.8033 130.685 43.679 131.275 43.679C131.881 43.679 132.42 43.7983 132.89 44.0369C133.361 44.2756 133.742 44.6054 134.034 45.0263C134.329 45.4472 134.516 45.9261 134.596 46.4631H133.079C132.977 46.0388 132.773 45.6925 132.468 45.424C132.163 45.1555 131.765 45.0213 131.275 45.0213C130.529 45.0213 129.947 45.3461 129.53 45.9957C129.115 46.6454 128.907 47.5485 128.903 48.7053H128.978C129.153 48.4169 129.369 48.1716 129.624 47.9695C129.883 47.764 130.171 47.6065 130.489 47.4972C130.811 47.3845 131.149 47.3281 131.503 47.3281C132.093 47.3281 132.627 47.4723 133.104 47.7607C133.585 48.0457 133.968 48.4401 134.253 48.9439C134.538 49.4477 134.68 50.0244 134.68 50.674C134.68 51.3236 134.533 51.9119 134.238 52.4389C133.946 52.9659 133.535 53.3835 133.005 53.6918C132.474 53.9967 131.855 54.1458 131.145 54.1392ZM131.14 52.8466C131.532 52.8466 131.881 52.7505 132.189 52.5582C132.498 52.366 132.741 52.1075 132.92 51.7827C133.099 51.4579 133.189 51.0949 133.189 50.6939C133.189 50.3028 133.101 49.9465 132.925 49.625C132.753 49.3035 132.514 49.0483 132.209 48.8594C131.908 48.6705 131.563 48.576 131.175 48.576C130.88 48.576 130.607 48.6323 130.355 48.745C130.106 48.8577 129.888 49.0135 129.699 49.2124C129.51 49.4112 129.361 49.6399 129.251 49.8984C129.145 50.1536 129.092 50.4238 129.092 50.7088C129.092 51.09 129.18 51.4429 129.356 51.7678C129.535 52.0926 129.778 52.3544 130.086 52.5533C130.398 52.7488 130.749 52.8466 131.14 52.8466ZM136.991 54V52.8864L140.436 49.3168C140.804 48.929 141.108 48.5893 141.346 48.2976C141.588 48.0026 141.769 47.7225 141.888 47.4574C142.007 47.1922 142.067 46.9105 142.067 46.6122C142.067 46.2741 141.988 45.9825 141.828 45.7372C141.669 45.4886 141.452 45.2981 141.177 45.1655C140.902 45.0296 140.592 44.9616 140.248 44.9616C139.883 44.9616 139.565 45.0362 139.293 45.1854C139.021 45.3345 138.812 45.545 138.667 45.8168C138.521 46.0885 138.448 46.4067 138.448 46.7713H136.981C136.981 46.1515 137.124 45.6096 137.409 45.1456C137.694 44.6816 138.085 44.322 138.582 44.0668C139.079 43.8082 139.644 43.679 140.277 43.679C140.917 43.679 141.48 43.8066 141.968 44.0618C142.458 44.3137 142.841 44.6584 143.116 45.0959C143.391 45.5301 143.529 46.0206 143.529 46.5675C143.529 46.9453 143.458 47.3149 143.315 47.6761C143.176 48.0374 142.932 48.4401 142.584 48.8842C142.236 49.325 141.752 49.8603 141.132 50.4901L139.109 52.608V52.6825H143.693V54H136.991Z" fill="#FFFBFF"/>
<path d="M13.9631 121.909C13.9631 122.996 13.7642 123.931 13.3665 124.713C12.9688 125.492 12.4235 126.092 11.7308 126.513C11.0414 126.93 10.2576 127.139 9.37926 127.139C8.49763 127.139 7.71046 126.93 7.01776 126.513C6.32836 126.092 5.7848 125.49 5.38707 124.708C4.98935 123.926 4.79048 122.993 4.79048 121.909C4.79048 120.822 4.98935 119.889 5.38707 119.11C5.7848 118.328 6.32836 117.728 7.01776 117.31C7.71046 116.889 8.49763 116.679 9.37926 116.679C10.2576 116.679 11.0414 116.889 11.7308 117.31C12.4235 117.728 12.9688 118.328 13.3665 119.11C13.7642 119.889 13.9631 120.822 13.9631 121.909ZM12.4418 121.909C12.4418 121.08 12.3075 120.383 12.0391 119.816C11.7739 119.246 11.4093 118.815 10.9453 118.523C10.4846 118.228 9.96259 118.081 9.37926 118.081C8.79261 118.081 8.26894 118.228 7.80824 118.523C7.34754 118.815 6.98295 119.246 6.71449 119.816C6.44934 120.383 6.31676 121.08 6.31676 121.909C6.31676 122.738 6.44934 123.437 6.71449 124.007C6.98295 124.574 7.34754 125.005 7.80824 125.3C8.26894 125.591 8.79261 125.737 9.37926 125.737C9.96259 125.737 10.4846 125.591 10.9453 125.3C11.4093 125.005 11.7739 124.574 12.0391 124.007C12.3075 123.437 12.4418 122.738 12.4418 121.909ZM17.7456 122.466V127H16.2591V119.364H17.6859V120.607H17.7804C17.956 120.202 18.2311 119.877 18.6056 119.632C18.9835 119.387 19.4591 119.264 20.0325 119.264C20.5529 119.264 21.0086 119.374 21.3997 119.592C21.7908 119.808 22.094 120.129 22.3095 120.557C22.5249 120.984 22.6326 121.513 22.6326 122.143V127H21.1461V122.322C21.1461 121.768 21.002 121.336 20.7136 121.024C20.4252 120.709 20.0292 120.552 19.5254 120.552C19.1807 120.552 18.8741 120.626 18.6056 120.776C18.3405 120.925 18.13 121.143 17.9743 121.432C17.8218 121.717 17.7456 122.062 17.7456 122.466ZM29.4506 127V116.818H33.0799C33.872 116.818 34.5283 116.962 35.0487 117.251C35.569 117.539 35.9585 117.933 36.217 118.434C36.4755 118.931 36.6048 119.491 36.6048 120.114C36.6048 120.741 36.4738 121.304 36.212 121.805C35.9535 122.302 35.5624 122.696 35.0387 122.988C34.5183 123.276 33.8638 123.42 33.0749 123.42H30.5792V122.118H32.9357C33.4362 122.118 33.8422 122.032 34.1538 121.859C34.4653 121.684 34.694 121.445 34.8398 121.143C34.9857 120.842 35.0586 120.499 35.0586 120.114C35.0586 119.73 34.9857 119.388 34.8398 119.09C34.694 118.792 34.4637 118.558 34.1488 118.389C33.8372 118.22 33.4263 118.136 32.9158 118.136H30.9869V127H29.4506ZM38.7864 127V119.364H40.2232V120.577H40.3027C40.4419 120.166 40.6872 119.843 41.0385 119.607C41.3932 119.369 41.7942 119.249 42.2417 119.249C42.3345 119.249 42.4438 119.253 42.5698 119.259C42.699 119.266 42.8001 119.274 42.873 119.284V120.706C42.8134 120.689 42.7073 120.671 42.5549 120.651C42.4024 120.628 42.2499 120.616 42.0975 120.616C41.7462 120.616 41.4329 120.691 41.1578 120.84C40.8861 120.986 40.6706 121.19 40.5115 121.452C40.3525 121.71 40.2729 122.005 40.2729 122.337V127H38.7864ZM44.6594 127V119.364H46.146V127H44.6594ZM45.4102 118.185C45.1516 118.185 44.9296 118.099 44.744 117.927C44.5617 117.751 44.4705 117.542 44.4705 117.3C44.4705 117.055 44.5617 116.846 44.744 116.674C44.9296 116.498 45.1516 116.411 45.4102 116.411C45.6687 116.411 45.8891 116.498 46.0714 116.674C46.257 116.846 46.3498 117.055 46.3498 117.3C46.3498 117.542 46.257 117.751 46.0714 117.927C45.8891 118.099 45.6687 118.185 45.4102 118.185ZM48.6458 127V119.364H50.0726V120.607H50.1671C50.3262 120.186 50.5864 119.857 50.9476 119.622C51.3089 119.384 51.7414 119.264 52.2452 119.264C52.7556 119.264 53.1832 119.384 53.5279 119.622C53.8759 119.861 54.1328 120.189 54.2985 120.607H54.378C54.5603 120.199 54.8503 119.874 55.248 119.632C55.6458 119.387 56.1197 119.264 56.6699 119.264C57.3626 119.264 57.9277 119.481 58.3652 119.915C58.806 120.35 59.0265 121.004 59.0265 121.879V127H57.54V122.018C57.54 121.501 57.3991 121.127 57.1174 120.895C56.8356 120.663 56.4992 120.547 56.1081 120.547C55.6242 120.547 55.248 120.696 54.9796 120.994C54.7111 121.289 54.5769 121.669 54.5769 122.133V127H53.0953V121.924C53.0953 121.51 52.9661 121.177 52.7076 120.925C52.449 120.673 52.1126 120.547 51.6983 120.547C51.4166 120.547 51.1564 120.621 50.9178 120.771C50.6825 120.916 50.4919 121.12 50.3461 121.382C50.2035 121.644 50.1323 121.947 50.1323 122.292V127H48.6458ZM63.7411 127.169C63.2572 127.169 62.8197 127.08 62.4286 126.901C62.0375 126.718 61.7276 126.455 61.4989 126.11C61.2736 125.765 61.1609 125.343 61.1609 124.842C61.1609 124.411 61.2437 124.057 61.4094 123.778C61.5752 123.5 61.7989 123.28 62.0806 123.117C62.3623 122.955 62.6772 122.832 63.0252 122.749C63.3732 122.666 63.7279 122.603 64.0891 122.56C64.5465 122.507 64.9177 122.464 65.2028 122.431C65.4878 122.395 65.695 122.337 65.8242 122.257C65.9535 122.178 66.0181 122.048 66.0181 121.869V121.835C66.0181 121.4 65.8955 121.064 65.6502 120.825C65.4083 120.587 65.047 120.467 64.5664 120.467C64.0659 120.467 63.6715 120.578 63.3832 120.8C63.0981 121.019 62.9009 121.263 62.7915 121.531L61.3945 121.213C61.5603 120.749 61.8022 120.375 62.1204 120.089C62.4419 119.801 62.8114 119.592 63.229 119.463C63.6467 119.33 64.0858 119.264 64.5465 119.264C64.8514 119.264 65.1746 119.301 65.516 119.374C65.8607 119.443 66.1822 119.572 66.4805 119.761C66.7821 119.95 67.029 120.22 67.2212 120.572C67.4135 120.92 67.5096 121.372 67.5096 121.929V127H66.0579V125.956H65.9982C65.9021 126.148 65.7579 126.337 65.5657 126.523C65.3735 126.708 65.1265 126.862 64.8249 126.985C64.5233 127.108 64.1621 127.169 63.7411 127.169ZM64.0643 125.976C64.4753 125.976 64.8266 125.895 65.1183 125.732C65.4132 125.57 65.637 125.358 65.7894 125.096C65.9452 124.831 66.0231 124.547 66.0231 124.246V123.261C65.9701 123.314 65.8673 123.364 65.7148 123.411C65.5657 123.454 65.395 123.492 65.2028 123.525C65.0105 123.555 64.8233 123.583 64.641 123.609C64.4587 123.633 64.3062 123.652 64.1836 123.669C63.8952 123.705 63.6317 123.767 63.3931 123.853C63.1578 123.939 62.9689 124.063 62.8263 124.226C62.6871 124.385 62.6175 124.597 62.6175 124.862C62.6175 125.23 62.7534 125.509 63.0252 125.697C63.297 125.883 63.6433 125.976 64.0643 125.976ZM69.9895 127V119.364H71.4263V120.577H71.5059C71.6451 120.166 71.8903 119.843 72.2417 119.607C72.5963 119.369 72.9973 119.249 73.4448 119.249C73.5376 119.249 73.647 119.253 73.7729 119.259C73.9022 119.266 74.0033 119.274 74.0762 119.284V120.706C74.0165 120.689 73.9105 120.671 73.758 120.651C73.6055 120.628 73.4531 120.616 73.3006 120.616C72.9493 120.616 72.6361 120.691 72.361 120.84C72.0892 120.986 71.8738 121.19 71.7147 121.452C71.5556 121.71 71.476 122.005 71.476 122.337V127H69.9895ZM77.0346 129.864C76.8126 129.864 76.6104 129.845 76.4281 129.809C76.2458 129.776 76.1099 129.739 76.0204 129.7L76.3784 128.482C76.6502 128.554 76.8921 128.586 77.1042 128.576C77.3163 128.566 77.5036 128.487 77.666 128.337C77.8317 128.188 77.9776 127.945 78.1035 127.607L78.2875 127.099L75.4934 119.364H77.0843L79.0183 125.29H79.0978L81.0318 119.364H82.6277L79.4806 128.019C79.3348 128.417 79.1492 128.753 78.9238 129.028C78.6984 129.307 78.43 129.516 78.1184 129.655C77.8069 129.794 77.4456 129.864 77.0346 129.864ZM97.3058 120.129H95.7546C95.695 119.798 95.5839 119.506 95.4215 119.254C95.2591 119.002 95.0603 118.789 94.8249 118.613C94.5896 118.437 94.3261 118.305 94.0344 118.215C93.7461 118.126 93.4395 118.081 93.1147 118.081C92.5281 118.081 92.0027 118.228 91.5387 118.523C91.078 118.818 90.7134 119.251 90.445 119.821C90.1798 120.391 90.0472 121.087 90.0472 121.909C90.0472 122.738 90.1798 123.437 90.445 124.007C90.7134 124.577 91.0797 125.008 91.5437 125.3C92.0077 125.591 92.5297 125.737 93.1097 125.737C93.4312 125.737 93.7362 125.694 94.0245 125.608C94.3162 125.518 94.5797 125.388 94.815 125.215C95.0503 125.043 95.2492 124.832 95.4116 124.584C95.5773 124.332 95.6916 124.044 95.7546 123.719L97.3058 123.724C97.2229 124.224 97.0621 124.685 96.8235 125.106C96.5882 125.523 96.2849 125.885 95.9137 126.19C95.5458 126.491 95.1249 126.725 94.6509 126.891C94.177 127.056 93.6599 127.139 93.0998 127.139C92.2182 127.139 91.4326 126.93 90.7433 126.513C90.0539 126.092 89.5103 125.49 89.1126 124.708C88.7182 123.926 88.521 122.993 88.521 121.909C88.521 120.822 88.7198 119.889 89.1175 119.11C89.5153 118.328 90.0588 117.728 90.7482 117.31C91.4376 116.889 92.2215 116.679 93.0998 116.679C93.64 116.679 94.1438 116.757 94.6112 116.913C95.0818 117.065 95.5044 117.29 95.8789 117.589C96.2534 117.884 96.5633 118.245 96.8086 118.673C97.0539 119.097 97.2196 119.582 97.3058 120.129ZM102.741 127.154C102.025 127.154 101.401 126.99 100.867 126.662C100.333 126.334 99.9191 125.875 99.6241 125.285C99.3291 124.695 99.1816 124.005 99.1816 123.217C99.1816 122.424 99.3291 121.732 99.6241 121.138C99.9191 120.545 100.333 120.085 100.867 119.756C101.401 119.428 102.025 119.264 102.741 119.264C103.457 119.264 104.082 119.428 104.616 119.756C105.149 120.085 105.564 120.545 105.858 121.138C106.153 121.732 106.301 122.424 106.301 123.217C106.301 124.005 106.153 124.695 105.858 125.285C105.564 125.875 105.149 126.334 104.616 126.662C104.082 126.99 103.457 127.154 102.741 127.154ZM102.746 125.906C103.21 125.906 103.595 125.784 103.9 125.538C104.205 125.293 104.43 124.967 104.576 124.559C104.725 124.151 104.8 123.702 104.8 123.212C104.8 122.724 104.725 122.277 104.576 121.869C104.43 121.458 104.205 121.129 103.9 120.88C103.595 120.631 103.21 120.507 102.746 120.507C102.279 120.507 101.891 120.631 101.583 120.88C101.278 121.129 101.051 121.458 100.902 121.869C100.756 122.277 100.683 122.724 100.683 123.212C100.683 123.702 100.756 124.151 100.902 124.559C101.051 124.967 101.278 125.293 101.583 125.538C101.891 125.784 102.279 125.906 102.746 125.906ZM109.947 122.466V127H108.46V119.364H109.887V120.607H109.982C110.157 120.202 110.432 119.877 110.807 119.632C111.185 119.387 111.66 119.264 112.234 119.264C112.754 119.264 113.21 119.374 113.601 119.592C113.992 119.808 114.295 120.129 114.511 120.557C114.726 120.984 114.834 121.513 114.834 122.143V127H113.347V122.322C113.347 121.768 113.203 121.336 112.915 121.024C112.626 120.709 112.23 120.552 111.727 120.552C111.382 120.552 111.075 120.626 110.807 120.776C110.542 120.925 110.331 121.143 110.175 121.432C110.023 121.717 109.947 122.062 109.947 122.466ZM120.892 119.364V120.557H116.721V119.364H120.892ZM117.839 117.534H119.326V124.758C119.326 125.046 119.369 125.263 119.455 125.409C119.541 125.552 119.652 125.649 119.788 125.702C119.928 125.752 120.078 125.777 120.241 125.777C120.36 125.777 120.464 125.769 120.554 125.752C120.643 125.736 120.713 125.722 120.763 125.712L121.031 126.94C120.945 126.973 120.822 127.007 120.663 127.04C120.504 127.076 120.305 127.096 120.067 127.099C119.676 127.106 119.311 127.036 118.973 126.891C118.635 126.745 118.362 126.519 118.153 126.214C117.944 125.91 117.839 125.527 117.839 125.066V117.534ZM125.259 127.169C124.775 127.169 124.337 127.08 123.946 126.901C123.555 126.718 123.245 126.455 123.017 126.11C122.791 125.765 122.678 125.343 122.678 124.842C122.678 124.411 122.761 124.057 122.927 123.778C123.093 123.5 123.316 123.28 123.598 123.117C123.88 122.955 124.195 122.832 124.543 122.749C124.891 122.666 125.245 122.603 125.607 122.56C126.064 122.507 126.435 122.464 126.72 122.431C127.005 122.395 127.213 122.337 127.342 122.257C127.471 122.178 127.536 122.048 127.536 121.869V121.835C127.536 121.4 127.413 121.064 127.168 120.825C126.926 120.587 126.565 120.467 126.084 120.467C125.584 120.467 125.189 120.578 124.901 120.8C124.616 121.019 124.419 121.263 124.309 121.531L122.912 121.213C123.078 120.749 123.32 120.375 123.638 120.089C123.959 119.801 124.329 119.592 124.747 119.463C125.164 119.33 125.603 119.264 126.064 119.264C126.369 119.264 126.692 119.301 127.034 119.374C127.378 119.443 127.7 119.572 127.998 119.761C128.3 119.95 128.547 120.22 128.739 120.572C128.931 120.92 129.027 121.372 129.027 121.929V127H127.575V125.956H127.516C127.42 126.148 127.276 126.337 127.083 126.523C126.891 126.708 126.644 126.862 126.343 126.985C126.041 127.108 125.68 127.169 125.259 127.169ZM125.582 125.976C125.993 125.976 126.344 125.895 126.636 125.732C126.931 125.57 127.155 125.358 127.307 125.096C127.463 124.831 127.541 124.547 127.541 124.246V123.261C127.488 123.314 127.385 123.364 127.232 123.411C127.083 123.454 126.913 123.492 126.72 123.525C126.528 123.555 126.341 123.583 126.159 123.609C125.976 123.633 125.824 123.652 125.701 123.669C125.413 123.705 125.149 123.767 124.911 123.853C124.675 123.939 124.486 124.063 124.344 124.226C124.205 124.385 124.135 124.597 124.135 124.862C124.135 125.23 124.271 125.509 124.543 125.697C124.815 125.883 125.161 125.976 125.582 125.976ZM131.507 127V119.364H132.994V127H131.507ZM132.258 118.185C131.999 118.185 131.777 118.099 131.592 117.927C131.409 117.751 131.318 117.542 131.318 117.3C131.318 117.055 131.409 116.846 131.592 116.674C131.777 116.498 131.999 116.411 132.258 116.411C132.516 116.411 132.737 116.498 132.919 116.674C133.105 116.846 133.197 117.055 133.197 117.3C133.197 117.542 133.105 117.751 132.919 117.927C132.737 118.099 132.516 118.185 132.258 118.185ZM136.98 122.466V127H135.493V119.364H136.92V120.607H137.015C137.19 120.202 137.465 119.877 137.84 119.632C138.218 119.387 138.693 119.264 139.267 119.264C139.787 119.264 140.243 119.374 140.634 119.592C141.025 119.808 141.328 120.129 141.544 120.557C141.759 120.984 141.867 121.513 141.867 122.143V127H140.381V122.322C140.381 121.768 140.236 121.336 139.948 121.024C139.66 120.709 139.264 120.552 138.76 120.552C138.415 120.552 138.108 120.626 137.84 120.776C137.575 120.925 137.364 121.143 137.209 121.432C137.056 121.717 136.98 122.062 136.98 122.466ZM147.652 127.154C146.899 127.154 146.251 126.993 145.708 126.672C145.168 126.347 144.75 125.891 144.455 125.305C144.163 124.715 144.018 124.024 144.018 123.232C144.018 122.449 144.163 121.76 144.455 121.163C144.75 120.567 145.161 120.101 145.688 119.766C146.218 119.432 146.838 119.264 147.547 119.264C147.978 119.264 148.396 119.335 148.8 119.478C149.205 119.621 149.568 119.844 149.889 120.149C150.211 120.454 150.464 120.85 150.65 121.337C150.835 121.821 150.928 122.41 150.928 123.102V123.629H144.858V122.516H149.471C149.471 122.125 149.392 121.778 149.233 121.477C149.074 121.172 148.85 120.931 148.562 120.756C148.277 120.58 147.942 120.492 147.557 120.492C147.14 120.492 146.775 120.595 146.464 120.8C146.155 121.003 145.917 121.268 145.748 121.596C145.582 121.921 145.499 122.274 145.499 122.655V123.525C145.499 124.035 145.589 124.469 145.768 124.827C145.95 125.185 146.203 125.459 146.528 125.648C146.853 125.833 147.233 125.926 147.667 125.926C147.948 125.926 148.205 125.886 148.437 125.807C148.669 125.724 148.87 125.601 149.039 125.439C149.208 125.277 149.337 125.076 149.427 124.837L150.834 125.091C150.721 125.505 150.519 125.868 150.227 126.18C149.939 126.488 149.576 126.728 149.138 126.901C148.704 127.07 148.209 127.154 147.652 127.154ZM153.077 127V119.364H154.514V120.577H154.594C154.733 120.166 154.978 119.843 155.33 119.607C155.684 119.369 156.085 119.249 156.533 119.249C156.625 119.249 156.735 119.253 156.861 119.259C156.99 119.266 157.091 119.274 157.164 119.284V120.706C157.104 120.689 156.998 120.671 156.846 120.651C156.693 120.628 156.541 120.616 156.388 120.616C156.037 120.616 155.724 120.691 155.449 120.84C155.177 120.986 154.962 121.19 154.803 121.452C154.643 121.71 154.564 122.005 154.564 122.337V127H153.077Z" fill="#1C1B1E"/>
<defs>
<filter id="filter0_d_824_1253" x="0" y="0" width="224" height="100" filterUnits="userSpaceOnUse" color-interpolation-filters="sRGB">
<feFlood flood-opacity="0" result="BackgroundImageFix"/>
<feColorMatrix in="SourceAlpha" type="matrix" values="0 0 0 0 0 0 0 0 0 0 0 0 0 0 0 0 0 0 127 0" result="hardAlpha"/>
<feOffset dy="1"/>
<feGaussianBlur stdDeviation="2"/>
<feComposite in2="hardAlpha" operator="out"/>
<feColorMatrix type="matrix" values="0 0 0 0 0 0 0 0 0 0 0 0 0 0 0 0 0 0 0.1 0"/>
<feBlend mode="normal" in2="BackgroundImageFix" result="effect1_dropShadow_824_1253"/>
<feBlend mode="normal" in="SourceGraphic" in2="effect1_dropShadow_824_1253" result="shape"/>
</filter>
</defs>
</svg>
