<svg width="224" height="133" viewBox="0 0 224 133" fill="none" xmlns="http://www.w3.org/2000/svg">
<g filter="url(#filter0_d_825_475)">
<rect x="4" y="3" width="216" height="92" rx="8" fill="#6E5D00"/>
</g>
<path d="M84.2628 54L85.9332 43.8182H87.1264L85.456 54H84.2628ZM79.6541 51.2756L79.848 50.0824H87.5639L87.37 51.2756H79.6541ZM80.6832 54L82.3537 43.8182H83.5469L81.8764 54H80.6832ZM80.2457 47.7358L80.4396 46.5426H88.1555L87.9616 47.7358H80.2457ZM93.3935 54.1392C92.9394 54.1326 92.492 54.0497 92.0511 53.8906C91.6136 53.7315 91.2159 53.4664 90.858 53.0952C90.5 52.724 90.2133 52.2251 89.9979 51.5987C89.7857 50.9723 89.6797 50.1901 89.6797 49.2521C89.6797 48.3639 89.7675 47.575 89.9432 46.8857C90.1222 46.1963 90.379 45.6146 90.7138 45.1406C91.0485 44.6634 91.4529 44.3004 91.9268 44.0518C92.4008 43.8033 92.9328 43.679 93.5227 43.679C94.1293 43.679 94.6679 43.7983 95.1385 44.0369C95.6091 44.2756 95.9903 44.6054 96.282 45.0263C96.5769 45.4472 96.7642 45.9261 96.8438 46.4631H95.3274C95.2247 46.0388 95.0208 45.6925 94.7159 45.424C94.411 45.1555 94.0133 45.0213 93.5227 45.0213C92.777 45.0213 92.1953 45.3461 91.7777 45.9957C91.3634 46.6454 91.1546 47.5485 91.1513 48.7053H91.2259C91.4015 48.4169 91.617 48.1716 91.8722 47.9695C92.1307 47.764 92.419 47.6065 92.7372 47.4972C93.0587 47.3845 93.3968 47.3281 93.7514 47.3281C94.3414 47.3281 94.875 47.4723 95.3523 47.7607C95.8329 48.0457 96.2157 48.4401 96.5007 48.9439C96.7857 49.4477 96.9283 50.0244 96.9283 50.674C96.9283 51.3236 96.7808 51.9119 96.4858 52.4389C96.1941 52.9659 95.7831 53.3835 95.2528 53.6918C94.7225 53.9967 94.1027 54.1458 93.3935 54.1392ZM93.3885 52.8466C93.7796 52.8466 94.1293 52.7505 94.4375 52.5582C94.7457 52.366 94.9893 52.1075 95.1683 51.7827C95.3473 51.4579 95.4368 51.0949 95.4368 50.6939C95.4368 50.3028 95.349 49.9465 95.1733 49.625C95.0009 49.3035 94.7623 49.0483 94.4574 48.8594C94.1558 48.6705 93.8111 48.576 93.4233 48.576C93.1283 48.576 92.8549 48.6323 92.603 48.745C92.3544 48.8577 92.1357 49.0135 91.9467 49.2124C91.7578 49.4112 91.6087 49.6399 91.4993 49.8984C91.3932 50.1536 91.3402 50.4238 91.3402 50.7088C91.3402 51.09 91.428 51.4429 91.6037 51.7678C91.7827 52.0926 92.0263 52.3544 92.3345 52.5533C92.6461 52.7488 92.9974 52.8466 93.3885 52.8466ZM99.3784 54V43.8182H105.762V45.1406H100.915V48.2429H105.429V49.5604H100.915V52.6776H105.822V54H99.3784ZM111.536 54.1392C110.912 54.1392 110.352 54.0199 109.855 53.7812C109.361 53.5393 108.967 53.2079 108.672 52.7869C108.377 52.366 108.219 51.8854 108.2 51.3452H109.691C109.728 51.7827 109.921 52.1423 110.273 52.424C110.624 52.7057 111.045 52.8466 111.536 52.8466C111.927 52.8466 112.273 52.7571 112.575 52.5781C112.879 52.3958 113.118 52.1456 113.29 51.8274C113.466 51.5092 113.554 51.1463 113.554 50.7386C113.554 50.3243 113.464 49.9548 113.286 49.63C113.107 49.3052 112.86 49.05 112.545 48.8643C112.233 48.6787 111.875 48.5843 111.471 48.581C111.163 48.581 110.853 48.634 110.541 48.7401C110.23 48.8461 109.978 48.9853 109.786 49.1577L108.379 48.9489L108.95 43.8182H114.548V45.1357H110.228L109.905 47.9844H109.964C110.163 47.7921 110.427 47.6314 110.755 47.5021C111.086 47.3729 111.441 47.3082 111.819 47.3082C112.439 47.3082 112.991 47.4557 113.474 47.7507C113.962 48.0457 114.344 48.4484 114.623 48.9588C114.905 49.4659 115.044 50.0492 115.04 50.7088C115.044 51.3684 114.895 51.9567 114.593 52.4737C114.295 52.9908 113.88 53.3984 113.35 53.6967C112.823 53.9917 112.218 54.1392 111.536 54.1392ZM120.792 54H117.496V43.8182H120.896C121.894 43.8182 122.751 44.022 123.466 44.4297C124.182 44.834 124.731 45.4157 125.112 46.1747C125.497 46.9304 125.689 47.8369 125.689 48.8942C125.689 49.9548 125.495 50.8662 125.107 51.6286C124.723 52.3909 124.166 52.9775 123.437 53.3885C122.707 53.7962 121.826 54 120.792 54ZM119.032 52.6577H120.707C121.483 52.6577 122.127 52.5118 122.641 52.2202C123.155 51.9252 123.539 51.4993 123.795 50.9425C124.05 50.3823 124.177 49.6996 124.177 48.8942C124.177 48.0954 124.05 47.4176 123.795 46.8608C123.543 46.304 123.166 45.8814 122.666 45.593C122.166 45.3047 121.544 45.1605 120.802 45.1605H119.032V52.6577ZM131.505 54.169C130.719 54.1657 130.048 53.9586 129.491 53.5476C128.934 53.1366 128.508 52.5384 128.213 51.7528C127.918 50.9673 127.771 50.0211 127.771 48.9141C127.771 47.8104 127.918 46.8674 128.213 46.0852C128.512 45.303 128.939 44.7064 129.496 44.2955C130.056 43.8845 130.726 43.679 131.505 43.679C132.283 43.679 132.951 43.8861 133.508 44.3004C134.065 44.7114 134.491 45.308 134.786 46.0902C135.084 46.8691 135.233 47.8104 135.233 48.9141C135.233 50.0244 135.086 50.9723 134.791 51.7578C134.496 52.54 134.07 53.1383 133.513 53.5526C132.956 53.9635 132.287 54.169 131.505 54.169ZM131.505 52.8416C132.194 52.8416 132.733 52.5052 133.12 51.8324C133.511 51.1596 133.707 50.1868 133.707 48.9141C133.707 48.0689 133.618 47.3546 133.439 46.7713C133.263 46.1847 133.009 45.7405 132.678 45.4389C132.35 45.134 131.959 44.9815 131.505 44.9815C130.819 44.9815 130.28 45.3196 129.889 45.9957C129.498 46.6719 129.301 47.6446 129.297 48.9141C129.297 49.7625 129.385 50.4801 129.561 51.0668C129.74 51.6501 129.993 52.0926 130.321 52.3942C130.65 52.6925 131.044 52.8416 131.505 52.8416ZM141.042 54.169C140.256 54.1657 139.585 53.9586 139.028 53.5476C138.471 53.1366 138.046 52.5384 137.751 51.7528C137.456 50.9673 137.308 50.0211 137.308 48.9141C137.308 47.8104 137.456 46.8674 137.751 46.0852C138.049 45.303 138.476 44.7064 139.033 44.2955C139.593 43.8845 140.263 43.679 141.042 43.679C141.821 43.679 142.488 43.8861 143.045 44.3004C143.602 44.7114 144.028 45.308 144.323 46.0902C144.621 46.8691 144.77 47.8104 144.77 48.9141C144.77 50.0244 144.623 50.9723 144.328 51.7578C144.033 52.54 143.607 53.1383 143.05 53.5526C142.493 53.9635 141.824 54.169 141.042 54.169ZM141.042 52.8416C141.731 52.8416 142.27 52.5052 142.657 51.8324C143.049 51.1596 143.244 50.1868 143.244 48.9141C143.244 48.0689 143.155 47.3546 142.976 46.7713C142.8 46.1847 142.546 45.7405 142.215 45.4389C141.887 45.134 141.496 44.9815 141.042 44.9815C140.356 44.9815 139.817 45.3196 139.426 45.9957C139.035 46.6719 138.838 47.6446 138.834 48.9141C138.834 49.7625 138.922 50.4801 139.098 51.0668C139.277 51.6501 139.53 52.0926 139.858 52.3942C140.187 52.6925 140.581 52.8416 141.042 52.8416Z" fill="#FFFBFF"/>
<path d="M13.5753 120.129H12.0241C11.9645 119.798 11.8535 119.506 11.6911 119.254C11.5286 119.002 11.3298 118.789 11.0945 118.613C10.8591 118.437 10.5956 118.305 10.304 118.215C10.0156 118.126 9.70904 118.081 9.38423 118.081C8.79759 118.081 8.27225 118.228 7.80824 118.523C7.34754 118.818 6.98295 119.251 6.71449 119.821C6.44934 120.391 6.31676 121.087 6.31676 121.909C6.31676 122.738 6.44934 123.437 6.71449 124.007C6.98295 124.577 7.3492 125.008 7.81321 125.3C8.27723 125.591 8.79924 125.737 9.37926 125.737C9.70076 125.737 10.0057 125.694 10.294 125.608C10.5857 125.518 10.8492 125.388 11.0845 125.215C11.3198 125.043 11.5187 124.832 11.6811 124.584C11.8468 124.332 11.9612 124.044 12.0241 123.719L13.5753 123.724C13.4924 124.224 13.3317 124.685 13.093 125.106C12.8577 125.523 12.5545 125.885 12.1832 126.19C11.8153 126.491 11.3944 126.725 10.9205 126.891C10.4465 127.056 9.92945 127.139 9.36932 127.139C8.48769 127.139 7.70218 126.93 7.01278 126.513C6.32339 126.092 5.77983 125.49 5.3821 124.708C4.98769 123.926 4.79048 122.993 4.79048 121.909C4.79048 120.822 4.98935 119.889 5.38707 119.11C5.7848 118.328 6.32836 117.728 7.01776 117.31C7.70715 116.889 8.491 116.679 9.36932 116.679C9.90956 116.679 10.4134 116.757 10.8807 116.913C11.3513 117.065 11.7739 117.29 12.1484 117.589C12.523 117.884 12.8329 118.245 13.0781 118.673C13.3234 119.097 13.4891 119.582 13.5753 120.129ZM20.6316 123.833V119.364H22.123V127H20.6614V125.678H20.5819C20.4062 126.085 20.1245 126.425 19.7367 126.697C19.3522 126.965 18.8733 127.099 18.2999 127.099C17.8094 127.099 17.3752 126.992 16.9973 126.776C16.6228 126.558 16.3278 126.234 16.1124 125.807C15.9003 125.379 15.7942 124.851 15.7942 124.221V119.364H17.2807V124.042C17.2807 124.562 17.4249 124.977 17.7132 125.285C18.0016 125.593 18.3761 125.747 18.8368 125.747C19.1152 125.747 19.392 125.678 19.6671 125.538C19.9455 125.399 20.1758 125.189 20.3581 124.907C20.5437 124.625 20.6349 124.267 20.6316 123.833ZM30.3427 121.228L28.9954 121.467C28.939 121.294 28.8496 121.13 28.7269 120.974C28.6076 120.819 28.4452 120.691 28.2397 120.592C28.0342 120.492 27.7773 120.442 27.4691 120.442C27.0482 120.442 26.6969 120.537 26.4151 120.726C26.1334 120.911 25.9925 121.152 25.9925 121.447C25.9925 121.702 26.087 121.907 26.2759 122.063C26.4648 122.219 26.7698 122.347 27.1907 122.446L28.4038 122.724C29.1064 122.887 29.6301 123.137 29.9748 123.475C30.3195 123.813 30.4918 124.252 30.4918 124.793C30.4918 125.25 30.3593 125.658 30.0941 126.016C29.8323 126.37 29.466 126.649 28.9954 126.851C28.5281 127.053 27.9862 127.154 27.3697 127.154C26.5146 127.154 25.8169 126.972 25.2766 126.607C24.7364 126.239 24.4049 125.717 24.2823 125.041L25.7191 124.822C25.8086 125.197 25.9925 125.48 26.271 125.673C26.5494 125.862 26.9123 125.956 27.3597 125.956C27.8469 125.956 28.2364 125.855 28.5281 125.653C28.8197 125.447 28.9656 125.197 28.9656 124.902C28.9656 124.663 28.8761 124.463 28.6971 124.3C28.5214 124.138 28.2513 124.015 27.8867 123.933L26.5941 123.649C25.8815 123.487 25.3545 123.228 25.0131 122.874C24.6751 122.519 24.506 122.07 24.506 121.526C24.506 121.076 24.632 120.681 24.8839 120.343C25.1358 120.005 25.4838 119.741 25.9279 119.553C26.372 119.36 26.8808 119.264 27.4542 119.264C28.2795 119.264 28.9291 119.443 29.4031 119.801C29.877 120.156 30.1902 120.631 30.3427 121.228ZM36.1909 119.364V120.557H32.0197V119.364H36.1909ZM33.1383 117.534H34.6248V124.758C34.6248 125.046 34.6679 125.263 34.7541 125.409C34.8403 125.552 34.9513 125.649 35.0872 125.702C35.2264 125.752 35.3772 125.777 35.5396 125.777C35.6589 125.777 35.7633 125.769 35.8528 125.752C35.9423 125.736 36.0119 125.722 36.0616 125.712L36.3301 126.94C36.2439 126.973 36.1213 127.007 35.9622 127.04C35.8031 127.076 35.6042 127.096 35.3656 127.099C34.9745 127.106 34.6099 127.036 34.2718 126.891C33.9338 126.745 33.6603 126.519 33.4515 126.214C33.2427 125.91 33.1383 125.527 33.1383 125.066V117.534ZM41.4698 127.154C40.7539 127.154 40.1291 126.99 39.5955 126.662C39.0619 126.334 38.6476 125.875 38.3526 125.285C38.0576 124.695 37.9102 124.005 37.9102 123.217C37.9102 122.424 38.0576 121.732 38.3526 121.138C38.6476 120.545 39.0619 120.085 39.5955 119.756C40.1291 119.428 40.7539 119.264 41.4698 119.264C42.1857 119.264 42.8105 119.428 43.3441 119.756C43.8777 120.085 44.292 120.545 44.587 121.138C44.882 121.732 45.0295 122.424 45.0295 123.217C45.0295 124.005 44.882 124.695 44.587 125.285C44.292 125.875 43.8777 126.334 43.3441 126.662C42.8105 126.99 42.1857 127.154 41.4698 127.154ZM41.4748 125.906C41.9388 125.906 42.3233 125.784 42.6282 125.538C42.9331 125.293 43.1585 124.967 43.3043 124.559C43.4535 124.151 43.5281 123.702 43.5281 123.212C43.5281 122.724 43.4535 122.277 43.3043 121.869C43.1585 121.458 42.9331 121.129 42.6282 120.88C42.3233 120.631 41.9388 120.507 41.4748 120.507C41.0075 120.507 40.6197 120.631 40.3114 120.88C40.0065 121.129 39.7795 121.458 39.6303 121.869C39.4845 122.277 39.4116 122.724 39.4116 123.212C39.4116 123.702 39.4845 124.151 39.6303 124.559C39.7795 124.967 40.0065 125.293 40.3114 125.538C40.6197 125.784 41.0075 125.906 41.4748 125.906ZM47.1887 127V119.364H48.6156V120.607H48.71C48.8691 120.186 49.1293 119.857 49.4906 119.622C49.8519 119.384 50.2844 119.264 50.7882 119.264C51.2986 119.264 51.7261 119.384 52.0708 119.622C52.4189 119.861 52.6757 120.189 52.8414 120.607H52.921C53.1033 120.199 53.3933 119.874 53.791 119.632C54.1887 119.387 54.6627 119.264 55.2129 119.264C55.9056 119.264 56.4707 119.481 56.9082 119.915C57.349 120.35 57.5694 121.004 57.5694 121.879V127H56.0829V122.018C56.0829 121.501 55.9421 121.127 55.6603 120.895C55.3786 120.663 55.0422 120.547 54.6511 120.547C54.1672 120.547 53.791 120.696 53.5225 120.994C53.2541 121.289 53.1199 121.669 53.1199 122.133V127H51.6383V121.924C51.6383 121.51 51.5091 121.177 51.2505 120.925C50.992 120.673 50.6556 120.547 50.2413 120.547C49.9596 120.547 49.6994 120.621 49.4608 120.771C49.2254 120.916 49.0349 121.12 48.889 121.382C48.7465 121.644 48.6752 121.947 48.6752 122.292V127H47.1887ZM64.247 127V125.886L67.6923 122.317C68.0602 121.929 68.3635 121.589 68.6021 121.298C68.844 121.003 69.0247 120.723 69.144 120.457C69.2633 120.192 69.323 119.911 69.323 119.612C69.323 119.274 69.2434 118.982 69.0843 118.737C68.9252 118.489 68.7082 118.298 68.4331 118.165C68.158 118.03 67.8481 117.962 67.5034 117.962C67.1388 117.962 66.8206 118.036 66.5488 118.185C66.277 118.335 66.0682 118.545 65.9224 118.817C65.7766 119.089 65.7037 119.407 65.7037 119.771H64.237C64.237 119.152 64.3796 118.61 64.6646 118.146C64.9496 117.682 65.3407 117.322 65.8379 117.067C66.335 116.808 66.9002 116.679 67.5332 116.679C68.1729 116.679 68.7363 116.807 69.2235 117.062C69.7141 117.314 70.0969 117.658 70.372 118.096C70.6471 118.53 70.7846 119.021 70.7846 119.567C70.7846 119.945 70.7134 120.315 70.5708 120.676C70.4316 121.037 70.188 121.44 69.84 121.884C69.492 122.325 69.0081 122.86 68.3883 123.49L66.3649 125.608V125.683H70.9487V127H64.247Z" fill="#1C1B1E"/>
<defs>
<filter id="filter0_d_825_475" x="0" y="0" width="224" height="100" filterUnits="userSpaceOnUse" color-interpolation-filters="sRGB">
<feFlood flood-opacity="0" result="BackgroundImageFix"/>
<feColorMatrix in="SourceAlpha" type="matrix" values="0 0 0 0 0 0 0 0 0 0 0 0 0 0 0 0 0 0 127 0" result="hardAlpha"/>
<feOffset dy="1"/>
<feGaussianBlur stdDeviation="2"/>
<feComposite in2="hardAlpha" operator="out"/>
<feColorMatrix type="matrix" values="0 0 0 0 0 0 0 0 0 0 0 0 0 0 0 0 0 0 0.1 0"/>
<feBlend mode="normal" in2="BackgroundImageFix" result="effect1_dropShadow_825_475"/>
<feBlend mode="normal" in="SourceGraphic" in2="effect1_dropShadow_825_475" result="shape"/>
</filter>
</defs>
</svg>
