<svg width="224" height="133" viewBox="0 0 224 133" fill="none" xmlns="http://www.w3.org/2000/svg">
<g filter="url(#filter0_d_824_1242)">
<rect x="4" y="3" width="216" height="92" rx="8" fill="#642EF4"/>
</g>
<path d="M85.1378 54L86.8082 43.8182H88.0014L86.331 54H85.1378ZM80.5291 51.2756L80.723 50.0824H88.4389L88.245 51.2756H80.5291ZM81.5582 54L83.2287 43.8182H84.4219L82.7514 54H81.5582ZM81.1207 47.7358L81.3146 46.5426H89.0305L88.8366 47.7358H81.1207ZM94.2685 54.1392C93.8144 54.1326 93.367 54.0497 92.9261 53.8906C92.4886 53.7315 92.0909 53.4664 91.733 53.0952C91.375 52.724 91.0883 52.2251 90.8729 51.5987C90.6607 50.9723 90.5547 50.1901 90.5547 49.2521C90.5547 48.3639 90.6425 47.575 90.8182 46.8857C90.9972 46.1963 91.254 45.6146 91.5888 45.1406C91.9235 44.6634 92.3279 44.3004 92.8018 44.0518C93.2758 43.8033 93.8078 43.679 94.3977 43.679C95.0043 43.679 95.5429 43.7983 96.0135 44.0369C96.4841 44.2756 96.8653 44.6054 97.157 45.0263C97.4519 45.4472 97.6392 45.9261 97.7188 46.4631H96.2024C96.0997 46.0388 95.8958 45.6925 95.5909 45.424C95.286 45.1555 94.8883 45.0213 94.3977 45.0213C93.652 45.0213 93.0703 45.3461 92.6527 45.9957C92.2384 46.6454 92.0296 47.5485 92.0263 48.7053H92.1009C92.2765 48.4169 92.492 48.1716 92.7472 47.9695C93.0057 47.764 93.294 47.6065 93.6122 47.4972C93.9337 47.3845 94.2718 47.3281 94.6264 47.3281C95.2164 47.3281 95.75 47.4723 96.2273 47.7607C96.7079 48.0457 97.0907 48.4401 97.3757 48.9439C97.6607 49.4477 97.8033 50.0244 97.8033 50.674C97.8033 51.3236 97.6558 51.9119 97.3608 52.4389C97.0691 52.9659 96.6581 53.3835 96.1278 53.6918C95.5975 53.9967 94.9777 54.1458 94.2685 54.1392ZM94.2635 52.8466C94.6546 52.8466 95.0043 52.7505 95.3125 52.5582C95.6207 52.366 95.8643 52.1075 96.0433 51.7827C96.2223 51.4579 96.3118 51.0949 96.3118 50.6939C96.3118 50.3028 96.224 49.9465 96.0483 49.625C95.8759 49.3035 95.6373 49.0483 95.3324 48.8594C95.0308 48.6705 94.6861 48.576 94.2983 48.576C94.0033 48.576 93.7299 48.6323 93.478 48.745C93.2294 48.8577 93.0107 49.0135 92.8217 49.2124C92.6328 49.4112 92.4837 49.6399 92.3743 49.8984C92.2682 50.1536 92.2152 50.4238 92.2152 50.7088C92.2152 51.09 92.303 51.4429 92.4787 51.7678C92.6577 52.0926 92.9013 52.3544 93.2095 52.5533C93.5211 52.7488 93.8724 52.8466 94.2635 52.8466ZM99.9004 52.0114V50.7685L104.3 43.8182H105.28V45.6477H104.658L101.511 50.6293V50.7088H107.542V52.0114H99.9004ZM104.728 54V51.6335L104.738 51.0668V43.8182H106.194V54H104.728ZM109.774 54V52.8864L113.22 49.3168C113.588 48.929 113.891 48.5893 114.129 48.2976C114.371 48.0026 114.552 47.7225 114.671 47.4574C114.791 47.1922 114.85 46.9105 114.85 46.6122C114.85 46.2741 114.771 45.9825 114.612 45.7372C114.453 45.4886 114.235 45.2981 113.96 45.1655C113.685 45.0296 113.375 44.9616 113.031 44.9616C112.666 44.9616 112.348 45.0362 112.076 45.1854C111.804 45.3345 111.596 45.545 111.45 45.8168C111.304 46.0885 111.231 46.4067 111.231 46.7713H109.764C109.764 46.1515 109.907 45.6096 110.192 45.1456C110.477 44.6816 110.868 44.322 111.365 44.0668C111.862 43.8082 112.427 43.679 113.061 43.679C113.7 43.679 114.264 43.8066 114.751 44.0618C115.241 44.3137 115.624 44.6584 115.899 45.0959C116.174 45.5301 116.312 46.0206 116.312 46.5675C116.312 46.9453 116.241 47.3149 116.098 47.6761C115.959 48.0374 115.715 48.4401 115.367 48.8842C115.019 49.325 114.535 49.8603 113.916 50.4901L111.892 52.608V52.6825H116.476V54H109.774ZM118.999 54V43.8182H125.383V45.1406H120.536V48.2429H125.05V49.5604H120.536V52.6776H125.443V54H118.999ZM127.935 54V43.8182H134.249V45.1406H129.471V48.2429H133.797V49.5604H129.471V54H127.935ZM136.285 52.0114V50.7685L140.685 43.8182H141.664V45.6477H141.043L137.896 50.6293V50.7088H143.926V52.0114H136.285ZM141.113 54V51.6335L141.123 51.0668V43.8182H142.579V54H141.113Z" fill="#FFFBFF"/>
<path d="M5.11861 127V116.818H8.74787C9.54001 116.818 10.1963 116.962 10.7166 117.251C11.237 117.539 11.6264 117.933 11.8849 118.434C12.1435 118.931 12.2727 119.491 12.2727 120.114C12.2727 120.741 12.1418 121.304 11.88 121.805C11.6214 122.302 11.2304 122.696 10.7067 122.988C10.1863 123.276 9.53172 123.42 8.7429 123.42H6.24716V122.118H8.60369C9.10417 122.118 9.51018 122.032 9.82173 121.859C10.1333 121.684 10.362 121.445 10.5078 121.143C10.6536 120.842 10.7266 120.499 10.7266 120.114C10.7266 119.73 10.6536 119.388 10.5078 119.09C10.362 118.792 10.1316 118.558 9.81676 118.389C9.50521 118.22 9.09422 118.136 8.58381 118.136H6.65483V127H5.11861ZM14.4544 127V119.364H15.8912V120.577H15.9707C16.1099 120.166 16.3552 119.843 16.7065 119.607C17.0611 119.369 17.4622 119.249 17.9096 119.249C18.0024 119.249 18.1118 119.253 18.2377 119.259C18.367 119.266 18.4681 119.274 18.541 119.284V120.706C18.4814 120.689 18.3753 120.671 18.2228 120.651C18.0704 120.628 17.9179 120.616 17.7654 120.616C17.4141 120.616 17.1009 120.691 16.8258 120.84C16.554 120.986 16.3386 121.19 16.1795 121.452C16.0204 121.71 15.9409 122.005 15.9409 122.337V127H14.4544ZM20.3274 127V119.364H21.8139V127H20.3274ZM21.0781 118.185C20.8196 118.185 20.5975 118.099 20.4119 117.927C20.2296 117.751 20.1385 117.542 20.1385 117.3C20.1385 117.055 20.2296 116.846 20.4119 116.674C20.5975 116.498 20.8196 116.411 21.0781 116.411C21.3366 116.411 21.5571 116.498 21.7393 116.674C21.925 116.846 22.0178 117.055 22.0178 117.3C22.0178 117.542 21.925 117.751 21.7393 117.927C21.5571 118.099 21.3366 118.185 21.0781 118.185ZM24.3137 127V119.364H25.7406V120.607H25.835C25.9941 120.186 26.2543 119.857 26.6156 119.622C26.9769 119.384 27.4094 119.264 27.9132 119.264C28.4236 119.264 28.8511 119.384 29.1958 119.622C29.5439 119.861 29.8007 120.189 29.9664 120.607H30.046C30.2283 120.199 30.5183 119.874 30.916 119.632C31.3137 119.387 31.7877 119.264 32.3379 119.264C33.0306 119.264 33.5957 119.481 34.0332 119.915C34.474 120.35 34.6944 121.004 34.6944 121.879V127H33.2079V122.018C33.2079 121.501 33.0671 121.127 32.7853 120.895C32.5036 120.663 32.1672 120.547 31.7761 120.547C31.2922 120.547 30.916 120.696 30.6475 120.994C30.3791 121.289 30.2449 121.669 30.2449 122.133V127H28.7633V121.924C28.7633 121.51 28.6341 121.177 28.3755 120.925C28.117 120.673 27.7806 120.547 27.3663 120.547C27.0846 120.547 26.8244 120.621 26.5858 120.771C26.3504 120.916 26.1599 121.12 26.014 121.382C25.8715 121.644 25.8002 121.947 25.8002 122.292V127H24.3137ZM39.4091 127.169C38.9252 127.169 38.4877 127.08 38.0966 126.901C37.7055 126.718 37.3956 126.455 37.1669 126.11C36.9415 125.765 36.8288 125.343 36.8288 124.842C36.8288 124.411 36.9117 124.057 37.0774 123.778C37.2431 123.5 37.4669 123.28 37.7486 123.117C38.0303 122.955 38.3452 122.832 38.6932 122.749C39.0412 122.666 39.3958 122.603 39.7571 122.56C40.2145 122.507 40.5857 122.464 40.8707 122.431C41.1558 122.395 41.3629 122.337 41.4922 122.257C41.6214 122.178 41.6861 122.048 41.6861 121.869V121.835C41.6861 121.4 41.5634 121.064 41.3182 120.825C41.0762 120.587 40.715 120.467 40.2344 120.467C39.7339 120.467 39.3395 120.578 39.0511 120.8C38.7661 121.019 38.5689 121.263 38.4595 121.531L37.0625 121.213C37.2282 120.749 37.4702 120.375 37.7884 120.089C38.1098 119.801 38.4794 119.592 38.897 119.463C39.3146 119.33 39.7538 119.264 40.2145 119.264C40.5194 119.264 40.8426 119.301 41.1839 119.374C41.5286 119.443 41.8501 119.572 42.1484 119.761C42.45 119.95 42.697 120.22 42.8892 120.572C43.0814 120.92 43.1776 121.372 43.1776 121.929V127H41.7259V125.956H41.6662C41.5701 126.148 41.4259 126.337 41.2337 126.523C41.0414 126.708 40.7945 126.862 40.4929 126.985C40.1913 127.108 39.83 127.169 39.4091 127.169ZM39.7322 125.976C40.1432 125.976 40.4946 125.895 40.7862 125.732C41.0812 125.57 41.3049 125.358 41.4574 125.096C41.6132 124.831 41.6911 124.547 41.6911 124.246V123.261C41.638 123.314 41.5353 123.364 41.3828 123.411C41.2337 123.454 41.063 123.492 40.8707 123.525C40.6785 123.555 40.4912 123.583 40.3089 123.609C40.1267 123.633 39.9742 123.652 39.8516 123.669C39.5632 123.705 39.2997 123.767 39.0611 123.853C38.8258 123.939 38.6368 124.063 38.4943 124.226C38.3551 124.385 38.2855 124.597 38.2855 124.862C38.2855 125.23 38.4214 125.509 38.6932 125.697C38.965 125.883 39.3113 125.976 39.7322 125.976ZM45.6575 127V119.364H47.0943V120.577H47.1738C47.313 120.166 47.5583 119.843 47.9096 119.607C48.2643 119.369 48.6653 119.249 49.1127 119.249C49.2056 119.249 49.3149 119.253 49.4409 119.259C49.5701 119.266 49.6712 119.274 49.7441 119.284V120.706C49.6845 120.689 49.5784 120.671 49.426 120.651C49.2735 120.628 49.121 120.616 48.9686 120.616C48.6172 120.616 48.304 120.691 48.0289 120.84C47.7572 120.986 47.5417 121.19 47.3826 121.452C47.2235 121.71 47.144 122.005 47.144 122.337V127H45.6575ZM52.7026 129.864C52.4805 129.864 52.2783 129.845 52.0961 129.809C51.9138 129.776 51.7779 129.739 51.6884 129.7L52.0463 128.482C52.3181 128.554 52.5601 128.586 52.7722 128.576C52.9843 128.566 53.1716 128.487 53.334 128.337C53.4997 128.188 53.6455 127.945 53.7715 127.607L53.9554 127.099L51.1614 119.364H52.7523L54.6863 125.29H54.7658L56.6998 119.364H58.2956L55.1486 128.019C55.0028 128.417 54.8172 128.753 54.5918 129.028C54.3664 129.307 54.098 129.516 53.7864 129.655C53.4748 129.794 53.1136 129.864 52.7026 129.864Z" fill="#1C1B1E"/>
<defs>
<filter id="filter0_d_824_1242" x="0" y="0" width="224" height="100" filterUnits="userSpaceOnUse" color-interpolation-filters="sRGB">
<feFlood flood-opacity="0" result="BackgroundImageFix"/>
<feColorMatrix in="SourceAlpha" type="matrix" values="0 0 0 0 0 0 0 0 0 0 0 0 0 0 0 0 0 0 127 0" result="hardAlpha"/>
<feOffset dy="1"/>
<feGaussianBlur stdDeviation="2"/>
<feComposite in2="hardAlpha" operator="out"/>
<feColorMatrix type="matrix" values="0 0 0 0 0 0 0 0 0 0 0 0 0 0 0 0 0 0 0.1 0"/>
<feBlend mode="normal" in2="BackgroundImageFix" result="effect1_dropShadow_824_1242"/>
<feBlend mode="normal" in="SourceGraphic" in2="effect1_dropShadow_824_1242" result="shape"/>
</filter>
</defs>
</svg>
