<svg width="224" height="133" viewBox="0 0 224 133" fill="none" xmlns="http://www.w3.org/2000/svg">
<g filter="url(#filter0_d_824_1623)">
<rect x="4" y="3" width="216" height="92" rx="8" fill="#410001"/>
</g>
<path d="M86.1759 54L87.8463 43.8182H89.0395L87.3691 54H86.1759ZM81.5672 51.2756L81.7611 50.0824H89.477L89.2831 51.2756H81.5672ZM82.5963 54L84.2668 43.8182H85.46L83.7895 54H82.5963ZM82.1588 47.7358L82.3527 46.5426H90.0686L89.8747 47.7358H82.1588ZM91.5381 52.0114V50.7685L95.9379 43.8182H96.9173V45.6477H96.2959L93.1489 50.6293V50.7088H99.1794V52.0114H91.5381ZM96.3655 54V51.6335L96.3754 51.0668V43.8182H97.8321V54H96.3655ZM105.138 43.8182V54H103.597V45.3594H103.537L101.101 46.9503V45.4787L103.642 43.8182H105.138ZM111.937 54.169C111.152 54.1657 110.481 53.9586 109.924 53.5476C109.367 53.1366 108.941 52.5384 108.646 51.7528C108.351 50.9673 108.204 50.0211 108.204 48.9141C108.204 47.8104 108.351 46.8674 108.646 46.0852C108.944 45.303 109.372 44.7064 109.929 44.2955C110.489 43.8845 111.158 43.679 111.937 43.679C112.716 43.679 113.384 43.8861 113.941 44.3004C114.498 44.7114 114.924 45.308 115.218 46.0902C115.517 46.8691 115.666 47.8104 115.666 48.9141C115.666 50.0244 115.518 50.9723 115.223 51.7578C114.928 52.54 114.503 53.1383 113.946 53.5526C113.389 53.9635 112.719 54.169 111.937 54.169ZM111.937 52.8416C112.627 52.8416 113.165 52.5052 113.553 51.8324C113.944 51.1596 114.14 50.1868 114.14 48.9141C114.14 48.0689 114.05 47.3546 113.871 46.7713C113.696 46.1847 113.442 45.7405 113.111 45.4389C112.782 45.134 112.391 44.9815 111.937 44.9815C111.251 44.9815 110.713 45.3196 110.321 45.9957C109.93 46.6719 109.733 47.6446 109.73 48.9141C109.73 49.7625 109.818 50.4801 109.993 51.0668C110.172 51.6501 110.426 52.0926 110.754 52.3942C111.082 52.6925 111.477 52.8416 111.937 52.8416ZM121.474 54.169C120.689 54.1657 120.018 53.9586 119.461 53.5476C118.904 53.1366 118.478 52.5384 118.183 51.7528C117.888 50.9673 117.741 50.0211 117.741 48.9141C117.741 47.8104 117.888 46.8674 118.183 46.0852C118.481 45.303 118.909 44.7064 119.466 44.2955C120.026 43.8845 120.695 43.679 121.474 43.679C122.253 43.679 122.921 43.8861 123.478 44.3004C124.035 44.7114 124.461 45.308 124.756 46.0902C125.054 46.8691 125.203 47.8104 125.203 48.9141C125.203 50.0244 125.056 50.9723 124.761 51.7578C124.466 52.54 124.04 53.1383 123.483 53.5526C122.926 53.9635 122.257 54.169 121.474 54.169ZM121.474 52.8416C122.164 52.8416 122.702 52.5052 123.09 51.8324C123.481 51.1596 123.677 50.1868 123.677 48.9141C123.677 48.0689 123.587 47.3546 123.408 46.7713C123.233 46.1847 122.979 45.7405 122.648 45.4389C122.32 45.134 121.928 44.9815 121.474 44.9815C120.788 44.9815 120.25 45.3196 119.859 45.9957C119.467 46.6719 119.27 47.6446 119.267 48.9141C119.267 49.7625 119.355 50.4801 119.53 51.0668C119.709 51.6501 119.963 52.0926 120.291 52.3942C120.619 52.6925 121.014 52.8416 121.474 52.8416ZM131.011 54.169C130.226 54.1657 129.555 53.9586 128.998 53.5476C128.441 53.1366 128.015 52.5384 127.72 51.7528C127.425 50.9673 127.278 50.0211 127.278 48.9141C127.278 47.8104 127.425 46.8674 127.72 46.0852C128.019 45.303 128.446 44.7064 129.003 44.2955C129.563 43.8845 130.233 43.679 131.011 43.679C131.79 43.679 132.458 43.8861 133.015 44.3004C133.572 44.7114 133.998 45.308 134.293 46.0902C134.591 46.8691 134.74 47.8104 134.74 48.9141C134.74 50.0244 134.593 50.9723 134.298 51.7578C134.003 52.54 133.577 53.1383 133.02 53.5526C132.463 53.9635 131.794 54.169 131.011 54.169ZM131.011 52.8416C131.701 52.8416 132.239 52.5052 132.627 51.8324C133.018 51.1596 133.214 50.1868 133.214 48.9141C133.214 48.0689 133.124 47.3546 132.945 46.7713C132.77 46.1847 132.516 45.7405 132.185 45.4389C131.857 45.134 131.466 44.9815 131.011 44.9815C130.325 44.9815 129.787 45.3196 129.396 45.9957C129.005 46.6719 128.807 47.6446 128.804 48.9141C128.804 49.7625 128.892 50.4801 129.068 51.0668C129.247 51.6501 129.5 52.0926 129.828 52.3942C130.156 52.6925 130.551 52.8416 131.011 52.8416ZM140.867 43.8182V54H139.326V45.3594H139.266L136.83 46.9503V45.4787L139.37 43.8182H140.867Z" fill="#FFFBFF"/>
<path d="M13.9631 121.909C13.9631 122.996 13.7642 123.931 13.3665 124.713C12.9688 125.492 12.4235 126.092 11.7308 126.513C11.0414 126.93 10.2576 127.139 9.37926 127.139C8.49763 127.139 7.71046 126.93 7.01776 126.513C6.32836 126.092 5.7848 125.49 5.38707 124.708C4.98935 123.926 4.79048 122.993 4.79048 121.909C4.79048 120.822 4.98935 119.889 5.38707 119.11C5.7848 118.328 6.32836 117.728 7.01776 117.31C7.71046 116.889 8.49763 116.679 9.37926 116.679C10.2576 116.679 11.0414 116.889 11.7308 117.31C12.4235 117.728 12.9688 118.328 13.3665 119.11C13.7642 119.889 13.9631 120.822 13.9631 121.909ZM12.4418 121.909C12.4418 121.08 12.3075 120.383 12.0391 119.816C11.7739 119.246 11.4093 118.815 10.9453 118.523C10.4846 118.228 9.96259 118.081 9.37926 118.081C8.79261 118.081 8.26894 118.228 7.80824 118.523C7.34754 118.815 6.98295 119.246 6.71449 119.816C6.44934 120.383 6.31676 121.08 6.31676 121.909C6.31676 122.738 6.44934 123.437 6.71449 124.007C6.98295 124.574 7.34754 125.005 7.80824 125.3C8.26894 125.591 8.79261 125.737 9.37926 125.737C9.96259 125.737 10.4846 125.591 10.9453 125.3C11.4093 125.005 11.7739 124.574 12.0391 124.007C12.3075 123.437 12.4418 122.738 12.4418 121.909ZM17.7456 122.466V127H16.2591V119.364H17.6859V120.607H17.7804C17.956 120.202 18.2311 119.877 18.6056 119.632C18.9835 119.387 19.4591 119.264 20.0325 119.264C20.5529 119.264 21.0086 119.374 21.3997 119.592C21.7908 119.808 22.094 120.129 22.3095 120.557C22.5249 120.984 22.6326 121.513 22.6326 122.143V127H21.1461V122.322C21.1461 121.768 21.002 121.336 20.7136 121.024C20.4252 120.709 20.0292 120.552 19.5254 120.552C19.1807 120.552 18.8741 120.626 18.6056 120.776C18.3405 120.925 18.13 121.143 17.9743 121.432C17.8218 121.717 17.7456 122.062 17.7456 122.466ZM29.4506 127V116.818H35.8342V118.141H30.9869V121.243H35.5011V122.56H30.9869V125.678H35.8938V127H29.4506ZM38.2669 127V119.364H39.7037V120.577H39.7832C39.9224 120.166 40.1677 119.843 40.519 119.607C40.8736 119.369 41.2747 119.249 41.7221 119.249C41.8149 119.249 41.9243 119.253 42.0502 119.259C42.1795 119.266 42.2806 119.274 42.3535 119.284V120.706C42.2939 120.689 42.1878 120.671 42.0353 120.651C41.8829 120.628 41.7304 120.616 41.5779 120.616C41.2266 120.616 40.9134 120.691 40.6383 120.84C40.3665 120.986 40.1511 121.19 39.992 121.452C39.8329 121.71 39.7534 122.005 39.7534 122.337V127H38.2669ZM44.1399 127V119.364H45.5767V120.577H45.6562C45.7955 120.166 46.0407 119.843 46.392 119.607C46.7467 119.369 47.1477 119.249 47.5952 119.249C47.688 119.249 47.7973 119.253 47.9233 119.259C48.0526 119.266 48.1536 119.274 48.2266 119.284V120.706C48.1669 120.689 48.0608 120.671 47.9084 120.651C47.7559 120.628 47.6035 120.616 47.451 120.616C47.0997 120.616 46.7865 120.691 46.5114 120.84C46.2396 120.986 46.0241 121.19 45.8651 121.452C45.706 121.71 45.6264 122.005 45.6264 122.337V127H44.1399ZM52.9561 127.154C52.2402 127.154 51.6155 126.99 51.0819 126.662C50.5482 126.334 50.1339 125.875 49.839 125.285C49.544 124.695 49.3965 124.005 49.3965 123.217C49.3965 122.424 49.544 121.732 49.839 121.138C50.1339 120.545 50.5482 120.085 51.0819 119.756C51.6155 119.428 52.2402 119.264 52.9561 119.264C53.6721 119.264 54.2968 119.428 54.8304 119.756C55.3641 120.085 55.7783 120.545 56.0733 121.138C56.3683 121.732 56.5158 122.424 56.5158 123.217C56.5158 124.005 56.3683 124.695 56.0733 125.285C55.7783 125.875 55.3641 126.334 54.8304 126.662C54.2968 126.99 53.6721 127.154 52.9561 127.154ZM52.9611 125.906C53.4251 125.906 53.8096 125.784 54.1145 125.538C54.4194 125.293 54.6448 124.967 54.7907 124.559C54.9398 124.151 55.0144 123.702 55.0144 123.212C55.0144 122.724 54.9398 122.277 54.7907 121.869C54.6448 121.458 54.4194 121.129 54.1145 120.88C53.8096 120.631 53.4251 120.507 52.9611 120.507C52.4938 120.507 52.106 120.631 51.7978 120.88C51.4928 121.129 51.2658 121.458 51.1167 121.869C50.9708 122.277 50.8979 122.724 50.8979 123.212C50.8979 123.702 50.9708 124.151 51.1167 124.559C51.2658 124.967 51.4928 125.293 51.7978 125.538C52.106 125.784 52.4938 125.906 52.9611 125.906ZM58.6751 127V119.364H60.1119V120.577H60.1914C60.3306 120.166 60.5759 119.843 60.9272 119.607C61.2818 119.369 61.6829 119.249 62.1303 119.249C62.2231 119.249 62.3325 119.253 62.4585 119.259C62.5877 119.266 62.6888 119.274 62.7617 119.284V120.706C62.7021 120.689 62.596 120.671 62.4435 120.651C62.2911 120.628 62.1386 120.616 61.9862 120.616C61.6348 120.616 61.3216 120.691 61.0465 120.84C60.7747 120.986 60.5593 121.19 60.4002 121.452C60.2411 121.71 60.1616 122.005 60.1616 122.337V127H58.6751ZM77.3292 120.129H75.7781C75.7184 119.798 75.6074 119.506 75.445 119.254C75.2826 119.002 75.0837 118.789 74.8484 118.613C74.613 118.437 74.3496 118.305 74.0579 118.215C73.7695 118.126 73.463 118.081 73.1381 118.081C72.5515 118.081 72.0262 118.228 71.5621 118.523C71.1014 118.818 70.7369 119.251 70.4684 119.821C70.2032 120.391 70.0707 121.087 70.0707 121.909C70.0707 122.738 70.2032 123.437 70.4684 124.007C70.7369 124.577 71.1031 125.008 71.5671 125.3C72.0311 125.591 72.5531 125.737 73.1332 125.737C73.4547 125.737 73.7596 125.694 74.0479 125.608C74.3396 125.518 74.6031 125.388 74.8384 125.215C75.0737 125.043 75.2726 124.832 75.435 124.584C75.6007 124.332 75.7151 124.044 75.7781 123.719L77.3292 123.724C77.2463 124.224 77.0856 124.685 76.8469 125.106C76.6116 125.523 76.3084 125.885 75.9371 126.19C75.5692 126.491 75.1483 126.725 74.6744 126.891C74.2004 127.056 73.6834 127.139 73.1232 127.139C72.2416 127.139 71.4561 126.93 70.7667 126.513C70.0773 126.092 69.5337 125.49 69.136 124.708C68.7416 123.926 68.5444 122.993 68.5444 121.909C68.5444 120.822 68.7433 119.889 69.141 119.11C69.5387 118.328 70.0823 117.728 70.7717 117.31C71.4611 116.889 72.2449 116.679 73.1232 116.679C73.6635 116.679 74.1673 116.757 74.6346 116.913C75.1052 117.065 75.5278 117.29 75.9023 117.589C76.2769 117.884 76.5868 118.245 76.832 118.673C77.0773 119.097 77.243 119.582 77.3292 120.129ZM82.7647 127.154C82.0488 127.154 81.4241 126.99 80.8904 126.662C80.3568 126.334 79.9425 125.875 79.6475 125.285C79.3526 124.695 79.2051 124.005 79.2051 123.217C79.2051 122.424 79.3526 121.732 79.6475 121.138C79.9425 120.545 80.3568 120.085 80.8904 119.756C81.4241 119.428 82.0488 119.264 82.7647 119.264C83.4806 119.264 84.1054 119.428 84.639 119.756C85.1726 120.085 85.5869 120.545 85.8819 121.138C86.1769 121.732 86.3244 122.424 86.3244 123.217C86.3244 124.005 86.1769 124.695 85.8819 125.285C85.5869 125.875 85.1726 126.334 84.639 126.662C84.1054 126.99 83.4806 127.154 82.7647 127.154ZM82.7697 125.906C83.2337 125.906 83.6182 125.784 83.9231 125.538C84.228 125.293 84.4534 124.967 84.5993 124.559C84.7484 124.151 84.823 123.702 84.823 123.212C84.823 122.724 84.7484 122.277 84.5993 121.869C84.4534 121.458 84.228 121.129 83.9231 120.88C83.6182 120.631 83.2337 120.507 82.7697 120.507C82.3024 120.507 81.9146 120.631 81.6064 120.88C81.3014 121.129 81.0744 121.458 80.9252 121.869C80.7794 122.277 80.7065 122.724 80.7065 123.212C80.7065 123.702 80.7794 124.151 80.9252 124.559C81.0744 124.967 81.3014 125.293 81.6064 125.538C81.9146 125.784 82.3024 125.906 82.7697 125.906ZM89.9702 122.466V127H88.4837V119.364H89.9105V120.607H90.005C90.1806 120.202 90.4557 119.877 90.8303 119.632C91.2081 119.387 91.6837 119.264 92.2571 119.264C92.7775 119.264 93.2332 119.374 93.6243 119.592C94.0154 119.808 94.3187 120.129 94.5341 120.557C94.7495 120.984 94.8572 121.513 94.8572 122.143V127H93.3707V122.322C93.3707 121.768 93.2266 121.336 92.9382 121.024C92.6499 120.709 92.2538 120.552 91.75 120.552C91.4053 120.552 91.0987 120.626 90.8303 120.776C90.5651 120.925 90.3546 121.143 90.1989 121.432C90.0464 121.717 89.9702 122.062 89.9702 122.466ZM100.915 119.364V120.557H96.7443V119.364H100.915ZM97.8629 117.534H99.3494V124.758C99.3494 125.046 99.3925 125.263 99.4787 125.409C99.5649 125.552 99.6759 125.649 99.8118 125.702C99.951 125.752 100.102 125.777 100.264 125.777C100.384 125.777 100.488 125.769 100.577 125.752C100.667 125.736 100.737 125.722 100.786 125.712L101.055 126.94C100.969 126.973 100.846 127.007 100.687 127.04C100.528 127.076 100.329 127.096 100.09 127.099C99.6991 127.106 99.3345 127.036 98.9964 126.891C98.6584 126.745 98.3849 126.519 98.1761 126.214C97.9673 125.91 97.8629 125.527 97.8629 125.066V117.534ZM105.282 127.169C104.798 127.169 104.361 127.08 103.97 126.901C103.579 126.718 103.269 126.455 103.04 126.11C102.815 125.765 102.702 125.343 102.702 124.842C102.702 124.411 102.785 124.057 102.95 123.778C103.116 123.5 103.34 123.28 103.622 123.117C103.903 122.955 104.218 122.832 104.566 122.749C104.914 122.666 105.269 122.603 105.63 122.56C106.088 122.507 106.459 122.464 106.744 122.431C107.029 122.395 107.236 122.337 107.365 122.257C107.494 122.178 107.559 122.048 107.559 121.869V121.835C107.559 121.4 107.436 121.064 107.191 120.825C106.949 120.587 106.588 120.467 106.107 120.467C105.607 120.467 105.213 120.578 104.924 120.8C104.639 121.019 104.442 121.263 104.333 121.531L102.936 121.213C103.101 120.749 103.343 120.375 103.661 120.089C103.983 119.801 104.352 119.592 104.77 119.463C105.188 119.33 105.627 119.264 106.088 119.264C106.392 119.264 106.716 119.301 107.057 119.374C107.402 119.443 107.723 119.572 108.021 119.761C108.323 119.95 108.57 120.22 108.762 120.572C108.954 120.92 109.051 121.372 109.051 121.929V127H107.599V125.956H107.539C107.443 126.148 107.299 126.337 107.107 126.523C106.914 126.708 106.668 126.862 106.366 126.985C106.064 127.108 105.703 127.169 105.282 127.169ZM105.605 125.976C106.016 125.976 106.368 125.895 106.659 125.732C106.954 125.57 107.178 125.358 107.33 125.096C107.486 124.831 107.564 124.547 107.564 124.246V123.261C107.511 123.314 107.408 123.364 107.256 123.411C107.107 123.454 106.936 123.492 106.744 123.525C106.552 123.555 106.364 123.583 106.182 123.609C106 123.633 105.847 123.652 105.725 123.669C105.436 123.705 105.173 123.767 104.934 123.853C104.699 123.939 104.51 124.063 104.367 124.226C104.228 124.385 104.159 124.597 104.159 124.862C104.159 125.23 104.294 125.509 104.566 125.697C104.838 125.883 105.184 125.976 105.605 125.976ZM111.531 127V119.364H113.017V127H111.531ZM112.281 118.185C112.023 118.185 111.801 118.099 111.615 117.927C111.433 117.751 111.342 117.542 111.342 117.3C111.342 117.055 111.433 116.846 111.615 116.674C111.801 116.498 112.023 116.411 112.281 116.411C112.54 116.411 112.76 116.498 112.942 116.674C113.128 116.846 113.221 117.055 113.221 117.3C113.221 117.542 113.128 117.751 112.942 117.927C112.76 118.099 112.54 118.185 112.281 118.185ZM117.003 122.466V127H115.517V119.364H116.944V120.607H117.038C117.214 120.202 117.489 119.877 117.863 119.632C118.241 119.387 118.717 119.264 119.29 119.264C119.811 119.264 120.266 119.374 120.657 119.592C121.049 119.808 121.352 120.129 121.567 120.557C121.783 120.984 121.89 121.513 121.89 122.143V127H120.404V122.322C120.404 121.768 120.26 121.336 119.971 121.024C119.683 120.709 119.287 120.552 118.783 120.552C118.439 120.552 118.132 120.626 117.863 120.776C117.598 120.925 117.388 121.143 117.232 121.432C117.08 121.717 117.003 122.062 117.003 122.466ZM127.675 127.154C126.923 127.154 126.275 126.993 125.731 126.672C125.191 126.347 124.773 125.891 124.479 125.305C124.187 124.715 124.041 124.024 124.041 123.232C124.041 122.449 124.187 121.76 124.479 121.163C124.773 120.567 125.184 120.101 125.711 119.766C126.242 119.432 126.862 119.264 127.571 119.264C128.002 119.264 128.419 119.335 128.824 119.478C129.228 119.621 129.591 119.844 129.912 120.149C130.234 120.454 130.488 120.85 130.673 121.337C130.859 121.821 130.952 122.41 130.952 123.102V123.629H124.881V122.516H129.495C129.495 122.125 129.415 121.778 129.256 121.477C129.097 121.172 128.873 120.931 128.585 120.756C128.3 120.58 127.965 120.492 127.581 120.492C127.163 120.492 126.799 120.595 126.487 120.8C126.179 121.003 125.94 121.268 125.771 121.596C125.605 121.921 125.523 122.274 125.523 122.655V123.525C125.523 124.035 125.612 124.469 125.791 124.827C125.973 125.185 126.227 125.459 126.552 125.648C126.876 125.833 127.256 125.926 127.69 125.926C127.972 125.926 128.229 125.886 128.461 125.807C128.693 125.724 128.893 125.601 129.062 125.439C129.231 125.277 129.361 125.076 129.45 124.837L130.857 125.091C130.744 125.505 130.542 125.868 130.251 126.18C129.962 126.488 129.599 126.728 129.162 126.901C128.728 127.07 128.232 127.154 127.675 127.154ZM133.101 127V119.364H134.538V120.577H134.617C134.756 120.166 135.002 119.843 135.353 119.607C135.708 119.369 136.109 119.249 136.556 119.249C136.649 119.249 136.758 119.253 136.884 119.259C137.013 119.266 137.115 119.274 137.188 119.284V120.706C137.128 120.689 137.022 120.671 136.869 120.651C136.717 120.628 136.564 120.616 136.412 120.616C136.061 120.616 135.747 120.691 135.472 120.84C135.201 120.986 134.985 121.19 134.826 121.452C134.667 121.71 134.587 122.005 134.587 122.337V127H133.101Z" fill="#1C1B1E"/>
<defs>
<filter id="filter0_d_824_1623" x="0" y="0" width="224" height="100" filterUnits="userSpaceOnUse" color-interpolation-filters="sRGB">
<feFlood flood-opacity="0" result="BackgroundImageFix"/>
<feColorMatrix in="SourceAlpha" type="matrix" values="0 0 0 0 0 0 0 0 0 0 0 0 0 0 0 0 0 0 127 0" result="hardAlpha"/>
<feOffset dy="1"/>
<feGaussianBlur stdDeviation="2"/>
<feComposite in2="hardAlpha" operator="out"/>
<feColorMatrix type="matrix" values="0 0 0 0 0 0 0 0 0 0 0 0 0 0 0 0 0 0 0.1 0"/>
<feBlend mode="normal" in2="BackgroundImageFix" result="effect1_dropShadow_824_1623"/>
<feBlend mode="normal" in="SourceGraphic" in2="effect1_dropShadow_824_1623" result="shape"/>
</filter>
</defs>
</svg>
